<svg width="103" height="32" viewBox="0 0 103 32" fill="none" xmlns="http://www.w3.org/2000/svg">
<g clip-path="url(#clip0_1371_42)">
<mask id="mask0_1371_42" style="mask-type:luminance" maskUnits="userSpaceOnUse" x="0" y="0" width="103" height="32">
<path d="M0 0H103V32H0V0Z" fill="white"/>
</mask>
<g mask="url(#mask0_1371_42)">
<path d="M40.3731 16.0735C41.1481 15.6335 41.7681 15.0855 42.2201 14.4395C42.7337 13.7092 43.0054 12.8363 42.9971 11.9435C42.9971 10.2215 42.3531 8.8765 41.0841 7.9475C39.8301 7.0275 38.1051 6.5625 35.9551 6.5625H28.1811V26.5135H36.2661C38.5301 26.5135 40.3431 25.9875 41.6541 24.9485C42.9751 23.9005 43.6461 22.4335 43.6461 20.5865C43.6461 19.4615 43.3301 18.4945 42.7091 17.7115C42.1521 17.0115 41.3671 16.4615 40.3731 16.0735ZM32.3881 10.1585H35.6171C36.6301 10.1585 37.3941 10.3545 37.8911 10.7415C38.3811 11.1215 38.6211 11.6235 38.6211 12.2715C38.6211 12.9215 38.3811 13.4475 37.8911 13.8305C37.3941 14.2165 36.6301 14.4125 35.6171 14.4125H32.3881V10.1585ZM38.4671 22.2415C37.9071 22.6905 37.0521 22.9175 35.9271 22.9175H32.3881V18.0355H35.9281C37.0521 18.0355 37.9081 18.2555 38.4701 18.6855C39.0271 19.1155 39.2971 19.6825 39.2971 20.4215C39.2971 21.1995 39.0261 21.7945 38.4671 22.2415ZM49.3311 11.5945H45.0951V26.5125H49.3301L49.3311 11.5945ZM91.1621 13.8395C90.484 13.0356 89.6295 12.399 88.6651 11.9795C87.6791 11.5425 86.5701 11.3205 85.3711 11.3205C83.9011 11.3205 82.5751 11.6545 81.4281 12.3125C80.2938 12.9581 79.3569 13.9005 78.7181 15.0385C78.0671 16.1885 77.7381 17.5205 77.7381 18.9995C77.7381 20.4795 78.0581 21.8995 78.6881 23.0665C79.3037 24.2195 80.2419 25.1682 81.3881 25.7965C82.5451 26.4355 83.9041 26.7595 85.4281 26.7595C87.2981 26.7595 88.8851 26.2895 90.1481 25.3605C91.3631 24.4675 92.1981 23.2085 92.6541 21.6305H88.3901C88.1661 22.1675 87.8501 22.6245 87.3971 22.9465C86.8621 23.3265 86.1711 23.5185 85.3431 23.5185C84.6251 23.5185 84.0091 23.3445 83.5131 23.0005C83.0161 22.6555 82.6361 22.1475 82.3861 21.4865C82.2264 21.0522 82.1193 20.6003 82.0671 20.1405H92.7281L92.7491 20.0085C92.9391 18.8055 92.8911 17.6655 92.6051 16.6205C92.3316 15.5995 91.8392 14.6502 91.1621 13.8385V13.8395ZM82.1351 17.3795C82.1998 17.0704 82.2884 16.7669 82.4001 16.4715C82.6601 15.8015 83.0351 15.2865 83.5161 14.9425C83.9951 14.5985 84.5911 14.4255 85.2871 14.4255C86.1601 14.4255 86.8771 14.7085 87.4171 15.2655C87.9301 15.7955 88.2201 16.5195 88.2821 17.3785L82.1351 17.3795ZM49.4191 6.5625H45.0071V10.1585H49.4191V6.5625ZM72.6111 13.2875C72.1336 12.7046 71.5369 12.2307 70.8611 11.8975C70.0711 11.5145 69.1461 11.3205 68.1121 11.3205C66.8471 11.3205 65.7121 11.6335 64.7421 12.2475C63.7721 12.8625 63.0021 13.7305 62.4571 14.8265C61.9121 15.9205 61.6361 17.2045 61.6361 18.6445C61.6361 20.0845 61.9261 21.2935 62.5001 22.3945C63.0751 23.4995 63.8721 24.3795 64.8691 25.0115C65.8671 25.6445 67.0061 25.9665 68.2541 25.9665C69.1961 25.9665 70.0571 25.7625 70.8111 25.3595C71.3923 25.0533 71.9005 24.6252 72.3011 24.1045V25.7285C72.3011 26.7355 72.0371 27.5085 71.5171 28.0235C70.9951 28.5385 70.2011 28.7985 69.1571 28.7985C68.2571 28.7985 67.5501 28.5945 67.0551 28.1915C66.6501 27.8615 66.2961 27.4295 66.2141 26.5135H62.1301C62.1681 27.7955 62.5441 28.6585 63.0761 29.4155C63.6711 30.2625 64.5091 30.9255 65.5691 31.3835C66.6171 31.8355 67.8351 32.0655 69.1851 32.0655C71.4531 32.0655 73.2581 31.4955 74.5501 30.3725C75.8501 29.2435 76.5081 27.6625 76.5081 25.6745V11.5945H72.6121L72.6111 13.2875ZM71.8661 20.6265C71.6206 21.1552 71.2292 21.6027 70.7381 21.9165C70.2581 22.2165 69.6781 22.3705 69.0161 22.3705C68.0561 22.3705 67.3111 22.0435 66.7361 21.3725C66.1621 20.7035 65.8711 19.7855 65.8711 18.6435C65.8711 17.5015 66.1611 16.5835 66.7351 15.9145C67.3041 15.2525 68.0711 14.9165 69.0151 14.9165C69.9601 14.9165 70.7941 15.2565 71.3811 15.9295C71.9731 16.6085 72.2731 17.5305 72.2731 18.6695C72.2731 19.4085 72.1361 20.0655 71.8661 20.6255V20.6265ZM103.003 15.1635V11.5955H99.9461V6.5625H95.7391V11.5955H93.1281V15.1635H95.7391V21.0035C95.7391 24.2505 96.3791 26.6365 100.365 26.5625L102.868 26.5125V23.1695H101.626C99.8541 23.1695 99.9531 22.1365 99.9531 20.2175L99.9461 15.1645L103.003 15.1635ZM60.6071 15.1635V11.5955H57.5501V6.5625H53.3431V11.5955H50.7311V15.1635H53.3411V21.0035C53.3411 24.2505 53.9811 26.6365 57.9681 26.5625L60.4701 26.5125V23.1695H59.2311C57.4591 23.1695 57.5571 22.1365 57.5571 20.2175L57.5501 15.1645L60.6071 15.1635ZM10.5611 10.1585H16.9141L23.4131 16.6155C23.8361 17.0355 23.8381 17.7195 23.4171 18.1415L15.0821 26.5185H8.53906L10.5181 24.5945L17.7821 17.3765L10.6101 10.1575" fill="#00F0FF"/>
<path d="M13.1695 17.36H6.81848L0.318484 10.903C0.217898 10.8031 0.137994 10.6844 0.0833448 10.5536C0.0286959 10.4228 0.00037524 10.2826 3.7037e-06 10.1408C-0.000367832 9.99909 0.0272171 9.85867 0.0811795 9.7276C0.135142 9.59653 0.214423 9.47739 0.314484 9.377L8.64948 1H15.1935L13.2155 2.924L5.95048 10.142L13.1235 17.36" fill="#00F0FF"/>
</g>
</g>
<defs>
<clipPath id="clip0_1371_42">
<rect width="103" height="32" fill="white"/>
</clipPath>
</defs>
</svg>
