<svg width="130" height="27" viewBox="0 0 130 27" fill="none" xmlns="http://www.w3.org/2000/svg">
<path d="M7.78749 12.9041C7.78751 12.7758 7.81294 12.6488 7.8623 12.5303C7.91166 12.4119 7.98399 12.3043 8.07514 12.2138C8.16629 12.1233 8.27445 12.0517 8.39342 12.003C8.5124 11.9544 8.63983 11.9296 8.76842 11.9302L10.3947 11.9355C10.654 11.9355 10.9027 12.0383 11.086 12.2212C11.2694 12.4041 11.3724 12.6522 11.3724 12.9109V19.0463C11.5556 18.9921 11.79 18.9344 12.0479 18.8738C12.2266 18.8318 12.3859 18.7309 12.4999 18.5873C12.6139 18.4437 12.676 18.266 12.676 18.0828V10.4729C12.676 10.2142 12.779 9.96604 12.9624 9.78308C13.1457 9.60013 13.3944 9.49732 13.6537 9.49727H15.2849C15.5442 9.49732 15.7929 9.60013 15.9763 9.78308C16.1596 9.96604 16.2626 10.2142 16.2626 10.4729V17.5361C16.2626 17.5361 16.6707 17.3714 17.068 17.204C17.2156 17.1417 17.3416 17.0374 17.4302 16.9041C17.5188 16.7709 17.5661 16.6146 17.5662 16.4547V8.03425C17.5662 7.77559 17.6692 7.52752 17.8525 7.3446C18.0358 7.16168 18.2845 7.05889 18.5437 7.05884H20.1732C20.4324 7.05909 20.6808 7.16197 20.864 7.34487C21.0471 7.52777 21.15 7.77572 21.15 8.03425V14.9682C22.5627 13.9467 23.9945 12.7181 25.1306 11.2409C25.2955 11.0265 25.4046 10.7747 25.4482 10.508C25.4917 10.2413 25.4685 9.96795 25.3804 9.71239C24.8545 8.20281 24.0185 6.81939 22.9259 5.65065C21.8332 4.48192 20.5081 3.55361 19.0353 2.92512C17.5624 2.29663 15.9742 1.98182 14.3724 2.00081C12.7706 2.01981 11.1904 2.3722 9.73294 3.03543C8.27546 3.69867 6.97282 4.65814 5.90836 5.85246C4.84391 7.04677 4.04108 8.44962 3.55125 9.97125C3.06142 11.4929 2.89538 13.0998 3.06375 14.6891C3.23212 16.2784 3.7312 17.8151 4.52905 19.201C4.66805 19.4401 4.87256 19.6346 5.11854 19.7617C5.36452 19.8888 5.64176 19.9433 5.91769 19.9187C6.22594 19.8916 6.60973 19.8533 7.06603 19.7999C7.26462 19.7774 7.44796 19.6828 7.58114 19.5341C7.71433 19.3854 7.78804 19.193 7.78825 18.9936V12.9041" fill="#12161C"/>
<path d="M7.75293 22.7445C9.47054 23.9912 11.5003 24.7394 13.6178 24.9066C15.7352 25.0737 17.8577 24.6532 19.7504 23.6916C21.6432 22.73 23.2324 21.2647 24.3422 19.4579C25.4521 17.6511 26.0393 15.5733 26.0389 13.4542C26.0389 13.1891 26.0265 12.9282 26.0089 12.668C21.8022 18.9274 14.0348 21.8536 7.75293 22.7445Z" fill="#F0B90B"/>
<path d="M40.8683 13.3593C41.7792 13.5231 42.6011 14.0071 43.185 14.7235C43.7636 15.4328 44.0718 16.3235 44.0552 17.2378C44.0835 17.8327 43.9772 18.4263 43.7445 18.9747C43.5117 19.5231 43.1583 20.0123 42.7104 20.406C41.8138 21.1802 40.5142 21.5673 38.8115 21.5673H31.9629V5.64737H38.6758C40.2873 5.64737 41.5267 6.00064 42.394 6.7072C43.2612 7.41375 43.6944 8.40551 43.6936 9.68248C43.731 10.5608 43.4547 11.4238 42.9138 12.1178C42.3925 12.7508 41.6713 13.1884 40.8683 13.3593ZM35.1498 12.322H38.0191C38.67 12.3681 39.3159 12.1801 39.8399 11.7921C40.0515 11.6014 40.2174 11.3655 40.325 11.1019C40.4326 10.8384 40.4792 10.554 40.4614 10.27C40.4788 9.98522 40.4332 9.70009 40.3277 9.43488C40.2222 9.16966 40.0595 8.93085 39.8512 8.7354C39.4443 8.37461 38.819 8.19421 37.9752 8.19421H35.1498V12.322ZM38.1786 18.9741C38.871 19.0196 39.5579 18.8244 40.1224 18.4217C40.3528 18.2236 40.5339 17.9749 40.6516 17.6951C40.7692 17.4153 40.8202 17.1121 40.8005 16.8094C40.8183 16.5023 40.7653 16.1953 40.6455 15.9119C40.5258 15.6285 40.3426 15.3763 40.1098 15.1745C39.5467 14.7585 38.8541 14.5548 38.1547 14.5995H35.1498V18.9741H38.1786ZM50.61 8.91705C52.1319 8.91705 53.3524 9.30039 54.2716 10.0671C55.1986 10.8472 55.8092 11.9373 55.9894 13.1338H53.0071C52.9101 12.5738 52.6227 12.0642 52.1934 11.6906C51.7283 11.315 51.1413 11.1224 50.5434 11.1495C50.0886 11.1212 49.6389 11.2573 49.2764 11.5328C49.1271 11.6601 49.0088 11.8197 48.9305 11.9994C48.8521 12.1791 48.8159 12.3743 48.8244 12.5701C48.8185 12.7272 48.8479 12.8837 48.9105 13.0281C48.973 13.1725 49.0672 13.301 49.186 13.4044C49.4512 13.6282 49.7586 13.7969 50.0901 13.9005C50.4518 14.0208 50.9716 14.1636 51.6497 14.3289C52.4376 14.4924 53.212 14.7147 53.9664 14.9941C54.5638 15.2282 55.0927 15.6081 55.5047 16.0991C55.9597 16.6792 56.1886 17.4042 56.1488 18.1398C56.1611 18.6405 56.0535 19.1368 55.8352 19.5878C55.6168 20.0388 55.2939 20.4313 54.8932 20.733C54.0569 21.3936 52.9305 21.7239 51.5141 21.7239C49.8867 21.7239 48.5833 21.3598 47.6038 20.6315C47.1112 20.2573 46.6991 19.7879 46.3923 19.2513C46.0855 18.7147 45.8903 18.122 45.8182 17.5084H48.8696C48.8961 17.794 48.9822 18.071 49.1223 18.3215C49.2624 18.5719 49.4535 18.7904 49.6833 18.9629C50.218 19.3367 50.8619 19.5231 51.5141 19.4928C51.9637 19.5238 52.4082 19.3826 52.7572 19.0982C52.8987 18.9682 53.0104 18.8092 53.0845 18.6321C53.1587 18.455 53.1935 18.264 53.1867 18.0722C53.1924 17.9073 53.162 17.7432 53.0976 17.5913C53.0331 17.4394 52.9363 17.3034 52.8137 17.1927C52.5453 16.956 52.2294 16.7792 51.887 16.6741C51.5178 16.5538 50.9946 16.411 50.3174 16.2456C49.5467 16.0821 48.7879 15.8674 48.0458 15.603C47.4671 15.386 46.9536 15.0251 46.5541 14.5544C46.112 13.9903 45.8911 13.2849 45.9325 12.5701C45.9194 12.0641 46.025 11.5621 46.2408 11.104C46.4566 10.6459 46.7768 10.2445 47.1756 9.93178C48.0036 9.25529 49.1483 8.91705 50.61 8.91705ZM64.1489 8.91705C65.6061 8.86586 67.0347 9.32897 68.1834 10.2249C69.2758 11.1224 69.9964 12.3916 70.2064 13.7877H66.8373C66.7279 13.1713 66.3988 12.6151 65.9106 12.2218C65.3855 11.8244 64.7384 11.6212 64.0798 11.6468C63.6804 11.6391 63.2841 11.7189 62.919 11.8806C62.5539 12.0423 62.2287 12.2819 61.9665 12.5826C61.4014 13.2065 61.1189 14.1197 61.1189 15.3224C61.1189 16.525 61.4014 17.4383 61.9665 18.0621C62.2287 18.3628 62.5539 18.6025 62.919 18.7642C63.2841 18.9258 63.6804 19.0056 64.0798 18.9979C64.7384 19.0236 65.3855 18.8203 65.9106 18.4229C66.3988 18.0296 66.7279 17.4734 66.8373 16.857H70.2051C69.9951 18.2531 69.2745 19.5223 68.1822 20.4198C67.0333 21.3141 65.6052 21.7759 64.1489 21.7239C63.0154 21.7454 61.8952 21.4781 60.8941 20.9472C59.9544 20.4382 59.1845 19.6662 58.6791 18.7261C58.1306 17.6762 57.8584 16.5046 57.888 15.3211C57.8594 14.1341 58.1315 12.9591 58.6791 11.9049C59.1801 10.9616 59.9512 10.1884 60.8941 9.68373C61.8973 9.15961 63.0167 8.89595 64.1489 8.91705ZM83.4288 17.2165C83.4349 18.006 83.2238 18.7821 82.8186 19.4602C82.3848 20.1691 81.7576 20.7401 81.0104 21.1063C80.1024 21.543 79.1022 21.7549 78.0946 21.7239C77.0562 21.7417 76.0252 21.5459 75.0659 21.1489C74.2183 20.7973 73.481 20.2249 72.9312 19.4915C72.3905 18.7542 72.0728 17.8778 72.0158 16.966H75.4062C75.4653 17.5789 75.7418 18.1507 76.186 18.5783C76.4243 18.7973 76.7039 18.9669 77.0085 19.0773C77.3131 19.1876 77.6366 19.2364 77.9603 19.2209C78.2372 19.2394 78.5151 19.202 78.7772 19.111C79.0394 19.0199 79.2804 18.8771 79.486 18.691C79.663 18.5117 79.8014 18.2982 79.8927 18.0636C79.984 17.829 80.0264 17.5783 80.0171 17.3268C80.0339 16.8778 79.8805 16.4391 79.5877 16.0978C79.2863 15.7637 78.9162 15.4984 78.5027 15.3199C78.0658 15.1244 77.463 14.8989 76.6945 14.6434C75.8578 14.3767 75.0419 14.0488 74.2535 13.6625C73.609 13.3292 73.0546 12.8458 72.6374 12.2531C72.1648 11.54 71.9314 10.6956 71.9706 9.84158C71.9444 9.224 72.0649 8.60898 72.3222 8.04665C72.5794 7.48432 72.9663 6.9906 73.4511 6.60572C74.4381 5.81649 75.7452 5.42188 77.3726 5.42188C79.0603 5.42188 80.4051 5.82777 81.4072 6.63955C81.8994 7.03497 82.3047 7.52719 82.5981 8.08559C82.8915 8.64399 83.0665 9.25664 83.1124 9.88543H79.6768C79.6038 9.3474 79.3491 8.85027 78.9548 8.47608C78.5129 8.08955 77.9368 7.89121 77.35 7.92362C76.8348 7.89944 76.3284 8.06383 75.9261 8.38588C75.74 8.55452 75.5945 8.76285 75.5004 8.99537C75.4062 9.22789 75.3659 9.4786 75.3823 9.72883C75.3678 10.155 75.5175 10.5706 75.8005 10.8901C76.0987 11.2122 76.4603 11.4694 76.8628 11.6455C77.4346 11.8946 78.0193 12.1129 78.6145 12.2995C79.466 12.5893 80.2999 12.9281 81.1121 13.3142C81.7686 13.6438 82.332 14.1322 82.7508 14.7348C83.2325 15.4695 83.4697 16.337 83.4288 17.214V17.2165ZM91.4075 8.91705C92.8647 8.86586 94.2934 9.32897 95.4421 10.2249C96.5344 11.1224 97.2551 12.3916 97.465 13.7877H94.0972C93.9878 13.1713 93.6587 12.6151 93.1705 12.2218C92.6454 11.8244 91.9983 11.6212 91.3397 11.6468C90.9403 11.6391 90.544 11.7189 90.1789 11.8806C89.8138 12.0423 89.4886 12.2819 89.2264 12.5826C88.6613 13.2065 88.3788 14.1197 88.3788 15.3224C88.3788 16.525 88.6613 17.4383 89.2264 18.0621C89.4886 18.3628 89.8138 18.6025 90.1789 18.7642C90.544 18.9258 90.9403 19.0056 91.3397 18.9979C91.9983 19.0236 92.6454 18.8203 93.1705 18.4229C93.6587 18.0296 93.9878 17.4734 94.0972 16.857H97.465C97.2545 18.2522 96.5339 19.5204 95.4421 20.4173C94.2932 21.3128 92.8646 21.7755 91.4075 21.7239C90.2741 21.7454 89.1538 21.4781 88.1528 20.9472C87.2131 20.4382 86.4431 19.6662 85.9377 18.7261C85.3893 17.6762 85.1171 16.5046 85.1466 15.3211C85.118 14.1341 85.3901 12.9591 85.9377 11.9049C86.4388 10.9616 87.2099 10.1884 88.1528 9.68373C89.156 9.15961 90.2753 8.89595 91.4075 8.91705ZM104.63 8.91705C105.588 8.89004 106.533 9.14916 107.342 9.66118C108.081 10.139 108.644 10.8433 108.947 11.6681V9.0749H112.111V21.5673H108.947V18.9516C108.643 19.7784 108.08 20.4858 107.342 20.9698C106.535 21.4883 105.59 21.7512 104.63 21.7239C103.628 21.7381 102.641 21.4726 101.782 20.9572C100.92 20.4254 100.232 19.6533 99.8044 18.7361C99.3082 17.6667 99.0647 16.498 99.0924 15.3199C99.0647 14.1418 99.3082 12.973 99.8044 11.9036C100.232 10.9864 100.92 10.2143 101.782 9.68248C102.641 9.16758 103.628 8.90247 104.63 8.91705ZM105.625 11.6906C105.179 11.672 104.734 11.749 104.321 11.9165C103.908 12.084 103.535 12.3381 103.229 12.6615C102.626 13.3088 102.325 14.1961 102.325 15.3236C102.325 16.4511 102.626 17.3343 103.229 17.9732C103.537 18.2934 103.91 18.5445 104.323 18.7097C104.736 18.8749 105.18 18.9506 105.625 18.9315C106.069 18.9451 106.511 18.8648 106.923 18.6957C107.334 18.5267 107.705 18.2728 108.01 17.9506C108.659 17.2335 108.997 16.2887 108.948 15.3236C108.999 14.3514 108.662 13.3986 108.01 12.674C107.705 12.3515 107.334 12.0971 106.923 11.9276C106.512 11.7581 106.069 11.6773 105.625 11.6906ZM122.463 8.8945C123.109 8.86566 123.753 8.97786 124.35 9.22325C124.947 9.46864 125.484 9.84129 125.922 10.3151C126.78 11.2622 127.209 12.5926 127.209 14.3064V21.5673H124.044V14.6672C124.044 13.675 123.788 12.9046 123.276 12.3558C123.004 12.0769 122.676 11.8591 122.314 11.7172C121.951 11.5752 121.562 11.5123 121.173 11.5328C120.769 11.5151 120.366 11.5845 119.991 11.7363C119.617 11.8881 119.28 12.1186 119.003 12.4122C118.46 12.9985 118.189 13.8404 118.189 14.9378V21.5673H115.005V9.0749H118.192V11.5766C118.505 10.7567 119.081 10.0631 119.83 9.60356C120.623 9.12164 121.537 8.87564 122.465 8.8945H122.463Z" fill="#12161C"/>
</svg>
