<svg width="87" height="34" viewBox="0 0 87 34" fill="none" xmlns="http://www.w3.org/2000/svg">
<path d="M62.0078 25.3572V3H66.5017V25.3572H62.0078Z" fill="#F7A600"/>
<path d="M9.63407 31.9978H0V9.64062H9.24666C13.7406 9.64062 16.3591 12.0898 16.3591 15.9209C16.3591 18.4008 14.6774 20.0034 13.5134 20.537C14.9028 21.1647 16.6813 22.5774 16.6813 25.5619C16.6813 29.7368 13.7406 31.9978 9.63407 31.9978ZM8.89096 13.535H4.4939V18.6847H8.89096C10.7981 18.6847 11.8652 17.6483 11.8652 16.109C11.8652 14.5714 10.7981 13.535 8.89096 13.535ZM9.18151 22.6099H4.4939V28.1051H9.18151C11.2189 28.1051 12.1874 26.8498 12.1874 25.3413C12.1874 23.8345 11.2171 22.6099 9.18151 22.6099Z" fill="#112945"/>
<path d="M30.3887 22.8288V31.9978H25.9265V22.8288L19.0078 9.64062H23.8891L28.1893 18.6522L32.4244 9.64062H37.3057L30.3887 22.8288Z" fill="#112945"/>
<path d="M50.0443 31.9978H40.4102V9.64062H49.6569C54.1508 9.64062 56.7693 12.0898 56.7693 15.9209C56.7693 18.4008 55.0876 20.0034 53.9236 20.537C55.313 21.1647 57.0916 22.5774 57.0916 25.5619C57.0916 29.7368 54.1508 31.9978 50.0443 31.9978ZM49.3012 13.535H44.9041V18.6847H49.3012C51.2083 18.6847 52.2754 17.6483 52.2754 16.109C52.2754 14.5714 51.2083 13.535 49.3012 13.535ZM49.5917 22.6099H44.9041V28.1051H49.5917C51.6291 28.1051 52.5976 26.8498 52.5976 25.3413C52.5976 23.8345 51.6291 22.6099 49.5917 22.6099Z" fill="#112945"/>
<path d="M80.9841 13.535V31.9995H76.4902V13.535H70.4766V9.64062H86.9977V13.535H80.9841Z" fill="#112945"/>
</svg>
