<svg width="116" height="27" viewBox="0 0 116 27" fill="none" xmlns="http://www.w3.org/2000/svg">
<path d="M43.1238 10.8197C42.9546 10.1811 42.665 9.6203 42.2169 9.2142C41.7493 8.79049 41.1175 8.54285 40.293 8.54285C39.0721 8.54285 38.2017 9.10275 37.6405 9.94406C37.0822 10.781 36.8318 11.8924 36.8318 13.0035C36.8318 14.1147 37.0822 15.2264 37.6405 16.0636C38.2017 16.9052 39.0721 17.4655 40.293 17.4655C41.182 17.4655 41.8757 17.1206 42.3649 16.5574C42.8347 16.0166 43.1116 15.2803 43.201 14.4673H44.8933C44.7976 15.7701 44.3044 16.8656 43.5229 17.6408C42.7208 18.4364 41.6096 18.9 40.2966 18.9C38.6694 18.9 37.3733 18.2318 36.4822 17.1639C35.5897 16.0942 35.1 14.6186 35.1 13.0024C35.1 11.386 35.5881 9.9092 36.4789 8.83836C37.3682 7.76934 38.6624 7.10008 40.2894 7.1C41.5172 7.10766 42.6089 7.46304 43.4206 8.11414C44.2066 8.74463 44.7353 9.65644 44.8705 10.8133L43.1238 10.8197Z" fill="#B0B0BB" stroke="#B0B0BB" stroke-width="0.2"/>
<path d="M46.1 14.4908C46.1 13.204 46.4589 12.1063 47.1218 11.332C47.7831 10.5595 48.7544 10.1 50 10.1C51.2456 10.1 52.2168 10.5595 52.8782 11.332C53.5411 12.1063 53.9 13.204 53.9 14.4908C53.9 15.7777 53.5411 16.8802 52.878 17.6591C52.2165 18.4362 51.2452 18.9 50 18.9C48.7544 18.9 47.7832 18.4402 47.1219 17.6654C46.459 16.8887 46.1 15.7864 46.1 14.4908ZM52.3526 14.4908C52.3526 13.7433 52.1775 12.9718 51.7965 12.3837C51.4132 11.792 50.8205 11.3863 50 11.3863C49.1796 11.3863 48.5869 11.7916 48.2035 12.3832C47.8225 12.9711 47.6474 13.7426 47.6474 14.4908C47.6474 15.239 47.8225 16.015 48.2033 16.6073C48.5864 17.2033 49.1791 17.6136 50 17.6136C50.8205 17.6136 51.4133 17.208 51.7966 16.6138C52.1776 16.0235 52.3526 15.2474 52.3526 14.4908Z" fill="#B0B0BB" stroke="#B0B0BB" stroke-width="0.2"/>
<path d="M56.1 8.1H57.9V9.56387H56.1V8.1ZM56.1 11.1356H57.9V18.9H56.1V11.1356Z" fill="#B0B0BB" stroke="#B0B0BB" stroke-width="0.2"/>
<path d="M61.6577 13.8302V18.9H60.1V10.3386H61.5652V11.5266V11.5651L61.5911 11.5937L61.6218 11.6276L61.7175 11.7333L61.7843 11.6073C62.0291 11.1449 62.3797 10.7627 62.8001 10.4986L62.8001 10.4986C63.2203 10.2345 63.6958 10.0973 64.1784 10.1H64.179C65.0229 10.1 65.6996 10.3481 66.1656 10.824C66.6318 11.3001 66.9 12.0174 66.9 12.9815V18.8987H65.3422V13.4912H65.3422L65.3421 13.489C65.3266 12.7947 65.1942 12.2769 64.9175 11.9318C64.6366 11.5814 64.2217 11.4266 63.6856 11.4266C62.4396 11.4266 61.6577 12.5079 61.6577 13.8302Z" fill="#B0B0BB" stroke="#B0B0BB" stroke-width="0.2"/>
<path d="M77.1014 8.06976C77.9691 8.69034 78.5741 9.60655 78.7514 10.8145H76.906C76.6553 9.29515 75.2438 8.53636 73.7354 8.53636C72.4198 8.53636 71.4798 9.09336 70.8721 9.93507C70.2673 10.7728 69.9957 11.8858 69.9957 12.9987C69.9957 14.1118 70.2673 15.2252 70.8721 16.0631C71.4797 16.905 72.4194 17.4622 73.7347 17.4624C74.8264 17.4786 75.684 17.1723 76.2734 16.6023C76.8628 16.0323 77.1717 15.2104 77.1894 14.2199L77.1912 14.1181H77.0894H74.0031V12.7957H78.8962L78.8999 18.6278H77.7375L77.4377 17.3573L77.3943 17.1735L77.2667 17.3127C76.7144 17.915 76.1887 18.3102 75.6258 18.5557C75.063 18.8012 74.4565 18.9 73.7379 18.9H73.7378C71.9719 18.9012 70.5648 18.2296 69.5983 17.1598C68.6307 16.0888 68.1 14.613 68.1 13C68.1 11.387 68.6307 9.91185 69.598 8.8411C70.5641 7.77155 71.9707 7.1 73.7354 7.1C75.0236 7.1 76.2051 7.42871 77.1014 8.06976Z" fill="#B0B0BB" stroke="#B0B0BB" stroke-width="0.2"/>
<path d="M81.8376 14.8864H81.7376V14.9864C81.7376 15.6717 81.919 16.3274 82.3052 16.814C82.6938 17.3037 83.2833 17.6136 84.0776 17.6136C84.6247 17.6136 85.0736 17.4902 85.4289 17.2378C85.7676 16.9973 86.0125 16.6457 86.1781 16.1934H87.7237C87.2931 17.9303 85.8197 18.9 84.0776 18.9C82.7981 18.9 81.8074 18.4434 81.1354 17.6727C80.4618 16.9003 80.1 15.8027 80.1 14.508C80.1 12.1188 81.6223 10.1 84.0299 10.1C86.5507 10.1 88.1272 12.4028 87.8735 14.8864H81.8376ZM86.1253 13.8482H86.2308L86.2251 13.7428C86.1589 12.5199 85.3407 11.3863 84.0299 11.3863C82.6932 11.3863 81.7884 12.4279 81.7376 13.7444L81.7336 13.8482H81.8376H86.1253Z" fill="#B0B0BB" stroke="#B0B0BB" stroke-width="0.2"/>
<path d="M95.2165 12.9877C95.1273 12.4862 94.8971 12.0913 94.5581 11.8187C94.2008 11.5314 93.7307 11.3863 93.1967 11.3863C92.6948 11.3863 92.0838 11.5185 91.5985 11.9947C91.1127 12.4715 90.769 13.2771 90.769 14.5899C90.769 15.3124 90.927 16.0642 91.2992 16.6388C91.6745 17.2181 92.2661 17.6136 93.1141 17.6136C93.6788 17.6136 94.1634 17.4234 94.53 17.0695C94.8789 16.7327 95.1148 16.2536 95.2164 15.665H96.8821C96.7014 16.6984 96.2921 17.4947 95.681 18.0376C95.0479 18.6002 94.188 18.9 93.1141 18.9C91.8118 18.9 90.8118 18.4351 90.1361 17.6701C89.4591 16.9035 89.1 15.8263 89.1 14.5899C89.1 13.3187 89.444 12.1962 90.1217 11.3933C90.7974 10.5928 91.8131 10.1 93.1796 10.1C94.1476 10.1 95.0358 10.3439 95.7015 10.8379C96.3409 11.3125 96.7816 12.0224 96.8897 12.9877H95.2165Z" fill="#B0B0BB" stroke="#B0B0BB" stroke-width="0.2"/>
<path d="M99.7991 16.1476V18.9H98.1V8.1H99.8041V14.2536V14.4841L99.9724 14.3266L103.384 11.135H105.419L102.31 13.8855L102.242 13.9454L102.295 14.0188L105.805 18.8977H103.727L101.118 15.0746L101.053 14.9803L100.968 15.0564L99.8324 16.0731L99.7991 16.1029V16.1476Z" fill="#B0B0BB" stroke="#B0B0BB" stroke-width="0.2"/>
<path d="M106.1 14.4908C106.1 13.204 106.459 12.1062 107.122 11.3319C107.783 10.5595 108.754 10.1 109.999 10.1C111.245 10.1 112.216 10.5595 112.878 11.332C113.541 12.1063 113.9 13.204 113.9 14.4908C113.9 15.7777 113.541 16.8801 112.878 17.6591C112.216 18.4362 111.245 18.9 109.999 18.9C108.754 18.9 107.783 18.4402 107.122 17.6654C106.459 16.8887 106.1 15.7864 106.1 14.4908ZM112.353 14.4908C112.353 13.7433 112.177 12.9717 111.796 12.3837C111.413 11.792 110.82 11.3863 109.999 11.3863C109.179 11.3863 108.586 11.7916 108.203 12.3832C107.822 12.9711 107.647 13.7427 107.647 14.4908C107.647 15.239 107.822 16.015 108.203 16.6073C108.586 17.2033 109.179 17.6136 109.999 17.6136C110.82 17.6136 111.413 17.208 111.796 16.6139C112.178 16.0235 112.353 15.2474 112.353 14.4908Z" fill="#B0B0BB" stroke="#B0B0BB" stroke-width="0.2"/>
<path d="M26.617 13.2405C26.6286 15.8708 25.8593 18.4454 24.4067 20.6389C22.9539 22.8324 20.8829 24.5461 18.4555 25.5635C16.0281 26.5807 13.3533 26.8558 10.7695 26.354C8.18564 25.8521 5.80872 24.5959 3.93933 22.7442C2.06994 20.8924 0.79203 18.5283 0.267216 15.9508C-0.257599 13.3732 -0.00574922 10.698 0.990913 8.26351C1.98758 5.82902 3.68429 3.74453 5.86648 2.27366C8.04868 0.802778 10.6184 0.0115831 13.2506 0.000126464C16.78 -0.0152441 20.1711 1.37106 22.6777 3.85408C25.1844 6.33711 26.6013 9.71348 26.617 13.2405Z" fill="#8DC63F"/>
<path d="M25.6177 13.246C25.6288 15.6786 24.9177 18.06 23.5744 20.0887C22.2311 22.1175 20.3159 23.7028 18.071 24.6438C15.8261 25.5849 13.3524 25.8397 10.9627 25.3759C8.57293 24.9121 6.37448 23.7505 4.64535 22.0381C2.91621 20.3257 1.73407 18.1393 1.24841 15.7556C0.762743 13.3717 0.99537 10.8975 1.91687 8.64588C2.83837 6.3942 4.40735 4.46616 6.42541 3.10557C8.44346 1.74499 10.8199 1.01296 13.2543 1.00207C16.5185 0.987726 19.6547 2.26956 21.9732 4.56566C24.2917 6.86175 25.6027 9.98408 25.6177 13.246Z" fill="#F9E988"/>
<path d="M13.5331 1.79939C14.3156 1.66062 15.1163 1.66062 15.8988 1.79939C16.6888 1.92439 17.4524 2.18007 18.1584 2.55591C18.8604 2.94139 19.4671 3.46468 20.0707 3.9552C20.6744 4.44572 21.2752 4.94782 21.8472 5.49713C22.4309 6.03788 22.9404 6.65359 23.3622 7.32817C23.7965 7.9974 24.1524 8.71428 24.423 9.4647C24.937 10.9739 25.1154 12.5996 24.8589 14.1503H24.7827C24.5252 12.6132 24.1761 11.1483 23.6254 9.75477C23.367 9.05305 23.0629 8.36897 22.7151 7.7069C22.3521 7.04473 21.9523 6.4035 21.5173 5.78624C21.0749 5.16222 20.5328 4.61523 19.9125 4.16721C19.2876 3.72198 18.5692 3.43383 17.8738 3.16014C17.1785 2.88645 16.4889 2.60312 15.7638 2.39496C15.0386 2.18681 14.3017 2.03068 13.5322 1.87938L13.5331 1.79939Z" fill="white"/>
<path d="M19.5519 8.90508C18.6589 8.6468 17.7331 8.28059 16.7957 7.91053C16.7416 7.67538 16.5334 7.38242 16.112 7.02488C15.4996 6.49388 14.349 6.50737 13.3547 6.74252C12.2573 6.48424 11.1733 6.39269 10.1328 6.64615C1.62206 8.98891 6.44785 14.7047 3.32324 20.4502C3.76782 21.3928 8.55986 26.8916 15.4938 25.4162C15.4938 25.4162 13.1223 19.7218 18.4737 16.9886C22.8144 14.7634 25.9506 10.6465 19.5519 8.90508Z" fill="#8BC53F"/>
<path d="M20.6032 12.6455C20.6037 12.7475 20.574 12.8474 20.5178 12.9324C20.4617 13.0176 20.3813 13.0841 20.2874 13.1236C20.1932 13.1633 20.0896 13.174 19.9894 13.1547C19.8892 13.1354 19.797 13.0868 19.7244 13.015C19.6519 12.9433 19.6023 12.8517 19.5817 12.7519C19.5613 12.652 19.5709 12.5482 19.6095 12.4538C19.648 12.3594 19.7137 12.2785 19.7981 12.2213C19.8827 12.1642 19.9823 12.1335 20.0844 12.1328C20.2211 12.1323 20.3524 12.1861 20.4498 12.2821C20.547 12.3781 20.6021 12.5089 20.6032 12.6455Z" fill="white"/>
<path d="M13.3555 6.73795C13.9753 6.78229 16.2175 7.50892 16.7962 7.90596C16.314 6.50859 14.6909 6.3226 13.3555 6.73795Z" fill="#009345"/>
<path d="M13.9448 10.272C13.945 10.7425 13.8056 11.2024 13.5441 11.5937C13.2827 11.985 12.9111 12.2899 12.4762 12.4701C12.0413 12.6502 11.5627 12.6975 11.1009 12.6058C10.6392 12.5141 10.215 12.2877 9.88203 11.9552C9.54907 11.6225 9.32229 11.1987 9.23038 10.7373C9.13846 10.2759 9.18554 9.79766 9.36565 9.36299C9.54576 8.92834 9.85083 8.55683 10.2423 8.29544C10.6337 8.03405 11.0939 7.89453 11.5647 7.89453C11.8772 7.8944 12.1867 7.95581 12.4754 8.07523C12.7642 8.19465 13.0266 8.36975 13.2476 8.59054C13.4686 8.81131 13.6439 9.07344 13.7636 9.36195C13.8832 9.65046 13.9448 9.95969 13.9448 10.272Z" fill="white"/>
<path d="M13.239 10.2921C13.239 10.623 13.1407 10.9465 12.9569 11.2215C12.7729 11.4967 12.5114 11.7112 12.2055 11.8378C11.8996 11.9644 11.5629 11.9976 11.2382 11.933C10.9134 11.8684 10.6151 11.7091 10.381 11.4751C10.1468 11.2411 9.98739 10.943 9.92279 10.6185C9.8582 10.294 9.89135 9.9576 10.0181 9.65191C10.1448 9.34621 10.3594 9.08492 10.6347 8.90109C10.91 8.71726 11.2337 8.61914 11.5648 8.61914C12.0088 8.61914 12.4347 8.7954 12.7486 9.10915C13.0626 9.42289 13.239 9.84842 13.239 10.2921Z" fill="#58595B"/>
<path d="M22.5321 13.6941C20.6034 15.0519 18.4104 16.0821 15.2992 16.0821C13.8429 16.0821 13.5479 14.5402 12.5854 15.2938C12.0888 15.6851 10.3375 16.5602 8.94778 16.4937C7.5581 16.4271 5.30529 15.6128 4.67747 12.6484C4.42866 15.6128 4.30137 17.7965 3.1875 20.2992C5.40559 23.8486 10.6943 26.5865 15.495 25.4069C14.979 21.8075 18.1268 18.2823 19.9003 16.4782C20.5753 15.7949 21.858 14.6799 22.5321 13.6921V13.6941Z" fill="#8BC53F"/>
<path d="M22.4539 13.7819C21.8549 14.3274 21.1422 14.7311 20.4171 15.0877C19.6829 15.436 18.9177 15.7145 18.1314 15.9194C17.3446 16.1227 16.5238 16.2759 15.6925 16.2007C14.8612 16.1256 14.0116 15.8432 13.4609 15.2207L13.4869 15.1908C14.162 15.6283 14.9412 15.7825 15.7166 15.8047C16.5025 15.8285 17.2886 15.7639 18.0601 15.612C18.8393 15.4489 19.6016 15.2135 20.337 14.9085C21.0728 14.6049 21.8009 14.2531 22.4278 13.752L22.4539 13.7819Z" fill="#58595B"/>
</svg>
