<svg width="1000" height="229" viewBox="0 0 1000 229" fill="none" xmlns="http://www.w3.org/2000/svg">
<g clip-path="url(#clip0_1375_98)">
<mask id="mask0_1375_98" style="mask-type:luminance" maskUnits="userSpaceOnUse" x="0" y="0" width="1000" height="229">
<path d="M0 0H1000V229H0V0Z" fill="white"/>
</mask>
<g mask="url(#mask0_1375_98)">
<path fill-rule="evenodd" clip-rule="evenodd" d="M827.87 68.0547H856.269V39.6484H827.87V68.0547ZM676.92 115.36C682.347 100.967 696.242 90.7194 712.537 90.7194C728.829 90.7194 742.725 100.967 748.154 115.36H676.92ZM712.537 64.3085C676.939 64.3085 648.071 93.178 648.071 128.792C648.071 164.405 676.939 193.27 712.537 193.27C736.966 193.27 758.217 179.684 769.156 159.659L745.335 148.1C738.716 159.324 726.509 166.859 712.537 166.859C694.884 166.859 680.045 154.839 675.739 138.536H749.332C749.327 138.548 749.325 138.564 749.323 138.579H776.276C776.763 135.386 777.015 132.117 777.015 128.792C777.015 93.178 748.147 64.3085 712.537 64.3085ZM784.5 189.833H812.9V161.426H784.5V189.833ZM827.87 189.833H856.269V80.5427H827.87V189.833ZM935.536 166.859C914.515 166.859 897.475 149.815 897.475 128.792C897.475 107.764 914.515 90.7194 935.536 90.7194C956.556 90.7194 973.597 107.764 973.597 128.792C973.597 149.815 956.556 166.859 935.536 166.859ZM935.524 64.3085C899.926 64.3085 871.058 93.178 871.058 128.792C871.058 164.405 899.926 193.27 935.524 193.27C971.134 193.27 1000 164.405 1000 128.792C1000 93.178 971.134 64.3085 935.524 64.3085ZM341.754 105.022V134.393H381.464C379.39 142.786 375.291 150.307 369.413 156.314C360.547 165.377 348.255 170.37 334.796 170.37C306.869 170.37 284.145 147.644 284.145 119.708C284.145 91.7717 306.869 69.0429 334.796 69.0429C349.756 69.0429 363.507 75.4473 373.04 86.4934L395.775 67.9122C380.701 50.2432 358.336 39.6698 334.796 39.6698C290.676 39.6698 254.781 75.5756 254.781 119.708C254.781 163.84 290.676 199.743 334.796 199.743C356.218 199.743 375.966 192.023 390.403 177.266C402.518 164.88 410.547 147.603 412.091 130.295C412.844 121.853 412.913 113.467 412.469 105.022H341.754ZM486.408 166.866C465.387 166.866 448.345 149.817 448.345 128.792C448.345 107.761 465.387 90.717 486.408 90.717C507.431 90.717 524.474 107.761 524.474 128.792C524.474 149.817 507.431 166.866 486.408 166.866ZM524.479 76.875C513.808 69.0501 500.651 64.4178 486.408 64.4178C450.81 64.4178 421.952 93.2849 421.952 128.891C421.952 164.503 450.81 193.365 486.408 193.365C500.651 193.365 513.808 188.735 524.479 180.91V189.833H550.867V67.9526H524.479V76.875ZM607.514 39.6508H581.124V68.0547H565.306V92.9666H581.124V158.16C581.124 164.892 581.969 170.555 583.646 175C585.299 179.397 587.826 182.839 590.83 185.528C593.875 188.258 597.447 190.384 601.681 191.59C605.985 192.802 610.732 193.27 615.75 193.27C620.945 193.27 625.576 192.731 629.528 191.664C633.197 190.678 636.714 189.284 639.987 187.512V167.439C634.781 169.691 629.915 170.505 624.362 170.764C618.501 171.04 615.033 169.365 612.148 166.614C609.124 163.733 607.514 159.977 607.514 153.677V92.9666H639.987V68.0547H607.514V39.6508Z" fill="black"/>
</g>
<mask id="mask1_1375_98" style="mask-type:luminance" maskUnits="userSpaceOnUse" x="0" y="0" width="1000" height="229">
<path d="M0 0H1000V229H0V0Z" fill="white"/>
</mask>
<g mask="url(#mask1_1375_98)">
<path fill-rule="evenodd" clip-rule="evenodd" d="M114.475 177.476C79.7034 177.476 51.5151 149.284 51.5151 114.502C51.5151 79.7219 79.7034 51.5247 114.475 51.5247V0C51.2515 0 0 51.2634 0 114.502C0 177.738 51.2515 229.001 114.475 229.001C177.696 229.001 228.95 177.738 228.95 114.502H177.435C177.435 149.284 149.247 177.476 114.475 177.476Z" fill="#2354E6"/>
</g>
<mask id="mask2_1375_98" style="mask-type:luminance" maskUnits="userSpaceOnUse" x="0" y="0" width="1000" height="229">
<path d="M0 0H1000V229H0V0Z" fill="white"/>
</mask>
<g mask="url(#mask2_1375_98)">
<path fill-rule="evenodd" clip-rule="evenodd" d="M114.477 114.498H177.437V51.5234H114.477V114.498Z" fill="#17E6A1"/>
</g>
</g>
<defs>
<clipPath id="clip0_1375_98">
<rect width="1000" height="229" fill="white"/>
</clipPath>
</defs>
</svg>
