<svg width="796" height="274" viewBox="0 0 796 274" fill="none" xmlns="http://www.w3.org/2000/svg">
<g clip-path="url(#clip0_1376_127)">
<path d="M242.668 29H28.6293C27.3093 29 26.0433 29.524 25.1103 30.458C24.1763 31.391 23.6523 32.657 23.6523 33.978V248.017C23.6523 249.337 24.1763 250.603 25.1103 251.536C26.0433 252.47 27.3093 252.994 28.6293 252.994H242.668C243.989 252.994 245.255 252.47 246.188 251.536C247.122 250.603 247.646 249.337 247.646 248.017V33.978C247.646 32.657 247.122 31.391 246.188 30.458C245.255 29.524 243.989 29 242.668 29ZM172.981 173.352C172.981 174.672 172.457 175.938 171.523 176.872C170.59 177.805 169.324 178.33 168.004 178.33H103.294C101.974 178.33 100.708 177.805 99.7743 176.872C98.8413 175.938 98.3173 174.672 98.3173 173.352V108.642C98.3173 107.322 98.8413 106.056 99.7743 105.123C100.708 104.189 101.974 103.665 103.294 103.665H168.004C169.324 103.665 170.59 104.189 171.523 105.123C172.457 106.056 172.981 107.322 172.981 108.642V173.352Z" fill="black"/>
<path d="M690.785 103.672H626.076C623.327 103.672 621.098 105.9 621.098 108.649V173.359C621.098 176.108 623.327 178.337 626.076 178.337H690.785C693.534 178.337 695.763 176.108 695.763 173.359V108.649C695.763 105.9 693.534 103.672 690.785 103.672Z" fill="black"/>
<path d="M616.089 29.0078H551.38C548.631 29.0078 546.402 31.2358 546.402 33.9858V98.6948C546.402 101.444 548.631 103.673 551.38 103.673H616.089C618.839 103.673 621.067 101.444 621.067 98.6948V33.9858C621.067 31.2358 618.839 29.0078 616.089 29.0078Z" fill="black"/>
<path d="M765.419 29.0078H700.708C697.959 29.0078 695.73 31.2358 695.73 33.9858V98.6948C695.73 101.444 697.959 103.673 700.708 103.673H765.419C768.168 103.673 770.396 101.444 770.396 98.6948V33.9858C770.396 31.2358 768.168 29.0078 765.419 29.0078Z" fill="black"/>
<path d="M616.089 178.336H551.38C548.631 178.336 546.402 180.564 546.402 183.313V248.023C546.402 250.772 548.631 253.001 551.38 253.001H616.089C618.839 253.001 621.067 250.772 621.067 248.023V183.313C621.067 180.564 618.839 178.336 616.089 178.336Z" fill="black"/>
<path d="M765.419 178.336H700.708C697.959 178.336 695.73 180.564 695.73 183.313V248.023C695.73 250.772 697.959 253.001 700.708 253.001H765.419C768.168 253.001 770.396 250.772 770.396 248.023V183.313C770.396 180.564 768.168 178.336 765.419 178.336Z" fill="black"/>
<path d="M503.996 29.0078H439.287C436.538 29.0078 434.309 31.2358 434.309 33.9858V98.6948C434.309 101.444 436.538 103.673 439.287 103.673H503.996C506.745 103.673 508.974 101.444 508.974 98.6948V33.9858C508.974 31.2358 506.745 29.0078 503.996 29.0078Z" fill="black"/>
<path d="M503.996 178.336H439.287C436.538 178.336 434.309 180.564 434.309 183.313V248.023C434.309 250.772 436.538 253.001 439.287 253.001H503.996C506.745 253.001 508.974 250.772 508.974 248.023V183.313C508.974 180.564 506.745 178.336 503.996 178.336Z" fill="black"/>
<path d="M434.31 108.586C434.31 107.266 433.785 106 432.852 105.067C431.918 104.133 430.652 103.609 429.332 103.609H359.645V33.978C359.645 32.657 359.12 31.391 358.187 30.458C357.253 29.524 355.987 29 354.667 29H289.958C288.637 29 287.371 29.524 286.438 30.458C285.504 31.391 284.98 32.657 284.98 33.978V247.905C284.98 249.225 285.504 250.491 286.438 251.424C287.371 252.358 288.637 252.882 289.958 252.882H354.667C355.987 252.882 357.253 252.358 358.187 251.424C359.12 250.491 359.645 249.225 359.645 247.905V178.274H429.332C430.652 178.274 431.918 177.749 432.852 176.816C433.785 175.882 434.31 174.616 434.31 173.296V108.586Z" fill="black"/>
</g>
<defs>
<clipPath id="clip0_1376_127">
<rect width="796" height="274" fill="white"/>
</clipPath>
</defs>
</svg>
