<svg width="64" height="64" viewBox="0 0 64 64" fill="none" xmlns="http://www.w3.org/2000/svg">
<rect width="64" height="64" rx="16" fill="#01A74D"/>
<path fill-rule="evenodd" clip-rule="evenodd" d="M32.0002 15.2383C22.7428 15.2383 15.2383 22.7428 15.2383 32.0002C15.2383 41.2575 22.7428 48.7621 32.0002 48.7621C41.2575 48.7621 48.7621 41.2575 48.7621 32.0002C48.7621 22.7428 41.2575 15.2383 32.0002 15.2383ZM26.0228 26.9031C27.9314 25.2723 30.4717 25.7513 31.995 27.5322C33.5183 25.7513 36.0257 25.2894 37.9671 26.9031C39.9085 28.5167 40.1444 31.2604 38.6456 33.1891C37.6856 34.4244 35.227 36.7152 33.5833 38.2026C33.0371 38.6969 32.764 38.9441 32.4369 39.0432C32.1556 39.1284 31.8343 39.1284 31.5531 39.0432C31.226 38.9441 30.9528 38.6969 30.4066 38.2026C28.763 36.7152 26.3044 34.4244 25.3443 33.1891C23.8455 31.2604 24.1142 28.5338 26.0228 26.9031Z" fill="url(#paint0_linear_892_85078)"/>
<defs>
<linearGradient id="paint0_linear_892_85078" x1="23.4291" y1="25.1431" x2="49.1434" y2="50.8574" gradientUnits="userSpaceOnUse">
<stop stop-color="white" stop-opacity="0.8"/>
<stop offset="1" stop-color="white" stop-opacity="0.2"/>
</linearGradient>
</defs>
</svg>
