<svg width="64" height="64" viewBox="0 0 64 64" fill="none" xmlns="http://www.w3.org/2000/svg">
<rect width="64" height="64" rx="16" fill="#3A65EB"/>
<path d="M36.308 19.6234C39.0745 18.1018 42.1843 17.3133 45.3415 17.3329C46.0747 17.3374 46.6666 17.933 46.6666 18.6662C46.6666 22.4133 45.6154 28.9431 38.8634 33.8884C38.977 34.3651 39.1063 34.9926 39.1957 35.6861C39.2932 36.4426 39.348 37.3134 39.2684 38.1703C39.1898 39.0157 38.9715 39.9461 38.4427 40.7394L38.4415 40.7412C37.5362 42.0944 35.8289 42.879 34.6363 43.3116C33.9954 43.5441 33.4032 43.709 32.9724 43.8158C32.6476 43.8964 32.4093 43.9453 32.3013 43.9664C31.8904 44.0445 31.4717 43.9624 31.1455 43.69C30.842 43.4367 30.6666 43.0618 30.6666 42.6665V36.5518L27.448 33.3332H21.3333C20.938 33.3332 20.563 33.1578 20.3097 32.8543C20.0564 32.5509 19.9508 32.1507 20.0214 31.7617C20.0663 31.5152 20.1236 31.2706 20.1839 31.0274C20.2908 30.5966 20.4557 30.0044 20.6882 29.3635C21.1208 28.1709 21.9053 26.4636 23.2586 25.5583L23.2603 25.5571C24.0537 25.0282 24.984 24.81 25.8295 24.7314C26.6864 24.6518 27.5572 24.7066 28.3137 24.8041C29.0144 24.8944 29.6478 25.0255 30.1263 25.1399C31.7408 22.8613 33.853 20.9736 36.308 19.6234Z" fill="url(#paint0_linear_892_85086)"/>
<path fill-rule="evenodd" clip-rule="evenodd" d="M24.0041 35.9843C22.9599 35.952 21.9406 36.3063 21.1415 36.9794C20.4392 37.5696 19.9235 38.3828 19.5415 39.1648C19.1519 39.9624 18.8558 40.8231 18.6347 41.5963C18.4123 42.3736 18.2578 43.0906 18.1588 43.6121C18.1091 43.8738 18.0729 44.0886 18.0489 44.24C18.0359 44.3222 18.0237 44.4045 18.0121 44.4869L18.0118 44.4891C17.9567 44.9009 18.0967 45.3153 18.3905 45.6091C18.6842 45.9029 19.0993 46.0428 19.5111 45.9877C19.594 45.976 19.6769 45.9637 19.7596 45.9506C19.911 45.9266 20.1257 45.8905 20.3874 45.8408C20.9089 45.7418 21.6259 45.5872 22.4033 45.3649C23.1764 45.1437 24.0371 44.8477 24.8347 44.4581C25.6165 44.0762 26.4294 43.5607 27.0196 42.8587C28.381 41.2465 28.4013 38.7353 26.8167 37.1708L26.8005 37.1551C26.0445 36.4335 25.0487 36.0166 24.0041 35.9843Z" fill="url(#paint1_linear_892_85086)"/>
<defs>
<linearGradient id="paint0_linear_892_85086" x1="25.004" y1="25.8023" x2="46.993" y2="47.791" gradientUnits="userSpaceOnUse">
<stop stop-color="white" stop-opacity="0.8"/>
<stop offset="1" stop-color="white" stop-opacity="0.2"/>
</linearGradient>
<linearGradient id="paint1_linear_892_85086" x1="25.004" y1="25.8023" x2="46.993" y2="47.791" gradientUnits="userSpaceOnUse">
<stop stop-color="white" stop-opacity="0.8"/>
<stop offset="1" stop-color="white" stop-opacity="0.2"/>
</linearGradient>
</defs>
</svg>
