<svg width="64" height="64" viewBox="0 0 64 64" fill="none" xmlns="http://www.w3.org/2000/svg">
<rect width="64" height="64" rx="16" fill="#6B32E4"/>
<path d="M22.6667 18.6668C22.6667 17.9304 22.0697 17.3335 21.3333 17.3335C20.597 17.3335 20 17.9304 20 18.6668V36.0004C20 36.0004 20 36.0004 20 36.0004V45.3335C20 46.0699 20.597 46.6668 21.3333 46.6668C22.0697 46.6668 22.6667 46.0699 22.6667 45.3335L22.6667 36.7176C22.7592 36.6717 22.8683 36.6222 22.9952 36.5715C23.654 36.3079 24.817 36.0002 26.6667 36.0002C28.3743 36.0002 29.814 36.5618 31.5048 37.2381L31.5791 37.2679C33.2044 37.9182 35.0754 38.6668 37.3333 38.6668C39.4836 38.6668 40.9874 38.3079 41.9952 37.9048C42.4979 37.7037 42.8715 37.4939 43.1354 37.3179C43.2672 37.2301 43.3709 37.1512 43.4492 37.0867C43.5041 37.0415 43.5576 36.9946 43.6081 36.9444L43.6095 36.943C43.8702 36.6823 44.0003 36.3405 44 35.9989V21.3335C44 20.9923 43.8698 20.651 43.6095 20.3907C43.0986 19.8798 42.2762 19.8702 41.7536 20.3618C41.743 20.3706 41.7114 20.3957 41.6562 20.4324C41.5452 20.5064 41.3354 20.63 41.0048 20.7622C40.346 21.0257 39.183 21.3335 37.3333 21.3335C35.6257 21.3335 34.186 20.7718 32.4952 20.0955L32.4209 20.0658C30.7956 19.4155 28.9246 18.6668 26.6667 18.6668C24.9443 18.6668 23.6368 18.8971 22.6667 19.1959V18.6668Z" fill="url(#paint0_linear_892_85094)"/>
<defs>
<linearGradient id="paint0_linear_892_85094" x1="25.8639" y1="26.0002" x2="47.9184" y2="44.0448" gradientUnits="userSpaceOnUse">
<stop stop-color="white" stop-opacity="0.8"/>
<stop offset="1" stop-color="white" stop-opacity="0.2"/>
</linearGradient>
</defs>
</svg>
