<svg width="961" height="450" viewBox="0 0 961 450" fill="none" xmlns="http://www.w3.org/2000/svg">
<g clip-path="url(#clip0_47_208)">
<mask id="mask0_47_208" style="mask-type:luminance" maskUnits="userSpaceOnUse" x="0" y="0" width="961" height="493">
<path d="M961 0H0V493H961V0Z" fill="white"/>
</mask>
<g mask="url(#mask0_47_208)">
<path fill-rule="evenodd" clip-rule="evenodd" d="M88.9895 -9.99986C88.9945 -10 88.9995 -10 89.0058 -9.99986H147.254C147.261 -10 147.266 -10 147.271 -9.99986H205.521C205.526 -10 205.531 -10 205.536 -9.99986H263.792C263.797 -9.99999 263.8 -9.99999 263.804 -9.99986H322.063H322.074H380.326C380.331 -10 380.336 -10 380.341 -9.99986H438.596L438.601 -9.99994L438.608 -9.99986H496.862C496.867 -10 496.873 -10 496.878 -9.99986H555.135H555.147H613.396C613.4 -9.99999 613.405 -9.99999 613.409 -9.99986H671.666C671.671 -10 671.676 -10 671.681 -9.99986H729.935C729.94 -10 729.945 -10 729.95 -9.99986H788.197C788.202 -10 788.207 -10 788.212 -9.99986H846.466C846.471 -10 846.476 -10 846.481 -9.99986H904.736C904.741 -10 904.745 -10 904.75 -9.99986H963.004C963.009 -10 963.014 -10 963.019 -9.99986H1005.78C1005.9 -9.99986 1006 -9.90155 1006 -9.78027C1006 -9.65899 1005.9 -9.56067 1005.78 -9.56067H965.01L990.243 -3.94745H1005.78C1005.9 -3.94745 1006 -3.84913 1006 -3.72785C1006 -3.60657 1005.9 -3.50826 1005.78 -3.50826H992.216L1005.83 -0.480103C1005.95 -0.45377 1006.02 -0.336452 1005.99 -0.218059C1005.97 -0.0996771 1005.85 -0.0250597 1005.73 -0.0514059L990.194 -3.50826H930.712L955.784 2.76563H1005.78C1005.9 2.76563 1006 2.86393 1006 2.98526C1006 3.10647 1005.9 3.20477 1005.78 3.20477H957.539L985.709 10.2543H1005.78C1005.9 10.2543 1006 10.3526 1006 10.4738C1006 10.5952 1005.9 10.6935 1005.78 10.6935H987.465L1005.83 15.2898C1005.95 15.3193 1006.02 15.4386 1005.99 15.5562C1005.96 15.6739 1005.84 15.7454 1005.73 15.716L985.655 10.6935H918.863L946.723 18.6616H1005.78C1005.9 18.6616 1006 18.7599 1006 18.8811C1006 19.0024 1005.9 19.1007 1005.78 19.1007H948.26L979.971 28.17H1005.78C1005.9 28.17 1006 28.2683 1006 28.3896C1006 28.5109 1005.9 28.6092 1005.78 28.6092H981.507L1005.84 35.5682C1005.96 35.6016 1006.03 35.7232 1005.99 35.8398C1005.96 35.9564 1005.84 36.0239 1005.72 35.9906L979.91 28.6092H903.96L935.148 39.0151H1005.78C1005.9 39.0151 1006 39.1134 1006 39.2346C1006 39.3559 1005.9 39.4542 1005.78 39.4542H936.465L972.536 51.4892H1005.78C1005.9 51.4892 1006 51.5875 1006 51.7087C1006 51.83 1005.9 51.9283 1005.78 51.9283H973.853L1005.85 62.6041C1005.96 62.6424 1006.03 62.7667 1005.99 62.8818C1005.95 62.9969 1005.83 63.059 1005.71 63.0207L972.465 51.9283H884.668L919.799 65.9935H1005.78C1005.9 65.9935 1006 66.0918 1006 66.2131C1006 66.3344 1005.9 66.4327 1005.78 66.4327H920.896L962.446 83.067H1005.78C1005.9 83.067 1006 83.1654 1006 83.2866C1006 83.408 1005.9 83.5063 1005.78 83.5063H963.543L1005.86 100.449C1005.97 100.494 1006.03 100.622 1005.98 100.735C1005.94 100.847 1005.81 100.902 1005.7 100.857L962.36 83.5063H858.59L898.474 103.464H1005.78C1005.9 103.464 1006 103.563 1006 103.684C1006 103.805 1005.9 103.903 1005.78 103.903H899.352L948.023 128.259H1005.78C1005.9 128.259 1006 128.356 1006 128.478C1006 128.599 1005.9 128.697 1005.78 128.697H948.901L1005.88 157.209C1005.99 157.263 1006.03 157.394 1005.98 157.503C1005.92 157.612 1005.79 157.656 1005.68 157.601L947.919 128.697H821.381L866.863 159.038H1005.78C1005.9 159.038 1006 159.136 1006 159.258C1006 159.379 1005.9 159.477 1005.78 159.477H867.521L925.674 198.271H1005.78C1005.9 198.271 1006 198.368 1006 198.49C1006 198.611 1005.9 198.709 1005.78 198.709H926.331L1003.2 249.987H1005.78C1005.9 249.987 1006 250.086 1006 250.206C1006 250.328 1005.9 250.427 1005.78 250.427H1003.86L1005.9 251.79C1006 251.858 1006.03 251.994 1005.96 252.094C1005.89 252.196 1005.76 252.223 1005.66 252.156L1003.07 250.427H815.566L886.4 321.286H1005.78C1005.9 321.286 1006 321.385 1006 321.505C1006 321.627 1005.9 321.726 1005.78 321.726H886.839L1005.7 440.624C1005.78 440.711 1005.78 440.85 1005.7 440.935C1005.66 440.97 1005.62 440.991 1005.57 440.997C1005.56 441 1005.55 441 1005.54 441H-127.563C-127.684 441 -127.782 440.902 -127.782 440.781C-127.782 440.71 -127.749 440.646 -127.696 440.606L-9.06136 321.726H-128.777C-128.898 321.726 -128.996 321.627 -128.996 321.505C-128.996 321.385 -128.898 321.286 -128.777 321.286H-8.62305L62.0904 250.427H-125.414L-128.656 252.592C-128.757 252.658 -128.893 252.632 -128.96 252.53C-129.028 252.43 -129.001 252.294 -128.9 252.226L-126.205 250.427H-128.777C-128.898 250.427 -128.996 250.328 -128.996 250.206C-128.996 250.086 -128.898 249.987 -128.777 249.987H-125.548L-48.7691 198.709H-128.777C-128.898 198.709 -128.996 198.611 -128.996 198.49C-128.996 198.368 -128.898 198.271 -128.777 198.271H-48.1115L9.97293 159.477H-128.777C-128.898 159.477 -128.996 159.379 -128.996 159.258C-128.996 159.136 -128.898 159.038 -128.777 159.038H10.6306L56.06 128.697H-70.4775L-128.681 157.848C-128.789 157.901 -128.921 157.858 -128.975 157.749C-129.03 157.641 -128.986 157.508 -128.877 157.454L-71.4584 128.697H-128.777C-128.898 128.697 -128.996 128.599 -128.996 128.478C-128.996 128.356 -128.898 128.259 -128.777 128.259H-70.5814L-21.9527 103.903H-128.777C-128.898 103.903 -128.996 103.805 -128.996 103.684C-128.996 103.563 -128.898 103.464 -128.777 103.464H-21.0759L18.774 83.5063H-85.0072L-128.699 101.01C-128.811 101.055 -128.939 101 -128.984 100.887C-129.029 100.775 -128.975 100.647 -128.862 100.602L-86.1882 83.5063H-128.777C-128.898 83.5063 -128.996 83.408 -128.996 83.2866C-128.996 83.1654 -128.898 83.067 -128.777 83.067H-85.092L-43.5696 66.4327H-128.777C-128.898 66.4327 -128.996 66.3344 -128.996 66.2131C-128.996 66.0918 -128.898 65.9935 -128.777 65.9935H-42.4732L-7.36402 51.9283H-95.1499L-128.707 63.1312C-128.822 63.1697 -128.946 63.1076 -128.985 62.9925C-129.023 62.8775 -128.961 62.7531 -128.846 62.7148L-96.5368 51.9283H-128.777C-128.898 51.9283 -128.996 51.83 -128.996 51.7087C-128.996 51.5875 -128.898 51.4892 -128.777 51.4892H-95.2214L-59.1723 39.4542H-128.777C-128.898 39.4542 -128.996 39.3559 -128.996 39.2346C-128.996 39.1134 -128.898 39.0151 -128.777 39.0151H-57.8566L-26.6872 28.6092H-102.633L-128.717 36.0731C-128.834 36.1064 -128.955 36.0389 -128.989 35.9223C-129.022 35.8057 -128.955 35.6841 -128.838 35.6508L-104.23 28.6092H-128.777C-128.898 28.6092 -128.996 28.5109 -128.996 28.3896C-128.996 28.2683 -128.898 28.17 -128.777 28.17H-102.695L-71.0009 19.1007H-128.777C-128.898 19.1007 -128.996 19.0024 -128.996 18.8811C-128.996 18.7599 -128.898 18.6616 -128.777 18.6616H-69.4661L-41.6202 10.6935H-108.424L-128.725 15.7757C-128.843 15.8051 -128.962 15.7336 -128.992 15.6159C-129.021 15.4983 -128.95 15.379 -128.832 15.3496L-110.232 10.6935H-128.777C-128.898 10.6935 -128.996 10.5952 -128.996 10.4738C-128.996 10.3526 -128.898 10.2543 -128.777 10.2543H-108.478L-80.318 3.20477H-128.777C-128.898 3.20477 -128.996 3.10647 -128.996 2.98526C-128.996 2.86393 -128.898 2.76563 -128.777 2.76563H-78.5637L-53.5019 -3.50826H-112.979L-128.728 -0.00397301C-128.846 0.0223732 -128.963 -0.0522451 -128.99 -0.170627C-129.016 -0.289008 -128.941 -0.406324 -128.823 -0.432671L-115.001 -3.50826H-128.777C-128.898 -3.50826 -128.996 -3.60657 -128.996 -3.72785C-128.996 -3.84913 -128.898 -3.94745 -128.777 -3.94745H-113.027L-87.8015 -9.56067H-128.777C-128.898 -9.56067 -128.996 -9.65899 -128.996 -9.78027C-128.996 -9.90155 -128.898 -9.99986 -128.777 -9.99986H-85.8104C-85.8055 -10 -85.8006 -10 -85.7958 -9.99986H-27.5503C-27.5453 -10 -27.5403 -10 -27.5353 -9.99986H30.7197C30.7249 -10 30.73 -10 30.735 -9.99986H88.9895ZM-47.3206 198.271L10.7639 159.477H152.851L114.139 198.271H-47.3206ZM114.759 198.271L153.472 159.477H295.709L276.368 198.271H114.759ZM276.149 198.709H114.321L63.1491 249.987H250.586L276.149 198.709ZM276.859 198.271L296.199 159.477H438.529L438.563 198.271H276.859ZM438.563 198.709H276.64L251.077 249.987H438.608L438.563 198.709ZM439.002 198.271L438.968 159.477H581.296L600.703 198.271H439.002ZM600.922 198.709H439.002L439.046 249.987H626.575L600.922 198.709ZM601.194 198.271L581.787 159.477H724.028L762.807 198.271H601.194ZM763.245 198.709H601.413L627.066 249.987H814.505L763.245 198.709ZM763.427 198.271L724.649 159.477H866.73L924.882 198.271H763.427ZM925.54 198.709H763.866L815.126 249.987H1002.41L925.54 198.709ZM113.701 198.709H-47.9783L-124.757 249.987H62.5285L113.701 198.709ZM866.071 159.038H724.209L693.88 128.697H820.59L866.071 159.038ZM723.588 159.038H581.568L566.389 128.697H693.259L723.588 159.038ZM581.077 159.038H438.968L438.942 128.697H565.898L581.077 159.038ZM438.529 159.038H296.417L311.544 128.697H438.502L438.529 159.038ZM295.926 159.038H153.91L184.188 128.697H311.053L295.926 159.038ZM153.289 159.038H11.4214L56.8508 128.697H183.567L153.289 159.038ZM-69.6006 128.259L-20.9719 103.903H93.1834L56.7176 128.259H-69.6006ZM57.5084 128.259L93.9748 103.903H208.309L184.005 128.259H57.5084ZM184.626 128.259L208.931 103.903H323.414L311.272 128.259H184.626ZM311.763 128.259L323.904 103.903H438.481L438.502 128.259H311.763ZM438.941 128.259L438.919 103.903H553.496L565.679 128.259H438.941ZM566.17 128.259L553.987 103.903H668.474L692.819 128.259H566.17ZM693.441 128.259L669.095 103.903H783.422L819.931 128.259H693.441ZM820.722 128.259L784.213 103.903H898.37L947.041 128.259H820.722ZM885.779 321.286L814.945 250.427H627.285L662.733 321.286H885.779ZM662.243 321.286L626.794 250.427H439.047L439.109 321.286H662.243ZM438.669 321.286L438.608 250.427H250.858L215.531 321.286H438.669ZM215.042 321.286L250.367 250.427H62.7108L-8.00255 321.286H215.042ZM-20.0951 103.464L19.7548 83.5063H123.725L93.8421 103.464H-20.0951ZM94.6323 103.464L124.515 83.5063H228.665L208.748 103.464H94.6323ZM209.369 103.464L229.285 83.5063H333.583L323.632 103.464H209.369ZM324.123 103.464L334.073 83.5063H438.464L438.48 103.464H324.123ZM438.919 103.464L438.902 83.5063H543.292L553.275 103.464H438.919ZM553.766 103.464L543.783 83.5063H648.084L668.034 103.464H553.766ZM668.656 103.464L648.705 83.5063H752.846L782.765 103.464H668.656ZM783.556 103.464L753.638 83.5063H857.608L897.494 103.464H783.556ZM857.712 83.067H961.264L919.715 66.4327H824.469L857.712 83.067ZM752.979 83.067H856.731L823.489 66.4327H728.044L752.979 83.067ZM648.266 83.067H752.188L727.252 66.4327H631.638L648.266 83.067ZM647.645 83.067H543.563L535.241 66.4327H631.017L647.645 83.067ZM543.072 83.067H438.902L438.888 66.4327H534.75L543.072 83.067ZM438.462 83.067H334.291L342.584 66.4327H438.449L438.462 83.067ZM333.8 83.067H229.723L246.324 66.4327H342.094L333.8 83.067ZM125.173 83.067H229.104L245.702 66.4327H150.08L125.173 83.067ZM20.6317 83.067H124.383L149.289 66.4327H53.8452L20.6317 83.067ZM-83.911 83.067H19.6509L52.8644 66.4327H-42.3886L-83.911 83.067ZM30.7578 -9.56067H87.6458L70.8323 -3.94745H11.1414L30.7578 -9.56067ZM29.1613 -9.56067L9.54491 -3.94745H-49.9389L-27.5162 -9.56067H29.1613ZM-29.3248 -9.56067L-51.7475 -3.94745H-111.006L-85.7796 -9.56067H-29.3248ZM962.988 -9.56067L988.22 -3.94745H928.957L906.525 -9.56067H962.988ZM904.715 -9.56067L927.148 -3.94745H867.668L848.041 -9.56067H904.715ZM846.443 -9.56067L866.071 -3.94745H806.381L789.557 -9.56067H846.443ZM788.169 -9.56067L804.994 -3.94745H745.102L731.082 -9.56067H788.169ZM729.9 -9.56067L743.921 -3.94745H683.821L672.603 -9.56067H729.9ZM671.621 -9.56067L682.839 -3.94745H622.541L614.127 -9.56067H671.621ZM613.336 -9.56067L621.75 -3.94745H561.282L555.671 -9.56067H613.336ZM555.05 -9.56067L560.661 -3.94745H500.033L497.226 -9.56067H555.05ZM496.735 -9.56067L499.542 -3.94745H438.827L438.822 -9.56067H496.735ZM438.382 -9.56067L438.387 -3.94745H377.672L380.469 -9.56067H438.382ZM379.98 -9.56067L377.181 -3.94745H316.558L322.159 -9.56067H379.98ZM321.539 -9.56067L315.938 -3.94745H255.46L263.866 -9.56067H321.539ZM263.074 -9.56067L254.67 -3.94745H194.371L205.579 -9.56067H263.074ZM204.599 -9.56067L193.391 -3.94745H133.294L147.304 -9.56067H204.599ZM146.124 -9.56067L132.112 -3.94745H72.2192L89.0333 -9.56067H146.124ZM-25.3003 28.6092L-56.4697 39.0151H24.8699L50.8449 28.6092H-25.3003ZM52.0259 28.6092L26.051 39.0151H107.608L128.386 28.6092H52.0259ZM24.9547 39.4542H106.732L82.7018 51.4892H-5.08673L24.9547 39.4542ZM129.367 28.6092L108.59 39.0151H190.342L205.923 28.6092H129.367ZM107.712 39.4542H189.684L171.664 51.4892H83.6823L107.712 39.4542ZM206.713 28.6092L191.133 39.0151H273.064L283.449 28.6092H206.713ZM190.474 39.4542H272.625L260.616 51.4892H172.455L190.474 39.4542ZM284.069 28.6092L273.685 39.0151H355.763L360.95 28.6092H284.069ZM273.246 39.4542H355.544L349.544 51.4892H261.236L273.246 39.4542ZM361.441 28.6092L356.253 39.0151H438.425L438.416 28.6092H361.441ZM356.035 39.4542H438.425L438.435 51.4892H350.035L356.035 39.4542ZM438.854 28.6092L438.864 39.0151H521.034L515.83 28.6092H438.854ZM438.864 39.4542H521.254L527.275 51.4892H438.874L438.864 39.4542ZM516.32 28.6092L521.526 39.0151H603.608L593.207 28.6092H516.32ZM521.745 39.4542H604.048L616.078 51.4892H527.766L521.745 39.4542ZM593.828 28.6092L604.229 39.0151H686.152L670.554 28.6092H593.828ZM604.669 39.4542H686.811L704.851 51.4892H616.7L604.669 39.4542ZM671.345 28.6092L686.944 39.0151H768.696L747.901 28.6092H671.345ZM687.602 39.4542H769.574L793.624 51.4892H705.643L687.602 39.4542ZM748.883 28.6092L769.678 39.0151H851.232L825.24 28.6092H748.883ZM770.555 39.4542H852.329L882.389 51.4892H794.606L770.555 39.4542ZM826.422 28.6092L852.413 39.0151H933.761L902.573 28.6092H826.422ZM853.51 39.4542H935.077L971.149 51.4892H883.571L853.51 39.4542ZM-57.7852 39.4542H23.7737L-6.26777 51.4892H-93.8344L-57.7852 39.4542ZM918.618 65.9935H823.591L795.484 51.9283H883.486L918.618 65.9935ZM822.611 65.9935H727.386L706.302 51.9283H794.502L822.611 65.9935ZM726.595 65.9935H631.199L617.138 51.9283H705.51L726.595 65.9935ZM535.022 65.9935H630.577L616.517 51.9283H527.985L535.022 65.9935ZM438.887 65.9935H534.531L527.495 51.9283H438.874L438.887 65.9935ZM342.803 65.9935H438.447L438.436 51.9283H349.816L342.803 65.9935ZM246.762 65.9935H342.312L349.325 51.9283H260.797L246.762 65.9935ZM246.141 65.9935H150.737L171.798 51.9283H260.178L246.141 65.9935ZM149.947 65.9935H54.7221L82.8057 51.9283H171.006L149.947 65.9935ZM53.7413 65.9935H-41.2923L-6.18299 51.9283H81.8252L53.7413 65.9935ZM215.313 321.726H438.669L438.772 440.562H156.069L215.313 321.726ZM439.109 321.726H662.462L721.91 440.562H439.211L439.109 321.726ZM662.953 321.726H886.218L1005.01 440.562H722.401L662.953 321.726ZM-8.44084 321.726H214.822L155.578 440.562H-127.031L-8.44084 321.726ZM955.73 3.20477L983.901 10.2543H917.326L892.677 3.20477H955.73ZM891.141 2.76563H953.974L928.903 -3.50826H869.203L891.141 2.76563ZM891.079 3.20477L915.729 10.2543H848.946L827.818 3.20477H891.079ZM826.502 2.76563H889.544L867.607 -3.50826H807.698L826.502 2.76563ZM826.43 3.20477L847.559 10.2543H780.576L762.967 3.20477H826.43ZM761.87 2.76563H825.114L806.31 -3.50826H746.199L761.87 2.76563ZM761.785 3.20477L779.393 10.2543H712.201L698.114 3.20477H761.785ZM697.236 2.76563H760.688L745.018 -3.50826H684.698L697.236 2.76563ZM697.132 3.20477L711.221 10.2543H643.83L633.264 3.20477H697.132ZM632.605 2.76563H696.255L683.717 -3.50826H623.2L632.605 2.76563ZM632.472 3.20477L643.039 10.2543H575.479L568.432 3.20477H632.472ZM567.993 2.76563H631.813L622.409 -3.50826H561.722L567.993 2.76563ZM567.81 3.20477L574.858 10.2543H507.137L503.611 3.20477H567.81ZM503.392 2.76563H567.372L561.101 -3.50826H500.254L503.392 2.76563ZM503.12 3.20477L506.647 10.2543H438.839L438.833 3.20477H503.12ZM438.832 2.76563H502.901L499.762 -3.50826H438.827L438.832 2.76563ZM438.393 3.20477L438.4 10.2543H370.591L374.106 3.20477H438.393ZM374.324 2.76563H438.393L438.387 -3.50826H377.452L374.324 2.76563ZM373.616 3.20477L370.1 10.2543H302.386L309.421 3.20477H373.616ZM309.859 2.76563H373.833L376.962 -3.50826H316.12L309.859 2.76563ZM308.8 3.20477L301.765 10.2543H234.197L244.751 3.20477H308.8ZM245.408 2.76563H309.238L315.5 -3.50826H254.803L245.408 2.76563ZM243.961 3.20477L233.405 10.2543H166.016L180.092 3.20477H243.961ZM180.968 2.76563H244.618L254.011 -3.50826H193.495L180.968 2.76563ZM179.11 3.20477L165.036 10.2543H97.8431L115.44 3.20477H179.11ZM116.536 2.76563H179.988L192.514 -3.50826H132.197L116.536 2.76563ZM114.259 3.20477L96.6622 10.2543H29.6797L50.7955 3.20477H114.259ZM52.1111 2.76563H115.355L131.016 -3.50826H70.9037L52.1111 2.76563ZM49.4086 3.20477L28.2928 10.2543H-38.4889L-13.8533 3.20477H49.4086ZM-12.3185 2.76563H50.724L69.5168 -3.50826H9.60652L-12.3185 2.76563ZM-15.4499 3.20477L-40.0854 10.2543H-106.669L-78.5095 3.20477H-15.4499ZM-76.7552 2.76563H-13.9151L8.01012 -3.50826H-51.6934L-76.7552 2.76563ZM978.375 28.17H902.644L875.461 19.1007H946.662L978.375 28.17ZM825.325 28.17H901.255L874.073 19.1007H802.672L825.325 28.17ZM748.005 28.17H824.142L801.49 19.1007H729.881L748.005 28.17ZM670.687 28.17H747.023L728.899 19.1007H657.092L670.687 28.17ZM593.388 28.17H669.895L656.3 19.1007H584.322L593.388 28.17ZM516.1 28.17H592.767L583.702 19.1007H511.563L516.1 28.17ZM438.854 28.17H515.609L511.072 19.1007H438.847L438.854 28.17ZM361.66 28.17H438.415L438.407 19.1007H366.181L361.66 28.17ZM284.507 28.17H361.169L365.69 19.1007H293.557L284.507 28.17ZM207.37 28.17H283.887L292.937 19.1007H220.95L207.37 28.17ZM130.243 28.17H206.58L220.16 19.1007H148.353L130.243 28.17ZM53.1222 28.17H129.263L147.371 19.1007H75.7608L53.1222 28.17ZM-23.9848 28.17H51.9411L74.5798 19.1007H3.18118L-23.9848 28.17ZM-25.3717 28.17H-101.099L-69.4045 19.1007H1.79417L-25.3717 28.17ZM-40.0237 10.6935L-67.8697 18.6616H3.1098L26.9773 10.6935H-40.0237ZM28.3642 10.6935L4.49672 18.6616H75.676L95.5665 10.6935H28.3642ZM96.7474 10.6935L76.857 18.6616H148.249L164.158 10.6935H96.7474ZM165.138 10.6935L149.229 18.6616H220.817L232.748 10.6935H165.138ZM233.538 10.6935L221.607 18.6616H293.376L301.326 10.6935H233.538ZM301.947 10.6935L293.995 18.6616H365.909L369.881 10.6935H301.947ZM370.372 10.6935L366.4 18.6616H438.407L438.4 10.6935H370.372ZM438.839 10.6935L438.846 18.6616H510.853L506.867 10.6935H438.839ZM507.358 10.6935L511.344 18.6616H583.262L575.297 10.6935H507.358ZM575.918 10.6935L583.884 18.6616H655.642L643.698 10.6935H575.918ZM644.489 10.6935L656.433 18.6616H728.021L712.097 10.6935H644.489ZM713.079 10.6935L729.003 18.6616H800.393L780.49 10.6935H713.079ZM781.673 10.6935L801.575 18.6616H872.757L848.875 10.6935H781.673ZM850.263 10.6935L874.145 18.6616H945.127L917.265 10.6935H850.263Z" fill="url(#paint0_linear_47_208)" fill-opacity="0.22"/>
</g>
</g>
<defs>
<linearGradient id="paint0_linear_47_208" x1="631.235" y1="-9.99996" x2="71.7614" y2="247.199" gradientUnits="userSpaceOnUse">
<stop stop-color="white"/>
<stop offset="0.415" stop-color="white"/>
<stop offset="1" stop-color="white" stop-opacity="0"/>
</linearGradient>
<clipPath id="clip0_47_208">
<rect width="961" height="450" rx="31" fill="white"/>
</clipPath>
</defs>
</svg>
