<svg width="600" height="308" viewBox="0 0 600 308" fill="none" xmlns="http://www.w3.org/2000/svg">
<g clip-path="url(#clip0_168_21)">
<mask id="mask0_168_21" style="mask-type:luminance" maskUnits="userSpaceOnUse" x="0" y="0" width="600" height="308">
<path d="M0 0H600V308H0V0Z" fill="white"/>
</mask>
<g mask="url(#mask0_168_21)">
<path fill-rule="evenodd" clip-rule="evenodd" d="M492.85 0.000108957C492.846 -3.68851e-05 492.842 -3.57519e-05 492.837 0.000108957H446.323C446.318 -3.55153e-05 446.314 -3.45119e-05 446.31 0.000108957H399.795C399.791 -2.43222e-05 399.787 -2.35909e-05 399.783 0.000108957H353.263C353.259 6.77697e-06 353.256 7.08986e-06 353.253 0.000108957H306.731H306.722H260.205C260.201 -2.39357e-05 260.197 -2.46738e-05 260.193 0.000108957H213.674L213.67 4.76539e-05L213.665 0.000108957H167.146C167.142 -1.99418e-05 167.138 -1.92452e-05 167.134 0.000108957H120.613H120.603H74.0889C74.0859 6.97078e-06 74.0819 6.65653e-06 74.0789 0.000108957H27.5579C27.5539 -2.36519e-05 27.5499 -2.43845e-05 27.5459 0.000108957H-18.9721C-18.9761 -3.45317e-05 -18.9801 -3.55357e-05 -18.9841 0.000108957H-65.4971C-65.5011 -3.13188e-05 -65.5051 -3.24005e-05 -65.5091 0.000108957H-112.027C-112.031 -2.80881e-05 -112.035 -2.92063e-05 -112.039 0.000108957H-158.558C-158.562 -2.76397e-05 -158.566 -2.88051e-05 -158.57 0.000108957H-205.088C-205.092 -2.24319e-05 -205.096 -2.35685e-05 -205.1 0.000108957H-239.246C-239.343 0.000108957 -239.422 0.0786245 -239.422 0.175478C-239.422 0.272332 -239.343 0.350848 -239.246 0.350848H-206.69L-226.839 4.8336H-239.246C-239.343 4.8336 -239.422 4.91212 -239.422 5.00897C-239.422 5.10583 -239.343 5.18434 -239.246 5.18434H-228.415L-239.284 7.60264C-239.379 7.62367 -239.438 7.71736 -239.417 7.81191C-239.396 7.90645 -239.303 7.96604 -239.208 7.945L-226.8 5.18434H-179.301L-199.322 10.1947H-239.246C-239.343 10.1947 -239.422 10.2732 -239.422 10.3701C-239.422 10.4669 -239.343 10.5454 -239.246 10.5454H-200.724L-223.219 16.1752H-239.246C-239.343 16.1752 -239.422 16.2537 -239.422 16.3505C-239.422 16.4474 -239.343 16.5259 -239.246 16.5259H-224.621L-239.289 20.1966C-239.383 20.2201 -239.44 20.3154 -239.416 20.4093C-239.393 20.5033 -239.298 20.5604 -239.204 20.5369L-223.176 16.5259H-169.839L-192.087 22.8893H-239.246C-239.343 22.8893 -239.422 22.9678 -239.422 23.0646C-239.422 23.1615 -239.343 23.24 -239.246 23.24H-193.314L-218.637 30.4828H-239.246C-239.343 30.4828 -239.422 30.5613 -239.422 30.6581C-239.422 30.755 -239.343 30.8335 -239.246 30.8335H-219.863L-239.295 36.391C-239.388 36.4177 -239.442 36.5148 -239.415 36.6079C-239.388 36.701 -239.291 36.7549 -239.198 36.7283L-218.588 30.8335H-157.939L-182.844 39.1437H-239.246C-239.343 39.1437 -239.422 39.2222 -239.422 39.319C-239.422 39.4159 -239.343 39.4944 -239.246 39.4944H-183.895L-212.7 49.1056H-239.246C-239.343 49.1056 -239.422 49.1841 -239.422 49.2809C-239.422 49.3778 -239.343 49.4563 -239.246 49.4563H-213.751L-239.302 57.982C-239.394 58.0126 -239.443 58.1119 -239.413 58.2038C-239.382 58.2957 -239.283 58.3453 -239.191 58.3147L-212.643 49.4563H-142.533L-170.587 60.6888H-239.246C-239.343 60.6888 -239.422 60.7673 -239.422 60.8642C-239.422 60.9611 -239.343 61.0396 -239.246 61.0396H-171.463L-204.642 74.3238H-239.246C-239.343 74.3238 -239.422 74.4024 -239.422 74.4992C-239.422 74.5961 -239.343 74.6746 -239.246 74.6746H-205.518L-239.311 88.2052C-239.401 88.2412 -239.445 88.3432 -239.409 88.4332C-239.373 88.5231 -239.271 88.5668 -239.181 88.5308L-204.574 74.6746H-121.709L-153.558 90.6131H-239.246C-239.343 90.6131 -239.422 90.6917 -239.422 90.7885C-239.422 90.8854 -239.343 90.9639 -239.246 90.9639H-154.259L-193.125 110.414H-239.246C-239.343 110.414 -239.422 110.492 -239.422 110.589C-239.422 110.686 -239.343 110.764 -239.246 110.764H-193.826L-239.325 133.534C-239.411 133.577 -239.446 133.682 -239.403 133.769C-239.36 133.856 -239.254 133.891 -239.168 133.847L-193.042 110.764H-91.9961L-128.315 134.995H-239.246C-239.343 134.995 -239.422 135.073 -239.422 135.17C-239.422 135.267 -239.343 135.345 -239.246 135.345H-128.841L-175.278 166.326H-239.246C-239.343 166.326 -239.422 166.404 -239.422 166.501C-239.422 166.598 -239.343 166.676 -239.246 166.676H-175.803L-237.185 207.627H-239.246C-239.343 207.627 -239.422 207.706 -239.422 207.802C-239.422 207.899 -239.343 207.978 -239.246 207.978H-237.711L-239.344 209.067C-239.424 209.121 -239.446 209.23 -239.392 209.31C-239.338 209.391 -239.229 209.413 -239.149 209.359L-237.079 207.978H-87.3521L-143.916 264.567H-239.246C-239.343 264.567 -239.422 264.646 -239.422 264.742C-239.422 264.839 -239.343 264.918 -239.246 264.918H-144.267L-239.179 359.871C-239.247 359.94 -239.247 360.051 -239.179 360.119C-239.151 360.147 -239.117 360.164 -239.081 360.169C-239.071 360.171 -239.061 360.171 -239.051 360.171H665.776C665.873 360.171 665.952 360.093 665.952 359.996C665.952 359.939 665.925 359.888 665.882 359.856L571.148 264.918H666.745C666.842 264.918 666.921 264.839 666.921 264.742C666.921 264.646 666.842 264.567 666.745 264.567H570.798L514.33 207.978H664.061L666.649 209.707C666.73 209.76 666.838 209.739 666.892 209.658C666.946 209.578 666.924 209.469 666.844 209.415L664.692 207.978H666.745C666.842 207.978 666.921 207.899 666.921 207.802C666.921 207.706 666.842 207.627 666.745 207.627H664.167L602.856 166.676H666.745C666.842 166.676 666.921 166.598 666.921 166.501C666.921 166.404 666.842 166.326 666.745 166.326H602.331L555.948 135.345H666.745C666.842 135.345 666.921 135.267 666.921 135.17C666.921 135.073 666.842 134.995 666.745 134.995H555.423L519.146 110.764H620.191L666.669 134.044C666.755 134.087 666.861 134.052 666.904 133.965C666.947 133.879 666.912 133.773 666.826 133.73L620.974 110.764H666.745C666.842 110.764 666.921 110.686 666.921 110.589C666.921 110.492 666.842 110.414 666.745 110.414H620.274L581.442 90.9639H666.745C666.842 90.9639 666.921 90.8854 666.921 90.7885C666.921 90.6917 666.842 90.6131 666.745 90.6131H580.742L548.92 74.6746H631.794L666.683 88.6528C666.773 88.6888 666.875 88.6451 666.911 88.5552C666.947 88.4653 666.904 88.3633 666.814 88.3272L632.737 74.6746H666.745C666.842 74.6746 666.921 74.5961 666.921 74.4992C666.921 74.4024 666.842 74.3238 666.745 74.3238H631.861L598.704 61.0396H666.745C666.842 61.0396 666.921 60.9611 666.921 60.8642C666.921 60.7673 666.842 60.6888 666.745 60.6888H597.829L569.792 49.4563H639.893L666.69 58.403C666.782 58.4337 666.881 58.3841 666.912 58.2922C666.942 58.2004 666.893 58.101 666.801 58.0704L641.001 49.4563H666.745C666.842 49.4563 666.921 49.3778 666.921 49.2809C666.921 49.1841 666.842 49.1056 666.745 49.1056H639.95L611.163 39.4944H666.745C666.842 39.4944 666.921 39.4159 666.921 39.319C666.921 39.2222 666.842 39.1437 666.745 39.1437H610.113L585.223 30.8335H645.869L666.698 36.7942C666.791 36.8208 666.888 36.7669 666.915 36.6738C666.942 36.5807 666.888 36.4836 666.795 36.457L647.144 30.8335H666.745C666.842 30.8335 666.921 30.755 666.921 30.6581C666.921 30.5613 666.842 30.4828 666.745 30.4828H645.918L620.609 23.24H666.745C666.842 23.24 666.921 23.1615 666.921 23.0646C666.921 22.9678 666.842 22.8893 666.745 22.8893H619.384L597.147 16.5259H650.493L666.704 20.5846C666.798 20.6081 666.894 20.551 666.917 20.457C666.941 20.3631 666.884 20.2678 666.79 20.2443L651.937 16.5259H666.745C666.842 16.5259 666.921 16.4474 666.921 16.3505C666.921 16.2537 666.842 16.1752 666.745 16.1752H650.536L628.049 10.5454H666.745C666.842 10.5454 666.921 10.4669 666.921 10.3701C666.921 10.2732 666.842 10.1947 666.745 10.1947H626.648L606.635 5.18434H654.131L666.706 7.98288C666.801 8.00392 666.895 7.94433 666.916 7.84979C666.937 7.75525 666.877 7.66156 666.782 7.64052L655.745 5.18434H666.745C666.842 5.18434 666.921 5.10583 666.921 5.00897C666.921 4.91212 666.842 4.8336 666.745 4.8336H654.169L634.025 0.350848H666.745C666.842 0.350848 666.921 0.272332 666.921 0.175478C666.921 0.0786245 666.842 0.000108957 666.745 0.000108957H632.435C632.431 -2.35753e-05 632.427 -2.24388e-05 632.423 0.000108957H585.912C585.908 -2.88206e-05 585.904 -2.76551e-05 585.9 0.000108957H539.381C539.377 -3.36981e-05 539.373 -3.25253e-05 539.369 0.000108957H492.85ZM601.699 166.326L555.316 135.345H441.854L472.767 166.326H601.699ZM472.272 166.326L441.358 135.345H327.776L343.22 166.326H472.272ZM343.395 166.676H472.622L513.485 207.627H363.808L343.395 166.676ZM342.828 166.326L327.384 135.345H213.728L213.701 166.326H342.828ZM213.701 166.676H343.003L363.416 207.627H213.665L213.701 166.676ZM213.35 166.326L213.377 135.345H99.7219L84.2249 166.326H213.35ZM84.0499 166.676H213.35L213.315 207.627H63.5649L84.0499 166.676ZM83.8329 166.326L99.3299 135.345H-14.2551L-45.2221 166.326H83.8329ZM-45.5721 166.676H83.6579L63.1729 207.627H-86.5051L-45.5721 166.676ZM-45.7171 166.326L-14.7511 135.345H-128.209L-174.646 166.326H-45.7171ZM-175.171 166.676H-46.0681L-87.0011 207.627H-236.553L-175.171 166.676ZM473.117 166.676H602.225L663.535 207.627H513.98L473.117 166.676ZM-127.683 134.995H-14.4001L9.81885 110.764H-91.3641L-127.683 134.995ZM-13.9041 134.995H99.5049L111.626 110.764H10.3149L-13.9041 134.995ZM99.8969 134.995H213.377L213.398 110.764H112.018L99.8969 134.995ZM213.728 134.995H327.21L315.131 110.764H213.749L213.728 134.995ZM327.602 134.995H441.008L416.83 110.764H315.523L327.602 134.995ZM441.504 134.995H554.791L518.514 110.764H417.326L441.504 134.995ZM619.491 110.414L580.659 90.9639H489.501L518.62 110.414H619.491ZM517.989 110.414L488.869 90.9639H397.568L416.976 110.414H517.989ZM416.48 110.414L397.072 90.9639H305.652L315.348 110.414H416.48ZM314.956 110.414L305.261 90.9639H213.766L213.749 110.414H314.956ZM213.399 110.414L213.416 90.9639H121.922L112.193 110.414H213.399ZM111.801 110.414L121.53 90.9639H30.1069L10.6659 110.414H111.801ZM10.1699 110.414L29.6109 90.9639H-61.6841L-90.8381 110.414H10.1699ZM-91.4701 110.414L-62.3161 90.9639H-153.475L-192.341 110.414H-91.4701ZM-143.42 264.567L-86.8561 207.978H62.9979L34.6909 264.567H-143.42ZM35.0829 264.567L63.3899 207.978H213.314L213.265 264.567H35.0829ZM213.616 264.567L213.665 207.978H363.591L391.801 264.567H213.616ZM392.192 264.567L363.983 207.978H513.835L570.302 264.567H392.192ZM579.959 90.6131L548.137 74.6746H465.112L488.975 90.6131H579.959ZM488.344 90.6131L464.481 74.6746H381.313L397.218 90.6131H488.344ZM396.722 90.6131L380.818 74.6746H297.532L305.478 90.6131H396.722ZM305.086 90.6131L297.14 74.6746H213.78L213.767 90.6131H305.086ZM213.416 90.6131L213.43 74.6746H130.07L122.098 90.6131H213.416ZM121.706 90.6131L129.678 74.6746H46.3889L30.4579 90.6131H121.706ZM29.9619 90.6131L45.8929 74.6746H-37.2681L-61.1591 90.6131H29.9619ZM-61.7911 90.6131L-37.9001 74.6746H-120.925L-152.775 90.6131H-61.7911ZM-121.008 74.3238H-203.698L-170.52 61.0396H-94.4621L-121.008 74.3238ZM-37.3741 74.3238H-120.224L-93.6791 61.0396H-17.4621L-37.3741 74.3238ZM46.2439 74.3238H-36.7421L-16.8301 61.0396H59.5219L46.2439 74.3238ZM46.7399 74.3238H129.854L136.499 61.0396H60.0179L46.7399 74.3238ZM130.246 74.3238H213.43L213.441 61.0396H136.891L130.246 74.3238ZM213.781 74.3238H296.966L290.344 61.0396H213.792L213.781 74.3238ZM297.358 74.3238H380.468L367.212 61.0396H290.735L297.358 74.3238ZM463.956 74.3238H380.963L367.708 61.0396H444.067L463.956 74.3238ZM547.437 74.3238H464.587L444.698 61.0396H520.914L547.437 74.3238ZM630.918 74.3238H548.22L521.697 61.0396H597.761L630.918 74.3238ZM539.35 0.350848H493.923L507.349 4.8336H555.015L539.35 0.350848ZM540.625 0.350848L556.29 4.8336H603.79L585.885 0.350848H540.625ZM587.329 0.350848L605.234 4.8336H652.555L632.41 0.350848H587.329ZM-205.075 0.350848L-225.224 4.8336H-177.9L-159.987 0.350848H-205.075ZM-158.542 0.350848L-176.455 4.8336H-128.958L-113.285 0.350848H-158.542ZM-112.009 0.350848L-127.683 4.8336H-80.0181L-66.5831 0.350848H-112.009ZM-65.4751 0.350848L-78.9101 4.8336H-31.0841L-19.8881 0.350848H-65.4751ZM-18.9441 0.350848L-30.1411 4.8336H17.8519L26.8099 0.350848H-18.9441ZM27.5939 0.350848L18.6359 4.8336H66.7859L73.5049 0.350848H27.5939ZM74.1369 0.350848L67.4179 4.8336H115.704L120.185 0.350848H74.1369ZM120.681 0.350848L116.2 4.8336H164.614L166.856 0.350848H120.681ZM167.248 0.350848L165.006 4.8336H213.49L213.494 0.350848H167.248ZM213.845 0.350848L213.841 4.8336H262.325L260.091 0.350848H213.845ZM260.482 0.350848L262.717 4.8336H311.127L306.654 0.350848H260.482ZM307.149 0.350848L311.622 4.8336H359.916L353.204 0.350848H307.149ZM353.836 0.350848L360.547 4.8336H408.698L399.748 0.350848H353.836ZM400.531 0.350848L409.481 4.8336H457.471L446.283 0.350848H400.531ZM447.226 0.350848L458.415 4.8336H506.242L492.815 0.350848H447.226ZM584.115 30.8335L609.005 39.1437H544.052L523.31 30.8335H584.115ZM522.367 30.8335L543.109 39.1437H477.982L461.39 30.8335H522.367ZM543.984 39.4944H478.682L497.871 49.1056H567.974L543.984 39.4944ZM460.607 30.8335L477.198 39.1437H411.916L399.474 30.8335H460.607ZM477.899 39.4944H412.441L426.831 49.1056H497.088L477.899 39.4944ZM398.843 30.8335L411.284 39.1437H345.859L337.566 30.8335H398.843ZM411.81 39.4944H346.209L355.799 49.1056H426.199L411.81 39.4944ZM337.071 30.8335L345.363 39.1437H279.82L275.678 30.8335H337.071ZM345.713 39.4944H279.995L284.786 49.1056H355.304L345.713 39.4944ZM275.286 30.8335L279.429 39.1437H213.811L213.818 30.8335H275.286ZM279.603 39.4944H213.811L213.803 49.1056H284.394L279.603 39.4944ZM213.468 30.8335L213.46 39.1437H147.844L152 30.8335H213.468ZM213.46 39.4944H147.668L142.86 49.1056H213.452L213.46 39.4944ZM151.608 30.8335L147.451 39.1437H81.9049L90.2109 30.8335H151.608ZM147.276 39.4944H81.5539L71.9469 49.1056H142.468L147.276 39.4944ZM89.7149 30.8335L81.4089 39.1437H15.9899L28.4459 30.8335H89.7149ZM81.0579 39.4944H15.4639L1.05786 49.1056H71.4509L81.0579 39.4944ZM27.8139 30.8335L15.3578 39.1437H-49.9251L-33.3191 30.8335H27.8139ZM14.8318 39.4944H-50.6261L-69.8311 49.1056H0.425903L14.8318 39.4944ZM-34.1031 30.8335L-50.7091 39.1437H-115.833L-95.0771 30.8335H-34.1031ZM-51.4091 39.4944H-116.709L-140.713 49.1056H-70.6151L-51.4091 39.4944ZM-96.0211 30.8335L-116.776 39.1437H-181.736L-156.831 30.8335H-96.0211ZM-117.652 39.4944H-182.787L-211.592 49.1056H-141.657L-117.652 39.4944ZM610.056 39.4944H544.928L568.917 49.1056H638.843L610.056 39.4944ZM-169.644 60.6888H-93.7611L-71.3161 49.4563H-141.589L-169.644 60.6888ZM-92.9781 60.6888H-16.9371L-0.100098 49.4563H-70.5321L-92.9781 60.6888ZM-16.3051 60.6888H59.8729L71.1009 49.4563H0.53186L-16.3051 60.6888ZM136.674 60.6888H60.3689L71.5969 49.4563H142.293L136.674 60.6888ZM213.442 60.6888H137.066L142.685 49.4563H213.452L213.442 60.6888ZM290.169 60.6888H213.793L213.802 49.4563H284.569L290.169 60.6888ZM366.862 60.6888H290.561L284.961 49.4563H355.654L366.862 60.6888ZM367.358 60.6888H443.542L426.724 49.4563H356.149L367.358 60.6888ZM444.173 60.6888H520.214L497.788 49.4563H427.356L444.173 60.6888ZM520.997 60.6888H596.885L568.849 49.4563H498.571L520.997 60.6888ZM391.975 264.918H213.616L213.534 359.821H439.284L391.975 264.918ZM213.265 264.918H34.9079L-12.5641 359.821H213.183L213.265 264.918ZM34.5159 264.918H-143.771L-238.632 359.821H-12.9561L34.5159 264.918ZM570.652 264.918H392.367L439.676 359.821H665.351L570.652 264.918ZM-199.279 10.5454L-221.775 16.1752H-168.612L-148.929 10.5454H-199.279ZM-147.702 10.1947H-197.877L-177.857 5.18434H-130.184L-147.702 10.1947ZM-147.653 10.5454L-167.337 16.1752H-114.008L-97.1361 10.5454H-147.653ZM-96.0851 10.1947H-146.427L-128.909 5.18434H-81.0691L-96.0851 10.1947ZM-96.0281 10.5454L-112.9 16.1752H-59.4111L-45.3501 10.5454H-96.0281ZM-44.4741 10.1947H-94.9771L-79.9611 5.18434H-31.9601L-44.4741 10.1947ZM-44.4061 10.5454L-58.4671 16.1752H-4.8111L6.43787 10.5454H-44.4061ZM7.13885 10.1947H-43.5302L-31.0172 5.18434H17.1509L7.13885 10.1947ZM7.22186 10.5454L-4.02814 16.1752H49.7859L58.2239 10.5454H7.22186ZM58.7499 10.1947H7.92285L17.9349 5.18434H66.2599L58.7499 10.1947ZM58.8559 10.5454L50.4179 16.1752H104.367L109.995 10.5454H58.8559ZM110.345 10.1947H59.3819L66.8919 5.18434H115.353L110.345 10.1947ZM110.491 10.5454L104.863 16.1752H158.941L161.757 10.5454H110.491ZM161.932 10.1947H110.841L115.849 5.18434H164.438L161.932 10.1947ZM162.149 10.5454L159.333 16.1752H213.48L213.485 10.5454H162.149ZM213.486 10.1947H162.324L164.831 5.18434H213.49L213.486 10.1947ZM213.836 10.5454L213.831 16.1752H267.979L265.172 10.5454H213.836ZM264.998 10.1947H213.836L213.841 5.18434H262.5L264.998 10.1947ZM265.564 10.5454L268.371 16.1752H322.444L316.826 10.5454H265.564ZM316.476 10.1947H265.39L262.892 5.18434H311.477L316.476 10.1947ZM317.322 10.5454L322.94 16.1752H376.896L368.468 10.5454H317.322ZM367.943 10.1947H316.972L311.972 5.18434H360.441L367.943 10.1947ZM369.099 10.5454L377.528 16.1752H431.341L420.101 10.5454H369.099ZM419.401 10.1947H368.574L361.073 5.18434H409.398L419.401 10.1947ZM420.885 10.5454L432.124 16.1752H485.78L471.728 10.5454H420.885ZM470.853 10.1947H420.184L410.181 5.18434H458.347L470.853 10.1947ZM472.671 10.5454L486.723 16.1752H540.211L523.349 10.5454H472.671ZM522.299 10.1947H471.796L459.29 5.18434H507.292L522.299 10.1947ZM524.457 10.5454L541.319 16.1752H594.647L574.974 10.5454H524.457ZM573.749 10.1947H523.407L508.4 5.18434H556.241L573.749 10.1947ZM576.249 10.5454L595.922 16.1752H649.092L626.605 10.5454H576.249ZM625.204 10.1947H575.024L557.515 5.18434H605.191L625.204 10.1947ZM-217.362 30.4828H-156.888L-135.181 23.24H-192.038L-217.362 30.4828ZM-95.1451 30.4828H-155.779L-134.073 23.24H-77.0562L-95.1451 30.4828ZM-33.4021 30.4828H-94.2011L-76.1121 23.24H-18.9291L-33.4021 30.4828ZM28.3399 30.4828H-32.6181L-18.1451 23.24H39.1959L28.3399 30.4828ZM90.0659 30.4828H28.9719L39.8279 23.24H97.3059L90.0659 30.4828ZM151.784 30.4828H90.5619L97.8009 23.24H155.407L151.784 30.4828ZM213.468 30.4828H152.176L155.799 23.24H213.474L213.468 30.4828ZM275.111 30.4828H213.819L213.825 23.24H271.501L275.111 30.4828ZM336.721 30.4828H275.503L271.893 23.24H329.494L336.721 30.4828ZM398.318 30.4828H337.216L329.989 23.24H387.474L398.318 30.4828ZM459.907 30.4828H398.949L388.105 23.24H445.446L459.907 30.4828ZM521.492 30.4828H460.69L446.23 23.24H503.414L521.492 30.4828ZM583.065 30.4828H522.435L504.357 23.24H561.372L583.065 30.4828ZM584.172 30.4828H644.643L619.334 23.24H562.479L584.172 30.4828ZM595.872 16.5259L618.109 22.8893H561.429L542.369 16.5259H595.872ZM541.262 16.5259L560.321 22.8893H503.481L487.598 16.5259H541.262ZM486.655 16.5259L502.538 22.8893H445.529L432.825 16.5259H486.655ZM432.042 16.5259L444.746 22.8893H387.58L378.053 16.5259H432.042ZM377.422 16.5259L386.949 22.8893H329.639L323.29 16.5259H377.422ZM322.794 16.5259L329.144 22.8893H271.718L268.546 16.5259H322.794ZM268.154 16.5259L271.326 22.8893H213.825L213.831 16.5259H268.154ZM213.48 16.5259L213.475 22.8893H155.974L159.157 16.5259H213.48ZM158.765 16.5259L155.582 22.8893H98.1519L104.513 16.5259H158.765ZM104.017 16.5259L97.6559 22.8893H40.3539L49.8919 16.5259H104.017ZM49.2599 16.5259L39.7219 22.8893H-17.4441L-4.72815 16.5259H49.2599ZM-5.51215 16.5259L-18.2281 22.8893H-75.2361L-59.3431 16.5259H-5.51215ZM-60.2871 16.5259L-76.1801 22.8893H-133.022L-113.951 16.5259H-60.2871ZM-115.059 16.5259L-134.13 22.8893H-190.812L-168.563 16.5259H-115.059Z" fill="url(#paint0_linear_168_21)" fill-opacity="0.38"/>
</g>
</g>
<defs>
<linearGradient id="paint0_linear_168_21" x1="59.8439" y1="3.0688e-05" x2="506.619" y2="205.374" gradientUnits="userSpaceOnUse">
<stop/>
<stop offset="0.415"/>
<stop offset="1" stop-opacity="0"/>
</linearGradient>
<clipPath id="clip0_168_21">
<rect width="600" height="308" fill="white" transform="matrix(-1 0 0 1 600 0)"/>
</clipPath>
</defs>
</svg>
