<svg width="340" height="112" viewBox="0 0 340 112" fill="none" xmlns="http://www.w3.org/2000/svg">
<g clip-path="url(#clip0_175_56)">
<path d="M25.7998 31.0995L45.0007 20L64.2017 31.0995L57.0017 34.999L45.0007 28.0986L32.7003 34.999L25.7998 31.0995ZM63.8993 44.9005L56.9988 41.001L45.0007 47.9014L32.7003 41.001L25.7998 44.9005V53.0019L37.8007 59.9024V74.0029L44.7012 78.2019L51.6017 74.0029V60.2019L63.6027 53.3014V44.9005H63.8993ZM63.8993 67.0995V59.001L57.0017 63.2V70.999L63.8993 67.0995ZM68.9998 69.801L56.9988 76.7014V84.8L76.1998 73.7005V51.5014L68.9998 56V69.801ZM62.1022 38L69.0027 42.199V50.3005L75.9031 46.1014V38L69.0027 33.801L62.1022 38ZM37.8007 79.6995V87.7981L44.7012 91.9971L51.6017 87.7981V79.6995L44.7012 83.8986L37.8007 79.6995ZM25.7998 67.0995L32.7003 70.999V62.9005L25.7998 58.7014V67.0995ZM37.8007 38L44.7012 42.199L51.9012 38L45.0007 33.801L37.8007 38ZM20.6993 42.199L27.8993 38L20.6993 33.801L13.8017 38V46.0986L20.7022 50.2976V42.199H20.6993ZM20.6993 56L13.7988 51.801V74L32.9998 85.0995V77.001L20.9988 70.1005V56H20.6993Z" fill="#F0B90B"/>
</g>
<path d="M107.684 70.396C106.012 70.396 104.34 70.3373 102.668 70.22C101.025 70.132 99.3093 69.8973 97.52 69.516V39.948C98.928 39.684 100.468 39.4933 102.14 39.376C103.812 39.2293 105.367 39.156 106.804 39.156C108.74 39.156 110.515 39.3027 112.128 39.596C113.771 39.86 115.179 40.3293 116.352 41.004C117.525 41.6787 118.435 42.5733 119.08 43.688C119.755 44.7733 120.092 46.1227 120.092 47.736C120.092 50.1707 118.919 52.092 116.572 53.5C118.508 54.2333 119.828 55.2307 120.532 56.492C121.236 57.7533 121.588 59.176 121.588 60.76C121.588 63.9573 120.415 66.3627 118.068 67.976C115.751 69.5893 112.289 70.396 107.684 70.396ZM104.208 56.712V64.588C104.707 64.6467 105.249 64.6907 105.836 64.72C106.423 64.7493 107.068 64.764 107.772 64.764C109.825 64.764 111.483 64.4707 112.744 63.884C114.005 63.2973 114.636 62.212 114.636 60.628C114.636 59.22 114.108 58.2227 113.052 57.636C111.996 57.02 110.485 56.712 108.52 56.712H104.208ZM104.208 51.476H107.552C109.664 51.476 111.175 51.212 112.084 50.684C112.993 50.1267 113.448 49.2467 113.448 48.044C113.448 46.812 112.979 45.9467 112.04 45.448C111.101 44.9493 109.723 44.7 107.904 44.7C107.317 44.7 106.687 44.7147 106.012 44.744C105.337 44.744 104.736 44.7733 104.208 44.832V51.476ZM135.399 64.764C136.367 64.764 137.159 64.6907 137.775 64.544C138.42 64.368 138.933 64.148 139.315 63.884C139.696 63.5907 139.96 63.2533 140.107 62.872C140.253 62.4907 140.327 62.0653 140.327 61.596C140.327 60.5987 139.857 59.7773 138.919 59.132C137.98 58.4573 136.367 57.7387 134.079 56.976C133.081 56.624 132.084 56.228 131.087 55.788C130.089 55.3187 129.195 54.7467 128.403 54.072C127.611 53.368 126.965 52.532 126.466 51.564C125.968 50.5667 125.719 49.364 125.719 47.956C125.719 46.548 125.983 45.2867 126.511 44.172C127.039 43.028 127.787 42.06 128.755 41.268C129.723 40.476 130.896 39.8747 132.275 39.464C133.653 39.024 135.208 38.804 136.939 38.804C138.992 38.804 140.767 39.024 142.263 39.464C143.759 39.904 144.991 40.388 145.959 40.916L143.979 46.328C143.128 45.888 142.175 45.5067 141.119 45.184C140.092 44.832 138.845 44.656 137.379 44.656C135.736 44.656 134.548 44.8907 133.815 45.36C133.111 45.8 132.759 46.4893 132.759 47.428C132.759 47.9853 132.891 48.4547 133.155 48.836C133.419 49.2173 133.785 49.5693 134.255 49.892C134.753 50.1853 135.311 50.464 135.927 50.728C136.572 50.9627 137.276 51.212 138.039 51.476C139.623 52.0627 141.001 52.6493 142.175 53.236C143.348 53.7933 144.316 54.4533 145.079 55.216C145.871 55.9787 146.457 56.8733 146.839 57.9C147.22 58.9267 147.411 60.1733 147.411 61.64C147.411 64.4853 146.413 66.7 144.419 68.284C142.424 69.8387 139.417 70.616 135.399 70.616C134.049 70.616 132.832 70.528 131.747 70.352C130.661 70.2053 129.693 70.0147 128.843 69.78C128.021 69.5453 127.303 69.296 126.687 69.032C126.1 68.768 125.601 68.5187 125.191 68.284L127.127 62.828C128.036 63.3267 129.151 63.7813 130.471 64.192C131.82 64.5733 133.463 64.764 135.399 64.764ZM166.596 70.616C161.639 70.616 157.855 69.2373 155.244 66.48C152.663 63.7227 151.372 59.8067 151.372 54.732C151.372 52.2093 151.768 49.9653 152.56 48C153.352 46.0053 154.437 44.3333 155.816 42.984C157.195 41.6053 158.837 40.564 160.744 39.86C162.651 39.156 164.719 38.804 166.948 38.804C168.239 38.804 169.412 38.9067 170.468 39.112C171.524 39.288 172.448 39.508 173.24 39.772C174.032 40.0067 174.692 40.256 175.22 40.52C175.748 40.784 176.129 40.9893 176.364 41.136L174.384 46.68C173.445 46.1813 172.345 45.756 171.084 45.404C169.852 45.052 168.444 44.876 166.86 44.876C165.804 44.876 164.763 45.052 163.736 45.404C162.739 45.756 161.844 46.328 161.052 47.12C160.289 47.8827 159.673 48.88 159.204 50.112C158.735 51.344 158.5 52.84 158.5 54.6C158.5 56.008 158.647 57.328 158.94 58.56C159.263 59.7627 159.761 60.804 160.436 61.684C161.14 62.564 162.049 63.268 163.164 63.796C164.279 64.2947 165.628 64.544 167.212 64.544C168.209 64.544 169.104 64.4853 169.896 64.368C170.688 64.2507 171.392 64.1187 172.008 63.972C172.624 63.796 173.167 63.6053 173.636 63.4C174.105 63.1947 174.531 63.004 174.912 62.828L176.804 68.328C175.836 68.9147 174.472 69.4427 172.712 69.912C170.952 70.3813 168.913 70.616 166.596 70.616ZM205.697 70.616C200.74 70.616 196.956 69.2373 194.345 66.48C191.764 63.7227 190.473 59.8067 190.473 54.732C190.473 52.2093 190.869 49.9653 191.661 48C192.453 46.0053 193.539 44.3333 194.917 42.984C196.296 41.6053 197.939 40.564 199.845 39.86C201.752 39.156 203.82 38.804 206.049 38.804C207.34 38.804 208.513 38.9067 209.569 39.112C210.625 39.288 211.549 39.508 212.341 39.772C213.133 40.0067 213.793 40.256 214.321 40.52C214.849 40.784 215.231 40.9893 215.465 41.136L213.485 46.68C212.547 46.1813 211.447 45.756 210.185 45.404C208.953 45.052 207.545 44.876 205.961 44.876C204.905 44.876 203.864 45.052 202.837 45.404C201.84 45.756 200.945 46.328 200.153 47.12C199.391 47.8827 198.775 48.88 198.305 50.112C197.836 51.344 197.601 52.84 197.601 54.6C197.601 56.008 197.748 57.328 198.041 58.56C198.364 59.7627 198.863 60.804 199.537 61.684C200.241 62.564 201.151 63.268 202.265 63.796C203.38 64.2947 204.729 64.544 206.313 64.544C207.311 64.544 208.205 64.4853 208.997 64.368C209.789 64.2507 210.493 64.1187 211.109 63.972C211.725 63.796 212.268 63.6053 212.737 63.4C213.207 63.1947 213.632 63.004 214.013 62.828L215.905 68.328C214.937 68.9147 213.573 69.4427 211.813 69.912C210.053 70.3813 208.015 70.616 205.697 70.616ZM238.717 39.508H245.581V70H238.717V57.064H227.189V70H220.325V39.508H227.189V51.168H238.717V39.508ZM273.053 70C272.731 68.944 272.364 67.8587 271.953 66.744C271.572 65.6293 271.191 64.5147 270.809 63.4H258.929C258.548 64.5147 258.152 65.6293 257.741 66.744C257.36 67.8587 257.008 68.944 256.685 70H249.557C250.701 66.7147 251.787 63.6787 252.813 60.892C253.84 58.1053 254.837 55.48 255.805 53.016C256.803 50.552 257.771 48.22 258.709 46.02C259.677 43.7907 260.675 41.62 261.701 39.508H268.257C269.255 41.62 270.237 43.7907 271.205 46.02C272.173 48.22 273.141 50.552 274.109 53.016C275.107 55.48 276.119 58.1053 277.145 60.892C278.172 63.6787 279.257 66.7147 280.401 70H273.053ZM264.825 46.416C264.679 46.856 264.459 47.4573 264.165 48.22C263.872 48.9827 263.535 49.8627 263.153 50.86C262.772 51.8573 262.347 52.9573 261.877 54.16C261.437 55.3627 260.983 56.624 260.513 57.944H269.181C268.712 56.624 268.257 55.3627 267.817 54.16C267.377 52.9573 266.952 51.8573 266.541 50.86C266.16 49.8627 265.823 48.9827 265.529 48.22C265.236 47.4573 265.001 46.856 264.825 46.416ZM284.348 39.508H291.212V70H284.348V39.508ZM318.73 70C316.765 66.5093 314.638 63.0627 312.35 59.66C310.062 56.2573 307.627 53.0453 305.046 50.024V70H298.27V39.508H303.858C304.826 40.476 305.897 41.664 307.07 43.072C308.243 44.48 309.431 45.9907 310.634 47.604C311.866 49.188 313.083 50.8453 314.286 52.576C315.489 54.2773 316.618 55.92 317.674 57.504V39.508H324.494V70H318.73Z" fill="white"/>
<defs>
<clipPath id="clip0_175_56">
<rect width="72" height="72" fill="white" transform="translate(9 20)"/>
</clipPath>
</defs>
</svg>
