<svg width="326" height="86" viewBox="0 0 326 86" fill="none" xmlns="http://www.w3.org/2000/svg">
<g clip-path="url(#clip0_187_371)">
<mask id="mask0_187_371" style="mask-type:luminance" maskUnits="userSpaceOnUse" x="-14" y="-13" width="340" height="112">
<path d="M326 -13H-14V99H326V-13Z" fill="white"/>
</mask>
<g mask="url(#mask0_187_371)">
<mask id="mask1_187_371" style="mask-type:luminance" maskUnits="userSpaceOnUse" x="-3" y="1" width="84" height="84">
<path d="M81 1H-3V85H81V1Z" fill="white"/>
</mask>
<g mask="url(#mask1_187_371)">
<path d="M16.5988 13.9494L38.9999 1L61.401 13.9494L53.001 18.4989L38.9999 10.4483L24.6493 18.4989L16.5988 13.9494ZM61.0482 30.0506L52.9977 25.5011L38.9999 33.5517L24.6493 25.5011L16.5988 30.0506V39.5022L30.5999 47.5528V64.0034L38.6505 68.9022L46.701 64.0034V47.9022L60.7021 39.8517V30.0506H61.0482ZM61.0482 55.9494V46.5011L53.001 51.4V60.4989L61.0482 55.9494ZM66.9988 59.1011L52.9977 67.1517V76.6L75.3988 63.6506V37.7517L66.9988 43V59.1011ZM58.9516 22L67.0021 26.8989V36.3506L75.0527 31.4517V22L67.0021 17.1011L58.9516 22ZM30.5999 70.6494V80.0978L38.6505 84.9966L46.701 80.0978V70.6494L38.6505 75.5483L30.5999 70.6494ZM16.5988 55.9494L24.6493 60.4989V51.0506L16.5988 46.1517V55.9494ZM30.5999 22L38.6505 26.8989L47.0505 22L38.9999 17.1011L30.5999 22ZM10.6482 26.8989L19.0482 22L10.6482 17.1011L2.60096 22V31.4483L10.6516 36.3472V26.8989H10.6482ZM10.6482 43L2.59766 38.1011V64L24.9988 76.9494V67.5011L10.9977 59.4506V43H10.6482Z" fill="#F0B90B"/>
</g>
<path d="M105.684 59.3967C104.012 59.3967 102.34 59.338 100.668 59.2207C99.0245 59.1327 97.3085 58.898 95.5195 58.5167V28.9487C96.9275 28.6847 98.4675 28.494 100.14 28.3767C101.812 28.23 103.367 28.1567 104.804 28.1567C106.74 28.1567 108.515 28.3034 110.128 28.5967C111.771 28.8607 113.179 29.33 114.352 30.0047C115.525 30.6794 116.435 31.574 117.08 32.6887C117.755 33.774 118.092 35.1234 118.092 36.7367C118.092 39.1714 116.919 41.0927 114.572 42.5007C116.508 43.234 117.828 44.2314 118.532 45.4927C119.236 46.754 119.588 48.1767 119.588 49.7607C119.588 52.958 118.415 55.3634 116.068 56.9767C113.751 58.59 110.289 59.3967 105.684 59.3967ZM102.208 45.7127V53.5887C102.707 53.6474 103.249 53.6914 103.836 53.7207C104.423 53.75 105.068 53.7647 105.772 53.7647C107.825 53.7647 109.483 53.4714 110.744 52.8847C112.005 52.298 112.636 51.2127 112.636 49.6287C112.636 48.2207 112.108 47.2234 111.052 46.6367C109.996 46.0207 108.485 45.7127 106.52 45.7127H102.208ZM102.208 40.4767H105.552C107.664 40.4767 109.175 40.2127 110.084 39.6847C110.993 39.1274 111.448 38.2474 111.448 37.0447C111.448 35.8127 110.979 34.9474 110.04 34.4487C109.101 33.95 107.723 33.7007 105.904 33.7007C105.317 33.7007 104.687 33.7154 104.012 33.7447C103.337 33.7447 102.736 33.774 102.208 33.8327V40.4767ZM133.399 53.7647C134.367 53.7647 135.159 53.6914 135.775 53.5447C136.42 53.3687 136.933 53.1487 137.315 52.8847C137.696 52.5914 137.96 52.254 138.107 51.8727C138.253 51.4914 138.327 51.066 138.327 50.5967C138.327 49.5994 137.857 48.778 136.919 48.1327C135.98 47.458 134.367 46.7394 132.079 45.9767C131.081 45.6247 130.084 45.2287 129.087 44.7887C128.089 44.3194 127.195 43.7474 126.403 43.0727C125.611 42.3687 124.965 41.5327 124.466 40.5647C123.968 39.5674 123.719 38.3647 123.719 36.9567C123.719 35.5487 123.983 34.2874 124.511 33.1727C125.039 32.0287 125.787 31.0607 126.755 30.2687C127.723 29.4767 128.896 28.8754 130.275 28.4647C131.653 28.0247 133.208 27.8047 134.939 27.8047C136.992 27.8047 138.767 28.0247 140.263 28.4647C141.759 28.9047 142.991 29.3887 143.959 29.9167L141.979 35.3287C141.128 34.8887 140.175 34.5074 139.119 34.1847C138.092 33.8327 136.845 33.6567 135.379 33.6567C133.736 33.6567 132.548 33.8914 131.815 34.3607C131.111 34.8007 130.759 35.49 130.759 36.4287C130.759 36.986 130.891 37.4554 131.155 37.8367C131.419 38.218 131.785 38.57 132.255 38.8927C132.753 39.186 133.311 39.4647 133.927 39.7287C134.572 39.9634 135.276 40.2127 136.039 40.4767C137.623 41.0634 139.001 41.65 140.175 42.2367C141.348 42.794 142.316 43.454 143.079 44.2167C143.871 44.9794 144.457 45.874 144.839 46.9007C145.22 47.9274 145.411 49.174 145.411 50.6407C145.411 53.486 144.413 55.7007 142.419 57.2847C140.424 58.8394 137.417 59.6167 133.399 59.6167C132.049 59.6167 130.832 59.5287 129.747 59.3527C128.661 59.206 127.693 59.0154 126.843 58.7807C126.021 58.546 125.303 58.2967 124.687 58.0327C124.1 57.7687 123.601 57.5194 123.191 57.2847L125.127 51.8287C126.036 52.3274 127.151 52.782 128.471 53.1927C129.82 53.574 131.463 53.7647 133.399 53.7647ZM164.596 59.6167C159.639 59.6167 155.855 58.238 153.244 55.4807C150.663 52.7234 149.372 48.8074 149.372 43.7327C149.372 41.21 149.768 38.966 150.56 37.0007C151.352 35.006 152.437 33.334 153.816 31.9847C155.195 30.606 156.837 29.5647 158.744 28.8607C160.651 28.1567 162.719 27.8047 164.948 27.8047C166.239 27.8047 167.412 27.9074 168.468 28.1127C169.524 28.2887 170.448 28.5087 171.24 28.7727C172.032 29.0074 172.692 29.2567 173.22 29.5207C173.748 29.7847 174.129 29.99 174.364 30.1367L172.384 35.6807C171.445 35.182 170.345 34.7567 169.084 34.4047C167.852 34.0527 166.444 33.8767 164.86 33.8767C163.804 33.8767 162.763 34.0527 161.736 34.4047C160.739 34.7567 159.844 35.3287 159.052 36.1207C158.289 36.8834 157.673 37.8807 157.204 39.1127C156.735 40.3447 156.5 41.8407 156.5 43.6007C156.5 45.0087 156.647 46.3287 156.94 47.5607C157.263 48.7634 157.761 49.8047 158.436 50.6847C159.14 51.5647 160.049 52.2687 161.164 52.7967C162.279 53.2954 163.628 53.5447 165.212 53.5447C166.209 53.5447 167.104 53.486 167.896 53.3687C168.688 53.2514 169.392 53.1194 170.008 52.9727C170.624 52.7967 171.167 52.606 171.636 52.4007C172.105 52.1954 172.531 52.0047 172.912 51.8287L174.804 57.3287C173.836 57.9154 172.472 58.4434 170.712 58.9127C168.952 59.382 166.913 59.6167 164.596 59.6167ZM203.697 59.6167C198.74 59.6167 194.956 58.238 192.345 55.4807C189.764 52.7234 188.473 48.8074 188.473 43.7327C188.473 41.21 188.869 38.966 189.661 37.0007C190.453 35.006 191.539 33.334 192.917 31.9847C194.296 30.606 195.939 29.5647 197.845 28.8607C199.752 28.1567 201.82 27.8047 204.049 27.8047C205.34 27.8047 206.513 27.9074 207.569 28.1127C208.625 28.2887 209.549 28.5087 210.341 28.7727C211.133 29.0074 211.793 29.2567 212.321 29.5207C212.849 29.7847 213.231 29.99 213.465 30.1367L211.485 35.6807C210.547 35.182 209.447 34.7567 208.185 34.4047C206.953 34.0527 205.545 33.8767 203.961 33.8767C202.905 33.8767 201.864 34.0527 200.837 34.4047C199.84 34.7567 198.945 35.3287 198.153 36.1207C197.391 36.8834 196.775 37.8807 196.305 39.1127C195.836 40.3447 195.601 41.8407 195.601 43.6007C195.601 45.0087 195.748 46.3287 196.041 47.5607C196.364 48.7634 196.863 49.8047 197.537 50.6847C198.241 51.5647 199.151 52.2687 200.265 52.7967C201.38 53.2954 202.729 53.5447 204.313 53.5447C205.311 53.5447 206.205 53.486 206.997 53.3687C207.789 53.2514 208.493 53.1194 209.109 52.9727C209.725 52.7967 210.268 52.606 210.737 52.4007C211.207 52.1954 211.632 52.0047 212.013 51.8287L213.905 57.3287C212.937 57.9154 211.573 58.4434 209.813 58.9127C208.053 59.382 206.015 59.6167 203.697 59.6167ZM236.717 28.5087H243.581V59.0007H236.717V46.0647H225.189V59.0007H218.325V28.5087H225.189V40.1687H236.717V28.5087ZM271.053 59.0007C270.731 57.9447 270.364 56.8594 269.953 55.7447C269.572 54.63 269.191 53.5154 268.809 52.4007H256.929C256.548 53.5154 256.152 54.63 255.741 55.7447C255.36 56.8594 255.008 57.9447 254.685 59.0007H247.557C248.701 55.7154 249.787 52.6794 250.813 49.8927C251.84 47.106 252.837 44.4807 253.805 42.0167C254.803 39.5527 255.771 37.2207 256.709 35.0207C257.677 32.7914 258.675 30.6207 259.701 28.5087H266.257C267.255 30.6207 268.237 32.7914 269.205 35.0207C270.173 37.2207 271.141 39.5527 272.109 42.0167C273.107 44.4807 274.119 47.106 275.145 49.8927C276.172 52.6794 277.257 55.7154 278.401 59.0007H271.053ZM262.825 35.4167C262.679 35.8567 262.459 36.458 262.165 37.2207C261.872 37.9834 261.535 38.8634 261.153 39.8607C260.772 40.858 260.347 41.958 259.877 43.1607C259.437 44.3634 258.983 45.6247 258.513 46.9447H267.181C266.712 45.6247 266.257 44.3634 265.817 43.1607C265.377 41.958 264.952 40.858 264.541 39.8607C264.16 38.8634 263.823 37.9834 263.529 37.2207C263.236 36.458 263.001 35.8567 262.825 35.4167ZM282.348 28.5087H289.212V59.0007H282.348V28.5087ZM316.73 59.0007C314.765 55.51 312.638 52.0634 310.35 48.6607C308.062 45.258 305.627 42.046 303.046 39.0247V59.0007H296.27V28.5087H301.858C302.826 29.4767 303.897 30.6647 305.07 32.0727C306.243 33.4807 307.431 34.9914 308.634 36.6047C309.866 38.1887 311.083 39.846 312.286 41.5767C313.489 43.278 314.618 44.9207 315.674 46.5047V28.5087H322.494V59.0007H316.73Z" fill="white"/>
</g>
</g>
<defs>
<clipPath id="clip0_187_371">
<rect width="326" height="86" fill="white"/>
</clipPath>
</defs>
</svg>
