<svg width="116" height="27" viewBox="0 0 116 27" fill="none" xmlns="http://www.w3.org/2000/svg">
<path d="M43.1234 10.8193C42.9542 10.1807 42.6646 9.61991 42.2165 9.21381C41.7489 8.7901 41.1171 8.54246 40.2926 8.54246C39.0717 8.54246 38.2013 9.10236 37.6401 9.94367C37.0818 10.7806 36.8314 11.892 36.8314 13.0031C36.8314 14.1143 37.0818 15.226 37.6401 16.0632C38.2013 16.9048 39.0717 17.4651 40.2926 17.4651C41.1816 17.4651 41.8753 17.1202 42.3645 16.557C42.8343 16.0162 43.1112 15.2799 43.2006 14.4669H44.8929C44.7972 15.7697 44.304 16.8652 43.5225 17.6404C42.7204 18.436 41.6092 18.8996 40.2962 18.8996C38.669 18.8996 37.3729 18.2314 36.4818 17.1635C35.5893 16.0938 35.0996 14.6182 35.0996 13.002C35.0996 11.3856 35.5877 9.90881 36.4785 8.83797C37.3678 7.76895 38.662 7.09969 40.289 7.09961C41.5168 7.10727 42.6085 7.46265 43.4202 8.11375C44.2062 8.74424 44.7349 9.65605 44.8701 10.8129L43.1234 10.8193Z" fill="white" stroke="#B0B0BB" stroke-width="0.2"/>
<path d="M46.0996 14.4904C46.0996 13.2036 46.4585 12.1059 47.1214 11.3316C47.7827 10.5591 48.754 10.0996 49.9996 10.0996C51.2452 10.0996 52.2164 10.5591 52.8778 11.3316C53.5407 12.1059 53.8996 13.2036 53.8996 14.4904C53.8996 15.7773 53.5407 16.8798 52.8776 17.6587C52.2161 18.4358 51.2448 18.8996 49.9996 18.8996C48.754 18.8996 47.7828 18.4398 47.1215 17.665C46.4586 16.8883 46.0996 15.786 46.0996 14.4904ZM52.3522 14.4904C52.3522 13.7429 52.1771 12.9714 51.7961 12.3833C51.4128 11.7916 50.8201 11.3859 49.9996 11.3859C49.1792 11.3859 48.5865 11.7912 48.2031 12.3828C47.8221 12.9707 47.647 13.7422 47.647 14.4904C47.647 15.2386 47.8221 16.0146 48.2029 16.6069C48.586 17.2029 49.1787 17.6132 49.9996 17.6132C50.8201 17.6132 51.4129 17.2076 51.7962 16.6134C52.1772 16.0231 52.3522 15.247 52.3522 14.4904Z" fill="white" stroke="#B0B0BB" stroke-width="0.2"/>
<path d="M56.0996 8.09961H57.8996V9.56348H56.0996V8.09961ZM56.0996 11.1352H57.8996V18.8996H56.0996V11.1352Z" fill="white" stroke="#B0B0BB" stroke-width="0.2"/>
<path d="M61.6573 13.8298V18.8996H60.0996V10.3382H61.5648V11.5262V11.5647L61.5907 11.5933L61.6214 11.6272L61.7171 11.7329L61.7839 11.6069C62.0287 11.1445 62.3793 10.7623 62.7997 10.4982C63.2199 10.2341 63.6954 10.0969 64.178 10.0996C65.0219 10.0996 65.6992 10.3477 66.1652 10.8236C66.6314 11.2997 66.8996 12.017 66.8996 12.9811V18.8983H65.3418V13.4908L65.3417 13.4886C65.3262 12.7943 65.1938 12.2765 64.9171 11.9314C64.6362 11.581 64.2213 11.4262 63.6852 11.4262C62.4392 11.4262 61.6573 12.5075 61.6573 13.8298Z" fill="white" stroke="#B0B0BB" stroke-width="0.2"/>
<path d="M77.101 8.06937C77.9687 8.68995 78.5737 9.60616 78.751 10.8141H76.9056C76.6549 9.29476 75.2434 8.53597 73.735 8.53597C72.4194 8.53597 71.4794 9.09297 70.8717 9.93468C70.2669 10.7724 69.9953 11.8854 69.9953 12.9983C69.9953 14.1114 70.2669 15.2248 70.8717 16.0627C71.4793 16.9046 72.419 17.4618 73.7343 17.462C74.826 17.4782 75.6836 17.1719 76.273 16.6019C76.8624 16.0319 77.1713 15.21 77.189 14.2195L77.1908 14.1177H77.089H74.0027V12.7953H78.8958L78.8995 18.6274H77.7371L77.4373 17.3569L77.3939 17.1731L77.2663 17.3123C76.714 17.9146 76.1883 18.3098 75.6254 18.5553C75.0626 18.8008 74.4561 18.8996 73.7375 18.8996C71.9716 18.9008 70.5644 18.2292 69.5979 17.1594C68.6303 16.0884 68.0996 14.6126 68.0996 12.9996C68.0996 11.3866 68.6303 9.91146 69.5976 8.84071C70.5637 7.77116 71.9703 7.09961 73.735 7.09961C75.0232 7.09961 76.2047 7.42832 77.101 8.06937Z" fill="white" stroke="#B0B0BB" stroke-width="0.2"/>
<path d="M81.8372 14.886H81.7372V14.986C81.7372 15.6713 81.9186 16.327 82.3048 16.8136C82.6934 17.3033 83.2829 17.6132 84.0772 17.6132C84.6243 17.6132 85.0732 17.4898 85.4285 17.2374C85.7672 16.9969 86.0121 16.6453 86.1777 16.193H87.7233C87.2927 17.9299 85.8193 18.8996 84.0772 18.8996C82.7977 18.8996 81.807 18.443 81.135 17.6723C80.4614 16.8999 80.0996 15.8023 80.0996 14.5076C80.0996 12.1184 81.6219 10.0996 84.0295 10.0996C86.5503 10.0996 88.1268 12.4024 87.8731 14.886H81.8372ZM86.1249 13.8478H86.2304L86.2247 13.7424C86.1585 12.5195 85.3403 11.3859 84.0295 11.3859C82.6928 11.3859 81.788 12.4275 81.7372 13.744L81.7332 13.8478H81.8372H86.1249Z" fill="white" stroke="#B0B0BB" stroke-width="0.2"/>
<path d="M95.2161 12.9873C95.1269 12.4858 94.8967 12.0909 94.5577 11.8183C94.2004 11.531 93.7303 11.3859 93.1963 11.3859C92.6944 11.3859 92.0834 11.5181 91.5981 11.9943C91.1123 12.4711 90.7686 13.2767 90.7686 14.5895C90.7686 15.312 90.9266 16.0638 91.2988 16.6384C91.6741 17.2177 92.2657 17.6132 93.1137 17.6132C93.6784 17.6132 94.163 17.423 94.5296 17.0691C94.8785 16.7323 95.1144 16.2532 95.216 15.6646H96.8817C96.701 16.698 96.2917 17.4943 95.6806 18.0372C95.0475 18.5998 94.1876 18.8996 93.1137 18.8996C91.8114 18.8996 90.8114 18.4347 90.1357 17.6697C89.4587 16.9031 89.0996 15.8259 89.0996 14.5895C89.0996 13.3183 89.4436 12.1958 90.1213 11.3929C90.797 10.5924 91.8127 10.0996 93.1792 10.0996C94.1472 10.0996 95.0354 10.3435 95.7011 10.8375C96.3405 11.3121 96.7812 12.022 96.8893 12.9873H95.2161Z" fill="white" stroke="#B0B0BB" stroke-width="0.2"/>
<path d="M99.7987 16.1472V18.8996H98.0996V8.09961H99.8037V14.2532V14.4837L99.972 14.3262L103.384 11.1346H105.419L102.31 13.8851L102.242 13.945L102.295 14.0184L105.805 18.8973H103.727L101.118 15.0742L101.053 14.9799L100.968 15.056L99.832 16.0727L99.7987 16.1025V16.1472Z" fill="white" stroke="#B0B0BB" stroke-width="0.2"/>
<path d="M106.1 14.4904C106.1 13.2036 106.459 12.1058 107.122 11.3315C107.783 10.5591 108.754 10.0996 109.999 10.0996C111.245 10.0996 112.216 10.5591 112.878 11.3316C113.541 12.1059 113.9 13.2036 113.9 14.4904C113.9 15.7773 113.541 16.8797 112.878 17.6587C112.216 18.4358 111.245 18.8996 109.999 18.8996C108.754 18.8996 107.783 18.4398 107.122 17.665C106.459 16.8883 106.1 15.786 106.1 14.4904ZM112.353 14.4904C112.353 13.7429 112.177 12.9713 111.796 12.3833C111.413 11.7916 110.82 11.3859 109.999 11.3859C109.179 11.3859 108.586 11.7912 108.203 12.3828C107.822 12.9707 107.647 13.7423 107.647 14.4904C107.647 15.2386 107.822 16.0146 108.203 16.6069C108.586 17.2029 109.179 17.6132 109.999 17.6132C110.82 17.6132 111.413 17.2076 111.796 16.6135C112.178 16.0231 112.353 15.247 112.353 14.4904Z" fill="white" stroke="#B0B0BB" stroke-width="0.2"/>
<path d="M26.617 13.2405C26.6286 15.8708 25.8593 18.4454 24.4067 20.6389C22.9539 22.8324 20.8829 24.5461 18.4555 25.5635C16.0281 26.5807 13.3533 26.8558 10.7695 26.354C8.18564 25.8521 5.80872 24.5959 3.93933 22.7442C2.06994 20.8924 0.79203 18.5283 0.267216 15.9508C-0.257599 13.3732 -0.00574923 10.698 0.990913 8.26351C1.98758 5.82902 3.68429 3.74453 5.86648 2.27366C8.04868 0.802778 10.6184 0.0115831 13.2506 0.000126464C16.78 -0.0152441 20.1711 1.37106 22.6777 3.85408C25.1844 6.33711 26.6013 9.71348 26.617 13.2405Z" fill="#8DC63F"/>
<path d="M25.6187 13.246C25.6298 15.6786 24.9187 18.06 23.5754 20.0887C22.2321 22.1175 20.3169 23.7028 18.072 24.6438C15.8271 25.5849 13.3534 25.8397 10.9637 25.3759C8.57391 24.9121 6.37546 23.7505 4.64633 22.0381C2.91719 20.3257 1.73505 18.1393 1.24939 15.7556C0.763719 13.3717 0.996346 10.8975 1.91785 8.64588C2.83935 6.3942 4.40833 4.46616 6.42639 3.10557C8.44444 1.74499 10.8209 1.01296 13.2553 1.00207C16.5195 0.987728 19.6557 2.26956 21.9742 4.56566C24.2927 6.86175 25.6037 9.98408 25.6187 13.246Z" fill="#F9E988"/>
<path d="M13.5322 1.79939C14.3147 1.66062 15.1154 1.66062 15.8979 1.79939C16.6879 1.92439 17.4514 2.18007 18.1574 2.55591C18.8594 2.94139 19.4661 3.46468 20.0697 3.9552C20.6734 4.44572 21.2743 4.94782 21.8463 5.49713C22.43 6.03788 22.9394 6.65359 23.3612 7.32817C23.7955 7.9974 24.1515 8.71428 24.4221 9.4647C24.9361 10.9739 25.1145 12.5996 24.858 14.1503H24.7817C24.5242 12.6132 24.1752 11.1483 23.6245 9.75477C23.3661 9.05305 23.0619 8.36897 22.7141 7.7069C22.3511 7.04473 21.9513 6.4035 21.5163 5.78624C21.0739 5.16222 20.5319 4.61523 19.9116 4.16721C19.2867 3.72198 18.5683 3.43383 17.8729 3.16014C17.1776 2.88645 16.4879 2.60312 15.7628 2.39496C15.0376 2.18681 14.3008 2.03068 13.5312 1.87938L13.5322 1.79939Z" fill="white"/>
<path d="M19.5509 8.90508C18.6579 8.6468 17.7321 8.28059 16.7947 7.91053C16.7406 7.67538 16.5324 7.38242 16.111 7.02488C15.4986 6.49388 14.348 6.50737 13.3537 6.74252C12.2563 6.48424 11.1723 6.39269 10.1318 6.64615C1.62109 8.98891 6.44688 14.7047 3.32227 20.4502C3.76685 21.3928 8.55889 26.8916 15.4928 25.4162C15.4928 25.4162 13.1213 19.7218 18.4727 16.9886C22.8134 14.7634 25.9496 10.6465 19.5509 8.90508Z" fill="#8BC53F"/>
<path d="M20.6023 12.6455C20.6028 12.7475 20.5731 12.8474 20.5169 12.9324C20.4608 13.0176 20.3804 13.0841 20.2865 13.1236C20.1923 13.1633 20.0887 13.174 19.9885 13.1547C19.8883 13.1354 19.7961 13.0868 19.7235 13.015C19.651 12.9433 19.6014 12.8517 19.5808 12.7519C19.5604 12.652 19.57 12.5482 19.6086 12.4538C19.6471 12.3594 19.7128 12.2785 19.7972 12.2213C19.8818 12.1642 19.9814 12.1335 20.0835 12.1328C20.2202 12.1323 20.3515 12.1861 20.4489 12.2821C20.5461 12.3781 20.6012 12.5089 20.6023 12.6455Z" fill="white"/>
<path d="M13.3555 6.73795C13.9753 6.78229 16.2175 7.50892 16.7962 7.90596C16.314 6.50859 14.6909 6.3226 13.3555 6.73795Z" fill="#009345"/>
<path d="M13.9458 10.272C13.946 10.7425 13.8066 11.2024 13.5451 11.5937C13.2837 11.985 12.9121 12.2899 12.4772 12.4701C12.0423 12.6502 11.5637 12.6975 11.1019 12.6058C10.6402 12.5141 10.216 12.2877 9.883 11.9552C9.55004 11.6225 9.32326 11.1987 9.23135 10.7373C9.13943 10.2759 9.18651 9.79766 9.36662 9.36299C9.54673 8.92834 9.8518 8.55683 10.2433 8.29544C10.6347 8.03405 11.0949 7.89453 11.5657 7.89453C11.8782 7.8944 12.1877 7.95581 12.4764 8.07523C12.7652 8.19465 13.0276 8.36975 13.2486 8.59054C13.4696 8.81131 13.6449 9.07344 13.7646 9.36195C13.8842 9.65046 13.9458 9.95969 13.9458 10.272Z" fill="white"/>
<path d="M13.239 10.2921C13.239 10.623 13.1407 10.9465 12.9569 11.2215C12.7729 11.4967 12.5114 11.7112 12.2055 11.8378C11.8996 11.9644 11.5629 11.9976 11.2382 11.933C10.9134 11.8684 10.6151 11.7091 10.381 11.4751C10.1468 11.2411 9.98739 10.943 9.92279 10.6185C9.8582 10.294 9.89135 9.9576 10.0181 9.65191C10.1448 9.34621 10.3594 9.08492 10.6347 8.90109C10.91 8.71726 11.2337 8.61914 11.5648 8.61914C12.0088 8.61914 12.4347 8.7954 12.7486 9.10915C13.0626 9.42289 13.239 9.84842 13.239 10.2921Z" fill="#58595B"/>
<path d="M22.5321 13.6941C20.6034 15.0519 18.4104 16.0821 15.2992 16.0821C13.8429 16.0821 13.5479 14.5402 12.5854 15.2938C12.0888 15.6851 10.3375 16.5602 8.94778 16.4937C7.5581 16.4271 5.30529 15.6128 4.67747 12.6484C4.42866 15.6128 4.30137 17.7965 3.1875 20.2992C5.40559 23.8486 10.6943 26.5865 15.495 25.4069C14.979 21.8075 18.1268 18.2823 19.9003 16.4782C20.5753 15.7949 21.858 14.6799 22.5321 13.6921V13.6941Z" fill="#8BC53F"/>
<path d="M22.4539 13.7819C21.8549 14.3274 21.1422 14.7311 20.4171 15.0877C19.6829 15.436 18.9177 15.7145 18.1314 15.9194C17.3446 16.1227 16.5238 16.2759 15.6925 16.2007C14.8612 16.1256 14.0116 15.8432 13.4609 15.2207L13.4869 15.1908C14.162 15.6283 14.9412 15.7825 15.7166 15.8047C16.5025 15.8285 17.2886 15.7639 18.0601 15.612C18.8393 15.4489 19.6016 15.2135 20.337 14.9085C21.0728 14.6049 21.8009 14.2531 22.4278 13.752L22.4539 13.7819Z" fill="#58595B"/>
</svg>
