<svg width="159" height="27" viewBox="0 0 159 27" fill="none" xmlns="http://www.w3.org/2000/svg">
<g clip-path="url(#clip0_182_253)">
<mask id="mask0_182_253" style="mask-type:luminance" maskUnits="userSpaceOnUse" x="0" y="0" width="159" height="27">
<path d="M159 0H0V27H159V0Z" fill="white"/>
</mask>
<g mask="url(#mask0_182_253)">
<mask id="mask1_182_253" style="mask-type:luminance" maskUnits="userSpaceOnUse" x="0" y="0" width="159" height="27">
<path d="M159 0H0V27H159V0Z" fill="white"/>
</mask>
<g mask="url(#mask1_182_253)">
<path fill-rule="evenodd" clip-rule="evenodd" d="M23.7528 16.1337C23.2795 16.432 22.7224 16.4688 22.2984 16.2319C21.761 15.9288 21.4652 15.2206 21.4652 14.2364V11.2909C21.4652 9.86727 20.9007 8.856 19.9553 8.58232C18.3542 8.11841 17.15 10.0673 16.6976 10.8012L13.8738 15.3581V9.7875C13.8418 8.50623 13.424 7.73918 12.629 7.50845C12.1039 7.35627 11.3175 7.41764 10.5546 8.57986L4.22665 18.6914C3.37987 17.091 2.93855 15.3089 2.94109 13.5C2.94109 7.40905 7.84544 2.45455 13.8738 2.45455C19.901 2.45455 24.8054 7.40905 24.8054 13.5L24.8079 13.5295V13.5601C24.8646 14.7383 24.48 15.6784 23.7528 16.135V16.1337ZM27.2348 13.5V13.4693L27.2335 13.4399C27.2003 6.02223 21.2199 0 13.8726 0C6.50565 0 0.511719 6.05536 0.511719 13.5C0.511719 20.9434 6.50565 27 13.8726 27C17.2514 27.0007 20.5022 25.7126 22.9566 23.4004C23.1026 23.2622 23.2128 23.0909 23.2778 22.9009C23.3426 22.7111 23.3602 22.5083 23.329 22.3101C23.2979 22.1119 23.2188 21.9242 23.0988 21.7631C22.9787 21.602 22.8212 21.4724 22.6398 21.3852C22.4213 21.2837 22.1772 21.2499 21.9392 21.2882C21.7012 21.3264 21.4802 21.4352 21.3049 21.6C19.297 23.4921 16.6372 24.5462 13.8726 24.5455C10.6458 24.5455 7.74191 23.1243 5.73777 20.8685L11.4445 11.7499V15.9545C11.4445 17.9734 12.2309 18.6263 12.8903 18.8165C13.5509 19.008 14.5604 18.8779 15.6191 17.1659L18.7585 12.1021C18.8583 11.9389 18.9507 11.7978 19.0358 11.6763V14.2364C19.0358 16.1239 19.7951 17.6335 21.1188 18.376C22.3132 19.0473 23.8144 18.9859 25.0371 18.2189C26.5187 17.2861 27.3174 15.5692 27.2348 13.5ZM45.8365 8.88791C46.157 9.08305 46.4356 9.51382 46.4356 9.90409C46.4356 10.53 45.9006 11.0479 45.3016 11.0479C45.1525 11.0479 45.0033 11.005 44.8739 10.962C44.1689 10.4441 43.2716 10.098 42.3299 10.098C40.1064 10.098 38.5669 11.9119 38.5669 14.159C38.5669 16.405 40.1064 18.198 42.3299 18.198C43.4417 18.198 44.4253 17.7439 45.1734 17.053C45.3668 16.9146 45.5984 16.8392 45.8365 16.837C46.4356 16.837 46.9052 17.3119 46.9052 17.917C46.9052 18.306 46.671 18.6521 46.3715 18.846C45.3016 19.7542 43.8484 20.358 42.3509 20.358C38.9305 20.358 36.1511 17.55 36.1511 14.094C36.1511 10.638 38.9293 7.83 42.3509 7.83C43.634 7.83 44.853 8.21905 45.8365 8.88791ZM52.0918 11.502C54.4225 11.502 56.3897 13.4681 56.3897 15.887C56.3897 18.306 54.4225 20.358 52.0918 20.358C49.655 20.358 47.6225 18.306 47.6225 15.887C47.6225 13.4681 49.655 11.502 52.0918 11.502ZM52.0708 18.198C53.0975 18.198 53.9739 17.226 53.9739 15.9079C53.9739 14.591 53.0975 13.77 52.0708 13.77C50.9591 13.77 50.0383 14.569 50.0383 15.9079C50.0383 17.226 50.9591 18.198 52.0708 18.198ZM57.8552 19.019V12.841C57.8552 12.1721 58.3901 11.61 59.0533 11.61C59.7164 11.61 60.2723 12.1721 60.2723 12.841V19.019C60.2723 19.6879 59.7164 20.25 59.0533 20.25C58.3901 20.25 57.8552 19.6879 57.8552 19.019ZM57.6642 9.27695C57.6642 8.478 58.2829 7.83 59.0533 7.83C59.8446 7.83 60.4855 8.478 60.4855 9.27818C60.4855 10.055 59.8446 10.681 59.0533 10.681C58.2829 10.681 57.6642 10.055 57.6642 9.27695ZM64.903 15.671V19.019C64.903 19.6879 64.3471 20.25 63.6828 20.25C63.0209 20.25 62.4859 19.6879 62.4859 19.019V12.5599C62.4859 12.042 62.9136 11.61 63.4276 11.61C63.9404 11.61 64.3471 12.042 64.3471 12.5599C65.3307 11.653 66.1848 11.502 66.9971 11.502C69.4129 11.502 70.4828 13.3159 70.4828 15.3679V19.019C70.4828 19.6879 69.9281 20.25 69.265 20.25C68.6019 20.25 68.067 19.6879 68.067 19.019V15.671C68.067 14.6119 67.9388 13.727 66.4203 13.727C65.3516 13.727 64.9018 14.6119 64.9018 15.671H64.903ZM78.3428 16.945C78.2232 16.9448 78.1053 16.9176 77.9978 16.8652C77.8905 16.8129 77.7964 16.7369 77.7228 16.643L74.9003 13.597V19.019C74.9003 19.6879 74.3431 20.25 73.68 20.25C73.0181 20.25 72.4832 19.6879 72.4832 19.019V8.28409C72.5178 8.19369 72.5797 8.11609 72.6602 8.06186C72.7407 8.00762 72.836 7.97938 72.9331 7.98095C73.1463 7.98095 73.3164 8.15523 73.4458 8.28409L77.936 13.3159C78.0642 13.4681 78.2356 13.554 78.3206 13.554C78.4069 13.554 78.577 13.4681 78.7052 13.3171L83.1966 8.28532C83.3248 8.15523 83.4961 7.98095 83.7094 7.98095C83.9226 7.98095 84.0939 8.11105 84.1592 8.28409V19.019C84.1592 19.6879 83.6243 20.25 82.9612 20.25C82.2981 20.25 81.741 19.6879 81.741 19.019V13.597L78.9196 16.643C78.7693 16.8149 78.577 16.945 78.3428 16.945ZM89.9658 18.198C91.0554 18.198 91.9749 17.226 91.9749 15.9079C91.9749 14.591 91.0344 13.727 89.9658 13.727C88.896 13.727 88.0406 14.6119 88.0406 15.9079C88.0406 17.183 88.896 18.198 89.9646 18.198H89.9658ZM92.5308 19.3001L92.4876 19.0178C92.018 19.9469 90.5205 20.358 89.5579 20.358C87.2899 20.358 85.6235 18.306 85.6235 15.887C85.6235 13.4681 87.3343 11.502 89.686 11.502C90.0928 11.502 91.44 11.61 92.4876 12.841L92.5308 12.5599C92.5308 12.042 92.9375 11.61 93.4503 11.61C93.963 11.61 94.3907 12.042 94.3907 12.5599V19.3001C94.3901 19.5497 94.2911 19.7892 94.115 19.9667C93.9388 20.1445 93.6997 20.2462 93.449 20.25C92.9363 20.25 92.5295 19.818 92.5295 19.3001H92.5308ZM101.096 13.727H100.839C99.3209 13.813 99.0214 14.677 99.0214 15.671V19.019C99.0214 19.6879 98.4668 20.25 97.8024 20.25C97.1393 20.25 96.6056 19.6879 96.6056 19.019V12.5599C96.6056 12.042 97.0321 11.61 97.5461 11.61C98.06 11.61 98.4655 12.042 98.4655 12.5599C99.3641 11.718 100.091 11.545 100.839 11.502H101.074C101.653 11.502 102.185 11.999 102.185 12.625C102.185 13.2079 101.673 13.727 101.096 13.727ZM110.409 18.457C110.516 18.63 110.58 18.8251 110.58 19.0399C110.58 19.6658 110.002 20.25 109.382 20.25C108.955 20.25 108.591 19.926 108.314 19.5799L105.534 16.362V19.019C105.534 19.6879 104.977 20.25 104.314 20.25C103.652 20.25 103.117 19.6879 103.117 19.019V9.21314C103.117 8.54305 103.652 7.98095 104.314 7.98095C104.977 7.98095 105.534 8.54305 105.534 9.21314V15.325L108.314 12.258C108.591 11.934 108.934 11.61 109.361 11.61C109.96 11.61 110.516 12.1721 110.516 12.798C110.52 12.9957 110.468 13.1905 110.366 13.3601L108.163 15.757L110.409 18.457ZM115.147 13.77C114.484 13.77 113.414 14.1161 113.414 15.131H116.9C116.9 14.094 115.789 13.77 115.147 13.77ZM118.311 16.6639H113.414C113.414 18.1121 114.804 18.3281 115.423 18.3281C115.874 18.3281 116.515 18.2422 117.007 18.025C117.191 17.9036 117.406 17.8363 117.627 17.831C118.161 17.831 118.609 18.2851 118.609 18.8251C118.609 19.1921 118.375 19.5161 118.076 19.6879C117.327 20.2279 116.365 20.358 115.445 20.358C113.007 20.358 110.976 19.0411 110.976 15.995C110.976 13.597 112.216 11.502 115.104 11.502C117.433 11.502 119.208 13.014 119.251 15.714C119.251 15.9634 119.152 16.2027 118.976 16.3803C118.8 16.5579 118.561 16.6597 118.311 16.6639ZM125.037 20.358H124.374C122.534 20.358 121.465 19.559 121.465 16.686V13.727H120.845C120.268 13.727 119.756 13.2079 119.756 12.625C119.756 11.999 120.268 11.502 120.845 11.502H121.465V9.21191C121.465 8.54305 122 7.98095 122.663 7.98095C123.326 7.98095 123.882 8.54305 123.882 9.21191V11.502H124.887C125.465 11.502 125.977 11.999 125.977 12.625C125.977 13.2079 125.465 13.727 124.887 13.727H123.882V16.211C123.882 17.8519 123.967 18.198 124.694 18.198H125.037C125.614 18.198 126.106 18.673 126.106 19.278C126.106 19.861 125.614 20.358 125.037 20.358ZM136.745 8.88791C137.066 9.08305 137.344 9.51382 137.344 9.90409C137.344 10.53 136.809 11.0479 136.21 11.0479C136.061 11.0479 135.911 11.005 135.782 10.962C135.076 10.4441 134.179 10.098 133.238 10.098C131.015 10.098 129.474 11.9119 129.474 14.159C129.474 16.405 131.014 18.198 133.238 18.198C134.349 18.198 135.334 17.7439 136.082 17.053C136.276 16.9146 136.507 16.8393 136.745 16.837C137.344 16.837 137.814 17.3119 137.814 17.917C137.814 18.306 137.578 18.6521 137.28 18.846C136.21 19.7542 134.756 20.358 133.259 20.358C129.838 20.358 127.058 17.55 127.058 14.094C127.058 10.638 129.838 7.83 133.259 7.83C134.543 7.83 135.762 8.21905 136.745 8.88791ZM142.872 18.198C143.963 18.198 144.881 17.226 144.881 15.9079C144.881 14.591 143.941 13.727 142.872 13.727C141.802 13.727 140.947 14.6119 140.947 15.9079C140.947 17.183 141.802 18.198 142.872 18.198ZM145.437 19.3001L145.395 19.0178C144.924 19.9469 143.428 20.358 142.465 20.358C140.199 20.358 138.531 18.306 138.531 15.887C138.531 13.4681 140.242 11.502 142.594 11.502C143 11.502 144.348 11.61 145.395 12.841L145.437 12.5599C145.437 12.042 145.844 11.61 146.358 11.61C146.871 11.61 147.298 12.042 147.298 12.5599V19.3001C147.298 19.5495 147.198 19.7888 147.023 19.9664C146.847 20.144 146.608 20.2458 146.358 20.25C145.844 20.25 145.437 19.818 145.437 19.3001ZM153.938 18.198C155.008 18.198 155.862 17.183 155.862 15.9079C155.862 14.6119 155.008 13.727 153.938 13.727C152.869 13.727 151.928 14.591 151.928 15.9079C151.928 17.226 152.848 18.198 153.938 18.198ZM151.928 19.6462V22.7119C151.928 23.382 151.372 23.9441 150.709 23.9441C150.047 23.9441 149.512 23.382 149.512 22.7119V12.5599C149.512 12.042 149.94 11.61 150.454 11.61C150.966 11.61 151.373 12.042 151.373 12.647C152.27 11.718 153.382 11.502 154.217 11.502C156.568 11.502 158.279 13.4681 158.279 15.887C158.279 18.306 156.611 20.358 154.345 20.358C153.64 20.358 152.591 20.142 151.928 19.6462Z" fill="white"/>
</g>
</g>
<mask id="mask2_182_253" style="mask-type:luminance" maskUnits="userSpaceOnUse" x="0" y="0" width="28" height="27">
<path d="M28 0H0V27H28V0Z" fill="white"/>
</mask>
<g mask="url(#mask2_182_253)">
<mask id="mask3_182_253" style="mask-type:luminance" maskUnits="userSpaceOnUse" x="0" y="0" width="159" height="27">
<path d="M159 0H0V27H159V0Z" fill="white"/>
</mask>
<g mask="url(#mask3_182_253)">
<path fill-rule="evenodd" clip-rule="evenodd" d="M23.7528 16.1337C23.2795 16.432 22.7224 16.4688 22.2984 16.2319C21.761 15.9288 21.4652 15.2206 21.4652 14.2364V11.2909C21.4652 9.86727 20.9007 8.856 19.9553 8.58232C18.3542 8.11841 17.15 10.0673 16.6976 10.8012L13.8738 15.3581V9.7875C13.8418 8.50623 13.424 7.73918 12.629 7.50845C12.1039 7.35627 11.3175 7.41764 10.5546 8.57986L4.22665 18.6914C3.37987 17.091 2.93855 15.3089 2.94109 13.5C2.94109 7.40905 7.84544 2.45455 13.8738 2.45455C19.901 2.45455 24.8054 7.40905 24.8054 13.5L24.8079 13.5295V13.5601C24.8646 14.7383 24.48 15.6784 23.7528 16.135V16.1337ZM27.2348 13.5V13.4693L27.2335 13.4399C27.2003 6.02223 21.2199 0 13.8726 0C6.50565 0 0.511719 6.05536 0.511719 13.5C0.511719 20.9434 6.50565 27 13.8726 27C17.2514 27.0007 20.5022 25.7126 22.9566 23.4004C23.1026 23.2622 23.2128 23.0909 23.2778 22.9009C23.3426 22.7111 23.3602 22.5083 23.329 22.3101C23.2979 22.1119 23.2188 21.9242 23.0988 21.7631C22.9787 21.602 22.8212 21.4724 22.6398 21.3852C22.4213 21.2837 22.1772 21.2499 21.9392 21.2882C21.7012 21.3264 21.4802 21.4352 21.3049 21.6C19.297 23.4921 16.6372 24.5462 13.8726 24.5455C10.6458 24.5455 7.74191 23.1243 5.73777 20.8685L11.4445 11.7499V15.9545C11.4445 17.9734 12.2309 18.6263 12.8903 18.8165C13.5509 19.008 14.5604 18.8779 15.6191 17.1659L18.7585 12.1021C18.8583 11.9389 18.9507 11.7978 19.0358 11.6763V14.2364C19.0358 16.1239 19.7951 17.6335 21.1188 18.376C22.3132 19.0473 23.8144 18.9859 25.0371 18.2189C26.5187 17.2861 27.3174 15.5692 27.2348 13.5ZM45.8365 8.88791C46.157 9.08305 46.4356 9.51382 46.4356 9.90409C46.4356 10.53 45.9006 11.0479 45.3016 11.0479C45.1525 11.0479 45.0033 11.005 44.8739 10.962C44.1689 10.4441 43.2716 10.098 42.3299 10.098C40.1064 10.098 38.5669 11.9119 38.5669 14.159C38.5669 16.405 40.1064 18.198 42.3299 18.198C43.4417 18.198 44.4253 17.7439 45.1734 17.053C45.3668 16.9146 45.5984 16.8392 45.8365 16.837C46.4356 16.837 46.9052 17.3119 46.9052 17.917C46.9052 18.306 46.671 18.6521 46.3715 18.846C45.3016 19.7542 43.8484 20.358 42.3509 20.358C38.9305 20.358 36.1511 17.55 36.1511 14.094C36.1511 10.638 38.9293 7.83 42.3509 7.83C43.634 7.83 44.853 8.21905 45.8365 8.88791ZM52.0918 11.502C54.4225 11.502 56.3897 13.4681 56.3897 15.887C56.3897 18.306 54.4225 20.358 52.0918 20.358C49.655 20.358 47.6225 18.306 47.6225 15.887C47.6225 13.4681 49.655 11.502 52.0918 11.502ZM52.0708 18.198C53.0975 18.198 53.9739 17.226 53.9739 15.9079C53.9739 14.591 53.0975 13.77 52.0708 13.77C50.9591 13.77 50.0383 14.569 50.0383 15.9079C50.0383 17.226 50.9591 18.198 52.0708 18.198ZM57.8552 19.019V12.841C57.8552 12.1721 58.3901 11.61 59.0533 11.61C59.7164 11.61 60.2723 12.1721 60.2723 12.841V19.019C60.2723 19.6879 59.7164 20.25 59.0533 20.25C58.3901 20.25 57.8552 19.6879 57.8552 19.019ZM57.6642 9.27695C57.6642 8.478 58.2829 7.83 59.0533 7.83C59.8446 7.83 60.4855 8.478 60.4855 9.27818C60.4855 10.055 59.8446 10.681 59.0533 10.681C58.2829 10.681 57.6642 10.055 57.6642 9.27695ZM64.903 15.671V19.019C64.903 19.6879 64.3471 20.25 63.6828 20.25C63.0209 20.25 62.4859 19.6879 62.4859 19.019V12.5599C62.4859 12.042 62.9136 11.61 63.4276 11.61C63.9404 11.61 64.3471 12.042 64.3471 12.5599C65.3307 11.653 66.1848 11.502 66.9971 11.502C69.4129 11.502 70.4828 13.3159 70.4828 15.3679V19.019C70.4828 19.6879 69.9281 20.25 69.265 20.25C68.6019 20.25 68.067 19.6879 68.067 19.019V15.671C68.067 14.6119 67.9388 13.727 66.4203 13.727C65.3516 13.727 64.9018 14.6119 64.9018 15.671H64.903ZM78.3428 16.945C78.2232 16.9448 78.1053 16.9176 77.9978 16.8652C77.8905 16.8129 77.7964 16.7369 77.7228 16.643L74.9003 13.597V19.019C74.9003 19.6879 74.3431 20.25 73.68 20.25C73.0181 20.25 72.4832 19.6879 72.4832 19.019V8.28409C72.5178 8.19369 72.5797 8.11609 72.6602 8.06186C72.7407 8.00762 72.836 7.97938 72.9331 7.98095C73.1463 7.98095 73.3164 8.15523 73.4458 8.28409L77.936 13.3159C78.0642 13.4681 78.2356 13.554 78.3206 13.554C78.4069 13.554 78.577 13.4681 78.7052 13.3171L83.1966 8.28532C83.3248 8.15523 83.4961 7.98095 83.7094 7.98095C83.9226 7.98095 84.0939 8.11105 84.1592 8.28409V19.019C84.1592 19.6879 83.6243 20.25 82.9612 20.25C82.2981 20.25 81.741 19.6879 81.741 19.019V13.597L78.9196 16.643C78.7693 16.8149 78.577 16.945 78.3428 16.945ZM89.9658 18.198C91.0554 18.198 91.9749 17.226 91.9749 15.9079C91.9749 14.591 91.0344 13.727 89.9658 13.727C88.896 13.727 88.0406 14.6119 88.0406 15.9079C88.0406 17.183 88.896 18.198 89.9646 18.198H89.9658ZM92.5308 19.3001L92.4876 19.0178C92.018 19.9469 90.5205 20.358 89.5579 20.358C87.2899 20.358 85.6235 18.306 85.6235 15.887C85.6235 13.4681 87.3343 11.502 89.686 11.502C90.0928 11.502 91.44 11.61 92.4876 12.841L92.5308 12.5599C92.5308 12.042 92.9375 11.61 93.4503 11.61C93.963 11.61 94.3907 12.042 94.3907 12.5599V19.3001C94.3901 19.5497 94.2911 19.7892 94.115 19.9667C93.9388 20.1445 93.6997 20.2462 93.449 20.25C92.9363 20.25 92.5295 19.818 92.5295 19.3001H92.5308ZM101.096 13.727H100.839C99.3209 13.813 99.0214 14.677 99.0214 15.671V19.019C99.0214 19.6879 98.4668 20.25 97.8024 20.25C97.1393 20.25 96.6056 19.6879 96.6056 19.019V12.5599C96.6056 12.042 97.0321 11.61 97.5461 11.61C98.06 11.61 98.4655 12.042 98.4655 12.5599C99.3641 11.718 100.091 11.545 100.839 11.502H101.074C101.653 11.502 102.185 11.999 102.185 12.625C102.185 13.2079 101.673 13.727 101.096 13.727ZM110.409 18.457C110.516 18.63 110.58 18.8251 110.58 19.0399C110.58 19.6658 110.002 20.25 109.382 20.25C108.955 20.25 108.591 19.926 108.314 19.5799L105.534 16.362V19.019C105.534 19.6879 104.977 20.25 104.314 20.25C103.652 20.25 103.117 19.6879 103.117 19.019V9.21314C103.117 8.54305 103.652 7.98095 104.314 7.98095C104.977 7.98095 105.534 8.54305 105.534 9.21314V15.325L108.314 12.258C108.591 11.934 108.934 11.61 109.361 11.61C109.96 11.61 110.516 12.1721 110.516 12.798C110.52 12.9957 110.468 13.1905 110.366 13.3601L108.163 15.757L110.409 18.457ZM115.147 13.77C114.484 13.77 113.414 14.1161 113.414 15.131H116.9C116.9 14.094 115.789 13.77 115.147 13.77ZM118.311 16.6639H113.414C113.414 18.1121 114.804 18.3281 115.423 18.3281C115.874 18.3281 116.515 18.2422 117.007 18.025C117.191 17.9036 117.406 17.8363 117.627 17.831C118.161 17.831 118.609 18.2851 118.609 18.8251C118.609 19.1921 118.375 19.5161 118.076 19.6879C117.327 20.2279 116.365 20.358 115.445 20.358C113.007 20.358 110.976 19.0411 110.976 15.995C110.976 13.597 112.216 11.502 115.104 11.502C117.433 11.502 119.208 13.014 119.251 15.714C119.251 15.9634 119.152 16.2027 118.976 16.3803C118.8 16.5579 118.561 16.6597 118.311 16.6639ZM125.037 20.358H124.374C122.534 20.358 121.465 19.559 121.465 16.686V13.727H120.845C120.268 13.727 119.756 13.2079 119.756 12.625C119.756 11.999 120.268 11.502 120.845 11.502H121.465V9.21191C121.465 8.54305 122 7.98095 122.663 7.98095C123.326 7.98095 123.882 8.54305 123.882 9.21191V11.502H124.887C125.465 11.502 125.977 11.999 125.977 12.625C125.977 13.2079 125.465 13.727 124.887 13.727H123.882V16.211C123.882 17.8519 123.967 18.198 124.694 18.198H125.037C125.614 18.198 126.106 18.673 126.106 19.278C126.106 19.861 125.614 20.358 125.037 20.358ZM136.745 8.88791C137.066 9.08305 137.344 9.51382 137.344 9.90409C137.344 10.53 136.809 11.0479 136.21 11.0479C136.061 11.0479 135.911 11.005 135.782 10.962C135.076 10.4441 134.179 10.098 133.238 10.098C131.015 10.098 129.474 11.9119 129.474 14.159C129.474 16.405 131.014 18.198 133.238 18.198C134.349 18.198 135.334 17.7439 136.082 17.053C136.276 16.9146 136.507 16.8393 136.745 16.837C137.344 16.837 137.814 17.3119 137.814 17.917C137.814 18.306 137.578 18.6521 137.28 18.846C136.21 19.7542 134.756 20.358 133.259 20.358C129.838 20.358 127.058 17.55 127.058 14.094C127.058 10.638 129.838 7.83 133.259 7.83C134.543 7.83 135.762 8.21905 136.745 8.88791ZM142.872 18.198C143.963 18.198 144.881 17.226 144.881 15.9079C144.881 14.591 143.941 13.727 142.872 13.727C141.802 13.727 140.947 14.6119 140.947 15.9079C140.947 17.183 141.802 18.198 142.872 18.198ZM145.437 19.3001L145.395 19.0178C144.924 19.9469 143.428 20.358 142.465 20.358C140.199 20.358 138.531 18.306 138.531 15.887C138.531 13.4681 140.242 11.502 142.594 11.502C143 11.502 144.348 11.61 145.395 12.841L145.437 12.5599C145.437 12.042 145.844 11.61 146.358 11.61C146.871 11.61 147.298 12.042 147.298 12.5599V19.3001C147.298 19.5495 147.198 19.7888 147.023 19.9664C146.847 20.144 146.608 20.2458 146.358 20.25C145.844 20.25 145.437 19.818 145.437 19.3001ZM153.938 18.198C155.008 18.198 155.862 17.183 155.862 15.9079C155.862 14.6119 155.008 13.727 153.938 13.727C152.869 13.727 151.928 14.591 151.928 15.9079C151.928 17.226 152.848 18.198 153.938 18.198ZM151.928 19.6462V22.7119C151.928 23.382 151.372 23.9441 150.709 23.9441C150.047 23.9441 149.512 23.382 149.512 22.7119V12.5599C149.512 12.042 149.94 11.61 150.454 11.61C150.966 11.61 151.373 12.042 151.373 12.647C152.27 11.718 153.382 11.502 154.217 11.502C156.568 11.502 158.279 13.4681 158.279 15.887C158.279 18.306 156.611 20.358 154.345 20.358C153.64 20.358 152.591 20.142 151.928 19.6462Z" fill="#2B6AFF"/>
</g>
</g>
</g>
<defs>
<clipPath id="clip0_182_253">
<rect width="159" height="27" fill="white"/>
</clipPath>
</defs>
</svg>
