<svg width="340" height="112" viewBox="0 0 340 112" fill="none" xmlns="http://www.w3.org/2000/svg">
<path d="M103.52 70V39.508H124.112V45.272H110.384V51.256H122.572V56.888H110.384V64.236H125.124V70H103.52ZM138.52 64.764C139.488 64.764 140.28 64.6907 140.896 64.544C141.541 64.368 142.054 64.148 142.436 63.884C142.817 63.5907 143.081 63.2533 143.228 62.872C143.374 62.4907 143.448 62.0653 143.448 61.596C143.448 60.5987 142.978 59.7773 142.04 59.132C141.101 58.4573 139.488 57.7387 137.2 56.976C136.202 56.624 135.205 56.228 134.208 55.788C133.21 55.3187 132.316 54.7467 131.524 54.072C130.732 53.368 130.086 52.532 129.588 51.564C129.089 50.5667 128.84 49.364 128.84 47.956C128.84 46.548 129.104 45.2867 129.632 44.172C130.16 43.028 130.908 42.06 131.876 41.268C132.844 40.476 134.017 39.8747 135.396 39.464C136.774 39.024 138.329 38.804 140.06 38.804C142.113 38.804 143.888 39.024 145.384 39.464C146.88 39.904 148.112 40.388 149.08 40.916L147.1 46.328C146.249 45.888 145.296 45.5067 144.24 45.184C143.213 44.832 141.966 44.656 140.5 44.656C138.857 44.656 137.669 44.8907 136.936 45.36C136.232 45.8 135.88 46.4893 135.88 47.428C135.88 47.9853 136.012 48.4547 136.276 48.836C136.54 49.2173 136.906 49.5693 137.376 49.892C137.874 50.1853 138.432 50.464 139.048 50.728C139.693 50.9627 140.397 51.212 141.16 51.476C142.744 52.0627 144.122 52.6493 145.296 53.236C146.469 53.7933 147.437 54.4533 148.2 55.216C148.992 55.9787 149.578 56.8733 149.96 57.9C150.341 58.9267 150.532 60.1733 150.532 61.64C150.532 64.4853 149.534 66.7 147.54 68.284C145.545 69.8387 142.538 70.616 138.52 70.616C137.17 70.616 135.953 70.528 134.868 70.352C133.782 70.2053 132.814 70.0147 131.964 69.78C131.142 69.5453 130.424 69.296 129.808 69.032C129.221 68.768 128.722 68.5187 128.312 68.284L130.248 62.828C131.157 63.3267 132.272 63.7813 133.592 64.192C134.941 64.5733 136.584 64.764 138.52 64.764ZM169.717 70.616C164.76 70.616 160.976 69.2373 158.365 66.48C155.784 63.7227 154.493 59.8067 154.493 54.732C154.493 52.2093 154.889 49.9653 155.681 48C156.473 46.0053 157.558 44.3333 158.937 42.984C160.316 41.6053 161.958 40.564 163.865 39.86C165.772 39.156 167.84 38.804 170.069 38.804C171.36 38.804 172.533 38.9067 173.589 39.112C174.645 39.288 175.569 39.508 176.361 39.772C177.153 40.0067 177.813 40.256 178.341 40.52C178.869 40.784 179.25 40.9893 179.485 41.136L177.505 46.68C176.566 46.1813 175.466 45.756 174.205 45.404C172.973 45.052 171.565 44.876 169.981 44.876C168.925 44.876 167.884 45.052 166.857 45.404C165.86 45.756 164.965 46.328 164.173 47.12C163.41 47.8827 162.794 48.88 162.325 50.112C161.856 51.344 161.621 52.84 161.621 54.6C161.621 56.008 161.768 57.328 162.061 58.56C162.384 59.7627 162.882 60.804 163.557 61.684C164.261 62.564 165.17 63.268 166.285 63.796C167.4 64.2947 168.749 64.544 170.333 64.544C171.33 64.544 172.225 64.4853 173.017 64.368C173.809 64.2507 174.513 64.1187 175.129 63.972C175.745 63.796 176.288 63.6053 176.757 63.4C177.226 63.1947 177.652 63.004 178.033 62.828L179.925 68.328C178.957 68.9147 177.593 69.4427 175.833 69.912C174.073 70.3813 172.034 70.616 169.717 70.616ZM208.819 70.616C203.861 70.616 200.077 69.2373 197.467 66.48C194.885 63.7227 193.595 59.8067 193.595 54.732C193.595 52.2093 193.991 49.9653 194.783 48C195.575 46.0053 196.66 44.3333 198.039 42.984C199.417 41.6053 201.06 40.564 202.967 39.86C204.873 39.156 206.941 38.804 209.171 38.804C210.461 38.804 211.635 38.9067 212.691 39.112C213.747 39.288 214.671 39.508 215.463 39.772C216.255 40.0067 216.915 40.256 217.443 40.52C217.971 40.784 218.352 40.9893 218.587 41.136L216.607 46.68C215.668 46.1813 214.568 45.756 213.307 45.404C212.075 45.052 210.667 44.876 209.083 44.876C208.027 44.876 206.985 45.052 205.959 45.404C204.961 45.756 204.067 46.328 203.275 47.12C202.512 47.8827 201.896 48.88 201.427 50.112C200.957 51.344 200.723 52.84 200.723 54.6C200.723 56.008 200.869 57.328 201.163 58.56C201.485 59.7627 201.984 60.804 202.659 61.684C203.363 62.564 204.272 63.268 205.387 63.796C206.501 64.2947 207.851 64.544 209.435 64.544C210.432 64.544 211.327 64.4853 212.119 64.368C212.911 64.2507 213.615 64.1187 214.231 63.972C214.847 63.796 215.389 63.6053 215.859 63.4C216.328 63.1947 216.753 63.004 217.135 62.828L219.027 68.328C218.059 68.9147 216.695 69.4427 214.935 69.912C213.175 70.3813 211.136 70.616 208.819 70.616ZM241.838 39.508H248.702V70H241.838V57.064H230.31V70H223.446V39.508H230.31V51.168H241.838V39.508ZM276.174 70C275.852 68.944 275.485 67.8587 275.074 66.744C274.693 65.6293 274.312 64.5147 273.93 63.4H262.05C261.669 64.5147 261.273 65.6293 260.862 66.744C260.481 67.8587 260.129 68.944 259.806 70H252.678C253.822 66.7147 254.908 63.6787 255.934 60.892C256.961 58.1053 257.958 55.48 258.926 53.016C259.924 50.552 260.892 48.22 261.83 46.02C262.798 43.7907 263.796 41.62 264.822 39.508H271.378C272.376 41.62 273.358 43.7907 274.326 46.02C275.294 48.22 276.262 50.552 277.23 53.016C278.228 55.48 279.24 58.1053 280.266 60.892C281.293 63.6787 282.378 66.7147 283.522 70H276.174ZM267.946 46.416C267.8 46.856 267.58 47.4573 267.286 48.22C266.993 48.9827 266.656 49.8627 266.274 50.86C265.893 51.8573 265.468 52.9573 264.998 54.16C264.558 55.3627 264.104 56.624 263.634 57.944H272.302C271.833 56.624 271.378 55.3627 270.938 54.16C270.498 52.9573 270.073 51.8573 269.662 50.86C269.281 49.8627 268.944 48.9827 268.65 48.22C268.357 47.4573 268.122 46.856 267.946 46.416ZM287.469 39.508H294.333V70H287.469V39.508ZM321.851 70C319.886 66.5093 317.759 63.0627 315.471 59.66C313.183 56.2573 310.748 53.0453 308.167 50.024V70H301.391V39.508H306.979C307.947 40.476 309.018 41.664 310.191 43.072C311.364 44.48 312.552 45.9907 313.755 47.604C314.987 49.188 316.204 50.8453 317.407 52.576C318.61 54.2773 319.739 55.92 320.795 57.504V39.508H327.615V70H321.851Z" fill="white"/>
<g clip-path="url(#clip0_224_4)">
<mask id="mask0_224_4" style="mask-type:luminance" maskUnits="userSpaceOnUse" x="12" y="16" width="74" height="79">
<path d="M85.2857 16H12V95H85.2857V16Z" fill="white"/>
</mask>
<g mask="url(#mask0_224_4)">
<mask id="mask1_224_4" style="mask-type:luminance" maskUnits="userSpaceOnUse" x="-2" y="9" width="336" height="91">
<path d="M333.657 9.36328H-1.41992V99.4961H333.657V9.36328Z" fill="white"/>
</mask>
<g mask="url(#mask1_224_4)">
<path d="M48.1063 91.3615C67.8121 91.3615 83.7867 75.3063 83.7867 55.5011C83.7867 35.6959 67.8121 19.6406 48.1063 19.6406C28.4005 19.6406 12.4258 35.6959 12.4258 55.5011C12.4258 75.3063 28.4005 91.3615 48.1063 91.3615Z" fill="url(#paint0_linear_224_4)"/>
<g filter="url(#filter0_d_224_4)">
<path d="M57.4304 31.9954L35.8492 41.5242C34.0907 42.3005 33.2915 44.3624 34.0643 46.1293C34.8369 47.8964 36.8889 48.6995 38.6476 47.923L60.2286 38.3942C61.9871 37.6179 62.7863 35.556 62.0135 33.7888C61.2409 32.0219 59.1889 31.2189 57.4304 31.9954Z" fill="white"/>
</g>
<g filter="url(#filter1_d_224_4)">
<path d="M55.2573 47.6751L46.3941 51.5883C44.6356 52.3648 43.8364 54.4267 44.6092 56.1936C45.3818 57.9607 47.4338 58.7636 49.1925 57.9873L58.0555 54.0739C59.814 53.2974 60.6132 51.2356 59.8404 49.4685C59.0678 47.7016 57.0158 46.8986 55.2573 47.6751Z" fill="white"/>
</g>
<g filter="url(#filter2_d_224_4)">
<path d="M40.446 58.0096C39.6734 56.2427 37.6214 55.4397 35.863 56.216C34.1043 56.9925 33.3053 59.0544 34.0779 60.8213C34.8507 62.5884 36.9027 63.3913 38.6612 62.615C40.4196 61.8385 41.2189 59.7765 40.446 58.0096Z" fill="white"/>
</g>
<g filter="url(#filter3_d_224_4)">
<path d="M57.4558 62.5774L35.8746 72.106C34.1161 72.8825 33.3169 74.9445 34.0897 76.7114C34.8623 78.4785 36.9143 79.2813 38.673 78.505L60.254 68.9762C62.0125 68.1997 62.8117 66.138 62.0389 64.3709C61.2663 62.604 59.2143 61.8009 57.4558 62.5774Z" fill="white"/>
</g>
</g>
</g>
</g>
<defs>
<filter id="filter0_d_224_4" x="29.7695" y="31.6992" width="36.5391" height="24.5195" filterUnits="userSpaceOnUse" color-interpolation-filters="sRGB">
<feFlood flood-opacity="0" result="BackgroundImageFix"/>
<feColorMatrix in="SourceAlpha" type="matrix" values="0 0 0 0 0 0 0 0 0 0 0 0 0 0 0 0 0 0 127 0" result="hardAlpha"/>
<feOffset dy="4"/>
<feGaussianBlur stdDeviation="2"/>
<feComposite in2="hardAlpha" operator="out"/>
<feColorMatrix type="matrix" values="0 0 0 0 0 0 0 0 0 0 0 0 0 0 0 0 0 0 0.25 0"/>
<feBlend mode="normal" in2="BackgroundImageFix" result="effect1_dropShadow_224_4"/>
<feBlend mode="normal" in="SourceGraphic" in2="effect1_dropShadow_224_4" result="shape"/>
</filter>
<filter id="filter1_d_224_4" x="40.3145" y="47.3789" width="23.8203" height="18.9043" filterUnits="userSpaceOnUse" color-interpolation-filters="sRGB">
<feFlood flood-opacity="0" result="BackgroundImageFix"/>
<feColorMatrix in="SourceAlpha" type="matrix" values="0 0 0 0 0 0 0 0 0 0 0 0 0 0 0 0 0 0 127 0" result="hardAlpha"/>
<feOffset dy="4"/>
<feGaussianBlur stdDeviation="2"/>
<feComposite in2="hardAlpha" operator="out"/>
<feColorMatrix type="matrix" values="0 0 0 0 0 0 0 0 0 0 0 0 0 0 0 0 0 0 0.25 0"/>
<feBlend mode="normal" in2="BackgroundImageFix" result="effect1_dropShadow_224_4"/>
<feBlend mode="normal" in="SourceGraphic" in2="effect1_dropShadow_224_4" result="shape"/>
</filter>
<filter id="filter2_d_224_4" x="29.7832" y="55.9199" width="14.957" height="14.9902" filterUnits="userSpaceOnUse" color-interpolation-filters="sRGB">
<feFlood flood-opacity="0" result="BackgroundImageFix"/>
<feColorMatrix in="SourceAlpha" type="matrix" values="0 0 0 0 0 0 0 0 0 0 0 0 0 0 0 0 0 0 127 0" result="hardAlpha"/>
<feOffset dy="4"/>
<feGaussianBlur stdDeviation="2"/>
<feComposite in2="hardAlpha" operator="out"/>
<feColorMatrix type="matrix" values="0 0 0 0 0 0 0 0 0 0 0 0 0 0 0 0 0 0 0.25 0"/>
<feBlend mode="normal" in2="BackgroundImageFix" result="effect1_dropShadow_224_4"/>
<feBlend mode="normal" in="SourceGraphic" in2="effect1_dropShadow_224_4" result="shape"/>
</filter>
<filter id="filter3_d_224_4" x="29.7949" y="62.2812" width="36.5391" height="24.5195" filterUnits="userSpaceOnUse" color-interpolation-filters="sRGB">
<feFlood flood-opacity="0" result="BackgroundImageFix"/>
<feColorMatrix in="SourceAlpha" type="matrix" values="0 0 0 0 0 0 0 0 0 0 0 0 0 0 0 0 0 0 127 0" result="hardAlpha"/>
<feOffset dy="4"/>
<feGaussianBlur stdDeviation="2"/>
<feComposite in2="hardAlpha" operator="out"/>
<feColorMatrix type="matrix" values="0 0 0 0 0 0 0 0 0 0 0 0 0 0 0 0 0 0 0.25 0"/>
<feBlend mode="normal" in2="BackgroundImageFix" result="effect1_dropShadow_224_4"/>
<feBlend mode="normal" in="SourceGraphic" in2="effect1_dropShadow_224_4" result="shape"/>
</filter>
<linearGradient id="paint0_linear_224_4" x1="19.4554" y1="74.4482" x2="76.9234" y2="37.9935" gradientUnits="userSpaceOnUse">
<stop stop-color="#2E5AD0"/>
<stop offset="1" stop-color="#4076F4"/>
</linearGradient>
<clipPath id="clip0_224_4">
<rect width="72" height="79" fill="white" transform="translate(12 16)"/>
</clipPath>
</defs>
</svg>
