<svg width="293" height="61" viewBox="0 0 293 61" fill="none" xmlns="http://www.w3.org/2000/svg">
<path d="M71.6523 46.0007V15.5087H91.2323V20.2167H77.1963V27.7407H89.6923V32.3607H77.1963V41.2927H92.2883V46.0007H71.6523ZM104.825 41.8647C106.82 41.8647 108.272 41.5274 109.181 40.8527C110.091 40.178 110.545 39.2247 110.545 37.9927C110.545 37.2594 110.384 36.6287 110.061 36.1007C109.768 35.5727 109.328 35.1034 108.741 34.6927C108.184 34.2527 107.495 33.8567 106.673 33.5047C105.852 33.1234 104.913 32.7567 103.857 32.4047C102.801 32.0234 101.775 31.6127 100.777 31.1727C99.8093 30.7034 98.9443 30.1314 98.1813 29.4567C97.4483 28.782 96.8473 27.9754 96.3773 27.0367C95.9373 26.098 95.7173 24.9687 95.7173 23.6487C95.7173 20.8914 96.6713 18.7354 98.5773 17.1807C100.484 15.5967 103.08 14.8047 106.365 14.8047C108.272 14.8047 109.959 15.0247 111.425 15.4647C112.921 15.8754 114.095 16.33 114.945 16.8287L113.229 21.3167C112.232 20.7594 111.132 20.334 109.929 20.0407C108.756 19.7474 107.539 19.6007 106.277 19.6007C104.781 19.6007 103.608 19.9087 102.757 20.5247C101.936 21.1407 101.525 22.006 101.525 23.1207C101.525 23.7954 101.657 24.382 101.921 24.8807C102.215 25.35 102.611 25.7754 103.109 26.1567C103.637 26.538 104.239 26.89 104.913 27.2127C105.617 27.5354 106.38 27.8434 107.201 28.1367C108.639 28.6647 109.915 29.2074 111.029 29.7647C112.173 30.2927 113.127 30.938 113.889 31.7007C114.681 32.434 115.283 33.314 115.693 34.3407C116.104 35.338 116.309 36.5554 116.309 37.9927C116.309 40.75 115.327 42.8914 113.361 44.4167C111.425 45.9127 108.58 46.6607 104.825 46.6607C103.564 46.6607 102.405 46.5727 101.349 46.3967C100.323 46.25 99.3993 46.0594 98.5773 45.8247C97.7853 45.59 97.0963 45.3554 96.5093 45.1207C95.9233 44.8567 95.4533 44.622 95.1013 44.4167L96.7293 39.8847C97.5213 40.3247 98.5923 40.7647 99.9413 41.2047C101.291 41.6447 102.919 41.8647 104.825 41.8647ZM134.747 46.6607C132.459 46.6607 130.406 46.3087 128.587 45.6047C126.768 44.9007 125.228 43.874 123.967 42.5247C122.706 41.146 121.738 39.474 121.063 37.5087C120.388 35.5434 120.051 33.2847 120.051 30.7327C120.051 28.1807 120.432 25.922 121.195 23.9567C121.987 21.9914 123.058 20.334 124.407 18.9847C125.756 17.606 127.34 16.5647 129.159 15.8607C130.978 15.1567 132.928 14.8047 135.011 14.8047C136.272 14.8047 137.416 14.9074 138.443 15.1127C139.47 15.2887 140.364 15.494 141.127 15.7287C141.89 15.9634 142.52 16.2127 143.019 16.4767C143.518 16.7407 143.87 16.9314 144.075 17.0487L142.447 21.5807C141.743 21.1407 140.731 20.73 139.411 20.3487C138.12 19.938 136.712 19.7327 135.187 19.7327C133.867 19.7327 132.635 19.9674 131.491 20.4367C130.347 20.8767 129.35 21.5514 128.499 22.4607C127.678 23.37 127.032 24.514 126.563 25.8927C126.094 27.2714 125.859 28.87 125.859 30.6887C125.859 32.302 126.035 33.7834 126.387 35.1327C126.768 36.482 127.34 37.6554 128.103 38.6527C128.866 39.6207 129.834 40.3834 131.007 40.9407C132.18 41.4687 133.588 41.7327 135.231 41.7327C137.196 41.7327 138.795 41.542 140.027 41.1607C141.259 40.75 142.212 40.3687 142.887 40.0167L144.383 44.5487C144.031 44.7834 143.547 45.018 142.931 45.2527C142.344 45.4874 141.64 45.722 140.819 45.9567C139.998 46.162 139.074 46.3234 138.047 46.4407C137.02 46.5874 135.92 46.6607 134.747 46.6607ZM173.075 46.6607C170.787 46.6607 168.734 46.3087 166.915 45.6047C165.096 44.9007 163.556 43.874 162.295 42.5247C161.034 41.146 160.066 39.474 159.391 37.5087C158.716 35.5434 158.379 33.2847 158.379 30.7327C158.379 28.1807 158.76 25.922 159.523 23.9567C160.315 21.9914 161.386 20.334 162.735 18.9847C164.084 17.606 165.668 16.5647 167.487 15.8607C169.306 15.1567 171.256 14.8047 173.339 14.8047C174.6 14.8047 175.744 14.9074 176.771 15.1127C177.798 15.2887 178.692 15.494 179.455 15.7287C180.218 15.9634 180.848 16.2127 181.347 16.4767C181.846 16.7407 182.198 16.9314 182.403 17.0487L180.775 21.5807C180.071 21.1407 179.059 20.73 177.739 20.3487C176.448 19.938 175.04 19.7327 173.515 19.7327C172.195 19.7327 170.963 19.9674 169.819 20.4367C168.675 20.8767 167.678 21.5514 166.827 22.4607C166.006 23.37 165.36 24.514 164.891 25.8927C164.422 27.2714 164.187 28.87 164.187 30.6887C164.187 32.302 164.363 33.7834 164.715 35.1327C165.096 36.482 165.668 37.6554 166.431 38.6527C167.194 39.6207 168.162 40.3834 169.335 40.9407C170.508 41.4687 171.916 41.7327 173.559 41.7327C175.524 41.7327 177.123 41.542 178.355 41.1607C179.587 40.75 180.54 40.3687 181.215 40.0167L182.711 44.5487C182.359 44.7834 181.875 45.018 181.259 45.2527C180.672 45.4874 179.968 45.722 179.147 45.9567C178.326 46.162 177.402 46.3234 176.375 46.4407C175.348 46.5874 174.248 46.6607 173.075 46.6607ZM206.37 15.5087H211.914V46.0007H206.37V32.4927H193.126V46.0007H187.582V15.5087H193.126V27.6967H206.37V15.5087ZM239.447 46.0007C239.036 44.798 238.611 43.61 238.171 42.4367C237.731 41.2634 237.305 40.0607 236.895 38.8287H224.047C223.636 40.0607 223.211 41.278 222.771 42.4807C222.36 43.654 221.949 44.8274 221.539 46.0007H215.775C216.919 42.7447 218.004 39.738 219.031 36.9807C220.057 34.2234 221.055 31.6127 222.023 29.1487C223.02 26.6847 224.003 24.338 224.971 22.1087C225.939 19.8794 226.936 17.6794 227.963 15.5087H233.199C234.225 17.6794 235.223 19.8794 236.191 22.1087C237.159 24.338 238.127 26.6847 239.095 29.1487C240.092 31.6127 241.104 34.2234 242.131 36.9807C243.187 39.738 244.287 42.7447 245.431 46.0007H239.447ZM230.471 21.4047C229.796 22.9594 229.019 24.8514 228.139 27.0807C227.288 29.31 226.393 31.73 225.455 34.3407H235.487C234.548 31.73 233.639 29.2954 232.759 27.0367C231.879 24.778 231.116 22.9007 230.471 21.4047ZM249.285 15.5087H254.829V46.0007H249.285V15.5087ZM282.68 46.0007C281.683 44.3287 280.568 42.5394 279.336 40.6327C278.104 38.6967 276.828 36.7607 275.508 34.8247C274.188 32.8594 272.839 30.9674 271.46 29.1487C270.111 27.3007 268.82 25.6434 267.588 24.1767V46.0007H262.132V15.5087H266.664C267.838 16.7407 269.099 18.2074 270.448 19.9087C271.798 21.5807 273.147 23.326 274.496 25.1447C275.875 26.9634 277.195 28.7967 278.456 30.6447C279.747 32.4634 280.891 34.1647 281.888 35.7487V15.5087H287.388V46.0007H282.68Z" fill="white"/>
<mask id="mask0_187_337" style="mask-type:luminance" maskUnits="userSpaceOnUse" x="3" y="0" width="56" height="61">
<path d="M59 0H3V61H59V0Z" fill="white"/>
</mask>
<g mask="url(#mask0_187_337)">
<mask id="mask1_187_337" style="mask-type:luminance" maskUnits="userSpaceOnUse" x="3" y="0" width="57" height="61">
<path d="M60 0H3V61H60V0Z" fill="white"/>
</mask>
<g mask="url(#mask1_187_337)">
<mask id="mask2_187_337" style="mask-type:luminance" maskUnits="userSpaceOnUse" x="-8" y="-6" width="262" height="71">
<path d="M253.178 -5.125H-7.4375V64.4712H253.178V-5.125Z" fill="white"/>
</mask>
<g mask="url(#mask2_187_337)">
<path d="M31.0835 58.1899C46.4103 58.1899 58.835 45.7929 58.835 30.5002C58.835 15.2076 46.4103 2.81055 31.0835 2.81055C15.7568 2.81055 3.33203 15.2076 3.33203 30.5002C3.33203 45.7929 15.7568 58.1899 31.0835 58.1899Z" fill="url(#paint0_linear_187_337)"/>
<g filter="url(#filter0_d_187_337)">
<path d="M38.3365 12.3498L21.5511 19.7075C20.1834 20.3069 19.5618 21.899 20.1629 23.2633C20.7638 24.6278 22.3598 25.2479 23.7276 24.6483L40.5129 17.2906C41.8806 16.6912 42.5022 15.0991 41.9011 13.7346C41.3002 12.3703 39.7042 11.7502 38.3365 12.3498Z" fill="white"/>
</g>
<g filter="url(#filter1_d_187_337)">
<path d="M36.6439 24.4572L29.7503 27.4788C28.3826 28.0784 27.761 29.6705 28.3621 31.0348C28.963 32.3993 30.559 33.0192 31.9269 32.4198L38.8203 29.398C40.188 28.7985 40.8097 27.2065 40.2086 25.842C39.6076 24.4777 38.0116 23.8576 36.6439 24.4572Z" fill="white"/>
</g>
<g filter="url(#filter2_d_187_337)">
<path d="M25.1256 32.4378C24.5246 31.0735 22.9286 30.4534 21.561 31.0528C20.1931 31.6524 19.5716 33.2445 20.1725 34.6088C20.7736 35.9733 22.3696 36.5932 23.7373 35.9938C25.105 35.3942 25.7267 33.8021 25.1256 32.4378Z" fill="white"/>
</g>
<g filter="url(#filter3_d_187_337)">
<path d="M38.356 35.9631L21.5706 43.3206C20.2029 43.9202 19.5813 45.5123 20.1824 46.8766C20.7833 48.2411 22.3793 48.861 23.7472 48.2616L40.5324 40.9039C41.9001 40.3043 42.5217 38.7124 41.9207 37.3479C41.3197 35.9836 39.7237 35.3635 38.356 35.9631Z" fill="white"/>
</g>
</g>
</g>
</g>
<defs>
<filter id="filter0_d_187_337" x="15.9336" y="12.1211" width="30.1963" height="20.7559" filterUnits="userSpaceOnUse" color-interpolation-filters="sRGB">
<feFlood flood-opacity="0" result="BackgroundImageFix"/>
<feColorMatrix in="SourceAlpha" type="matrix" values="0 0 0 0 0 0 0 0 0 0 0 0 0 0 0 0 0 0 127 0" result="hardAlpha"/>
<feOffset dy="4"/>
<feGaussianBlur stdDeviation="2"/>
<feComposite in2="hardAlpha" operator="out"/>
<feColorMatrix type="matrix" values="0 0 0 0 0 0 0 0 0 0 0 0 0 0 0 0 0 0 0.25 0"/>
<feBlend mode="normal" in2="BackgroundImageFix" result="effect1_dropShadow_187_337"/>
<feBlend mode="normal" in="SourceGraphic" in2="effect1_dropShadow_187_337" result="shape"/>
</filter>
<filter id="filter1_d_187_337" x="24.1328" y="24.2285" width="20.3047" height="16.4199" filterUnits="userSpaceOnUse" color-interpolation-filters="sRGB">
<feFlood flood-opacity="0" result="BackgroundImageFix"/>
<feColorMatrix in="SourceAlpha" type="matrix" values="0 0 0 0 0 0 0 0 0 0 0 0 0 0 0 0 0 0 127 0" result="hardAlpha"/>
<feOffset dy="4"/>
<feGaussianBlur stdDeviation="2"/>
<feComposite in2="hardAlpha" operator="out"/>
<feColorMatrix type="matrix" values="0 0 0 0 0 0 0 0 0 0 0 0 0 0 0 0 0 0 0.25 0"/>
<feBlend mode="normal" in2="BackgroundImageFix" result="effect1_dropShadow_187_337"/>
<feBlend mode="normal" in="SourceGraphic" in2="effect1_dropShadow_187_337" result="shape"/>
</filter>
<filter id="filter2_d_187_337" x="15.9434" y="30.8242" width="13.4111" height="13.3984" filterUnits="userSpaceOnUse" color-interpolation-filters="sRGB">
<feFlood flood-opacity="0" result="BackgroundImageFix"/>
<feColorMatrix in="SourceAlpha" type="matrix" values="0 0 0 0 0 0 0 0 0 0 0 0 0 0 0 0 0 0 127 0" result="hardAlpha"/>
<feOffset dy="4"/>
<feGaussianBlur stdDeviation="2"/>
<feComposite in2="hardAlpha" operator="out"/>
<feColorMatrix type="matrix" values="0 0 0 0 0 0 0 0 0 0 0 0 0 0 0 0 0 0 0.25 0"/>
<feBlend mode="normal" in2="BackgroundImageFix" result="effect1_dropShadow_187_337"/>
<feBlend mode="normal" in="SourceGraphic" in2="effect1_dropShadow_187_337" result="shape"/>
</filter>
<filter id="filter3_d_187_337" x="15.9531" y="35.7344" width="30.1973" height="20.7559" filterUnits="userSpaceOnUse" color-interpolation-filters="sRGB">
<feFlood flood-opacity="0" result="BackgroundImageFix"/>
<feColorMatrix in="SourceAlpha" type="matrix" values="0 0 0 0 0 0 0 0 0 0 0 0 0 0 0 0 0 0 127 0" result="hardAlpha"/>
<feOffset dy="4"/>
<feGaussianBlur stdDeviation="2"/>
<feComposite in2="hardAlpha" operator="out"/>
<feColorMatrix type="matrix" values="0 0 0 0 0 0 0 0 0 0 0 0 0 0 0 0 0 0 0.25 0"/>
<feBlend mode="normal" in2="BackgroundImageFix" result="effect1_dropShadow_187_337"/>
<feBlend mode="normal" in="SourceGraphic" in2="effect1_dropShadow_187_337" result="shape"/>
</filter>
<linearGradient id="paint0_linear_187_337" x1="8.79953" y1="45.1303" x2="53.3101" y2="16.6895" gradientUnits="userSpaceOnUse">
<stop stop-color="#2E5AD0"/>
<stop offset="1" stop-color="#4076F4"/>
</linearGradient>
</defs>
</svg>
