<svg width="1320" height="784" viewBox="0 0 1320 784" fill="none" xmlns="http://www.w3.org/2000/svg">
<g clip-path="url(#clip0_139_59)">
<mask id="mask0_139_59" style="mask-type:luminance" maskUnits="userSpaceOnUse" x="-134" y="0" width="1620" height="784">
<path d="M1486 0H-134V784H1486V0Z" fill="white"/>
</mask>
<g mask="url(#mask0_139_59)">
<mask id="mask1_139_59" style="mask-type:luminance" maskUnits="userSpaceOnUse" x="-134" y="0" width="1620" height="897">
<path d="M1486 0H-134V897H1486V0Z" fill="white"/>
</mask>
<g mask="url(#mask1_139_59)">
<mask id="mask2_139_59" style="mask-type:luminance" maskUnits="userSpaceOnUse" x="-134" y="0" width="1620" height="897">
<path d="M1486 0H-134V897H1486V0Z" fill="white"/>
</mask>
<g mask="url(#mask2_139_59)">
<mask id="mask3_139_59" style="mask-type:luminance" maskUnits="userSpaceOnUse" x="-134" y="0" width="1620" height="897">
<path d="M1486 0H-134V897H1486V0Z" fill="white"/>
</mask>
<g mask="url(#mask3_139_59)">
<path d="M1486 0H-134V897H1486V0Z" fill="#181818"/>
<path d="M1486 0H-134V897H1486V0Z" fill="url(#paint0_linear_139_59)"/>
<g filter="url(#filter0_f_139_59)">
<g filter="url(#filter1_f_139_59)">
<path d="M1249.49 220.92C1149.99 169.515 992.321 220.273 741.007 253.528C489.688 286.782 239.878 289.938 339.392 341.343C438.906 392.749 723.311 407.463 974.617 374.209C1225.94 340.954 1349.01 272.325 1249.49 220.92Z" fill="url(#paint1_linear_139_59)"/>
</g>
<path d="M573.002 427C988.319 427 1325 361.857 1325 281.5C1325 201.143 988.319 136 573.002 136C157.682 136 -179 201.143 -179 281.5C-179 361.857 157.682 427 573.002 427Z" fill="#2E77F5"/>
<path d="M510.002 332C925.319 332 1262 307.599 1262 277.5C1262 247.401 925.319 223 510.002 223C94.6823 223 -242 247.401 -242 277.5C-242 307.599 94.6823 332 510.002 332Z" fill="#2E77F5"/>
<path d="M1150.7 444.201C1280.37 446.672 1386.84 388.447 1388.5 314.152C1390.16 239.857 1286.38 177.626 1156.71 175.155C1027.03 172.683 920.57 230.908 918.912 305.204C917.255 379.499 1021.03 441.73 1150.7 444.201Z" fill="#36BEFF"/>
<path d="M182.563 420.494C446.313 420.494 660.125 371.806 660.125 311.747C660.125 251.688 446.313 203 182.563 203C-81.188 203 -295 251.688 -295 311.747C-295 371.806 -81.188 420.494 182.563 420.494Z" fill="#0B51CC"/>
</g>
</g>
</g>
<g style="mix-blend-mode:lighten" opacity="0.8" filter="url(#filter2_f_139_59)">
<mask id="mask4_139_59" style="mask-type:luminance" maskUnits="userSpaceOnUse" x="-154" y="564" width="681" height="320">
<g style="mix-blend-mode:lighten" opacity="0.8">
<g style="mix-blend-mode:lighten" opacity="0.8">
<path d="M452.514 564.446L-134.676 619.644C-146.729 620.777 -155.127 628.232 -153.433 636.293L-104.156 870.82C-102.462 878.881 -91.3176 884.499 -79.2644 883.365L507.926 828.166C519.979 827.034 528.376 819.58 526.683 811.517L477.406 576.992C475.712 568.929 464.568 563.312 452.514 564.446Z" fill="white"/>
</g>
</g>
</mask>
<g mask="url(#mask4_139_59)">
<path d="M452.513 564.446L-134.676 619.644C-146.729 620.777 -155.127 628.232 -153.433 636.293L-104.156 870.82C-102.462 878.881 -91.3181 884.499 -79.2649 883.365L507.925 828.166C519.978 827.034 528.376 819.58 526.682 811.517L477.405 576.992C475.711 568.929 464.566 563.312 452.513 564.446Z" fill="black"/>
<g filter="url(#filter3_f_139_59)">
<path d="M61.6654 920.228C240.891 950.952 406.849 921.922 432.342 855.387C457.835 788.853 333.21 710.009 153.984 679.285C-25.2409 648.562 -191.199 677.593 -216.692 744.126C-242.185 810.661 -117.56 889.505 61.6654 920.228Z" fill="#3A76FB"/>
</g>
<g filter="url(#filter4_f_139_59)">
<path d="M-114.561 798.387C-6.15527 788.195 69.3738 721.153 54.139 648.643C38.9032 576.133 -61.3273 525.614 -169.733 535.804C-278.138 545.995 -353.668 613.037 -338.433 685.547C-323.197 758.058 -222.966 808.577 -114.561 798.387Z" fill="#64D0FF"/>
</g>
<g filter="url(#filter5_f_139_59)">
<path d="M432.55 1006.94C692.779 1075.13 929.204 1086.94 960.618 1033.31C992.036 979.68 806.542 880.918 546.312 812.721C286.083 744.524 49.6582 732.715 18.2437 786.346C-13.1708 839.977 172.321 938.738 432.55 1006.94Z" fill="#64D0FF"/>
</g>
<g filter="url(#filter6_f_139_59)">
<path d="M68.9332 1072.54C475.257 1147.04 828.917 1148.23 858.854 1075.19C888.79 1002.15 583.669 882.533 177.345 808.026C-228.979 733.518 -582.639 732.329 -612.576 805.371C-642.513 878.414 -337.391 998.026 68.9332 1072.54Z" fill="#3A76FB"/>
</g>
</g>
</g>
<g style="mix-blend-mode:lighten" opacity="0.8" filter="url(#filter7_f_139_59)">
<mask id="mask5_139_59" style="mask-type:luminance" maskUnits="userSpaceOnUse" x="877" y="539" width="656" height="420">
<g style="mix-blend-mode:lighten" opacity="0.8">
<g style="mix-blend-mode:lighten" opacity="0.8">
<path d="M1460.81 539.352L896.112 611.924C884.521 613.414 876.445 623.214 878.074 633.814L925.463 942.154C927.092 952.754 937.81 960.139 949.401 958.649L1514.1 886.078C1525.69 884.588 1533.77 874.788 1532.14 864.188L1484.75 555.847C1483.12 545.247 1472.4 537.863 1460.81 539.352Z" fill="white"/>
</g>
</g>
</mask>
<g mask="url(#mask5_139_59)">
<path d="M1460.81 539.352L896.111 611.924C884.519 613.414 876.443 623.214 878.072 633.814L925.462 942.154C927.091 952.754 937.808 960.139 949.4 958.649L1514.1 886.078C1525.69 884.588 1533.77 874.788 1532.14 864.188L1484.75 555.847C1483.12 545.247 1472.4 537.863 1460.81 539.352Z" fill="black"/>
<g filter="url(#filter8_f_139_59)">
<path d="M1122.94 912.29C1256.85 943.672 1380.85 914.02 1399.89 846.058C1418.94 778.097 1325.83 697.564 1191.91 666.18C1058 634.798 934.013 664.452 914.966 732.413C895.918 800.374 989.032 880.908 1122.94 912.29Z" fill="#3A76FB"/>
</g>
<g filter="url(#filter9_f_139_59)">
<path d="M957.726 819.548C1038.72 809.138 1095.15 740.658 1083.78 666.593C1072.39 592.529 997.5 540.926 916.504 551.335C835.508 561.744 779.076 630.223 790.46 704.288C801.843 778.353 876.73 829.957 957.726 819.548Z" fill="black"/>
</g>
<g filter="url(#filter10_f_139_59)">
<path d="M1441.61 1121.11C1691.88 1210.77 1919.24 1226.3 1949.45 1155.79C1979.66 1085.28 1801.28 955.431 1551.01 865.77C1300.76 776.109 1073.38 760.583 1043.18 831.095C1012.96 901.605 1191.35 1031.45 1441.61 1121.11Z" fill="#64D0FF"/>
</g>
<g filter="url(#filter11_f_139_59)">
<path d="M1091.92 1207.36C1482.68 1305.32 1822.79 1306.88 1851.58 1210.85C1880.38 1114.82 1586.95 957.555 1196.18 859.596C805.421 761.638 465.308 760.076 436.518 856.106C407.728 952.138 701.162 1109.4 1091.92 1207.36Z" fill="#3A76FB"/>
</g>
</g>
</g>
</g>
</g>
</g>
<defs>
<filter id="filter0_f_139_59" x="-495" y="-64" width="2083.52" height="708.277" filterUnits="userSpaceOnUse" color-interpolation-filters="sRGB">
<feFlood flood-opacity="0" result="BackgroundImageFix"/>
<feBlend mode="normal" in="SourceGraphic" in2="BackgroundImageFix" result="shape"/>
<feGaussianBlur stdDeviation="100" result="effect1_foregroundBlur_139_59"/>
</filter>
<filter id="filter1_f_139_59" x="209" y="91" width="1183" height="409" filterUnits="userSpaceOnUse" color-interpolation-filters="sRGB">
<feFlood flood-opacity="0" result="BackgroundImageFix"/>
<feBlend mode="normal" in="SourceGraphic" in2="BackgroundImageFix" result="shape"/>
<feGaussianBlur stdDeviation="54" result="effect1_foregroundBlur_139_59"/>
</filter>
<filter id="filter2_f_139_59" x="-553.65" y="164.301" width="1480.55" height="1119.21" filterUnits="userSpaceOnUse" color-interpolation-filters="sRGB">
<feFlood flood-opacity="0" result="BackgroundImageFix"/>
<feBlend mode="normal" in="SourceGraphic" in2="BackgroundImageFix" result="shape"/>
<feGaussianBlur stdDeviation="200" result="effect1_foregroundBlur_139_59"/>
</filter>
<filter id="filter3_f_139_59" x="-395" y="492.03" width="1005.65" height="615.455" filterUnits="userSpaceOnUse" color-interpolation-filters="sRGB">
<feFlood flood-opacity="0" result="BackgroundImageFix"/>
<feBlend mode="normal" in="SourceGraphic" in2="BackgroundImageFix" result="shape"/>
<feGaussianBlur stdDeviation="87.5" result="effect1_foregroundBlur_139_59"/>
</filter>
<filter id="filter4_f_139_59" x="-490.387" y="384.497" width="696.479" height="565.196" filterUnits="userSpaceOnUse" color-interpolation-filters="sRGB">
<feFlood flood-opacity="0" result="BackgroundImageFix"/>
<feBlend mode="normal" in="SourceGraphic" in2="BackgroundImageFix" result="shape"/>
<feGaussianBlur stdDeviation="75" result="effect1_foregroundBlur_139_59"/>
</filter>
<filter id="filter5_f_139_59" x="-110.225" y="627.73" width="1199.31" height="564.195" filterUnits="userSpaceOnUse" color-interpolation-filters="sRGB">
<feFlood flood-opacity="0" result="BackgroundImageFix"/>
<feBlend mode="normal" in="SourceGraphic" in2="BackgroundImageFix" result="shape"/>
<feGaussianBlur stdDeviation="62.5" result="effect1_foregroundBlur_139_59"/>
</filter>
<filter id="filter6_f_139_59" x="-789.604" y="576.358" width="1825.48" height="727.844" filterUnits="userSpaceOnUse" color-interpolation-filters="sRGB">
<feFlood flood-opacity="0" result="BackgroundImageFix"/>
<feBlend mode="normal" in="SourceGraphic" in2="BackgroundImageFix" result="shape"/>
<feGaussianBlur stdDeviation="87.5" result="effect1_foregroundBlur_139_59"/>
</filter>
<filter id="filter7_f_139_59" x="477.865" y="139.161" width="1454.48" height="1219.68" filterUnits="userSpaceOnUse" color-interpolation-filters="sRGB">
<feFlood flood-opacity="0" result="BackgroundImageFix"/>
<feBlend mode="normal" in="SourceGraphic" in2="BackgroundImageFix" result="shape"/>
<feGaussianBlur stdDeviation="200" result="effect1_foregroundBlur_139_59"/>
</filter>
<filter id="filter8_f_139_59" x="737.494" y="478.662" width="839.867" height="621.147" filterUnits="userSpaceOnUse" color-interpolation-filters="sRGB">
<feFlood flood-opacity="0" result="BackgroundImageFix"/>
<feBlend mode="normal" in="SourceGraphic" in2="BackgroundImageFix" result="shape"/>
<feGaussianBlur stdDeviation="87.5" result="effect1_foregroundBlur_139_59"/>
</filter>
<filter id="filter9_f_139_59" x="639" y="400" width="596.236" height="570.882" filterUnits="userSpaceOnUse" color-interpolation-filters="sRGB">
<feFlood flood-opacity="0" result="BackgroundImageFix"/>
<feBlend mode="normal" in="SourceGraphic" in2="BackgroundImageFix" result="shape"/>
<feGaussianBlur stdDeviation="75" result="effect1_foregroundBlur_139_59"/>
</filter>
<filter id="filter10_f_139_59" x="914.842" y="661.898" width="1162.94" height="663.085" filterUnits="userSpaceOnUse" color-interpolation-filters="sRGB">
<feFlood flood-opacity="0" result="BackgroundImageFix"/>
<feBlend mode="normal" in="SourceGraphic" in2="BackgroundImageFix" result="shape"/>
<feGaussianBlur stdDeviation="62.5" result="effect1_foregroundBlur_139_59"/>
</filter>
<filter id="filter11_f_139_59" x="259.568" y="610.093" width="1768.96" height="846.77" filterUnits="userSpaceOnUse" color-interpolation-filters="sRGB">
<feFlood flood-opacity="0" result="BackgroundImageFix"/>
<feBlend mode="normal" in="SourceGraphic" in2="BackgroundImageFix" result="shape"/>
<feGaussianBlur stdDeviation="87.5" result="effect1_foregroundBlur_139_59"/>
</filter>
<linearGradient id="paint0_linear_139_59" x1="676" y1="2.89387e-06" x2="724.551" y2="924.069" gradientUnits="userSpaceOnUse">
<stop/>
<stop offset="0.666667"/>
<stop offset="1"/>
</linearGradient>
<linearGradient id="paint1_linear_139_59" x1="1172.18" y1="241.838" x2="1067.02" y2="580.381" gradientUnits="userSpaceOnUse">
<stop stop-color="#A7CAFF"/>
<stop offset="1" stop-color="#5B58FF" stop-opacity="0"/>
</linearGradient>
<clipPath id="clip0_139_59">
<rect width="1320" height="784" fill="white"/>
</clipPath>
</defs>
</svg>
