<svg width="788" height="788" viewBox="0 0 788 788" fill="none" xmlns="http://www.w3.org/2000/svg">
<g clip-path="url(#clip0_1417_2)">
<path d="M394 788C611.6 788 788 611.6 788 394C788 176.4 611.6 0 394 0C176.4 0 0 176.4 0 394C0 611.6 176.4 788 394 788Z" fill="url(#paint0_linear_1417_2)"/>
<path d="M740 394.5C740 585.867 584.867 741 393.5 741C202.133 741 47 585.867 47 394.5C47 203.133 202.133 48 393.5 48C584.867 48 740 203.133 740 394.5Z" fill="url(#paint1_linear_1417_2)" stroke="#1B43AA" stroke-width="24"/>
<g filter="url(#filter0_d_1417_2)">
<path d="M478.723 180.637L283.764 266.285C267.878 273.264 260.659 291.797 267.639 307.68C274.62 323.562 293.157 330.78 309.043 323.801L504.002 238.152C519.889 231.173 527.108 212.64 520.127 196.758C513.147 180.875 494.61 173.658 478.723 180.637Z" fill="white"/>
</g>
<g filter="url(#filter1_d_1417_2)">
<path d="M459.084 321.572L379.016 356.747C363.13 363.726 355.911 382.259 362.891 398.141C369.872 414.024 388.409 421.242 404.295 414.263L484.363 379.088C500.249 372.109 507.468 353.576 500.488 337.693C493.507 321.811 474.97 314.593 459.084 321.572Z" fill="white"/>
</g>
<g filter="url(#filter2_d_1417_2)">
<path d="M325.285 414.477C318.305 398.594 299.768 391.376 283.882 398.355C267.995 405.334 260.776 423.867 267.757 439.75C274.737 455.632 293.274 462.85 309.161 455.871C325.047 448.892 332.266 430.359 325.285 414.477Z" fill="white"/>
</g>
<g filter="url(#filter3_d_1417_2)">
<path d="M478.956 455.525L283.997 541.173C268.111 548.152 260.891 566.685 267.872 582.568C274.853 598.45 293.39 605.668 309.276 598.689L504.235 513.04C520.121 506.061 527.34 487.528 520.36 471.646C513.379 455.763 494.842 448.546 478.956 455.525Z" fill="white"/>
</g>
</g>
<defs>
<filter id="filter0_d_1417_2" x="260.977" y="177.975" width="265.812" height="156.488" filterUnits="userSpaceOnUse" color-interpolation-filters="sRGB">
<feFlood flood-opacity="0" result="BackgroundImageFix"/>
<feColorMatrix in="SourceAlpha" type="matrix" values="0 0 0 0 0 0 0 0 0 0 0 0 0 0 0 0 0 0 127 0" result="hardAlpha"/>
<feOffset dy="4"/>
<feGaussianBlur stdDeviation="2"/>
<feComposite in2="hardAlpha" operator="out"/>
<feColorMatrix type="matrix" values="0 0 0 0 0 0 0 0 0 0 0 0 0 0 0 0 0 0 0.25 0"/>
<feBlend mode="normal" in2="BackgroundImageFix" result="effect1_dropShadow_1417_2"/>
<feBlend mode="normal" in="SourceGraphic" in2="effect1_dropShadow_1417_2" result="shape"/>
</filter>
<filter id="filter1_d_1417_2" x="356.229" y="318.91" width="150.922" height="106.014" filterUnits="userSpaceOnUse" color-interpolation-filters="sRGB">
<feFlood flood-opacity="0" result="BackgroundImageFix"/>
<feColorMatrix in="SourceAlpha" type="matrix" values="0 0 0 0 0 0 0 0 0 0 0 0 0 0 0 0 0 0 127 0" result="hardAlpha"/>
<feOffset dy="4"/>
<feGaussianBlur stdDeviation="2"/>
<feComposite in2="hardAlpha" operator="out"/>
<feColorMatrix type="matrix" values="0 0 0 0 0 0 0 0 0 0 0 0 0 0 0 0 0 0 0.25 0"/>
<feBlend mode="normal" in2="BackgroundImageFix" result="effect1_dropShadow_1417_2"/>
<feBlend mode="normal" in="SourceGraphic" in2="effect1_dropShadow_1417_2" result="shape"/>
</filter>
<filter id="filter2_d_1417_2" x="261.094" y="395.694" width="70.8535" height="70.8394" filterUnits="userSpaceOnUse" color-interpolation-filters="sRGB">
<feFlood flood-opacity="0" result="BackgroundImageFix"/>
<feColorMatrix in="SourceAlpha" type="matrix" values="0 0 0 0 0 0 0 0 0 0 0 0 0 0 0 0 0 0 127 0" result="hardAlpha"/>
<feOffset dy="4"/>
<feGaussianBlur stdDeviation="2"/>
<feComposite in2="hardAlpha" operator="out"/>
<feColorMatrix type="matrix" values="0 0 0 0 0 0 0 0 0 0 0 0 0 0 0 0 0 0 0.25 0"/>
<feBlend mode="normal" in2="BackgroundImageFix" result="effect1_dropShadow_1417_2"/>
<feBlend mode="normal" in="SourceGraphic" in2="effect1_dropShadow_1417_2" result="shape"/>
</filter>
<filter id="filter3_d_1417_2" x="261.209" y="452.863" width="265.812" height="156.488" filterUnits="userSpaceOnUse" color-interpolation-filters="sRGB">
<feFlood flood-opacity="0" result="BackgroundImageFix"/>
<feColorMatrix in="SourceAlpha" type="matrix" values="0 0 0 0 0 0 0 0 0 0 0 0 0 0 0 0 0 0 127 0" result="hardAlpha"/>
<feOffset dy="4"/>
<feGaussianBlur stdDeviation="2"/>
<feComposite in2="hardAlpha" operator="out"/>
<feColorMatrix type="matrix" values="0 0 0 0 0 0 0 0 0 0 0 0 0 0 0 0 0 0 0.25 0"/>
<feBlend mode="normal" in2="BackgroundImageFix" result="effect1_dropShadow_1417_2"/>
<feBlend mode="normal" in="SourceGraphic" in2="effect1_dropShadow_1417_2" result="shape"/>
</filter>
<linearGradient id="paint0_linear_1417_2" x1="394" y1="0" x2="394" y2="788" gradientUnits="userSpaceOnUse">
<stop stop-color="#3A86F4"/>
<stop offset="1" stop-color="#0F5AF2"/>
</linearGradient>
<linearGradient id="paint1_linear_1417_2" x1="393.5" y1="36" x2="393.5" y2="753" gradientUnits="userSpaceOnUse">
<stop stop-color="#3984F4"/>
<stop offset="1" stop-color="#135BEC"/>
</linearGradient>
<clipPath id="clip0_1417_2">
<rect width="788" height="788" fill="white"/>
</clipPath>
</defs>
</svg>
