<svg width="204" height="185" viewBox="0 0 204 185" fill="none" xmlns="http://www.w3.org/2000/svg">
<path d="M33.5665 126.655C33.0394 125.901 32.9428 126.41 32.6001 125.27C32.2575 124.13 31.4054 122.639 26.7933 120.823C22.1812 119.008 19.3524 122.235 17.6745 124.138C15.9966 126.042 14.8809 130.479 15.2938 130.462C15.7067 130.444 17.982 128.997 20.8547 129.821C23.7273 130.646 32.5299 131.698 34.2166 129.199C34.1735 128.316 33.9524 127.451 33.5665 126.655ZM19.1504 125.919C18.5618 125.042 20.3978 124.726 20.3978 124.726C22.3657 124.638 19.739 126.769 19.1504 125.892V125.919ZM27.5049 127.796C26.6264 129.164 21.4432 129.55 22.3393 126.919C23.2354 124.287 26.6 125.568 26.6 125.568C26.6 125.568 28.4273 126.392 27.5049 127.769V127.796Z" fill="#DFE9F4"/>
<path d="M45.4174 142.652C44.7528 142.229 43.9892 141.986 43.202 141.948C42.4147 141.909 41.6311 142.077 40.9283 142.433C39.0571 143.38 37.467 146.818 36.8169 148.414C37.3704 144.178 38.4246 137.995 40.0849 135.715C42.6677 132.207 45.0309 132.847 45.0484 132.847C45.0752 132.855 45.1042 132.852 45.1289 132.839C45.1536 132.826 45.1721 132.804 45.1802 132.777C45.1884 132.75 45.1855 132.721 45.1724 132.697C45.1592 132.672 45.1367 132.654 45.1099 132.645C45.0045 132.645 42.5886 131.909 39.918 135.583C38.4509 137.6 37.4582 142.477 36.8609 146.502C37.0016 144.145 37.0016 141.782 36.8609 139.425V139.048C36.5534 135.654 36.079 130.532 32.0467 126.147C31.3271 125.274 30.419 124.576 29.3906 124.103C28.3621 123.631 27.2399 123.397 26.1081 123.419C25.139 123.451 24.1885 123.693 23.3232 124.13C23.308 124.134 23.294 124.143 23.2824 124.153C23.2708 124.164 23.2618 124.178 23.2561 124.193C23.2504 124.208 23.2482 124.224 23.2496 124.239C23.251 124.255 23.256 124.271 23.2642 124.284C23.2724 124.298 23.2836 124.31 23.297 124.318C23.3104 124.327 23.3255 124.333 23.3414 124.335C23.3572 124.337 23.3733 124.335 23.3884 124.33C23.4035 124.325 23.4173 124.316 23.4286 124.305C24.2664 123.882 25.1872 123.649 26.1256 123.621C27.2255 123.596 28.3169 123.819 29.318 124.275C30.3191 124.731 31.2039 125.407 31.9061 126.252C35.8945 130.584 36.3601 135.671 36.6676 139.039V139.416C36.8173 142.256 36.7938 145.103 36.5973 147.94C36.3865 146.072 35.8682 142.608 34.9106 140.924L33.5841 138.635C33.5793 138.62 33.5712 138.606 33.5602 138.595C33.5493 138.583 33.5359 138.574 33.521 138.568C33.506 138.563 33.49 138.56 33.4741 138.562C33.4582 138.563 33.4429 138.568 33.4292 138.576C33.4155 138.585 33.4039 138.596 33.3951 138.609C33.3864 138.623 33.3808 138.638 33.3788 138.653C33.3768 138.669 33.3785 138.685 33.3836 138.7C33.3887 138.715 33.3972 138.729 33.4084 138.741L34.7349 141.03C35.9911 143.196 36.4919 148.703 36.4919 149.151C36.2635 151.071 36.1405 152.439 36.1317 152.615C36.1291 152.641 36.1368 152.668 36.1531 152.689C36.1694 152.71 36.1931 152.724 36.2195 152.729C36.2334 152.73 36.2474 152.728 36.2606 152.724C36.2739 152.72 36.2861 152.713 36.2968 152.704C36.3074 152.695 36.3161 152.684 36.3225 152.672C36.3288 152.66 36.3326 152.646 36.3338 152.632C36.3338 152.588 36.4567 151.185 36.7027 149.186C36.8433 148.809 38.7672 143.704 41.0161 142.564C41.6866 142.227 42.4332 142.069 43.1831 142.106C43.933 142.143 44.6605 142.373 45.2944 142.775C45.3034 142.784 45.3143 142.792 45.3264 142.797C45.3385 142.802 45.3515 142.805 45.3647 142.805C45.3779 142.805 45.3909 142.802 45.403 142.797C45.415 142.792 45.4259 142.784 45.435 142.775C45.4417 142.754 45.4436 142.733 45.4405 142.711C45.4375 142.69 45.4296 142.67 45.4174 142.652Z" fill="#AEC6D3"/>
<path d="M31.7656 136.46C30.1403 135.338 28.4009 135.82 27.8563 135.408C27.07 134.659 26.112 134.114 25.066 133.821C24.02 133.527 22.9179 133.494 21.8561 133.724C18.3421 134.434 16.6554 135.408 16.6466 135.785C16.6379 136.162 15.0302 138.653 14.4328 138.723C13.8355 138.793 13.3347 138.416 12.8164 139.012C11.4659 141.495 10.4638 144.151 9.8383 146.905C9.30241 149.659 9.10915 150.414 9.4254 150.361C10.8521 150.026 12.2327 149.52 13.5368 148.852C14.4153 148.23 14.8897 148.186 14.9248 147.914C14.9599 147.642 15.5485 145.888 16.304 145.599C16.6699 145.489 17.0546 145.455 17.434 145.501C17.8135 145.546 18.1794 145.669 18.5091 145.862C18.7604 146.041 19.0483 146.162 19.3521 146.216C19.6559 146.271 19.968 146.258 20.266 146.178C20.7492 145.923 22.4799 144.932 22.5238 144.59C22.5677 144.248 23.0597 143.038 23.8327 143.476C24.3737 143.867 24.9401 144.222 25.5282 144.538C27.4404 143.647 29.2896 142.627 31.0628 141.486C32.0994 140.609 33.2239 140.144 33.6983 138.969C33.3788 137.927 32.6922 137.036 31.7656 136.46ZM13.0712 142.757C11.8237 141.679 15.3113 140.179 15.3113 140.179C17.3143 139.811 14.345 143.836 13.0712 142.757ZM24.0084 140.907C22.6028 139.433 28.0232 137.329 28.0232 137.329C28.0232 137.329 30.6059 137.329 30.4566 138.618C30.3073 139.907 25.4404 142.38 24.0348 140.907H24.0084Z" fill="#CEDBEE"/>
<path d="M17.0859 141.968C17.066 141.975 17.0444 141.975 17.0244 141.968C17.0146 141.958 17.0068 141.947 17.0015 141.934C16.9961 141.921 16.9934 141.907 16.9934 141.893C16.9934 141.88 16.9961 141.866 17.0015 141.853C17.0068 141.84 17.0146 141.829 17.0244 141.819C18.9884 139.875 21.2043 138.203 23.6131 136.846C27.0305 135.092 28.0056 135.373 28.0056 135.382C28.0308 135.391 28.0513 135.411 28.0627 135.435C28.0742 135.46 28.0757 135.488 28.0671 135.513C28.0572 135.539 28.0385 135.56 28.0143 135.573C27.9901 135.586 27.9621 135.589 27.9353 135.583C27.9353 135.583 26.9602 135.347 23.6834 137.03C21.2969 138.368 19.1014 140.02 17.1562 141.942C17.1361 141.957 17.1115 141.967 17.0859 141.968Z" fill="#AEC6D3"/>
<path d="M39.3206 69.0975H149.721V154.071H39.3206V69.0975Z" fill="#CEDBEE"/>
<path d="M110.013 161.639H79.1165C78.1921 161.639 77.3049 161.276 76.6472 160.627C75.9894 159.979 75.6141 159.098 75.6025 158.175V114.149C75.6025 109.348 77.5129 104.744 80.9133 101.35C84.3138 97.9549 88.9258 96.0479 93.7347 96.0479H95.316C100.125 96.0479 104.737 97.9549 108.137 101.35C111.538 104.744 113.448 109.348 113.448 114.149V158.175C113.437 159.084 113.073 159.954 112.432 160.6C111.791 161.246 110.924 161.619 110.013 161.639Z" fill="#92B1DD"/>
<path d="M166.808 66.142V69.9833C166.812 70.2839 166.756 70.5822 166.644 70.8613C166.532 71.1403 166.366 71.3946 166.155 71.6096C165.945 71.8246 165.694 71.9961 165.417 72.1143C165.14 72.2325 164.843 72.2952 164.542 72.2986H24.72C24.4189 72.2952 24.1214 72.2325 23.8446 72.1143C23.5677 71.9961 23.3169 71.8246 23.1064 71.6096C22.8959 71.3946 22.73 71.1403 22.6179 70.8613C22.5059 70.5822 22.45 70.2839 22.4535 69.9833V66.142C22.45 65.8414 22.5059 65.5431 22.6179 65.264C22.73 64.985 22.8959 64.7307 23.1064 64.5157C23.3169 64.3007 23.5677 64.1292 23.8446 64.011C24.1214 63.8928 24.4189 63.8301 24.72 63.8267H164.559C165.164 63.8382 165.74 64.0881 166.161 64.5218C166.583 64.9555 166.815 65.5379 166.808 66.142ZM163.654 58.7927C163.655 59.5246 163.499 60.2481 163.197 60.9151C162.812 61.7785 162.185 62.5126 161.392 63.0291C160.598 63.5456 159.673 63.8225 158.726 63.8267H30.5533C29.6029 63.8173 28.6754 63.5343 27.8822 63.0116C27.0891 62.4888 26.4639 61.7487 26.0817 60.88C25.7759 60.1861 25.6268 59.4336 25.645 58.6757C25.6633 57.9179 25.8483 57.1734 26.1871 56.4949C26.5568 55.777 27.093 55.1576 27.7509 54.6883L91.8372 9.30326C92.6555 8.72162 93.635 8.40906 94.6396 8.40906C95.6441 8.40906 96.6237 8.72162 97.442 9.30326L161.537 54.6532C162.197 55.1231 162.733 55.7445 163.102 56.4649C163.47 57.1854 163.66 57.9838 163.654 58.7927Z" fill="#F5F5F7"/>
<path d="M149.906 58.0736H39.3734C38.9298 58.0636 38.5008 57.9142 38.1473 57.6467C37.7937 57.3791 37.5338 57.0071 37.4043 56.5835C37.2749 56.1599 37.2826 55.7063 37.4263 55.2873C37.5701 54.8683 37.8426 54.5053 38.205 54.2499L93.4712 15.1091C93.8117 14.865 94.2203 14.7336 94.6396 14.7336C95.0588 14.7336 95.4674 14.865 95.808 15.1091L100.824 18.6171L148.43 52.3731L151.065 54.2411C151.426 54.4978 151.696 54.8608 151.839 55.2789C151.982 55.6971 151.99 56.1494 151.862 56.5724C151.734 56.9953 151.476 57.3676 151.125 57.6368C150.775 57.9061 150.348 58.0589 149.906 58.0736ZM166.808 69.0713V70.0009C166.812 70.3015 166.756 70.5998 166.644 70.8789C166.532 71.1579 166.366 71.4122 166.155 71.6272C165.945 71.8422 165.694 72.0137 165.417 72.1319C165.14 72.2501 164.843 72.3128 164.542 72.3162H24.72C24.4189 72.3128 24.1214 72.2501 23.8446 72.1319C23.5677 72.0137 23.3169 71.8422 23.1064 71.6272C22.8959 71.4122 22.73 71.1579 22.6179 70.8789C22.5059 70.5998 22.45 70.3015 22.4535 70.0009V69.0713H166.808ZM163.197 60.9239C162.812 61.7874 162.185 62.5214 161.392 63.0379C160.598 63.5544 159.673 63.8313 158.726 63.8355H30.5533C29.6068 63.8292 28.682 63.5513 27.8893 63.0351C27.0965 62.5189 26.4691 61.786 26.0817 60.9239H163.197Z" fill="#DFE9F4"/>
<path d="M149.906 58.0736H39.3733C38.9298 58.0636 38.5008 57.9142 38.1472 57.6467C37.7937 57.3791 37.5337 57.0071 37.4043 56.5835C37.2749 56.1599 37.2826 55.7063 37.4263 55.2873C37.5701 54.8683 37.8425 54.5053 38.2049 54.2499L93.4711 15.1091C93.8116 14.865 94.2203 14.7336 94.6395 14.7336C95.0588 14.7336 95.4674 14.865 95.8079 15.1091L100.824 18.6171L73.7753 45.9709C73.2664 46.4935 72.9197 47.1518 72.777 47.8666C72.6342 48.5813 72.7015 49.3221 72.9707 49.9995C73.2399 50.677 73.6996 51.2623 74.2943 51.685C74.8891 52.1076 75.5935 52.3496 76.3229 52.3818H148.36L150.995 54.2499C151.353 54.501 151.624 54.8572 151.771 55.269C151.917 55.6808 151.931 56.1279 151.811 56.5481C151.692 56.9684 151.444 57.3411 151.102 57.6144C150.761 57.8878 150.343 58.0483 149.906 58.0736Z" fill="#CEDBEE"/>
<path d="M151.61 57.144L97.0202 18.4768C96.6797 18.2327 96.2711 18.1013 95.8518 18.1013C95.4326 18.1013 95.0239 18.2327 94.6834 18.4768L39.426 57.6263C39.2613 57.7429 39.1135 57.8816 38.9868 58.0385C38.5859 57.9511 38.2192 57.7492 37.9311 57.4576C37.6431 57.1659 37.4461 56.7969 37.3642 56.3956C37.2823 55.9942 37.319 55.5777 37.4698 55.1968C37.6206 54.8159 37.8791 54.4869 38.2137 54.2499L93.4799 15.1091C93.8204 14.865 94.2291 14.7336 94.6483 14.7336C95.0675 14.7336 95.4762 14.865 95.8167 15.1091L151.074 54.2499C151.521 54.5695 151.826 55.0495 151.926 55.5891C152.026 56.1287 151.913 56.686 151.61 57.144Z" fill="#CEDBEE"/>
<path d="M156.477 77.8763H135.85C135.743 77.8763 135.636 77.8552 135.537 77.8142C135.438 77.7732 135.348 77.7132 135.272 77.6374C135.196 77.5617 135.136 77.4718 135.095 77.3728C135.054 77.2739 135.033 77.1678 135.033 77.0607V72.281H157.303V77.0256C157.306 77.1361 157.287 77.2461 157.248 77.3492C157.208 77.4523 157.147 77.5463 157.07 77.6256C156.993 77.705 156.901 77.7681 156.799 77.8111C156.697 77.8542 156.588 77.8764 156.477 77.8763ZM135.85 146.563H156.477C156.584 146.563 156.69 146.585 156.79 146.625C156.889 146.666 156.979 146.727 157.055 146.802C157.13 146.878 157.191 146.968 157.232 147.067C157.273 147.166 157.294 147.272 157.294 147.379V152.089H135.024V147.344C135.035 147.133 135.127 146.934 135.281 146.789C135.435 146.644 135.638 146.563 135.85 146.563Z" fill="#F5F5F7"/>
<path opacity="0.32" d="M135.024 150.536H157.294V152.124H135.024V150.536Z" fill="white"/>
<path d="M138.977 77.8763H153.349V146.563H138.977V77.8763Z" fill="#F5F5F7"/>
<path d="M141.542 77.8763H142.667V146.563H141.542V77.8763ZM145.619 77.8763H146.743V146.563H145.619V77.8763ZM149.704 77.8763H150.828V146.563H149.704V77.8763Z" fill="#DFE9F4"/>
<path d="M153.349 77.8763V80.9897H145.873C145.274 80.999 144.702 81.245 144.284 81.6741C143.866 82.1031 143.635 82.6801 143.642 83.2787V146.563H138.977V77.8763H153.349Z" fill="#DFE9F4"/>
<path d="M129.182 77.8763H108.555C108.448 77.8763 108.341 77.8552 108.242 77.8142C108.143 77.7732 108.053 77.7132 107.977 77.6374C107.901 77.5617 107.841 77.4718 107.8 77.3728C107.759 77.2739 107.738 77.1678 107.738 77.0607V72.281H130.008V77.0256C130.011 77.1361 129.993 77.2461 129.953 77.3492C129.913 77.4523 129.852 77.5463 129.775 77.6256C129.698 77.705 129.606 77.7681 129.504 77.8111C129.402 77.8542 129.293 77.8764 129.182 77.8763ZM108.555 146.563H129.182C129.399 146.563 129.606 146.649 129.76 146.802C129.913 146.955 129.999 147.163 129.999 147.379V152.089H107.729V147.344C107.74 147.133 107.832 146.934 107.986 146.789C108.14 146.644 108.343 146.563 108.555 146.563Z" fill="#F5F5F7"/>
<path opacity="0.32" d="M107.729 150.536H129.999V152.124H107.729V150.536Z" fill="white"/>
<path d="M111.682 77.8763H126.055V146.563H111.682V77.8763Z" fill="#F5F5F7"/>
<path d="M114.248 77.8763H115.372V146.563H114.248V77.8763ZM118.324 77.8763H119.448V146.563H118.324V77.8763ZM122.409 77.8763H123.533V146.563H122.409V77.8763Z" fill="#DFE9F4"/>
<path d="M126.055 77.8763V80.9897H118.579C117.979 80.999 117.407 81.245 116.989 81.6741C116.571 82.1031 116.34 82.6801 116.347 83.2787V146.563H111.682V77.8763H126.055Z" fill="#DFE9F4"/>
<path d="M80.3991 77.8763H59.772C59.6647 77.8763 59.5585 77.8552 59.4594 77.8142C59.3602 77.7732 59.2702 77.7132 59.1943 77.6374C59.1184 77.5617 59.0583 77.4718 59.0172 77.3728C58.9761 77.2739 58.955 77.1678 58.955 77.0607V72.281H81.2249V77.0256C81.2284 77.1361 81.2097 77.2461 81.1698 77.3492C81.1298 77.4523 81.0696 77.5463 80.9925 77.6256C80.9155 77.705 80.8233 77.7681 80.7213 77.8111C80.6194 77.8542 80.5098 77.8764 80.3991 77.8763ZM59.772 146.563H80.3991C80.5064 146.563 80.6126 146.585 80.7118 146.625C80.8109 146.666 80.9009 146.727 80.9768 146.802C81.0527 146.878 81.1129 146.968 81.1539 147.067C81.195 147.166 81.2161 147.272 81.2161 147.379V152.089H58.9462V147.344C58.9575 147.133 59.0494 146.934 59.2031 146.789C59.3568 146.644 59.5604 146.563 59.772 146.563Z" fill="#F5F5F7"/>
<path opacity="0.32" d="M58.9462 150.536H81.2161V152.124H58.9462V150.536Z" fill="white"/>
<path d="M62.8995 77.8763H77.2717V146.563H62.8995V77.8763Z" fill="#F5F5F7"/>
<path d="M65.4647 77.8763H66.5891V146.563H65.4647V77.8763ZM69.5409 77.8763H70.6654V146.563H69.5409V77.8763ZM73.6259 77.8763H74.7504V146.563H73.6259V77.8763Z" fill="#DFE9F4"/>
<path d="M77.2717 77.8763V80.9897H69.7957C69.4965 80.9909 69.2006 81.0511 68.9249 81.167C68.6492 81.2828 68.3992 81.452 68.1893 81.6648C67.9794 81.8776 67.8138 82.1298 67.702 82.4068C67.5902 82.6838 67.5345 82.9801 67.5379 83.2787V146.563H62.8995V77.8763H77.2717Z" fill="#DFE9F4"/>
<path d="M53.1042 77.8763H32.4772C32.3699 77.8763 32.2636 77.8552 32.1645 77.8142C32.0654 77.7732 31.9753 77.7132 31.8994 77.6374C31.8236 77.5617 31.7634 77.4718 31.7223 77.3728C31.6813 77.2739 31.6602 77.1678 31.6602 77.0607V72.281H53.93V77.0256C53.9336 77.1361 53.9148 77.2461 53.8749 77.3492C53.835 77.4523 53.7747 77.5463 53.6977 77.6256C53.6206 77.705 53.5284 77.7681 53.4265 77.8111C53.3245 77.8542 53.2149 77.8764 53.1042 77.8763ZM32.4772 146.563H53.1042C53.3209 146.563 53.5287 146.649 53.682 146.802C53.8352 146.955 53.9212 147.163 53.9212 147.379V152.089H31.6514V147.344C31.6626 147.133 31.7546 146.934 31.9082 146.789C32.0619 146.644 32.2655 146.563 32.4772 146.563Z" fill="#F5F5F7"/>
<path opacity="0.32" d="M31.6514 150.536H53.9212V152.124H31.6514V150.536Z" fill="white"/>
<path d="M35.6046 77.8763H49.9768V146.563H35.6046V77.8763Z" fill="#F5F5F7"/>
<path d="M38.1698 77.8763H39.2943V146.563H38.1698V77.8763ZM42.246 77.8763H43.3705V146.563H42.246V77.8763ZM46.331 77.8763H47.4555V146.563H46.331V77.8763Z" fill="#DFE9F4"/>
<path d="M49.968 77.8763V80.9897H42.5008C41.9074 81.0081 41.3448 81.2581 40.9341 81.6862C40.5234 82.1142 40.2974 82.686 40.3046 83.2787V146.563H35.6046V77.8763H49.968Z" fill="#DFE9F4"/>
<path d="M26.8723 152.124H162.538V156.035H26.8723V152.124Z" fill="#92B1DD"/>
<path d="M22.5853 156.035H166.826V161.648H22.5853V156.035Z" fill="#CEDBEE"/>
<path d="M20.635 160.973H168.785V168.945H20.635V160.973Z" fill="#DFE9F4"/>
<path d="M35.7627 48.9001C35.6321 48.9008 35.5046 48.8599 35.3988 48.7835C35.293 48.707 35.2144 48.5989 35.1743 48.4748C35.1341 48.3507 35.1346 48.2171 35.1757 48.0933C35.2167 47.9695 35.2962 47.862 35.4025 47.7863L89.6057 10.075C89.6708 10.0188 89.7469 9.97677 89.8292 9.95172C89.9115 9.92668 89.9982 9.91915 90.0836 9.92964C90.169 9.94013 90.2512 9.96839 90.325 10.0126C90.3988 10.0568 90.4624 10.116 90.5119 10.1863C90.5613 10.2566 90.5954 10.3365 90.6119 10.4208C90.6285 10.5051 90.6272 10.5919 90.608 10.6757C90.5888 10.7594 90.5523 10.8382 90.5007 10.907C90.4491 10.9757 90.3836 11.0329 90.3085 11.0748L36.1141 48.7861C36.0126 48.8613 35.8892 48.9014 35.7627 48.9001ZM156.38 51.6363C156.251 51.6364 156.125 51.5966 156.02 51.5223L113.668 21.4147C113.535 21.3194 113.446 21.1752 113.419 21.014C113.393 20.8529 113.432 20.6878 113.527 20.5553C113.623 20.4227 113.767 20.3334 113.929 20.3071C114.09 20.2808 114.255 20.3196 114.388 20.4149L156.74 50.5225C156.847 50.5982 156.926 50.7058 156.967 50.8296C157.008 50.9533 157.009 51.087 156.969 51.2111C156.929 51.3351 156.85 51.4433 156.744 51.5197C156.638 51.5962 156.511 51.637 156.38 51.6363ZM133.17 42.1647C133.044 42.166 132.921 42.1259 132.819 42.0507L100.473 19.1608C100.406 19.1142 100.35 19.0549 100.307 18.9865C100.263 18.9181 100.234 18.8418 100.22 18.762C100.206 18.6822 100.208 18.6004 100.226 18.5214C100.243 18.4423 100.277 18.3676 100.323 18.3014C100.37 18.2351 100.429 18.1787 100.498 18.1354C100.567 18.0921 100.643 18.0626 100.723 18.0488C100.803 18.035 100.885 18.037 100.964 18.0547C101.043 18.0725 101.118 18.1056 101.184 18.1523L133.531 41.0421C133.6 41.0885 133.659 41.1485 133.704 41.2184C133.749 41.2883 133.78 41.3666 133.794 41.4486C133.808 41.5307 133.805 41.6147 133.785 41.6955C133.766 41.7764 133.73 41.8525 133.68 41.9191C133.62 41.9967 133.543 42.0593 133.454 42.1019C133.366 42.1446 133.269 42.166 133.17 42.1647ZM48.1144 48.4265C47.983 48.4291 47.8542 48.3896 47.747 48.3139C47.6397 48.2381 47.5596 48.13 47.5183 48.0055C47.4771 47.8809 47.4769 47.7465 47.5177 47.6218C47.5586 47.4971 47.6384 47.3888 47.7454 47.3127L77.5616 25.4928C77.6932 25.3963 77.8579 25.3559 78.0193 25.3806C78.1808 25.4052 78.3258 25.4929 78.4225 25.6244C78.5192 25.7558 78.5596 25.9201 78.5349 26.0813C78.5102 26.2425 78.4223 26.3873 78.2907 26.4838L48.4833 48.3037C48.376 48.3818 48.2471 48.4247 48.1144 48.4265ZM97.9602 63.8092H29.3497C29.1866 63.8092 29.0302 63.7445 28.9148 63.6294C28.7995 63.5142 28.7347 63.3581 28.7347 63.1953C28.7347 63.0325 28.7995 62.8763 28.9148 62.7612C29.0302 62.6461 29.1866 62.5814 29.3497 62.5814H97.9602C98.1233 62.5814 98.2797 62.6461 98.3951 62.7612C98.5104 62.8763 98.5752 63.0325 98.5752 63.1953C98.5752 63.3581 98.5104 63.5142 98.3951 63.6294C98.2797 63.7445 98.1233 63.8092 97.9602 63.8092ZM152.515 72.5792H28.4712C28.3081 72.5792 28.1517 72.5146 28.0363 72.3994C27.921 72.2843 27.8562 72.1282 27.8562 71.9653C27.8562 71.8025 27.921 71.6464 28.0363 71.5312C28.1517 71.4161 28.3081 71.3514 28.4712 71.3514H152.515C152.678 71.3514 152.834 71.4161 152.95 71.5312C153.065 71.6464 153.13 71.8025 153.13 71.9653C153.13 72.1282 153.065 72.2843 152.95 72.3994C152.834 72.5146 152.678 72.5792 152.515 72.5792ZM154.184 63.6338H128.268C128.105 63.6338 127.949 63.5691 127.834 63.454C127.718 63.3388 127.653 63.1827 127.653 63.0199C127.653 62.8571 127.718 62.7009 127.834 62.5858C127.949 62.4707 128.105 62.406 128.268 62.406H154.184C154.347 62.406 154.503 62.4707 154.619 62.5858C154.734 62.7009 154.799 62.8571 154.799 63.0199C154.799 63.1827 154.734 63.3388 154.619 63.454C154.503 63.5691 154.347 63.6338 154.184 63.6338ZM48.413 78.5429H32.6001C32.3582 78.5432 32.1192 78.4898 31.9004 78.3867C31.6817 78.2836 31.4886 78.1332 31.3351 77.9465C31.0902 77.6503 30.9566 77.2781 30.9573 76.8941V74.421C30.9573 74.2581 31.0221 74.102 31.1374 73.9869C31.2528 73.8717 31.4092 73.807 31.5723 73.807C31.7354 73.807 31.8918 73.8717 32.0071 73.9869C32.1224 74.102 32.1872 74.2581 32.1872 74.421V76.8941C32.1871 76.9931 32.2212 77.0892 32.2839 77.166C32.3238 77.2131 32.3736 77.2509 32.4298 77.2766C32.4859 77.3024 32.5471 77.3155 32.6089 77.3151H48.4218C48.5849 77.3151 48.7413 77.3798 48.8567 77.4949C48.972 77.61 49.0368 77.7662 49.0368 77.929C49.0368 78.0918 48.972 78.2479 48.8567 78.3631C48.7413 78.4782 48.5849 78.5429 48.4218 78.5429H48.413ZM75.7343 78.5429H59.9213C59.6794 78.5432 59.4404 78.4898 59.2217 78.3867C59.0029 78.2836 58.8098 78.1332 58.6563 77.9465C58.4115 77.6503 58.2779 77.2781 58.2786 76.8941V74.421C58.2786 74.2581 58.3433 74.102 58.4587 73.9869C58.574 73.8717 58.7304 73.807 58.8935 73.807C59.0566 73.807 59.213 73.8717 59.3283 73.9869C59.4437 74.102 59.5085 74.2581 59.5085 74.421V76.8941C59.5083 76.9931 59.5425 77.0892 59.6051 77.166C59.645 77.2131 59.6948 77.2509 59.751 77.2766C59.8072 77.3024 59.8683 77.3155 59.9301 77.3151H75.7431C75.9062 77.3151 76.0626 77.3798 76.1779 77.4949C76.2932 77.61 76.358 77.7662 76.358 77.929C76.358 78.0918 76.2932 78.2479 76.1779 78.3631C76.0626 78.4782 75.9062 78.5429 75.7431 78.5429H75.7343ZM124.579 78.5429H108.766C108.524 78.5432 108.285 78.4898 108.066 78.3867C107.847 78.2836 107.654 78.1332 107.501 77.9465C107.256 77.6503 107.122 77.2781 107.123 76.8941V74.421C107.123 74.2581 107.188 74.102 107.303 73.9869C107.418 73.8717 107.575 73.807 107.738 73.807C107.901 73.807 108.057 73.8717 108.173 73.9869C108.288 74.102 108.353 74.2581 108.353 74.421V76.8941C108.353 76.9931 108.387 77.0892 108.449 77.166C108.489 77.2131 108.539 77.2509 108.595 77.2766C108.652 77.3024 108.713 77.3155 108.775 77.3151H124.587C124.751 77.3151 124.907 77.3798 125.022 77.4949C125.138 77.61 125.202 77.7662 125.202 77.929C125.202 78.0918 125.138 78.2479 125.022 78.3631C124.907 78.4782 124.751 78.5429 124.587 78.5429H124.579ZM151.874 78.5429H136.061C135.819 78.5432 135.58 78.4898 135.361 78.3867C135.142 78.2836 134.949 78.1332 134.796 77.9465C134.551 77.6503 134.417 77.2781 134.418 76.8941V74.421C134.418 74.2581 134.483 74.102 134.598 73.9869C134.713 73.8717 134.87 73.807 135.033 73.807C135.196 73.807 135.352 73.8717 135.468 73.9869C135.583 74.102 135.648 74.2581 135.648 74.421V76.8941C135.648 76.9931 135.682 77.0892 135.744 77.166C135.784 77.2131 135.834 77.2509 135.89 77.2766C135.946 77.3024 136.008 77.3155 136.069 77.3151H151.882C152.045 77.3151 152.202 77.3798 152.317 77.4949C152.432 77.61 152.497 77.7662 152.497 77.929C152.497 78.0918 152.432 78.2479 152.317 78.3631C152.202 78.4782 152.045 78.5429 151.882 78.5429H151.874ZM35.4113 137.18C35.2482 137.18 35.0918 137.115 34.9765 137C34.8611 136.885 34.7964 136.728 34.7964 136.566V82.2789C34.7964 82.1161 34.8611 81.96 34.9765 81.8448C35.0918 81.7297 35.2482 81.665 35.4113 81.665C35.5744 81.665 35.7308 81.7297 35.8461 81.8448C35.9615 81.96 36.0262 82.1161 36.0262 82.2789V136.566C36.0262 136.728 35.9615 136.885 35.8461 137C35.7308 137.115 35.5744 137.18 35.4113 137.18ZM62.8555 140.635C62.6924 140.635 62.536 140.57 62.4207 140.455C62.3054 140.34 62.2406 140.184 62.2406 140.021V86.7078C62.2406 86.545 62.3054 86.3888 62.4207 86.2737C62.536 86.1586 62.6924 86.0939 62.8555 86.0939C63.0186 86.0939 63.175 86.1586 63.2904 86.2737C63.4057 86.3888 63.4705 86.545 63.4705 86.7078V140.021C63.4705 140.184 63.4057 140.34 63.2904 140.455C63.175 140.57 63.0186 140.635 62.8555 140.635ZM126.221 140.267C126.058 140.267 125.902 140.202 125.787 140.087C125.671 139.972 125.607 139.815 125.607 139.653V87.3919C125.607 87.2291 125.671 87.0729 125.787 86.9578C125.902 86.8426 126.058 86.778 126.221 86.778C126.385 86.778 126.541 86.8426 126.656 86.9578C126.772 87.0729 126.836 87.2291 126.836 87.3919V139.653C126.836 139.815 126.772 139.972 126.656 140.087C126.541 140.202 126.385 140.267 126.221 140.267ZM153.631 131.426C153.467 131.426 153.311 131.362 153.196 131.247C153.08 131.131 153.016 130.975 153.016 130.812V83.84C153.016 83.6772 153.08 83.521 153.196 83.4059C153.311 83.2908 153.467 83.2261 153.631 83.2261C153.794 83.2261 153.95 83.2908 154.065 83.4059C154.181 83.521 154.245 83.6772 154.245 83.84V130.812C154.245 130.975 154.181 131.131 154.065 131.247C153.95 131.362 153.794 131.426 153.631 131.426ZM49.968 147.309H34.6207C34.4576 147.309 34.3011 147.244 34.1858 147.129C34.0705 147.014 34.0057 146.858 34.0057 146.695C34.0057 146.532 34.0705 146.376 34.1858 146.261C34.3011 146.146 34.4576 146.081 34.6207 146.081H49.968C50.1311 146.081 50.2875 146.146 50.4028 146.261C50.5181 146.376 50.5829 146.532 50.5829 146.695C50.5829 146.858 50.5181 147.014 50.4028 147.129C50.2875 147.244 50.1311 147.309 49.968 147.309ZM58.955 151.159C58.7919 151.159 58.6355 151.094 58.5202 150.979C58.4048 150.864 58.3401 150.708 58.3401 150.545V147.914C58.34 147.655 58.3912 147.399 58.4907 147.16C58.5901 146.921 58.7359 146.704 58.9195 146.522C59.1032 146.339 59.3212 146.195 59.5609 146.097C59.8007 145.998 60.0575 145.948 60.3167 145.95H73.2745C73.4376 145.95 73.594 146.014 73.7093 146.129C73.8246 146.245 73.8894 146.401 73.8894 146.563C73.8894 146.726 73.8246 146.882 73.7093 146.998C73.594 147.113 73.4376 147.177 73.2745 147.177H60.3167C60.1595 147.18 60.0066 147.228 59.8774 147.318C59.7813 147.387 59.7033 147.477 59.6497 147.583C59.5962 147.688 59.5689 147.805 59.57 147.923V150.554C59.5676 150.715 59.5018 150.869 59.3868 150.982C59.2717 151.096 59.1166 151.159 58.955 151.159ZM157.311 150.668C157.148 150.668 156.992 150.603 156.877 150.488C156.761 150.373 156.697 150.217 156.697 150.054V148.449C156.695 148.098 156.556 147.761 156.31 147.511C156.187 147.387 156.04 147.29 155.879 147.224C155.717 147.157 155.544 147.124 155.37 147.125H139.865C139.701 147.125 139.545 147.06 139.43 146.945C139.314 146.83 139.25 146.674 139.25 146.511C139.25 146.348 139.314 146.192 139.43 146.077C139.545 145.962 139.701 145.897 139.865 145.897H155.388C155.724 145.896 156.057 145.961 156.367 146.089C156.678 146.217 156.96 146.405 157.198 146.642C157.435 146.879 157.624 147.161 157.752 147.471C157.88 147.781 157.945 148.114 157.944 148.449V150.054C157.944 150.136 157.928 150.217 157.896 150.293C157.864 150.369 157.817 150.437 157.758 150.494C157.699 150.552 157.629 150.596 157.552 150.626C157.476 150.656 157.394 150.67 157.311 150.668ZM130.201 150.808C130.038 150.808 129.882 150.743 129.766 150.628C129.651 150.513 129.586 150.357 129.586 150.194V147.932C129.586 147.763 129.547 147.597 129.475 147.446C129.402 147.294 129.296 147.16 129.164 147.055C128.956 146.878 128.691 146.782 128.418 146.783H116.496C116.333 146.783 116.177 146.718 116.062 146.603C115.946 146.488 115.882 146.332 115.882 146.169C115.882 146.006 115.946 145.85 116.062 145.735C116.177 145.62 116.333 145.555 116.496 145.555H128.426C128.741 145.555 129.052 145.617 129.343 145.737C129.633 145.858 129.897 146.034 130.119 146.257C130.341 146.479 130.517 146.743 130.637 147.034C130.756 147.324 130.817 147.635 130.816 147.949V150.212C130.811 150.372 130.745 150.523 130.63 150.635C130.515 150.746 130.361 150.808 130.201 150.808ZM20.3012 164.665C20.1381 164.665 19.9817 164.6 19.8663 164.485C19.751 164.37 19.6862 164.214 19.6862 164.051V162.849C19.6862 162.524 19.7505 162.201 19.8755 161.9C20.0004 161.599 20.1835 161.325 20.4144 161.094C20.6453 160.864 20.9193 160.681 21.221 160.556C21.5226 160.432 21.8459 160.368 22.1724 160.368H68.882C69.0451 160.368 69.2015 160.432 69.3168 160.547C69.4322 160.662 69.497 160.819 69.497 160.981C69.497 161.144 69.4322 161.3 69.3168 161.416C69.2015 161.531 69.0451 161.595 68.882 161.595H22.1724C22.0071 161.594 21.8432 161.626 21.6902 161.688C21.5373 161.751 21.3983 161.843 21.2815 161.96C21.1646 162.077 21.0721 162.215 21.0094 162.368C20.9466 162.521 20.9149 162.684 20.9161 162.849V164.051C20.9161 164.132 20.9002 164.211 20.8693 164.286C20.8384 164.36 20.7931 164.428 20.736 164.485C20.6789 164.542 20.6111 164.587 20.5365 164.618C20.4619 164.649 20.3819 164.665 20.3012 164.665ZM168.565 166.121C168.402 166.121 168.245 166.056 168.13 165.941C168.015 165.826 167.95 165.67 167.95 165.507V163.025C167.948 162.591 167.774 162.175 167.466 161.868C167.159 161.561 166.742 161.387 166.307 161.385H135.56C135.397 161.385 135.24 161.32 135.125 161.205C135.01 161.09 134.945 160.934 134.945 160.771C134.945 160.608 135.01 160.452 135.125 160.337C135.24 160.222 135.397 160.157 135.56 160.157H166.307C167.068 160.159 167.798 160.462 168.336 161C168.874 161.537 169.178 162.265 169.18 163.025V165.507C169.18 165.67 169.115 165.826 169 165.941C168.884 166.056 168.728 166.121 168.565 166.121Z" fill="#92B1DD"/>
<path d="M93.8489 145.748C99.4333 145.748 103.96 137.553 103.96 127.445C103.96 117.336 99.4333 109.142 93.8489 109.142C88.2645 109.142 83.7374 117.336 83.7374 127.445C83.7374 137.553 88.2645 145.748 93.8489 145.748Z" fill="#7394BC"/>
<path d="M93.805 138.337C98.2056 138.337 101.773 132.424 101.773 125.129C101.773 117.835 98.2056 111.922 93.805 111.922C89.4044 111.922 85.837 117.835 85.837 125.129C85.837 132.424 89.4044 138.337 93.805 138.337Z" fill="#35435E"/>
<path d="M190.308 134.11C187.4 137.679 182.884 140.749 176.919 143.169L171.648 144.757C158.313 147.519 148.746 144.222 144.969 135.311C144.679 134.628 144.43 133.928 144.222 133.215C140.708 121.49 154.14 106.537 154.14 106.537L159.411 104.923L168.31 102.204L169.083 101.968H169.162L169.514 102.055C172.509 102.81 189.948 107.659 193.233 118.333C194.16 120.99 194.378 123.842 193.865 126.608C193.352 129.375 192.126 131.96 190.308 134.11Z" fill="#FFAF5F"/>
<path opacity="0.54" d="M190.308 134.11C187.4 137.679 182.884 140.749 176.919 143.169L171.648 144.757C158.313 147.519 148.746 144.222 144.969 135.311C144.679 134.628 144.43 133.928 144.222 133.215C140.708 121.49 154.14 106.537 154.14 106.537L159.411 104.923L168.31 102.204L169.083 101.968H169.162V104.704C168.948 105.207 168.708 105.699 168.442 106.177L168.363 106.309C168.094 106.792 167.783 107.25 167.432 107.677C167.272 107.908 167.068 108.104 166.831 108.255C166.594 108.406 166.329 108.507 166.052 108.554C164.541 108.598 157.268 111.79 155.431 113.114C153.885 114.211 151.039 123.095 151.303 129.12C151.326 130.263 151.549 131.394 151.961 132.461C154.193 137.723 170.085 142.231 173.441 141.231C175.25 140.731 183.209 137.258 190.308 134.11Z" fill="#F76D3E"/>
<path d="M167.238 103.038C167.238 103.038 162.96 105.599 163.891 106.993C164.519 107.733 165.319 108.307 166.221 108.665C167.124 109.023 168.101 109.154 169.066 109.045C170.559 108.677 169.4 103.222 169.4 103.222L168.521 102.792C168.521 102.792 168.864 106.923 167.95 107.537C167.036 108.151 165.262 107.002 165.833 105.827C166.433 104.858 167.197 104.001 168.091 103.292L167.238 103.038Z" fill="#CEDBEE"/>
<path d="M168.337 102.204C168.337 102.204 169.215 105.791 170.84 107.668C172.466 109.545 173.335 109.773 173.335 109.773C173.335 109.773 174.706 109.861 175.031 109.256C175.222 108.913 175.336 108.533 175.365 108.142C175.365 108.142 169.883 103.415 169.277 102.248C168.67 101.082 168.214 101.819 168.337 102.204Z" fill="#DFE9F4"/>
<path d="M154.07 102.652C154.07 102.652 145.531 102.546 143.976 99.6524C142.421 96.7583 145.522 97.2494 147.648 96.7758C149.774 96.3022 149.537 93.0047 151.645 92.4522C153.754 91.8996 155.862 94.1185 157.382 92.4522C158.902 90.7858 160.342 88.6109 161.827 89.3388C163.312 90.0667 164.041 91.3559 166.474 90.2158C168.908 89.0757 170.296 87.5848 171.455 89.9702C172.615 92.3557 167.572 98.5473 167.572 98.5473L154.07 102.652Z" fill="#FFAF5F"/>
<path d="M168.679 100.45C168.602 100.595 168.497 100.722 168.371 100.826C168.244 100.93 168.098 101.008 167.941 101.056L156.389 104.564L154.983 104.993C154.686 105.082 154.366 105.058 154.085 104.925C153.805 104.792 153.583 104.56 153.464 104.274C153.464 104.274 153.464 104.195 153.42 104.16C153.328 103.849 153.361 103.513 153.512 103.226C153.662 102.938 153.919 102.719 154.228 102.617L167.186 98.6877C167.501 98.5949 167.841 98.6304 168.131 98.7864C168.42 98.9425 168.636 99.2064 168.732 99.5208C168.838 99.8255 168.819 100.16 168.679 100.45Z" fill="#F5F5F7"/>
<path d="M169.505 102.59C169.482 102.676 169.45 102.758 169.408 102.836C169.354 102.943 169.283 103.041 169.198 103.125C169.062 103.26 168.896 103.363 168.714 103.423H168.591L167.528 103.748L165.271 104.432L162.468 105.309L155.73 107.361C155.57 107.408 155.403 107.422 155.238 107.403C155.072 107.384 154.912 107.332 154.768 107.25C154.623 107.168 154.496 107.058 154.394 106.927C154.292 106.795 154.218 106.645 154.175 106.484C154.081 106.168 154.116 105.828 154.272 105.537C154.349 105.393 154.454 105.265 154.581 105.161C154.707 105.057 154.853 104.979 155.01 104.932L156.415 104.502L167.968 100.994C168.127 100.948 168.295 100.934 168.46 100.953C168.626 100.972 168.785 101.024 168.93 101.106C169.075 101.187 169.202 101.297 169.304 101.429C169.406 101.56 169.48 101.711 169.523 101.871C169.527 101.933 169.527 101.994 169.523 102.055C169.546 102.233 169.54 102.414 169.505 102.59Z" fill="#DFE9F4"/>
<path d="M179.118 125.697C180.02 120.146 176.244 114.916 170.684 114.015C165.124 113.114 159.885 116.883 158.983 122.434C158.08 127.985 161.856 133.215 167.416 134.116C172.976 135.017 178.215 131.247 179.118 125.697Z" fill="white"/>
<path d="M173.239 125.059C173.101 124.645 172.859 124.274 172.536 123.981C172.249 123.737 171.914 123.558 171.552 123.454C171.178 123.347 170.79 123.294 170.401 123.296H169.189L168.31 120.087C168.509 120.07 168.709 120.07 168.908 120.087H169.426L169.848 120.13C169.943 120.151 170.042 120.151 170.138 120.13C170.228 120.098 170.307 120.04 170.366 119.964C170.426 119.87 170.468 119.766 170.489 119.657L170.682 118.78C170.272 118.608 169.84 118.491 169.4 118.429C168.885 118.359 168.361 118.38 167.853 118.49L167.432 116.964L166.747 117.219C166.679 117.24 166.617 117.277 166.565 117.325C166.514 117.374 166.473 117.433 166.448 117.499C166.404 117.624 166.404 117.76 166.448 117.885L166.72 118.876C166.213 119.052 165.749 119.333 165.358 119.701C165.021 120.018 164.747 120.396 164.55 120.815C164.37 121.2 164.268 121.617 164.252 122.042C164.231 122.452 164.296 122.861 164.445 123.244C164.596 123.69 164.848 124.095 165.183 124.428C165.467 124.696 165.805 124.899 166.175 125.024C166.543 125.148 166.929 125.21 167.318 125.208H168.503L169.479 128.716C169.21 128.769 168.935 128.784 168.662 128.76C168.437 128.739 168.213 128.701 167.994 128.646L167.458 128.532C167.33 128.491 167.191 128.491 167.063 128.532C166.972 128.568 166.89 128.625 166.826 128.699C166.766 128.775 166.722 128.861 166.694 128.953L166.439 130.014C166.959 130.243 167.515 130.379 168.082 130.418C168.697 130.461 169.315 130.416 169.918 130.286L170.322 131.917L171.007 131.663C171.075 131.642 171.137 131.605 171.189 131.557C171.24 131.508 171.28 131.449 171.306 131.382C171.349 131.261 171.349 131.127 171.306 131.005L170.981 129.865C171.483 129.656 171.945 129.359 172.343 128.988C172.688 128.653 172.966 128.254 173.16 127.813C173.342 127.392 173.435 126.938 173.432 126.48C173.459 125.998 173.394 125.516 173.239 125.059ZM167.326 123.305C167.144 123.281 166.967 123.23 166.799 123.156C166.644 123.087 166.502 122.992 166.378 122.876C166.249 122.743 166.15 122.584 166.088 122.411C166.029 122.251 165.999 122.081 166 121.911C166.003 121.737 166.045 121.566 166.123 121.411C166.215 121.229 166.34 121.065 166.492 120.929C166.683 120.752 166.899 120.604 167.133 120.49L167.941 123.358C167.686 123.393 167.52 123.375 167.326 123.349V123.305ZM171.596 127.243C171.385 127.681 171.028 128.031 170.586 128.234L169.707 125.094C169.915 125.081 170.123 125.081 170.331 125.094C170.514 125.11 170.695 125.152 170.867 125.217C171.027 125.278 171.173 125.371 171.297 125.489C171.429 125.619 171.529 125.778 171.587 125.954C171.682 126.163 171.732 126.39 171.733 126.619C171.735 126.849 171.688 127.076 171.596 127.287V127.243Z" fill="#F76D3E"/>
<path opacity="0.6" d="M173.836 107.423L172.176 109.028L166.905 114.106L159.13 121.621L151.32 129.172L144.969 135.312C144.679 134.628 144.43 133.928 144.222 133.215C140.708 121.49 154.14 106.537 154.14 106.537C154.046 106.221 154.081 105.881 154.237 105.59C154.314 105.445 154.419 105.318 154.545 105.214C154.672 105.11 154.818 105.032 154.975 104.985C154.677 105.074 154.357 105.049 154.076 104.916C153.796 104.784 153.574 104.552 153.455 104.266C154.439 104.353 155.414 104.45 156.38 104.555C157.417 104.669 158.436 104.792 159.429 104.923C160.421 105.055 161.449 105.195 162.407 105.335L164.164 105.599L165.806 105.87C166.738 106.028 167.607 106.177 168.442 106.326H168.495L169.874 106.59L170.181 106.651C172.439 107.107 173.836 107.423 173.836 107.423Z" fill="#F76D3E"/>
<path d="M150.055 105.748C150.055 105.748 156.573 100.056 157.689 99.5471C158.805 99.0385 169.4 97.0038 169.988 98.0212C170.577 99.0385 169.373 100.363 169.373 100.363C169.373 100.363 171.719 101.178 171.613 101.784C171.508 102.389 170.498 103.108 170.498 103.108C170.928 102.909 171.416 102.876 171.87 103.013C172.323 103.151 172.71 103.45 172.957 103.853C173.774 105.274 172.079 105.783 172.079 105.783C172.079 105.783 174.117 106.186 173.836 107.203C173.454 107.981 172.84 108.621 172.079 109.036C172.079 109.036 167.089 109.852 165.868 110.255C164.647 110.659 162.205 113.202 159.657 113.711C157.397 114.039 155.114 114.174 152.831 114.114L150.055 105.748Z" fill="#FFB2A8"/>
<path d="M163.189 101.678C163.141 101.677 163.095 101.66 163.058 101.63C163.022 101.6 162.996 101.558 162.987 101.512C162.981 101.485 162.982 101.458 162.988 101.432C162.993 101.405 163.004 101.38 163.02 101.358C163.035 101.336 163.055 101.317 163.078 101.303C163.101 101.289 163.127 101.279 163.153 101.275L169.364 100.161C169.418 100.152 169.473 100.164 169.518 100.195C169.562 100.227 169.592 100.274 169.602 100.328C169.611 100.381 169.599 100.436 169.567 100.481C169.536 100.525 169.488 100.555 169.435 100.565L163.224 101.678H163.189ZM165.631 104.423C165.584 104.424 165.538 104.409 165.501 104.381C165.465 104.352 165.439 104.311 165.429 104.266C165.418 104.213 165.427 104.159 165.455 104.113C165.483 104.068 165.527 104.034 165.578 104.02L170.463 102.906C170.488 102.9 170.515 102.899 170.542 102.903C170.568 102.907 170.594 102.916 170.616 102.93C170.639 102.944 170.659 102.962 170.675 102.983C170.691 103.005 170.702 103.029 170.708 103.055C170.715 103.081 170.716 103.108 170.712 103.134C170.708 103.161 170.699 103.186 170.685 103.209C170.671 103.232 170.653 103.252 170.631 103.267C170.61 103.283 170.585 103.294 170.559 103.301L165.675 104.415L165.631 104.423ZM167.063 106.66C167.009 106.66 166.958 106.638 166.92 106.601C166.882 106.563 166.861 106.512 166.861 106.458C166.861 106.405 166.882 106.353 166.92 106.315C166.958 106.278 167.009 106.256 167.063 106.256L172.053 105.748C172.106 105.748 172.158 105.769 172.195 105.807C172.233 105.845 172.255 105.896 172.255 105.949C172.255 106.003 172.233 106.054 172.195 106.092C172.158 106.13 172.106 106.151 172.053 106.151L167.063 106.66Z" fill="#F27C85"/>
<path d="M146.796 105.748C146.796 105.748 151.276 103.511 151.68 104.529C152.084 105.546 155.247 114.491 154.535 115.307C153.824 116.123 149.264 117.236 149.264 117.236L146.796 105.748Z" fill="white"/>
<path d="M151.171 117.947C150.354 119.981 118.666 126.787 114.274 127.708C111.392 128.313 102.309 129.313 96.458 129.927C95.1608 130.063 93.8493 129.91 92.6189 129.477C91.3885 129.045 90.2701 128.344 89.3448 127.426C88.4194 126.508 87.7105 125.396 87.2694 124.171C86.8283 122.945 86.6661 121.637 86.7946 120.341V120.087C86.9969 118.722 87.4947 117.419 88.2533 116.266C89.0119 115.113 90.0131 114.14 91.187 113.413C92.1709 112.76 93.2764 112.313 94.4375 112.097C94.8116 112.026 95.1903 111.982 95.5707 111.966C99.9632 111.729 111.384 111.089 113.141 110.834C115.275 110.527 147.859 103.213 148.474 104.695C149.465 107.529 150.275 110.423 150.898 113.36C151.267 115.421 151.478 117.201 151.171 117.947Z" fill="#35435E"/>
<path d="M151.171 117.947C150.354 119.981 118.666 126.787 114.274 127.708C111.392 128.313 102.309 129.313 96.458 129.927C95.1608 130.063 93.8493 129.91 92.6189 129.477C91.3885 129.045 90.2701 128.344 89.3448 127.426C88.4194 126.508 87.7105 125.396 87.2694 124.171C86.8283 122.945 86.6661 121.637 86.7946 120.341V120.087C86.9969 118.722 87.4947 117.418 88.2533 116.266C89.0119 115.113 90.0131 114.14 91.187 113.413C92.1709 112.76 93.2764 112.313 94.4375 112.097C93.8443 113.765 93.4147 115.486 93.1549 117.236C92.8474 120.692 109.144 122.928 111.893 120.893C114.643 118.859 118.508 120.692 121.557 120.385C123.691 120.174 140.787 115.93 150.863 113.369C151.267 115.421 151.478 117.201 151.171 117.947Z" fill="#1E2D44"/>
<path d="M152.146 102.976H152.102C151.267 102.889 143.967 102.02 143.37 99.021C143.293 98.761 143.272 98.488 143.306 98.2193C143.341 97.9506 143.432 97.692 143.572 97.4599C144.139 96.8971 144.907 96.5817 145.707 96.5829C146.676 96.5253 147.6 96.1561 148.342 95.5305C148.377 95.4893 148.42 95.4556 148.468 95.4316C148.516 95.4075 148.569 95.3936 148.623 95.3907C148.677 95.3877 148.731 95.3958 148.781 95.4145C148.832 95.4332 148.878 95.462 148.917 95.4992C148.956 95.5363 148.987 95.5811 149.008 95.6307C149.029 95.6804 149.04 95.7337 149.04 95.7876C149.039 95.8415 149.028 95.8947 149.006 95.944C148.984 95.9933 148.953 96.0377 148.913 96.0743C148.053 96.8328 146.966 97.2861 145.821 97.3635C145.083 97.4863 144.442 97.5915 144.204 97.9335C144.129 98.0784 144.084 98.2367 144.07 98.3992C144.056 98.5618 144.075 98.7254 144.125 98.8807C144.538 100.95 150.073 101.985 152.163 102.205C152.216 102.21 152.266 102.226 152.312 102.251C152.358 102.276 152.398 102.31 152.431 102.351C152.464 102.391 152.488 102.438 152.502 102.488C152.517 102.539 152.521 102.591 152.515 102.643C152.503 102.733 152.459 102.816 152.391 102.877C152.324 102.938 152.237 102.973 152.146 102.976ZM157.092 93.2328C157.02 93.2337 156.949 93.215 156.887 93.1786C156.825 93.1423 156.774 93.0896 156.739 93.0264C156.705 92.9632 156.688 92.8919 156.692 92.82C156.695 92.7482 156.718 92.6787 156.758 92.6189C157.013 92.233 159.332 88.8127 161.15 88.7162C161.501 88.7061 161.851 88.766 162.178 88.8925C162.505 89.019 162.804 89.2095 163.057 89.4529C163.352 89.7406 163.705 89.9616 164.093 90.1008C164.481 90.2401 164.895 90.2943 165.306 90.2597C165.411 90.2597 165.511 90.3013 165.585 90.3753C165.659 90.4493 165.701 90.5497 165.701 90.6544C165.701 90.759 165.659 90.8594 165.585 90.9334C165.511 91.0074 165.411 91.049 165.306 91.049C164.804 91.0766 164.302 91.0047 163.829 90.8376C163.356 90.6706 162.92 90.4115 162.547 90.0756C162.372 89.8901 162.159 89.7435 161.923 89.6453C161.687 89.5471 161.433 89.4995 161.177 89.5055C160.105 89.5581 158.295 91.7156 157.408 93.0135C157.379 93.0745 157.335 93.1268 157.279 93.1653C157.224 93.2037 157.159 93.227 157.092 93.2328ZM169.259 96.4952C169.173 96.4959 169.09 96.4681 169.022 96.4163C168.938 96.3534 168.883 96.2607 168.866 96.1577C168.85 96.0547 168.874 95.9494 168.934 95.8638C168.934 95.8638 171.323 92.575 171.236 90.365C171.236 90.2603 171.277 90.1599 171.351 90.0859C171.426 90.0119 171.526 89.9703 171.631 89.9703C171.736 89.9703 171.836 90.0119 171.91 90.0859C171.985 90.1599 172.026 90.2603 172.026 90.365C172.123 92.8557 169.681 96.2234 169.575 96.3725C169.535 96.4156 169.486 96.4491 169.431 96.4703C169.377 96.4916 169.318 96.5001 169.259 96.4952ZM194.331 124.314C194.229 124.314 194.131 124.275 194.058 124.205C193.984 124.134 193.941 124.038 193.936 123.937C193.383 111.659 178.914 105.906 178.764 105.853C178.668 105.814 178.591 105.739 178.55 105.643C178.509 105.548 178.507 105.441 178.545 105.344C178.582 105.247 178.657 105.168 178.752 105.125C178.848 105.082 178.956 105.079 179.054 105.116C179.204 105.178 194.147 111.071 194.727 123.902C194.729 123.954 194.721 124.005 194.703 124.054C194.686 124.103 194.658 124.148 194.623 124.186C194.588 124.224 194.546 124.255 194.499 124.277C194.452 124.299 194.401 124.312 194.349 124.314H194.331ZM162.416 145.95C156.925 145.95 152.532 144.546 149.317 141.758C142.482 135.829 143.475 125.577 143.484 125.472C143.485 125.416 143.497 125.362 143.52 125.312C143.543 125.262 143.576 125.217 143.618 125.181C143.659 125.144 143.708 125.117 143.76 125.1C143.813 125.084 143.869 125.078 143.923 125.084C143.978 125.091 144.031 125.108 144.079 125.136C144.126 125.164 144.168 125.201 144.2 125.246C144.232 125.291 144.255 125.342 144.266 125.396C144.277 125.45 144.277 125.505 144.266 125.559C144.266 125.656 143.317 135.513 149.835 141.161C154.799 145.467 162.732 146.3 173.406 143.643C173.508 143.617 173.617 143.634 173.707 143.688C173.798 143.742 173.863 143.83 173.889 143.932C173.914 144.035 173.898 144.143 173.844 144.234C173.789 144.324 173.701 144.389 173.599 144.415C169.947 145.376 166.192 145.891 162.416 145.95Z" fill="#F76D3E"/>
<path d="M93.8313 51.6714C99.2848 51.6714 103.706 47.258 103.706 41.8138C103.706 36.3697 99.2848 31.9563 93.8313 31.9563C88.3779 31.9563 83.957 36.3697 83.957 41.8138C83.957 47.258 88.3779 51.6714 93.8313 51.6714Z" fill="#FFAF5F"/>
<path d="M100.789 41.8138C100.789 43.1876 100.381 44.5305 99.6165 45.6727C98.8519 46.815 97.7653 47.7052 96.4939 48.231C95.2226 48.7567 93.8236 48.8942 92.474 48.6262C91.1243 48.3582 89.8846 47.6967 88.9115 46.7253C87.9385 45.7539 87.2758 44.5163 87.0073 43.1689C86.7389 41.8215 86.8767 40.4249 87.4033 39.1557C87.9299 37.8865 88.8217 36.8017 89.9659 36.0385C91.1101 35.2753 92.4553 34.8679 93.8314 34.8679C95.6759 34.8702 97.4443 35.6028 98.7486 36.9049C100.053 38.207 100.787 39.9724 100.789 41.8138Z" fill="white"/>
<path d="M93.8313 34.3154C92.3458 34.3154 90.8936 34.7552 89.6584 35.5791C88.4232 36.4031 87.4604 37.5742 86.8919 38.9443C86.3234 40.3145 86.1747 41.8222 86.4645 43.2767C86.7543 44.7312 87.4697 46.0673 88.5202 47.116C89.5706 48.1647 90.909 48.8788 92.366 49.1681C93.823 49.4575 95.3332 49.309 96.7057 48.7415C98.0782 48.1739 99.2513 47.2128 100.077 45.9797C100.902 44.7466 101.342 43.2969 101.342 41.8138C101.342 39.8251 100.551 37.9179 99.1425 36.5117C97.7339 35.1054 95.8234 34.3154 93.8313 34.3154ZM93.8313 48.7597C92.4552 48.7597 91.11 48.3523 89.9658 47.5891C88.8217 46.8259 87.9299 45.7411 87.4033 44.4719C86.8767 43.2027 86.7389 41.8061 87.0073 40.4588C87.2758 39.1114 87.9385 37.8737 88.9115 36.9023C89.8846 35.9309 91.1243 35.2694 92.474 35.0014C93.8236 34.7334 95.2226 34.871 96.4939 35.3967C97.7653 35.9224 98.8519 36.8127 99.6164 37.9549C100.381 39.0971 100.789 40.4401 100.789 41.8138C100.787 43.6553 100.053 45.4206 98.7486 46.7227C97.4443 48.0249 95.6759 48.7574 93.8313 48.7597Z" fill="#F76D3E"/>
<path d="M100.789 41.8138C100.789 43.1876 100.381 44.5305 99.6165 45.6727C98.8519 46.815 97.7653 47.7052 96.4939 48.231C95.2226 48.7567 93.8236 48.8942 92.474 48.6262C91.1243 48.3582 89.8846 47.6967 88.9115 46.7253C87.9385 45.7539 87.2758 44.5163 87.0073 43.1689C86.7389 41.8215 86.8767 40.4249 87.4033 39.1557C87.9299 37.8865 88.8217 36.8017 89.9659 36.0385C91.1101 35.2753 92.4553 34.8679 93.8314 34.8679C95.6759 34.8702 97.4443 35.6028 98.7486 36.9049C100.053 38.207 100.787 39.9724 100.789 41.8138Z" fill="#FFE3AB"/>
<path d="M93.8313 44.2168C92.3877 44.216 90.98 43.7674 89.8028 42.9332C88.6256 42.0989 87.7372 40.9202 87.2602 39.5599C87.0049 40.2962 86.8743 41.0698 86.8737 41.8489C86.8737 43.6911 87.6067 45.4578 88.9115 46.7604C90.2163 48.063 91.9861 48.7948 93.8313 48.7948C95.6766 48.7948 97.4464 48.063 98.7512 46.7604C100.056 45.4578 100.789 43.6911 100.789 41.8489C100.787 41.0699 100.657 40.2965 100.403 39.5599C99.9255 40.9202 99.037 42.0989 97.8599 42.9332C96.6827 43.7674 95.275 44.216 93.8313 44.2168Z" fill="#FFAF5F"/>
<path d="M93.1636 46.0498C92.716 45.9926 92.2802 45.8653 91.8722 45.6727C91.4905 45.5018 91.1424 45.2642 90.8444 44.9711L91.2924 44.3046C91.3295 44.2427 91.3847 44.1937 91.4506 44.1643C91.5121 44.1293 91.5818 44.1112 91.6526 44.1116C91.7526 44.1145 91.8499 44.1449 91.9337 44.1993L92.2676 44.4098C92.4066 44.4992 92.5503 44.5812 92.698 44.6554C92.8795 44.7415 93.0714 44.8034 93.2691 44.8395L93.4887 42.2085C93.2076 42.1296 92.9352 42.0331 92.6629 41.9279C92.3967 41.8262 92.1478 41.6842 91.925 41.5069C91.701 41.3274 91.5208 41.0995 91.3979 40.8404C91.2558 40.5266 91.1867 40.1848 91.1958 39.8406C91.198 39.5398 91.2577 39.2421 91.3715 38.9636C91.49 38.6765 91.6664 38.4167 91.8898 38.2006C92.143 37.9601 92.4417 37.7723 92.7683 37.6481C93.1322 37.4949 93.5243 37.4202 93.9191 37.4288L93.9806 36.6834C93.9872 36.5878 94.0277 36.4976 94.0948 36.4291C94.1306 36.3908 94.1742 36.3607 94.2228 36.3411C94.2713 36.3214 94.3236 36.3125 94.376 36.315H94.9118L94.7713 37.4727C95.1481 37.5303 95.5131 37.6488 95.8518 37.8235C96.1369 37.9818 96.4023 38.1731 96.6425 38.3936L96.2911 38.9285C96.2469 38.9969 96.1903 39.0564 96.1242 39.1039C96.0642 39.1436 95.994 39.1649 95.9221 39.1653C95.8489 39.1626 95.7771 39.1447 95.7113 39.1127L95.4302 38.9811L95.0875 38.8233C94.9513 38.7665 94.8102 38.7225 94.6659 38.6917L94.4638 41.1298C94.7449 41.2175 95.0378 41.314 95.3423 41.4192C95.6097 41.5164 95.8613 41.6523 96.089 41.8226C96.3101 41.9861 96.493 42.1956 96.6249 42.4365C96.7642 42.7076 96.8337 43.009 96.827 43.3136C96.8302 43.6641 96.7676 44.0121 96.6425 44.3397C96.5255 44.6653 96.3431 44.9638 96.1066 45.2167C95.8573 45.4729 95.5584 45.6758 95.2281 45.813C94.857 45.9709 94.4621 46.0658 94.0597 46.0937L93.9894 46.9707C93.9795 47.0654 93.9394 47.1545 93.8752 47.225C93.8395 47.2633 93.7958 47.2933 93.7473 47.313C93.6987 47.3327 93.6464 47.3416 93.5941 47.339H93.0143L93.1636 46.0498ZM92.575 39.7091C92.5722 39.8448 92.5992 39.9795 92.6541 40.1037C92.7079 40.2164 92.779 40.32 92.8649 40.4107C92.9626 40.5033 93.0718 40.5829 93.19 40.6475C93.3219 40.7209 93.46 40.7826 93.6029 40.8316L93.7874 38.6567C93.5966 38.674 93.4098 38.7214 93.2339 38.797C93.0938 38.8508 92.9655 38.9312 92.8562 39.0338C92.7636 39.1224 92.6917 39.2301 92.6453 39.3495C92.5943 39.4623 92.5702 39.5854 92.575 39.7091ZM95.4389 43.5591C95.4418 43.4234 95.4148 43.2887 95.3599 43.1645C95.3049 43.0529 95.2305 42.9519 95.1402 42.8663C95.0378 42.7763 94.9223 42.7023 94.7976 42.647C94.6615 42.581 94.5205 42.5253 94.376 42.4804L94.1739 44.8659C94.5295 44.8396 94.8649 44.6908 95.1227 44.4449C95.3368 44.2004 95.4499 43.8837 95.4389 43.5591ZM84.3435 39.1215H84.282C84.2543 39.1134 84.2285 39.1 84.206 39.082C84.1835 39.0639 84.1648 39.0417 84.151 39.0164C84.1371 38.9912 84.1283 38.9634 84.1252 38.9348C84.1221 38.9062 84.1246 38.8772 84.1327 38.8496C84.9055 36.4758 86.5095 34.4597 88.6508 33.1711C90.792 31.8824 93.3268 31.4075 95.7903 31.8335C95.8478 31.8423 95.8998 31.8725 95.9357 31.9181C95.9716 31.9637 95.9887 32.0213 95.9836 32.0791C95.973 32.1356 95.9422 32.1863 95.897 32.2218C95.8517 32.2573 95.7951 32.2752 95.7376 32.2721C93.38 31.8554 90.9509 32.3018 88.8965 33.5295C86.8421 34.7571 85.3003 36.6835 84.5544 38.9548C84.5427 39.002 84.5156 39.044 84.4775 39.0741C84.4393 39.1043 84.3922 39.1209 84.3435 39.1215ZM95.4214 51.7065C95.3704 51.7059 95.3211 51.6883 95.2813 51.6565C95.2415 51.6248 95.2135 51.5806 95.2017 51.5311C95.1912 51.4754 95.2027 51.4178 95.2339 51.3704C95.265 51.3229 95.3133 51.2894 95.3687 51.2768C103.275 49.5228 103.477 42.8926 103.486 42.6119C103.488 42.5553 103.512 42.5018 103.553 42.4626C103.594 42.4233 103.649 42.4014 103.706 42.4015C103.764 42.4015 103.82 42.4246 103.861 42.4657C103.902 42.5068 103.925 42.5626 103.925 42.6207C103.925 42.6996 103.679 49.856 95.4653 51.6977L95.4214 51.7065Z" fill="#F76D3E"/>
<path d="M194.138 168.795C194.138 171.163 191.88 173.075 189.095 173.075H165.754C165.447 174.133 164.79 175.056 163.891 175.694C162.991 176.331 161.901 176.644 160.799 176.583L40.7965 176.452C39.6955 176.51 38.6071 176.195 37.7078 175.558C36.8085 174.921 36.151 174 35.8418 172.944H25.6512C24.3517 172.957 23.089 172.513 22.0845 171.69C21.6326 171.323 21.2664 170.862 21.0114 170.34C20.7565 169.817 20.619 169.245 20.6086 168.664C20.6043 168.588 20.6043 168.512 20.6086 168.436C20.6243 168.23 20.6537 168.024 20.6965 167.822C20.7711 167.715 20.8713 167.629 20.9879 167.571C21.1045 167.512 21.2338 167.484 21.3641 167.489L193.356 167.673C193.486 167.668 193.616 167.697 193.732 167.755C193.849 167.813 193.949 167.899 194.024 168.006C194.071 168.208 194.1 168.413 194.112 168.62C194.126 168.678 194.135 168.736 194.138 168.795Z" fill="#DFE9F4"/>
<path d="M194.138 168.269V168.489C194.142 168.515 194.142 168.541 194.138 168.568C194.101 168.737 194.004 168.887 193.866 168.992C193.727 169.096 193.556 169.148 193.383 169.138L21.3905 168.953C21.2168 168.966 21.0446 168.915 20.9057 168.81C20.7669 168.705 20.6707 168.554 20.635 168.383C20.635 168.383 20.635 168.331 20.635 168.304V168.085C20.6358 167.973 20.6694 167.863 20.7316 167.77C20.8063 167.663 20.9065 167.576 21.0231 167.518C21.1397 167.46 21.269 167.432 21.3993 167.436L193.391 167.62C193.522 167.616 193.651 167.644 193.768 167.702C193.884 167.761 193.984 167.847 194.059 167.954C194.115 168.049 194.142 168.159 194.138 168.269ZM123.164 172.996L35.8506 172.9C35.6945 172.9 35.5447 172.838 35.4344 172.728C35.324 172.618 35.262 172.468 35.262 172.312V171.918C35.262 171.762 35.324 171.612 35.4344 171.502C35.5447 171.392 35.6945 171.33 35.8506 171.33L123.164 171.427C123.32 171.427 123.47 171.489 123.581 171.599C123.691 171.709 123.753 171.858 123.753 172.014V172.409C123.751 172.564 123.688 172.712 123.578 172.822C123.468 172.932 123.32 172.994 123.164 172.996ZM173.283 173.049L130.236 173.005C130.08 173.005 129.93 172.943 129.82 172.833C129.71 172.723 129.648 172.573 129.648 172.418V172.023C129.648 171.867 129.71 171.718 129.82 171.607C129.93 171.497 130.08 171.435 130.236 171.435L173.283 171.479C173.439 171.479 173.588 171.541 173.699 171.651C173.809 171.762 173.871 171.911 173.871 172.067V172.461C173.872 172.539 173.858 172.616 173.829 172.688C173.8 172.76 173.756 172.825 173.701 172.88C173.646 172.934 173.581 172.978 173.509 173.007C173.437 173.036 173.36 173.05 173.283 173.049Z" fill="#92B1DD"/>
<path opacity="0.39" d="M78.1677 93.8904V93.4782C78.1717 93.4403 78.1717 93.4021 78.1677 93.3642V92.0575L78.115 91.6541C78.115 91.5313 78.115 91.3997 78.0535 91.277C77.992 91.1542 78.0535 91.2156 78.0535 91.1805C78.0535 91.1454 78.0535 90.97 77.992 90.8648C77.9305 90.7595 77.992 90.8121 77.992 90.7858C77.992 90.7595 77.9393 90.5227 77.9042 90.3999L77.8251 90.0579V89.9439L77.746 89.6633V89.558L77.6406 89.216C76.5443 85.6676 74.3379 82.5632 71.345 80.358C68.3522 78.1529 64.7304 76.9631 61.0107 76.9631C57.291 76.9631 53.6691 78.1529 50.6763 80.358C47.6834 82.5632 45.4771 85.6676 44.3807 89.216L44.2753 89.558V89.6633L44.1963 89.9439V90.0579L44.1172 90.3999C44.1172 90.3999 44.0557 90.6543 44.0293 90.7858C44.003 90.9174 44.0293 90.8384 44.0293 90.8648C44.0293 90.8911 44.0293 91.0752 43.9678 91.1805C43.9063 91.2857 43.9678 91.2419 43.9678 91.277C43.9678 91.312 43.9678 91.5313 43.9063 91.6541L43.8536 92.0487V93.3555C43.8576 93.3934 43.8576 93.4316 43.8536 93.4695V94.2851C43.8536 98.8928 45.6872 103.312 48.9509 106.57C52.2146 109.828 56.6411 111.659 61.2566 111.659C65.8722 111.659 70.2987 109.828 73.5624 106.57C76.8261 103.312 78.6597 98.8928 78.6597 94.2851C78.4757 94.1804 78.3097 94.0472 78.1677 93.8904Z" fill="#7394BC"/>
<path d="M60.7647 105.52C70.3761 105.52 78.1677 97.7412 78.1677 88.1461C78.1677 78.551 70.3761 70.7726 60.7647 70.7726C51.1533 70.7726 43.3617 78.551 43.3617 88.1461C43.3617 97.7412 51.1533 105.52 60.7647 105.52Z" fill="#57DD97"/>
<path d="M78.1677 88.1461C78.1663 90.6461 77.6244 93.1163 76.5791 95.3881C75.5338 97.6599 74.0097 99.6797 72.1109 101.31C70.2121 102.94 67.9833 104.141 65.5767 104.832C63.1701 105.524 60.6424 105.688 58.1662 105.315C55.69 104.942 53.3237 104.039 51.2289 102.669C49.1341 101.3 47.36 99.4946 46.028 97.3776C44.6959 95.2606 43.8372 92.8816 43.5105 90.403C43.1837 87.9244 43.3967 85.4046 44.1348 83.0156C45.2337 86.5628 47.4416 89.6654 50.435 91.8691C53.4283 94.0728 57.0498 95.2617 60.7691 95.2617C64.4884 95.2617 68.1099 94.0728 71.1032 91.8691C74.0966 89.6654 76.3045 86.5628 77.4034 83.0156C77.9133 84.6781 78.1709 86.4074 78.1677 88.1461Z" fill="#42BC99"/>
<path d="M57.5494 95.9602C56.7539 95.9632 55.9828 95.6869 55.3707 95.1797L48.9489 89.8212C48.7759 89.6801 48.6324 89.5064 48.5266 89.3099C48.4208 89.1135 48.3548 88.8981 48.3323 88.6762C48.3099 88.4543 48.3315 88.2301 48.3958 88.0165C48.4602 87.803 48.566 87.6041 48.7073 87.4313C48.8487 87.2586 49.0227 87.1153 49.2195 87.0097C49.4163 86.9041 49.632 86.8382 49.8542 86.8158C50.0765 86.7934 50.3011 86.8149 50.515 86.8792C50.729 86.9434 50.9282 87.0491 51.1012 87.1902L57.523 92.5136H57.5758L68.8556 80.8056C69.1707 80.513 69.5859 80.3517 70.0162 80.3548C70.4465 80.3578 70.8594 80.5249 71.1703 80.8219C71.4813 81.1188 71.6667 81.5232 71.6888 81.9522C71.7109 82.3812 71.5679 82.8024 71.2891 83.1296L60.0092 94.9078C59.6928 95.2415 59.3113 95.507 58.8883 95.6879C58.4653 95.8689 58.0096 95.9616 57.5494 95.9602Z" fill="white"/>
<path d="M76.525 95.1622H76.4195C76.3439 95.1326 76.2826 95.0751 76.2482 95.0017C76.2139 94.9282 76.2092 94.8444 76.2351 94.7675C78.7036 88.0847 78.0799 82.3666 74.3639 77.7624C72.6405 75.6505 70.4599 73.9563 67.986 72.8073C67.9485 72.7917 67.9144 72.769 67.8857 72.7403C67.8571 72.7116 67.8343 72.6775 67.8188 72.6401C67.8033 72.6026 67.7954 72.5625 67.7954 72.522C67.7955 72.4814 67.8035 72.4413 67.8191 72.4039C67.8346 72.3664 67.8574 72.3324 67.8862 72.3038C67.9149 72.2752 67.949 72.2525 67.9865 72.237C68.0241 72.2215 68.0643 72.2136 68.1049 72.2136C68.1455 72.2137 68.1857 72.2217 68.2232 72.2372C70.7881 73.4145 73.0482 75.1637 74.8295 77.3502C76.4917 79.3746 77.6076 81.7898 78.0711 84.3662C78.5914 87.9234 78.158 91.5548 76.8149 94.8903C76.8066 94.9625 76.773 95.0295 76.7199 95.0793C76.6668 95.1291 76.5977 95.1585 76.525 95.1622Z" fill="#42BC99"/>
</svg>
