<svg width="2506" height="2518" viewBox="0 0 2506 2518" fill="none" xmlns="http://www.w3.org/2000/svg">
<path d="M1937.08 1406.82C2080.49 1406.82 2196.75 1290.56 2196.75 1147.15C2196.75 1003.74 2080.49 887.48 1937.08 887.48C1793.67 887.48 1677.41 1003.74 1677.41 1147.15C1677.41 1290.56 1793.67 1406.82 1937.08 1406.82Z" fill="url(#paint0_linear_116_1536)" stroke="#BA8927" stroke-width="26"/>
<g clip-path="url(#clip0_116_1536)">
<path d="M1884.07 1118.59L1944.41 1068.29L1994.73 1128.65L2029.84 1099.38L1950.25 1003.91L1854.81 1083.48L1884.08 1118.58M1794.91 1133.42L1830.02 1104.15L1859.29 1139.26L1824.18 1168.51L1794.91 1133.42ZM1879.95 1164.05L1930.26 1224.37L1990.62 1174.05L2019.91 1209.14L1924.42 1288.76L1844.85 1193.31L1844.81 1193.26L1879.95 1164.04M2015.37 1153.41L2050.48 1124.15L2079.76 1159.25L2044.66 1188.52L2015.37 1153.41Z" fill="white"/>
<path d="M1969.97 1149.3L1940.3 1113.65L1913.97 1135.6L1910.93 1138.13L1904.7 1143.32L1904.65 1143.36L1904.69 1143.41L1934.37 1179.01L1969.99 1149.31L1969.96 1149.31" fill="white"/>
</g>
<path d="M1937.08 1396.65C1799.51 1396.65 1687.58 1284.72 1687.58 1147.15C1687.58 1009.58 1799.51 897.65 1937.08 897.65C2074.65 897.65 2186.58 1009.58 2186.58 1147.15C2186.58 1284.72 2074.65 1396.65 1937.08 1396.65ZM1937.08 903.32C1802.63 903.32 1693.25 1012.7 1693.25 1147.15C1693.25 1281.6 1802.63 1390.98 1937.08 1390.98C2071.53 1390.98 2180.91 1281.6 2180.91 1147.15C2180.91 1012.7 2071.52 903.32 1937.08 903.32Z" fill="#E7AE26"/>
<path d="M2045.14 870.9C2128.75 870.9 2196.53 803.121 2196.53 719.51C2196.53 635.9 2128.75 568.12 2045.14 568.12C1961.53 568.12 1893.75 635.9 1893.75 719.51C1893.75 803.12 1961.53 870.9 2045.14 870.9Z" fill="url(#paint1_linear_116_1536)" stroke="#BA8927" stroke-width="19"/>
<path d="M2045.14 864.23C1965.34 864.23 1900.41 799.31 1900.41 719.5C1900.41 639.69 1965.33 574.77 2045.14 574.77C2124.94 574.77 2189.87 639.69 2189.87 719.5C2189.87 799.31 2124.95 864.23 2045.14 864.23ZM2045.14 580.45C1968.46 580.45 1906.08 642.83 1906.08 719.5C1906.08 796.17 1968.46 858.55 2045.14 858.55C2121.82 858.55 2184.19 796.17 2184.19 719.5C2184.19 642.83 2121.82 580.45 2045.14 580.45Z" fill="#E7AE26"/>
<g clip-path="url(#clip1_116_1536)">
<path d="M2019.01 711.516L2048.58 686.87L2073.23 716.443L2090.44 702.104L2051.44 655.328L2004.67 694.314L2019.01 711.513M1975.33 718.784L1992.53 704.439L2006.87 721.644L1989.67 735.978L1975.33 718.784ZM2016.99 733.789L2041.64 763.349L2071.22 738.692L2085.57 755.885L2038.78 794.896L1999.79 748.129L1999.78 748.103L2016.99 733.787M2083.35 728.579L2100.55 714.239L2114.89 731.439L2097.7 745.779L2083.35 728.579Z" fill="white"/>
<path d="M2061.1 726.562L2046.56 709.097L2033.66 719.849L2032.17 721.089L2029.12 723.634L2029.1 723.654L2029.12 723.678L2043.66 741.119L2061.11 726.568L2061.1 726.567" fill="white"/>
</g>
<path d="M1862.54 718.84V1834.7C1862.54 1957.86 1762.67 2057.73 1639.51 2057.73H1257C1133.8 2057.73 1033.97 1957.86 1033.97 1834.7V718.84C1033.97 595.64 1133.81 495.81 1257 495.81H1639.51C1762.66 495.81 1862.54 595.64 1862.54 718.84Z" fill="#060F11"/>
<path d="M1639.51 2060.56H1257C1132.46 2060.56 1031.13 1959.24 1031.13 1834.69V718.84C1031.13 594.3 1132.45 492.97 1257 492.97H1639.51C1764.05 492.97 1865.38 594.29 1865.38 718.84V1834.7C1865.37 1959.24 1764.05 2060.56 1639.51 2060.56ZM1257 498.64C1135.58 498.64 1036.81 597.42 1036.81 718.84V1834.7C1036.81 1956.12 1135.59 2054.9 1257 2054.9H1639.51C1760.93 2054.9 1859.7 1956.12 1859.7 1834.7V718.84C1859.7 597.42 1760.92 498.64 1639.51 498.64H1257Z" fill="black"/>
<path d="M1837.35 718.84V1834.7C1837.35 1957.86 1737.51 2057.73 1614.35 2057.73H1231.81C1108.65 2057.73 1008.78 1957.86 1008.78 1834.7V718.84C1008.78 595.64 1108.65 495.81 1231.81 495.81H1614.32C1737.51 495.81 1837.35 595.64 1837.35 718.84Z" fill="#DEEAFC"/>
<path d="M1614.35 2060.56H1231.8C1107.26 2060.56 1005.93 1959.24 1005.93 1834.69V718.84C1005.93 594.3 1107.25 492.97 1231.8 492.97H1614.31C1738.85 492.97 1840.18 594.29 1840.18 718.84V1834.7C1840.19 1959.24 1738.88 2060.56 1614.35 2060.56ZM1231.81 498.64C1110.39 498.64 1011.62 597.42 1011.62 718.84V1834.7C1011.62 1956.12 1110.4 2054.9 1231.81 2054.9H1614.36C1735.76 2054.9 1834.52 1956.12 1834.52 1834.7V718.84C1834.52 597.42 1735.74 498.64 1614.32 498.64H1231.81Z" fill="black"/>
<path d="M1790.16 783.97V1836.97C1790.16 1932.85 1712.44 2010.58 1616.55 2010.58H1229.58C1133.73 2010.58 1056.01 1932.86 1056.01 1836.97V783.97C1056.01 688.12 1133.73 610.4 1229.58 610.4H1616.55C1712.43 610.4 1790.16 688.12 1790.16 783.97Z" fill="white"/>
<path d="M1330.17 557.07C1330.17 560.67 1328.71 563.94 1326.35 566.32C1323.97 568.68 1320.69 570.14 1317.1 570.14H1299.86C1292.64 570.14 1286.79 564.28 1286.79 557.07C1286.79 553.47 1288.25 550.2 1290.61 547.84C1292.99 545.48 1296.24 544.02 1299.86 544.02H1317.1C1324.32 544.02 1330.17 549.87 1330.17 557.07Z" fill="black"/>
<path d="M1524.18 557.07C1524.18 560.67 1522.72 563.94 1520.36 566.32C1518 568.68 1514.75 570.14 1511.13 570.14H1362.23C1355.01 570.14 1349.16 564.28 1349.16 557.07C1349.16 553.47 1350.62 550.2 1352.98 547.84C1355.36 545.48 1358.61 544.02 1362.23 544.02H1511.13C1518.35 544.02 1524.18 549.87 1524.18 557.07Z" fill="black"/>
<path d="M805.06 2230.8C804.47 2230.8 803.88 2230.62 803.39 2230.25C802.53 2229.62 802.09 2228.57 802.26 2227.51C802.97 2223.02 809.68 2183.45 824.92 2177.53C827.82 2176.4 832.43 2175.95 837.82 2180.23C842.82 2184.2 845.07 2188.92 844.53 2194.23C842.73 2211.68 810.06 2228.61 806.34 2230.48C805.93 2230.7 805.49 2230.8 805.06 2230.8ZM828.96 2182.43C828 2182.43 827.33 2182.69 826.97 2182.83C818.81 2186 812.07 2206.98 808.9 2222.66C819.97 2216.31 837.82 2204.02 838.88 2193.67C839.22 2190.35 837.72 2187.42 834.29 2184.69C832.03 2182.88 830.24 2182.43 828.96 2182.43Z" fill="black"/>
<path d="M842.66 2240.48C826.74 2240.48 806.77 2231.83 803.9 2230.55C802.93 2230.12 802.28 2229.17 802.22 2228.11C802.16 2227.05 802.71 2226.04 803.63 2225.51C807.56 2223.22 842.46 2203.4 856.68 2211.47C859.4 2213.01 862.65 2216.29 862.74 2223.17C862.82 2229.55 860.59 2234.28 856.13 2237.22C852.55 2239.58 847.81 2240.48 842.66 2240.48ZM811.6 2227.58C823.52 2232.14 844.33 2238.2 853.02 2232.47C855.8 2230.64 857.13 2227.62 857.07 2223.23C857.01 2218.16 854.66 2216.83 853.88 2216.39C846.27 2212.08 825.75 2220.13 811.6 2227.58Z" fill="black"/>
<path d="M877.63 2272H653.33L653.98 2189.59H796.89L807.05 2225.11L877.63 2272Z" fill="black"/>
<path d="M804.119 2223.15L794.856 2232.42L800.202 2237.76L809.465 2228.5L804.119 2223.15Z" fill="white"/>
<path d="M818.133 2233.79L808.368 2243.55L813.714 2248.9L823.479 2239.13L818.133 2233.79Z" fill="white"/>
<path d="M845.03 1484.18C836.8 1518.95 820.82 1568.01 796.82 1625.99C786.29 1651.43 774.19 1678.62 760.51 1707.08C734.83 1760.57 703.52 1818.58 666.46 1878.04C644.41 1913.49 620.27 1949.46 594.04 1985.33C550.39 2045.02 500.95 2104.38 445.51 2160.51L318.92 2094.23C483.16 1884.83 613.42 1633.85 612.05 1434.64L845.03 1484.18Z" fill="#0061EB"/>
<path d="M666.46 1878.04C644.41 1913.49 620.27 1949.46 594.04 1985.33L563.9 1673.79L666.46 1878.04Z" fill="#114AF0"/>
<path d="M796.82 1625.99C786.29 1651.43 774.19 1678.62 760.51 1707.08L750.57 1709.89L742.48 1506.32L796.82 1625.99Z" fill="#114AF0"/>
<path d="M848.28 909.76C868.919 909.76 885.65 893.029 885.65 872.39C885.65 851.751 868.919 835.02 848.28 835.02C827.641 835.02 810.91 851.751 810.91 872.39C810.91 893.029 827.641 909.76 848.28 909.76Z" fill="#FFB49F"/>
<path d="M783.48 919.1C833.324 919.1 873.73 878.694 873.73 828.85C873.73 779.006 833.324 738.6 783.48 738.6C733.637 738.6 693.23 779.006 693.23 828.85C693.23 878.694 733.637 919.1 783.48 919.1Z" fill="black"/>
<path d="M524.09 1451.28C523.95 1451.3 512.66 1493.53 533.49 1565.91C544.62 1601.83 590.03 1758.36 615.91 1905.32C644.48 2052.36 653.53 2189.83 653.99 2189.6C701.66 2189.6 749.34 2189.6 797.01 2189.6C808.78 1934.42 784.22 1675.39 723.35 1420.21C656.98 1430.56 590.57 1440.91 524.09 1451.28Z" fill="#0061EB"/>
<path d="M1281.05 1342.61C1281.05 1342.61 1113.26 1426.34 952.65 1381.64C913.95 1370.88 875.69 1352.68 840.29 1324.01C804.48 1295.09 771.61 1255.47 744.19 1202.13C743.93 1201.62 743.57 1201.21 743.27 1200.78C727.2 1177.2 718.81 1161.35 718.81 1161.35L827.21 1097.5C906.29 1123.97 955.68 1412.65 1247.98 1133.45L1281.05 1342.61Z" fill="#4BC9F1"/>
<path d="M878.33 1193.9C878.33 1193.9 898.8 1318.45 952.65 1381.64C913.95 1370.88 875.69 1352.68 840.29 1324.01C855.27 1272.65 878.33 1193.9 878.33 1193.9Z" fill="#18ABC4"/>
<path d="M878.85 1185L872.63 1296.95L871.27 1321.85L860.47 1516.33L506.26 1472.4L543.16 1139.94C547.7 1099.16 580.39 1069.28 616.16 1073.27L817.59 1095.93C851.86 1099.74 881.08 1145.76 878.85 1185Z" fill="#4BC9F1"/>
<path d="M872.62 1296.96L871.26 1321.86C844.68 1334.27 759.09 1370.04 689.74 1350.97C606.52 1328.09 593.93 1140.46 593.93 1140.46C593.93 1140.46 651.88 1249.56 710.28 1288.33C758.73 1320.46 844.61 1303.66 872.62 1296.96Z" fill="#18ABC4"/>
<path d="M862.61 1494.09C862.61 1494.09 673.07 1491.94 611.92 1448.79C550.77 1405.64 522.83 1323.15 522.83 1323.15L867.34 1450.19L862.61 1494.09Z" fill="#18ABC4"/>
<path d="M777.521 1091.18L764.901 1132.03L672.73 1079.55L693.281 1004.96L733.94 1008.06L778.29 1011.46L777.74 1066.83C777.77 1066.86 777.771 1066.86 777.771 1066.86L777.521 1091.18Z" fill="#FFCDB2"/>
<path d="M777.74 1066.82C776.38 1066.12 732.88 1043.08 727.48 1017.61C726.59 1013.38 729.1 1010.29 733.94 1008.05L778.29 1011.45L777.74 1066.82Z" fill="#FFB49F"/>
<path d="M764.89 1134.86C764.41 1134.86 763.93 1134.74 763.49 1134.49L671.32 1082C669.96 1081.22 669.48 1079.49 670.26 1078.13C671.03 1076.77 672.76 1076.29 674.13 1077.07L766.3 1129.55C767.66 1130.33 768.14 1132.06 767.36 1133.42C766.83 1134.34 765.87 1134.86 764.89 1134.86Z" fill="black"/>
<path d="M749.919 1040.5C813.101 1040.5 864.32 989.281 864.32 926.1C864.32 862.919 813.101 811.7 749.919 811.7C686.738 811.7 635.52 862.919 635.52 926.1C635.52 989.281 686.738 1040.5 749.919 1040.5Z" fill="#FFCDB2"/>
<path d="M643.31 930.2C643.31 930.2 774.76 916.14 783.01 822.75C783.1 821.73 783.18 820.71 783.24 819.67C783.24 819.67 766 763.55 693.1 785.05C620.2 806.55 588.4 904.6 643.31 930.2Z" fill="black"/>
<path d="M678.32 920.83C680.48 922.43 694.13 920.22 712.81 915C770.07 899.01 874.68 854.75 841.16 805.09C816.45 768.49 769 748.18 709.23 789.96" fill="black"/>
<path d="M643.13 970.68C663.769 970.68 680.5 953.949 680.5 933.31C680.5 912.671 663.769 895.94 643.13 895.94C622.491 895.94 605.76 912.671 605.76 933.31C605.76 953.949 622.491 970.68 643.13 970.68Z" fill="#FFCDB2"/>
<path d="M838.57 911.72C839.93 918.58 836.6 924.48 831.18 924.9C825.72 925.29 820.22 920.1 818.86 913.23C817.53 906.36 820.83 900.47 826.3 900.08C831.74 899.65 837.25 904.89 838.57 911.72Z" fill="black"/>
<path d="M789.22 928.87C790.58 935.73 787.25 941.63 781.83 942.05C776.37 942.44 770.87 937.25 769.51 930.38C768.18 923.51 771.48 917.62 776.95 917.23C782.4 916.8 787.91 922.04 789.22 928.87Z" fill="black"/>
<path d="M783.5 1003.02C778.14 1003.02 772.77 1001.7 768.09 999.12C760.36 994.87 754.54 987.21 752.5 978.63C752.14 977.11 753.08 975.58 754.6 975.22C756.12 974.86 757.65 975.8 758.02 977.32C759.7 984.36 764.49 990.66 770.83 994.15C777.17 997.64 785.05 998.32 791.9 995.97C793.39 995.46 795 996.25 795.5 997.73C796.01 999.21 795.22 1000.82 793.74 1001.33C790.46 1002.47 786.98 1003.02 783.5 1003.02Z" fill="black"/>
<path d="M647.15 950.3C646.21 950.3 645.29 949.84 644.75 948.99C643.91 947.67 644.3 945.92 645.62 945.08C649.33 942.72 651.45 937.86 650.66 933.52C649.87 929.19 646.16 925.4 641.85 924.5C640.32 924.18 639.33 922.68 639.65 921.15C639.97 919.61 641.46 918.63 643 918.95C649.58 920.31 655.03 925.89 656.24 932.5C657.45 939.11 654.33 946.25 648.66 949.86C648.19 950.15 647.67 950.3 647.15 950.3Z" fill="black"/>
<path d="M436.33 2201.14C435.69 2201.14 435.21 2201.13 434.91 2201.13C433.85 2201.11 432.88 2200.5 432.41 2199.55C431.94 2198.59 432.04 2197.46 432.68 2196.6C435.39 2192.95 459.66 2161 475.94 2162.84C479.05 2163.19 483.33 2164.92 486.11 2171.22C488.69 2177.06 488.51 2182.28 485.55 2186.74C476.58 2200.28 444.33 2201.14 436.33 2201.14ZM474.45 2168.42C464.86 2168.42 449.31 2184.98 440.85 2195.37C453.61 2194.88 475.1 2192.26 480.84 2183.59C482.68 2180.81 482.71 2177.51 480.94 2173.5C478.89 2168.86 476.2 2168.56 475.32 2168.46C475.03 2168.44 474.74 2168.42 474.45 2168.42Z" fill="black"/>
<path d="M474.35 2230.26C457.1 2230.26 435.23 2203.22 432.73 2200.05C432.07 2199.22 431.94 2198.08 432.38 2197.11C432.82 2196.14 433.77 2195.5 434.83 2195.46C439.37 2195.26 479.47 2193.88 488.34 2207.62C490.03 2210.25 491.39 2214.66 488.28 2220.8C485.39 2226.49 481.23 2229.65 475.91 2230.18C475.4 2230.24 474.88 2230.26 474.35 2230.26ZM440.93 2201C449.38 2210.57 464.96 2225.58 475.35 2224.55C478.67 2224.22 481.24 2222.16 483.23 2218.25C484.77 2215.21 484.89 2212.74 483.58 2210.71C478.88 2203.42 457.31 2201.01 441.35 2201.01C441.21 2200.99 441.07 2200.99 440.93 2201Z" fill="black"/>
<path d="M478.83 2270.97L280.11 2166.94L318.91 2094.23L445.52 2160.51L438.05 2196.69L478.83 2270.97Z" fill="black"/>
<path d="M436.32 2193.6L423.818 2197.52L426.078 2204.73L438.579 2200.82L436.32 2193.6Z" fill="white"/>
<path d="M443.814 2209.52L430.635 2213.65L432.894 2220.86L446.073 2216.74L443.814 2209.52Z" fill="white"/>
<path d="M1721.55 814.58V849.47C1721.55 887.91 1690.39 919.1 1651.95 919.1H1194.21C1155.77 919.1 1124.58 887.91 1124.58 849.47V814.58C1124.58 776.1 1155.77 744.95 1194.21 744.95H1651.95C1690.39 744.94 1721.55 776.1 1721.55 814.58Z" fill="white"/>
<path d="M1651.95 921.94H1194.21C1154.25 921.94 1121.74 889.43 1121.74 849.47V814.58C1121.74 774.62 1154.25 742.11 1194.21 742.11H1651.95C1691.89 742.11 1724.38 774.62 1724.38 814.58V849.47C1724.39 889.43 1691.89 921.94 1651.95 921.94ZM1194.21 747.78C1157.38 747.78 1127.41 777.75 1127.41 814.58V849.47C1127.41 886.3 1157.37 916.27 1194.21 916.27H1651.95C1688.76 916.27 1718.71 886.3 1718.71 849.47V814.58C1718.71 777.75 1688.76 747.78 1651.95 747.78H1194.21Z" fill="black"/>
<path d="M1252.86 839.23C1253.91 839.6 1254.39 840.41 1254.31 841.66C1254.23 842.91 1253.43 844.85 1251.92 847.46C1250.4 850.07 1249.12 851.71 1248.08 852.36C1247.03 853.01 1246.09 853 1245.26 852.32L1229.66 839.86L1232.8 859.53C1233.06 860.63 1232.61 861.46 1231.47 862.04C1230.32 862.62 1228.23 862.9 1225.2 862.9C1222.17 862.9 1220.08 862.61 1218.93 862.04C1217.78 861.46 1217.34 860.63 1217.6 859.53L1220.73 839.86L1205.13 852.32C1204.35 853 1203.43 853 1202.39 852.32C1201.34 851.64 1200.04 849.99 1198.47 847.38C1196.95 844.82 1196.17 842.91 1196.12 841.66C1196.07 840.41 1196.54 839.6 1197.53 839.23L1216.19 832.02L1197.53 824.81C1196.54 824.44 1196.06 823.63 1196.12 822.38C1196.17 821.13 1196.95 819.19 1198.47 816.58C1199.99 813.97 1201.28 812.32 1202.35 811.64C1203.42 810.96 1204.35 810.99 1205.13 811.72L1220.73 824.18L1217.6 804.5C1217.34 803.46 1217.78 802.63 1218.93 802.03C1220.07 801.43 1222.17 801.13 1225.2 801.13C1228.23 801.13 1230.32 801.43 1231.47 802.03C1232.61 802.63 1233.06 803.46 1232.8 804.5L1229.66 824.18L1245.26 811.72C1246.09 810.99 1247.02 810.97 1248.04 811.68C1249.06 812.39 1250.35 814.05 1251.92 816.66C1253.44 819.22 1254.23 821.13 1254.31 822.38C1254.38 823.64 1253.9 824.45 1252.86 824.81L1234.28 832.02L1252.86 839.23Z" fill="#060F11"/>
<path d="M1348.31 839.23C1349.36 839.6 1349.84 840.41 1349.76 841.66C1349.68 842.91 1348.88 844.85 1347.37 847.46C1345.85 850.07 1344.57 851.71 1343.53 852.36C1342.48 853.01 1341.54 853 1340.71 852.32L1325.11 839.86L1328.25 859.53C1328.51 860.63 1328.06 861.46 1326.92 862.04C1325.77 862.62 1323.68 862.9 1320.65 862.9C1317.62 862.9 1315.53 862.61 1314.38 862.04C1313.23 861.46 1312.79 860.63 1313.05 859.53L1316.18 839.86L1300.58 852.32C1299.8 853 1298.88 853 1297.84 852.32C1296.79 851.64 1295.49 849.99 1293.92 847.38C1292.4 844.82 1291.62 842.91 1291.57 841.66C1291.52 840.41 1291.99 839.6 1292.98 839.23L1311.64 832.02L1292.98 824.81C1291.99 824.44 1291.51 823.63 1291.57 822.38C1291.62 821.13 1292.4 819.19 1293.92 816.58C1295.44 813.97 1296.73 812.32 1297.8 811.64C1298.87 810.96 1299.8 810.99 1300.58 811.72L1316.18 824.18L1313.05 804.5C1312.79 803.46 1313.23 802.63 1314.38 802.03C1315.52 801.43 1317.62 801.13 1320.65 801.13C1323.68 801.13 1325.77 801.43 1326.92 802.03C1328.06 802.63 1328.51 803.46 1328.25 804.5L1325.11 824.18L1340.71 811.72C1341.54 810.99 1342.47 810.97 1343.49 811.68C1344.51 812.39 1345.8 814.05 1347.37 816.66C1348.89 819.22 1349.68 821.13 1349.76 822.38C1349.83 823.64 1349.35 824.45 1348.31 824.81L1329.73 832.02L1348.31 839.23Z" fill="#060F11"/>
<path d="M1443.76 839.23C1444.81 839.6 1445.29 840.41 1445.21 841.66C1445.13 842.91 1444.33 844.85 1442.82 847.46C1441.3 850.07 1440.02 851.71 1438.98 852.36C1437.93 853.01 1436.99 853 1436.16 852.32L1420.56 839.86L1423.7 859.53C1423.96 860.63 1423.51 861.46 1422.37 862.04C1421.22 862.62 1419.13 862.9 1416.1 862.9C1413.07 862.9 1410.98 862.61 1409.83 862.04C1408.68 861.46 1408.24 860.63 1408.5 859.53L1411.63 839.86L1396.03 852.32C1395.25 853 1394.33 853 1393.29 852.32C1392.24 851.64 1390.94 849.99 1389.37 847.38C1387.85 844.82 1387.07 842.91 1387.02 841.66C1386.97 840.41 1387.44 839.6 1388.43 839.23L1407.09 832.02L1388.43 824.81C1387.44 824.44 1386.96 823.63 1387.02 822.38C1387.07 821.13 1387.85 819.19 1389.37 816.58C1390.89 813.97 1392.18 812.32 1393.25 811.64C1394.32 810.96 1395.25 810.99 1396.03 811.72L1411.63 824.18L1408.5 804.5C1408.24 803.46 1408.68 802.63 1409.83 802.03C1410.97 801.43 1413.07 801.13 1416.1 801.13C1419.13 801.13 1421.22 801.43 1422.37 802.03C1423.51 802.63 1423.96 803.46 1423.7 804.5L1420.56 824.18L1436.16 811.72C1436.99 810.99 1437.92 810.97 1438.94 811.68C1439.96 812.39 1441.25 814.05 1442.82 816.66C1444.34 819.22 1445.13 821.13 1445.21 822.38C1445.28 823.64 1444.8 824.45 1443.76 824.81L1425.18 832.02L1443.76 839.23Z" fill="#060F11"/>
<path d="M1539.2 839.23C1540.25 839.6 1540.73 840.41 1540.65 841.66C1540.57 842.91 1539.77 844.85 1538.26 847.46C1536.74 850.07 1535.46 851.71 1534.42 852.36C1533.37 853.01 1532.43 853 1531.6 852.32L1516 839.86L1519.14 859.53C1519.4 860.63 1518.95 861.46 1517.81 862.04C1516.66 862.62 1514.57 862.9 1511.54 862.9C1508.51 862.9 1506.42 862.61 1505.27 862.04C1504.12 861.46 1503.68 860.63 1503.94 859.53L1507.07 839.86L1491.47 852.32C1490.69 853 1489.77 853 1488.73 852.32C1487.68 851.64 1486.38 849.99 1484.81 847.38C1483.29 844.82 1482.51 842.91 1482.46 841.66C1482.41 840.41 1482.88 839.6 1483.87 839.23L1502.53 832.02L1483.87 824.81C1482.88 824.44 1482.4 823.63 1482.46 822.38C1482.51 821.13 1483.29 819.19 1484.81 816.58C1486.33 813.97 1487.62 812.32 1488.69 811.64C1489.76 810.96 1490.69 810.99 1491.47 811.72L1507.07 824.18L1503.94 804.5C1503.68 803.46 1504.12 802.63 1505.27 802.03C1506.41 801.43 1508.51 801.13 1511.54 801.13C1514.57 801.13 1516.66 801.43 1517.81 802.03C1518.95 802.63 1519.4 803.46 1519.14 804.5L1516 824.18L1531.6 811.72C1532.43 810.99 1533.36 810.97 1534.38 811.68C1535.4 812.39 1536.69 814.05 1538.26 816.66C1539.78 819.22 1540.57 821.13 1540.65 822.38C1540.72 823.64 1540.24 824.45 1539.2 824.81L1520.62 832.02L1539.2 839.23Z" fill="#060F11"/>
<path d="M1634.65 839.23C1635.7 839.6 1636.18 840.41 1636.1 841.66C1636.02 842.91 1635.22 844.85 1633.71 847.46C1632.19 850.07 1630.91 851.71 1629.87 852.36C1628.82 853.01 1627.88 853 1627.05 852.32L1611.45 839.86L1614.59 859.53C1614.85 860.63 1614.4 861.46 1613.26 862.04C1612.11 862.62 1610.02 862.9 1606.99 862.9C1603.96 862.9 1601.87 862.61 1600.72 862.04C1599.57 861.46 1599.13 860.63 1599.39 859.53L1602.52 839.86L1586.92 852.32C1586.14 853 1585.22 853 1584.18 852.32C1583.13 851.64 1581.83 849.99 1580.26 847.38C1578.74 844.82 1577.96 842.91 1577.91 841.66C1577.86 840.41 1578.33 839.6 1579.32 839.23L1597.98 832.02L1579.32 824.81C1578.33 824.44 1577.85 823.63 1577.91 822.38C1577.96 821.13 1578.74 819.19 1580.26 816.58C1581.78 813.97 1583.07 812.32 1584.14 811.64C1585.21 810.96 1586.14 810.99 1586.92 811.72L1602.52 824.18L1599.39 804.5C1599.13 803.46 1599.57 802.63 1600.72 802.03C1601.86 801.43 1603.96 801.13 1606.99 801.13C1610.02 801.13 1612.11 801.43 1613.26 802.03C1614.4 802.63 1614.85 803.46 1614.59 804.5L1611.45 824.18L1627.05 811.72C1627.88 810.99 1628.81 810.97 1629.83 811.68C1630.85 812.39 1632.14 814.05 1633.71 816.66C1635.23 819.22 1636.02 821.13 1636.1 822.38C1636.17 823.64 1635.69 824.45 1634.65 824.81L1616.07 832.02L1634.65 839.23Z" fill="#060F11"/>
<path d="M1521.95 1047.82V1530.09C1521.95 1552.06 1504.16 1569.85 1482.19 1569.85H1370.49C1351.93 1569.85 1336.37 1557.18 1331.98 1540.01C1331.17 1536.82 1330.73 1533.49 1330.73 1530.09V1047.82C1330.73 1025.85 1348.52 1008.06 1370.49 1008.06H1482.19C1504.16 1008.06 1521.95 1025.86 1521.95 1047.82Z" fill="black"/>
<path d="M1404.87 1569.86H1370.49C1351.93 1569.86 1336.37 1557.19 1331.98 1540.02C1331.17 1536.83 1330.73 1533.5 1330.73 1530.1V1047.83C1330.73 1025.86 1348.52 1008.07 1370.49 1008.07H1404.87C1382.9 1008.07 1365.11 1025.86 1365.11 1047.83V1530.1C1365.11 1533.5 1365.55 1536.84 1366.35 1540.02C1370.75 1557.19 1386.31 1569.86 1404.87 1569.86Z" fill="#0B1A1C"/>
<path d="M1482.19 1572.69H1370.49C1351.01 1572.69 1334.05 1559.54 1329.23 1540.72C1328.34 1537.22 1327.9 1533.64 1327.9 1530.1V1047.83C1327.9 1024.34 1347.01 1005.23 1370.5 1005.23H1482.2C1505.69 1005.23 1524.8 1024.34 1524.8 1047.83V1530.1C1524.79 1553.58 1505.68 1572.69 1482.19 1572.69ZM1370.49 1010.9C1350.13 1010.9 1333.57 1027.46 1333.57 1047.82V1530.09C1333.57 1533.17 1333.96 1536.28 1334.73 1539.32C1338.9 1555.62 1353.61 1567.02 1370.49 1567.02H1482.19C1502.55 1567.02 1519.11 1550.46 1519.11 1530.1V1047.83C1519.11 1027.47 1502.55 1010.91 1482.19 1010.91H1370.49V1010.9Z" fill="black"/>
<path d="M1522.14 1170.87V1418.36C1484.21 1483.82 1417.14 1530.32 1338.68 1540.02C1328.61 1541.26 1318.36 1541.92 1307.96 1541.92C1171.37 1541.92 1060.66 1431.21 1060.66 1294.61C1060.66 1158.01 1171.37 1047.3 1307.96 1047.3C1317.92 1047.3 1327.77 1047.89 1337.43 1049.06C1416.45 1058.44 1484.03 1105.05 1522.14 1170.87Z" fill="url(#paint2_linear_116_1536)"/>
<g filter="url(#filter0_d_116_1536)">
<path d="M1344.3 1169.05L1228.61 1207.37C1219.19 1210.49 1216.78 1221.56 1223.23 1232.09C1229.69 1242.62 1242.56 1248.62 1251.99 1245.5L1367.68 1207.19C1377.1 1204.07 1379.51 1193 1373.06 1182.47C1366.6 1171.94 1353.73 1165.93 1344.3 1169.05Z" fill="white"/>
</g>
<g filter="url(#filter1_d_116_1536)">
<path d="M1348.8 1256.02L1301.29 1271.76C1291.86 1274.88 1289.45 1285.95 1295.91 1296.48C1302.36 1307.01 1315.24 1313.02 1324.66 1309.89L1372.18 1294.16C1381.6 1291.04 1384.01 1279.97 1377.56 1269.44C1371.1 1258.91 1358.23 1252.9 1348.8 1256.02Z" fill="white"/>
</g>
<g filter="url(#filter2_d_116_1536)">
<path d="M1273.57 1303.75C1267.12 1293.22 1254.24 1287.22 1244.81 1290.34C1235.39 1293.46 1232.98 1304.53 1239.43 1315.06C1245.89 1325.59 1258.77 1331.6 1268.19 1328.47C1277.62 1325.35 1280.03 1314.28 1273.57 1303.75Z" fill="white"/>
</g>
<g filter="url(#filter3_d_116_1536)">
<path d="M1378.02 1341.76L1262.33 1380.07C1252.9 1383.19 1250.49 1394.26 1256.95 1404.79C1263.41 1415.32 1276.28 1421.33 1285.71 1418.2L1401.4 1379.89C1410.82 1376.77 1413.23 1365.7 1406.78 1355.17C1400.32 1344.64 1387.45 1338.63 1378.02 1341.76Z" fill="white"/>
</g>
<path d="M1307.97 1544.76C1170.04 1544.76 1057.83 1432.55 1057.83 1294.62C1057.83 1156.69 1170.04 1044.48 1307.97 1044.48C1318.02 1044.48 1328.05 1045.08 1337.78 1046.26C1415.43 1055.47 1485.27 1101.53 1524.6 1169.46C1524.85 1169.89 1524.98 1170.38 1524.98 1170.88V1418.37C1524.98 1418.87 1524.85 1419.36 1524.6 1419.79C1485.48 1487.31 1416.11 1533.31 1339.04 1542.84C1328.7 1544.11 1318.25 1544.76 1307.97 1544.76ZM1307.97 1050.15C1173.17 1050.15 1063.5 1159.82 1063.5 1294.62C1063.5 1429.42 1173.17 1539.09 1307.97 1539.09C1318.02 1539.09 1328.24 1538.46 1338.34 1537.21C1413.41 1527.93 1481 1483.24 1519.31 1417.6V1171.64C1480.8 1105.61 1412.75 1060.86 1337.11 1051.89C1327.6 1050.73 1317.79 1050.15 1307.97 1050.15Z" fill="black"/>
<path d="M916.61 1330.07L996.74 1281.21C1003.71 1274.6 1014.76 1274.93 1021.31 1281.99C1024.55 1285.46 1026.07 1289.84 1025.96 1294.19C1025.84 1299.26 1023.53 1304.23 1019.13 1307.55L1008.01 1316" fill="#FFCDB2"/>
<path d="M1254.3 1047.32C1117.72 1047.32 1007 1158.04 1007 1294.62C1007 1431.2 1117.72 1541.92 1254.3 1541.92H1307.97C1171.39 1541.92 1060.67 1431.2 1060.67 1294.62C1060.67 1158.04 1171.39 1047.32 1307.97 1047.32H1254.3Z" fill="#1252C4"/>
<path d="M1307.96 1544.75H1254.3C1116.37 1544.75 1004.16 1432.54 1004.16 1294.61C1004.16 1156.68 1116.37 1044.48 1254.3 1044.48H1307.96C1309.53 1044.48 1310.8 1045.75 1310.8 1047.32C1310.8 1048.89 1309.53 1050.16 1307.96 1050.16C1173.16 1050.16 1063.5 1159.83 1063.5 1294.62C1063.5 1429.41 1173.16 1539.08 1307.96 1539.08C1309.53 1539.08 1310.8 1540.35 1310.8 1541.92C1310.8 1543.48 1309.53 1544.75 1307.96 1544.75ZM1254.3 1050.15C1119.5 1050.15 1009.84 1159.82 1009.84 1294.61C1009.84 1429.4 1119.51 1539.07 1254.3 1539.07H1254.87C1142.37 1514.65 1057.83 1414.31 1057.83 1294.61C1057.83 1174.9 1142.36 1074.56 1254.87 1050.15H1254.3Z" fill="#2771F0"/>
<path d="M1187.11 1081.64H1133.44C1131.87 1081.64 1130.6 1080.37 1130.6 1078.8C1130.6 1077.23 1131.87 1075.96 1133.44 1075.96H1187.11C1188.68 1075.96 1189.95 1077.23 1189.95 1078.8C1189.95 1080.37 1188.68 1081.64 1187.11 1081.64Z" fill="black"/>
<path d="M1114.61 1143.3H1060.94C1059.37 1143.3 1058.1 1142.03 1058.1 1140.46C1058.1 1138.89 1059.37 1137.62 1060.94 1137.62H1114.61C1116.18 1137.62 1117.45 1138.89 1117.45 1140.46C1117.44 1142.03 1116.17 1143.3 1114.61 1143.3Z" fill="black"/>
<path d="M1078.6 1204.97H1024.93C1023.36 1204.97 1022.09 1203.7 1022.09 1202.13C1022.09 1200.56 1023.36 1199.29 1024.93 1199.29H1078.6C1080.17 1199.29 1081.44 1200.56 1081.44 1202.13C1081.43 1203.7 1080.16 1204.97 1078.6 1204.97Z" fill="black"/>
<path d="M1062.6 1266.63H1008.93C1007.36 1266.63 1006.09 1265.36 1006.09 1263.79C1006.09 1262.22 1007.36 1260.95 1008.93 1260.95H1062.6C1064.17 1260.95 1065.44 1262.22 1065.44 1263.79C1065.44 1265.36 1064.17 1266.63 1062.6 1266.63Z" fill="black"/>
<path d="M1062.6 1328.3H1008.93C1007.36 1328.3 1006.09 1327.03 1006.09 1325.46C1006.09 1323.89 1007.36 1322.62 1008.93 1322.62H1062.6C1064.17 1322.62 1065.44 1323.89 1065.44 1325.46C1065.44 1327.03 1064.17 1328.3 1062.6 1328.3Z" fill="black"/>
<path d="M1078.6 1389.96H1024.93C1023.36 1389.96 1022.09 1388.69 1022.09 1387.12C1022.09 1385.55 1023.36 1384.28 1024.93 1384.28H1078.6C1080.17 1384.28 1081.44 1385.55 1081.44 1387.12C1081.44 1388.69 1080.16 1389.96 1078.6 1389.96Z" fill="black"/>
<path d="M1114.66 1451.63H1060.99C1059.42 1451.63 1058.15 1450.36 1058.15 1448.79C1058.15 1447.22 1059.42 1445.95 1060.99 1445.95H1114.66C1116.23 1445.95 1117.5 1447.22 1117.5 1448.79C1117.5 1450.36 1116.22 1451.63 1114.66 1451.63Z" fill="black"/>
<path d="M1187.22 1513.29H1133.55C1131.98 1513.29 1130.71 1512.02 1130.71 1510.45C1130.71 1508.88 1131.98 1507.61 1133.55 1507.61H1187.22C1188.79 1507.61 1190.06 1508.88 1190.06 1510.45C1190.06 1512.02 1188.79 1513.29 1187.22 1513.29Z" fill="black"/>
<path d="M1080.21 1373.41L1049.68 1372.66L1068.69 1377.62C1075.45 1379.37 1079.88 1385.84 1079.08 1392.78L1078.97 1393.71C1078.03 1401.69 1070.54 1407.27 1062.6 1405.84L1039.2 1401.7L1040 1402.05L1057.92 1409.8C1064.65 1412.72 1067.98 1420.36 1065.53 1427.29C1064.02 1431.6 1061.2 1435.16 1057.63 1437.62C1054.06 1440.08 1049.71 1441.44 1045.16 1441.33L981.01 1442.22L971.18 1442.36L949.47 1441.83L909.91 1330.07L1001.31 1315.99L1067.48 1311.1C1075.2 1310.54 1081.92 1316.34 1082.49 1324.03L1082.6 1325.68C1083.12 1332.8 1078.22 1339.15 1071.24 1340.45L1049.61 1344.54L1080.98 1345.43C1088.23 1345.64 1094.12 1351.35 1094.54 1358.62C1094.56 1359.01 1094.58 1359.4 1094.57 1359.76C1094.36 1367.43 1088 1373.6 1080.21 1373.41Z" fill="#FFCDB2"/>
<path d="M949.46 1441.84L909.9 1330.07L981 1442.23L971.17 1442.37L949.46 1441.84Z" fill="#FFB49F"/>
<path d="M1068.7 1335.85C1064.91 1335.85 1061.35 1332.51 1060.24 1327.63C1059.67 1325.11 1059.86 1322.56 1060.78 1320.44C1061.77 1318.15 1063.56 1316.57 1065.7 1316.08C1067.43 1315.69 1069.3 1316.04 1070.96 1317.09C1073.23 1318.54 1074.93 1321.11 1075.6 1324.14C1076.29 1327.17 1075.87 1330.23 1074.43 1332.52C1073.39 1334.17 1071.87 1335.29 1070.14 1335.68C1069.66 1335.8 1069.18 1335.85 1068.7 1335.85ZM1067.11 1319.71C1066.93 1319.71 1066.73 1319.73 1066.54 1319.77C1065.25 1320.06 1064.55 1321.26 1064.25 1321.95C1063.66 1323.32 1063.54 1325.08 1063.93 1326.8C1064.69 1330.11 1067.15 1332.49 1069.31 1332.01C1070.26 1331.79 1070.88 1331.08 1071.23 1330.52C1072.12 1329.1 1072.38 1327.03 1071.91 1324.99C1071.46 1322.95 1070.35 1321.2 1068.93 1320.3C1068.49 1320.01 1067.84 1319.71 1067.11 1319.71Z" fill="#231F20"/>
<path d="M1080.36 1369.17C1076.13 1369.17 1072.63 1365.06 1072.3 1359.6C1072.14 1357.02 1072.75 1354.53 1074 1352.59C1075.35 1350.5 1077.38 1349.22 1079.56 1349.09C1081.39 1348.98 1083.13 1349.64 1084.58 1350.94C1086.6 1352.74 1087.85 1355.55 1088.02 1358.65C1088.18 1361.22 1087.57 1363.71 1086.32 1365.65C1084.96 1367.74 1082.94 1369.02 1080.76 1369.15C1080.62 1369.16 1080.49 1369.17 1080.36 1369.17ZM1079.93 1352.86C1079.88 1352.86 1079.83 1352.86 1079.77 1352.86C1078.45 1352.94 1077.57 1354.01 1077.16 1354.64C1076.35 1355.89 1075.95 1357.62 1076.06 1359.37C1076.27 1362.76 1078.5 1365.51 1080.51 1365.38C1081.84 1365.3 1082.71 1364.23 1083.12 1363.6C1083.93 1362.35 1084.33 1360.62 1084.23 1358.87C1084.12 1356.78 1083.3 1354.87 1082.05 1353.76C1081.59 1353.35 1080.84 1352.86 1079.93 1352.86Z" fill="#231F20"/>
<path d="M1064.52 1401.19C1060.29 1401.19 1056.78 1397.08 1056.45 1391.62C1056.29 1389.04 1056.9 1386.55 1058.15 1384.61C1059.5 1382.52 1061.53 1381.24 1063.71 1381.11C1065.55 1381.01 1067.28 1381.66 1068.74 1382.97C1070.75 1384.77 1072 1387.58 1072.17 1390.68C1072.33 1393.25 1071.72 1395.73 1070.47 1397.68C1069.12 1399.77 1067.09 1401.05 1064.91 1401.18C1064.78 1401.18 1064.65 1401.19 1064.52 1401.19ZM1064.1 1384.88C1064.05 1384.88 1064 1384.88 1063.94 1384.88C1062.62 1384.96 1061.74 1386.03 1061.33 1386.66C1060.52 1387.91 1060.12 1389.64 1060.23 1391.39C1060.43 1394.78 1062.59 1397.52 1064.69 1397.4C1066.02 1397.32 1066.89 1396.25 1067.3 1395.62C1068.11 1394.37 1068.51 1392.64 1068.4 1390.89C1068.29 1388.8 1067.47 1386.9 1066.23 1385.78C1065.75 1385.36 1065.01 1384.88 1064.1 1384.88Z" fill="#231F20"/>
<path d="M1051.54 1435.61C1051.25 1435.61 1050.96 1435.59 1050.67 1435.55C1046.31 1434.94 1043.5 1430.09 1044.27 1424.51C1044.63 1421.95 1045.71 1419.63 1047.33 1417.97C1049.07 1416.18 1051.32 1415.34 1053.47 1415.64C1055.23 1415.89 1056.85 1416.89 1058.03 1418.45C1059.65 1420.61 1060.32 1423.61 1059.87 1426.69C1059.51 1429.24 1058.43 1431.56 1056.82 1433.21C1055.31 1434.77 1053.42 1435.61 1051.54 1435.61ZM1051.19 1431.81C1052.49 1431.98 1053.58 1431.12 1054.1 1430.58C1055.14 1429.51 1055.88 1427.9 1056.12 1426.16C1056.42 1424.09 1056 1422.06 1055 1420.72C1054.6 1420.19 1053.92 1419.52 1052.94 1419.39C1051.63 1419.21 1050.55 1420.08 1050.03 1420.62C1048.99 1421.69 1048.25 1423.3 1048.01 1425.04C1047.55 1428.4 1049.01 1431.5 1051.19 1431.81Z" fill="#231F20"/>
<path d="M1050.44 1345.74C1050.43 1345.74 1050.42 1345.74 1050.41 1345.74L1013.43 1345.07C1012.38 1345.05 1011.55 1344.19 1011.57 1343.15C1011.59 1342.11 1012.48 1341.28 1013.49 1341.29L1050.47 1341.96C1051.51 1341.98 1052.35 1342.84 1052.33 1343.88C1052.31 1344.92 1051.47 1345.74 1050.44 1345.74Z" fill="#231F20"/>
<path d="M1040.36 1403.94L1008.17 1403.15C1007.13 1403.13 1006.3 1402.26 1006.32 1401.21C1006.35 1400.17 1007.26 1399.34 1008.25 1399.37L1040.44 1400.16L1040.36 1403.94Z" fill="#231F20"/>
<path d="M1050.1 1375.06C1050.05 1375.06 1050 1375.06 1049.96 1375.05C1045.38 1374.71 1039.13 1374.68 1033.08 1374.64C1026.97 1374.6 1020.64 1374.57 1015.93 1374.22C1014.89 1374.14 1014.11 1373.24 1014.18 1372.2C1014.26 1371.16 1015.18 1370.38 1016.21 1370.45C1020.8 1370.79 1027.05 1370.82 1033.1 1370.86C1039.21 1370.9 1045.53 1370.93 1050.24 1371.28C1051.28 1371.36 1052.06 1372.26 1051.99 1373.3C1051.91 1374.3 1051.08 1375.06 1050.1 1375.06Z" fill="#231F20"/>
<path d="M506.26 1182.55C513.5 1096.32 601.75 1072.8 601.75 1072.8C625.56 1367.28 764.89 1343.19 920.63 1310.36L965.96 1473.33C720.11 1491.47 483.18 1457.22 506.26 1182.55Z" fill="#4BC9F1"/>
<path d="M1724.93 1757.68H1121.22C1113.03 1757.68 1106.38 1751.04 1106.38 1742.84V1618.95C1106.38 1610.76 1113.02 1604.11 1121.22 1604.11H1724.93C1733.12 1604.11 1739.77 1610.75 1739.77 1618.95V1742.84C1739.77 1751.04 1733.12 1757.68 1724.93 1757.68Z" fill="white"/>
<path d="M1683.67 1760.51H1162.48C1129.98 1760.51 1103.54 1734.07 1103.54 1701.57V1660.21C1103.54 1627.71 1129.98 1601.27 1162.48 1601.27H1683.67C1716.17 1601.27 1742.61 1627.71 1742.61 1660.21V1701.57C1742.6 1734.08 1716.16 1760.51 1683.67 1760.51ZM1162.48 1606.95C1133.11 1606.95 1109.21 1630.84 1109.21 1660.21V1701.57C1109.21 1730.94 1133.1 1754.83 1162.48 1754.83H1683.67C1713.04 1754.83 1736.94 1730.94 1736.94 1701.57V1660.21C1736.94 1630.84 1713.05 1606.95 1683.67 1606.95H1162.48Z" fill="black"/>
<path d="M1205.29 1653.62V1708.21C1205.29 1714.62 1200.09 1719.78 1193.68 1719.78H1177.61C1171.2 1719.78 1166 1714.62 1166 1708.21V1653.62C1166 1647.21 1171.2 1642.01 1177.61 1642.01H1193.68C1200.09 1642.02 1205.29 1647.21 1205.29 1653.62Z" fill="#FF665C"/>
<path d="M1264.65 1653.62V1708.21C1264.65 1714.62 1259.45 1719.78 1253.04 1719.78H1236.97C1230.56 1719.78 1225.36 1714.62 1225.36 1708.21V1653.62C1225.36 1647.21 1230.56 1642.01 1236.97 1642.01H1253.04C1259.45 1642.02 1264.65 1647.21 1264.65 1653.62Z" fill="#FF665C"/>
<path d="M1324 1653.62V1708.21C1324 1714.62 1318.8 1719.78 1312.39 1719.78H1296.32C1289.91 1719.78 1284.71 1714.62 1284.71 1708.21V1653.62C1284.71 1647.21 1289.91 1642.01 1296.32 1642.01H1312.39C1318.8 1642.02 1324 1647.21 1324 1653.62Z" fill="#FF665C"/>
<path d="M1383.36 1653.62V1708.21C1383.36 1714.62 1378.16 1719.78 1371.75 1719.78H1355.68C1349.27 1719.78 1344.07 1714.62 1344.07 1708.21V1653.62C1344.07 1647.21 1349.27 1642.01 1355.68 1642.01H1371.75C1378.16 1642.02 1383.36 1647.21 1383.36 1653.62Z" fill="#FF665C"/>
<path d="M1442.72 1653.62V1708.21C1442.72 1714.62 1437.52 1719.78 1431.11 1719.78H1415.04C1408.63 1719.78 1403.43 1714.62 1403.43 1708.21V1653.62C1403.43 1647.21 1408.63 1642.01 1415.04 1642.01H1431.11C1437.52 1642.02 1442.72 1647.21 1442.72 1653.62Z" fill="#FF665C"/>
<path d="M1502.07 1653.62V1708.21C1502.07 1714.62 1496.87 1719.78 1490.46 1719.78H1474.39C1467.98 1719.78 1462.78 1714.62 1462.78 1708.21V1653.62C1462.78 1647.21 1467.98 1642.01 1474.39 1642.01H1490.46C1496.87 1642.02 1502.07 1647.21 1502.07 1653.62Z" fill="#FF665C"/>
<path d="M1561.43 1653.62V1708.21C1561.43 1714.62 1556.23 1719.78 1549.82 1719.78H1533.75C1527.34 1719.78 1522.14 1714.62 1522.14 1708.21V1653.62C1522.14 1647.21 1527.34 1642.01 1533.75 1642.01H1549.82C1556.23 1642.02 1561.43 1647.21 1561.43 1653.62Z" fill="#FF665C"/>
<path d="M1620.78 1653.62V1708.21C1620.78 1714.62 1615.58 1719.78 1609.17 1719.78H1593.1C1586.69 1719.78 1581.49 1714.62 1581.49 1708.21V1653.62C1581.49 1647.21 1586.69 1642.01 1593.1 1642.01H1609.17C1615.58 1642.02 1620.78 1647.21 1620.78 1653.62Z" fill="#DEEAFC"/>
<path d="M1680.14 1653.62V1708.21C1680.14 1714.62 1674.94 1719.78 1668.53 1719.78H1652.46C1646.05 1719.78 1640.85 1714.62 1640.85 1708.21V1653.62C1640.85 1647.21 1646.05 1642.01 1652.46 1642.01H1668.53C1674.94 1642.02 1680.14 1647.21 1680.14 1653.62Z" fill="#DEEAFC"/>
<path d="M2054.39 2051.6C2054.39 2051.6 2078.2 1947.68 2112.54 1943.48C2143.8 1939.65 2147.8 1974.96 2120.57 2009.38C2099.58 2035.94 2054.39 2051.6 2054.39 2051.6Z" fill="#5FD670"/>
<path d="M2054.39 2054.44C2053.7 2054.44 2053.02 2054.19 2052.5 2053.72C2051.73 2053.03 2051.4 2051.98 2051.63 2050.98C2052.62 2046.66 2076.3 1945.07 2112.2 1940.68C2124.16 1939.22 2133.37 1943.08 2138.14 1951.56C2146.03 1965.62 2139.88 1989.57 2122.81 2011.15C2101.55 2038.04 2057.21 2053.64 2055.33 2054.29C2055.01 2054.39 2054.7 2054.44 2054.39 2054.44ZM2117.06 1946.03C2115.73 1946.03 2114.33 1946.12 2112.88 1946.3C2087.83 1949.37 2066.22 2015.75 2058.4 2047.04C2070.57 2042.17 2102.15 2028.11 2118.35 2007.62C2136.43 1984.75 2138.83 1964.37 2133.18 1954.32C2130.11 1948.86 2124.58 1946.03 2117.06 1946.03Z" fill="black"/>
<path d="M2033.1 2074.15C2033.1 2074.15 2019.31 1976.31 2024.11 1939.61Z" fill="white"/>
<path d="M2030.3 2074.54C2029.73 2070.53 2016.51 1975.89 2021.31 1939.24L2026.93 1939.98C2022.23 1975.87 2035.77 2072.78 2035.91 2073.75L2030.3 2074.54Z" fill="black"/>
<path d="M2081.67 1866.79C2081.67 1866.79 2075.92 1869.64 2069.32 1877.8C2066.52 1881.21 2063.59 1885.57 2060.9 1891.11C2055.39 1902.31 2050.22 1923.07 2024.16 1940.77C2024.16 1940.77 2019.53 1853.22 2065.46 1816.62C2070.62 1843.28 2081.67 1866.79 2081.67 1866.79Z" fill="#5FD670"/>
<path d="M2024.16 1943.59C2023.73 1943.59 2023.3 1943.49 2022.9 1943.29C2021.98 1942.83 2021.38 1941.92 2021.33 1940.9C2021.14 1937.27 2017.16 1851.47 2063.7 1814.39C2064.48 1813.77 2065.53 1813.6 2066.45 1813.95C2067.38 1814.29 2068.06 1815.1 2068.25 1816.07C2073.27 1842.09 2084.12 1865.34 2084.23 1865.57C2084.89 1866.96 2084.31 1868.63 2082.93 1869.31C2082.78 1869.39 2077.52 1872.14 2071.51 1879.57C2068.45 1883.3 2065.74 1887.59 2063.44 1892.33C2062.54 1894.16 2061.66 1896.24 2060.69 1898.51C2055.71 1910.2 2048.17 1927.86 2025.75 1943.09C2025.28 1943.43 2024.72 1943.59 2024.16 1943.59ZM2063.66 1821.88C2029.23 1853.28 2026.81 1916.62 2026.88 1935.31C2044.58 1921.83 2050.83 1907.2 2055.47 1896.3C2056.49 1893.92 2057.41 1891.75 2058.35 1889.85C2060.83 1884.72 2063.79 1880.05 2067.12 1876C2071.52 1870.56 2075.61 1867.34 2078.05 1865.68C2075.35 1859.54 2068.11 1842.09 2063.66 1821.88Z" fill="black"/>
<path d="M2181.39 1867.6C2181.63 1889.94 2170.95 1918.34 2132.36 1911.98C2099.29 1906.61 2081.67 1866.79 2081.67 1866.79C2081.67 1866.79 2070.62 1843.28 2065.47 1816.62C2073.42 1810.29 2082.88 1805.48 2094.16 1802.94C2160.7 1787.85 2181.14 1845.21 2181.39 1867.6Z" fill="#5FD670"/>
<path d="M2142.86 1915.72C2139.39 1915.72 2135.74 1915.4 2131.89 1914.77C2097.71 1909.21 2079.82 1869.61 2079.07 1867.93C2078.64 1867.02 2067.83 1843.86 2062.68 1817.15C2062.48 1816.11 2062.87 1815.05 2063.7 1814.39C2072.42 1807.44 2082.46 1802.65 2093.53 1800.16C2118.62 1794.47 2139.71 1798.18 2156.18 1811.19C2176.47 1827.22 2184.06 1853.68 2184.21 1867.56C2184.39 1884.2 2178.93 1898.51 2169.24 1906.82C2162.35 1912.75 2153.5 1915.72 2142.86 1915.72ZM2068.59 1817.78C2073.74 1843.1 2084.13 1865.35 2084.23 1865.58C2084.43 1866.02 2101.67 1904.12 2132.8 1909.18C2146.72 1911.47 2157.73 1909.23 2165.55 1902.52C2177.5 1892.27 2178.61 1874.71 2178.54 1867.63C2178.4 1854.84 2171.4 1830.45 2152.66 1815.65C2137.6 1803.75 2118.13 1800.41 2094.77 1805.7C2085.12 1807.88 2076.32 1811.94 2068.59 1817.78Z" fill="black"/>
<path d="M2081.67 1866.79C2081.67 1866.79 2075.92 1869.64 2069.32 1877.8C2069.32 1877.8 2060.07 1836.67 2065.47 1816.62C2070.62 1843.28 2081.67 1866.79 2081.67 1866.79Z" fill="black"/>
<path d="M2069.32 1880.63C2069.11 1880.63 2068.89 1880.61 2068.67 1880.56C2067.61 1880.31 2066.79 1879.48 2066.55 1878.42C2066.17 1876.71 2057.2 1836.37 2062.73 1815.88C2063.08 1814.61 2064.14 1813.73 2065.57 1813.78C2066.89 1813.83 2068 1814.78 2068.25 1816.08C2073.27 1842.1 2084.12 1865.35 2084.23 1865.58C2084.88 1866.97 2084.31 1868.63 2082.93 1869.32C2082.88 1869.35 2077.58 1872.08 2071.51 1879.58C2070.97 1880.25 2070.16 1880.63 2069.32 1880.63ZM2066.61 1833.61C2066.72 1847.56 2069.4 1863.5 2070.97 1871.68C2073.83 1868.76 2076.35 1866.83 2078.06 1865.67C2075.89 1860.76 2070.83 1848.62 2066.61 1833.61Z" fill="black"/>
<path d="M2031.64 2070.1C2038.47 2063.86 2045.08 2057.56 2051.58 2051.15C2058.04 2044.71 2064.46 2038.25 2070.56 2031.5C2076.75 2024.84 2082.77 2018 2088.61 2011C2094.55 2004.06 2100.1 1996.81 2106.04 1989.69C2102.11 1998.05 2097.49 2006.13 2092.13 2013.68C2086.91 2021.35 2080.96 2028.48 2074.73 2035.34C2068.43 2042.14 2061.71 2048.55 2054.54 2054.42C2047.38 2060.3 2039.84 2065.77 2031.64 2070.1Z" fill="black"/>
<path d="M2006.58 1928.15C2006.58 1928.15 1903.84 1899.68 1901.19 1865.18C1898.78 1833.78 1934.22 1831.38 1967.39 1860.13C1992.96 1882.3 2006.58 1928.15 2006.58 1928.15Z" fill="#5FD670"/>
<path d="M2006.58 1930.99C2006.33 1930.99 2006.07 1930.96 2005.82 1930.89C2001.55 1929.71 1901.13 1901.47 1898.36 1865.41C1897.44 1853.4 1901.72 1844.37 1910.4 1839.99C1924.81 1832.73 1948.45 1839.97 1969.24 1857.99C1995.15 1880.45 2008.73 1925.44 2009.29 1927.35C2009.59 1928.34 2009.32 1929.41 2008.6 1930.14C2008.06 1930.69 2007.33 1930.99 2006.58 1930.99ZM1923.45 1842.85C1919.32 1842.85 1915.76 1843.63 1912.95 1845.05C1906.36 1848.37 1903.26 1855.26 1904.01 1864.97C1905.94 1890.13 1971.28 1914.72 2002.19 1923.94C1997.88 1911.56 1985.25 1879.38 1965.52 1862.27C1949.52 1848.4 1934.44 1842.85 1923.45 1842.85Z" fill="black"/>
<path d="M2024.03 1951.71C2018.1 1944.61 2012.1 1937.72 2006 1930.94C1999.85 1924.2 1993.69 1917.49 1987.22 1911.09C1980.84 1904.6 1974.29 1898.29 1967.55 1892.13C1960.89 1885.88 1953.9 1880.02 1947.05 1873.76C1955.23 1878.07 1963.09 1883.04 1970.39 1888.74C1977.81 1894.3 1984.67 1900.56 1991.24 1907.1C1997.75 1913.7 2003.85 1920.7 2009.39 1928.13C2014.95 1935.55 2020.07 1943.32 2024.03 1951.71Z" fill="black"/>
<path d="M2133.56 2063.14H1914.4V2105.12H2133.56V2063.14Z" fill="white"/>
<path d="M2113.93 2105.12H1934.02L1957.65 2245.41H2090.3L2113.93 2105.12Z" fill="white"/>
<path d="M2103.64 2166.23L1932.69 2105.12H2113.93L2103.64 2166.23Z" fill="#E5EAFF"/>
<path d="M2133.56 2107.95H1914.4C1912.83 2107.95 1911.56 2106.68 1911.56 2105.11V2063.13C1911.56 2061.56 1912.83 2060.29 1914.4 2060.29H2133.56C2135.13 2060.29 2136.4 2061.56 2136.4 2063.13V2105.11C2136.39 2106.68 2135.12 2107.95 2133.56 2107.95ZM1917.23 2102.28H2130.72V2065.97H1917.23V2102.28Z" fill="black"/>
<path d="M2090.3 2248.24H1957.64C1956.26 2248.24 1955.07 2247.24 1954.84 2245.88L1931.22 2105.59C1931.08 2104.77 1931.31 2103.92 1931.85 2103.29C1932.39 2102.65 1933.18 2102.29 1934.01 2102.29H2113.91C2114.74 2102.29 2115.53 2102.66 2116.07 2103.29C2116.61 2103.93 2116.84 2104.77 2116.7 2105.59L2093.08 2245.88C2092.87 2247.24 2091.69 2248.24 2090.3 2248.24ZM1960.04 2242.57H2087.9L2110.57 2107.95H1937.37L1960.04 2242.57Z" fill="black"/>
<path d="M1980.4 2005.92C1980.4 2005.92 1985.65 2007.77 1992.21 2014.12C1994.99 2016.77 1997.97 2020.22 2000.87 2024.71C2006.8 2033.79 2013.44 2051.15 2037.78 2063.68C2037.78 2063.68 2032.57 1987.68 1989.1 1960.94C1987.46 1984.48 1980.4 2005.92 1980.4 2005.92Z" fill="#5FD670"/>
<path d="M2037.78 2066.51C2037.34 2066.51 2036.89 2066.41 2036.48 2066.2C2015.43 2055.37 2007.05 2040.87 2001.5 2031.27C2000.43 2029.42 1999.45 2027.73 1998.49 2026.26C1996.01 2022.41 1993.23 2019.02 1990.24 2016.17C1984.27 2010.39 1979.48 2008.61 1979.43 2008.59C1977.99 2008.07 1977.21 2006.49 1977.69 2005.03C1977.76 2004.82 1984.66 1983.63 1986.26 1960.74C1986.33 1959.75 1986.91 1958.87 1987.79 1958.41C1988.67 1957.96 1989.72 1958 1990.57 1958.52C2034.78 1985.71 2040.37 2060.32 2040.59 2063.48C2040.66 2064.5 2040.18 2065.48 2039.32 2066.04C2038.87 2066.35 2038.33 2066.51 2037.78 2066.51ZM1983.85 2004.39C1986.19 2005.62 1989.96 2007.98 1994.19 2012.07C1997.49 2015.21 2000.54 2018.95 2003.26 2023.16C2004.26 2024.69 2005.29 2026.47 2006.42 2028.42C2011.49 2037.18 2018.27 2048.9 2034.4 2058.55C2032.34 2041.69 2023.48 1989.18 1991.52 1965.96C1989.79 1983.33 1985.58 1998.62 1983.85 2004.39Z" fill="black"/>
<path d="M1883.78 2021.6C1877.79 2043.89 1884.12 2119.55 1916.74 2110C1944.69 2101.89 1980.4 2005.91 1980.4 2005.91C1980.4 2005.91 1987.46 1984.47 1989.1 1960.93C1981.58 1956.31 1972.92 1953.15 1962.91 1952.15C1903.94 1946.14 1888.83 2002.82 1883.78 2021.6Z" fill="#5FD670"/>
<path d="M1911.29 2113.66C1906 2113.66 1901.1 2111.56 1896.88 2107.43C1879.3 2090.23 1875.99 2039.63 1881.04 2020.87L1883.78 2021.61L1881.07 2020.76C1886.23 2001.55 1901.88 1943.09 1963.2 1949.33C1973.06 1950.32 1982.28 1953.41 1990.59 1958.52C1991.49 1959.07 1992.01 1960.08 1991.93 1961.13C1990.29 1984.75 1983.39 2005.91 1983.09 2006.8C1981.58 2010.88 1946.52 2104.32 1917.52 2112.73C1915.4 2113.35 1913.32 2113.66 1911.29 2113.66ZM1954.57 1954.55C1904.73 1954.55 1891.16 2005.06 1886.55 2022.23L1886.52 2022.34C1881.7 2040.27 1885.2 2088.07 1900.85 2103.38C1905.26 2107.69 1910.2 2108.97 1915.94 2107.29C1937.75 2100.96 1967.95 2031.25 1977.74 2004.93C1977.77 2004.82 1984.33 1984.69 1986.14 1962.48C1978.96 1958.35 1971.06 1955.83 1962.63 1954.98C1959.84 1954.69 1957.15 1954.55 1954.57 1954.55Z" fill="black"/>
<path d="M1980.4 2005.92C1980.4 2005.92 1985.65 2007.77 1992.21 2014.12C1992.21 2014.12 1995.87 1977.68 1989.1 1960.94C1987.46 1984.48 1980.4 2005.92 1980.4 2005.92Z" fill="black"/>
<path d="M1992.21 2016.95C1991.49 2016.95 1990.78 2016.67 1990.24 2016.15C1984.28 2010.39 1979.49 2008.6 1979.44 2008.58C1978 2008.06 1977.22 2006.48 1977.7 2005.02C1977.77 2004.81 1984.67 1983.62 1986.27 1960.73C1986.36 1959.41 1987.35 1958.33 1988.66 1958.13C1989.95 1957.92 1991.24 1958.64 1991.73 1959.87C1998.68 1977.05 1995.18 2012.88 1995.03 2014.39C1994.92 2015.47 1994.2 2016.4 1993.18 2016.77C1992.87 2016.89 1992.54 2016.95 1992.21 2016.95ZM1983.85 2004.39C1985.35 2005.18 1987.42 2006.42 1989.83 2008.29C1990.27 2001.49 1990.78 1989.51 1989.83 1978.58C1987.83 1990.43 1985.14 2000.08 1983.85 2004.39Z" fill="black"/>
<path d="M1026.35 1437C1025.53 1437 1017.79 1436.64 1000.3 1435.78C998.04 1435.67 995.82 1435.46 993.6 1435.14C1011.8 1436.1 1025.16 1436.86 1026.35 1437Z" fill="#47BF55"/>
<path d="M952.151 597.13L818.901 639.37L778.301 686.24C773.471 691.82 764.511 690.72 761.181 684.13L749.641 661.32L731.551 667.06C681.001 683.06 627.011 655.09 610.961 604.5L568.301 469.83C552.251 419.24 580.271 365.25 630.821 349.25L851.471 279.35C902.061 263.3 956.011 291.32 972.061 341.91L1014.71 476.55C1030.76 527.13 1002.74 581.12 952.151 597.13Z" fill="white"/>
<path d="M770.46 692.67C769.92 692.67 769.38 692.64 768.84 692.57C764.46 692.03 760.65 689.36 758.66 685.42L748.21 664.77L732.41 669.78C680.44 686.24 624.75 657.34 608.26 605.37L565.6 470.68C557.61 445.5 559.91 418.71 572.07 395.26C584.23 371.81 604.79 354.51 629.97 346.54L850.62 276.64C902.6 260.15 958.27 289.05 974.77 341.05L1017.42 475.69C1025.41 500.88 1023.11 527.66 1010.94 551.12C998.77 574.57 978.2 591.87 953.01 599.84L820.52 641.84L780.44 688.11C777.91 691.02 774.27 692.67 770.46 692.67ZM749.64 658.49C750.68 658.49 751.68 659.07 752.17 660.05L763.71 682.86C764.87 685.14 766.99 686.63 769.53 686.94C772.09 687.25 774.49 686.32 776.16 684.39L816.76 637.52C817.1 637.12 817.55 636.83 818.05 636.67L951.3 594.43C975.05 586.92 994.44 570.61 1005.91 548.5C1017.38 526.39 1019.55 501.14 1012.01 477.4L969.36 342.76C953.82 293.75 901.32 266.51 852.33 282.05L631.68 351.95C607.95 359.46 588.57 375.77 577.1 397.87C565.64 419.98 563.47 445.23 571 468.97L613.65 603.65C629.19 652.64 681.69 679.87 730.68 664.36L748.78 658.62C749.07 658.53 749.35 658.49 749.64 658.49Z" fill="black"/>
<path d="M730.56 525.17L744.29 570.29C749.06 585.97 740.22 602.55 724.56 607.31C708.88 612.08 692.3 603.24 687.53 587.56L673.8 542.44C669.04 526.78 677.88 510.2 693.56 505.43C701.39 503.05 709.45 504.07 716.16 507.65C722.84 511.22 728.18 517.34 730.56 525.17Z" fill="#FFD400"/>
<path d="M715.871 611.45C710.601 611.45 705.391 610.16 700.611 607.61C692.951 603.52 687.341 596.7 684.811 588.39L671.091 543.27C668.561 534.97 669.421 526.18 673.511 518.52C677.601 510.86 684.431 505.25 692.741 502.72C701.031 500.2 709.831 501.06 717.501 505.15C725.151 509.23 730.751 516.05 733.281 524.35L747.001 569.46C752.221 586.61 742.521 604.8 725.381 610.02C722.251 610.98 719.051 611.45 715.871 611.45ZM702.211 506.98C699.591 506.98 696.961 507.37 694.391 508.15C687.531 510.24 681.891 514.87 678.521 521.19C675.151 527.51 674.441 534.77 676.521 541.62L690.241 586.74C694.551 600.9 709.581 608.92 723.731 604.61C737.881 600.31 745.881 585.29 741.581 571.13L727.851 526C725.761 519.15 721.141 513.52 714.831 510.15C710.871 508.05 706.561 506.98 702.211 506.98Z" fill="black"/>
<path d="M812.331 464.97L835.851 542.27C840.621 557.95 831.801 574.52 816.121 579.29C800.461 584.05 783.881 575.21 779.111 559.53L755.591 482.23C750.821 466.55 759.671 449.99 775.331 445.23C783.161 442.85 791.221 443.87 797.921 447.43C804.611 451.02 809.941 457.14 812.331 464.97Z" fill="#5FD670"/>
<path d="M807.501 583.41C793.571 583.41 780.651 574.37 776.391 560.35L752.871 483.05C750.341 474.74 751.201 465.95 755.291 458.3C759.371 450.65 766.191 445.04 774.491 442.52C782.781 440 791.571 440.85 799.241 444.92C806.901 449.03 812.511 455.85 815.031 464.14L838.541 541.44C841.071 549.75 840.211 558.54 836.131 566.2C832.051 573.86 825.231 579.47 816.921 582C813.801 582.96 810.621 583.41 807.501 583.41ZM783.991 446.77C781.361 446.77 778.731 447.16 776.151 447.94C769.301 450.02 763.671 454.65 760.291 460.97C756.921 467.29 756.211 474.55 758.291 481.4L781.811 558.7C786.121 572.86 801.151 580.88 815.271 576.57C822.131 574.48 827.761 569.85 831.131 563.53C834.501 557.21 835.211 549.95 833.121 543.09L809.611 465.79C807.521 458.95 802.901 453.31 796.581 449.92C792.641 447.84 788.331 446.77 783.991 446.77Z" fill="black"/>
<path d="M892.771 398.41L927.961 514.08C932.731 529.76 923.891 546.34 908.231 551.1C892.551 555.87 875.971 547.03 871.201 531.35L836.011 415.68C831.241 400 840.091 383.44 855.771 378.67C863.601 376.29 871.661 377.31 878.341 380.87C885.051 384.45 890.391 390.58 892.771 398.41Z" fill="#4BC9F1"/>
<path d="M899.61 555.22C885.67 555.22 872.75 546.18 868.49 532.17L833.29 416.5C828.08 399.36 837.79 381.17 854.94 375.96C863.24 373.43 872.02 374.29 879.68 378.37C887.35 382.46 892.96 389.28 895.48 397.58L930.67 513.25C935.89 530.4 926.19 548.6 909.05 553.81C905.91 554.77 902.73 555.22 899.61 555.22ZM864.43 380.21C861.81 380.21 859.17 380.6 856.59 381.38C849.73 383.47 844.09 388.1 840.71 394.41C837.34 400.73 836.63 407.99 838.71 414.84L873.9 530.51C875.99 537.37 880.62 543.01 886.94 546.38C893.27 549.75 900.53 550.46 907.38 548.38C921.53 544.08 929.53 529.06 925.23 514.9L890.04 399.23C887.96 392.38 883.32 386.75 876.99 383.37C873.07 381.27 868.77 380.21 864.43 380.21Z" fill="black"/>
<path d="M663.9 469.86C662.35 469.86 660.9 468.9 660.34 467.36C659.63 465.4 660.65 463.23 662.61 462.52C737.91 435.42 770.51 413.66 815.14 338.25C816.2 336.45 818.52 335.86 820.32 336.92C822.11 337.98 822.71 340.3 821.65 342.1C776.19 418.92 741.13 442.3 665.18 469.64C664.75 469.79 664.32 469.86 663.9 469.86Z" fill="#060F11"/>
<path d="M814.971 367.75L791.771 352.34C785.661 348.28 786.651 339.01 793.481 336.34L816.081 327.48C821.941 325.18 828.311 329.41 828.461 335.71L829.051 359.98C829.241 367.3 821.081 371.81 814.971 367.75Z" fill="#060F11"/>
<rect x="1229" y="1815" width="378" height="124" rx="24" fill="#5FD670" stroke="black" stroke-width="8"/>
<path d="M1306.92 1899V1853.91H1324.97C1328.29 1853.91 1331.06 1854.4 1333.27 1855.38C1335.49 1856.37 1337.16 1857.73 1338.27 1859.48C1339.39 1861.21 1339.94 1863.21 1339.94 1865.47C1339.94 1867.23 1339.59 1868.78 1338.89 1870.11C1338.18 1871.43 1337.21 1872.52 1335.98 1873.37C1334.76 1874.21 1333.37 1874.8 1331.8 1875.16V1875.6C1333.52 1875.67 1335.12 1876.15 1336.62 1877.05C1338.13 1877.94 1339.36 1879.2 1340.3 1880.81C1341.24 1882.41 1341.71 1884.32 1341.71 1886.54C1341.71 1888.93 1341.11 1891.07 1339.92 1892.95C1338.75 1894.81 1337.01 1896.28 1334.7 1897.37C1332.4 1898.46 1329.56 1899 1326.18 1899H1306.92ZM1316.45 1891.21H1324.22C1326.88 1891.21 1328.82 1890.7 1330.04 1889.69C1331.26 1888.66 1331.86 1887.29 1331.86 1885.59C1331.86 1884.34 1331.56 1883.24 1330.96 1882.29C1330.36 1881.33 1329.5 1880.59 1328.39 1880.04C1327.28 1879.5 1325.97 1879.23 1324.44 1879.23H1316.45V1891.21ZM1316.45 1872.78H1323.52C1324.83 1872.78 1325.99 1872.55 1327 1872.1C1328.03 1871.63 1328.83 1870.96 1329.42 1870.11C1330.02 1869.26 1330.32 1868.24 1330.32 1867.05C1330.32 1865.42 1329.74 1864.11 1328.58 1863.11C1327.44 1862.11 1325.81 1861.62 1323.7 1861.62H1316.45V1872.78ZM1347.91 1899V1853.91H1365.7C1369.1 1853.91 1372.01 1854.52 1374.42 1855.74C1376.84 1856.94 1378.68 1858.65 1379.94 1860.87C1381.22 1863.07 1381.86 1865.66 1381.86 1868.64C1381.86 1871.63 1381.21 1874.21 1379.92 1876.37C1378.63 1878.51 1376.76 1880.15 1374.31 1881.3C1371.87 1882.44 1368.92 1883.02 1365.46 1883.02H1353.55V1875.35H1363.92C1365.74 1875.35 1367.25 1875.1 1368.45 1874.61C1369.65 1874.11 1370.55 1873.36 1371.14 1872.36C1371.74 1871.36 1372.04 1870.12 1372.04 1868.64C1372.04 1867.14 1371.74 1865.88 1371.14 1864.85C1370.55 1863.82 1369.65 1863.05 1368.43 1862.52C1367.23 1861.97 1365.71 1861.7 1363.87 1861.7H1357.44V1899H1347.91ZM1372.26 1878.48L1383.47 1899H1372.94L1361.98 1878.48H1372.26ZM1398.13 1853.91V1899H1388.6V1853.91H1398.13ZM1421.96 1899H1405.97V1853.91H1422.09C1426.63 1853.91 1430.53 1854.81 1433.8 1856.62C1437.08 1858.41 1439.59 1860.98 1441.36 1864.35C1443.13 1867.71 1444.02 1871.73 1444.02 1876.41C1444.02 1881.11 1443.13 1885.14 1441.36 1888.52C1439.59 1891.9 1437.06 1894.49 1433.76 1896.29C1430.47 1898.1 1426.54 1899 1421.96 1899ZM1415.51 1890.83H1421.56C1424.38 1890.83 1426.75 1890.33 1428.67 1889.33C1430.61 1888.32 1432.06 1886.76 1433.03 1884.64C1434.02 1882.52 1434.51 1879.77 1434.51 1876.41C1434.51 1873.08 1434.02 1870.36 1433.03 1868.24C1432.06 1866.13 1430.62 1864.57 1428.7 1863.57C1426.77 1862.58 1424.4 1862.08 1421.58 1862.08H1415.51V1890.83ZM1480.98 1868.48C1480.67 1867.41 1480.24 1866.47 1479.68 1865.64C1479.12 1864.81 1478.44 1864.1 1477.63 1863.53C1476.84 1862.94 1475.93 1862.5 1474.9 1862.19C1473.89 1861.88 1472.77 1861.73 1471.53 1861.73C1469.23 1861.73 1467.2 1862.3 1465.46 1863.44C1463.73 1864.59 1462.38 1866.25 1461.41 1868.44C1460.44 1870.61 1459.95 1873.27 1459.95 1876.41C1459.95 1879.55 1460.43 1882.22 1461.39 1884.42C1462.34 1886.63 1463.69 1888.31 1465.44 1889.47C1467.18 1890.61 1469.25 1891.18 1471.62 1891.18C1473.78 1891.18 1475.62 1890.8 1477.15 1890.04C1478.69 1889.26 1479.86 1888.17 1480.67 1886.76C1481.49 1885.35 1481.91 1883.68 1481.91 1881.76L1483.84 1882.05H1472.22V1874.87H1491.09V1880.55C1491.09 1884.51 1490.25 1887.92 1488.58 1890.77C1486.9 1893.6 1484.6 1895.79 1481.66 1897.33C1478.73 1898.85 1475.37 1899.62 1471.58 1899.62C1467.35 1899.62 1463.64 1898.68 1460.44 1896.82C1457.24 1894.94 1454.74 1892.28 1452.95 1888.83C1451.18 1885.36 1450.29 1881.25 1450.29 1876.5C1450.29 1872.84 1450.82 1869.59 1451.87 1866.72C1452.95 1863.85 1454.44 1861.41 1456.37 1859.41C1458.29 1857.42 1460.53 1855.9 1463.08 1854.86C1465.63 1853.81 1468.4 1853.29 1471.38 1853.29C1473.93 1853.29 1476.31 1853.67 1478.51 1854.42C1480.72 1855.15 1482.67 1856.19 1484.37 1857.54C1486.09 1858.89 1487.49 1860.5 1488.58 1862.36C1489.66 1864.21 1490.36 1866.25 1490.67 1868.48H1480.98ZM1498.25 1899V1853.91H1528.63V1861.77H1507.78V1872.51H1527.07V1880.37H1507.78V1891.14H1528.72V1899H1498.25Z" fill="white"/>
<defs>
<filter id="filter0_d_116_1536" x="1219.61" y="1168.23" width="157.066" height="80.0986" filterUnits="userSpaceOnUse" color-interpolation-filters="sRGB">
<feFlood flood-opacity="0" result="BackgroundImageFix"/>
<feColorMatrix in="SourceAlpha" type="matrix" values="0 0 0 0 0 0 0 0 0 0 0 0 0 0 0 0 0 0 127 0" result="hardAlpha"/>
<feOffset dy="2"/>
<feComposite in2="hardAlpha" operator="out"/>
<feColorMatrix type="matrix" values="0 0 0 0 0 0 0 0 0 0 0 0 0 0 0 0 0 0 0.25 0"/>
<feBlend mode="normal" in2="BackgroundImageFix" result="effect1_dropShadow_116_1536"/>
<feBlend mode="normal" in="SourceGraphic" in2="effect1_dropShadow_116_1536" result="shape"/>
</filter>
<filter id="filter1_d_116_1536" x="1291.29" y="1255.2" width="90.8916" height="58.5208" filterUnits="userSpaceOnUse" color-interpolation-filters="sRGB">
<feFlood flood-opacity="0" result="BackgroundImageFix"/>
<feColorMatrix in="SourceAlpha" type="matrix" values="0 0 0 0 0 0 0 0 0 0 0 0 0 0 0 0 0 0 127 0" result="hardAlpha"/>
<feOffset dy="2"/>
<feGaussianBlur stdDeviation="0.5"/>
<feComposite in2="hardAlpha" operator="out"/>
<feColorMatrix type="matrix" values="0 0 0 0 0 0 0 0 0 0 0 0 0 0 0 0 0 0 0.25 0"/>
<feBlend mode="normal" in2="BackgroundImageFix" result="effect1_dropShadow_116_1536"/>
<feBlend mode="normal" in="SourceGraphic" in2="effect1_dropShadow_116_1536" result="shape"/>
</filter>
<filter id="filter2_d_116_1536" x="1235.81" y="1289.51" width="41.3809" height="41.7876" filterUnits="userSpaceOnUse" color-interpolation-filters="sRGB">
<feFlood flood-opacity="0" result="BackgroundImageFix"/>
<feColorMatrix in="SourceAlpha" type="matrix" values="0 0 0 0 0 0 0 0 0 0 0 0 0 0 0 0 0 0 127 0" result="hardAlpha"/>
<feOffset dy="2"/>
<feComposite in2="hardAlpha" operator="out"/>
<feColorMatrix type="matrix" values="0 0 0 0 0 0 0 0 0 0 0 0 0 0 0 0 0 0 0.25 0"/>
<feBlend mode="normal" in2="BackgroundImageFix" result="effect1_dropShadow_116_1536"/>
<feBlend mode="normal" in="SourceGraphic" in2="effect1_dropShadow_116_1536" result="shape"/>
</filter>
<filter id="filter3_d_116_1536" x="1252.33" y="1340.93" width="159.066" height="81.0986" filterUnits="userSpaceOnUse" color-interpolation-filters="sRGB">
<feFlood flood-opacity="0" result="BackgroundImageFix"/>
<feColorMatrix in="SourceAlpha" type="matrix" values="0 0 0 0 0 0 0 0 0 0 0 0 0 0 0 0 0 0 127 0" result="hardAlpha"/>
<feOffset dy="2"/>
<feGaussianBlur stdDeviation="0.5"/>
<feComposite in2="hardAlpha" operator="out"/>
<feColorMatrix type="matrix" values="0 0 0 0 0 0 0 0 0 0 0 0 0 0 0 0 0 0 0.25 0"/>
<feBlend mode="normal" in2="BackgroundImageFix" result="effect1_dropShadow_116_1536"/>
<feBlend mode="normal" in="SourceGraphic" in2="effect1_dropShadow_116_1536" result="shape"/>
</filter>
<linearGradient id="paint0_linear_116_1536" x1="1937.08" y1="900.48" x2="1937.08" y2="1393.82" gradientUnits="userSpaceOnUse">
<stop stop-color="#F2B931"/>
<stop offset="1" stop-color="#F2B931"/>
</linearGradient>
<linearGradient id="paint1_linear_116_1536" x1="2045.14" y1="577.62" x2="2045.14" y2="861.4" gradientUnits="userSpaceOnUse">
<stop stop-color="#F2B930"/>
<stop offset="1" stop-color="#F2B930"/>
</linearGradient>
<linearGradient id="paint2_linear_116_1536" x1="1291.4" y1="1047.3" x2="1291.4" y2="1541.92" gradientUnits="userSpaceOnUse">
<stop stop-color="#256FF1"/>
<stop offset="1" stop-color="#4D8CFE"/>
</linearGradient>
<clipPath id="clip0_116_1536">
<rect width="285.998" height="285.998" fill="white" transform="translate(1807.83 991) rotate(5.18112)"/>
</clipPath>
<clipPath id="clip1_116_1536">
<rect width="140.133" height="140.133" fill="white" transform="translate(1981.65 649) rotate(5.18112)"/>
</clipPath>
</defs>
</svg>
