<svg width="205" height="206" viewBox="0 0 205 206" fill="none" xmlns="http://www.w3.org/2000/svg">
<path d="M194.291 34.5214L171.557 6.17847L150.622 18.9357L163.269 53.4357C163.281 53.4944 163.301 53.5478 163.329 53.5994C164.171 55.1124 171.809 52.0989 180.389 46.871C188.97 41.6414 195.245 36.1768 194.403 34.6638C194.374 34.6104 194.335 34.5623 194.291 34.5214Z" fill="#FF4A1A"/>
<path d="M161.672 30.6891L127.032 35.1391L127.553 44.064L162.455 43.9162C162.511 43.9198 162.566 43.9198 162.621 43.9162C164.291 43.8094 165.469 40.7567 165.255 37.0988C165.042 33.4409 163.514 30.5609 161.845 30.6695C161.786 30.6695 161.729 30.6784 161.672 30.6891Z" fill="#FF4A1A"/>
<path d="M127.215 35.0572C128.466 34.9771 129.6 36.9404 129.746 39.4449C129.892 41.9493 128.997 44.0426 127.745 44.1227C126.494 44.2028 125.36 42.2395 125.214 39.735C125.068 37.2306 125.964 35.1373 127.215 35.0572Z" fill="#FF4A1A"/>
<path d="M171.816 6.24971C172.447 7.38357 168.199 11.2052 162.329 14.783C156.459 18.3608 151.186 20.342 150.556 19.2063C149.926 18.0725 154.173 14.2508 160.044 10.673C165.914 7.09521 171.185 5.11585 171.816 6.24971Z" fill="white"/>
<path d="M126.738 30.2797C126.553 30.1462 124.408 28.0814 123.361 28.044C120.802 27.9514 118.561 32.9283 118.354 39.1601C118.148 45.3919 120.054 50.5201 122.614 50.6126C123.65 50.65 125.94 48.8291 126.129 48.6831C129.705 45.8938 129.817 44.6923 129.986 39.6104C130.152 34.5285 130.001 32.6471 126.738 30.2797Z" fill="#FF4A1A"/>
<path d="M122.553 28.3609C124.737 28.352 126.526 33.3271 126.547 39.4716C126.569 45.6162 124.814 50.6037 122.63 50.6126C120.446 50.6215 118.657 45.6464 118.635 39.5019C118.614 33.3573 120.367 28.3698 122.553 28.3609Z" fill="#FF4A1A"/>
<path d="M124.103 49.7885L123.735 49.5892C126.45 44.0979 126.779 37.3837 124.616 31.6308C124.246 30.6464 123.621 29.2918 122.466 28.8807L122.599 28.4695C123.918 28.9394 124.604 30.4079 125.002 31.4723C127.208 37.341 126.871 44.1887 124.103 49.7885Z" fill="#152146"/>
<path d="M175.832 11.5078C175.832 11.5078 185.467 3.61176 190.976 10.5342C196.485 17.4548 187.594 26.1733 187.594 26.1733" stroke="white" stroke-width="6" stroke-miterlimit="10"/>
<path d="M121.651 32.5652C121.651 32.5652 120.725 32.6471 119.039 33.1099" stroke="white" stroke-width="2" stroke-miterlimit="10"/>
<path d="M114.451 34.7422C108.016 37.5012 97.8432 43.7063 86.307 57.576" stroke="white" stroke-width="2" stroke-miterlimit="10" stroke-dasharray="27.39 27.39"/>
<path d="M84.7637 59.4663C84.2173 60.1498 83.6672 60.8494 83.1154 61.5685" stroke="white" stroke-width="2" stroke-miterlimit="10"/>
<path d="M88.7527 63.3699C88.7527 63.3699 89.2903 62.5493 90.3013 61.1965" stroke="white" stroke-width="2" stroke-miterlimit="10"/>
<path d="M93.6779 56.994C98.5872 51.2802 106.859 43.2061 117.072 39.2491" stroke="white" stroke-width="2" stroke-miterlimit="10" stroke-dasharray="30.29 30.29"/>
<path d="M119.621 38.3627C120.469 38.101 121.33 37.8714 122.201 37.6738" stroke="white" stroke-width="2" stroke-miterlimit="10"/>
<path d="M97.3287 65.5469C97.3287 65.5469 97.8627 64.7494 98.9201 63.4055" stroke="white" stroke-width="2" stroke-miterlimit="10"/>
<path d="M102.683 59.0089C106.165 55.2425 111.318 50.3831 118.075 45.9099" stroke="white" stroke-width="2" stroke-miterlimit="10" stroke-dasharray="32.51 32.51"/>
<path d="M120.517 44.3578C121.266 43.9003 122.033 43.4464 122.818 43.0032" stroke="white" stroke-width="2" stroke-miterlimit="10"/>
<path d="M103.092 69.8384C103.092 69.8384 103.623 69.0018 104.572 67.6169" stroke="white" stroke-width="2" stroke-miterlimit="10"/>
<path d="M107.428 63.5959C110.262 59.7565 114.246 54.7689 118.641 50.4916" stroke="white" stroke-width="2" stroke-miterlimit="10" stroke-dasharray="27.71 27.71"/>
<path d="M120.442 48.8042C121.11 48.2025 121.786 47.6205 122.466 47.0669" stroke="white" stroke-width="2" stroke-miterlimit="10"/>
<path d="M118.335 189.581L129.479 168.312C132.024 163.224 131.115 157.089 127.204 152.957L114.851 139.906C108.749 133.459 99.2209 131.612 91.1504 135.307L81.339 139.801C78.9716 140.885 76.5864 138.329 77.8342 136.044L85.1874 122.562L106.934 116.175C111.768 114.757 115.757 120.832 119.456 124.253L129.201 133.272L130.374 130.225L120.23 117.651C116.3 112.781 111.044 105.93 105.054 107.744L97.1454 110.138L98.3184 108.26C100.522 104.735 100.867 100.357 99.244 96.5295L96.1664 89.2725H91.752L94.5662 102.635L86.3604 111.779L84.4344 112.076C79.9631 112.765 76.1859 115.764 74.5056 119.965L73.9342 121.391L52.3659 120.218L42.0508 112.247L40.1747 116.935L47.9106 122.035C49.1495 122.852 49.1797 124.661 47.9658 125.517C47.0277 126.179 45.8689 126.448 44.7368 126.266L34.7813 124.673L36.6574 128.424C36.6574 128.424 48.3805 131.238 49.0836 130.768C49.5553 130.453 53.2969 128.345 55.7088 126.992C57.0189 126.257 58.5674 126.079 60.011 126.496L68.3076 128.893L63.1314 138.183C60.7925 142.381 61.5756 147.624 65.0377 150.955L67.2716 153.105C69.931 155.665 73.7811 156.556 77.2966 155.428L91.93 150.729C95.0913 149.714 98.5534 150.688 100.72 153.203L102.122 154.832C104.79 157.929 103.753 162.719 100.043 164.435L73.4661 176.72L66.9014 190.421L118.335 189.581Z" fill="white"/>
<path d="M158.498 190.001C158.498 195.711 134.81 200.339 97.9838 200.339C61.1574 200.339 38.1295 195.711 38.1295 190.001C38.1295 184.291 61.1574 179.663 97.9838 179.663C134.81 179.663 158.498 184.291 158.498 190.001Z" fill="#5845FF"/>
<path d="M38.1313 190.001L31.3068 175.528H164.664L158.498 190.001H38.1313Z" fill="#5845FF"/>
<path d="M164.664 175.528C164.664 181.238 134.812 184.545 97.9856 184.545C61.1591 184.545 31.3068 181.238 31.3068 175.528C31.3068 169.817 61.1591 166.291 97.9856 166.291C134.812 166.291 164.664 169.817 164.664 175.528Z" fill="#FEFEFE"/>
<path d="M37.3445 121.156C43.2931 121.156 48.1153 116.334 48.1153 110.385C48.1153 104.437 43.2931 99.6143 37.3445 99.6143C31.396 99.6143 26.5737 104.437 26.5737 110.385C26.5737 116.334 31.396 121.156 37.3445 121.156Z" fill="black"/>
<path d="M35.739 121.156C41.6875 121.156 46.5097 116.334 46.5097 110.385C46.5097 104.437 41.6875 99.6143 35.739 99.6143C29.7904 99.6143 24.9682 104.437 24.9682 110.385C24.9682 116.334 29.7904 121.156 35.739 121.156Z" fill="#01D56E"/>
<path d="M35.739 119.372C40.7025 119.372 44.7262 115.349 44.7262 110.385C44.7262 105.422 40.7025 101.398 35.739 101.398C30.7755 101.398 26.7517 105.422 26.7517 110.385C26.7517 115.349 30.7755 119.372 35.739 119.372Z" fill="black"/>
<mask id="mask0_22_2980" style="mask-type:luminance" maskUnits="userSpaceOnUse" x="26" y="101" width="19" height="19">
<path d="M35.739 119.372C40.7025 119.372 44.7262 115.349 44.7262 110.385C44.7262 105.422 40.7025 101.398 35.739 101.398C30.7755 101.398 26.7517 105.422 26.7517 110.385C26.7517 115.349 30.7755 119.372 35.739 119.372Z" fill="white"/>
</mask>
<g mask="url(#mask0_22_2980)">
<path d="M36.7215 119.372C41.685 119.372 45.7088 115.349 45.7088 110.385C45.7088 105.422 41.685 101.398 36.7215 101.398C31.758 101.398 27.7343 105.422 27.7343 110.385C27.7343 115.349 31.758 119.372 36.7215 119.372Z" fill="#01D56E"/>
</g>
<path d="M35.739 119.372C40.7025 119.372 44.7262 115.349 44.7262 110.385C44.7262 105.422 40.7025 101.398 35.739 101.398C30.7755 101.398 26.7517 105.422 26.7517 110.385C26.7517 115.349 30.7755 119.372 35.739 119.372Z" stroke="black" stroke-width="2" stroke-miterlimit="10"/>
<path d="M38.991 109.883C39.3523 110.045 39.6549 110.284 39.9041 110.59C40.2584 111.024 40.4951 111.51 40.4702 112.085C40.4275 113.067 39.8134 113.851 38.8273 114.205C38.336 114.381 37.8269 114.447 37.3071 114.44C37.2057 114.438 37.1718 114.459 37.1718 114.57C37.1701 115.102 37.1558 115.634 37.1523 116.166C37.1523 116.255 37.1291 116.282 37.0383 116.28C36.7393 116.271 36.4385 116.266 36.1394 116.266C36.0558 116.266 36.0326 116.243 36.0344 116.159C36.0469 115.618 36.0522 115.079 36.0647 114.538C36.0665 114.445 36.0469 114.415 35.949 114.415C35.73 114.417 35.5093 114.41 35.2904 114.399C35.2049 114.394 35.1836 114.424 35.1818 114.504C35.1765 115.045 35.1622 115.584 35.1587 116.126C35.1587 116.227 35.132 116.254 35.0305 116.248C34.7439 116.238 34.4556 116.236 34.169 116.238C34.0711 116.238 34.0355 116.22 34.039 116.108C34.0551 115.576 34.0533 115.043 34.0675 114.513C34.0693 114.411 34.0426 114.388 33.9447 114.388C33.2861 114.381 32.6275 114.365 31.9689 114.358C31.8586 114.356 31.8318 114.335 31.8532 114.223C31.9262 113.858 31.9903 113.491 32.0543 113.124C32.0686 113.046 32.0953 113.023 32.1772 113.027C32.4086 113.037 32.6417 113.044 32.8731 113.037C33.1615 113.03 33.295 112.888 33.3003 112.599C33.3253 110.99 33.3502 109.381 33.3715 107.772C33.3751 107.466 33.1757 107.245 32.866 107.211C32.5919 107.181 32.3178 107.19 32.0437 107.193C31.9564 107.195 31.9369 107.167 31.9386 107.085C31.9475 106.759 31.9529 106.435 31.9529 106.109C31.9529 106.019 31.9831 105.997 32.0704 105.999C32.7379 106.012 33.4054 106.017 34.0711 106.029C34.1637 106.031 34.1939 106.013 34.1939 105.914C34.1975 105.385 34.2117 104.858 34.2153 104.329C34.2153 104.224 34.2491 104.205 34.3452 104.207C34.6407 104.217 34.9362 104.223 35.2316 104.221C35.3206 104.221 35.3349 104.248 35.3331 104.329C35.3206 104.856 35.3171 105.385 35.3064 105.912C35.3046 105.997 35.3171 106.029 35.4132 106.028C35.6286 106.024 35.844 106.031 36.0593 106.047C36.1661 106.056 36.1839 106.02 36.1839 105.924C36.1893 105.396 36.2035 104.869 36.2089 104.34C36.2089 104.255 36.2338 104.233 36.3174 104.237C36.6165 104.246 36.9173 104.249 37.2163 104.249C37.3018 104.249 37.3303 104.269 37.3267 104.362C37.3142 104.888 37.3125 105.417 37.2982 105.944C37.2947 106.053 37.3285 106.077 37.4282 106.09C38.0049 106.156 38.5602 106.289 39.0604 106.601C40.0715 107.233 40.1711 108.45 39.7048 109.21C39.5588 109.449 39.3595 109.637 39.1174 109.776C39.0747 109.801 39.0213 109.81 38.9732 109.828C38.9803 109.849 38.9857 109.865 38.991 109.883ZM37.2929 110.794C37.1861 110.773 37.0775 110.748 36.9689 110.73C36.4296 110.638 35.8849 110.648 35.3402 110.648C35.2459 110.648 35.2423 110.689 35.2423 110.762C35.2405 111.446 35.2334 112.131 35.2281 112.815C35.2263 113.078 35.2263 113.08 35.4915 113.096C35.9686 113.126 36.4438 113.162 36.9209 113.1C37.2644 113.055 37.5955 112.971 37.8749 112.756C38.4552 112.309 38.5816 111.393 37.7414 110.967C37.5973 110.894 37.4477 110.839 37.2929 110.794ZM36.8781 107.396C36.4456 107.282 35.9134 107.311 35.3812 107.318C35.3189 107.32 35.3135 107.35 35.3135 107.396C35.31 108.08 35.3064 108.763 35.3011 109.449C35.3011 109.506 35.3189 109.531 35.3794 109.532C35.6499 109.543 35.9187 109.566 36.1893 109.568C36.5755 109.572 36.9565 109.538 37.3143 109.367C37.786 109.141 38.101 108.546 37.7877 107.991C37.6062 107.672 37.3089 107.514 36.8781 107.396Z" fill="white"/>
<path d="M125.517 134.643C130.635 134.643 134.783 130.494 134.783 125.376C134.783 120.258 130.635 116.109 125.517 116.109C120.399 116.109 116.25 120.258 116.25 125.376C116.25 130.494 120.399 134.643 125.517 134.643Z" fill="black"/>
<path d="M123.876 134.643C128.994 134.643 133.142 130.494 133.142 125.376C133.142 120.258 128.994 116.109 123.876 116.109C118.758 116.109 114.609 120.258 114.609 125.376C114.609 130.494 118.758 134.643 123.876 134.643Z" fill="#01D56E"/>
<path d="M123.876 133.109C128.146 133.109 131.608 129.647 131.608 125.376C131.608 121.106 128.146 117.644 123.876 117.644C119.605 117.644 116.143 121.106 116.143 125.376C116.143 129.647 119.605 133.109 123.876 133.109Z" fill="black"/>
<mask id="mask1_22_2980" style="mask-type:luminance" maskUnits="userSpaceOnUse" x="116" y="117" width="16" height="17">
<path d="M123.876 133.109C128.146 133.109 131.608 129.647 131.608 125.376C131.608 121.106 128.146 117.644 123.876 117.644C119.605 117.644 116.143 121.106 116.143 125.376C116.143 129.647 119.605 133.109 123.876 133.109Z" fill="white"/>
</mask>
<g mask="url(#mask1_22_2980)">
<path d="M124.721 133.109C128.992 133.109 132.453 129.647 132.453 125.376C132.453 121.106 128.992 117.644 124.721 117.644C120.451 117.644 116.989 121.106 116.989 125.376C116.989 129.647 120.451 133.109 124.721 133.109Z" fill="#01D56E"/>
</g>
<path d="M123.876 133.109C128.146 133.109 131.608 129.647 131.608 125.376C131.608 121.106 128.146 117.644 123.876 117.644C119.605 117.644 116.143 121.106 116.143 125.376C116.143 129.647 119.605 133.109 123.876 133.109Z" stroke="black" stroke-width="2" stroke-miterlimit="10"/>
<path d="M124.043 120.018L127.311 125.269L124.043 127.347L120.746 125.269L124.043 120.018Z" fill="white"/>
<path d="M124.029 127.927L121.035 126.182L124.029 130.579L127.162 126.182L124.029 127.927Z" fill="white"/>
<path d="M68.5711 112.726C77.0461 112.726 83.9164 105.855 83.9164 97.3804C83.9164 88.9054 77.0461 82.035 68.5711 82.035C60.096 82.035 53.2257 88.9054 53.2257 97.3804C53.2257 105.855 60.096 112.726 68.5711 112.726Z" fill="black"/>
<path d="M65.853 112.726C74.328 112.726 81.1984 105.855 81.1984 97.3804C81.1984 88.9054 74.328 82.035 65.853 82.035C57.378 82.035 50.5076 88.9054 50.5076 97.3804C50.5076 105.855 57.378 112.726 65.853 112.726Z" fill="#01D56E"/>
<path d="M65.853 110.186C72.9252 110.186 78.6583 104.453 78.6583 97.3804C78.6583 90.3082 72.9252 84.5751 65.853 84.5751C58.7808 84.5751 53.0477 90.3082 53.0477 97.3804C53.0477 104.453 58.7808 110.186 65.853 110.186Z" fill="black"/>
<mask id="mask2_22_2980" style="mask-type:luminance" maskUnits="userSpaceOnUse" x="53" y="84" width="26" height="27">
<path d="M65.853 110.186C72.9252 110.186 78.6583 104.453 78.6583 97.3804C78.6583 90.3082 72.9252 84.5751 65.853 84.5751C58.7808 84.5751 53.0477 90.3082 53.0477 97.3804C53.0477 104.453 58.7808 110.186 65.853 110.186Z" fill="white"/>
</mask>
<g mask="url(#mask2_22_2980)">
<path d="M67.2539 110.186C74.3261 110.186 80.0592 104.453 80.0592 97.3804C80.0592 90.3082 74.3261 84.5751 67.2539 84.5751C60.1817 84.5751 54.4485 90.3082 54.4485 97.3804C54.4485 104.453 60.1817 110.186 67.2539 110.186Z" fill="#01D56E"/>
</g>
<path d="M65.853 110.186C72.9252 110.186 78.6583 104.453 78.6583 97.3804C78.6583 90.3082 72.9252 84.5751 65.853 84.5751C58.7808 84.5751 53.0477 90.3082 53.0477 97.3804C53.0477 104.453 58.7808 110.186 65.853 110.186Z" stroke="black" stroke-width="2" stroke-miterlimit="10"/>
<path d="M66.1289 88.5089L71.5437 97.2042L66.1289 100.645L60.6732 97.2042L66.1289 88.5089Z" fill="white"/>
<path d="M66.1075 101.606L61.1502 98.7155L66.1075 105.996L71.2945 98.7155L66.1075 101.606Z" fill="white"/>
<path d="M36.2765 134.214C39.5649 134.214 42.2306 131.548 42.2306 128.26C42.2306 124.971 39.5649 122.306 36.2765 122.306C32.9882 122.306 30.3224 124.971 30.3224 128.26C30.3224 131.548 32.9882 134.214 36.2765 134.214Z" fill="black"/>
<path d="M35.221 134.214C38.5093 134.214 41.1751 131.548 41.1751 128.26C41.1751 124.971 38.5093 122.306 35.221 122.306C31.9326 122.306 29.2669 124.971 29.2669 128.26C29.2669 131.548 31.9326 134.214 35.221 134.214Z" fill="#01D56E"/>
<path d="M35.221 133.228C37.9647 133.228 40.189 131.003 40.189 128.26C40.189 125.516 37.9647 123.292 35.221 123.292C32.4772 123.292 30.253 125.516 30.253 128.26C30.253 131.003 32.4772 133.228 35.221 133.228Z" fill="black"/>
<mask id="mask3_22_2980" style="mask-type:luminance" maskUnits="userSpaceOnUse" x="30" y="123" width="11" height="11">
<path d="M35.221 133.228C37.9647 133.228 40.189 131.003 40.189 128.26C40.189 125.516 37.9647 123.292 35.221 123.292C32.4772 123.292 30.253 125.516 30.253 128.26C30.253 131.003 32.4772 133.228 35.221 133.228Z" fill="white"/>
</mask>
<g mask="url(#mask3_22_2980)">
<path d="M35.7656 133.228C38.5094 133.228 40.7336 131.003 40.7336 128.26C40.7336 125.516 38.5094 123.292 35.7656 123.292C33.0219 123.292 30.7977 125.516 30.7977 128.26C30.7977 131.003 33.0219 133.228 35.7656 133.228Z" fill="#01D56E"/>
</g>
<path d="M35.221 133.228C37.9647 133.228 40.189 131.003 40.189 128.26C40.189 125.516 37.9647 123.292 35.221 123.292C32.4772 123.292 30.253 125.516 30.253 128.26C30.253 131.003 32.4772 133.228 35.221 133.228Z" stroke="black" stroke-width="2" stroke-miterlimit="10"/>
<path d="M33.886 125.649H35.3278V129.627H37.9106V130.672H33.886V125.649Z" fill="white"/>
<path d="M36.1768 128.032L32.9942 129.144V128.144L36.1768 127.03V128.032Z" fill="white"/>
<path d="M32.341 58.8701C37.158 58.8701 41.063 53.0182 41.063 45.7995C41.063 38.5809 37.158 32.729 32.341 32.729C27.5239 32.729 23.619 38.5809 23.619 45.7995C23.619 53.0182 27.5239 58.8701 32.341 58.8701Z" fill="#FFD200"/>
<path d="M44.1085 66.8391C46.3548 66.8391 48.1758 64.1104 48.1758 60.7444C48.1758 57.3784 46.3548 54.6497 44.1085 54.6497C41.8622 54.6497 40.0412 57.3784 40.0412 60.7444C40.0412 64.1104 41.8622 66.8391 44.1085 66.8391Z" fill="#FFD200"/>
<path d="M154.89 141.079C157.785 141.079 160.131 137.564 160.131 133.228C160.131 128.891 157.785 125.376 154.89 125.376C151.996 125.376 149.65 128.891 149.65 133.228C149.65 137.564 151.996 141.079 154.89 141.079Z" fill="#FFD200"/>
<path d="M175.289 84.1898H181.284V78.1948H175.289V84.1898Z" fill="#01D56E"/>
<path d="M167.505 78.1945H175.289V70.4105H167.505V78.1945Z" fill="#5845FF"/>
<path d="M22.5047 148.005H18.5976V151.912H22.5047V148.005Z" stroke="#B5B5B5" stroke-width="2" stroke-miterlimit="10"/>
<path d="M195.483 148.005H186.382V157.107H195.483V148.005Z" stroke="#FF4A1A" stroke-width="2" stroke-miterlimit="10"/>
<path d="M127.85 107.614C135.23 107.614 141.213 101.631 141.213 94.2511C141.213 86.8713 135.23 80.8887 127.85 80.8887C120.471 80.8887 114.488 86.8713 114.488 94.2511C114.488 101.631 120.471 107.614 127.85 107.614Z" fill="black"/>
<path d="M125.483 107.614C132.863 107.614 138.845 101.631 138.845 94.2511C138.845 86.8713 132.863 80.8887 125.483 80.8887C118.103 80.8887 112.121 86.8713 112.121 94.2511C112.121 101.631 118.103 107.614 125.483 107.614Z" fill="#01D56E"/>
<path d="M125.483 105.401C131.641 105.401 136.633 100.409 136.633 94.2511C136.633 88.0932 131.641 83.1012 125.483 83.1012C119.325 83.1012 114.333 88.0932 114.333 94.2511C114.333 100.409 119.325 105.401 125.483 105.401Z" fill="black"/>
<mask id="mask4_22_2980" style="mask-type:luminance" maskUnits="userSpaceOnUse" x="114" y="83" width="23" height="23">
<path d="M125.483 105.401C131.641 105.401 136.633 100.409 136.633 94.2511C136.633 88.0932 131.641 83.1012 125.483 83.1012C119.325 83.1012 114.333 88.0932 114.333 94.2511C114.333 100.409 119.325 105.401 125.483 105.401Z" fill="white"/>
</mask>
<g mask="url(#mask4_22_2980)">
<path d="M126.702 105.401C132.86 105.401 137.852 100.409 137.852 94.2511C137.852 88.0932 132.86 83.1012 126.702 83.1012C120.544 83.1012 115.552 88.0932 115.552 94.2511C115.552 100.409 120.544 105.401 126.702 105.401Z" fill="#01D56E"/>
</g>
<path d="M125.483 105.401C131.641 105.401 136.633 100.409 136.633 94.2511C136.633 88.0932 131.641 83.1012 125.483 83.1012C119.325 83.1012 114.333 88.0932 114.333 94.2511C114.333 100.409 119.325 105.401 125.483 105.401Z" stroke="black" stroke-width="2" stroke-miterlimit="10"/>
<path d="M122.484 88.3932H125.718V97.3199H131.515V99.6659H122.484V88.3932Z" fill="white"/>
<path d="M127.626 93.742L120.487 96.2394V93.9912L127.626 91.4939V93.742Z" fill="white"/>
<path d="M96.8837 98.7154C108.218 98.7154 117.405 89.5275 117.405 78.1937C117.405 66.86 108.218 57.6721 96.8837 57.6721C85.55 57.6721 76.3621 66.86 76.3621 78.1937C76.3621 89.5275 85.55 98.7154 96.8837 98.7154Z" fill="black"/>
<path d="M93.8257 98.7154C105.159 98.7154 114.347 89.5275 114.347 78.1937C114.347 66.86 105.159 57.6721 93.8257 57.6721C82.4919 57.6721 73.3041 66.86 73.3041 78.1937C73.3041 89.5275 82.4919 98.7154 93.8257 98.7154Z" fill="#01D56E"/>
<path d="M93.8257 95.3174C103.283 95.3174 110.949 87.6509 110.949 78.1938C110.949 68.7367 103.283 61.0702 93.8257 61.0702C84.3686 61.0702 76.7021 68.7367 76.7021 78.1938C76.7021 87.6509 84.3686 95.3174 93.8257 95.3174Z" fill="black"/>
<mask id="mask5_22_2980" style="mask-type:luminance" maskUnits="userSpaceOnUse" x="76" y="61" width="35" height="35">
<path d="M93.8257 95.3174C103.283 95.3174 110.949 87.6509 110.949 78.1938C110.949 68.7367 103.283 61.0702 93.8257 61.0702C84.3686 61.0702 76.7021 68.7367 76.7021 78.1938C76.7021 87.6509 84.3686 95.3174 93.8257 95.3174Z" fill="white"/>
</mask>
<g mask="url(#mask5_22_2980)">
<path d="M95.7 95.3174C105.157 95.3174 112.824 87.6509 112.824 78.1938C112.824 68.7367 105.157 61.0702 95.7 61.0702C86.2429 61.0702 78.5764 68.7367 78.5764 78.1938C78.5764 87.6509 86.2429 95.3174 95.7 95.3174Z" fill="#01D56E"/>
</g>
<path d="M93.8257 95.3174C103.283 95.3174 110.949 87.6509 110.949 78.1938C110.949 68.7367 103.283 61.0702 93.8257 61.0702C84.3686 61.0702 76.7021 68.7367 76.7021 78.1938C76.7021 87.6509 84.3686 95.3174 93.8257 95.3174Z" stroke="black" stroke-width="2" stroke-miterlimit="10"/>
<path d="M100.024 77.2378C100.713 77.5476 101.289 78.0032 101.763 78.5835C102.437 79.413 102.889 80.335 102.841 81.4315C102.76 83.3023 101.59 84.7957 99.7104 85.4721C98.7741 85.8085 97.804 85.9349 96.8143 85.9189C96.6203 85.9153 96.558 85.9563 96.558 86.1663C96.5562 87.1809 96.5277 88.1937 96.5206 89.2083C96.5188 89.3792 96.4761 89.4308 96.3053 89.4255C95.7339 89.4077 95.1625 89.3988 94.5911 89.3988C94.4309 89.3988 94.3864 89.3543 94.39 89.1941C94.4131 88.1635 94.4238 87.1346 94.4487 86.104C94.4523 85.9278 94.4131 85.8691 94.2298 85.8708C93.8115 85.8744 93.3932 85.8619 92.9749 85.8406C92.8111 85.8317 92.7702 85.8869 92.7684 86.0417C92.7559 87.0723 92.731 88.1012 92.7257 89.1318C92.7239 89.3258 92.6758 89.3739 92.4818 89.3668C91.9353 89.3454 91.3871 89.3436 90.8407 89.3472C90.6555 89.349 90.5861 89.3134 90.5932 89.0998C90.6217 88.0869 90.6217 87.0723 90.6484 86.0595C90.6537 85.8655 90.6003 85.8228 90.4152 85.821C89.1603 85.8068 87.9054 85.7747 86.6505 85.764C86.4423 85.7623 86.3871 85.7195 86.4298 85.5059C86.5686 84.8117 86.6915 84.1122 86.8125 83.4144C86.8374 83.2667 86.889 83.2204 87.0457 83.2275C87.4871 83.2489 87.9304 83.2614 88.3736 83.2489C88.9218 83.2347 89.1781 82.9641 89.187 82.4141C89.2351 79.3489 89.2796 76.2838 89.3241 73.2168C89.333 72.6312 88.9503 72.2147 88.3611 72.1488C87.8396 72.0901 87.3163 72.1097 86.7929 72.115C86.6274 72.1168 86.59 72.0634 86.5936 71.9103C86.6096 71.2909 86.622 70.6714 86.6203 70.052C86.6203 69.8793 86.6772 69.8384 86.8428 69.8419C88.1137 69.8651 89.3846 69.8758 90.6555 69.9007C90.8318 69.9042 90.8887 69.8704 90.8887 69.68C90.8941 68.6743 90.9243 67.6686 90.9279 66.6629C90.9279 66.4617 90.9937 66.4243 91.1753 66.4297C91.7378 66.4493 92.302 66.4599 92.8645 66.4582C93.0354 66.4564 93.0621 66.5098 93.0585 66.6646C93.0354 67.6703 93.0283 68.676 93.0069 69.6817C93.0033 69.8437 93.0283 69.9042 93.2116 69.9025C93.621 69.8953 94.0322 69.9078 94.4416 69.9381C94.6445 69.9541 94.6783 69.8864 94.6801 69.7031C94.689 68.6974 94.7175 67.6917 94.7282 66.686C94.7299 66.5222 94.7762 66.4831 94.9347 66.4884C95.506 66.5062 96.0774 66.5116 96.6488 66.5116C96.8108 66.5116 96.8642 66.5472 96.8606 66.7269C96.8357 67.7326 96.8357 68.7383 96.8072 69.744C96.8019 69.9505 96.8642 70.0004 97.0529 70.0217C98.1511 70.1463 99.212 70.4026 100.163 70.9954C102.09 72.1987 102.277 74.5198 101.389 75.9669C101.109 76.4226 100.732 76.7804 100.271 77.0456C100.189 77.0937 100.09 77.1115 99.997 77.1417C100.002 77.172 100.013 77.2058 100.024 77.2378ZM96.7859 78.9733C96.5812 78.9324 96.3765 78.8843 96.17 78.8505C95.1411 78.6761 94.1034 78.6957 93.0657 78.6957C92.8841 78.6957 92.8805 78.774 92.8805 78.9146C92.8752 80.2176 92.8627 81.5223 92.8538 82.8253C92.8503 83.3272 92.8521 83.329 93.3558 83.361C94.2636 83.4198 95.1714 83.4856 96.0792 83.3664C96.7342 83.2809 97.3644 83.1225 97.8984 82.7113C99.002 81.8587 99.2458 80.1143 97.6438 79.3026C97.3679 79.1638 97.0813 79.0588 96.7859 78.9733ZM95.9955 72.5013C95.1732 72.2859 94.1568 72.3375 93.144 72.3535C93.0265 72.3553 93.0158 72.414 93.014 72.503C93.0069 73.806 92.9998 75.109 92.9891 76.4119C92.9891 76.5223 93.0229 76.5668 93.1404 76.5703C93.6548 76.5899 94.1692 76.6344 94.6837 76.6398C95.4188 76.6451 96.1468 76.5828 96.8268 76.2571C97.7257 75.8281 98.3238 74.6942 97.7293 73.6351C97.3857 73.0246 96.8179 72.7238 95.9955 72.5013Z" fill="white"/>
</svg>
