<svg width="233" height="233" viewBox="0 0 233 233" fill="none" xmlns="http://www.w3.org/2000/svg">
<path d="M92.2745 94.187H31.6619C25.9077 94.187 21.2431 98.8517 21.2431 104.606V186.698C21.2431 192.452 25.9077 197.117 31.6619 197.117H92.2745C98.0287 197.117 102.693 192.452 102.693 186.698V104.606C102.692 98.8507 98.0278 94.187 92.2745 94.187Z" fill="#060F11"/>
<path d="M92.3435 197.38H31.5929C25.74 197.38 20.9793 192.618 20.9793 186.765V104.536C20.9793 98.683 25.7409 93.9223 31.5929 93.9223H92.3426C98.1955 93.9223 102.956 98.6839 102.956 104.536V186.765C102.957 192.619 98.1955 197.38 92.3435 197.38ZM31.5929 94.4507C26.0317 94.4507 21.5078 98.9747 21.5078 104.536V186.765C21.5078 192.327 26.0317 196.851 31.5929 196.851H92.3426C97.9038 196.851 102.428 192.327 102.428 186.765V104.536C102.428 98.9747 97.9038 94.4507 92.3426 94.4507H31.5929Z" fill="black"/>
<path d="M111.233 94.187H50.6206C44.8665 94.187 40.2018 98.8517 40.2018 104.606V186.698C40.2018 192.452 44.8665 197.117 50.6206 197.117H111.233C116.987 197.117 121.652 192.452 121.652 186.698V104.606C121.652 98.8507 116.987 94.187 111.233 94.187Z" fill="white"/>
<path d="M111.302 197.38H50.5526C44.6996 197.38 39.939 192.618 39.939 186.765V104.536C39.939 98.683 44.7006 93.9223 50.5526 93.9223H111.302C117.155 93.9223 121.916 98.6839 121.916 104.536V186.765C121.916 192.619 117.155 197.38 111.302 197.38ZM50.5526 94.4507C44.9914 94.4507 40.4674 98.9747 40.4674 104.536V186.765C40.4674 192.327 44.9914 196.851 50.5526 196.851H111.302C116.863 196.851 121.387 192.327 121.387 186.765V104.536C121.387 98.9747 116.863 94.4507 111.302 94.4507H50.5526Z" fill="black"/>
<path d="M42.7341 110.488V123.416C42.7341 124.815 41.6026 125.947 40.2037 125.947C38.8047 125.947 37.6696 124.815 37.6696 123.416V110.488C37.6696 109.089 38.8038 107.954 40.2037 107.954C40.9045 107.954 41.5355 108.236 41.9941 108.697C42.4517 109.156 42.7341 109.786 42.7341 110.488Z" fill="#DEEAFC"/>
<path d="M40.2037 126.211C38.6612 126.211 37.4058 124.958 37.4058 123.417V110.489C37.4058 108.946 38.6612 107.691 40.2037 107.691C40.953 107.691 41.6548 107.982 42.1814 108.513C42.708 109.039 42.9988 109.741 42.9988 110.49V123.418C42.9988 124.958 41.7443 126.211 40.2037 126.211ZM40.2037 108.218C38.952 108.218 37.9343 109.236 37.9343 110.488V123.416C37.9343 124.666 38.9529 125.682 40.2037 125.682C41.4526 125.682 42.4694 124.665 42.4694 123.416V110.488C42.4694 109.881 42.2336 109.311 41.8067 108.885C41.3808 108.455 40.8113 108.218 40.2037 108.218Z" fill="black"/>
<path d="M42.7341 167.89V180.818C42.7341 182.217 41.6026 183.349 40.2037 183.349C38.8047 183.349 37.6696 182.217 37.6696 180.818V167.89C37.6696 166.491 38.8038 165.355 40.2037 165.355C40.9045 165.355 41.5355 165.637 41.9941 166.099C42.4517 166.558 42.7341 167.188 42.7341 167.89Z" fill="#DEEAFC"/>
<path d="M40.2037 183.613C38.6612 183.613 37.4058 182.36 37.4058 180.819V167.89C37.4058 166.348 38.6612 165.093 40.2037 165.093C40.953 165.093 41.6548 165.384 42.1814 165.915C42.708 166.441 42.9988 167.143 42.9988 167.891V180.82C42.9988 182.36 41.7443 183.613 40.2037 183.613ZM40.2037 165.62C38.952 165.62 37.9343 166.638 37.9343 167.89V180.818C37.9343 182.068 38.9529 183.084 40.2037 183.084C41.4526 183.084 42.4694 182.067 42.4694 180.818V167.89C42.4694 167.283 42.2336 166.713 41.8067 166.286C41.3808 165.856 40.8113 165.62 40.2037 165.62Z" fill="black"/>
<path d="M80.8426 117.732C73.422 117.732 67.4069 125.576 67.4069 135.251C67.4069 144.926 73.422 152.77 80.8426 152.77H88.2828C80.8622 152.77 74.847 144.926 74.847 135.251C74.847 125.576 80.8622 117.732 88.2828 117.732H80.8426Z" fill="#060F11"/>
<path d="M88.2828 153.034H80.8426C73.2887 153.034 67.1431 145.056 67.1431 135.251C67.1431 125.445 73.2887 117.467 80.8426 117.467H88.2828C88.4291 117.467 88.5475 117.586 88.5475 117.732C88.5475 117.878 88.4291 117.997 88.2828 117.997C81.0197 117.997 75.1108 125.737 75.1108 135.252C75.1108 144.767 81.0197 152.507 88.2828 152.507C88.4291 152.507 88.5475 152.625 88.5475 152.772C88.5465 152.917 88.4282 153.034 88.2828 153.034ZM80.8426 117.997C73.5805 117.997 67.6716 125.737 67.6716 135.252C67.6716 144.767 73.5805 152.507 80.8426 152.507H84.9611C79.0066 150.575 74.5833 143.571 74.5833 135.252C74.5833 126.933 79.0075 119.93 84.9611 117.997H80.8426Z" fill="black"/>
<path d="M106.949 132.345H96.4424C95.133 132.345 94.0705 133.406 94.0705 134.717C94.0705 136.027 95.132 137.089 96.4424 137.089H106.949C108.258 137.089 109.321 136.027 109.321 134.717C109.321 133.406 108.259 132.345 106.949 132.345Z" fill="white"/>
<path d="M106.949 137.353H96.4424C94.9885 137.353 93.8058 136.17 93.8058 134.717C93.8058 133.263 94.9885 132.081 96.4424 132.081H106.949C108.403 132.081 109.585 133.264 109.585 134.717C109.585 136.17 108.403 137.353 106.949 137.353ZM96.4424 132.609C95.2802 132.609 94.3342 133.554 94.3342 134.716C94.3342 135.878 95.2802 136.823 96.4424 136.823H106.949C108.111 136.823 109.057 135.878 109.057 134.716C109.057 133.554 108.111 132.609 106.949 132.609H96.4424Z" fill="black"/>
<path d="M88.2828 152.77C96.5313 152.77 103.218 144.926 103.218 135.251C103.218 125.576 96.5313 117.732 88.2828 117.732C80.0342 117.732 73.3475 125.576 73.3475 135.251C73.3475 144.926 80.0342 152.77 88.2828 152.77Z" fill="#FFD400"/>
<path d="M88.2828 153.034C79.9013 153.034 73.0828 145.056 73.0828 135.251C73.0828 125.445 79.9013 117.467 88.2828 117.467C96.6633 117.467 103.482 125.445 103.482 135.251C103.482 145.057 96.6633 153.034 88.2828 153.034ZM88.2828 117.997C80.193 117.997 73.6112 125.737 73.6112 135.252C73.6112 144.767 80.193 152.507 88.2828 152.507C96.3725 152.507 102.953 144.767 102.953 135.252C102.953 125.737 96.3725 117.997 88.2828 117.997Z" fill="black"/>
<path d="M70.9755 132.345H60.4691C59.1596 132.345 58.0972 133.406 58.0972 134.717C58.0972 136.027 59.1587 137.089 60.4691 137.089H70.9755C72.285 137.089 73.3475 136.027 73.3475 134.717C73.3475 133.406 72.285 132.345 70.9755 132.345Z" fill="white"/>
<path d="M70.9755 137.353H60.4691C59.0152 137.353 57.8334 136.17 57.8334 134.717C57.8334 133.263 59.0161 132.081 60.4691 132.081H70.9755C72.4294 132.081 73.6112 133.264 73.6112 134.717C73.6112 136.17 72.4285 137.353 70.9755 137.353ZM60.4691 132.609C59.3069 132.609 58.3618 133.554 58.3618 134.716C58.3618 135.878 59.3069 136.823 60.4691 136.823H70.9755C72.1377 136.823 73.0828 135.878 73.0828 134.716C73.0828 133.554 72.1377 132.609 70.9755 132.609H60.4691Z" fill="black"/>
<path d="M83.9369 118.157V107.814C83.9369 106.504 82.8753 105.442 81.5649 105.442C80.2555 105.442 79.193 106.503 79.193 107.814V118.156C79.193 119.037 83.9359 119.037 83.9369 118.157Z" fill="white"/>
<path d="M81.5649 119.081C80.9461 119.081 78.9292 119.014 78.9292 118.156V107.814C78.9292 106.36 80.1119 105.178 81.5649 105.178C83.0188 105.178 84.2006 106.361 84.2006 107.814V118.156C84.2006 119.015 82.1828 119.081 81.5649 119.081ZM81.5649 105.707C80.4027 105.707 79.4577 106.652 79.4577 107.814V118.156C79.5117 118.285 80.2079 118.551 81.5649 118.551C82.9135 118.551 83.6088 118.289 83.6722 118.152V107.814C83.6722 106.652 82.7271 105.707 81.5649 105.707Z" fill="black"/>
<path d="M79.193 153.007V162.645C79.193 163.955 80.2545 165.017 81.5649 165.017C82.8753 165.017 83.9369 163.956 83.9369 162.645V153.007C83.9369 152.128 79.193 152.128 79.193 153.007Z" fill="white"/>
<path d="M81.5649 165.281C80.111 165.281 78.9292 164.098 78.9292 162.645V153.007C78.9292 152.859 78.9935 152.646 79.2992 152.47C80.1893 151.956 82.9424 151.956 83.8325 152.47C84.1382 152.646 84.2016 152.859 84.2016 153.007V162.645C84.2006 164.099 83.0179 165.281 81.5649 165.281ZM79.4567 153.012V162.645C79.4567 163.807 80.4018 164.752 81.564 164.752C82.7262 164.752 83.6712 163.807 83.6712 162.645V153.007C83.6172 152.879 82.921 152.612 81.564 152.612C81.5631 152.612 81.5631 152.612 81.5631 152.612C80.2163 152.612 79.521 152.875 79.4567 153.012Z" fill="black"/>
<path d="M91.9493 134.717H91.021C92.049 134.717 92.9661 134.221 93.6194 133.428C94.2653 132.64 94.6623 131.559 94.6623 130.353C94.6623 127.944 93.0611 125.87 91.021 125.714L90.4637 125.671V124.164C90.4637 123.737 90.1719 123.363 89.8122 123.329L88.9408 123.245C88.5726 123.209 88.2716 123.534 88.2716 123.968V125.503L87.2324 125.424V123.876C87.2324 123.438 86.9249 123.052 86.5446 123.016L85.6247 122.927C85.2361 122.89 84.9183 123.222 84.9183 123.668V125.246L82.7858 125.083C82.3786 125.052 82.0458 125.397 82.0458 125.854V126.947C82.0458 127.403 82.3786 127.793 82.7858 127.815L84.9183 127.933V141.502L82.7858 141.619C82.3786 141.642 82.0458 142.031 82.0458 142.488V143.58C82.0458 144.037 82.3786 144.383 82.7858 144.351L84.9183 144.188V145.765C84.9183 146.211 85.2361 146.543 85.6247 146.506L86.5446 146.417C86.9258 146.381 87.2324 145.995 87.2324 145.557V144.009L88.2716 143.93V145.465C88.2716 145.899 88.5726 146.223 88.9408 146.188L89.8122 146.104C90.1729 146.07 90.4637 145.695 90.4637 145.269V143.762L91.9483 143.648C92.9624 143.571 93.8627 143.01 94.5057 142.173C95.1423 141.346 95.5328 140.243 95.5328 139.046C95.5347 136.653 93.9577 134.717 91.9493 134.717ZM91.7265 130.627C91.7265 131.281 91.5047 131.866 91.1496 132.284C90.7899 132.708 90.2875 132.967 89.7311 132.958L88.0125 132.933V128.06L89.7311 128.155C90.8402 128.215 91.7265 129.321 91.7265 130.627ZM91.1496 140.231C90.7899 140.68 90.2875 140.972 89.7311 141.001L88.0125 141.092V136.218L89.7311 136.197C90.8402 136.183 91.7265 137.229 91.7265 138.535C91.7265 139.19 91.5047 139.79 91.1496 140.231Z" fill="white"/>
<path d="M67.6334 174.064V178.641C67.6334 179.581 66.8738 180.337 65.9371 180.337H61.3601C60.4206 180.337 59.6638 179.581 59.6638 178.641V174.064C59.6638 173.127 60.4206 172.368 61.3601 172.368H65.9371C66.8729 172.368 67.6334 173.127 67.6334 174.064Z" fill="#060F11"/>
<path d="M65.9371 180.601H61.3601C60.279 180.601 59.3992 179.721 59.3992 178.641V174.064C59.3992 172.983 60.279 172.103 61.3601 172.103H65.9371C67.0183 172.103 67.8981 172.983 67.8981 174.064V178.641C67.8971 179.722 67.0183 180.601 65.9371 180.601ZM61.3601 172.633C60.5707 172.633 59.9285 173.275 59.9285 174.064V178.641C59.9285 179.431 60.5707 180.073 61.3601 180.073H65.9371C66.7265 180.073 67.3687 179.431 67.3687 178.641V174.064C67.3687 173.275 66.7265 172.633 65.9371 172.633H61.3601Z" fill="black"/>
<path d="M68.9615 174.064V178.641C68.9615 179.581 68.2019 180.337 67.2652 180.337H62.6882C61.7487 180.337 60.9919 179.581 60.9919 178.641V174.064C60.9919 173.127 61.7487 172.368 62.6882 172.368H67.2652C68.201 172.368 68.9615 173.127 68.9615 174.064Z" fill="#FF665C"/>
<path d="M67.2652 180.601H62.6882C61.6071 180.601 60.7273 179.721 60.7273 178.641V174.064C60.7273 172.983 61.6071 172.103 62.6882 172.103H67.2652C68.3464 172.103 69.2262 172.983 69.2262 174.064V178.641C69.2252 179.722 68.3454 180.601 67.2652 180.601ZM62.6882 172.633C61.8988 172.633 61.2566 173.275 61.2566 174.064V178.641C61.2566 179.431 61.8988 180.073 62.6882 180.073H67.2652C68.0546 180.073 68.6968 179.431 68.6968 178.641V174.064C68.6968 173.275 68.0546 172.633 67.2652 172.633H62.6882Z" fill="black"/>
<path d="M80.7159 174.064V178.641C80.7159 179.581 79.9563 180.337 79.0196 180.337H74.4426C73.5031 180.337 72.7463 179.581 72.7463 178.641V174.064C72.7463 173.127 73.5031 172.368 74.4426 172.368H79.0196C79.9563 172.368 80.7159 173.127 80.7159 174.064Z" fill="#060F11"/>
<path d="M79.0196 180.601H74.4426C73.3614 180.601 72.4826 179.721 72.4826 178.641V174.064C72.4826 172.983 73.3614 172.103 74.4426 172.103H79.0196C80.1007 172.103 80.9805 172.983 80.9805 174.064V178.641C80.9805 179.722 80.1007 180.601 79.0196 180.601ZM74.4426 172.633C73.6532 172.633 73.011 173.275 73.011 174.064V178.641C73.011 179.431 73.6532 180.073 74.4426 180.073H79.0196C79.809 180.073 80.4512 179.431 80.4512 178.641V174.064C80.4512 173.275 79.809 172.633 79.0196 172.633H74.4426Z" fill="black"/>
<path d="M82.044 174.064V178.641C82.044 179.581 81.2844 180.337 80.3477 180.337H75.7707C74.8312 180.337 74.0744 179.581 74.0744 178.641V174.064C74.0744 173.127 74.8312 172.368 75.7707 172.368H80.3477C81.2835 172.368 82.044 173.127 82.044 174.064Z" fill="#5FD670"/>
<path d="M80.3477 180.601H75.7707C74.6895 180.601 73.8107 179.721 73.8107 178.641V174.064C73.8107 172.983 74.6895 172.103 75.7707 172.103H80.3477C81.4288 172.103 82.3086 172.983 82.3086 174.064V178.641C82.3086 179.722 81.4288 180.601 80.3477 180.601ZM75.7707 172.633C74.9813 172.633 74.3391 173.275 74.3391 174.064V178.641C74.3391 179.431 74.9813 180.073 75.7707 180.073H80.3477C81.1371 180.073 81.7793 179.431 81.7793 178.641V174.064C81.7793 173.275 81.1371 172.633 80.3477 172.633H75.7707Z" fill="black"/>
<path d="M93.7983 174.064V178.641C93.7983 179.581 93.0388 180.337 92.1021 180.337H87.5251C86.5856 180.337 85.8288 179.581 85.8288 178.641V174.064C85.8288 173.127 86.5856 172.368 87.5251 172.368H92.1021C93.0388 172.368 93.7983 173.127 93.7983 174.064Z" fill="#060F11"/>
<path d="M92.1021 180.601H87.525C86.4439 180.601 85.5641 179.721 85.5641 178.641V174.064C85.5641 172.983 86.4439 172.103 87.525 172.103H92.1021C93.1832 172.103 94.0621 172.983 94.0621 174.064V178.641C94.063 179.722 93.1832 180.601 92.1021 180.601ZM87.525 172.633C86.7356 172.633 86.0935 173.275 86.0935 174.064V178.641C86.0935 179.431 86.7356 180.073 87.525 180.073H92.1021C92.8915 180.073 93.5336 179.431 93.5336 178.641V174.064C93.5336 173.275 92.8915 172.633 92.1021 172.633H87.525Z" fill="black"/>
<path d="M95.1264 174.064V178.641C95.1264 179.581 94.3669 180.337 93.4302 180.337H88.8531C87.9137 180.337 87.1569 179.581 87.1569 178.641V174.064C87.1569 173.127 87.9137 172.368 88.8531 172.368H93.4302C94.3669 172.368 95.1264 173.127 95.1264 174.064Z" fill="#DEEAFC"/>
<path d="M93.4302 180.601H88.8532C87.772 180.601 86.8922 179.721 86.8922 178.641V174.064C86.8922 172.983 87.772 172.103 88.8532 172.103H93.4302C94.5113 172.103 95.3902 172.983 95.3902 174.064V178.641C95.3902 179.722 94.5113 180.601 93.4302 180.601ZM88.8532 172.633C88.0637 172.633 87.4216 173.275 87.4216 174.064V178.641C87.4216 179.431 88.0637 180.073 88.8532 180.073H93.4302C94.2196 180.073 94.8618 179.431 94.8618 178.641V174.064C94.8618 173.275 94.2196 172.633 93.4302 172.633H88.8532Z" fill="black"/>
<path d="M106.881 174.064V178.641C106.881 179.581 106.121 180.337 105.185 180.337H100.608C99.6681 180.337 98.9113 179.581 98.9113 178.641V174.064C98.9113 173.127 99.6681 172.368 100.608 172.368H105.185C106.121 172.368 106.881 173.127 106.881 174.064Z" fill="#060F11"/>
<path d="M105.185 180.601H100.608C99.5264 180.601 98.6466 179.721 98.6466 178.641V174.064C98.6466 172.983 99.5264 172.103 100.608 172.103H105.185C106.266 172.103 107.146 172.983 107.146 174.064V178.641C107.146 179.722 106.266 180.601 105.185 180.601ZM100.608 172.633C99.8181 172.633 99.176 173.275 99.176 174.064V178.641C99.176 179.431 99.8181 180.073 100.608 180.073H105.185C105.974 180.073 106.616 179.431 106.616 178.641V174.064C106.616 173.275 105.974 172.633 105.185 172.633H100.608Z" fill="black"/>
<path d="M108.209 174.064V178.641C108.209 179.581 107.449 180.337 106.513 180.337H101.936C100.996 180.337 100.239 179.581 100.239 178.641V174.064C100.239 173.127 100.996 172.368 101.936 172.368H106.513C107.449 172.368 108.209 173.127 108.209 174.064Z" fill="#4BC9F1"/>
<path d="M106.513 180.601H101.936C100.855 180.601 99.9747 179.721 99.9747 178.641V174.064C99.9747 172.983 100.855 172.103 101.936 172.103H106.513C107.594 172.103 108.474 172.983 108.474 174.064V178.641C108.474 179.722 107.594 180.601 106.513 180.601ZM101.936 172.633C101.146 172.633 100.504 173.275 100.504 174.064V178.641C100.504 179.431 101.146 180.073 101.936 180.073H106.513C107.302 180.073 107.944 179.431 107.944 178.641V174.064C107.944 173.275 107.302 172.633 106.513 172.633H101.936Z" fill="black"/>
<path d="M163.995 197.116L168.756 150.247H170.529L174.606 197.116H193.238L190.306 131.474L150.083 131.341L145.406 197.116H163.995Z" fill="#0061EB"/>
<path d="M190.306 149.378C190.303 149.378 190.3 149.378 190.299 149.378C188.243 149.316 186.25 148.318 184.967 146.711C183.684 145.102 183.155 142.937 183.551 140.919C183.579 140.776 183.718 140.683 183.861 140.711C184.005 140.739 184.098 140.877 184.07 141.021C183.703 142.889 184.192 144.892 185.379 146.381C186.567 147.869 188.411 148.792 190.314 148.85C190.461 148.854 190.575 148.976 190.571 149.122C190.566 149.264 190.449 149.378 190.306 149.378Z" fill="black"/>
<path d="M152.469 144.766C151.303 144.766 150.209 144.432 149.389 143.827C149.272 143.741 149.247 143.575 149.333 143.457C149.42 143.34 149.586 143.315 149.703 143.401C150.433 143.94 151.416 144.236 152.47 144.236C152.471 144.236 152.471 144.236 152.473 144.236C153.873 144.235 155.288 143.714 156.353 142.808C157.419 141.9 158.159 140.588 158.384 139.205C158.407 139.061 158.542 138.963 158.687 138.987C158.831 139.011 158.929 139.147 158.905 139.29C158.661 140.794 157.856 142.223 156.695 143.21C155.535 144.198 153.996 144.765 152.472 144.766C152.471 144.766 152.47 144.766 152.469 144.766Z" fill="black"/>
<path d="M111.414 70.7295C111.422 71.229 111.586 71.7276 111.902 72.1461L121.379 84.2845L132.479 77.1043L130.6 66.5727C130.752 65.4804 129.979 64.4664 128.882 64.3248C128.34 64.253 127.825 64.4077 127.426 64.7087C126.961 65.0582 126.649 65.6109 126.635 66.2447L126.585 67.8524L122.608 61.3256C122.142 60.5641 121.149 60.3237 120.389 60.786L120.229 60.8875C119.525 61.3135 119.26 62.2007 119.607 62.9426L120.673 65.2428L118.489 62.3629C117.981 61.6965 117.05 61.5288 116.341 61.978C116.303 62.0022 116.265 62.0264 116.233 62.0497C115.53 62.5819 115.375 63.5913 115.917 64.3089L118.032 67.1208L116.296 65.6715C115.676 65.1561 114.811 64.747 114.215 65.2894L114.136 65.3621C113.452 65.9856 113.432 67.0602 114.094 67.7079L116.015 70.05L115.931 69.996L114.001 68.8375C113.277 68.4032 112.339 68.6036 111.854 69.2988C111.548 69.7276 111.406 70.2299 111.414 70.7295Z" fill="#FFCDB2"/>
<path d="M123.222 68.7126C123.168 68.7126 123.115 68.6884 123.08 68.6418L120.537 65.2213C120.48 65.143 120.495 65.0331 120.574 64.9744C120.65 64.9166 120.762 64.9324 120.82 65.0107L123.362 68.4311C123.42 68.5094 123.404 68.6194 123.326 68.6781C123.295 68.7014 123.259 68.7126 123.222 68.7126Z" fill="#231F20"/>
<path d="M118.132 73.0986C118.079 73.0986 118.026 73.0744 117.991 73.0287L115.759 70.065L116.041 69.8534L118.273 72.8162C118.331 72.8936 118.316 73.0045 118.238 73.0632C118.206 73.0865 118.169 73.0986 118.132 73.0986Z" fill="#231F20"/>
<path d="M120.316 70.4228C120.265 70.4228 120.215 70.4014 120.18 70.3595C119.832 69.9419 119.405 69.352 118.992 68.7825C118.583 68.2187 118.161 67.6352 117.821 67.227C117.758 67.1524 117.768 67.0415 117.843 66.9791C117.918 66.9166 118.028 66.9269 118.091 67.0015C118.439 67.4181 118.864 68.0062 119.277 68.5756C119.687 69.1413 120.111 69.7257 120.451 70.1339C120.513 70.2085 120.503 70.3194 120.428 70.3818C120.396 70.4098 120.356 70.4228 120.316 70.4228Z" fill="#231F20"/>
<path d="M126.677 74.0297C126.626 74.0297 126.576 74.0073 126.54 73.9645C125.957 73.2477 125.566 72.4509 125.375 71.5953C124.795 68.9755 126.41 67.7601 126.479 67.7098C126.556 67.653 126.666 67.6697 126.725 67.748C126.783 67.8263 126.766 67.9363 126.688 67.9941C126.626 68.0397 125.192 69.133 125.72 71.5189C125.898 72.3204 126.266 73.0679 126.814 73.7417C126.876 73.8172 126.865 73.9281 126.789 73.9896C126.757 74.0176 126.718 74.0297 126.677 74.0297Z" fill="#231F20"/>
<path d="M165.879 95.8702L161.784 109.123C161.784 109.123 160.346 109.645 157.989 110.202C156.339 110.593 154.229 111.157 151.85 111.48C151.332 111.551 150.799 111.611 150.257 111.653C148.587 111.793 146.822 111.776 145.024 111.484C142.765 111.121 140.669 110.532 138.716 109.775C137.818 109.429 136.951 109.045 136.116 108.629C133.832 107.498 131.82 106.092 130.048 104.528C120.811 96.3697 118.13 83.9341 118.13 83.9341L132.2 73.8172C138.048 100.599 151.443 95.201 165.879 95.8702Z" fill="#5FD670"/>
<path d="M153.528 101.667C153.528 101.667 152.644 107.023 151.851 111.481C151.333 111.552 150.8 111.612 150.258 111.654C148.588 111.794 146.823 111.777 145.025 111.485C142.766 111.122 140.67 110.533 138.717 109.776C146.716 109.12 153.528 101.667 153.528 101.667Z" fill="#47BF55"/>
<path d="M149.365 139.299L191.691 141.938V104.243C191.691 99.6233 188.4 95.8702 184.344 95.8702H158.591C154.707 95.8702 151.498 99.3167 151.258 103.739L149.365 139.299Z" fill="#5FD670"/>
<path d="M163.995 197.116L168.756 150.247L162.625 197.116H163.995Z" fill="#003CD3"/>
<path d="M191.69 125.104L176.407 121.295L176.055 118.48L191.69 120.52V125.104Z" fill="#47BF55"/>
<path d="M191.69 140.518L171.108 133.132L191.69 135.183V140.518Z" fill="#47BF55"/>
<path d="M182.902 106.875L191.69 117.528V109.18L182.902 106.875Z" fill="#47BF55"/>
<path d="M175.862 118.973L167.326 113.478C166.589 112.745 165.394 112.752 164.668 113.497C164.308 113.863 164.133 114.333 164.133 114.804C164.133 115.352 164.369 115.896 164.836 116.266L166.016 117.209L175.862 118.973Z" fill="#FFCDB2"/>
<path d="M176.305 160.834C183.137 158.697 186.943 151.438 184.813 144.606C183.021 138.871 177.61 135.262 171.875 135.522L159.163 95.4135C158.988 94.8525 158.392 94.5403 157.83 94.7155L152.531 96.3726L145.429 98.5879C144.868 98.7632 144.556 99.3596 144.731 99.9207L146.192 104.586C146.367 105.146 146.963 105.459 147.524 105.283L150.09 104.48L151.864 110.161C152.039 110.721 152.634 111.033 153.194 110.86L156.709 109.768L165.555 137.489C160.696 140.538 158.285 146.59 160.077 152.325C162.207 159.157 169.473 162.965 176.305 160.834Z" fill="#FFD400"/>
<path d="M172.454 161.687C166.821 161.687 161.587 158.056 159.825 152.404C158.057 146.744 160.283 140.596 165.242 137.376L156.538 110.099L153.273 111.113C152.575 111.33 151.829 110.939 151.612 110.241L149.918 104.813L147.605 105.537C146.907 105.755 146.16 105.365 145.941 104.666L144.481 100.001C144.374 99.6625 144.407 99.3027 144.572 98.9877C144.737 98.6736 145.014 98.4425 145.352 98.3362L157.753 94.4628C158.091 94.3566 158.451 94.3892 158.765 94.5542C159.079 94.7191 159.311 94.9959 159.417 95.3342L172.067 135.25C177.972 135.075 183.296 138.862 185.066 144.527C187.235 151.482 183.341 158.91 176.385 161.086C175.077 161.494 173.755 161.687 172.454 161.687ZM156.709 109.505C156.821 109.505 156.926 109.577 156.961 109.689L165.807 137.409C165.843 137.524 165.797 137.65 165.695 137.713C160.818 140.774 158.612 146.75 160.328 152.247C162.411 158.926 169.544 162.666 176.225 160.582C182.903 158.493 186.642 151.361 184.56 144.686C182.842 139.185 177.621 135.526 171.887 135.787C171.754 135.791 171.659 135.716 171.623 135.602L158.912 95.4936C158.847 95.2886 158.708 95.1218 158.519 95.023C158.33 94.9242 158.114 94.9046 157.91 94.968L145.509 98.8414C145.304 98.9047 145.138 99.0445 145.039 99.2337C144.94 99.4229 144.92 99.6392 144.984 99.8433L146.444 104.509C146.576 104.929 147.024 105.164 147.445 105.033L150.011 104.229C150.078 104.208 150.151 104.214 150.212 104.247C150.275 104.28 150.321 104.335 150.342 104.403L152.115 110.083C152.247 110.503 152.696 110.738 153.115 110.608L156.631 109.516C156.657 109.509 156.683 109.505 156.709 109.505Z" fill="black"/>
<path d="M150.09 104.746C149.977 104.746 149.873 104.673 149.838 104.56C149.794 104.421 149.872 104.272 150.011 104.229L151.688 103.705C151.826 103.661 151.975 103.738 152.019 103.878C152.062 104.017 151.984 104.166 151.845 104.209L150.169 104.734C150.143 104.742 150.116 104.746 150.09 104.746Z" fill="black"/>
<path d="M174.24 155.953C175.807 155.953 177.077 154.683 177.077 153.116C177.077 151.55 175.807 150.279 174.24 150.279C172.673 150.279 171.403 151.55 171.403 153.116C171.403 154.683 172.673 155.953 174.24 155.953Z" fill="white"/>
<path d="M174.242 156.219C173.897 156.219 173.551 156.161 173.217 156.044C172.435 155.771 171.806 155.209 171.446 154.463C171.086 153.717 171.039 152.875 171.312 152.093C171.585 151.311 172.146 150.682 172.893 150.323C174.434 149.58 176.29 150.23 177.032 151.77C177.392 152.516 177.44 153.358 177.167 154.14C176.894 154.922 176.333 155.551 175.586 155.91C175.16 156.116 174.702 156.219 174.242 156.219ZM174.236 150.544C173.861 150.544 173.482 150.626 173.123 150.799C172.504 151.098 172.038 151.62 171.811 152.268C171.585 152.917 171.624 153.615 171.922 154.234C172.221 154.853 172.742 155.319 173.391 155.545C174.041 155.772 174.739 155.733 175.357 155.434C175.976 155.136 176.442 154.614 176.668 153.965C176.895 153.317 176.855 152.619 176.557 152C176.114 151.081 175.194 150.544 174.236 150.544Z" fill="black"/>
<path d="M170.351 133.133C175.87 134.969 184.589 137.247 192.73 137.353C192.735 137.353 192.735 137.353 192.735 137.353C192.945 137.353 193.151 137.358 193.353 137.358C199.792 137.353 205.81 135.93 209.517 131.793C215.412 125.212 212.34 116.557 206.163 109.812C194.066 96.6037 185.072 95.9121 185.072 95.9121L182.9 106.878C182.9 106.878 182.905 106.883 182.91 106.887C183.189 107.13 189.638 112.754 193.354 117.121C195.299 119.404 196.498 121.349 195.674 121.999C195.248 122.337 194.429 122.466 193.354 122.447C187.935 122.36 176.059 118.48 176.059 118.48C176.059 118.48 175.972 118.7 175.816 119.097L175.661 119.5C174.814 121.651 172.791 126.809 171.157 131.037C170.872 131.77 170.603 132.479 170.351 133.133Z" fill="#5FD670"/>
<path d="M166.016 117.208L158.874 116.505C158.041 116.424 157.298 117.033 157.218 117.864L157.202 118.042C157.128 118.81 157.64 119.51 158.392 119.669L160.721 120.168L157.326 120.181C156.542 120.184 155.89 120.787 155.825 121.572C155.822 121.614 155.818 121.656 155.818 121.695C155.818 122.524 156.489 123.209 157.332 123.209H160.636L158.568 123.695C157.831 123.867 157.336 124.554 157.404 125.306L157.413 125.407C157.494 126.273 158.288 126.896 159.15 126.762L161.692 126.376L161.604 126.412L159.646 127.203C158.91 127.501 158.53 128.319 158.777 129.074C158.929 129.543 159.225 129.936 159.604 130.212C159.983 130.487 160.45 130.646 160.943 130.646L167.877 130.912L171.256 131.041L175.863 118.972L166.016 117.208Z" fill="#FFCDB2"/>
<path d="M167.877 130.912L171.256 131.042L175.862 118.973L167.877 130.912Z" fill="#FFB49F"/>
<path d="M158.693 119.15C158.638 119.15 158.583 119.143 158.528 119.129C158.304 119.072 158.126 118.906 158.026 118.662C157.934 118.436 157.921 118.165 157.988 117.901C158.066 117.582 158.251 117.315 158.495 117.169C158.67 117.064 158.866 117.031 159.045 117.077C159.269 117.134 159.447 117.3 159.546 117.544C159.639 117.77 159.652 118.041 159.585 118.305C159.456 118.809 159.083 119.15 158.693 119.15ZM158.883 117.409C158.801 117.409 158.727 117.44 158.677 117.471C158.515 117.568 158.386 117.761 158.33 117.987C158.282 118.18 158.289 118.373 158.353 118.53C158.41 118.668 158.502 118.76 158.614 118.788C158.862 118.85 159.148 118.59 159.243 118.219C159.292 118.026 159.283 117.834 159.22 117.676C159.164 117.538 159.071 117.446 158.959 117.418C158.933 117.411 158.907 117.409 158.883 117.409Z" fill="#231F20"/>
<path d="M157.344 122.721C157.325 122.721 157.306 122.72 157.287 122.718C157.101 122.702 156.932 122.611 156.8 122.454C156.617 122.236 156.528 121.922 156.555 121.593C156.581 121.266 156.72 120.973 156.937 120.789C157.092 120.657 157.276 120.592 157.464 120.608C157.651 120.624 157.819 120.715 157.952 120.873C158.135 121.09 158.224 121.404 158.196 121.733C158.148 122.301 157.779 122.721 157.344 122.721ZM157.317 122.368C157.57 122.388 157.813 122.085 157.845 121.704C157.865 121.47 157.804 121.245 157.683 121.101C157.634 121.043 157.55 120.971 157.435 120.961C157.317 120.949 157.225 121.009 157.166 121.058C157.022 121.181 156.926 121.391 156.907 121.623C156.887 121.858 156.948 122.084 157.069 122.228C157.118 122.286 157.202 122.359 157.317 122.368Z" fill="#231F20"/>
<path d="M158.972 126.225C158.954 126.225 158.934 126.224 158.915 126.223C158.729 126.207 158.56 126.115 158.428 125.958C158.244 125.741 158.156 125.427 158.184 125.098C158.209 124.771 158.349 124.478 158.565 124.293C158.721 124.161 158.907 124.098 159.092 124.113C159.279 124.128 159.447 124.22 159.58 124.377C159.763 124.594 159.852 124.908 159.824 125.237C159.776 125.804 159.407 126.225 158.972 126.225ZM159.036 124.463C158.932 124.463 158.847 124.516 158.792 124.563C158.649 124.685 158.552 124.895 158.534 125.127C158.515 125.362 158.575 125.588 158.696 125.732C158.746 125.791 158.83 125.863 158.944 125.873C159.199 125.897 159.44 125.591 159.473 125.21C159.492 124.976 159.432 124.75 159.31 124.607C159.261 124.548 159.177 124.476 159.063 124.466C159.054 124.463 159.046 124.463 159.036 124.463Z" fill="#231F20"/>
<path d="M160.282 129.982C160.079 129.982 159.885 129.89 159.724 129.719C159.558 129.54 159.449 129.292 159.419 129.02C159.379 128.694 159.458 128.378 159.634 128.156C159.761 127.995 159.931 127.896 160.115 127.874C160.3 127.853 160.484 127.909 160.645 128.037C160.868 128.214 161.017 128.504 161.054 128.832C161.122 129.421 160.816 129.925 160.358 129.978C160.333 129.981 160.307 129.982 160.282 129.982ZM160.19 128.223C160.178 128.223 160.167 128.224 160.155 128.225C160.039 128.238 159.958 128.313 159.91 128.374C159.793 128.522 159.74 128.747 159.768 128.979C159.79 129.177 159.867 129.354 159.982 129.479C160.084 129.588 160.206 129.641 160.318 129.628C160.571 129.599 160.749 129.254 160.705 128.873C160.679 128.64 160.574 128.431 160.426 128.314C160.372 128.27 160.289 128.223 160.19 128.223Z" fill="#231F20"/>
<path d="M164.63 120.293H164.629L160.628 120.268C160.531 120.267 160.452 120.188 160.453 120.091C160.454 119.994 160.532 119.916 160.629 119.916H160.63L164.631 119.941C164.728 119.942 164.807 120.021 164.806 120.118C164.806 120.215 164.726 120.293 164.63 120.293Z" fill="#231F20"/>
<path d="M165.043 126.587H161.56C161.463 126.587 161.384 126.508 161.384 126.411C161.384 126.314 161.463 126.235 161.56 126.235H165.043C165.14 126.235 165.219 126.314 165.219 126.411C165.219 126.508 165.141 126.587 165.043 126.587Z" fill="#231F20"/>
<path d="M163.556 123.453C163.197 123.453 162.808 123.445 162.427 123.439C161.773 123.427 161.095 123.414 160.598 123.439C160.499 123.442 160.418 123.368 160.413 123.271C160.408 123.174 160.483 123.091 160.58 123.086C161.089 123.061 161.772 123.074 162.433 123.086C163.087 123.099 163.764 123.111 164.262 123.086C164.354 123.083 164.442 123.157 164.447 123.254C164.451 123.351 164.377 123.434 164.28 123.439C164.065 123.449 163.818 123.453 163.556 123.453Z" fill="#231F20"/>
<path d="M181.218 79.3458C176.88 80.3356 174.162 84.6545 175.152 88.993C175.252 89.4347 175.389 89.8616 175.554 90.2679C177.021 93.8477 180.904 95.9475 184.802 95.0584C189.141 94.0686 191.854 89.7479 190.864 85.4085C190.126 82.1726 187.538 79.8407 184.47 79.2778C183.423 79.0821 182.321 79.0942 181.218 79.3458Z" fill="black"/>
<path d="M181.218 79.3458C176.88 80.3356 174.162 84.6545 175.152 88.993C175.252 89.4347 175.389 89.8616 175.554 90.2679C176.601 90.4609 177.704 90.4487 178.806 90.1971C183.145 89.2073 185.861 84.8856 184.872 80.5472C184.771 80.1054 184.635 79.6813 184.47 79.2778C183.423 79.0821 182.321 79.0942 181.218 79.3458Z" fill="#4BC9F1"/>
<path d="M157.567 76.1249C159.783 76.1249 161.579 74.3285 161.579 72.1126C161.579 69.8967 159.783 68.1003 157.567 68.1003C155.351 68.1003 153.554 69.8967 153.554 72.1126C153.554 74.3285 155.351 76.1249 157.567 76.1249Z" fill="#FFB49F"/>
<path d="M177.235 95.8385L167.385 100.085L166.574 95.8385L166.821 92.4591C166.821 92.4591 166.821 92.4591 166.821 92.4554L166.875 91.9409L167.385 86.8839L171.096 87.0106L171.881 87.0386L176.719 84.6387L177.235 95.8385Z" fill="#FFCDB2"/>
<path d="M172.576 88.403C171.624 90.2885 168.506 91.4479 166.874 91.9409L167.384 86.8839L171.095 87.0106L172.159 87.2082C172.611 87.5819 172.791 87.9799 172.576 88.403Z" fill="#FFB49F"/>
<path d="M167.386 100.348C167.284 100.348 167.187 100.289 167.144 100.189C167.086 100.055 167.148 99.8992 167.282 99.8414L177.13 95.5953C177.264 95.5375 177.42 95.599 177.478 95.7332C177.536 95.8674 177.474 96.023 177.34 96.0808L167.492 100.327C167.457 100.341 167.422 100.348 167.386 100.348Z" fill="black"/>
<path d="M155.067 73.9327C153.569 81.2061 158.252 88.3172 165.521 89.815C172.795 91.3127 179.906 86.6303 181.404 79.357C181.579 78.5089 181.671 77.6607 181.682 76.8238C181.774 70.503 177.368 64.8001 170.947 63.4776C166.449 62.5512 162.014 63.9911 158.932 66.9437C157.026 68.7629 155.637 71.16 155.067 73.9327Z" fill="#FFCDB2"/>
<path d="M164.255 83.9201C163.695 83.9201 163.134 83.7766 162.651 83.497C162.524 83.4243 162.481 83.2621 162.554 83.1363C162.627 83.0105 162.788 82.9667 162.915 83.0394C163.553 83.4084 164.353 83.4933 165.053 83.2686C165.755 83.044 166.355 82.5091 166.66 81.839C166.721 81.7057 166.878 81.6479 167.011 81.7075C167.144 81.7681 167.203 81.9247 167.142 82.058C166.777 82.8623 166.056 83.5026 165.216 83.7729C164.905 83.8707 164.58 83.9201 164.255 83.9201Z" fill="black"/>
<path d="M157.947 67.9903C162.804 73.5208 172.473 69.7052 172.473 69.7052C172.816 76.0885 181.047 77.7838 181.047 77.7838C181.047 77.7838 181.328 77.4362 181.681 76.8238C183.707 70.2793 177.602 63.5223 171.18 62.1998C166.683 61.2725 160.252 62.8718 157.947 67.9903Z" fill="black"/>
<path d="M180.85 83.1269C183.275 83.1269 185.242 81.1607 185.242 78.7353C185.242 76.3099 183.275 74.3438 180.85 74.3438C178.425 74.3438 176.458 76.3099 176.458 78.7353C176.458 81.1607 178.425 83.1269 180.85 83.1269Z" fill="#FFCDB2"/>
<path d="M181.33 81.1408C181.295 81.1408 181.26 81.1343 181.226 81.1194C180.431 80.782 179.886 79.9209 179.873 78.9767C179.863 78.1734 180.225 77.3308 180.868 76.6644C180.969 76.5591 181.137 76.5563 181.241 76.6579C181.347 76.7595 181.349 76.9263 181.248 77.0317C180.701 77.5983 180.392 78.3038 180.402 78.9693C180.412 79.6953 180.836 80.3794 181.433 80.632C181.568 80.6888 181.631 80.8445 181.573 80.9787C181.53 81.0812 181.432 81.1408 181.33 81.1408Z" fill="black"/>
<path d="M160.22 75.4553C160.342 74.6423 159.935 73.9077 159.311 73.8145C158.688 73.7213 158.084 74.3048 157.962 75.1178C157.841 75.9308 158.248 76.6654 158.871 76.7586C159.495 76.8518 160.099 76.2683 160.22 75.4553Z" fill="black"/>
<path d="M166.484 76.9017C166.606 76.0887 166.199 75.3541 165.575 75.2609C164.951 75.1677 164.347 75.7512 164.226 76.5642C164.104 77.3772 164.511 78.1118 165.135 78.205C165.759 78.2982 166.363 77.7147 166.484 76.9017Z" fill="black"/>
<path d="M97.3502 94.2429H59.7682C59.4131 94.2429 59.1261 93.9549 59.1261 93.6008V86.7282C59.1261 86.3731 59.4141 86.0861 59.7682 86.0861H97.3511C97.7062 86.0861 97.9933 86.374 97.9933 86.7282V93.6008C97.9933 93.9549 97.7053 94.2429 97.3502 94.2429Z" fill="#FFD400"/>
<path d="M95.5635 94.5067H61.5549C60.0693 94.5067 58.8614 93.2988 58.8614 91.8132V88.5139C58.8614 87.0283 60.0702 85.8204 61.5549 85.8204H95.5635C97.0492 85.8204 98.257 87.0283 98.257 88.5139V91.8132C98.257 93.2988 97.0492 94.5067 95.5635 94.5067ZM61.5549 86.3498C60.361 86.3498 59.3898 87.321 59.3898 88.5148V91.8141C59.3898 93.008 60.361 93.9792 61.5549 93.9792H95.5635C96.7574 93.9792 97.7286 93.008 97.7286 91.8141V88.5148C97.7286 87.321 96.7574 86.3498 95.5635 86.3498H61.5549Z" fill="black"/>
<path d="M93.3743 91.7172C93.2279 91.7172 93.1096 91.5988 93.1096 91.4525V88.8736C93.1096 88.7273 93.2279 88.6089 93.3743 88.6089C93.5206 88.6089 93.639 88.7273 93.639 88.8736V91.4525C93.639 91.5997 93.5206 91.7172 93.3743 91.7172Z" fill="black"/>
<path d="M89.1411 91.7172C88.9948 91.7172 88.8764 91.5988 88.8764 91.4525V88.8736C88.8764 88.7273 88.9948 88.6089 89.1411 88.6089C89.2875 88.6089 89.4058 88.7273 89.4058 88.8736V91.4525C89.4058 91.5997 89.2875 91.7172 89.1411 91.7172Z" fill="black"/>
<path d="M84.9089 91.7172C84.7626 91.7172 84.6442 91.5988 84.6442 91.4525V88.8736C84.6442 88.7273 84.7626 88.6089 84.9089 88.6089C85.0553 88.6089 85.1736 88.7273 85.1736 88.8736V91.4525C85.1727 91.5997 85.0543 91.7172 84.9089 91.7172Z" fill="black"/>
<path d="M80.6758 91.7172C80.5295 91.7172 80.4111 91.5988 80.4111 91.4525V88.8736C80.4111 88.7273 80.5295 88.6089 80.6758 88.6089C80.8221 88.6089 80.9405 88.7273 80.9405 88.8736V91.4525C80.9395 91.5997 80.8212 91.7172 80.6758 91.7172Z" fill="black"/>
<path d="M76.4426 91.7172C76.2963 91.7172 76.1779 91.5988 76.1779 91.4525V88.8736C76.1779 88.7273 76.2963 88.6089 76.4426 88.6089C76.589 88.6089 76.7073 88.7273 76.7073 88.8736V91.4525C76.7073 91.5997 76.589 91.7172 76.4426 91.7172Z" fill="black"/>
<path d="M72.2095 91.7172C72.0632 91.7172 71.9448 91.5988 71.9448 91.4525V88.8736C71.9448 88.7273 72.0632 88.6089 72.2095 88.6089C72.3558 88.6089 72.4742 88.7273 72.4742 88.8736V91.4525C72.4742 91.5997 72.3558 91.7172 72.2095 91.7172Z" fill="black"/>
<path d="M67.9773 91.7172C67.831 91.7172 67.7126 91.5988 67.7126 91.4525V88.8736C67.7126 88.7273 67.831 88.6089 67.9773 88.6089C68.1236 88.6089 68.242 88.7273 68.242 88.8736V91.4525C68.241 91.5997 68.1227 91.7172 67.9773 91.7172Z" fill="black"/>
<path d="M63.7441 91.7172C63.5978 91.7172 63.4794 91.5988 63.4794 91.4525V88.8736C63.4794 88.7273 63.5978 88.6089 63.7441 88.6089C63.8905 88.6089 64.0088 88.7273 64.0088 88.8736V91.4525C64.0079 91.5997 63.8895 91.7172 63.7441 91.7172Z" fill="black"/>
<path d="M92.1142 86.0851H54.5313C54.1762 86.0851 53.8892 85.7972 53.8892 85.443V78.5704C53.8892 78.2153 54.1772 77.9283 54.5313 77.9283H92.1142C92.4693 77.9283 92.7564 78.2163 92.7564 78.5704V85.443C92.7573 85.7972 92.4693 86.0851 92.1142 86.0851Z" fill="#FFD400"/>
<path d="M90.3276 86.3498H56.3189C54.8333 86.3498 53.6254 85.1419 53.6254 83.6563V80.3571C53.6254 78.8714 54.8333 77.6636 56.3189 77.6636H90.3285C91.8141 77.6636 93.022 78.8714 93.022 80.3571V83.6563C93.0211 85.141 91.8132 86.3498 90.3276 86.3498ZM56.3189 78.192C55.125 78.192 54.1539 79.1632 54.1539 80.3571V83.6563C54.1539 84.8502 55.125 85.8214 56.3189 85.8214H90.3285C91.5224 85.8214 92.4935 84.8502 92.4935 83.6563V80.3571C92.4935 79.1632 91.5224 78.192 90.3285 78.192H56.3189Z" fill="black"/>
<path d="M88.1383 83.5603C87.992 83.5603 87.8736 83.4419 87.8736 83.2956V80.7168C87.8736 80.5705 87.992 80.4521 88.1383 80.4521C88.2846 80.4521 88.403 80.5705 88.403 80.7168V83.2956C88.403 83.4419 88.2846 83.5603 88.1383 83.5603Z" fill="black"/>
<path d="M83.9052 83.5603C83.7588 83.5603 83.6405 83.4419 83.6405 83.2956V80.7168C83.6405 80.5705 83.7588 80.4521 83.9052 80.4521C84.0515 80.4521 84.1698 80.5705 84.1698 80.7168V83.2956C84.1698 83.4419 84.0515 83.5603 83.9052 83.5603Z" fill="black"/>
<path d="M79.6729 83.5603C79.5266 83.5603 79.4083 83.4419 79.4083 83.2956V80.7168C79.4083 80.5705 79.5266 80.4521 79.6729 80.4521C79.8193 80.4521 79.9376 80.5705 79.9376 80.7168V83.2956C79.9367 83.4419 79.8183 83.5603 79.6729 83.5603Z" fill="black"/>
<path d="M75.4398 83.5603C75.2935 83.5603 75.1751 83.4419 75.1751 83.2956V80.7168C75.1751 80.5705 75.2935 80.4521 75.4398 80.4521C75.5861 80.4521 75.7045 80.5705 75.7045 80.7168V83.2956C75.7036 83.4419 75.5852 83.5603 75.4398 83.5603Z" fill="black"/>
<path d="M71.2067 83.5603C71.0603 83.5603 70.942 83.4419 70.942 83.2956V80.7168C70.942 80.5705 71.0603 80.4521 71.2067 80.4521C71.353 80.4521 71.4713 80.5705 71.4713 80.7168V83.2956C71.4704 83.4419 71.3521 83.5603 71.2067 83.5603Z" fill="black"/>
<path d="M66.9735 83.5603C66.8272 83.5603 66.7088 83.4419 66.7088 83.2956V80.7168C66.7088 80.5705 66.8272 80.4521 66.9735 80.4521C67.1198 80.4521 67.2382 80.5705 67.2382 80.7168V83.2956C67.2382 83.4419 67.1189 83.5603 66.9735 83.5603Z" fill="black"/>
<path d="M62.7404 83.5603C62.5941 83.5603 62.4757 83.4419 62.4757 83.2956V80.7168C62.4757 80.5705 62.5941 80.4521 62.7404 80.4521C62.8867 80.4521 63.0051 80.5705 63.0051 80.7168V83.2956C63.0051 83.4419 62.8867 83.5603 62.7404 83.5603Z" fill="black"/>
<path d="M58.5082 83.5603C58.3618 83.5603 58.2435 83.4419 58.2435 83.2956V80.7168C58.2435 80.5705 58.3618 80.4521 58.5082 80.4521C58.6545 80.4521 58.7728 80.5705 58.7728 80.7168V83.2956C58.7719 83.4419 58.6536 83.5603 58.5082 83.5603Z" fill="black"/>
<path d="M105.602 77.8965H68.0192C67.6641 77.8965 67.3771 77.6086 67.3771 77.2544V70.3818C67.3771 70.0267 67.6651 69.7397 68.0192 69.7397H105.602C105.957 69.7397 106.244 70.0277 106.244 70.3818V77.2544C106.245 77.6086 105.957 77.8965 105.602 77.8965Z" fill="#FFD400"/>
<path d="M103.815 78.1612H69.8059C68.3203 78.1612 67.1124 76.9533 67.1124 75.4677V72.1685C67.1124 70.6828 68.3203 69.475 69.8059 69.475H103.815C105.301 69.475 106.509 70.6828 106.509 72.1685V75.4677C106.509 76.9524 105.301 78.1612 103.815 78.1612ZM69.8059 70.0034C68.612 70.0034 67.6408 70.9746 67.6408 72.1685V75.4677C67.6408 76.6616 68.612 77.6328 69.8059 77.6328H103.815C105.009 77.6328 105.981 76.6616 105.981 75.4677V72.1685C105.981 70.9746 105.009 70.0034 103.815 70.0034H69.8059Z" fill="black"/>
<path d="M101.626 75.3718C101.48 75.3718 101.362 75.2534 101.362 75.1071V72.5282C101.362 72.3819 101.48 72.2635 101.626 72.2635C101.773 72.2635 101.891 72.3819 101.891 72.5282V75.1071C101.891 75.2534 101.773 75.3718 101.626 75.3718Z" fill="black"/>
<path d="M97.3931 75.3718C97.2467 75.3718 97.1284 75.2534 97.1284 75.1071V72.5282C97.1284 72.3819 97.2467 72.2635 97.3931 72.2635C97.5394 72.2635 97.6578 72.3819 97.6578 72.5282V75.1071C97.6578 75.2534 97.5394 75.3718 97.3931 75.3718Z" fill="black"/>
<path d="M93.1599 75.3718C93.0136 75.3718 92.8952 75.2534 92.8952 75.1071V72.5282C92.8952 72.3819 93.0136 72.2635 93.1599 72.2635C93.3062 72.2635 93.4246 72.3819 93.4246 72.5282V75.1071C93.4246 75.2534 93.3062 75.3718 93.1599 75.3718Z" fill="black"/>
<path d="M88.9277 75.3718C88.7814 75.3718 88.663 75.2534 88.663 75.1071V72.5282C88.663 72.3819 88.7814 72.2635 88.9277 72.2635C89.074 72.2635 89.1924 72.3819 89.1924 72.5282V75.1071C89.1915 75.2534 89.0731 75.3718 88.9277 75.3718Z" fill="black"/>
<path d="M84.6946 75.3718C84.5482 75.3718 84.4299 75.2534 84.4299 75.1071V72.5282C84.4299 72.3819 84.5482 72.2635 84.6946 72.2635C84.8409 72.2635 84.9593 72.3819 84.9593 72.5282V75.1071C84.9593 75.2534 84.8409 75.3718 84.6946 75.3718Z" fill="black"/>
<path d="M80.4614 75.3718C80.3151 75.3718 80.1967 75.2534 80.1967 75.1071V72.5282C80.1967 72.3819 80.3151 72.2635 80.4614 72.2635C80.6078 72.2635 80.7261 72.3819 80.7261 72.5282V75.1071C80.7261 75.2534 80.6078 75.3718 80.4614 75.3718Z" fill="black"/>
<path d="M76.2292 75.3718C76.0829 75.3718 75.9645 75.2534 75.9645 75.1071V72.5282C75.9645 72.3819 76.0829 72.2635 76.2292 72.2635C76.3755 72.2635 76.4939 72.3819 76.4939 72.5282V75.1071C76.493 75.2534 76.3746 75.3718 76.2292 75.3718Z" fill="black"/>
<path d="M71.9961 75.3718C71.8497 75.3718 71.7314 75.2534 71.7314 75.1071V72.5282C71.7314 72.3819 71.8497 72.2635 71.9961 72.2635C72.1424 72.2635 72.2608 72.3819 72.2608 72.5282V75.1071C72.2598 75.2534 72.1415 75.3718 71.9961 75.3718Z" fill="black"/>
<path d="M21.079 55.6208C24.4613 61.9202 32.8409 74.0166 47.4369 74.341C48.4882 74.3643 49.5116 73.9821 50.2926 73.2776C61.2538 63.3862 60.3517 48.642 59.0907 41.4842C58.6974 39.2502 56.5705 37.7833 54.3309 38.1458C47.5702 39.2409 42.2327 37.7367 38.9035 36.2501C36.8653 35.3396 34.4719 36.2007 33.4979 38.2092C31.8492 41.6091 28.6152 46.4378 22.5656 50.1462C20.6969 51.2926 20.0417 53.6897 21.079 55.6208Z" fill="white"/>
<path d="M47.5292 74.6066C47.4966 74.6066 47.463 74.6066 47.4304 74.6057C32.9369 74.2832 24.5535 62.6509 20.846 55.7457C19.7463 53.6972 20.4406 51.1388 22.4276 49.9217C28.4223 46.2477 31.6274 41.4628 33.2603 38.0946C34.3004 35.9491 36.8261 35.033 39.0117 36.0097C42.2737 37.4664 47.5711 38.9744 54.289 37.8858C56.6656 37.5 58.9378 39.0946 59.3507 41.4395C60.7142 49.1807 61.3722 63.637 50.4687 73.4752C49.6579 74.2068 48.6168 74.6066 47.5292 74.6066ZM21.312 55.4959C24.9646 62.2995 33.2174 73.7613 47.4425 74.0772C48.4286 74.0987 49.3792 73.7454 50.1146 73.0819C60.8288 63.4142 60.1746 49.1639 58.8306 41.5309C58.4672 39.4693 56.4671 38.0675 54.3738 38.4077C47.5273 39.5177 42.1236 37.979 38.7964 36.4925C36.8746 35.6341 34.6508 36.4384 33.7356 38.3257C32.072 41.7564 28.8072 46.6317 22.7035 50.3727C20.956 51.4436 20.3446 53.6944 21.312 55.4959Z" fill="black"/>
<path d="M41.9409 65.3053C47.4501 65.3053 51.9161 60.8392 51.9161 55.3301C51.9161 49.8209 47.4501 45.3549 41.9409 45.3549C36.4318 45.3549 31.9657 49.8209 31.9657 55.3301C31.9657 60.8392 36.4318 65.3053 41.9409 65.3053Z" fill="#5FD670"/>
<path d="M41.9512 65.5746C40.8747 65.5746 39.7936 65.4031 38.7404 65.0564C36.143 64.2017 34.0329 62.3862 32.7999 59.9453C31.5668 57.5035 31.359 54.7289 32.2137 52.1305C33.0683 49.5321 34.8838 47.4229 37.3247 46.1899C42.3659 43.6446 48.5358 45.6755 51.0801 50.7148C52.3132 53.1566 52.521 55.9321 51.6664 58.5296C50.8117 61.128 48.9962 63.2371 46.5543 64.4702C45.1032 65.2036 43.5328 65.5746 41.9512 65.5746ZM41.9251 45.6205C40.4544 45.6205 38.9641 45.955 37.5643 46.6615C35.2492 47.8302 33.5268 49.8312 32.7169 52.2954C31.9061 54.7597 32.1037 57.3916 33.2733 59.7067C34.4421 62.0218 36.4431 63.7441 38.9063 64.554C41.3706 65.3649 44.0025 65.1673 46.3176 63.9986C48.6327 62.8298 50.355 60.8288 51.1649 58.3646C51.9758 55.9004 51.7782 53.2685 50.6085 50.9534C48.903 47.5739 45.476 45.6205 41.9251 45.6205Z" fill="black"/>
<path d="M41.8226 59.6527C41.8207 59.6536 41.8188 59.6545 41.817 59.6555C41.6287 59.7487 41.4106 59.7626 41.2121 59.6937L38.5829 58.7803C38.1738 58.6387 37.9576 58.1913 38.0992 57.7821C38.2418 57.373 38.6883 57.1568 39.0974 57.2984L40.9735 57.9508L43.3949 50.5908C43.53 50.1798 43.9727 49.9561 44.3846 50.0913C44.7957 50.2264 45.0193 50.6701 44.8842 51.0811L42.214 59.1988C42.1497 59.3954 42.009 59.5585 41.8226 59.6527Z" fill="white"/>
<path d="M147.03 45.6223V49.258C147.03 53.2684 143.782 56.522 139.771 56.522H137.326L136.743 58.3478C136.317 59.6768 134.693 60.1736 133.6 59.3022L130.099 56.522H92.0322C88.0218 56.522 84.7682 53.2684 84.7682 49.258V45.6223C84.7682 41.6082 88.0218 38.3583 92.0322 38.3583H139.77C143.782 38.3583 147.03 41.6072 147.03 45.6223Z" fill="white"/>
<path d="M134.841 60.0003C134.336 60.0003 133.839 59.8306 133.434 59.5082L130.006 56.7858H92.0322C87.8811 56.7858 84.5044 53.4092 84.5044 49.258V45.6223C84.5044 41.4712 87.882 38.0945 92.0322 38.0945H139.77C143.919 38.0945 147.294 41.4721 147.294 45.6223V49.258C147.294 53.4092 143.919 56.7858 139.77 56.7858H137.518L136.994 58.428C136.766 59.1363 136.205 59.6881 135.493 59.9033C135.28 59.9686 135.06 60.0003 134.841 60.0003ZM92.0322 38.6221C88.1728 38.6221 85.0329 41.762 85.0329 45.6214V49.2571C85.0329 53.1165 88.1728 56.2564 92.0322 56.2564H130.098C130.158 56.2564 130.215 56.2769 130.262 56.3133L133.763 59.0934C134.215 59.4532 134.79 59.5632 135.34 59.3963C135.894 59.2286 136.313 58.8166 136.49 58.2658L137.074 56.44C137.109 56.3301 137.211 56.2564 137.326 56.2564H139.77C143.628 56.2564 146.766 53.1165 146.766 49.2571V45.6214C146.766 41.762 143.628 38.6221 139.77 38.6221H92.0322Z" fill="black"/>
<path d="M98.1499 48.1919C98.2589 48.2301 98.3092 48.3149 98.3018 48.4454C98.2934 48.5758 98.2104 48.7781 98.052 49.0502C97.8936 49.3224 97.7603 49.4929 97.6512 49.561C97.5422 49.629 97.4434 49.6281 97.3567 49.5572L95.7295 48.2571L96.0566 50.3094C96.0836 50.424 96.037 50.5107 95.9177 50.5713C95.7975 50.6309 95.5794 50.6617 95.2635 50.6617C94.9475 50.6617 94.7294 50.6318 94.6101 50.5713C94.4899 50.5116 94.4442 50.424 94.4713 50.3094L94.7984 48.2571L93.1711 49.5572C93.09 49.6281 92.994 49.6281 92.8859 49.5572C92.7769 49.4864 92.6399 49.3149 92.4768 49.0419C92.3183 48.7753 92.2373 48.5758 92.2317 48.4454C92.2261 48.3149 92.2755 48.2301 92.3789 48.1919L94.3249 47.4397L92.3789 46.6876C92.2755 46.6494 92.2261 46.5646 92.2317 46.4341C92.2363 46.3036 92.3183 46.1023 92.4768 45.8292C92.6352 45.5571 92.7704 45.3847 92.8813 45.3138C92.9931 45.243 93.09 45.2458 93.1711 45.3222L94.7984 46.6224L94.4713 44.5701C94.4442 44.4611 94.4899 44.3753 94.6101 44.3129C94.7294 44.2504 94.9475 44.2188 95.2635 44.2188C95.5794 44.2188 95.7975 44.2504 95.9177 44.3129C96.037 44.3753 96.0836 44.462 96.0566 44.5701L95.7295 46.6224L97.3567 45.3222C97.4434 45.2458 97.5403 45.2449 97.6466 45.3185C97.7528 45.3921 97.888 45.5655 98.0511 45.8376C98.2095 46.1042 98.2925 46.3036 98.3008 46.4341C98.3083 46.5646 98.258 46.6494 98.1489 46.6876L96.2113 47.4397L98.1499 48.1919Z" fill="#060F11"/>
<path d="M108.105 48.1919C108.214 48.2301 108.264 48.3149 108.256 48.4454C108.248 48.5758 108.165 48.7781 108.007 49.0502C107.848 49.3224 107.715 49.4929 107.606 49.561C107.497 49.629 107.398 49.6281 107.311 49.5572L105.684 48.2571L106.011 50.3094C106.038 50.424 105.992 50.5107 105.872 50.5713C105.752 50.6309 105.534 50.6617 105.218 50.6617C104.902 50.6617 104.684 50.6318 104.565 50.5713C104.445 50.5116 104.399 50.424 104.426 50.3094L104.753 48.2571L103.126 49.5572C103.045 49.6281 102.949 49.6281 102.841 49.5572C102.732 49.4864 102.595 49.3149 102.431 49.0419C102.273 48.7753 102.192 48.5758 102.186 48.4454C102.181 48.3149 102.23 48.2301 102.334 48.1919L104.28 47.4397L102.334 46.6876C102.23 46.6494 102.181 46.5646 102.186 46.4341C102.191 46.3036 102.273 46.1023 102.431 45.8292C102.59 45.5571 102.725 45.3847 102.836 45.3138C102.948 45.243 103.045 45.2458 103.126 45.3222L104.753 46.6224L104.426 44.5701C104.399 44.4611 104.445 44.3753 104.565 44.3129C104.684 44.2504 104.902 44.2188 105.218 44.2188C105.534 44.2188 105.752 44.2504 105.872 44.3129C105.992 44.3753 106.038 44.462 106.011 44.5701L105.684 46.6224L107.311 45.3222C107.398 45.2458 107.495 45.2449 107.601 45.3185C107.708 45.3921 107.843 45.5655 108.006 45.8376C108.164 46.1042 108.247 46.3036 108.256 46.4341C108.263 46.5646 108.213 46.6494 108.104 46.6876L106.166 47.4397L108.105 48.1919Z" fill="#060F11"/>
<path d="M118.059 48.1919C118.168 48.2301 118.219 48.3149 118.211 48.4454C118.203 48.5758 118.12 48.7781 117.961 49.0502C117.803 49.3224 117.67 49.4929 117.561 49.561C117.452 49.629 117.353 49.6281 117.266 49.5572L115.639 48.2571L115.966 50.3094C115.993 50.424 115.946 50.5107 115.827 50.5713C115.707 50.6309 115.489 50.6617 115.173 50.6617C114.857 50.6617 114.639 50.6318 114.52 50.5713C114.399 50.5116 114.354 50.424 114.381 50.3094L114.708 48.2571L113.081 49.5572C112.999 49.6281 112.903 49.6281 112.795 49.5572C112.686 49.4864 112.549 49.3149 112.386 49.0419C112.228 48.7753 112.147 48.5758 112.141 48.4454C112.135 48.3149 112.185 48.2301 112.288 48.1919L114.234 47.4397L112.288 46.6876C112.185 46.6494 112.135 46.5646 112.141 46.4341C112.146 46.3036 112.228 46.1023 112.386 45.8292C112.545 45.5571 112.68 45.3847 112.791 45.3138C112.902 45.243 112.999 45.2458 113.081 45.3222L114.708 46.6224L114.381 44.5701C114.354 44.4611 114.399 44.3753 114.52 44.3129C114.639 44.2504 114.857 44.2188 115.173 44.2188C115.489 44.2188 115.707 44.2504 115.827 44.3129C115.946 44.3753 115.993 44.462 115.966 44.5701L115.639 46.6224L117.266 45.3222C117.353 45.2458 117.45 45.2449 117.556 45.3185C117.662 45.3921 117.797 45.5655 117.96 45.8376C118.119 46.1042 118.202 46.3036 118.21 46.4341C118.218 46.5646 118.167 46.6494 118.058 46.6876L116.121 47.4397L118.059 48.1919Z" fill="#060F11"/>
<path d="M128.013 48.1919C128.122 48.2301 128.172 48.3149 128.165 48.4454C128.157 48.5758 128.074 48.7781 127.915 49.0502C127.757 49.3224 127.623 49.4929 127.514 49.561C127.405 49.629 127.307 49.6281 127.22 49.5572L125.593 48.2571L125.92 50.3094C125.947 50.424 125.9 50.5107 125.781 50.5713C125.661 50.6309 125.443 50.6617 125.127 50.6617C124.811 50.6617 124.593 50.6318 124.473 50.5713C124.353 50.5116 124.307 50.424 124.334 50.3094L124.662 48.2571L123.034 49.5572C122.953 49.6281 122.857 49.6281 122.749 49.5572C122.64 49.4864 122.503 49.3149 122.34 49.0419C122.181 48.7753 122.1 48.5758 122.095 48.4454C122.089 48.3149 122.139 48.2301 122.242 48.1919L124.188 47.4397L122.242 46.6876C122.139 46.6494 122.089 46.5646 122.095 46.4341C122.099 46.3036 122.181 46.1023 122.34 45.8292C122.498 45.5571 122.633 45.3847 122.744 45.3138C122.856 45.243 122.953 45.2458 123.034 45.3222L124.662 46.6224L124.334 44.5701C124.307 44.4611 124.353 44.3753 124.473 44.3129C124.593 44.2504 124.811 44.2188 125.127 44.2188C125.443 44.2188 125.661 44.2504 125.781 44.3129C125.9 44.3753 125.947 44.462 125.92 44.5701L125.593 46.6224L127.22 45.3222C127.307 45.2458 127.403 45.2449 127.51 45.3185C127.616 45.3921 127.751 45.5655 127.914 45.8376C128.073 46.1042 128.156 46.3036 128.164 46.4341C128.171 46.5646 128.121 46.6494 128.012 46.6876L126.074 47.4397L128.013 48.1919Z" fill="#060F11"/>
<path d="M137.968 48.1919C138.077 48.2301 138.127 48.3149 138.12 48.4454C138.111 48.5758 138.028 48.7781 137.87 49.0502C137.711 49.3224 137.578 49.4929 137.469 49.561C137.36 49.629 137.261 49.6281 137.175 49.5572L135.547 48.2571L135.874 50.3094C135.901 50.424 135.855 50.5107 135.736 50.5713C135.615 50.6309 135.397 50.6617 135.081 50.6617C134.765 50.6617 134.547 50.6318 134.428 50.5713C134.308 50.5116 134.262 50.424 134.289 50.3094L134.616 48.2571L132.989 49.5572C132.908 49.6281 132.812 49.6281 132.704 49.5572C132.595 49.4864 132.458 49.3149 132.295 49.0419C132.136 48.7753 132.055 48.5758 132.049 48.4454C132.044 48.3149 132.093 48.2301 132.197 48.1919L134.143 47.4397L132.197 46.6876C132.093 46.6494 132.044 46.5646 132.049 46.4341C132.054 46.3036 132.136 46.1023 132.295 45.8292C132.453 45.5571 132.588 45.3847 132.699 45.3138C132.811 45.243 132.908 45.2458 132.989 45.3222L134.616 46.6224L134.289 44.5701C134.262 44.4611 134.308 44.3753 134.428 44.3129C134.547 44.2504 134.765 44.2188 135.081 44.2188C135.397 44.2188 135.615 44.2504 135.736 44.3129C135.855 44.3753 135.901 44.462 135.874 44.5701L135.547 46.6224L137.175 45.3222C137.261 45.2458 137.358 45.2449 137.464 45.3185C137.571 45.3921 137.706 45.5655 137.869 45.8376C138.027 46.1042 138.11 46.3036 138.119 46.4341C138.126 46.5646 138.076 46.6494 137.967 46.6876L136.029 47.4397L137.968 48.1919Z" fill="#060F11"/>
</svg>
