<svg width="2500" height="2500" viewBox="0 0 2500 2500" fill="none" xmlns="http://www.w3.org/2000/svg">
<path d="M2062.94 692.02V1773.02C2062.94 1929.43 1936.14 2056.2 1779.76 2056.2H1339.69C1183.28 2056.2 1056.51 1929.44 1056.51 1773.02V692.02C1056.51 535.6 1183.27 408.84 1339.69 408.84H1779.76C1936.14 408.84 2062.94 535.61 2062.94 692.02Z" fill="#060F11"/>
<path d="M1779.76 2059.02H1339.69C1181.99 2059.02 1053.69 1930.72 1053.69 1773.03V692.03C1053.69 534.33 1181.99 406.03 1339.69 406.03H1779.76C1937.46 406.03 2065.76 534.33 2065.76 692.03V1773.03C2065.76 1930.72 1937.46 2059.02 1779.76 2059.02ZM1339.69 411.66C1185.1 411.66 1059.33 537.43 1059.33 692.02V1773.02C1059.33 1927.61 1185.1 2053.38 1339.69 2053.38H1779.76C1934.35 2053.38 2060.12 1927.61 2060.12 1773.02V692.02C2060.12 537.43 1934.35 411.66 1779.76 411.66H1339.69Z" fill="black"/>
<path d="M2040.71 692.02V1773.02C2040.71 1929.43 1913.91 2056.2 1757.53 2056.2H1317.46C1161.05 2056.2 1034.28 1929.44 1034.28 1773.02V692.02C1034.28 535.6 1161.04 408.84 1317.46 408.84H1757.53C1913.91 408.84 2040.71 535.61 2040.71 692.02Z" fill="#DEEAFC"/>
<path d="M1757.53 2059.02H1317.46C1159.76 2059.02 1031.46 1930.72 1031.46 1773.03V692.03C1031.46 534.33 1159.76 406.03 1317.46 406.03H1757.53C1915.23 406.03 2043.53 534.33 2043.53 692.03V1773.03C2043.53 1930.72 1915.23 2059.02 1757.53 2059.02ZM1317.46 411.66C1162.87 411.66 1037.1 537.43 1037.1 692.02V1773.02C1037.1 1927.61 1162.87 2053.38 1317.46 2053.38H1757.53C1912.12 2053.38 2037.89 1927.61 2037.89 1773.02V692.02C2037.89 537.43 1912.12 411.66 1757.53 411.66H1317.46Z" fill="black"/>
<path d="M1993.3 765.86V1773.18C1993.3 1900.91 1889.74 2004.43 1762.01 2004.43H1312.97C1185.24 2004.43 1081.68 1900.91 1081.68 1773.18V765.86C1081.68 638.13 1185.24 534.57 1312.97 534.57H1762.01C1889.74 534.57 1993.3 638.13 1993.3 765.86Z" fill="white"/>
<path d="M1437.79 476.89C1437.79 480.65 1436.26 484.08 1433.79 486.57C1431.3 489.03 1427.88 490.57 1424.11 490.57H1406.08C1398.53 490.57 1392.41 484.45 1392.41 476.9C1392.41 473.14 1393.94 469.71 1396.41 467.25C1398.9 464.78 1402.3 463.25 1406.09 463.25H1424.12C1431.67 463.24 1437.79 469.36 1437.79 476.89Z" fill="black"/>
<path d="M1674.98 476.89C1674.98 480.65 1673.45 484.08 1670.98 486.57C1668.52 489.03 1665.12 490.57 1661.33 490.57H1471.31C1463.76 490.57 1457.64 484.45 1457.64 476.9C1457.64 473.14 1459.17 469.71 1461.64 467.25C1464.13 464.78 1467.53 463.25 1471.32 463.25H1661.34C1668.88 463.24 1674.98 469.36 1674.98 476.89Z" fill="black"/>
<path d="M1540.24 1431.92C1718.44 1431.92 1862.9 1287.46 1862.9 1109.26C1862.9 931.06 1718.44 786.6 1540.24 786.6C1362.04 786.6 1217.58 931.06 1217.58 1109.26C1217.58 1287.46 1362.04 1431.92 1540.24 1431.92Z" fill="#2771F0"/>
<path d="M1540 1434.75C1374.38 1434.75 1232.35 1308.44 1216.25 1140.28C1199.14 961.63 1330.57 802.37 1509.22 785.26C1687.84 768.16 1847.13 899.58 1864.24 1078.23C1872.53 1164.77 1846.62 1249.36 1791.28 1316.42C1735.94 1383.47 1657.81 1424.97 1571.26 1433.25C1560.77 1434.26 1550.33 1434.75 1540 1434.75ZM1221.86 1139.75C1238.67 1315.31 1395.15 1444.46 1570.73 1427.65C1655.77 1419.51 1732.56 1378.73 1786.93 1312.84C1841.31 1246.95 1866.77 1163.82 1858.63 1078.78C1841.82 903.22 1685.35 774.07 1509.76 790.88C1334.2 807.68 1205.05 964.19 1221.86 1139.75Z" fill="black"/>
<path d="M1942.03 1076.42C1939.16 1076.42 1936.71 1074.24 1936.43 1071.32C1926.3 965.49 1875.56 869.95 1793.56 802.28C1711.57 734.62 1608.13 702.94 1502.3 713.06C1499.19 713.36 1496.45 711.09 1496.15 707.99C1495.85 704.89 1498.12 702.14 1501.22 701.84C1610.04 691.42 1716.41 724 1800.73 793.58C1885.05 863.16 1937.22 961.41 1947.64 1070.24C1947.94 1073.34 1945.67 1076.09 1942.57 1076.39C1942.39 1076.41 1942.21 1076.42 1942.03 1076.42Z" fill="black"/>
<path d="M1539.93 1518.55C1331.67 1518.55 1153.08 1359.73 1132.83 1148.27C1132.53 1145.17 1134.8 1142.42 1137.9 1142.12C1141.01 1141.81 1143.75 1144.09 1144.05 1147.19C1164.97 1365.65 1359.7 1526.36 1578.17 1505.44C1581.27 1505.12 1584.02 1507.42 1584.32 1510.51C1584.62 1513.61 1582.35 1516.36 1579.25 1516.66C1566.06 1517.93 1552.92 1518.55 1539.93 1518.55Z" fill="black"/>
<path d="M1540.24 1384.59C1692.3 1384.59 1815.57 1261.32 1815.57 1109.26C1815.57 957.199 1692.3 833.93 1540.24 833.93C1388.18 833.93 1264.91 957.199 1264.91 1109.26C1264.91 1261.32 1388.18 1384.59 1540.24 1384.59Z" fill="#4488FF"/>
<path d="M1540.24 1353.28C1675.01 1353.28 1784.26 1244.03 1784.26 1109.26C1784.26 974.491 1675.01 865.24 1540.24 865.24C1405.47 865.24 1296.22 974.491 1296.22 1109.26C1296.22 1244.03 1405.47 1353.28 1540.24 1353.28Z" fill="url(#paint0_linear_114_618)"/>
<g filter="url(#filter0_d_114_618)">
<path d="M1600.41 964.554L1466.81 1022.53C1455.92 1027.25 1451.13 1039.8 1456.1 1050.55C1461.07 1061.3 1473.92 1066.18 1484.81 1061.46L1618.42 1003.48C1629.3 998.759 1634.1 986.215 1629.13 975.465C1624.16 964.715 1611.3 959.83 1600.41 964.554Z" fill="white"/>
</g>
<g filter="url(#filter1_d_114_618)">
<path d="M1588.26 1059.95L1533.39 1083.76C1522.51 1088.49 1517.71 1101.03 1522.68 1111.78C1527.65 1122.53 1540.51 1127.42 1551.39 1122.69L1606.26 1098.88C1617.15 1094.16 1621.95 1081.62 1616.98 1070.86C1612.01 1060.11 1599.15 1055.23 1588.26 1059.95Z" fill="white"/>
</g>
<g filter="url(#filter2_d_114_618)">
<path d="M1496.91 1122.84C1491.94 1112.09 1479.08 1107.2 1468.2 1111.93C1457.31 1116.65 1452.51 1129.2 1457.48 1139.95C1462.46 1150.7 1475.31 1155.58 1486.2 1150.86C1497.09 1146.13 1501.88 1133.59 1496.91 1122.84Z" fill="white"/>
</g>
<g filter="url(#filter3_d_114_618)">
<path d="M1603.3 1150.63L1469.69 1208.61C1458.8 1213.33 1454.01 1225.88 1458.98 1236.63C1463.95 1247.38 1476.81 1252.26 1487.69 1247.54L1621.3 1189.56C1632.18 1184.84 1636.98 1172.3 1632.01 1161.55C1627.04 1150.8 1614.18 1145.91 1603.3 1150.63Z" fill="white"/>
</g>
<path d="M1540.06 1356.11C1414.46 1356.12 1306.74 1260.32 1294.53 1132.79C1288.24 1067.16 1307.9 1003.01 1349.86 952.16C1391.83 901.31 1451.08 869.84 1516.72 863.56C1582.36 857.27 1646.5 876.93 1697.36 918.89C1748.21 960.86 1779.68 1020.11 1785.96 1085.75C1792.25 1151.38 1772.59 1215.53 1730.63 1266.39C1688.66 1317.24 1629.41 1348.71 1563.77 1354.99C1555.81 1355.74 1547.89 1356.11 1540.06 1356.11ZM1540.68 868.03C1532.9 868.03 1525.09 868.4 1517.25 869.15C1453.12 875.29 1395.21 906.04 1354.21 955.73C1313.2 1005.42 1294 1068.11 1300.14 1132.24C1312.07 1256.85 1417.34 1350.46 1540.07 1350.46C1547.73 1350.46 1555.46 1350.09 1563.24 1349.35C1627.37 1343.21 1685.28 1312.46 1726.28 1262.77C1767.29 1213.08 1786.49 1150.39 1780.35 1086.26C1774.21 1022.13 1743.46 964.22 1693.77 923.22C1650.15 887.23 1596.51 868.03 1540.68 868.03Z" fill="black"/>
<path d="M1497.75 743.67L1462.02 723.57C1452.14 718.01 1450.56 704.44 1458.86 696.74L1488.88 668.82C1498.91 659.5 1515.29 665.51 1516.91 679.11L1522.58 727.13C1524.2 740.74 1509.7 750.4 1497.75 743.67Z" fill="black"/>
<path d="M1576.17 1474.35L1611.9 1494.45C1621.78 1500.01 1623.36 1513.58 1615.06 1521.28L1585.04 1549.2C1575.01 1558.52 1558.63 1552.51 1557.01 1538.9L1551.34 1490.88C1549.72 1477.28 1564.23 1467.62 1576.17 1474.35Z" fill="black"/>
<path d="M1822.95 1708.93V1767.24C1822.95 1810.49 1787.89 1845.58 1744.65 1845.58H1322.52C1279.27 1845.58 1244.18 1810.49 1244.18 1767.24V1708.93C1244.18 1665.65 1279.27 1630.59 1322.52 1630.59H1744.65C1787.89 1630.59 1822.95 1665.65 1822.95 1708.93Z" fill="#5FD670"/>
<path d="M1744.64 1848.41H1322.51C1277.76 1848.41 1241.35 1812 1241.35 1767.25V1708.94C1241.35 1664.19 1277.76 1627.78 1322.51 1627.78H1744.64C1789.37 1627.78 1825.76 1664.19 1825.76 1708.94V1767.25C1825.76 1812 1789.37 1848.41 1744.64 1848.41ZM1322.51 1633.41C1280.87 1633.41 1246.99 1667.29 1246.99 1708.93V1767.24C1246.99 1808.88 1280.87 1842.76 1322.51 1842.76H1744.64C1786.26 1842.76 1820.12 1808.88 1820.12 1767.24V1708.93C1820.12 1667.29 1786.26 1633.41 1744.64 1633.41H1322.51Z" fill="black"/>
<path d="M1356.16 1759.6C1356.16 1760.53 1356.12 1761.3 1356.04 1761.92C1355.96 1762.54 1355.84 1763.04 1355.68 1763.43C1355.52 1763.81 1355.32 1764.09 1355.08 1764.27C1354.84 1764.45 1354.58 1764.53 1354.29 1764.53H1323.14C1322.09 1764.53 1321.2 1764.22 1320.48 1763.6C1319.76 1762.98 1319.4 1761.96 1319.4 1760.56V1706.51C1319.4 1705.1 1319.76 1704.09 1320.48 1703.47C1321.2 1702.85 1322.09 1702.54 1323.14 1702.54H1354.1C1354.39 1702.54 1354.64 1702.62 1354.87 1702.78C1355.09 1702.94 1355.29 1703.22 1355.45 1703.62C1355.61 1704.02 1355.73 1704.53 1355.81 1705.15C1355.89 1705.77 1355.93 1706.56 1355.93 1707.52C1355.93 1708.42 1355.89 1709.17 1355.81 1709.8C1355.73 1710.42 1355.61 1710.92 1355.45 1711.31C1355.29 1711.69 1355.1 1711.97 1354.87 1712.15C1354.65 1712.33 1354.39 1712.41 1354.1 1712.41H1331.96V1727.55H1350.7C1350.99 1727.55 1351.25 1727.64 1351.49 1727.81C1351.73 1727.99 1351.93 1728.26 1352.09 1728.62C1352.25 1728.99 1352.37 1729.48 1352.45 1730.11C1352.53 1730.73 1352.57 1731.49 1352.57 1732.38C1352.57 1733.31 1352.53 1734.08 1352.45 1734.68C1352.37 1735.29 1352.25 1735.78 1352.09 1736.14C1351.93 1736.51 1351.73 1736.77 1351.49 1736.93C1351.25 1737.09 1350.99 1737.17 1350.7 1737.17H1331.96V1754.66H1354.29C1354.58 1754.66 1354.84 1754.75 1355.08 1754.92C1355.32 1755.1 1355.52 1755.37 1355.68 1755.76C1355.84 1756.14 1355.96 1756.65 1356.04 1757.27C1356.12 1757.9 1356.16 1758.68 1356.16 1759.6Z" fill="white"/>
<path d="M1411.46 1759.79C1412.03 1760.91 1412.41 1761.8 1412.59 1762.47C1412.76 1763.14 1412.66 1763.65 1412.28 1764C1411.9 1764.35 1411.2 1764.57 1410.2 1764.67C1409.19 1764.77 1407.79 1764.81 1406.01 1764.81C1404.51 1764.81 1403.33 1764.78 1402.47 1764.71C1401.61 1764.64 1400.93 1764.54 1400.43 1764.4C1399.93 1764.26 1399.58 1764.06 1399.35 1763.8C1399.13 1763.54 1398.94 1763.23 1398.78 1762.84L1387.14 1740.46L1375.54 1762.84C1375.35 1763.22 1375.14 1763.54 1374.92 1763.8C1374.7 1764.06 1374.34 1764.26 1373.84 1764.4C1373.34 1764.54 1372.66 1764.65 1371.78 1764.71C1370.9 1764.77 1369.74 1764.81 1368.31 1764.81C1366.65 1764.81 1365.36 1764.76 1364.45 1764.67C1363.54 1764.57 1362.92 1764.35 1362.6 1764C1362.28 1763.65 1362.22 1763.14 1362.41 1762.47C1362.6 1761.8 1363 1760.91 1363.61 1759.79L1378.46 1732.72L1364.66 1707.28C1364.09 1706.13 1363.69 1705.21 1363.49 1704.53C1363.28 1703.84 1363.36 1703.33 1363.73 1703C1364.1 1702.66 1364.78 1702.46 1365.77 1702.38C1366.76 1702.3 1368.17 1702.26 1369.99 1702.26C1371.49 1702.26 1372.68 1702.29 1373.56 1702.36C1374.44 1702.43 1375.13 1702.53 1375.64 1702.67C1376.15 1702.81 1376.51 1703.01 1376.72 1703.27C1376.93 1703.53 1377.13 1703.85 1377.32 1704.23L1388.2 1724.74L1398.79 1704.23C1398.98 1703.85 1399.18 1703.53 1399.39 1703.27C1399.6 1703.01 1399.93 1702.82 1400.4 1702.67C1400.86 1702.53 1401.5 1702.42 1402.32 1702.36C1403.14 1702.3 1404.26 1702.26 1405.7 1702.26C1407.3 1702.26 1408.56 1702.3 1409.48 1702.38C1410.41 1702.46 1411.04 1702.68 1411.4 1703.03C1411.75 1703.38 1411.84 1703.89 1411.66 1704.56C1411.49 1705.23 1411.13 1706.14 1410.58 1707.29L1396.78 1732.59L1411.46 1759.79Z" fill="white"/>
<path d="M1460.86 1755.15C1460.86 1755.95 1460.84 1756.63 1460.79 1757.19C1460.74 1757.75 1460.67 1758.23 1460.57 1758.63C1460.47 1759.03 1460.35 1759.37 1460.19 1759.66C1460.03 1759.95 1459.78 1760.27 1459.42 1760.64C1459.07 1761.01 1458.39 1761.48 1457.38 1762.05C1456.37 1762.62 1455.14 1763.18 1453.69 1763.7C1452.24 1764.23 1450.57 1764.66 1448.71 1765.02C1446.84 1765.37 1444.82 1765.55 1442.65 1765.55C1438.4 1765.55 1434.57 1764.89 1431.15 1763.59C1427.73 1762.28 1424.83 1760.32 1422.43 1757.72C1420.03 1755.12 1418.2 1751.87 1416.92 1747.97C1415.64 1744.07 1415 1739.54 1415 1734.36C1415 1729.09 1415.7 1724.41 1417.11 1720.32C1418.52 1716.23 1420.48 1712.8 1423 1710.02C1425.52 1707.24 1428.55 1705.13 1432.08 1703.69C1435.61 1702.25 1439.5 1701.53 1443.75 1701.53C1445.48 1701.53 1447.14 1701.67 1448.73 1701.96C1450.33 1702.25 1451.8 1702.62 1453.16 1703.09C1454.52 1703.55 1455.74 1704.09 1456.83 1704.7C1457.92 1705.31 1458.67 1705.83 1459.1 1706.26C1459.53 1706.69 1459.83 1707.05 1459.99 1707.34C1460.15 1707.63 1460.28 1708 1460.37 1708.44C1460.47 1708.89 1460.54 1709.42 1460.58 1710.02C1460.63 1710.63 1460.65 1711.38 1460.65 1712.27C1460.65 1713.23 1460.62 1714.04 1460.55 1714.71C1460.49 1715.38 1460.37 1715.92 1460.21 1716.34C1460.05 1716.75 1459.86 1717.06 1459.64 1717.25C1459.42 1717.44 1459.16 1717.54 1458.87 1717.54C1458.39 1717.54 1457.78 1717.26 1457.05 1716.7C1456.32 1716.14 1455.37 1715.52 1454.2 1714.83C1453.04 1714.14 1451.64 1713.52 1450.03 1712.96C1448.42 1712.4 1446.49 1712.12 1444.26 1712.12C1441.8 1712.12 1439.6 1712.62 1437.67 1713.63C1435.74 1714.64 1434.09 1716.07 1432.73 1717.94C1431.37 1719.81 1430.34 1722.07 1429.64 1724.72C1428.94 1727.37 1428.59 1730.36 1428.59 1733.68C1428.59 1737.32 1428.96 1740.48 1429.72 1743.14C1430.47 1745.81 1431.54 1748 1432.93 1749.73C1434.32 1751.46 1436 1752.74 1437.96 1753.59C1439.92 1754.44 1442.14 1754.86 1444.6 1754.86C1446.83 1754.86 1448.77 1754.6 1450.4 1754.07C1452.03 1753.54 1453.43 1752.96 1454.59 1752.32C1455.76 1751.68 1456.71 1751.11 1457.46 1750.6C1458.21 1750.09 1458.79 1749.83 1459.21 1749.83C1459.53 1749.83 1459.78 1749.89 1459.98 1750.02C1460.17 1750.15 1460.33 1750.4 1460.46 1750.79C1460.59 1751.17 1460.68 1751.71 1460.75 1752.4C1460.83 1753.08 1460.86 1754 1460.86 1755.15Z" fill="white"/>
<path d="M1518.31 1762.81C1518.31 1763.13 1518.21 1763.42 1518 1763.67C1517.79 1763.93 1517.45 1764.13 1516.97 1764.29C1516.49 1764.45 1515.85 1764.58 1515.05 1764.67C1514.25 1764.77 1513.24 1764.81 1512.03 1764.81C1510.78 1764.81 1509.75 1764.76 1508.94 1764.67C1508.13 1764.57 1507.49 1764.45 1507.02 1764.29C1506.56 1764.13 1506.22 1763.92 1506.01 1763.67C1505.8 1763.41 1505.7 1763.13 1505.7 1762.81V1737.75H1482.51V1762.81C1482.51 1763.13 1482.41 1763.42 1482.22 1763.67C1482.03 1763.93 1481.69 1764.13 1481.21 1764.29C1480.73 1764.45 1480.09 1764.58 1479.29 1764.67C1478.49 1764.77 1477.47 1764.81 1476.22 1764.81C1475.01 1764.81 1473.99 1764.76 1473.18 1764.67C1472.37 1764.57 1471.72 1764.45 1471.24 1764.29C1470.76 1764.13 1470.42 1763.92 1470.21 1763.67C1470 1763.41 1469.9 1763.13 1469.9 1762.81V1704.25C1469.9 1703.93 1470 1703.64 1470.21 1703.39C1470.42 1703.13 1470.76 1702.93 1471.24 1702.77C1471.72 1702.61 1472.37 1702.48 1473.18 1702.39C1473.99 1702.29 1475.01 1702.25 1476.22 1702.25C1477.47 1702.25 1478.49 1702.3 1479.29 1702.39C1480.09 1702.49 1480.73 1702.61 1481.21 1702.77C1481.69 1702.93 1482.02 1703.14 1482.22 1703.39C1482.41 1703.65 1482.51 1703.93 1482.51 1704.25V1727.01H1505.7V1704.25C1505.7 1703.93 1505.8 1703.64 1506.01 1703.39C1506.22 1703.13 1506.55 1702.93 1507.02 1702.77C1507.48 1702.61 1508.12 1702.48 1508.94 1702.39C1509.75 1702.29 1510.79 1702.25 1512.03 1702.25C1513.24 1702.25 1514.25 1702.3 1515.05 1702.39C1515.85 1702.49 1516.49 1702.61 1516.97 1702.77C1517.45 1702.93 1517.79 1703.14 1518 1703.39C1518.21 1703.65 1518.31 1703.93 1518.31 1704.25V1762.81Z" fill="white"/>
<path d="M1582.62 1759.84C1583 1760.99 1583.24 1761.9 1583.34 1762.57C1583.44 1763.24 1583.31 1763.74 1582.96 1764.08C1582.61 1764.42 1581.99 1764.62 1581.09 1764.7C1580.19 1764.78 1578.96 1764.82 1577.4 1764.82C1575.77 1764.82 1574.5 1764.8 1573.59 1764.75C1572.68 1764.7 1571.98 1764.61 1571.51 1764.46C1571.03 1764.31 1570.7 1764.12 1570.5 1763.86C1570.31 1763.6 1570.15 1763.27 1570.02 1762.85L1565.85 1750.39H1542.56L1538.63 1762.51C1538.5 1762.96 1538.33 1763.33 1538.13 1763.64C1537.92 1763.94 1537.59 1764.18 1537.12 1764.36C1536.66 1764.53 1536 1764.65 1535.16 1764.72C1534.31 1764.78 1533.2 1764.82 1531.83 1764.82C1530.36 1764.82 1529.21 1764.77 1528.38 1764.68C1527.55 1764.58 1526.97 1764.35 1526.66 1763.99C1526.35 1763.63 1526.23 1763.1 1526.32 1762.43C1526.42 1761.76 1526.66 1760.87 1527.04 1759.75L1546.16 1704.74C1546.35 1704.2 1546.57 1703.76 1546.83 1703.42C1547.09 1703.08 1547.49 1702.83 1548.05 1702.65C1548.61 1702.47 1549.38 1702.36 1550.37 1702.31C1551.36 1702.26 1552.67 1702.24 1554.3 1702.24C1556.18 1702.24 1557.69 1702.26 1558.8 1702.31C1559.92 1702.36 1560.79 1702.47 1561.41 1702.65C1562.03 1702.83 1562.48 1703.09 1562.75 1703.44C1563.02 1703.79 1563.25 1704.27 1563.45 1704.88L1582.62 1759.84ZM1554.16 1714.37H1554.11L1545.34 1740.72H1562.93L1554.16 1714.37Z" fill="white"/>
<path d="M1642.42 1760.13C1642.42 1760.87 1642.29 1761.52 1642.04 1762.09C1641.79 1762.66 1641.44 1763.14 1641.01 1763.53C1640.58 1763.91 1640.07 1764.19 1639.48 1764.37C1638.89 1764.54 1638.29 1764.63 1637.68 1764.63H1632.31C1631.19 1764.63 1630.23 1764.52 1629.41 1764.29C1628.6 1764.07 1627.85 1763.66 1627.16 1763.07C1626.47 1762.48 1625.81 1761.68 1625.17 1760.67C1624.53 1759.66 1623.81 1758.36 1623.01 1756.77L1607.58 1727.78C1606.68 1726.06 1605.77 1724.2 1604.85 1722.2C1603.92 1720.2 1603.09 1718.26 1602.36 1716.38H1602.26C1602.39 1718.68 1602.48 1720.97 1602.55 1723.26C1602.61 1725.54 1602.65 1727.9 1602.65 1730.33V1762.77C1602.65 1763.09 1602.56 1763.38 1602.39 1763.63C1602.22 1763.88 1601.91 1764.1 1601.48 1764.28C1601.05 1764.46 1600.47 1764.59 1599.73 1764.69C1598.99 1764.79 1598.05 1764.83 1596.9 1764.83C1595.78 1764.83 1594.85 1764.78 1594.12 1764.69C1593.38 1764.59 1592.81 1764.46 1592.39 1764.28C1591.98 1764.11 1591.69 1763.89 1591.53 1763.63C1591.37 1763.37 1591.29 1763.09 1591.29 1762.77V1707.04C1591.29 1705.54 1591.73 1704.41 1592.61 1703.66C1593.49 1702.91 1594.57 1702.54 1595.84 1702.54H1602.6C1603.81 1702.54 1604.83 1702.64 1605.67 1702.85C1606.5 1703.06 1607.24 1703.4 1607.9 1703.88C1608.55 1704.36 1609.17 1705.02 1609.74 1705.87C1610.32 1706.72 1610.91 1707.76 1611.51 1709.01L1623.59 1731.67C1624.29 1733.04 1624.99 1734.39 1625.67 1735.72C1626.36 1737.04 1627.02 1738.37 1627.66 1739.7C1628.3 1741.02 1628.92 1742.33 1629.53 1743.6C1630.14 1744.88 1630.73 1746.16 1631.3 1747.43H1631.35C1631.25 1745.19 1631.18 1742.86 1631.13 1740.43C1631.08 1738 1631.06 1735.69 1631.06 1733.48V1704.39C1631.06 1704.07 1631.16 1703.78 1631.35 1703.53C1631.54 1703.27 1631.86 1703.05 1632.31 1702.86C1632.76 1702.67 1633.35 1702.53 1634.08 1702.45C1634.81 1702.37 1635.76 1702.33 1636.91 1702.33C1637.99 1702.33 1638.91 1702.37 1639.64 1702.45C1640.38 1702.53 1640.94 1702.67 1641.34 1702.86C1641.74 1703.05 1642.02 1703.28 1642.18 1703.53C1642.34 1703.79 1642.42 1704.07 1642.42 1704.39V1760.13Z" fill="white"/>
<path d="M1705.67 1712.16C1705.67 1713.09 1705.63 1713.89 1705.55 1714.56C1705.47 1715.23 1705.36 1715.77 1705.22 1716.17C1705.07 1716.57 1704.9 1716.85 1704.69 1717.01C1704.48 1717.17 1704.24 1717.25 1703.95 1717.25C1703.54 1717.25 1702.86 1716.96 1701.94 1716.39C1701.01 1715.81 1699.78 1715.19 1698.25 1714.52C1696.72 1713.85 1694.89 1713.23 1692.76 1712.65C1690.64 1712.07 1688.17 1711.79 1685.36 1711.79C1682.36 1711.79 1679.64 1712.31 1677.21 1713.35C1674.78 1714.39 1672.71 1715.86 1670.98 1717.76C1669.26 1719.66 1667.93 1721.95 1667 1724.61C1666.07 1727.28 1665.61 1730.23 1665.61 1733.45C1665.61 1737 1666.08 1740.12 1667.02 1742.82C1667.96 1745.52 1669.28 1747.78 1670.97 1749.6C1672.66 1751.42 1674.7 1752.79 1677.08 1753.72C1679.46 1754.65 1682.09 1755.11 1684.96 1755.11C1686.37 1755.11 1687.75 1754.95 1689.13 1754.63C1690.5 1754.31 1691.78 1753.83 1692.96 1753.19V1738.81H1681.22C1680.65 1738.81 1680.2 1738.45 1679.88 1737.73C1679.56 1737.01 1679.4 1735.79 1679.4 1734.06C1679.4 1733.16 1679.44 1732.41 1679.52 1731.81C1679.6 1731.2 1679.72 1730.72 1679.88 1730.35C1680.04 1729.98 1680.23 1729.71 1680.45 1729.54C1680.67 1729.37 1680.93 1729.28 1681.22 1729.28H1702.16C1702.67 1729.28 1703.13 1729.37 1703.52 1729.54C1703.92 1729.72 1704.27 1729.98 1704.57 1730.33C1704.87 1730.68 1705.1 1731.11 1705.27 1731.6C1705.43 1732.1 1705.51 1732.66 1705.51 1733.3V1757.98C1705.51 1758.94 1705.34 1759.78 1705.01 1760.5C1704.67 1761.22 1703.99 1761.79 1702.95 1762.2C1701.91 1762.62 1700.63 1763.05 1699.09 1763.49C1697.56 1763.94 1695.97 1764.32 1694.32 1764.64C1692.67 1764.96 1691.01 1765.2 1689.34 1765.36C1687.66 1765.52 1685.98 1765.6 1684.29 1765.6C1679.34 1765.6 1674.91 1764.89 1670.99 1763.47C1667.08 1762.05 1663.76 1759.99 1661.05 1757.29C1658.33 1754.59 1656.26 1751.3 1654.82 1747.42C1653.38 1743.54 1652.66 1739.14 1652.66 1734.22C1652.66 1729.14 1653.43 1724.58 1654.96 1720.54C1656.49 1716.5 1658.67 1713.07 1661.48 1710.24C1664.29 1707.41 1667.69 1705.25 1671.66 1703.75C1675.64 1702.25 1680.07 1701.5 1684.96 1701.5C1687.64 1701.5 1690.09 1701.68 1692.29 1702.05C1694.49 1702.42 1696.42 1702.86 1698.06 1703.39C1699.71 1703.92 1701.07 1704.48 1702.16 1705.09C1703.25 1705.7 1704.01 1706.22 1704.44 1706.67C1704.87 1707.12 1705.18 1707.75 1705.37 1708.56C1705.58 1709.36 1705.67 1710.57 1705.67 1712.16Z" fill="white"/>
<path d="M1755.22 1759.6C1755.22 1760.53 1755.18 1761.3 1755.1 1761.92C1755.02 1762.54 1754.9 1763.04 1754.74 1763.43C1754.58 1763.81 1754.38 1764.09 1754.14 1764.27C1753.9 1764.45 1753.64 1764.53 1753.35 1764.53H1722.2C1721.15 1764.53 1720.26 1764.22 1719.54 1763.6C1718.82 1762.98 1718.46 1761.96 1718.46 1760.56V1706.51C1718.46 1705.1 1718.82 1704.09 1719.54 1703.47C1720.26 1702.85 1721.15 1702.54 1722.2 1702.54H1753.16C1753.45 1702.54 1753.7 1702.62 1753.93 1702.78C1754.15 1702.94 1754.35 1703.22 1754.51 1703.62C1754.67 1704.02 1754.79 1704.53 1754.87 1705.15C1754.95 1705.77 1754.99 1706.56 1754.99 1707.52C1754.99 1708.42 1754.95 1709.17 1754.87 1709.8C1754.79 1710.42 1754.67 1710.92 1754.51 1711.31C1754.35 1711.69 1754.16 1711.97 1753.93 1712.15C1753.71 1712.33 1753.45 1712.41 1753.16 1712.41H1731.02V1727.55H1749.76C1750.05 1727.55 1750.31 1727.64 1750.55 1727.81C1750.79 1727.99 1750.99 1728.26 1751.15 1728.62C1751.31 1728.99 1751.43 1729.48 1751.51 1730.11C1751.59 1730.73 1751.63 1731.49 1751.63 1732.38C1751.63 1733.31 1751.59 1734.08 1751.51 1734.68C1751.43 1735.29 1751.31 1735.78 1751.15 1736.14C1750.99 1736.51 1750.79 1736.77 1750.55 1736.93C1750.31 1737.09 1750.05 1737.17 1749.76 1737.17H1731.02V1754.66H1753.35C1753.64 1754.66 1753.9 1754.75 1754.14 1754.92C1754.38 1755.1 1754.58 1755.37 1754.74 1755.76C1754.9 1756.14 1755.02 1756.65 1755.1 1757.27C1755.18 1757.9 1755.22 1758.68 1755.22 1759.6Z" fill="white"/>
<path d="M642.67 732.08C677.022 732.08 704.87 704.232 704.87 669.88C704.87 635.528 677.022 607.68 642.67 607.68C608.318 607.68 580.47 635.528 580.47 669.88C580.47 704.232 608.318 732.08 642.67 732.08Z" fill="black"/>
<path d="M828.53 1341.62H462.58L396.76 2159.15L539.99 2156.99L639.94 1522.43H657L773.72 2156.99H930.32L828.53 1341.62Z" fill="#0061EB"/>
<path d="M507.51 1906.17C499.89 1906.17 492.34 1904.24 485.92 1898.13C475.7 1888.41 470.91 1868.23 474.52 1850.13C477.68 1834.28 486.6 1820.03 498.98 1811.06C500.24 1810.15 502 1810.43 502.92 1811.69C503.83 1812.95 503.55 1814.71 502.29 1815.63C491.05 1823.78 482.94 1836.76 480.05 1851.24C476.79 1867.57 480.89 1885.57 489.81 1894.05C498.48 1902.3 510.41 1901.1 520.93 1898.84C528.79 1897.15 534.74 1894.71 538.24 1888.3C541.45 1882.43 542.07 1873.42 539.87 1864.79C536.57 1851.86 527.41 1842.42 518.47 1842.72C509.1 1843.08 500.52 1854.75 500.1 1867.7C499.87 1874.94 502.26 1881.73 505.91 1884.2C507.65 1885.37 509.4 1884.87 510.29 1884.47C512.48 1883.48 514 1881.2 514.36 1878.38C514.56 1876.84 515.96 1875.75 517.51 1875.94C519.05 1876.14 520.14 1877.55 519.95 1879.09C519.34 1883.87 516.59 1887.8 512.61 1889.6C509.32 1891.09 505.63 1890.81 502.75 1888.86C496.27 1884.48 494.24 1874.62 494.46 1867.51C494.98 1851.5 505.87 1837.56 518.25 1837.08C529.99 1836.63 541.32 1847.69 545.33 1863.39C547.91 1873.5 547.11 1883.81 543.19 1890.99C538.39 1899.78 530.23 1902.6 522.12 1904.34C517.41 1905.36 512.44 1906.17 507.51 1906.17Z" fill="black"/>
<path d="M449.48 1514.34C447.96 1514.34 446.71 1513.13 446.67 1511.61C446.62 1510.05 447.85 1508.75 449.4 1508.71C472.06 1508.02 494.03 1497.03 508.17 1479.3C522.31 1461.58 528.14 1437.71 523.77 1415.46C523.47 1413.93 524.47 1412.45 525.99 1412.15C527.52 1411.85 529 1412.85 529.3 1414.37C533.99 1438.22 527.74 1463.81 512.58 1482.81C497.42 1501.81 473.87 1513.6 449.58 1514.33C449.54 1514.34 449.51 1514.34 449.48 1514.34Z" fill="black"/>
<path d="M842.51 1493.42C842.37 1493.42 842.22 1493.41 842.08 1493.39C834.32 1492.19 826.5 1488.86 819.46 1483.75C807.53 1475.1 798.69 1461.93 795.21 1447.61C791.72 1433.29 793.52 1417.53 800.14 1404.37C800.84 1402.98 802.54 1402.42 803.92 1403.12C805.31 1403.82 805.87 1405.51 805.17 1406.9C799.14 1418.89 797.51 1433.24 800.68 1446.28C803.85 1459.31 811.9 1471.31 822.77 1479.19C829.09 1483.77 836.07 1486.76 842.95 1487.82C844.49 1488.06 845.54 1489.5 845.3 1491.04C845.08 1492.42 843.87 1493.42 842.51 1493.42Z" fill="black"/>
<path d="M939.26 2201.86C938.67 2201.86 938.09 2201.68 937.6 2201.32C936.75 2200.7 936.31 2199.65 936.48 2198.6C937.26 2193.69 944.58 2150.49 961.14 2144.05C964.26 2142.84 969.19 2142.36 974.99 2146.97C980.38 2151.26 982.82 2156.34 982.23 2162.06C980.24 2181.36 942.16 2200.74 940.54 2201.55C940.13 2201.76 939.69 2201.86 939.26 2201.86ZM965.5 2148.86C964.71 2148.86 963.94 2149.01 963.17 2149.31C953.15 2153.2 946.05 2178.99 943.08 2193.78C955.21 2186.89 975.42 2173.11 976.61 2161.48C977 2157.74 975.31 2154.44 971.47 2151.38C969.35 2149.7 967.38 2148.86 965.5 2148.86Z" fill="black"/>
<path d="M980.64 2212.41C962.56 2212.41 939.38 2202.18 938.11 2201.61C937.14 2201.18 936.5 2200.24 936.44 2199.19C936.38 2198.14 936.92 2197.14 937.84 2196.6C942.13 2194.1 980.25 2172.45 995.68 2181.21C998.59 2182.86 1002.08 2186.38 1002.18 2193.79C1002.27 2200.68 999.87 2205.78 995.07 2208.94C991.26 2211.45 986.19 2212.41 980.64 2212.41ZM945.75 2198.68C958.76 2203.72 982.21 2210.67 991.98 2204.24C995.12 2202.17 996.62 2198.78 996.55 2193.87C996.5 2190.02 995.31 2187.49 992.91 2186.12C983.57 2180.83 959.09 2191.63 945.75 2198.68Z" fill="black"/>
<path d="M1018.79 2247.3H772.99L773.71 2156.99H930.31L941.45 2195.92L1018.79 2247.3Z" fill="black"/>
<path d="M938.508 2194.04L928.354 2204.2L933.664 2209.51L943.818 2199.35L938.508 2194.04Z" fill="white"/>
<path d="M953.859 2205.71L943.161 2216.41L948.471 2221.72L959.169 2211.02L953.859 2205.71Z" fill="white"/>
<path d="M548.83 2201.86C548.24 2201.86 547.66 2201.68 547.17 2201.32C546.32 2200.7 545.88 2199.65 546.05 2198.6C546.83 2193.69 554.15 2150.49 570.71 2144.05C573.83 2142.84 578.76 2142.36 584.56 2146.97C589.95 2151.26 592.39 2156.34 591.8 2162.06C589.81 2181.36 551.73 2200.74 550.11 2201.55C549.69 2201.76 549.26 2201.86 548.83 2201.86ZM575.07 2148.86C574.28 2148.86 573.51 2149.01 572.74 2149.31C562.72 2153.2 555.62 2178.99 552.65 2193.78C564.78 2186.89 584.99 2173.11 586.18 2161.48C586.57 2157.74 584.88 2154.44 581.04 2151.38C578.92 2149.7 576.95 2148.86 575.07 2148.86Z" fill="black"/>
<path d="M590.21 2212.41C572.13 2212.41 548.95 2202.18 547.68 2201.61C546.71 2201.18 546.07 2200.24 546.01 2199.19C545.95 2198.13 546.49 2197.14 547.41 2196.6C551.7 2194.1 589.82 2172.45 605.25 2181.21C608.16 2182.86 611.65 2186.38 611.75 2193.79C611.84 2200.68 609.44 2205.78 604.64 2208.94C600.83 2211.45 595.76 2212.41 590.21 2212.41ZM555.32 2198.68C568.33 2203.72 591.78 2210.67 601.55 2204.24C604.69 2202.17 606.19 2198.78 606.12 2193.87C606.07 2190.02 604.88 2187.49 602.48 2186.12C593.13 2180.83 568.65 2191.63 555.32 2198.68Z" fill="black"/>
<path d="M628.35 2247.3H382.56L396.36 2159.15L539.88 2156.99L551.01 2195.92L628.35 2247.3Z" fill="black"/>
<path d="M548.073 2194.04L537.919 2204.2L543.229 2209.51L553.383 2199.35L548.073 2194.04Z" fill="white"/>
<path d="M563.431 2205.7L552.732 2216.4L558.043 2221.71L568.741 2211.01L563.431 2205.7Z" fill="white"/>
<path d="M657 1522.43L807.29 2156.99H773.71L657 1522.43Z" fill="#114AF0"/>
<path d="M820.05 1878.7C812.43 1878.7 804.87 1876.77 798.46 1870.66C788.24 1860.94 783.45 1840.76 787.07 1822.66C790.23 1806.81 799.15 1792.57 811.53 1783.59C812.79 1782.68 814.55 1782.96 815.47 1784.22C816.38 1785.48 816.1 1787.24 814.84 1788.16C803.59 1796.31 795.49 1809.29 792.6 1823.77C789.34 1840.1 793.44 1858.1 802.35 1866.58C811.02 1874.83 822.95 1873.63 833.48 1871.37C841.34 1869.68 847.29 1867.24 850.79 1860.83C854 1854.96 854.62 1845.95 852.42 1837.32C849.12 1824.39 840 1815.01 831.02 1815.25C821.65 1815.61 813.07 1827.28 812.65 1840.23C812.42 1847.47 814.8 1854.26 818.46 1856.73C820.2 1857.91 821.95 1857.4 822.84 1857C825.03 1856.01 826.55 1853.73 826.91 1850.91C827.11 1849.37 828.52 1848.27 830.06 1848.47C831.6 1848.67 832.69 1850.08 832.5 1851.62C831.89 1856.4 829.14 1860.33 825.16 1862.13C821.87 1863.62 818.18 1863.34 815.3 1861.39C808.82 1857.01 806.79 1847.15 807.02 1840.04C807.54 1824.03 818.43 1810.09 830.8 1809.61C842.58 1809.19 853.87 1820.22 857.88 1835.92C860.46 1846.03 859.66 1856.34 855.74 1863.52C850.94 1872.31 842.78 1875.13 834.67 1876.87C829.95 1877.89 824.98 1878.7 820.05 1878.7Z" fill="black"/>
<path d="M1256.07 882.92L1231.43 931.51C1226.73 940.78 1217.61 946.99 1207.26 947.97L1166.44 987.88L1076.25 898.94L1170.7 744.26C1177.62 732.89 1193.21 730.72 1203.02 739.72C1208.42 744.69 1210.72 752.02 1209.46 759.01C1209.14 760.81 1208.6 762.57 1207.79 764.28L1177.25 828.74L1186.15 821.97C1193.23 816.57 1202.82 815.75 1210.73 819.85C1219.76 824.56 1224.54 834.55 1222.78 844.36C1222.62 845.24 1222.4 846.15 1222.14 847.02L1220.3 853.08C1225.74 848.93 1232.45 847.49 1238.73 848.62C1243.36 849.45 1247.77 851.69 1251.29 855.25L1251.85 855.82C1258.93 863.01 1260.65 873.93 1256.07 882.92Z" fill="#FFCDB2"/>
<path d="M1207.27 949.85C1207.24 949.85 1207.2 949.85 1207.17 949.85C1206.99 949.84 1189.23 948.72 1188.3 931.33C1187.55 917.21 1212.51 866.09 1213.57 863.92C1214.03 862.99 1215.16 862.6 1216.09 863.06C1217.02 863.52 1217.41 864.64 1216.95 865.58C1208.09 883.65 1191.49 920.61 1192.05 931.13C1192.79 945.11 1206.77 946.06 1207.36 946.1C1208.39 946.16 1209.19 947.04 1209.13 948.08C1209.08 949.07 1208.26 949.85 1207.27 949.85Z" fill="#231F20"/>
<path d="M1175.3 935.16C1173.76 935.16 1172.22 935.02 1170.72 934.73C1162.61 933.14 1157.02 927.65 1154.97 919.24C1151.82 906.36 1171.69 850.31 1172.53 847.93C1172.88 846.95 1173.95 846.44 1174.93 846.79C1175.91 847.14 1176.42 848.21 1176.07 849.19C1170.4 865.11 1156.23 908.56 1158.62 918.35C1160.78 927.19 1166.78 930.13 1171.44 931.04C1178.94 932.5 1186.38 929.52 1188.99 925.9C1189.6 925.06 1190.77 924.87 1191.61 925.48C1192.45 926.09 1192.64 927.26 1192.03 928.1C1188.92 932.43 1182.11 935.16 1175.3 935.16Z" fill="#231F20"/>
<path d="M1130.71 834.49L1181.12 841.31C1190.97 842.64 1198.28 851.11 1198.16 861.05C1198.05 870.4 1191.37 878.39 1182.18 880.15L1143.88 887.48L1139.62 915.64" fill="#FFCDB2"/>
<path d="M1139.62 917.52C1139.53 917.52 1139.43 917.51 1139.34 917.5C1138.31 917.35 1137.61 916.39 1137.76 915.36L1142.02 887.2C1142.14 886.41 1142.74 885.79 1143.52 885.64L1181.82 878.31C1190.1 876.73 1196.17 869.46 1196.27 861.04C1196.38 852.07 1189.75 844.39 1180.86 843.19L1130.45 836.37C1129.42 836.23 1128.7 835.28 1128.84 834.26C1128.98 833.23 1129.92 832.52 1130.95 832.65L1181.36 839.47C1192.13 840.93 1200.16 850.22 1200.03 861.09C1199.91 871.29 1192.55 880.09 1182.53 882.01L1145.53 889.09L1141.47 915.93C1141.33 916.85 1140.53 917.52 1139.62 917.52Z" fill="#231F20"/>
<path d="M1180.57 868.02C1179.12 868.02 1177.64 867.57 1176.3 866.69C1173.82 865.07 1171.99 862.2 1171.29 858.83C1170.57 855.49 1171.08 852.14 1172.7 849.66C1173.86 847.87 1175.54 846.67 1177.44 846.27C1179.32 845.88 1181.33 846.29 1183.11 847.46C1185.59 849.08 1187.42 851.95 1188.12 855.32C1189.38 861.38 1186.69 866.89 1181.98 867.88C1181.51 867.97 1181.04 868.02 1180.57 868.02ZM1178.85 849.88C1178.64 849.88 1178.42 849.9 1178.2 849.95C1177.04 850.19 1176.28 851.04 1175.84 851.71C1174.78 853.34 1174.45 855.71 1174.96 858.06C1175.46 860.44 1176.72 862.49 1178.35 863.56C1179.01 863.99 1180.03 864.45 1181.19 864.21C1183.75 863.67 1185.23 859.96 1184.43 856.09C1183.93 853.72 1182.67 851.67 1181.04 850.61C1180.51 850.25 1179.74 849.88 1178.85 849.88Z" fill="#231F20"/>
<path d="M1176.61 925.08C1174.9 925.08 1173.12 924.72 1171.42 924.02C1168.26 922.74 1165.78 920.43 1164.63 917.7C1163.8 915.74 1163.76 913.67 1164.49 911.88C1165.41 909.65 1167.39 908.06 1170.07 907.4C1172.54 906.79 1175.35 907.05 1177.98 908.14C1183.7 910.5 1186.74 915.83 1184.91 920.29C1183.99 922.52 1182.01 924.11 1179.33 924.77C1178.46 924.98 1177.54 925.08 1176.61 925.08ZM1172.8 910.83C1172.17 910.83 1171.55 910.9 1170.97 911.04C1169.48 911.41 1168.41 912.21 1167.96 913.31C1167.51 914.41 1167.78 915.52 1168.09 916.25C1168.84 918.04 1170.62 919.65 1172.84 920.55C1174.75 921.34 1176.73 921.54 1178.43 921.12C1179.92 920.75 1180.98 919.95 1181.44 918.85C1182.44 916.43 1180.2 913.11 1176.55 911.61C1175.3 911.09 1174.01 910.83 1172.8 910.83Z" fill="#231F20"/>
<path d="M1208.13 938.77C1206.43 938.77 1204.65 938.41 1202.94 937.7C1199.77 936.42 1197.29 934.11 1196.15 931.37C1195.33 929.41 1195.28 927.34 1196.01 925.55C1196.93 923.32 1198.91 921.73 1201.59 921.07C1204.06 920.46 1206.87 920.72 1209.5 921.81C1215.22 924.17 1218.26 929.51 1216.43 933.96C1215.7 935.74 1214.22 937.17 1212.26 937.98C1210.99 938.5 1209.59 938.77 1208.13 938.77ZM1204.32 924.5C1203.69 924.5 1203.07 924.57 1202.49 924.71C1201 925.08 1199.93 925.88 1199.48 926.98C1199.03 928.08 1199.3 929.18 1199.61 929.92C1200.36 931.71 1202.14 933.32 1204.36 934.22C1206.61 935.15 1209.02 935.26 1210.81 934.51C1211.54 934.21 1212.5 933.62 1212.95 932.52C1213.95 930.1 1211.71 926.79 1208.06 925.28C1206.82 924.77 1205.53 924.5 1204.32 924.5Z" fill="#231F20"/>
<path d="M739.08 848.55C760.531 848.55 777.92 831.161 777.92 809.71C777.92 788.259 760.531 770.87 739.08 770.87C717.629 770.87 700.24 788.259 700.24 809.71C700.24 831.161 717.629 848.55 739.08 848.55Z" fill="#FFB49F"/>
<path d="M729.51 1120.77C729.51 1120.77 741.64 1127.95 762.06 1137.09C762.46 1137.27 762.84 1137.44 763.24 1137.62C789.9 1149.61 829.76 1169.38 875.73 1171.09C876.26 1171.12 876.76 1171.15 877.3 1171.16C1072.63 1176.63 1178.05 993.04 1178.05 993.04L1071.17 859.53C968.65 1087.42 827.61 1000.99 773.58 1008.96L729.51 1120.77Z" fill="#FF665C"/>
<path d="M763.24 1137.62C789.9 1149.61 829.76 1169.38 875.73 1171.09L823.18 1085.21L763.24 1137.62Z" fill="#F34A3F"/>
<path d="M451.42 1103.78L422.63 1413.45C531.45 1426.54 711.24 1421.93 854.96 1413.45L824.35 1079.13C822.2 1038.36 792.56 1006.54 756.73 1006.54H548.66C494.96 1006.54 451.42 1050.07 451.42 1103.78Z" fill="#FF665C"/>
<path d="M687.91 1006.53L679.56 1050.17L578.32 1006.53L583.53 915.6L633.35 925.65L679.56 924.07L685.34 981.34C685.37 981.37 685.37 981.37 685.37 981.37L687.91 1006.53Z" fill="#FFCDB2"/>
<path d="M685.35 981.34C683.86 980.77 636.28 961.96 627.78 936.27C626.38 932.01 628.61 928.52 633.35 925.66L679.56 924.08L685.35 981.34Z" fill="#FFB49F"/>
<path d="M679.55 1053C679.18 1053 678.8 1052.93 678.44 1052.77L577.21 1009.12C575.78 1008.51 575.12 1006.85 575.74 1005.42C576.35 1003.99 578.01 1003.33 579.44 1003.95L680.67 1047.59C682.1 1048.2 682.76 1049.86 682.14 1051.29C681.68 1052.36 680.64 1053 679.55 1053Z" fill="black"/>
<path d="M644.27 957.88C709.942 957.88 763.18 904.642 763.18 838.97C763.18 773.298 709.942 720.06 644.27 720.06C578.598 720.06 525.36 773.298 525.36 838.97C525.36 904.642 578.598 957.88 644.27 957.88Z" fill="#FFCDB2"/>
<path d="M551.08 706.07C563.19 727.82 578.06 747.87 591.14 769.06C594.48 774.46 599.18 777.12 604.07 777.76C590.1 840.62 535.7 861.59 535.7 861.59C477.15 845.41 458.73 726.29 551.08 706.07Z" fill="black"/>
<path d="M532.74 896.53C554.191 896.53 571.58 879.141 571.58 857.69C571.58 836.239 554.191 818.85 532.74 818.85C511.289 818.85 493.9 836.239 493.9 857.69C493.9 879.141 511.289 896.53 532.74 896.53Z" fill="#FFCDB2"/>
<path d="M722.74 836.2C728.318 836.2 732.84 831.678 732.84 826.1C732.84 820.522 728.318 816 722.74 816C717.162 816 712.64 820.522 712.64 826.1C712.64 831.678 717.162 836.2 722.74 836.2Z" fill="black"/>
<path d="M664.12 849.07C669.698 849.07 674.22 844.548 674.22 838.97C674.22 833.392 669.698 828.87 664.12 828.87C658.542 828.87 654.02 833.392 654.02 838.97C654.02 844.548 658.542 849.07 664.12 849.07Z" fill="black"/>
<path d="M675.56 916.03C673.4 916.03 671.25 915.79 669.15 915.3C661.41 913.48 654.5 908.25 650.65 901.3C649.9 899.94 650.39 898.22 651.75 897.47C653.11 896.72 654.82 897.21 655.58 898.57C658.67 904.15 664.23 908.35 670.44 909.81C676.65 911.26 683.5 909.98 688.75 906.36C690.03 905.48 691.79 905.8 692.67 907.08C693.55 908.36 693.23 910.12 691.95 911C687.18 914.29 681.36 916.03 675.56 916.03Z" fill="black"/>
<path d="M431.37 1181.42V1285.09C501.65 1238.66 544.92 1114.8 544.92 1114.8L431.37 1181.42Z" fill="#F34A3F"/>
<path d="M544.93 1259.77L605.58 1228.32C612.72 1221.21 624.33 1221.27 631.37 1228.51C634.86 1232.06 636.56 1236.63 636.56 1241.19C636.56 1246.51 634.26 1251.79 629.73 1255.38L606.71 1271.97" fill="#FFCDB2"/>
<path d="M634.77 1413.14H718.27C741.26 1413.14 759.9 1394.5 759.9 1371.51V1198.68C759.9 1175.69 741.26 1157.05 718.27 1157.05H634.77C611.78 1157.05 593.14 1175.69 593.14 1198.68V1371.51C593.14 1394.5 611.78 1413.14 634.77 1413.14Z" fill="black"/>
<path d="M606.71 1271.96L661.98 1265.13C670.06 1264.34 677.27 1270.26 678.05 1278.31L678.21 1280.04C678.93 1287.5 673.96 1294.29 666.67 1295.83L644.08 1300.67L677.01 1300.8C684.62 1300.83 690.94 1306.68 691.57 1314.29C691.6 1314.7 691.63 1315.11 691.63 1315.49C691.63 1323.54 685.12 1330.18 676.94 1330.18H644.9L666.62 1329.03C673.76 1330.7 678.57 1337.37 677.91 1344.66L677.82 1345.63C677.03 1354.03 669.33 1360.07 660.96 1358.78L634.65 1360.91L635.5 1361.26L657.8 1357.19C664.94 1360.09 668.62 1368.01 666.23 1375.34C664.75 1379.9 661.89 1383.71 658.21 1386.38C654.53 1389.05 650 1390.59 645.22 1390.59L587.28 1394.19H544.93V1259.77" fill="#FFCDB2"/>
<path d="M587.27 1394.19H544.93V1259.77L587.27 1394.19Z" fill="#FFB49F"/>
<path d="M663.75 1290.96C659.88 1290.96 656.19 1287.61 654.93 1282.63C654.27 1280.02 654.41 1277.36 655.31 1275.14C656.28 1272.75 658.1 1271.06 660.29 1270.51C662.07 1270.06 664.01 1270.39 665.75 1271.43C668.15 1272.87 669.98 1275.5 670.75 1278.65C671.55 1281.79 671.18 1284.98 669.75 1287.39C668.72 1289.12 667.17 1290.32 665.4 1290.77C664.84 1290.9 664.29 1290.96 663.75 1290.96ZM661.9 1274.07C661.67 1274.07 661.44 1274.1 661.21 1274.16C659.81 1274.51 659.1 1275.82 658.79 1276.56C658.19 1278.03 658.11 1279.91 658.57 1281.72C659.46 1285.23 662.19 1287.71 664.47 1287.12C665.5 1286.86 666.15 1286.08 666.52 1285.46C667.44 1283.93 667.65 1281.72 667.11 1279.56C666.58 1277.4 665.35 1275.57 663.82 1274.65C663.34 1274.36 662.66 1274.07 661.9 1274.07Z" fill="#231F20"/>
<path d="M676.83 1325.62C672.52 1325.62 668.87 1321.47 668.4 1315.88C668.17 1313.2 668.74 1310.6 669.99 1308.55C671.34 1306.35 673.4 1304.98 675.65 1304.79C677.5 1304.62 679.35 1305.27 680.89 1306.58C683.03 1308.39 684.4 1311.29 684.65 1314.51C684.93 1317.74 684.05 1320.82 682.24 1322.97C680.94 1324.51 679.22 1325.44 677.39 1325.6C677.21 1325.61 677.02 1325.62 676.83 1325.62ZM676.2 1308.52C676.12 1308.52 676.04 1308.52 675.96 1308.53C674.53 1308.65 673.61 1309.82 673.19 1310.51C672.36 1311.86 671.98 1313.7 672.14 1315.56C672.45 1319.17 674.63 1322 677.08 1321.85C678.14 1321.76 678.91 1321.09 679.37 1320.55C680.52 1319.18 681.1 1317.04 680.91 1314.82C680.74 1312.6 679.82 1310.6 678.46 1309.44C677.95 1309.01 677.16 1308.52 676.2 1308.52Z" fill="#231F20"/>
<path d="M662.69 1353.75C658.38 1353.75 654.73 1349.6 654.26 1344.01C654.03 1341.33 654.6 1338.73 655.85 1336.68C657.2 1334.48 659.26 1333.11 661.51 1332.92C663.34 1332.75 665.21 1333.4 666.75 1334.71C668.89 1336.53 670.26 1339.42 670.51 1342.64C670.79 1345.87 669.91 1348.96 668.1 1351.1C666.8 1352.64 665.08 1353.57 663.25 1353.73C663.06 1353.74 662.87 1353.75 662.69 1353.75ZM662.06 1336.64C661.98 1336.64 661.9 1336.64 661.83 1336.65C660.4 1336.77 659.48 1337.94 659.06 1338.63C658.23 1339.98 657.85 1341.83 658.01 1343.68C658.32 1347.29 660.53 1350.16 662.95 1349.97C664.01 1349.88 664.78 1349.21 665.24 1348.67C666.39 1347.3 666.97 1345.16 666.78 1342.94C666.61 1340.73 665.69 1338.72 664.33 1337.57C663.81 1337.14 663.02 1336.64 662.06 1336.64Z" fill="#231F20"/>
<path d="M651.6 1384.32C651.35 1384.32 651.11 1384.31 650.86 1384.28C646.32 1383.76 643.29 1378.79 643.96 1372.98C644.26 1370.31 645.33 1367.87 646.97 1366.1C648.72 1364.21 651.02 1363.25 653.26 1363.53C655.09 1363.74 656.79 1364.73 658.04 1366.32C659.78 1368.52 660.55 1371.63 660.16 1374.84C659.86 1377.5 658.79 1379.94 657.15 1381.7C655.59 1383.4 653.6 1384.32 651.6 1384.32ZM651.29 1380.55C652.71 1380.72 653.85 1379.75 654.4 1379.16C655.48 1378 656.22 1376.27 656.43 1374.41C656.7 1372.2 656.19 1370.06 655.09 1368.65C654.64 1368.08 653.89 1367.39 652.83 1367.26C651.4 1367.09 650.27 1368.06 649.72 1368.65C648.64 1369.81 647.9 1371.54 647.69 1373.4C647.28 1377.01 648.93 1380.28 651.29 1380.55Z" fill="#231F20"/>
<path d="M620.17 1302.06C619.14 1302.06 618.3 1301.23 618.29 1300.19C618.28 1299.15 619.12 1298.31 620.16 1298.3C626.62 1298.26 629.58 1298.22 632.54 1298.18C635.51 1298.14 638.47 1298.1 644.95 1298.06C644.96 1298.06 644.96 1298.06 644.96 1298.06C645.99 1298.06 646.83 1298.89 646.84 1299.93C646.85 1300.97 646.01 1301.81 644.97 1301.82C638.51 1301.86 635.55 1301.9 632.59 1301.94C629.62 1301.98 626.66 1302.02 620.18 1302.06C620.17 1302.06 620.17 1302.06 620.17 1302.06Z" fill="#231F20"/>
<path d="M635.92 1363.13H616.15C615.11 1363.13 614.27 1362.29 614.27 1361.25C614.27 1360.21 615.11 1359.37 616.15 1359.37H635.92C636.96 1359.37 637.8 1360.21 637.8 1361.25C637.8 1362.29 636.96 1363.13 635.92 1363.13Z" fill="#231F20"/>
<path d="M628.97 1332.72C627.41 1332.72 625.65 1332.68 623.55 1332.58C622.51 1332.53 621.71 1331.65 621.76 1330.61C621.81 1329.58 622.71 1328.74 623.73 1328.83C628.53 1329.07 631.39 1328.95 634.42 1328.83C637.39 1328.71 640.46 1328.58 645.43 1328.83C646.47 1328.88 647.27 1329.76 647.22 1330.8C647.17 1331.84 646.24 1332.61 645.25 1332.59C640.45 1332.35 637.6 1332.47 634.57 1332.59C632.86 1332.65 631.11 1332.72 628.97 1332.72Z" fill="#231F20"/>
<path d="M287.89 1389.67C326.48 1435.61 481.55 1419.95 578.1 1395.32L551.12 1252.17C508.28 1268.92 422.65 1286.54 408.92 1278.23C397.33 1271.26 421.1 1247.99 451.89 1219.36V1219.32C468.45 1203.92 487.07 1186.99 503.31 1170.15C524 1148.79 539.7 1127.33 544.74 1110.28C558.25 1064.59 515.88 1012.2 515.88 1012.2C440.61 1021.7 173.21 1253.11 287.89 1389.67Z" fill="#FF665C"/>
<path d="M696.18 799.5C738.109 799.5 772.1 765.509 772.1 723.58C772.1 681.65 738.109 647.66 696.18 647.66C654.251 647.66 620.26 681.65 620.26 723.58C620.26 765.509 654.251 799.5 696.18 799.5Z" fill="black"/>
<path d="M605.05 799.5C646.98 799.5 680.97 765.509 680.97 723.58C680.97 681.65 646.98 647.66 605.05 647.66C563.121 647.66 529.13 681.65 529.13 723.58C529.13 765.509 563.121 799.5 605.05 799.5Z" fill="black"/>
<path d="M2152.22 1992.48C2101.06 2052.14 2050.51 2063.53 2022.37 2039.4C1994.23 2015.27 1999.15 1964.75 2050.3 1905.09C2101.46 1845.43 2179.47 1799.22 2207.62 1823.36C2235.77 1847.49 2203.38 1932.82 2152.22 1992.48Z" fill="#5FD670"/>
<path d="M1789.68 2056.35C1795.76 2004.32 1826.37 1980.02 1859.17 1983.85C1891.97 1987.68 1914.55 2018.21 1908.46 2070.24C1902.38 2122.27 1869.94 2176.09 1837.14 2172.25C1804.34 2168.42 1783.6 2108.38 1789.68 2056.35Z" fill="#5FD670"/>
<path d="M2000.44 1864.53C2012.17 1929.28 1994.92 1967.77 1966.84 1972.85C1938.76 1977.94 1910.48 1947.7 1898.75 1882.94C1887.02 1818.19 1896.29 1743.44 1924.37 1738.36C1952.45 1733.28 1988.71 1799.78 2000.44 1864.53Z" fill="#5FD670"/>
<path d="M2051.05 2247.06L1928.11 2247.3L1894.32 2106.72L2083.67 2106.36L2051.05 2247.06Z" fill="white"/>
<path d="M2050.76 2250H1927.82C1926.51 2250 1925.38 2249.1 1925.08 2247.83L1891.87 2107.19C1891.67 2106.35 1891.87 2105.47 1892.4 2104.79C1892.93 2104.11 1893.75 2103.72 1894.61 2103.72H2083.97C2084.83 2103.72 2085.64 2104.11 2086.18 2104.79C2086.72 2105.47 2086.91 2106.35 2086.71 2107.19L2053.5 2247.83C2053.2 2249.1 2052.06 2250 2050.76 2250ZM1930.05 2244.36H2048.53L2080.41 2109.35H1898.18L1930.05 2244.36Z" fill="black"/>
<path d="M1993.93 2109.45C1993.75 2109.45 1993.57 2109.43 1993.39 2109.4C1991.86 2109.1 1990.87 2107.62 1991.16 2106.1C1991.62 2103.76 2038.48 1872.15 2189.05 1839.63C2190.56 1839.29 2192.07 1840.26 2192.4 1841.79C2192.73 1843.31 2191.76 1844.81 2190.24 1845.14C2043.3 1876.87 1997.14 2104.88 1996.7 2107.18C1996.43 2108.51 1995.25 2109.45 1993.93 2109.45Z" fill="black"/>
<path d="M1976.26 2109.45C1976.23 2109.45 1976.21 2109.45 1976.19 2109.45C1974.63 2109.41 1973.41 2108.12 1973.45 2106.56C1973.51 2104.37 1978.48 1886.6 1927.2 1799.29C1926.41 1797.95 1926.86 1796.22 1928.2 1795.43C1929.54 1794.64 1931.27 1795.09 1932.06 1796.43C1984.15 1885.13 1979.31 2097.69 1979.08 2106.7C1979.04 2108.23 1977.79 2109.45 1976.26 2109.45Z" fill="black"/>
<path d="M1834.48 2130.71C1833.1 2130.71 1831.9 2129.7 1831.7 2128.3C1827.81 2101.48 1824.69 2017.36 1860.09 1983.81C1872.45 1972.09 1888.11 1968.03 1906.64 1971.74C1962.93 1983 1965.8 2101.54 1965.9 2106.58C1965.93 2108.14 1964.69 2109.42 1963.14 2109.45C1961.61 2109.43 1960.3 2108.24 1960.27 2106.69C1960.25 2105.5 1957.41 1987.65 1905.54 1977.27C1888.91 1973.95 1874.92 1977.52 1863.97 1987.9C1832.81 2017.43 1832.53 2094.7 1837.28 2127.49C1837.5 2129.03 1836.44 2130.46 1834.89 2130.68C1834.75 2130.7 1834.61 2130.71 1834.48 2130.71Z" fill="black"/>
<path d="M2144.68 2120.11C2093.21 2136.1 2060.21 2125.92 2053.27 2103.6C2046.34 2081.28 2068.1 2055.28 2119.57 2039.29C2171.04 2023.3 2232.72 2023.38 2239.65 2045.7C2246.59 2068.01 2196.15 2104.12 2144.68 2120.11Z" fill="#5FD670"/>
<path d="M2000.76 2109.45C1999.72 2109.45 1998.72 2108.87 1998.23 2107.87C1997.55 2106.47 1998.13 2104.78 1999.52 2104.1C2000.83 2103.46 2131.82 2040.01 2225.67 2047.76C2227.22 2047.89 2228.38 2049.25 2228.25 2050.8C2228.12 2052.35 2226.73 2053.48 2225.21 2053.38C2132.83 2045.74 2003.29 2108.53 2002 2109.17C2001.6 2109.35 2001.17 2109.45 2000.76 2109.45Z" fill="black"/>
<path d="M1023.53 209C1124.38 209 1170.6 302.729 1126.78 418.318C1082.95 533.907 965.637 627.643 864.782 627.643C763.928 627.643 717.72 533.914 761.557 418.318C805.394 302.721 922.688 209 1023.53 209Z" fill="#E7AE26"/>
<path d="M1016.1 228.598C1107.51 228.598 1149.41 313.541 1109.68 418.354C1069.95 523.167 963.629 608.11 872.218 608.11C780.807 608.11 738.917 523.113 778.653 418.315C818.389 313.518 924.696 228.598 1016.1 228.598Z" fill="#F2B930"/>
<path d="M1103.92 236.748L1152.13 279.111C1193.24 315.242 1204.43 383.021 1174.99 460.675C1131.13 576.279 1013.83 670 912.974 670C879.886 670 852.675 659.911 832.598 642.231L784.406 599.867C804.483 617.516 831.695 627.637 864.783 627.637C965.637 627.637 1082.94 533.916 1126.78 418.311C1156.22 340.658 1145.02 272.878 1103.92 236.748Z" fill="#BA8927"/>
<path d="M780.715 440.284C819.942 336.828 924.928 252.95 1015.18 252.95C1084.43 252.95 1124.83 302.317 1122.23 372.041C1135.45 289.636 1093.56 228.567 1016.08 228.567C924.68 228.567 818.359 313.51 778.638 418.323C764.345 456.043 760.677 491.171 766.044 520.722C765.156 496.346 769.812 469.117 780.715 440.284Z" fill="#D19D2A"/>
<g clip-path="url(#clip0_114_618)">
<path d="M910.24 405.339L968.27 365.459L992.719 401.032L1026.48 377.828L987.814 321.563L896.022 384.647L910.241 405.336M838.414 424.243L872.183 401.032L886.398 421.728L852.637 444.924L838.414 424.243ZM896.439 436.337L920.883 471.892L978.933 431.995L993.174 452.671L901.336 515.795L862.678 459.54L862.66 459.508L896.44 436.333M1002.74 415.63L1036.5 392.427L1050.74 413.115L1016.98 436.318L1002.74 415.63Z" fill="white"/>
<path d="M968.901 417.404L954.498 396.392L929.174 413.791L926.256 415.797L920.262 419.916L920.215 419.948L920.235 419.977L934.657 440.955L968.914 417.411L968.893 417.412" fill="white"/>
</g>
<path d="M703.973 514.214C704.874 513.989 705.756 513.726 706.638 513.463C707.383 513.244 708.127 513.031 708.859 512.794C709.735 512.499 710.586 512.168 711.437 511.848C712.138 511.579 712.851 511.329 713.539 511.041C714.39 510.684 715.21 510.284 716.042 509.896C716.699 509.583 717.368 509.27 718.007 508.957C718.839 508.525 719.64 508.049 720.447 507.586C721.072 507.236 721.667 506.91 722.255 506.541C723.081 506.021 723.869 505.452 724.67 504.895C725.195 504.525 725.746 504.181 726.259 503.793C727.129 503.167 727.955 502.429 728.762 501.728C729.168 501.377 729.6 501.058 730.013 500.701C731.221 499.612 732.391 498.473 733.511 497.271L765.839 464.054C764.719 465.262 763.549 466.401 762.341 467.491C761.934 467.847 761.503 468.173 761.09 468.523C760.264 469.224 759.444 469.925 758.587 470.576C758.068 470.964 757.524 471.315 756.992 471.684C756.197 472.241 755.403 472.811 754.577 473.33C753.989 473.7 753.369 474.025 752.768 474.376C751.961 474.839 751.167 475.314 750.335 475.746C749.709 476.078 749.021 476.372 748.364 476.685C747.538 477.073 746.712 477.468 745.861 477.824C745.173 478.118 744.46 478.369 743.753 478.638C742.902 478.963 742.051 479.264 741.175 479.577C740.449 479.821 739.698 480.034 738.954 480.253C738.072 480.516 737.196 480.772 736.295 481.004C735.525 481.198 734.743 481.367 733.961 481.536C733.054 481.736 732.147 481.936 731.221 482.105C729.969 482.337 728.637 482.556 727.316 482.731L726.947 482.788C725.414 482.982 723.856 483.126 722.28 483.245L721.028 483.326C719.702 483.401 718.363 483.457 717.012 483.482C716.705 483.482 716.386 483.482 716.098 483.482C714.49 483.482 712.857 483.482 711.212 483.407L710.004 483.345C708.649 483.274 707.283 483.18 705.906 483.063L704.699 482.963C703.009 482.794 701.314 482.6 699.599 482.337L698.53 482.168C697.111 481.964 695.681 481.728 694.237 481.461L692.755 481.185C691.04 480.854 689.326 480.497 687.593 480.09L687.399 480.052C685.603 479.633 683.801 479.157 681.987 478.663L680.473 478.237C679.017 477.82 677.557 477.382 676.093 476.923L674.842 476.541C673.023 475.953 671.194 475.327 669.355 474.663L668.103 474.2C666.66 473.67 665.213 473.113 663.761 472.529L661.884 471.772C660.433 471.175 658.973 470.549 657.505 469.894C657.035 469.688 656.566 469.493 656.103 469.268C654.201 468.434 652.295 467.543 650.385 466.596L649.089 465.97C647.594 465.225 646.099 464.467 644.603 463.679L642.726 462.671C641.356 461.939 639.992 461.181 638.622 460.412C638.034 460.074 637.44 459.748 636.845 459.404C634.968 458.327 633.122 457.226 631.258 456.08L631.102 455.986C629.195 454.81 627.289 453.593 625.383 452.337C624.807 451.962 624.225 451.568 623.65 451.179C622.286 450.272 620.928 449.339 619.571 448.394C618.945 447.956 618.319 447.518 617.694 447.074C616.234 446.043 614.784 444.987 613.345 443.906C612.888 443.568 612.432 443.243 611.981 442.899C610.108 441.484 608.244 440.036 606.388 438.555C605.956 438.211 605.524 437.854 605.093 437.503C603.645 436.331 602.208 435.144 600.782 433.942C600.156 433.435 599.574 432.916 598.967 432.396C597.66 431.269 596.352 430.118 595.044 428.954C594.488 428.453 593.924 427.958 593.368 427.451C591.547 425.799 589.745 424.128 587.949 422.407C586.006 420.541 584.099 418.664 582.231 416.774C581.605 416.148 581.011 415.484 580.391 414.846C579.14 413.594 577.932 412.305 576.744 411.021C576.03 410.245 575.348 409.469 574.648 408.693C573.59 407.523 572.52 406.358 571.519 405.182C570.787 404.343 570.087 403.492 569.367 402.647C568.41 401.52 567.44 400.4 566.508 399.267C565.788 398.391 565.094 397.502 564.393 396.619C563.498 395.511 562.604 394.404 561.74 393.283C561.04 392.382 560.37 391.474 559.688 390.567C558.856 389.459 558.018 388.357 557.217 387.25C556.541 386.323 555.897 385.372 555.246 384.464C554.47 383.369 553.688 382.274 552.937 381.172C552.311 380.227 551.686 379.294 551.06 378.343C550.303 377.191 549.54 376.046 548.814 374.9C548.507 374.425 548.188 373.949 547.919 373.473C546.985 371.984 546.078 370.494 545.198 369.004C544.941 368.573 544.678 368.147 544.428 367.715C543.356 365.879 542.313 364.045 541.3 362.213C541.087 361.832 540.887 361.443 540.674 361.062C539.861 359.547 539.066 358.032 538.303 356.518C538.046 356.023 537.796 355.529 537.552 355.028C536.63 353.188 535.746 351.346 534.899 349.501C534.837 349.376 534.787 349.251 534.73 349.126C533.942 347.392 533.191 345.671 532.465 343.949L531.84 342.441C531.189 340.855 530.563 339.274 529.963 337.697C529.856 337.421 529.75 337.152 529.65 336.877C528.974 335.068 528.342 333.259 527.742 331.456C527.591 330.999 527.441 330.543 527.297 330.086C526.822 328.627 526.378 327.169 525.952 325.704C525.833 325.285 525.702 324.866 525.583 324.452C525.083 322.681 524.613 320.91 524.188 319.157C524.1 318.801 524.025 318.45 523.944 318.093C523.606 316.641 523.287 315.189 522.999 313.75C522.905 313.286 522.811 312.817 522.724 312.347C522.392 310.614 522.098 308.886 521.842 307.178C521.81 306.983 521.791 306.802 521.766 306.608C521.541 305.031 521.351 303.462 521.197 301.901C521.135 301.332 521.097 300.768 521.047 300.205C520.947 299.022 520.859 297.839 520.797 296.675C520.797 296.049 520.74 295.423 520.715 294.797C520.678 293.654 520.659 292.515 520.659 291.38C520.659 290.816 520.659 290.253 520.659 289.696C520.659 288.294 520.74 286.911 520.828 285.534C520.828 285.277 520.828 285.02 520.866 284.764C520.978 283.149 521.139 281.553 521.347 279.976C521.404 279.525 521.479 279.081 521.547 278.624C521.71 277.501 521.894 276.389 522.098 275.288C522.204 274.743 522.317 274.205 522.436 273.667C522.649 272.659 522.886 271.657 523.143 270.662C523.274 270.143 523.412 269.617 523.556 269.104C523.862 268.021 524.182 266.957 524.557 265.905C524.682 265.524 524.801 265.135 524.932 264.76C525.439 263.352 525.983 261.962 526.584 260.61C526.709 260.329 526.853 260.053 526.978 259.778C527.466 258.707 527.979 257.656 528.53 256.648C528.761 256.204 529.012 255.772 529.262 255.334C529.744 254.476 530.25 253.625 530.776 252.793C531.058 252.348 531.345 251.904 531.639 251.466C532.203 250.627 532.803 249.807 533.41 248.993C533.692 248.624 533.961 248.249 534.249 247.886C535.162 246.734 536.126 245.607 537.12 244.524L504.792 277.741C503.785 278.818 502.84 279.944 501.927 281.096C501.633 281.459 501.364 281.835 501.088 282.21C500.463 283.018 499.881 283.838 499.311 284.714C499.017 285.146 498.736 285.59 498.454 286.034C497.922 286.867 497.422 287.718 496.934 288.576C496.69 289.014 496.44 289.446 496.202 289.89C495.651 290.923 495.144 291.974 494.65 293.02C494.525 293.301 494.381 293.57 494.256 293.852C493.664 295.212 493.115 296.596 492.61 298.002C492.473 298.377 492.36 298.765 492.229 299.147C491.872 300.199 491.534 301.263 491.228 302.346C491.084 302.865 490.952 303.385 490.815 303.904C490.558 304.899 490.321 305.901 490.108 306.915C489.995 307.453 489.876 307.991 489.776 308.536C489.563 309.637 489.382 310.751 489.219 311.878C489.157 312.322 489.075 312.767 489.019 313.217C488.819 314.795 488.658 316.391 488.537 318.006C488.537 318.262 488.537 318.525 488.5 318.776C488.418 320.153 488.356 321.542 488.337 322.944C488.337 323.495 488.337 324.058 488.337 324.621C488.337 325.754 488.337 326.894 488.4 328.045C488.4 328.671 488.444 329.266 488.481 329.885C488.537 331.056 488.625 332.232 488.725 333.415C488.775 333.985 488.819 334.548 488.875 335.112C489.034 336.672 489.226 338.243 489.451 339.825C489.451 340.012 489.495 340.2 489.52 340.388C489.52 340.388 489.52 340.444 489.52 340.476C489.77 342.153 490.064 343.856 490.389 345.558C490.477 346.027 490.577 346.497 490.671 346.966C490.959 348.406 491.272 349.852 491.609 351.304C491.697 351.661 491.772 352.011 491.86 352.368C492.277 354.129 492.742 355.894 493.255 357.663C493.374 358.082 493.499 358.508 493.624 358.915C494.043 360.361 494.494 361.807 494.963 363.296C495.113 363.759 495.257 364.216 495.413 364.679C496.039 366.476 496.665 368.285 497.29 370.094C497.391 370.369 497.503 370.651 497.61 370.926C498.01 371.99 498.417 373.054 498.861 374.124C499.061 374.631 499.286 375.145 499.487 375.652C499.687 376.159 499.906 376.665 500.112 377.166C500.834 378.89 501.587 380.615 502.371 382.342L502.54 382.718C503.374 384.558 504.258 386.4 505.193 388.245C505.437 388.745 505.693 389.24 505.943 389.741C506.713 391.249 507.501 392.764 508.315 394.272L508.94 395.436C509.941 397.268 510.984 399.1 512.069 400.932C512.325 401.364 512.588 401.796 512.844 402.234C513.729 403.719 514.632 405.203 515.554 406.684L516.511 408.167C516.705 408.468 516.886 408.793 517.074 409.069C517.618 409.914 518.2 410.752 518.751 411.572C519.376 412.524 520.002 413.45 520.628 414.42C521.372 415.509 522.148 416.604 522.918 417.694C523.581 418.626 524.225 419.571 524.901 420.498C525.708 421.599 526.54 422.695 527.366 423.796C528.048 424.704 528.724 425.624 529.425 426.531C530.288 427.639 531.176 428.741 532.065 429.849C532.772 430.737 533.473 431.626 534.198 432.509C535.124 433.635 536.075 434.75 537.033 435.87C537.758 436.721 538.472 437.579 539.21 438.43C540.23 439.594 541.287 440.746 542.338 441.904C543.052 442.692 543.74 443.481 544.466 444.263C545.648 445.515 546.874 446.804 548.094 448.069C548.72 448.695 549.346 449.371 549.971 450.015C551.836 451.918 553.742 453.796 555.69 455.648C557.479 457.37 559.288 459.041 561.102 460.693C561.659 461.2 562.222 461.695 562.785 462.195C564.086 463.36 565.394 464.511 566.708 465.638L568.522 467.19C569.957 468.396 571.394 469.583 572.833 470.752L574.122 471.797C575.982 473.282 577.847 474.73 579.716 476.141C580.172 476.485 580.629 476.81 581.08 477.148C582.527 478.225 583.976 479.281 585.428 480.315C586.054 480.766 586.679 481.204 587.305 481.642C588.656 482.587 590.014 483.52 591.372 484.415C591.954 484.809 592.536 485.204 593.117 485.586C594.994 486.837 596.921 488.058 598.83 489.228L598.992 489.322C600.869 490.468 602.746 491.569 604.58 492.646C605.174 492.99 605.762 493.322 606.356 493.653C607.72 494.423 609.084 495.181 610.448 495.913L612.325 496.927C613.814 497.711 615.303 498.471 616.793 499.205C617.231 499.418 617.669 499.65 618.106 499.862C620.017 500.789 621.919 501.678 623.813 502.529L625.233 503.155C626.684 503.781 628.13 504.406 629.575 505.001C630.201 505.264 630.826 505.514 631.452 505.765C632.078 506.015 632.578 506.228 633.141 506.441C634.023 506.785 634.906 507.104 635.794 507.43L637.045 507.893C638.885 508.556 640.712 509.182 642.539 509.77L643.79 510.152C645.267 510.615 646.731 511.06 648.17 511.473L649.671 511.892C651.479 512.387 653.288 512.862 655.083 513.282L655.296 513.326C657.023 513.726 658.731 514.083 660.439 514.415L661.928 514.69C663.367 514.953 664.796 515.191 666.214 515.404L667.284 515.566L667.703 515.629C669.273 515.842 670.831 516.017 672.383 516.167L673.591 516.267C674.967 516.384 676.333 516.478 677.689 516.549L678.896 516.612C680.548 516.674 682.175 516.706 683.789 516.687C684.095 516.687 684.415 516.687 684.696 516.687C686.056 516.662 687.397 516.61 688.719 516.53L689.97 516.449C691.547 516.336 693.105 516.184 694.644 515.992L695.007 515.942C696.046 515.804 697.078 515.654 698.098 515.479C698.373 515.429 698.642 515.36 698.917 515.31C699.843 515.141 700.751 514.94 701.658 514.746C702.427 514.571 703.21 514.408 703.973 514.214Z" fill="#BA8927"/>
<path d="M765.026 464.938C800.91 428.075 779.173 348.677 716.474 287.596C653.775 226.516 573.858 206.883 537.974 243.746C502.09 280.609 523.827 360.008 586.526 421.089C649.225 482.169 729.142 501.801 765.026 464.938Z" fill="#F2B92F"/>
<path d="M751.632 451.893C783.283 419.378 764.11 349.347 708.808 295.472C653.507 241.598 583.018 224.282 551.367 256.796C519.716 289.31 538.889 359.342 594.191 413.216C649.493 467.091 719.982 484.407 751.632 451.893Z" fill="url(#paint1_linear_114_618)"/>
<path d="M548.74 274.266C579.792 240.956 650.28 257.429 706.183 311.076C742.966 346.383 764.263 388.982 765.677 423.488C772.36 386.961 750.611 335.567 707.491 294.214C651.819 240.762 581.582 224.338 550.636 257.536C540.838 268.045 536.171 282.278 536.115 298.501C538.342 289.244 542.484 280.976 548.74 274.266Z" fill="#D19D2A"/>
<path d="M690.227 336.445L686.254 355.961L711.287 371.077L715.466 351.423L690.227 336.445Z" fill="white"/>
<path d="M676.912 401.876L636.425 376.433L632.94 394.928L673.108 420.578L697.452 436.132L708.383 384.726L683.494 369.517L676.912 401.876Z" fill="white"/>
<path d="M638.898 363.33L662.623 378.07L666.371 359.055L642.464 344.447L638.898 363.33Z" fill="white"/>
<path d="M597.517 351.974L594.326 370.263L616.85 384.646L620.209 366.238L597.517 351.974Z" fill="white"/>
<path d="M628.468 321.073L669.23 345.683L673.066 326.268L608.672 288.069L605.35 307.115L599.781 339.018L622.593 353.194L628.468 321.073Z" fill="white"/>
<defs>
<filter id="filter0_d_114_618" x="1454.14" y="962.752" width="176.955" height="102.509" filterUnits="userSpaceOnUse" color-interpolation-filters="sRGB">
<feFlood flood-opacity="0" result="BackgroundImageFix"/>
<feColorMatrix in="SourceAlpha" type="matrix" values="0 0 0 0 0 0 0 0 0 0 0 0 0 0 0 0 0 0 127 0" result="hardAlpha"/>
<feOffset dy="2"/>
<feComposite in2="hardAlpha" operator="out"/>
<feColorMatrix type="matrix" values="0 0 0 0 0 0 0 0 0 0 0 0 0 0 0 0 0 0 0.25 0"/>
<feBlend mode="normal" in2="BackgroundImageFix" result="effect1_dropShadow_114_618"/>
<feBlend mode="normal" in="SourceGraphic" in2="effect1_dropShadow_114_618" result="shape"/>
</filter>
<filter id="filter1_d_114_618" x="1519.72" y="1058.15" width="100.221" height="69.344" filterUnits="userSpaceOnUse" color-interpolation-filters="sRGB">
<feFlood flood-opacity="0" result="BackgroundImageFix"/>
<feColorMatrix in="SourceAlpha" type="matrix" values="0 0 0 0 0 0 0 0 0 0 0 0 0 0 0 0 0 0 127 0" result="hardAlpha"/>
<feOffset dy="2"/>
<feGaussianBlur stdDeviation="0.5"/>
<feComposite in2="hardAlpha" operator="out"/>
<feColorMatrix type="matrix" values="0 0 0 0 0 0 0 0 0 0 0 0 0 0 0 0 0 0 0.25 0"/>
<feBlend mode="normal" in2="BackgroundImageFix" result="effect1_dropShadow_114_618"/>
<feBlend mode="normal" in="SourceGraphic" in2="effect1_dropShadow_114_618" result="shape"/>
</filter>
<filter id="filter2_d_114_618" x="1455.52" y="1110.13" width="43.3516" height="44.5349" filterUnits="userSpaceOnUse" color-interpolation-filters="sRGB">
<feFlood flood-opacity="0" result="BackgroundImageFix"/>
<feColorMatrix in="SourceAlpha" type="matrix" values="0 0 0 0 0 0 0 0 0 0 0 0 0 0 0 0 0 0 127 0" result="hardAlpha"/>
<feOffset dy="2"/>
<feComposite in2="hardAlpha" operator="out"/>
<feColorMatrix type="matrix" values="0 0 0 0 0 0 0 0 0 0 0 0 0 0 0 0 0 0 0.25 0"/>
<feBlend mode="normal" in2="BackgroundImageFix" result="effect1_dropShadow_114_618"/>
<feBlend mode="normal" in="SourceGraphic" in2="effect1_dropShadow_114_618" result="shape"/>
</filter>
<filter id="filter3_d_114_618" x="1456.02" y="1148.83" width="178.955" height="103.509" filterUnits="userSpaceOnUse" color-interpolation-filters="sRGB">
<feFlood flood-opacity="0" result="BackgroundImageFix"/>
<feColorMatrix in="SourceAlpha" type="matrix" values="0 0 0 0 0 0 0 0 0 0 0 0 0 0 0 0 0 0 127 0" result="hardAlpha"/>
<feOffset dy="2"/>
<feGaussianBlur stdDeviation="0.5"/>
<feComposite in2="hardAlpha" operator="out"/>
<feColorMatrix type="matrix" values="0 0 0 0 0 0 0 0 0 0 0 0 0 0 0 0 0 0 0.25 0"/>
<feBlend mode="normal" in2="BackgroundImageFix" result="effect1_dropShadow_114_618"/>
<feBlend mode="normal" in="SourceGraphic" in2="effect1_dropShadow_114_618" result="shape"/>
</filter>
<linearGradient id="paint0_linear_114_618" x1="1540.24" y1="865.24" x2="1540.24" y2="1353.28" gradientUnits="userSpaceOnUse">
<stop stop-color="#256FF1"/>
<stop offset="1" stop-color="#4B8BFD"/>
</linearGradient>
<linearGradient id="paint1_linear_114_618" x1="649.542" y1="467.264" x2="653.486" y2="241.375" gradientUnits="userSpaceOnUse">
<stop stop-color="white" stop-opacity="0.3"/>
<stop offset="0.42" stop-color="#FAE3AB" stop-opacity="0.18"/>
<stop offset="0.96" stop-color="#F2B92F" stop-opacity="0"/>
</linearGradient>
<clipPath id="clip0_114_618">
<rect width="212.601" height="212.601" fill="white" transform="matrix(0.99863 -0.052336 -0.406737 0.913545 881.653 327.127)"/>
</clipPath>
</defs>
</svg>
