<svg width="2229" height="2082" viewBox="0 0 2229 2082" fill="none" xmlns="http://www.w3.org/2000/svg">
<g clip-path="url(#clip0_111_17)">
<g opacity="0.2">
<path opacity="0.037" d="M1789.73 1883.07C1955.27 1879.74 2088.2 1814.14 2086.64 1736.56C2085.08 1658.98 1949.61 1598.79 1784.07 1602.13C1618.53 1605.46 1485.6 1671.06 1487.16 1748.64C1488.72 1826.22 1624.19 1886.41 1789.73 1883.07Z" fill="#141414"/>
<path opacity="0.074" d="M1789.68 1880.57C1952.29 1877.3 2082.87 1812.87 2081.34 1736.67C2079.8 1660.47 1946.73 1601.35 1784.12 1604.63C1621.5 1607.9 1490.92 1672.33 1492.46 1748.53C1493.99 1824.73 1627.06 1883.85 1789.68 1880.57Z" fill="#141414"/>
<path opacity="0.111" d="M1789.63 1878.07C1949.37 1874.85 2077.65 1811.59 2076.14 1736.77C2074.63 1661.95 1943.91 1603.91 1784.17 1607.13C1624.43 1610.35 1496.15 1673.61 1497.66 1748.43C1499.17 1823.25 1629.88 1881.29 1789.63 1878.07Z" fill="#141414"/>
<path opacity="0.148" d="M1789.58 1875.67C1946.4 1872.51 2072.32 1810.37 2070.84 1736.88C2069.36 1663.39 1941.04 1606.37 1784.22 1609.53C1627.4 1612.69 1501.48 1674.83 1502.96 1748.32C1504.44 1821.81 1632.76 1878.83 1789.58 1875.67Z" fill="#141414"/>
<path opacity="0.185" d="M1789.53 1873.17C1943.48 1870.07 2067.1 1809.1 2065.64 1736.99C2064.19 1664.87 1938.21 1608.93 1784.27 1612.03C1630.32 1615.13 1506.7 1676.1 1508.16 1748.22C1509.61 1820.33 1635.58 1876.27 1789.53 1873.17Z" fill="#141414"/>
<path opacity="0.222" d="M1789.48 1870.67C1940.5 1867.63 2061.77 1807.83 2060.34 1737.09C2058.92 1666.36 1935.34 1611.48 1784.32 1614.53C1633.3 1617.57 1512.03 1677.38 1513.45 1748.11C1514.88 1818.84 1638.46 1873.72 1789.48 1870.67Z" fill="#141414"/>
<path opacity="0.259" d="M1789.43 1868.27C1937.52 1865.29 2056.44 1806.61 2055.05 1737.2C2053.65 1667.79 1932.46 1613.94 1784.37 1616.93C1636.27 1619.91 1517.36 1678.59 1518.75 1748C1520.15 1817.41 1641.34 1871.26 1789.43 1868.27Z" fill="#141414"/>
<path opacity="0.296" d="M1789.38 1865.78C1934.6 1862.85 2051.22 1805.33 2049.85 1737.3C2048.48 1669.28 1929.64 1616.5 1784.42 1619.43C1639.2 1622.35 1522.58 1679.87 1523.95 1747.9C1525.32 1815.92 1644.16 1868.7 1789.38 1865.78Z" fill="#141414"/>
<path opacity="0.333" d="M1789.33 1863.38C1931.63 1860.51 2045.89 1804.11 2044.55 1737.41C2043.2 1670.71 1926.76 1618.96 1784.47 1621.82C1642.17 1624.69 1527.91 1681.09 1529.25 1747.79C1530.6 1814.49 1647.04 1866.24 1789.33 1863.38Z" fill="#141414"/>
<path opacity="0.37" d="M1789.28 1860.88C1928.71 1858.07 2040.66 1802.84 2039.35 1737.51C2038.03 1672.19 1923.94 1621.52 1784.52 1624.32C1645.09 1627.13 1533.13 1682.36 1534.45 1747.69C1535.77 1813.01 1649.86 1863.68 1789.28 1860.88Z" fill="#141414"/>
<path opacity="0.407" d="M1789.23 1858.38C1925.73 1855.63 2035.34 1801.56 2034.05 1737.62C2032.76 1673.68 1921.06 1624.07 1784.57 1626.82C1648.07 1629.57 1538.46 1683.64 1539.75 1747.58C1541.04 1811.52 1652.73 1861.13 1789.23 1858.38Z" fill="#141414"/>
<path opacity="0.444" d="M1789.18 1855.98C1922.81 1853.29 2030.11 1800.34 2028.85 1737.73C2027.59 1675.11 1918.24 1626.53 1784.62 1629.22C1650.99 1631.91 1543.69 1684.86 1544.95 1747.47C1546.21 1810.09 1655.56 1858.67 1789.18 1855.98Z" fill="#141414"/>
<path opacity="0.481" d="M1789.13 1853.48C1919.83 1850.84 2024.79 1799.07 2023.55 1737.83C2022.32 1676.6 1915.37 1629.09 1784.67 1631.72C1653.97 1634.36 1549.01 1686.13 1550.25 1747.37C1551.48 1808.6 1658.43 1856.11 1789.13 1853.48Z" fill="#141414"/>
<path opacity="0.518" d="M1789.08 1850.98C1916.91 1848.4 2019.56 1797.79 2018.35 1737.94C2017.15 1678.08 1912.54 1631.65 1784.72 1634.22C1656.89 1636.8 1554.24 1687.41 1555.45 1747.26C1556.65 1807.12 1661.25 1853.55 1789.08 1850.98Z" fill="#141414"/>
<path opacity="0.556" d="M1789.03 1848.58C1913.94 1846.06 2014.23 1796.57 2013.05 1738.04C2011.87 1679.51 1909.67 1634.11 1784.76 1636.62C1659.86 1639.14 1559.57 1688.63 1560.75 1747.16C1561.92 1805.69 1664.13 1851.09 1789.03 1848.58Z" fill="#141414"/>
<path opacity="0.593" d="M1788.98 1846.08C1910.96 1843.62 2008.91 1795.3 2007.75 1738.15C2006.6 1681 1906.79 1636.66 1784.81 1639.12C1662.84 1641.58 1564.89 1689.9 1566.04 1747.05C1567.2 1804.2 1667.01 1848.54 1788.98 1846.08Z" fill="#141414"/>
<path opacity="0.63" d="M1788.94 1843.68C1908.04 1841.28 2003.68 1794.08 2002.56 1738.26C2001.43 1682.43 1903.97 1639.12 1784.86 1641.52C1665.76 1643.92 1570.12 1691.12 1571.24 1746.94C1572.37 1802.77 1669.83 1846.08 1788.94 1843.68Z" fill="#141414"/>
<path opacity="0.667" d="M1788.88 1841.18C1905.06 1838.84 1998.35 1792.81 1997.26 1738.36C1996.16 1683.92 1901.09 1641.68 1784.91 1644.02C1668.74 1646.36 1575.45 1692.39 1576.54 1746.84C1577.64 1801.28 1672.71 1843.52 1788.88 1841.18Z" fill="#141414"/>
<path opacity="0.704" d="M1788.83 1838.68C1902.14 1836.4 1993.13 1791.53 1992.06 1738.47C1990.99 1685.4 1898.27 1644.24 1784.96 1646.52C1671.66 1648.8 1580.67 1693.67 1581.74 1746.73C1582.81 1799.8 1675.53 1840.96 1788.83 1838.68Z" fill="#141414"/>
<path opacity="0.741" d="M1788.79 1836.28C1899.17 1834.06 1987.8 1790.31 1986.76 1738.57C1985.72 1686.84 1895.39 1646.7 1785.01 1648.92C1674.63 1651.14 1586 1694.89 1587.04 1746.63C1588.08 1798.36 1678.41 1838.5 1788.79 1836.28Z" fill="#141414"/>
<path opacity="0.778" d="M1788.74 1833.78C1896.24 1831.62 1982.57 1789.04 1981.56 1738.68C1980.55 1688.32 1892.57 1649.25 1785.06 1651.42C1677.55 1653.58 1591.22 1696.16 1592.24 1746.52C1593.25 1796.88 1681.23 1835.95 1788.74 1833.78Z" fill="#141414"/>
<path opacity="0.815" d="M1788.69 1831.28C1893.27 1829.18 1977.25 1787.76 1976.26 1738.79C1975.27 1689.81 1889.69 1651.81 1785.11 1653.92C1680.53 1656.02 1596.55 1697.44 1597.54 1746.41C1598.52 1795.39 1684.1 1833.39 1788.69 1831.28Z" fill="#141414"/>
<path opacity="0.852" d="M1788.64 1828.88C1890.35 1826.83 1972.02 1786.54 1971.06 1738.89C1970.1 1691.24 1886.87 1654.27 1785.16 1656.32C1683.45 1658.37 1601.78 1698.66 1602.74 1746.31C1603.7 1793.96 1686.93 1830.93 1788.64 1828.88Z" fill="#141414"/>
<path opacity="0.889" d="M1788.59 1826.38C1887.37 1824.39 1966.7 1785.27 1965.76 1739C1964.83 1692.73 1884 1656.83 1785.21 1658.82C1686.43 1660.81 1607.1 1699.93 1608.04 1746.2C1608.97 1792.48 1689.8 1828.37 1788.59 1826.38Z" fill="#141414"/>
<path opacity="0.926" d="M1788.54 1823.98C1884.4 1822.05 1961.37 1784.05 1960.46 1739.1C1959.56 1694.16 1881.12 1659.29 1785.26 1661.22C1689.4 1663.15 1612.43 1701.15 1613.33 1746.1C1614.24 1791.04 1692.68 1825.91 1788.54 1823.98Z" fill="#141414"/>
<path opacity="0.963" d="M1788.49 1821.48C1881.47 1819.61 1956.14 1782.78 1955.27 1739.21C1954.39 1695.64 1878.3 1661.84 1785.31 1663.72C1692.32 1665.59 1617.66 1702.43 1618.53 1745.99C1619.41 1789.56 1695.5 1823.36 1788.49 1821.48Z" fill="#141414"/>
<path d="M1788.44 1818.98C1878.5 1817.17 1950.82 1781.5 1949.97 1739.32C1949.12 1697.13 1875.42 1664.4 1785.36 1666.22C1695.3 1668.03 1622.98 1703.7 1623.83 1745.88C1624.68 1788.07 1698.38 1820.8 1788.44 1818.98Z" fill="#141414"/>
</g>
<g opacity="0.2">
<path opacity="0.037" d="M1135.53 2085.87C1301.07 2082.54 1434 2016.94 1432.44 1939.36C1430.88 1861.78 1295.41 1801.59 1129.87 1804.93C964.328 1808.26 831.397 1873.86 832.96 1951.44C834.523 2029.02 969.987 2089.21 1135.53 2085.87Z" fill="#141414"/>
<path opacity="0.074" d="M1135.48 2083.37C1298.09 2080.1 1428.67 2015.67 1427.14 1939.47C1425.6 1863.27 1292.53 1804.15 1129.92 1807.43C967.305 1810.7 836.724 1875.13 838.259 1951.33C839.794 2027.53 972.863 2086.65 1135.48 2083.37Z" fill="#141414"/>
<path opacity="0.111" d="M1135.43 2080.87C1295.17 2077.66 1423.45 2014.39 1421.94 1939.57C1420.43 1864.75 1289.71 1806.71 1129.97 1809.93C970.226 1813.15 841.951 1876.41 843.458 1951.23C844.965 2026.05 975.684 2084.09 1135.43 2080.87Z" fill="#141414"/>
<path opacity="0.148" d="M1135.38 2078.47C1292.2 2075.31 1418.12 2013.17 1416.64 1939.68C1415.16 1866.19 1286.84 1809.17 1130.02 1812.33C973.201 1815.49 847.276 1877.63 848.757 1951.12C850.237 2024.61 978.562 2081.63 1135.38 2078.47Z" fill="#141414"/>
<path opacity="0.185" d="M1135.33 2075.97C1289.27 2072.87 1412.89 2011.9 1411.44 1939.79C1409.99 1867.67 1284.01 1811.73 1130.07 1814.83C976.123 1817.93 852.503 1878.9 853.955 1951.02C855.408 2023.13 981.383 2079.08 1135.33 2075.97Z" fill="#141414"/>
<path opacity="0.222" d="M1135.28 2073.47C1286.3 2070.43 1407.57 2010.63 1406.14 1939.89C1404.72 1869.16 1281.14 1814.28 1130.12 1817.33C979.1 1820.37 857.83 1880.18 859.254 1950.91C860.679 2021.64 984.26 2076.52 1135.28 2073.47Z" fill="#141414"/>
<path opacity="0.259" d="M1135.23 2071.08C1283.32 2068.09 1402.24 2009.41 1400.84 1940C1399.45 1870.59 1278.26 1816.74 1130.17 1819.73C982.075 1822.71 863.155 1881.39 864.554 1950.8C865.952 2020.21 987.138 2074.06 1135.23 2071.08Z" fill="#141414"/>
<path opacity="0.296" d="M1135.18 2068.58C1280.4 2065.65 1397.02 2008.13 1395.65 1940.1C1394.28 1872.08 1275.44 1819.3 1130.22 1822.23C984.996 1825.15 868.382 1882.67 869.752 1950.7C871.123 2018.72 989.959 2071.5 1135.18 2068.58Z" fill="#141414"/>
<path opacity="0.333" d="M1135.13 2066.18C1277.43 2063.31 1391.69 2006.91 1390.35 1940.21C1389 1873.51 1272.56 1821.76 1130.27 1824.62C987.971 1827.49 873.708 1883.89 875.051 1950.59C876.395 2017.29 992.837 2069.04 1135.13 2066.18Z" fill="#141414"/>
<path opacity="0.37" d="M1135.08 2063.68C1274.51 2060.87 1386.46 2005.64 1385.15 1940.32C1383.83 1874.99 1269.74 1824.32 1130.32 1827.12C990.893 1829.93 878.934 1885.16 880.25 1950.49C881.566 2015.81 995.658 2066.48 1135.08 2063.68Z" fill="#141414"/>
<path opacity="0.407" d="M1135.03 2061.18C1271.53 2058.43 1381.14 2004.36 1379.85 1940.42C1378.56 1876.48 1266.86 1826.87 1130.37 1829.62C993.87 1832.37 884.261 1886.44 885.549 1950.38C886.837 2014.32 998.534 2063.93 1135.03 2061.18Z" fill="#141414"/>
<path opacity="0.444" d="M1134.98 2058.78C1268.61 2056.09 1375.91 2003.14 1374.65 1940.53C1373.39 1877.91 1264.04 1829.33 1130.42 1832.02C996.789 1834.72 889.487 1887.66 890.748 1950.27C892.009 2012.89 1001.36 2061.47 1134.98 2058.78Z" fill="#141414"/>
<path opacity="0.481" d="M1134.93 2056.28C1265.63 2053.65 1370.58 2001.87 1369.35 1940.63C1368.12 1879.4 1261.16 1831.89 1130.47 1834.52C999.766 1837.16 894.813 1888.93 896.047 1950.17C897.28 2011.4 1004.23 2058.91 1134.93 2056.28Z" fill="#141414"/>
<path opacity="0.518" d="M1134.88 2053.78C1262.71 2051.2 1365.36 2000.59 1364.15 1940.74C1362.95 1880.88 1258.34 1834.45 1130.52 1837.02C1002.69 1839.6 900.04 1890.21 901.246 1950.06C902.452 2009.92 1007.05 2056.35 1134.88 2053.78Z" fill="#141414"/>
<path opacity="0.556" d="M1134.83 2051.38C1259.74 2048.86 1360.03 1999.38 1358.85 1940.84C1357.67 1882.31 1255.47 1836.91 1130.56 1839.42C1005.66 1841.94 905.366 1891.43 906.545 1949.96C907.724 2008.49 1009.93 2053.89 1134.83 2051.38Z" fill="#141414"/>
<path opacity="0.593" d="M1134.78 2048.88C1256.76 2046.42 1354.71 1998.1 1353.55 1940.95C1352.4 1883.8 1252.59 1839.46 1130.61 1841.92C1008.64 1844.38 910.693 1892.7 911.844 1949.85C912.995 2007 1012.81 2051.34 1134.78 2048.88Z" fill="#141414"/>
<path opacity="0.63" d="M1134.74 2046.48C1253.84 2044.08 1349.48 1996.88 1348.36 1941.06C1347.23 1885.23 1249.77 1841.92 1130.66 1844.32C1011.56 1846.72 915.918 1893.92 917.043 1949.74C918.167 2005.57 1015.63 2048.88 1134.74 2046.48Z" fill="#141414"/>
<path opacity="0.667" d="M1134.68 2043.98C1250.86 2041.64 1344.15 1995.61 1343.06 1941.16C1341.96 1886.72 1246.89 1844.48 1130.71 1846.82C1014.54 1849.16 921.245 1895.19 922.342 1949.64C923.438 2004.08 1018.51 2046.32 1134.68 2043.98Z" fill="#141414"/>
<path opacity="0.704" d="M1134.63 2041.48C1247.94 2039.2 1338.93 1994.33 1337.86 1941.27C1336.79 1888.2 1244.07 1847.04 1130.76 1849.32C1017.46 1851.6 926.472 1896.47 927.541 1949.53C928.61 2002.6 1021.33 2043.76 1134.63 2041.48Z" fill="#141414"/>
<path opacity="0.741" d="M1134.59 2039.08C1244.97 2036.86 1333.6 1993.11 1332.56 1941.37C1331.52 1889.64 1241.19 1849.5 1130.81 1851.72C1020.43 1853.94 931.798 1897.69 932.84 1949.43C933.882 2001.16 1024.21 2041.3 1134.59 2039.08Z" fill="#141414"/>
<path opacity="0.778" d="M1134.54 2036.58C1242.04 2034.42 1328.37 1991.84 1327.36 1941.48C1326.35 1891.12 1238.37 1852.05 1130.86 1854.22C1023.35 1856.38 937.024 1898.96 938.038 1949.32C939.053 1999.68 1027.03 2038.75 1134.54 2036.58Z" fill="#141414"/>
<path opacity="0.815" d="M1134.49 2034.08C1239.07 2031.98 1323.05 1990.56 1322.06 1941.59C1321.07 1892.61 1235.49 1854.61 1130.91 1856.72C1026.33 1858.83 942.351 1900.24 943.337 1949.21C944.324 1998.19 1029.9 2036.19 1134.49 2034.08Z" fill="#141414"/>
<path opacity="0.852" d="M1134.44 2031.68C1236.15 2029.63 1317.82 1989.34 1316.86 1941.69C1315.9 1894.04 1232.67 1857.07 1130.96 1859.12C1029.25 1861.17 947.576 1901.46 948.536 1949.11C949.496 1996.76 1032.73 2033.73 1134.44 2031.68Z" fill="#141414"/>
<path opacity="0.889" d="M1134.39 2029.18C1233.17 2027.19 1312.49 1988.07 1311.56 1941.8C1310.63 1895.53 1229.79 1859.63 1131.01 1861.62C1032.23 1863.61 952.903 1902.73 953.835 1949C954.767 1995.28 1035.6 2031.17 1134.39 2029.18Z" fill="#141414"/>
<path opacity="0.926" d="M1134.34 2026.78C1230.2 2024.85 1307.17 1986.85 1306.26 1941.9C1305.36 1896.96 1226.92 1862.09 1131.06 1864.02C1035.2 1865.95 958.229 1903.95 959.134 1948.9C960.04 1993.84 1038.48 2028.71 1134.34 2026.78Z" fill="#141414"/>
<path opacity="0.963" d="M1134.29 2024.28C1227.27 2022.41 1301.94 1985.58 1301.06 1942.01C1300.19 1898.44 1224.1 1864.64 1131.11 1866.52C1038.12 1868.39 963.456 1905.23 964.333 1948.79C965.211 1992.36 1041.3 2026.16 1134.29 2024.28Z" fill="#141414"/>
<path d="M1134.24 2021.79C1224.3 2019.97 1296.62 1984.3 1295.77 1942.12C1294.92 1899.93 1221.22 1867.2 1131.16 1869.02C1041.1 1870.83 968.782 1906.5 969.632 1948.69C970.482 1990.87 1044.18 2023.6 1134.24 2021.79Z" fill="#141414"/>
</g>
<g opacity="0.2">
<path opacity="0.037" d="M278.63 1635.17C444.171 1631.84 577.102 1566.24 575.539 1488.66C573.977 1411.08 438.512 1350.89 272.971 1354.23C107.429 1357.56 -25.5017 1423.16 -23.9389 1500.74C-22.3762 1578.32 113.089 1638.51 278.63 1635.17Z" fill="#141414"/>
<path opacity="0.074" d="M278.58 1632.67C441.195 1629.4 571.776 1564.97 570.241 1488.77C568.706 1412.57 435.636 1353.45 273.021 1356.73C110.406 1360 -20.1749 1424.43 -18.6399 1500.63C-17.1049 1576.83 115.965 1635.95 278.58 1632.67Z" fill="#141414"/>
<path opacity="0.111" d="M278.529 1630.17C438.273 1626.95 566.549 1563.69 565.042 1488.87C563.534 1414.05 432.815 1356.01 273.071 1359.23C113.328 1362.44 -14.9481 1425.71 -13.441 1500.53C-11.9338 1575.35 118.786 1633.39 278.529 1630.17Z" fill="#141414"/>
<path opacity="0.148" d="M278.481 1627.77C435.298 1624.61 561.223 1562.47 559.743 1488.98C558.262 1415.49 429.937 1358.47 273.12 1361.63C116.303 1364.79 -9.62249 1426.92 -8.14203 1500.42C-6.66158 1573.91 121.664 1630.93 278.481 1627.77Z" fill="#141414"/>
<path opacity="0.185" d="M278.431 1625.27C432.376 1622.17 555.996 1561.2 554.544 1489.08C553.091 1416.97 427.116 1361.02 273.17 1364.13C119.224 1367.23 -4.39576 1428.2 -2.94312 1500.31C-1.49047 1572.43 124.485 1628.37 278.431 1625.27Z" fill="#141414"/>
<path opacity="0.222" d="M278.38 1622.77C429.399 1619.73 550.67 1559.92 549.245 1489.19C547.82 1418.46 424.24 1363.58 273.22 1366.63C122.201 1369.67 0.930939 1429.47 2.35578 1500.21C3.78062 1570.94 127.361 1625.82 278.38 1622.77Z" fill="#141414"/>
<path opacity="0.259" d="M278.332 1620.37C426.425 1617.39 545.344 1558.71 543.946 1489.3C542.548 1419.89 421.361 1366.04 273.269 1369.02C125.176 1372.01 6.25659 1430.69 7.65473 1500.1C9.05288 1569.51 130.239 1623.36 278.332 1620.37Z" fill="#141414"/>
<path opacity="0.296" d="M278.282 1617.87C423.503 1614.95 540.117 1557.43 538.747 1489.4C537.377 1421.37 418.541 1368.6 273.319 1371.52C128.098 1374.45 11.4833 1431.97 12.8537 1500C14.224 1568.02 133.06 1620.8 278.282 1617.87Z" fill="#141414"/>
<path opacity="0.333" d="M278.233 1615.47C420.528 1612.61 534.792 1556.21 533.448 1489.51C532.104 1422.81 415.662 1371.06 273.367 1373.92C131.073 1376.79 16.809 1433.19 18.1526 1499.89C19.4962 1566.59 135.938 1618.34 278.233 1615.47Z" fill="#141414"/>
<path opacity="0.37" d="M278.183 1612.98C417.606 1610.17 529.565 1554.94 528.249 1489.61C526.933 1424.29 412.841 1373.61 273.418 1376.42C133.994 1379.23 22.0357 1434.46 23.3515 1499.78C24.6674 1565.11 138.759 1615.78 278.183 1612.98Z" fill="#141414"/>
<path opacity="0.407" d="M278.132 1610.48C414.63 1607.73 524.238 1553.66 522.95 1489.72C521.662 1425.78 409.965 1376.17 273.468 1378.92C136.971 1381.67 27.3624 1435.74 28.6504 1499.68C29.9384 1563.62 141.635 1613.23 278.132 1610.48Z" fill="#141414"/>
<path opacity="0.444" d="M278.084 1608.08C411.71 1605.38 519.013 1552.44 517.751 1489.83C516.49 1427.21 407.142 1378.63 273.516 1381.32C139.891 1384.01 32.5881 1436.96 33.8494 1499.57C35.1107 1562.19 144.458 1610.77 278.084 1608.08Z" fill="#141414"/>
<path opacity="0.481" d="M278.034 1605.58C408.733 1602.94 513.686 1551.17 512.452 1489.93C511.219 1428.7 404.266 1381.19 273.567 1383.82C142.867 1386.45 37.9148 1438.23 39.1483 1499.47C40.3818 1560.7 147.334 1608.21 278.034 1605.58Z" fill="#141414"/>
<path opacity="0.518" d="M277.983 1603.08C405.811 1600.5 508.459 1549.89 507.253 1490.04C506.048 1430.18 401.445 1383.75 273.617 1386.32C145.789 1388.9 43.1415 1439.51 44.3472 1499.36C45.5529 1559.22 150.155 1605.65 277.983 1603.08Z" fill="#141414"/>
<path opacity="0.556" d="M277.935 1600.68C402.837 1598.16 503.133 1548.67 501.954 1490.14C500.775 1431.61 398.567 1386.2 273.665 1388.72C148.764 1391.24 48.4671 1440.72 49.6462 1499.25C50.8252 1557.79 153.034 1603.19 277.935 1600.68Z" fill="#141414"/>
<path opacity="0.593" d="M277.885 1598.18C399.86 1595.72 497.807 1547.4 496.655 1490.25C495.504 1433.1 395.691 1388.76 273.716 1391.22C151.741 1393.68 53.7938 1442 54.9451 1499.15C56.0963 1556.3 155.91 1600.64 277.885 1598.18Z" fill="#141414"/>
<path opacity="0.63" d="M277.836 1595.78C396.94 1593.38 492.581 1546.18 491.457 1490.36C490.332 1434.53 392.868 1391.22 273.764 1393.62C154.66 1396.02 59.0195 1443.22 60.144 1499.04C61.2686 1554.87 158.733 1598.18 277.836 1595.78Z" fill="#141414"/>
<path opacity="0.667" d="M277.786 1593.28C393.963 1590.94 487.254 1544.91 486.158 1490.46C485.061 1436.02 389.992 1393.78 273.815 1396.12C157.637 1398.46 64.3463 1444.49 65.4431 1498.94C66.5398 1553.38 161.609 1595.62 277.786 1593.28Z" fill="#141414"/>
<path opacity="0.704" d="M277.736 1590.78C391.042 1588.5 482.028 1543.63 480.959 1490.57C479.89 1437.5 387.171 1396.34 273.865 1398.62C160.559 1400.9 69.5729 1445.77 70.6418 1498.83C71.7108 1551.9 164.43 1593.06 277.736 1590.78Z" fill="#141414"/>
<path opacity="0.741" d="M277.687 1588.38C388.067 1586.16 476.702 1542.41 475.66 1490.67C474.617 1438.93 384.292 1398.79 273.913 1401.02C163.534 1403.24 74.8986 1446.99 75.9408 1498.73C76.983 1550.46 167.308 1590.6 277.687 1588.38Z" fill="#141414"/>
<path opacity="0.778" d="M277.637 1585.88C385.145 1583.72 471.475 1541.14 470.461 1490.78C469.446 1440.42 381.472 1401.35 273.963 1403.52C166.455 1405.68 80.1253 1448.26 81.1397 1498.62C82.1541 1548.98 170.129 1588.05 277.637 1585.88Z" fill="#141414"/>
<path opacity="0.815" d="M277.587 1583.38C382.168 1581.27 466.148 1539.86 465.162 1490.88C464.175 1441.91 378.595 1403.91 274.014 1406.02C169.432 1408.12 85.4521 1449.54 86.4387 1498.51C87.4253 1547.49 173.005 1585.49 277.587 1583.38Z" fill="#141414"/>
<path opacity="0.852" d="M277.538 1580.98C379.249 1578.93 460.923 1538.64 459.963 1490.99C459.003 1443.34 375.773 1406.37 274.062 1408.42C172.352 1410.47 90.6778 1450.76 91.6377 1498.41C92.5976 1546.06 175.828 1583.03 277.538 1580.98Z" fill="#141414"/>
<path opacity="0.889" d="M277.488 1578.48C376.272 1576.49 455.596 1537.37 454.664 1491.1C453.732 1444.82 372.896 1408.93 274.113 1410.92C175.329 1412.91 96.0046 1452.03 96.9367 1498.3C97.8688 1544.57 178.704 1580.47 277.488 1578.48Z" fill="#141414"/>
<path opacity="0.926" d="M277.44 1576.08C373.297 1574.15 450.271 1536.15 449.365 1491.2C448.46 1446.26 370.018 1411.38 274.161 1413.32C178.304 1415.25 101.33 1453.25 102.236 1498.2C103.141 1543.14 181.583 1578.01 277.44 1576.08Z" fill="#141414"/>
<path opacity="0.963" d="M277.389 1573.58C370.375 1571.71 445.044 1534.87 444.166 1491.31C443.289 1447.74 367.197 1413.94 274.211 1415.82C181.225 1417.69 106.557 1454.52 107.434 1498.09C108.312 1541.66 184.403 1575.46 277.389 1573.58Z" fill="#141414"/>
<path d="M277.339 1571.08C367.398 1569.27 439.717 1533.6 438.867 1491.41C438.018 1449.23 364.321 1416.5 274.262 1418.31C184.202 1420.13 111.884 1455.8 112.733 1497.98C113.583 1540.17 187.28 1572.9 277.339 1571.08Z" fill="#141414"/>
</g>
<g opacity="0.2">
<path opacity="0.037" d="M1238.43 1489.87C1403.97 1486.54 1536.9 1420.94 1535.34 1343.36C1533.78 1265.78 1398.31 1205.59 1232.77 1208.93C1067.23 1212.26 934.299 1277.86 935.862 1355.44C937.424 1433.02 1072.89 1493.21 1238.43 1489.87Z" fill="#141414"/>
<path opacity="0.074" d="M1238.38 1487.37C1401 1484.1 1531.58 1419.67 1530.04 1343.47C1528.51 1267.27 1395.44 1208.15 1232.82 1211.43C1070.21 1214.7 939.626 1279.13 941.161 1355.33C942.696 1431.53 1075.77 1490.65 1238.38 1487.37Z" fill="#141414"/>
<path opacity="0.111" d="M1238.33 1484.87C1398.07 1481.66 1526.35 1418.39 1524.84 1343.57C1523.34 1268.76 1392.62 1210.71 1232.87 1213.93C1073.13 1217.15 944.852 1280.41 946.36 1355.23C947.867 1430.05 1078.59 1488.09 1238.33 1484.87Z" fill="#141414"/>
<path opacity="0.148" d="M1238.28 1482.47C1395.1 1479.31 1521.02 1417.18 1519.54 1343.68C1518.06 1270.19 1389.74 1213.17 1232.92 1216.33C1076.1 1219.49 950.178 1281.63 951.658 1355.12C953.139 1428.61 1081.46 1485.63 1238.28 1482.47Z" fill="#141414"/>
<path opacity="0.185" d="M1238.23 1479.97C1392.18 1476.87 1515.8 1415.9 1514.34 1343.79C1512.89 1271.67 1386.92 1215.73 1232.97 1218.83C1079.02 1221.93 955.405 1282.9 956.857 1355.02C958.31 1427.13 1084.29 1483.08 1238.23 1479.97Z" fill="#141414"/>
<path opacity="0.222" d="M1238.18 1477.47C1389.2 1474.43 1510.47 1414.63 1509.05 1343.89C1507.62 1273.16 1384.04 1218.28 1233.02 1221.33C1082 1224.37 960.731 1284.18 962.156 1354.91C963.581 1425.64 1087.16 1480.52 1238.18 1477.47Z" fill="#141414"/>
<path opacity="0.259" d="M1238.13 1475.08C1386.22 1472.09 1505.14 1413.41 1503.75 1344C1502.35 1274.59 1381.16 1220.74 1233.07 1223.73C1084.98 1226.71 966.057 1285.39 967.455 1354.8C968.853 1424.21 1090.04 1478.06 1238.13 1475.08Z" fill="#141414"/>
<path opacity="0.296" d="M1238.08 1472.58C1383.3 1469.65 1499.92 1412.13 1498.55 1344.1C1497.18 1276.08 1378.34 1223.3 1233.12 1226.23C1087.9 1229.15 971.284 1286.67 972.654 1354.7C974.024 1422.73 1092.86 1475.5 1238.08 1472.58Z" fill="#141414"/>
<path opacity="0.333" d="M1238.03 1470.18C1380.33 1467.31 1494.59 1410.91 1493.25 1344.21C1491.9 1277.51 1375.46 1225.76 1233.17 1228.63C1090.87 1231.49 976.609 1287.89 977.953 1354.59C979.297 1421.29 1095.74 1473.04 1238.03 1470.18Z" fill="#141414"/>
<path opacity="0.37" d="M1237.98 1467.68C1377.41 1464.87 1489.37 1409.64 1488.05 1344.32C1486.73 1278.99 1372.64 1228.32 1233.22 1231.12C1093.79 1233.93 981.836 1289.16 983.152 1354.49C984.468 1419.81 1098.56 1470.49 1237.98 1467.68Z" fill="#141414"/>
<path opacity="0.407" d="M1237.93 1465.18C1374.43 1462.43 1484.04 1408.36 1482.75 1344.42C1481.46 1280.48 1369.77 1230.87 1233.27 1233.62C1096.77 1236.37 987.163 1290.44 988.451 1354.38C989.739 1418.32 1101.44 1467.93 1237.93 1465.18Z" fill="#141414"/>
<path opacity="0.444" d="M1237.88 1462.78C1371.51 1460.09 1478.81 1407.14 1477.55 1344.53C1476.29 1281.91 1366.94 1233.33 1233.32 1236.02C1099.69 1238.72 992.388 1291.66 993.65 1354.27C994.911 1416.89 1104.26 1465.47 1237.88 1462.78Z" fill="#141414"/>
<path opacity="0.481" d="M1237.83 1460.28C1368.53 1457.65 1473.49 1405.87 1472.25 1344.63C1471.02 1283.4 1364.07 1235.89 1233.37 1238.52C1102.67 1241.16 997.715 1292.93 998.949 1354.17C1000.18 1415.4 1107.13 1462.91 1237.83 1460.28Z" fill="#141414"/>
<path opacity="0.518" d="M1237.78 1457.78C1365.61 1455.2 1468.26 1404.59 1467.05 1344.74C1465.85 1284.88 1361.25 1238.45 1233.42 1241.02C1105.59 1243.6 1002.94 1294.21 1004.15 1354.06C1005.35 1413.92 1109.96 1460.35 1237.78 1457.78Z" fill="#141414"/>
<path opacity="0.556" d="M1237.74 1455.38C1362.64 1452.86 1462.93 1403.38 1461.75 1344.85C1460.58 1286.32 1358.37 1240.91 1233.47 1243.42C1108.56 1245.94 1008.27 1295.43 1009.45 1353.96C1010.63 1412.49 1112.83 1457.9 1237.74 1455.38Z" fill="#141414"/>
<path opacity="0.593" d="M1237.69 1452.88C1359.66 1450.42 1457.61 1402.1 1456.46 1344.95C1455.3 1287.8 1355.49 1243.46 1233.52 1245.92C1111.54 1248.38 1013.59 1296.7 1014.75 1353.85C1015.9 1411 1115.71 1455.34 1237.69 1452.88Z" fill="#141414"/>
<path opacity="0.63" d="M1237.64 1450.48C1356.74 1448.08 1452.38 1400.88 1451.26 1345.06C1450.13 1289.23 1352.67 1245.92 1233.56 1248.32C1114.46 1250.72 1018.82 1297.92 1019.94 1353.75C1021.07 1409.57 1118.53 1452.88 1237.64 1450.48Z" fill="#141414"/>
<path opacity="0.667" d="M1237.59 1447.98C1353.76 1445.64 1447.05 1399.61 1445.96 1345.16C1444.86 1290.72 1349.79 1248.48 1233.61 1250.82C1117.44 1253.16 1024.15 1299.19 1025.24 1353.64C1026.34 1408.08 1121.41 1450.32 1237.59 1447.98Z" fill="#141414"/>
<path opacity="0.704" d="M1237.54 1445.48C1350.84 1443.2 1441.83 1398.33 1440.76 1345.27C1439.69 1292.2 1346.97 1251.04 1233.67 1253.32C1120.36 1255.6 1029.37 1300.47 1030.44 1353.53C1031.51 1406.6 1124.23 1447.76 1237.54 1445.48Z" fill="#141414"/>
<path opacity="0.741" d="M1237.49 1443.08C1347.87 1440.86 1436.5 1397.11 1435.46 1345.38C1434.42 1293.64 1344.09 1253.5 1233.71 1255.72C1123.33 1257.94 1034.7 1301.69 1035.74 1353.43C1036.78 1405.17 1127.11 1445.31 1237.49 1443.08Z" fill="#141414"/>
<path opacity="0.778" d="M1237.44 1440.58C1344.95 1438.42 1431.28 1395.84 1430.26 1345.48C1429.25 1295.12 1341.27 1256.05 1233.76 1258.22C1126.26 1260.39 1039.93 1302.96 1040.94 1353.32C1041.95 1403.68 1129.93 1442.75 1237.44 1440.58Z" fill="#141414"/>
<path opacity="0.815" d="M1237.39 1438.08C1341.97 1435.98 1425.95 1394.56 1424.96 1345.59C1423.98 1296.61 1338.4 1258.61 1233.81 1260.72C1129.23 1262.83 1045.25 1304.24 1046.24 1353.22C1047.23 1402.19 1132.81 1440.19 1237.39 1438.08Z" fill="#141414"/>
<path opacity="0.852" d="M1237.34 1435.68C1339.05 1433.63 1420.72 1393.34 1419.76 1345.69C1418.8 1298.04 1335.57 1261.07 1233.86 1263.12C1132.15 1265.17 1050.48 1305.46 1051.44 1353.11C1052.4 1400.76 1135.63 1437.73 1237.34 1435.68Z" fill="#141414"/>
<path opacity="0.889" d="M1237.29 1433.18C1336.07 1431.19 1415.4 1392.07 1414.46 1345.8C1413.53 1299.53 1332.7 1263.63 1233.91 1265.62C1135.13 1267.61 1055.8 1306.73 1056.74 1353C1057.67 1399.28 1138.5 1435.17 1237.29 1433.18Z" fill="#141414"/>
<path opacity="0.926" d="M1237.24 1430.78C1333.1 1428.85 1410.07 1390.85 1409.17 1345.9C1408.26 1300.96 1329.82 1266.09 1233.96 1268.02C1138.1 1269.95 1061.13 1307.95 1062.04 1352.9C1062.94 1397.84 1141.38 1432.72 1237.24 1430.78Z" fill="#141414"/>
<path opacity="0.963" d="M1237.19 1428.28C1330.18 1426.41 1404.84 1389.58 1403.97 1346.01C1403.09 1302.44 1327 1268.64 1234.01 1270.52C1141.03 1272.39 1066.36 1309.23 1067.24 1352.79C1068.11 1396.36 1144.2 1430.16 1237.19 1428.28Z" fill="#141414"/>
<path d="M1237.14 1425.79C1327.2 1423.97 1399.52 1388.3 1398.67 1346.12C1397.82 1303.93 1324.12 1271.2 1234.06 1273.02C1144 1274.83 1071.68 1310.5 1072.53 1352.69C1073.38 1394.87 1147.08 1427.6 1237.14 1425.79Z" fill="#141414"/>
</g>
<path d="M733.7 187.4L706.1 202C702.6 196.5 697.9 191.8 692 188.5L517.7 90.9C515 89.4 512.1 88.4 509.2 87.8C503.1 86.9 497 88.3 492 91.5C503.3 71.6 530.9 67.6 544.6 75.4L718.9 173C725.2 176.5 730.2 181.4 733.7 187.4Z" fill="url(#paint0_linear_111_17)"/>
<path d="M712.3 223.3V399.3C712.2 403 711.1 406.2 709.2 409V409.1C704.1 416.5 693.8 419.8 685.2 414.7L510.7 317.1C492.1 306.3 480.6 286.4 480.6 264.9V112.3C480.6 103.2 485.3 95.7 492 91.5C492.1 91.4 492.1 91.4 492.1 91.4C497.1 88.2 503.2 86.8 509.3 87.7C512.2 88.2 515 89.2 517.8 90.8L692.1 188.4C704.6 195.6 712.3 208.9 712.3 223.3Z" fill="url(#paint1_linear_111_17)"/>
<path d="M739.3 207.8V383.5C739.3 397.3 728.1 403.4 709.3 409.1V409C711.1 406.3 712.3 403 712.4 399.3V223.3C712.4 215.6 710.2 208.2 706.2 201.9L733.8 187.3C737.3 193.5 739.3 200.5 739.3 207.8Z" fill="url(#paint2_linear_111_17)"/>
<path d="M556.2 190.1C570.9 190.1 580.7 201.5 580.7 221.8C580.7 244.2 568.9 255.3 555.2 255.3C542 255.3 530.5 244.5 530.3 223.2C530.3 201.9 541.9 190 556 190H556.2V190.1ZM555.3 198.8C546.5 198.8 541.7 209.4 541.7 222.8C541.4 236.2 546.4 246.7 555.4 246.7C564.9 246.7 569.1 236.6 569.1 222.5C569.1 209.6 565.3 198.8 555.4 198.8H555.3ZM554.2 300.2L616.7 190H625.9L563.3 300.2H554.2ZM625.5 234.1C640.2 234.1 649.9 245.5 649.9 265.8C649.9 288.2 638.1 299.3 624.6 299.3C611.4 299.3 599.9 288.7 599.7 267.4C599.7 246 611.3 234 625.4 234H625.5V234.1ZM624.7 242.8C615.9 242.8 611 253.4 611 266.8C610.8 280.4 616.1 290.7 624.9 290.7C634.4 290.7 638.6 280.6 638.6 266.5C638.6 253.6 634.8 242.8 624.9 242.8H624.7Z" fill="white"/>
<path d="M413.1 1641.2L1080 2029.8C1106.6 2045.3 1139.6 2045.2 1166.1 2029.5L1532.4 1812.4C1558.7 1796.8 1568.1 1740.9 1541.7 1725.6L883.3 1365.4C846.3 1343.9 800.6 1344 763.8 1365.8L406.4 1553.6C381 1568.8 387.4 1626.2 413.1 1641.2Z" fill="url(#paint3_linear_111_17)"/>
<path d="M413.1 1616.4L1080 2005C1106.6 2020.5 1139.6 2020.4 1166.1 2004.7L1532.4 1787.6C1558.7 1772 1558.5 1733.9 1532.1 1718.6L883.3 1340.6C846.3 1319.1 800.6 1319.2 763.8 1341L412.9 1549C387.2 1564.2 387.4 1601.4 413.1 1616.4Z" fill="url(#paint4_linear_111_17)"/>
<path opacity="0.67" d="M1395.7 1856.8L639.5 1419.8L714.5 1375.3L1470.7 1812.4L1395.7 1856.8Z" fill="#29174C"/>
<path d="M645.1 1609.9L561.9 1561.8C556.8 1558.8 556.7 1551.5 561.8 1548.5L618 1515.2C622.6 1512.5 628.2 1512.5 632.8 1515.1L716.2 1563.3C721.8 1566.5 721.8 1574.5 716.3 1577.8L662.2 1609.8C656.9 1612.9 650.4 1613 645.1 1609.9Z" fill="#E0A353"/>
<path d="M1261.4 1854.1L1055.1 1734.9" stroke="white" stroke-width="15.768" stroke-miterlimit="10" stroke-linecap="round" stroke-linejoin="round"/>
<path d="M1055.1 1494.7L848.9 1375.5" stroke="white" stroke-width="15.768" stroke-miterlimit="10" stroke-linecap="round" stroke-linejoin="round"/>
<path d="M575.7 1639.4L466 1576" stroke="white" stroke-width="15.768" stroke-miterlimit="10" stroke-linecap="round" stroke-linejoin="round"/>
<path d="M1221 1885.9L940.2 1719" stroke="white" stroke-width="15.768" stroke-miterlimit="10" stroke-linecap="round" stroke-linejoin="round"/>
<path d="M1180.6 1917.7L899.8 1750.8" stroke="white" stroke-width="15.768" stroke-miterlimit="10" stroke-linecap="round" stroke-linejoin="round"/>
<path d="M204.5 1490.5C204.5 1490.5 204.3 1490.4 204.1 1490.3C201.2 1488.4 198.2 1486.7 195.2 1485C192.5 1483.2 189.7 1481.3 187 1479.5C186.4 1479.1 185.8 1478.6 185 1478.1C184.6 1477.9 184 1477.3 183.4 1476.9C181.8 1475.7 180.1 1474.8 178.7 1473.7C175.9 1471.6 173.2 1469.5 170.6 1467.5C169.7 1466.7 168.7 1465.9 167.5 1464.9C167 1464.3 166.2 1463.6 165.7 1463.1C164.8 1462.3 163.6 1461.3 162.6 1460.5C159.8 1458.1 157 1455.4 154.5 1452.9C153.8 1452.2 153.4 1451.4 152.6 1450.7C151.9 1450 151 1449 150.3 1448.3C149 1447 147.9 1445.5 146.6 1444.3C144.2 1441.5 142.1 1438.7 140.1 1435.8C139.8 1435.3 139.5 1434.9 139 1434.3C139 1434.3 138.8 1434.2 138.7 1433.8C135.5 1429.5 132.5 1424.7 130.1 1420C129.9 1419.9 130 1419.7 129.8 1419.5C129.6 1418.8 129.2 1418 128.9 1417.6C126.8 1413.3 125.1 1409.3 123.6 1405C123 1403.5 122.4 1402.1 122 1400.4C120.9 1396.9 120 1393.4 119.2 1389.8C118.9 1388.2 118.6 1386.9 118.3 1385.4C117.7 1380.5 117 1375.7 116.9 1370.8L116 1304.4L116.2 1304.5C116.1 1308.1 116.7 1311.6 117.2 1315.2C117.6 1316.5 117.8 1318.1 118.1 1319.6C118.9 1323.2 120.1 1326.6 121.1 1330.3C121.5 1331.6 121.9 1333.3 122.5 1334.8C124.1 1339.1 125.7 1343.1 127.9 1347.2C128.3 1348 128.5 1348.7 128.8 1349.1C131.5 1354.3 134.7 1359.2 138.1 1364.2C138.4 1364.7 138.7 1365.1 139 1365.6C142.3 1369.7 145.6 1373.8 149.4 1378.2C150.1 1378.9 150.9 1379.6 151.5 1380.5C155.6 1384.8 160 1388.9 164.5 1392.9C165.2 1393.6 165.9 1394 166.6 1394.7C171.3 1398.8 176.6 1402.9 182.1 1406.8C182.7 1407.2 183.4 1407.5 183.9 1408.1C187.2 1410.2 190.7 1412.5 194.2 1414.8C197.1 1416.7 200.3 1418.5 203.5 1420.3C210.3 1424.1 217.5 1427.9 225.2 1431.4C225.6 1431.6 226.3 1432 227 1432.1C234.3 1435.6 242.1 1438.9 249.8 1441.6C250 1441.7 250.2 1441.8 250.2 1441.8C258.1 1444.8 266 1447.3 274.2 1449.7C274.8 1450.1 275.6 1450.2 276.4 1450.4C284.4 1452.7 292.4 1454.9 300.7 1456.7C301.2 1456.7 301.7 1457 302.2 1457C310.7 1459 319.4 1460.5 328.1 1462C328.6 1462 329.2 1462.1 329.7 1462.1C338.2 1463.5 346.8 1464.7 355.6 1465.7C356.1 1465.7 356.7 1465.8 357 1465.7C366 1466.8 374.9 1467.3 383.7 1467.8C384.6 1467.7 385.3 1467.9 386.2 1467.8C393.7 1468.1 401.1 1468.3 408.5 1468.2C410.7 1468.3 412.7 1468.3 414.8 1468.1C419.3 1468.1 423.7 1467.8 428.2 1467.8C433.4 1467.6 438.9 1467.3 444.2 1466.9C452.7 1466.3 461.3 1465.5 469.7 1464.6C478.9 1463.3 488.1 1462 497.2 1460.3C497.5 1460.2 497.5 1460.2 497.5 1460.2C506.4 1458.4 515.3 1456.7 523.7 1454.7C524.4 1454.5 525 1454.3 525.7 1454.1C533.9 1452 541.8 1449.9 549.4 1447.5C550.4 1447.2 551.4 1446.9 552.2 1446.5C559.8 1444 567.4 1441.5 574.7 1438.6C575.5 1438.2 576.5 1437.9 577.2 1437.7C584.8 1434.7 592 1431.4 599 1428C599.7 1427.8 600.1 1427.5 600.5 1427.4C608.1 1423.8 615.5 1419.8 622.6 1415.6C629.5 1411.3 636.1 1407.1 642.2 1402.7C642.4 1402.3 642.9 1402 643.2 1401.9C646.6 1399.3 650 1396.7 653.1 1394.3C655.6 1392.3 657.8 1390.5 660.1 1388.4C660.2 1388.2 660.7 1387.9 661.1 1387.6C665.9 1383 670.4 1378.5 674.6 1374.1C675 1373.5 675.4 1373.2 675.8 1372.5C679.8 1368 683.5 1363.3 686.7 1358.6C686.9 1358.2 687.5 1357.6 687.9 1357C691 1352.5 693.5 1348 695.9 1343.2L697.5 1340.4C699.7 1335.5 701.8 1330.7 703.5 1325.7C703.8 1324.7 703.7 1323.8 704.2 1323C705.5 1318.7 706.5 1314.4 707.2 1310.1C708 1304.1 708.5 1298.2 708.4 1292.5L709.5 1362.7C709.5 1368.6 709 1374.5 708 1380.4C708.1 1380.7 708.2 1381.1 708.1 1381.3C707.5 1385.4 706.4 1389.4 705 1393.3C704.9 1394.1 704.8 1395.2 704.4 1395.8C704.3 1396 704.5 1396.1 704.5 1396.1C703.2 1399.9 701.6 1403.8 700 1407.6L698.4 1410.4C698 1411.6 697.5 1412.4 696.9 1413.5C696.3 1414.6 695.8 1416 695.1 1417.3C693.5 1420.1 691.6 1423 690.1 1425.7C689.5 1426.2 689.3 1426.6 688.9 1427.3C688.7 1427.7 688.1 1428.3 687.7 1428.9C686.6 1430.3 685.7 1432 684.6 1433.4C682.6 1435.9 680.7 1438.3 678.5 1440.7C678.1 1441.3 677.4 1442.1 676.7 1442.8C676.2 1443.1 675.9 1443.8 675.4 1444.1C674.5 1445.3 673.6 1446.2 672.7 1447.4C670.6 1449.6 668.4 1451.5 666.3 1453.7C664.9 1455.2 663.3 1456.5 661.7 1457.9C661.6 1458.1 661.1 1458.4 660.9 1458.8C660.4 1459.1 660 1459.4 659.8 1459.8C658.8 1460.6 658.1 1461.4 656.8 1462.1C655.5 1463.4 654 1464.5 652.9 1465.5C650.4 1467.5 648 1469.2 645.6 1471C645 1471.5 644.6 1471.8 644.1 1472.1C643.6 1472.4 643.2 1472.7 642.7 1473C641.2 1474.1 639.6 1475.5 637.9 1476.5C635.2 1478.3 632.6 1480 629.8 1481.8C627.6 1483.1 625.5 1484.4 623.1 1485.7C622.5 1486.2 621.7 1486.6 620.9 1487C618 1488.7 615 1490.5 611.9 1492.1C609 1493.8 605.6 1495.3 602.3 1497.1C602 1497.2 601.5 1497.5 601.2 1497.6C600.7 1497.9 600.1 1498.1 599.7 1498.2C597.3 1499.4 594.6 1500.7 592.3 1501.9C588.7 1503.3 585.2 1505 581.6 1506.3C580.4 1507 579 1507.4 577.9 1507.9C576.9 1508.2 576.1 1508.6 575.3 1509C573.6 1509.5 572.1 1510.3 570.3 1511C566.5 1512.2 562.6 1513.7 558.7 1515.2C556.7 1515.8 554.9 1516.4 553 1516.8C552 1517.1 551.2 1517.5 550.2 1517.8C549.1 1518.3 547.7 1518.7 546.7 1519C542.6 1520.3 538.6 1521.5 534.7 1522.4C532 1523.1 529.1 1523.8 526.5 1524.5L524.5 1525.1C523.8 1525.3 523.2 1525.5 522.6 1525.4C518.6 1526.5 514.7 1527.4 510.6 1528.2C506.7 1529.1 502.6 1529.9 498.3 1530.6C498.2 1530.8 498 1530.7 498 1530.7C493.9 1531.5 489.8 1532.3 485.8 1532.9C480.6 1533.6 475.6 1534.5 470.5 1535C462.7 1535.9 455.1 1536.8 447.3 1537.2C446.6 1537.4 445.7 1537.5 444.9 1537.5C439.6 1537.9 434.2 1538 428.8 1538C425.3 1538.3 421.7 1538.5 418 1538.7C417.1 1538.8 416.4 1538.6 415.5 1538.7C413.5 1538.7 411.3 1538.6 409.3 1538.6C405 1538.7 401 1538.7 396.9 1538.7C393.6 1538.5 390.3 1538.4 386.9 1538.4C386.1 1538.3 385.3 1538.3 384.5 1538.2C384 1538.2 383.3 1538.4 382.5 1538.2C378.4 1537.9 374.4 1537.6 370.2 1537.5C366.5 1537.1 363 1536.8 359.3 1536.4C358.8 1536.4 358.2 1536.3 357.7 1536.3C357.2 1536.3 356.9 1536.2 356.4 1536.1C353.8 1535.8 351 1535.6 348.4 1535.3C344.7 1534.9 341.1 1534.3 337.4 1533.9C335.1 1533.5 332.7 1533.2 330.4 1532.8C329.9 1532.8 329.3 1532.7 328.9 1532.5C328.1 1532.4 327.4 1532.2 326.6 1532.1C322.9 1531.7 319.1 1531 315.5 1530.4C311.7 1529.7 308 1528.7 304.2 1528C303.8 1527.8 303.4 1527.9 302.9 1527.8C302.5 1527.6 301.9 1527.5 301.5 1527.3C298.5 1526.7 295.7 1526 293 1525.4C289.3 1524.4 285.6 1523.5 281.9 1522.6C280.2 1522.2 278.8 1521.7 277 1521.3C276.4 1520.9 275.6 1520.8 274.8 1520.6C273.6 1520.2 272.2 1519.7 271 1519.3C267.3 1518.4 263.7 1517.2 260.3 1515.8C257.2 1514.9 253.9 1513.6 250.9 1512.5C250.6 1512.6 250.6 1512.6 250.4 1512.5L250.2 1512.4C247 1511.1 243.5 1509.8 240.3 1508.5C237.1 1507.2 233.9 1505.8 230.7 1504.5C229.6 1503.9 228.4 1503.5 227.6 1503C227 1502.6 226.3 1502.3 225.6 1502.1C224.3 1501.4 222.9 1500.9 221.4 1500C218.5 1498.7 215.4 1497.2 212.4 1495.5C210.2 1493.4 207.3 1492 204.5 1490.5Z" fill="#2771F0"/>
<path d="M622.9 1415.4C507.5 1483.8 319.8 1485.9 203.7 1420.2C87.5001 1354.4 86.9 1245.7 202.3 1177.3C317.6 1109 505.3 1106.8 621.5 1172.6C737.6 1238.3 738.2 1347 622.9 1415.4Z" fill="#468DFF"/>
<path d="M189 1312.8C181.5 1275.1 202.9 1235.6 252.8 1205.9C332.6 1158.7 457 1153.2 545.4 1189.9C554.7 1193.4 563.3 1197.7 571.4 1202.3C628.6 1234.8 649 1281.1 631.9 1323.6C626.7 1295.3 604.9 1267.9 567.2 1246.4C559.9 1242.3 552.2 1238.5 544.2 1235.2C455.5 1197.1 328.8 1202.5 248.4 1249.9C217.9 1267.9 197.9 1289.9 189 1312.8Z" fill="#1B43AA"/>
<path d="M254 1390.4C216 1368.8 194.3 1341.4 189.1 1312.8C198 1289.8 218 1268 248.5 1249.9C336.1 1198 478.9 1196.4 567.1 1246.3C604.9 1267.8 626.6 1295.2 631.9 1323.6C623 1346.6 603.2 1368.5 572.4 1386.7C484.7 1438.8 342.1 1440.5 254 1390.4Z" fill="url(#paint5_linear_111_17)"/>
<path d="M355.5 1258.7L376.6 1270.6C391.4 1263 410.3 1257.1 424.3 1255.3L432.3 1266.4C418.2 1268.4 401.2 1273.1 387.1 1280.6C369.2 1290.1 365.7 1301.3 377.6 1308C389.1 1314.5 406 1313.2 430.9 1306.9C464.9 1298 490.4 1295 508.5 1305.2C525.8 1314.9 524.1 1330.2 504.1 1344.3L525.2 1356.2L509.6 1364.5L489.4 1353.1C473.9 1360.9 460.2 1364.5 449.4 1366.3L441.9 1355.2C449.7 1353.8 464.6 1350.9 480.7 1342.4C500.1 1332.1 497.8 1322.8 489.4 1318.2C478.5 1312.1 463.8 1314 434.4 1321.4C399.7 1330.2 375.7 1331.1 357.2 1320.6C340.7 1311.3 339.1 1295.3 361.5 1279.5L339.8 1267.3L355.5 1258.7Z" fill="white"/>
<path d="M338.7 1388.4C338.7 1388.4 338.5 1388.3 338.3 1388.2C335.4 1386.3 332.4 1384.6 329.4 1382.9C326.7 1381.1 323.9 1379.2 321.2 1377.4C320.6 1377 320 1376.5 319.2 1376C318.8 1375.8 318.2 1375.2 317.6 1374.8C316 1373.6 314.3 1372.7 312.9 1371.6C310.1 1369.5 307.4 1367.4 304.8 1365.4C303.9 1364.6 302.9 1363.8 301.7 1362.8C301.2 1362.2 300.4 1361.5 299.9 1361C299 1360.2 297.8 1359.2 296.8 1358.4C294 1356 291.2 1353.3 288.7 1350.8C288 1350.1 287.6 1349.3 286.8 1348.6C286.1 1347.9 285.2 1346.9 284.5 1346.2C283.2 1344.9 282.1 1343.4 280.8 1342.2C278.4 1339.4 276.3 1336.6 274.3 1333.7C274 1333.2 273.7 1332.8 273.2 1332.2C273.2 1332.2 273 1332.1 272.9 1331.7C269.7 1327.4 266.7 1322.6 264.3 1317.9C264.1 1317.8 264.2 1317.6 264 1317.4C263.8 1316.7 263.4 1315.9 263.1 1315.5C261 1311.2 259.3 1307.2 257.8 1302.9C257.2 1301.4 256.6 1300 256.2 1298.3C255.1 1294.8 254.2 1291.3 253.4 1287.7C253.1 1286.1 252.8 1284.8 252.5 1283.3C251.9 1278.4 251.2 1273.6 251.1 1268.7L250.2 1202.3L250.4 1202.4C250.3 1206 250.9 1209.5 251.4 1213.1C251.8 1214.4 252 1216 252.3 1217.5C253.1 1221.1 254.3 1224.5 255.3 1228.2C255.7 1229.5 256.1 1231.2 256.7 1232.7C258.3 1237 259.9 1241 262.1 1245.1C262.5 1245.9 262.7 1246.6 263 1247C265.7 1252.2 268.9 1257.1 272.3 1262.1C272.6 1262.6 272.9 1263 273.2 1263.5C276.5 1267.6 279.8 1271.7 283.6 1276.1C284.3 1276.8 285.1 1277.5 285.7 1278.4C289.8 1282.7 294.2 1286.8 298.7 1290.8C299.4 1291.5 300.1 1291.9 300.8 1292.6C305.5 1296.7 310.8 1300.8 316.3 1304.7C316.9 1305.1 317.6 1305.4 318.1 1306C321.4 1308.1 324.9 1310.4 328.4 1312.7C331.3 1314.6 334.5 1316.4 337.7 1318.2C344.5 1322 351.7 1325.8 359.4 1329.3C359.8 1329.5 360.5 1329.9 361.2 1330C368.5 1333.5 376.3 1336.8 384 1339.5C384.2 1339.6 384.4 1339.7 384.4 1339.7C392.3 1342.7 400.2 1345.2 408.4 1347.6C409 1348 409.8 1348.1 410.6 1348.3C418.6 1350.6 426.6 1352.8 434.9 1354.6C435.4 1354.6 435.9 1354.9 436.4 1354.9C444.9 1356.9 453.6 1358.4 462.3 1359.9C462.8 1359.9 463.4 1360 463.9 1360C472.4 1361.4 481 1362.6 489.8 1363.6C490.3 1363.6 490.9 1363.7 491.2 1363.6C500.2 1364.7 509.1 1365.2 517.9 1365.7C518.8 1365.6 519.5 1365.8 520.4 1365.7C527.9 1366 535.3 1366.2 542.7 1366.1C544.9 1366.2 546.9 1366.2 549 1366C553.5 1366 557.9 1365.7 562.4 1365.7C567.6 1365.5 573.1 1365.2 578.4 1364.8C586.9 1364.2 595.5 1363.4 603.9 1362.5C613.1 1361.2 622.3 1359.9 631.4 1358.2C631.7 1358.1 631.7 1358.1 631.7 1358.1C640.6 1356.3 649.5 1354.6 657.9 1352.6C658.6 1352.4 659.2 1352.2 659.9 1352C668.1 1349.9 676 1347.8 683.6 1345.4C684.6 1345.1 685.6 1344.8 686.4 1344.4C694 1341.9 701.6 1339.4 708.9 1336.5C709.7 1336.1 710.7 1335.8 711.4 1335.6C719 1332.6 726.2 1329.3 733.2 1325.9C733.9 1325.7 734.3 1325.4 734.7 1325.3C742.3 1321.7 749.7 1317.7 756.8 1313.5C763.7 1309.2 770.3 1305 776.4 1300.6C776.6 1300.2 777.1 1299.9 777.4 1299.8C780.8 1297.2 784.2 1294.6 787.3 1292.2C789.8 1290.2 792 1288.4 794.3 1286.3C794.4 1286.1 794.9 1285.8 795.3 1285.5C800.1 1280.9 804.6 1276.4 808.8 1272C809.2 1271.4 809.6 1271.1 810 1270.4C814 1265.9 817.7 1261.2 820.9 1256.5C821.1 1256.1 821.7 1255.5 822.1 1254.9C825.2 1250.4 827.7 1245.9 830.1 1241.1L831.7 1238.3C833.9 1233.4 836 1228.6 837.7 1223.6C838 1222.6 837.9 1221.7 838.4 1220.9C839.7 1216.6 840.7 1212.3 841.4 1208C842.2 1202 842.7 1196.1 842.6 1190.4L843.7 1260.6C843.7 1266.5 843.2 1272.4 842.2 1278.3C842.3 1278.6 842.4 1279 842.3 1279.2C841.7 1283.3 840.6 1287.3 839.2 1291.2C839.1 1292 839 1293.1 838.6 1293.7C838.5 1293.9 838.7 1294 838.7 1294C837.4 1297.8 835.8 1301.7 834.2 1305.5L832.6 1308.3C832.2 1309.5 831.7 1310.3 831.1 1311.4C830.5 1312.5 830 1313.9 829.3 1315.2C827.7 1318 825.8 1320.9 824.3 1323.6C823.7 1324.1 823.5 1324.5 823.1 1325.2C822.9 1325.6 822.3 1326.2 821.9 1326.8C820.8 1328.2 819.9 1329.9 818.8 1331.3C816.8 1333.8 814.9 1336.2 812.7 1338.6C812.3 1339.2 811.6 1340 810.9 1340.7C810.4 1341 810.1 1341.7 809.6 1342C808.7 1343.2 807.8 1344.1 806.9 1345.3C804.8 1347.5 802.6 1349.4 800.5 1351.6C799.1 1353.1 797.5 1354.4 795.9 1355.8C795.8 1356 795.3 1356.3 795.1 1356.7C794.6 1357 794.2 1357.3 794 1357.7C793 1358.5 792.3 1359.3 791 1360C789.7 1361.3 788.2 1362.4 787.1 1363.4C784.6 1365.4 782.2 1367.1 779.8 1368.9C779.2 1369.4 778.8 1369.7 778.3 1370C777.8 1370.3 777.4 1370.6 776.9 1370.9C775.4 1372 773.8 1373.4 772.1 1374.4C769.4 1376.2 766.8 1377.9 764 1379.7C761.8 1381 759.7 1382.3 757.3 1383.6C756.7 1384.1 755.9 1384.5 755.1 1384.9C752.2 1386.6 749.2 1388.4 746.1 1390C743.2 1391.7 739.8 1393.2 736.5 1395C736.2 1395.1 735.7 1395.4 735.4 1395.5C734.9 1395.8 734.3 1396 733.9 1396.1C731.5 1397.3 728.8 1398.6 726.5 1399.8C722.9 1401.2 719.4 1402.9 715.8 1404.2C714.6 1404.9 713.2 1405.3 712.1 1405.8C711.1 1406.1 710.3 1406.5 709.5 1406.9C707.8 1407.4 706.3 1408.2 704.5 1408.9C700.7 1410.1 696.8 1411.6 692.9 1413.1C690.9 1413.7 689.1 1414.3 687.2 1414.7C686.2 1415 685.4 1415.4 684.4 1415.7C683.3 1416.2 681.9 1416.6 680.9 1416.9C676.8 1418.2 672.8 1419.4 668.9 1420.3C666.2 1421 663.3 1421.7 660.7 1422.4L658.7 1423C658 1423.2 657.4 1423.4 656.8 1423.3C652.8 1424.4 648.9 1425.3 644.8 1426.1C640.9 1427 636.8 1427.8 632.5 1428.5C632.4 1428.7 632.2 1428.6 632.2 1428.6C628.1 1429.4 624 1430.2 620 1430.8C614.8 1431.5 609.8 1432.4 604.7 1432.9C596.9 1433.8 589.3 1434.7 581.5 1435.1C580.8 1435.3 579.9 1435.4 579.1 1435.4C573.8 1435.8 568.4 1435.9 563 1435.9C559.5 1436.2 555.9 1436.4 552.2 1436.6C551.3 1436.7 550.6 1436.5 549.7 1436.6C547.7 1436.6 545.5 1436.5 543.5 1436.5C539.2 1436.6 535.2 1436.6 531.1 1436.6C527.8 1436.4 524.5 1436.3 521.1 1436.3C520.3 1436.2 519.5 1436.2 518.7 1436.1C518.2 1436.1 517.5 1436.3 516.7 1436.1C512.6 1435.8 508.6 1435.5 504.4 1435.4C500.7 1435 497.2 1434.7 493.5 1434.3C493 1434.3 492.4 1434.2 491.9 1434.2C491.4 1434.2 491.1 1434.1 490.6 1434C488 1433.7 485.2 1433.5 482.6 1433.2C478.9 1432.8 475.3 1432.2 471.6 1431.8C469.3 1431.4 466.9 1431.1 464.6 1430.7C464.1 1430.7 463.5 1430.6 463.1 1430.4C462.3 1430.3 461.6 1430.1 460.8 1430C457.1 1429.6 453.3 1428.9 449.7 1428.3C445.9 1427.6 442.2 1426.6 438.4 1425.9C438 1425.7 437.6 1425.8 437.1 1425.7C436.7 1425.5 436.1 1425.4 435.7 1425.2C432.7 1424.6 429.9 1423.9 427.2 1423.3C423.5 1422.3 419.8 1421.4 416.1 1420.5C414.4 1420.1 413 1419.6 411.2 1419.2C410.6 1418.8 409.8 1418.7 409 1418.5C407.8 1418.1 406.4 1417.6 405.2 1417.2C401.5 1416.3 397.9 1415.1 394.5 1413.7C391.4 1412.8 388.1 1411.5 385.1 1410.4C384.8 1410.5 384.8 1410.5 384.6 1410.4L384.4 1410.3C381.2 1409 377.7 1407.7 374.5 1406.4C371.3 1405.1 368.1 1403.7 364.9 1402.4C363.8 1401.8 362.6 1401.4 361.8 1400.9C361.2 1400.5 360.5 1400.2 359.8 1400C358.5 1399.3 357.1 1398.8 355.6 1397.9C352.7 1396.6 349.6 1395.1 346.6 1393.4C344.4 1391.3 341.5 1389.9 338.7 1388.4Z" fill="#2771F0"/>
<path d="M757.1 1313.2C641.7 1381.6 454 1383.7 337.9 1318C221.7 1252.2 221.1 1143.5 336.5 1075.1C451.8 1006.8 639.5 1004.6 755.7 1070.4C871.8 1136.2 872.4 1244.9 757.1 1313.2Z" fill="#468DFF"/>
<path d="M323.2 1210.6C315.7 1172.9 337.1 1133.4 387 1103.7C466.8 1056.5 591.2 1051 679.6 1087.7C688.9 1091.2 697.5 1095.5 705.6 1100.1C762.8 1132.6 783.2 1178.9 766.1 1221.4C760.9 1193.1 739.1 1165.7 701.4 1144.2C694.1 1140.1 686.4 1136.3 678.4 1133C589.7 1094.9 463 1100.3 382.6 1147.7C352.1 1165.8 332.1 1187.8 323.2 1210.6Z" fill="#1B43AA"/>
<path d="M388.1 1288.3C350.1 1266.7 328.4 1239.3 323.2 1210.7C332.1 1187.7 352.1 1165.9 382.6 1147.8C470.2 1095.9 613 1094.3 701.2 1144.2C739 1165.7 760.7 1193.1 766 1221.5C757.1 1244.5 737.3 1266.4 706.5 1284.6C618.9 1336.6 476.3 1338.4 388.1 1288.3Z" fill="url(#paint6_linear_111_17)"/>
<path d="M489.7 1156.6L510.8 1168.5C525.6 1160.9 544.5 1155 558.5 1153.2L566.5 1164.3C552.4 1166.3 535.4 1171 521.3 1178.5C503.4 1188 499.9 1199.2 511.8 1205.9C523.3 1212.4 540.2 1211.1 565.1 1204.8C599.1 1195.9 624.6 1192.9 642.7 1203.1C660 1212.8 658.3 1228.1 638.3 1242.2L659.4 1254.1L643.8 1262.4L623.6 1251C608.1 1258.8 594.4 1262.4 583.6 1264.2L576.1 1253.1C583.9 1251.7 598.8 1248.8 614.9 1240.3C634.3 1230 632 1220.7 623.6 1216.1C612.7 1210 598 1211.9 568.6 1219.3C533.9 1228.1 509.9 1229 491.4 1218.5C474.9 1209.2 473.3 1193.2 495.7 1177.4L474 1165.2L489.7 1156.6Z" fill="white"/>
<path d="M204.5 1286.2C204.5 1286.2 204.3 1286.1 204.1 1286C201.2 1284.1 198.2 1282.4 195.2 1280.7C192.5 1278.9 189.7 1277 187 1275.2C186.4 1274.8 185.8 1274.3 185 1273.8C184.6 1273.6 184 1273 183.4 1272.6C181.8 1271.4 180.1 1270.5 178.7 1269.4C175.9 1267.3 173.2 1265.2 170.6 1263.2C169.7 1262.4 168.7 1261.6 167.5 1260.6C167 1260 166.2 1259.3 165.7 1258.8C164.8 1258 163.6 1257 162.6 1256.2C159.8 1253.8 157 1251.1 154.5 1248.6C153.8 1247.9 153.4 1247.1 152.6 1246.4C151.9 1245.7 151 1244.7 150.3 1244C149 1242.7 147.9 1241.2 146.6 1240C144.2 1237.2 142.1 1234.4 140.1 1231.5C139.8 1231 139.5 1230.6 139 1230C139 1230 138.8 1229.9 138.7 1229.5C135.5 1225.2 132.5 1220.4 130.1 1215.7C129.9 1215.6 130 1215.4 129.8 1215.2C129.6 1214.5 129.2 1213.7 128.9 1213.3C126.8 1209 125.1 1205 123.6 1200.7C123 1199.2 122.4 1197.8 122 1196.1C120.9 1192.6 120 1189.1 119.2 1185.5C118.9 1183.9 118.6 1182.6 118.3 1181.1C117.7 1176.2 117 1171.4 116.9 1166.5L116 1100.1L116.2 1100.2C116.1 1103.8 116.7 1107.3 117.2 1110.9C117.6 1112.2 117.8 1113.8 118.1 1115.3C118.9 1118.9 120.1 1122.3 121.1 1126C121.5 1127.3 121.9 1129 122.5 1130.5C124.1 1134.8 125.7 1138.8 127.9 1142.9C128.3 1143.7 128.5 1144.4 128.8 1144.8C131.5 1150 134.7 1154.9 138.1 1159.9C138.4 1160.4 138.7 1160.8 139 1161.3C142.3 1165.4 145.6 1169.5 149.4 1173.9C150.1 1174.6 150.9 1175.3 151.5 1176.2C155.6 1180.5 160 1184.6 164.5 1188.6C165.2 1189.3 165.9 1189.7 166.6 1190.4C171.3 1194.5 176.6 1198.6 182.1 1202.5C182.7 1202.9 183.4 1203.2 183.9 1203.8C187.2 1205.9 190.7 1208.2 194.2 1210.5C197.1 1212.4 200.3 1214.2 203.5 1216C210.3 1219.8 217.5 1223.6 225.2 1227.1C225.6 1227.3 226.3 1227.7 227 1227.8C234.3 1231.3 242.1 1234.6 249.8 1237.3C250 1237.4 250.2 1237.5 250.2 1237.5C258.1 1240.5 266 1243 274.2 1245.4C274.8 1245.8 275.6 1245.9 276.4 1246.1C284.4 1248.4 292.4 1250.6 300.7 1252.4C301.2 1252.4 301.7 1252.7 302.2 1252.7C310.7 1254.7 319.4 1256.2 328.1 1257.7C328.6 1257.7 329.2 1257.8 329.7 1257.8C338.2 1259.2 346.8 1260.4 355.6 1261.4C356.1 1261.4 356.7 1261.5 357 1261.4C366 1262.5 374.9 1263 383.7 1263.5C384.6 1263.4 385.3 1263.6 386.2 1263.5C393.7 1263.8 401.1 1264 408.5 1263.9C410.7 1264 412.7 1264 414.8 1263.8C419.3 1263.8 423.7 1263.5 428.2 1263.5C433.4 1263.3 438.9 1263 444.2 1262.6C452.7 1262 461.3 1261.2 469.7 1260.3C478.9 1259 488.1 1257.7 497.2 1256C497.5 1255.9 497.5 1255.9 497.5 1255.9C506.4 1254.1 515.3 1252.4 523.7 1250.4C524.4 1250.2 525 1250 525.7 1249.8C533.9 1247.7 541.8 1245.6 549.4 1243.2C550.4 1242.9 551.4 1242.6 552.2 1242.2C559.8 1239.7 567.4 1237.2 574.7 1234.3C575.5 1233.9 576.5 1233.6 577.2 1233.4C584.8 1230.4 592 1227.1 599 1223.7C599.7 1223.5 600.1 1223.2 600.5 1223.1C608.1 1219.5 615.5 1215.5 622.6 1211.3C629.5 1207 636.1 1202.8 642.2 1198.4C642.4 1198 642.9 1197.7 643.2 1197.6C646.6 1195 650 1192.4 653.1 1190C655.6 1188 657.8 1186.2 660.1 1184.1C660.2 1183.9 660.7 1183.6 661.1 1183.3C665.9 1178.7 670.4 1174.2 674.6 1169.8C675 1169.2 675.4 1168.9 675.8 1168.2C679.8 1163.7 683.5 1159 686.7 1154.3C686.9 1153.9 687.5 1153.3 687.9 1152.7C691 1148.2 693.5 1143.7 695.9 1138.9L697.5 1136.1C699.7 1131.2 701.8 1126.4 703.5 1121.4C703.8 1120.4 703.7 1119.5 704.2 1118.7C705.5 1114.4 706.5 1110.1 707.2 1105.8C708 1099.8 708.5 1093.9 708.4 1088.2L709.5 1158.4C709.5 1164.3 709 1170.2 708 1176.1C708.1 1176.4 708.2 1176.8 708.1 1177C707.5 1181.1 706.4 1185.1 705 1189C704.9 1189.8 704.8 1190.9 704.4 1191.5C704.3 1191.7 704.5 1191.8 704.5 1191.8C703.2 1195.6 701.6 1199.5 700 1203.3L698.4 1206.1C698 1207.3 697.5 1208.1 696.9 1209.2C696.3 1210.3 695.8 1211.7 695.1 1213C693.5 1215.8 691.6 1218.7 690.1 1221.4C689.5 1221.9 689.3 1222.3 688.9 1223C688.7 1223.4 688.1 1224 687.7 1224.6C686.6 1226 685.7 1227.7 684.6 1229.1C682.6 1231.6 680.7 1234 678.5 1236.4C678.1 1237 677.4 1237.8 676.7 1238.5C676.2 1238.8 675.9 1239.5 675.4 1239.8C674.5 1241 673.6 1241.9 672.7 1243.1C670.6 1245.3 668.4 1247.2 666.3 1249.4C664.9 1250.9 663.3 1252.2 661.7 1253.6C661.6 1253.8 661.1 1254.1 660.9 1254.5C660.4 1254.8 660 1255.1 659.8 1255.5C658.8 1256.3 658.1 1257.1 656.8 1257.8C655.5 1259.1 654 1260.2 652.9 1261.2C650.4 1263.2 648 1264.9 645.6 1266.7C645 1267.2 644.6 1267.5 644.1 1267.8C643.6 1268.1 643.2 1268.4 642.7 1268.7C641.2 1269.8 639.6 1271.2 637.9 1272.2C635.2 1274 632.6 1275.7 629.8 1277.5C627.6 1278.8 625.5 1280.1 623.1 1281.4C622.5 1281.9 621.7 1282.3 620.9 1282.7C618 1284.4 615 1286.2 611.9 1287.8C609 1289.5 605.6 1291 602.3 1292.8C602 1292.9 601.5 1293.2 601.2 1293.3C600.7 1293.6 600.1 1293.8 599.7 1293.9C597.3 1295.1 594.6 1296.4 592.3 1297.6C588.7 1299 585.2 1300.7 581.6 1302C580.4 1302.7 579 1303.1 577.9 1303.6C576.9 1303.9 576.1 1304.3 575.3 1304.7C573.6 1305.2 572.1 1306 570.3 1306.7C566.5 1307.9 562.6 1309.4 558.7 1310.9C556.7 1311.5 554.9 1312.1 553 1312.5C552 1312.8 551.2 1313.2 550.2 1313.5C549.1 1314 547.7 1314.4 546.7 1314.7C542.6 1316 538.6 1317.2 534.7 1318.1C532 1318.8 529.1 1319.5 526.5 1320.2L524.5 1320.8C523.8 1321 523.2 1321.2 522.6 1321.1C518.6 1322.2 514.7 1323.1 510.6 1323.9C506.7 1324.8 502.6 1325.6 498.3 1326.3C498.2 1326.5 498 1326.4 498 1326.4C493.9 1327.2 489.8 1328 485.8 1328.6C480.6 1329.3 475.6 1330.2 470.5 1330.7C462.7 1331.6 455.1 1332.5 447.3 1332.9C446.6 1333.1 445.7 1333.2 444.9 1333.2C439.6 1333.6 434.2 1333.7 428.8 1333.7C425.3 1334 421.7 1334.2 418 1334.4C417.1 1334.5 416.4 1334.3 415.5 1334.4C413.5 1334.4 411.3 1334.3 409.3 1334.3C405 1334.4 401 1334.4 396.9 1334.4C393.6 1334.2 390.3 1334.1 386.9 1334.1C386.1 1334 385.3 1334 384.5 1333.9C384 1333.9 383.3 1334.1 382.5 1333.9C378.4 1333.6 374.4 1333.3 370.2 1333.2C366.5 1332.8 363 1332.5 359.3 1332.1C358.8 1332.1 358.2 1332 357.7 1332C357.2 1332 356.9 1331.9 356.4 1331.8C353.8 1331.5 351 1331.3 348.4 1331C344.7 1330.6 341.1 1330 337.4 1329.6C335.1 1329.2 332.7 1328.9 330.4 1328.5C329.9 1328.5 329.3 1328.4 328.9 1328.2C328.1 1328.1 327.4 1327.9 326.6 1327.8C322.9 1327.4 319.1 1326.7 315.5 1326.1C311.7 1325.4 308 1324.4 304.2 1323.7C303.8 1323.5 303.4 1323.6 302.9 1323.5C302.5 1323.3 301.9 1323.2 301.5 1323C298.5 1322.4 295.7 1321.7 293 1321.1C289.3 1320.1 285.6 1319.2 281.9 1318.3C280.2 1317.9 278.8 1317.4 277 1317C276.4 1316.6 275.6 1316.5 274.8 1316.3C273.6 1315.9 272.2 1315.4 271 1315C267.3 1314.1 263.7 1312.9 260.3 1311.5C257.2 1310.6 253.9 1309.3 250.9 1308.2C250.6 1308.3 250.6 1308.3 250.4 1308.2L250.2 1308.1C247 1306.8 243.5 1305.5 240.3 1304.2C237.1 1302.9 233.9 1301.5 230.7 1300.2C229.6 1299.6 228.4 1299.2 227.6 1298.7C227 1298.3 226.3 1298 225.6 1297.8C224.3 1297.1 222.9 1296.6 221.4 1295.7C218.5 1294.4 215.4 1292.9 212.4 1291.2C210.2 1289.1 207.3 1287.8 204.5 1286.2Z" fill="#2771F0"/>
<path d="M622.9 1211.1C507.5 1279.5 319.8 1281.6 203.7 1215.9C87.5001 1150.1 86.9 1041.4 202.3 973C317.6 904.7 505.3 902.5 621.5 968.3C737.6 1034 738.2 1142.8 622.9 1211.1Z" fill="#468DFF"/>
<path d="M189 1108.5C181.5 1070.8 202.9 1031.3 252.8 1001.6C332.6 954.4 457 948.9 545.4 985.6C554.7 989.1 563.3 993.4 571.4 998C628.6 1030.5 649 1076.8 631.9 1119.3C626.7 1091 604.9 1063.6 567.2 1042.1C559.9 1038 552.2 1034.2 544.2 1030.9C455.5 992.8 328.8 998.2 248.4 1045.6C217.9 1063.7 197.9 1085.7 189 1108.5Z" fill="url(#paint7_linear_111_17)"/>
<path d="M254 1186.1C216 1164.5 194.3 1137.1 189.1 1108.5C198 1085.5 218 1063.7 248.5 1045.6C336.1 993.7 478.9 992.1 567.1 1042C604.9 1063.5 626.6 1090.9 631.9 1119.3C623 1142.3 603.2 1164.2 572.4 1182.4C484.7 1234.5 342.1 1236.2 254 1186.1Z" fill="url(#paint8_linear_111_17)"/>
<path d="M355.5 1054.5L376.6 1066.4C391.4 1058.8 410.3 1052.9 424.3 1051.1L432.3 1062.2C418.2 1064.2 401.2 1068.9 387.1 1076.4C369.2 1085.9 365.7 1097.1 377.6 1103.8C389.1 1110.3 406 1109 430.9 1102.7C464.9 1093.8 490.4 1090.8 508.5 1101C525.8 1110.7 524.1 1126 504.1 1140.1L525.2 1152L509.6 1160.3L489.4 1148.9C473.9 1156.7 460.2 1160.3 449.4 1162.1L441.9 1151C449.7 1149.6 464.6 1146.7 480.7 1138.2C500.1 1127.9 497.8 1118.6 489.4 1114C478.5 1107.9 463.8 1109.8 434.4 1117.2C399.7 1126 375.7 1126.9 357.2 1116.4C340.7 1107.1 339.1 1091.1 361.5 1075.3L339.8 1063.1L355.5 1054.5Z" fill="white"/>
<path d="M204.5 1184.1C204.5 1184.1 204.3 1184 204.1 1183.9C201.2 1182 198.2 1180.3 195.2 1178.6C192.5 1176.8 189.7 1174.9 187 1173.1C186.4 1172.7 185.8 1172.2 185 1171.7C184.6 1171.5 184 1170.9 183.4 1170.5C181.8 1169.3 180.1 1168.4 178.7 1167.3C175.9 1165.2 173.2 1163.1 170.6 1161.1C169.7 1160.3 168.7 1159.5 167.5 1158.5C167 1157.9 166.2 1157.2 165.7 1156.7C164.8 1155.9 163.6 1154.9 162.6 1154.1C159.8 1151.7 157 1149 154.5 1146.5C153.8 1145.8 153.4 1145 152.6 1144.3C151.9 1143.6 151 1142.6 150.3 1141.9C149 1140.6 147.9 1139.1 146.6 1137.9C144.2 1135.1 142.1 1132.3 140.1 1129.4C139.8 1128.9 139.5 1128.5 139 1127.9C139 1127.9 138.8 1127.8 138.7 1127.4C135.5 1123.1 132.5 1118.3 130.1 1113.6C129.9 1113.5 130 1113.3 129.8 1113.1C129.6 1112.4 129.2 1111.6 128.9 1111.2C126.8 1106.9 125.1 1102.9 123.6 1098.6C123 1097.1 122.4 1095.7 122 1094C120.9 1090.5 120 1087 119.2 1083.4C118.9 1081.8 118.6 1080.5 118.3 1079C117.7 1074.1 117 1069.3 116.9 1064.4L116 998L116.2 998.1C116.1 1001.7 116.7 1005.2 117.2 1008.8C117.6 1010.1 117.8 1011.7 118.1 1013.2C118.9 1016.8 120.1 1020.2 121.1 1023.9C121.5 1025.2 121.9 1026.9 122.5 1028.4C124.1 1032.7 125.7 1036.7 127.9 1040.8C128.3 1041.6 128.5 1042.3 128.8 1042.7C131.5 1047.9 134.7 1052.8 138.1 1057.8C138.4 1058.3 138.7 1058.7 139 1059.2C142.3 1063.3 145.6 1067.4 149.4 1071.8C150.1 1072.5 150.9 1073.2 151.5 1074.1C155.6 1078.4 160 1082.5 164.5 1086.5C165.2 1087.2 165.9 1087.6 166.6 1088.3C171.3 1092.4 176.6 1096.5 182.1 1100.4C182.7 1100.8 183.4 1101.1 183.9 1101.7C187.2 1103.8 190.7 1106.1 194.2 1108.4C197.1 1110.3 200.3 1112.1 203.5 1113.9C210.3 1117.7 217.5 1121.5 225.2 1125C225.6 1125.2 226.3 1125.6 227 1125.7C234.3 1129.2 242.1 1132.5 249.8 1135.2C250 1135.3 250.2 1135.4 250.2 1135.4C258.1 1138.4 266 1140.9 274.2 1143.3C274.8 1143.7 275.6 1143.8 276.4 1144C284.4 1146.3 292.4 1148.5 300.7 1150.3C301.2 1150.3 301.7 1150.6 302.2 1150.6C310.7 1152.6 319.4 1154.1 328.1 1155.6C328.6 1155.6 329.2 1155.7 329.7 1155.7C338.2 1157.1 346.8 1158.3 355.6 1159.3C356.1 1159.3 356.7 1159.4 357 1159.3C366 1160.4 374.9 1160.9 383.7 1161.4C384.6 1161.3 385.3 1161.5 386.2 1161.4C393.7 1161.7 401.1 1161.9 408.5 1161.8C410.7 1161.9 412.7 1161.9 414.8 1161.7C419.3 1161.7 423.7 1161.4 428.2 1161.4C433.4 1161.2 438.9 1160.9 444.2 1160.5C452.7 1159.9 461.3 1159.1 469.7 1158.2C478.9 1156.9 488.1 1155.6 497.2 1153.9C497.5 1153.8 497.5 1153.8 497.5 1153.8C506.4 1152 515.3 1150.3 523.7 1148.3C524.4 1148.1 525 1147.9 525.7 1147.7C533.9 1145.6 541.8 1143.5 549.4 1141.1C550.4 1140.8 551.4 1140.5 552.2 1140.1C559.8 1137.6 567.4 1135.1 574.7 1132.2C575.5 1131.8 576.5 1131.5 577.2 1131.3C584.8 1128.3 592 1125 599 1121.6C599.7 1121.4 600.1 1121.1 600.5 1121C608.1 1117.4 615.5 1113.4 622.6 1109.2C629.5 1104.9 636.1 1100.7 642.2 1096.3C642.4 1095.9 642.9 1095.6 643.2 1095.5C646.6 1092.9 650 1090.3 653.1 1087.9C655.6 1085.9 657.8 1084.1 660.1 1082C660.2 1081.8 660.7 1081.5 661.1 1081.2C665.9 1076.6 670.4 1072.1 674.6 1067.7C675 1067.1 675.4 1066.8 675.8 1066.1C679.8 1061.6 683.5 1056.9 686.7 1052.2C686.9 1051.8 687.5 1051.2 687.9 1050.6C691 1046.1 693.5 1041.6 695.9 1036.8L697.5 1034C699.7 1029.1 701.8 1024.3 703.5 1019.3C703.8 1018.3 703.7 1017.4 704.2 1016.6C705.5 1012.3 706.5 1008 707.2 1003.7C708 997.7 708.5 991.8 708.4 986.1L709.5 1056.3C709.5 1062.2 709 1068.1 708 1074C708.1 1074.3 708.2 1074.7 708.1 1074.9C707.5 1079 706.4 1083 705 1086.9C704.9 1087.7 704.8 1088.8 704.4 1089.4C704.3 1089.6 704.5 1089.7 704.5 1089.7C703.2 1093.5 701.6 1097.4 700 1101.2L698.4 1104C698 1105.2 697.5 1106 696.9 1107.1C696.3 1108.2 695.8 1109.6 695.1 1110.9C693.5 1113.7 691.6 1116.6 690.1 1119.3C689.5 1119.8 689.3 1120.2 688.9 1120.9C688.7 1121.3 688.1 1121.9 687.7 1122.5C686.6 1123.9 685.7 1125.6 684.6 1127C682.6 1129.5 680.7 1131.9 678.5 1134.3C678.1 1134.9 677.4 1135.7 676.7 1136.4C676.2 1136.7 675.9 1137.4 675.4 1137.7C674.5 1138.9 673.6 1139.8 672.7 1141C670.6 1143.2 668.4 1145.1 666.3 1147.3C664.9 1148.8 663.3 1150.1 661.7 1151.5C661.6 1151.7 661.1 1152 660.9 1152.4C660.4 1152.7 660 1153 659.8 1153.4C658.8 1154.2 658.1 1155 656.8 1155.7C655.5 1157 654 1158.1 652.9 1159.1C650.4 1161.1 648 1162.8 645.6 1164.6C645 1165.1 644.6 1165.4 644.1 1165.7C643.6 1166 643.2 1166.3 642.7 1166.6C641.2 1167.7 639.6 1169.1 637.9 1170.1C635.2 1171.9 632.6 1173.6 629.8 1175.4C627.6 1176.7 625.5 1178 623.1 1179.3C622.5 1179.8 621.7 1180.2 620.9 1180.6C618 1182.3 615 1184.1 611.9 1185.7C609 1187.4 605.6 1188.9 602.3 1190.7C602 1190.8 601.5 1191.1 601.2 1191.2C600.7 1191.5 600.1 1191.7 599.7 1191.8C597.3 1193 594.6 1194.3 592.3 1195.5C588.7 1196.9 585.2 1198.6 581.6 1199.9C580.4 1200.6 579 1201 577.9 1201.5C576.9 1201.8 576.1 1202.2 575.3 1202.6C573.6 1203.1 572.1 1203.9 570.3 1204.6C566.5 1205.8 562.6 1207.3 558.7 1208.8C556.7 1209.4 554.9 1210 553 1210.4C552 1210.7 551.2 1211.1 550.2 1211.4C549.1 1211.9 547.7 1212.3 546.7 1212.6C542.6 1213.9 538.6 1215.1 534.7 1216C532 1216.7 529.1 1217.4 526.5 1218.1L524.5 1218.7C523.8 1218.9 523.2 1219.1 522.6 1219C518.6 1220.1 514.7 1221 510.6 1221.8C506.7 1222.7 502.6 1223.5 498.3 1224.2C498.2 1224.4 498 1224.3 498 1224.3C493.9 1225.1 489.8 1225.9 485.8 1226.5C480.6 1227.2 475.6 1228.1 470.5 1228.6C462.7 1229.5 455.1 1230.4 447.3 1230.8C446.6 1231 445.7 1231.1 444.9 1231.1C439.6 1231.5 434.2 1231.6 428.8 1231.6C425.3 1231.9 421.7 1232.1 418 1232.3C417.1 1232.4 416.4 1232.2 415.5 1232.3C413.5 1232.3 411.3 1232.2 409.3 1232.2C405 1232.3 401 1232.3 396.9 1232.3C393.6 1232.1 390.3 1232 386.9 1232C386.1 1231.9 385.3 1231.9 384.5 1231.8C384 1231.8 383.3 1232 382.5 1231.8C378.4 1231.5 374.4 1231.2 370.2 1231.1C366.5 1230.7 363 1230.4 359.3 1230C358.8 1230 358.2 1229.9 357.7 1229.9C357.2 1229.9 356.9 1229.8 356.4 1229.7C353.8 1229.4 351 1229.2 348.4 1228.9C344.7 1228.5 341.1 1227.9 337.4 1227.5C335.1 1227.1 332.7 1226.8 330.4 1226.4C329.9 1226.4 329.3 1226.3 328.9 1226.1C328.1 1226 327.4 1225.8 326.6 1225.7C322.9 1225.3 319.1 1224.6 315.5 1224C311.7 1223.3 308 1222.3 304.2 1221.6C303.8 1221.4 303.4 1221.5 302.9 1221.4C302.5 1221.2 301.9 1221.1 301.5 1220.9C298.5 1220.3 295.7 1219.6 293 1219C289.3 1218 285.6 1217.1 281.9 1216.2C280.2 1215.8 278.8 1215.3 277 1214.9C276.4 1214.5 275.6 1214.4 274.8 1214.2C273.6 1213.8 272.2 1213.3 271 1212.9C267.3 1212 263.7 1210.8 260.3 1209.4C257.2 1208.5 253.9 1207.2 250.9 1206.1C250.6 1206.2 250.6 1206.2 250.4 1206.1L250.2 1206C247 1204.7 243.5 1203.4 240.3 1202.1C237.1 1200.8 233.9 1199.4 230.7 1198.1C229.6 1197.5 228.4 1197.1 227.6 1196.6C227 1196.2 226.3 1195.9 225.6 1195.7C224.3 1195 222.9 1194.5 221.4 1193.6C218.5 1192.3 215.4 1190.8 212.4 1189.1C210.2 1187 207.3 1185.7 204.5 1184.1Z" fill="#2771F0"/>
<path d="M622.9 1109C507.5 1177.4 319.8 1179.5 203.7 1113.8C87.5001 1048 86.9 939.3 202.3 870.9C317.6 802.6 505.3 800.4 621.5 866.2C737.6 931.9 738.2 1040.6 622.9 1109Z" fill="#468DFF"/>
<path d="M189 1006.4C181.5 968.7 202.9 929.2 252.8 899.5C332.6 852.3 457 846.8 545.4 883.5C554.7 887 563.3 891.3 571.4 895.9C628.6 928.4 649 974.7 631.9 1017.2C626.7 988.9 604.9 961.5 567.2 940C559.9 935.9 552.2 932.1 544.2 928.8C455.5 890.7 328.8 896.1 248.4 943.5C217.9 961.5 197.9 983.5 189 1006.4Z" fill="#1B43AA"/>
<path d="M254 1084C216 1062.4 194.3 1035 189.1 1006.4C198 983.4 218 961.6 248.5 943.5C336.1 891.6 478.9 890 567.1 939.9C604.9 961.4 626.6 988.8 631.9 1017.2C623 1040.2 603.2 1062.1 572.4 1080.3C484.7 1132.4 342.1 1134.1 254 1084Z" fill="url(#paint9_linear_111_17)"/>
<g filter="url(#filter0_d_111_17)">
<path d="M388.96 947.74L329.555 969.388C324.715 971.152 324.993 974.718 330.177 977.354C335.362 979.989 343.488 980.695 348.329 978.931L407.733 957.283C412.574 955.519 412.295 951.953 407.111 949.317C401.927 946.682 393.8 945.976 388.96 947.74Z" fill="white"/>
</g>
<g filter="url(#filter1_d_111_17)">
<path d="M418.883 981.135L394.486 990.026C389.645 991.789 389.924 995.356 395.108 997.991C400.292 1000.63 408.419 1001.33 413.26 999.569L437.656 990.678C442.497 988.914 442.218 985.348 437.034 982.712C431.85 980.077 423.723 979.371 418.883 981.135Z" fill="white"/>
</g>
<g filter="url(#filter2_d_111_17)">
<path d="M383.597 1002.12C378.412 999.485 370.286 998.779 365.445 1000.54C360.605 1002.31 360.883 1005.87 366.067 1008.51C371.252 1011.14 379.378 1011.85 384.219 1010.09C389.059 1008.32 388.781 1004.76 383.597 1002.12Z" fill="white"/>
</g>
<g filter="url(#filter3_d_111_17)">
<path d="M463.657 1012.59L404.253 1034.24C399.412 1036 399.691 1039.57 404.875 1042.2C410.06 1044.84 418.186 1045.54 423.027 1043.78L482.431 1022.13C487.272 1020.37 486.993 1016.8 481.809 1014.16C476.625 1011.53 468.498 1010.82 463.657 1012.59Z" fill="white"/>
</g>
<path d="M757.2 791.2C757.2 791.2 757.2 791.4 757.2 791.7C757 795.1 757 798.6 757 802C756.8 805.2 756.5 808.6 756.3 811.8C756.3 812.5 756.1 813.3 756.1 814.3C756.1 814.8 755.9 815.5 755.9 816.3C755.7 818.3 755.7 820.2 755.4 821.9C754.9 825.3 754.4 828.8 753.9 832C753.7 833.2 753.4 834.5 753.2 835.9C753 836.6 752.7 837.6 752.5 838.4C752.3 839.6 752 841.1 751.8 842.3C751.1 846 750.1 849.7 749.1 853.1C748.9 854.1 748.4 854.8 748.1 855.8C747.9 856.8 747.4 858 747.1 859C746.6 860.7 745.9 862.4 745.4 864.2C744.2 867.6 742.7 870.8 741.2 874C741 874.5 740.7 875 740.5 875.7C740.5 875.7 740.5 875.9 740.3 876.2C738.1 881.1 735.4 886 732.4 890.4C732.4 890.6 732.2 890.6 732.2 890.9C731.7 891.4 731.2 892.1 731 892.6C728.3 896.5 725.6 900 722.7 903.4C721.7 904.6 720.7 905.9 719.5 907.1C717 909.8 714.3 912.3 711.6 914.7C710.4 915.7 709.4 916.7 708.2 917.6C704.3 920.5 700.3 923.5 696.2 925.9L638.8 959.3V959.1C642 957.4 644.7 955.2 647.6 953C648.6 952 649.8 951 651 950.1C653.7 947.6 656.2 944.9 658.9 942.2C659.9 941.2 661.1 940 662.1 938.8C665 935.4 667.7 931.9 670.2 928C670.7 927.3 671.2 926.8 671.4 926.3C674.6 921.4 677.3 916.2 680 910.8C680.2 910.3 680.5 909.8 680.7 909.3C682.7 904.4 684.6 899.5 686.6 894.1C686.8 893.1 687.1 892.1 687.6 891.2C689.3 885.6 690.8 879.7 692 873.8C692.2 872.8 692.2 872.1 692.5 871.1C693.7 865 694.7 858.3 695.4 851.7C695.4 851 695.4 850.2 695.6 849.5C695.8 845.6 696.1 841.4 696.3 837.2C696.5 833.8 696.5 830.1 696.5 826.4C696.5 818.5 696.3 810.4 695.5 802.1C695.5 801.6 695.5 800.9 695.3 800.1C694.8 792 693.8 783.7 692.4 775.6C692.4 775.4 692.4 775.1 692.4 775.1C691.2 766.8 689.5 758.7 687.5 750.3C687.5 749.6 687.3 748.8 687 748.1C685 740 683.1 731.9 680.6 723.8C680.4 723.3 680.4 722.8 680.1 722.3C677.6 714 674.7 705.6 671.8 697.3C671.6 696.8 671.3 696.3 671.1 695.8C668.2 687.7 665 679.6 661.5 671.5C661.3 671 661 670.5 660.8 670.3C657.4 662 653.4 653.9 649.5 646C649 645.3 648.8 644.5 648.3 643.8C644.9 637.2 641.4 630.5 637.7 624.2C636.7 622.2 635.7 620.5 634.5 618.8C632.3 614.9 629.8 611.2 627.6 607.3C624.9 602.9 622 598.2 619 593.8C614.3 586.7 609.4 579.6 604.5 572.7C598.9 565.3 593.2 558 587.3 550.9C587.1 550.7 587.1 550.7 587.1 550.7C581.2 543.8 575.3 537 569.4 530.6C568.9 530.1 568.4 529.6 567.9 529.1C562 523 556.4 517.1 550.5 511.7C549.8 511 549 510.2 548.3 509.7C542.4 504.3 536.5 498.9 530.4 494C529.7 493.5 528.9 492.8 528.4 492.3C522 487.1 515.6 482.5 509.3 478.1C508.8 477.6 508.3 477.4 508.1 477.1C501.2 472.2 494.1 467.8 487 463.6C479.9 459.7 473 456 466.1 452.8C465.6 452.8 465.1 452.6 464.9 452.3C461 450.6 457 448.9 453.4 447.4C450.5 446.2 447.8 445.2 444.8 444.2C444.6 444.2 444.1 444 443.6 443.7C437.2 441.7 431.1 440 425.2 438.5C424.5 438.5 424 438.3 423.2 438.3C417.3 437.1 411.4 436.1 405.8 435.6C405.3 435.6 404.6 435.4 403.8 435.4C398.4 434.9 393.2 434.9 387.8 435.2H384.6C379.2 435.7 374 436.2 368.9 437.2C367.9 437.4 367.2 437.9 366.2 437.9C361.8 438.9 357.6 440.1 353.4 441.6C347.8 443.8 342.4 446.3 337.4 449.2L398 413.9C403.2 411 408.6 408.5 414.2 406.5C414.4 406.3 414.7 406 414.9 406C418.8 404.5 422.8 403.5 426.9 402.8C427.6 402.6 428.6 402.1 429.4 402.1C429.6 402.1 429.6 401.9 429.6 401.9C433.5 401.2 437.7 400.7 441.9 400.2H445.1C446.3 400 447.3 400 448.5 400C449.7 400 451.2 399.8 452.7 399.8C455.9 399.8 459.3 400 462.5 400C463.2 400.2 463.7 400.2 464.5 400.2C465 400.2 465.7 400.4 466.5 400.4C468.2 400.6 470.2 400.6 471.9 400.9C475.1 401.4 478 401.9 481.2 402.6C481.9 402.6 482.9 402.8 483.9 403.1C484.4 403.3 485.1 403.3 485.6 403.6C487.1 403.8 488.3 404.1 489.8 404.3C492.7 405 495.4 406 498.4 406.8C500.4 407.3 502.3 408 504.3 408.8C504.5 408.8 505 409 505.5 409C506 409.2 506.5 409.5 507 409.5C508.2 410 509.2 410.2 510.4 411C512.1 411.5 513.8 412.2 515.3 412.7C518.2 413.9 520.9 415.2 523.6 416.4C524.3 416.6 524.8 416.9 525.3 417.1C525.8 417.3 526.3 417.6 526.8 417.8C528.5 418.5 530.5 419.3 532.2 420.3C535.1 421.8 537.8 423.2 540.8 424.7C543 425.9 545.2 427.2 547.4 428.6C548.1 428.8 548.9 429.3 549.6 429.8C552.5 431.5 555.5 433.2 558.4 435.2C561.3 436.9 564.3 439.1 567.5 441.1C567.7 441.3 568.2 441.6 568.5 441.8C569 442 569.5 442.5 569.7 442.8C571.9 444.3 574.4 446 576.6 447.5C579.5 450 582.7 452.2 585.7 454.6C586.9 455.3 587.9 456.3 588.9 457.1C589.6 457.8 590.4 458.3 591.1 458.8C592.3 460 593.8 461 595.3 462.2C598.2 464.9 601.4 467.6 604.6 470.3C606.1 471.8 607.5 473 608.8 474.5C609.5 475.2 610.3 475.7 611 476.5C612 477.2 613 478.2 613.7 479C616.9 481.9 619.8 484.9 622.5 487.8C624.5 489.8 626.4 492 628.4 493.9L629.9 495.4C630.4 495.9 630.9 496.4 631.1 496.9C634 499.8 636.7 502.8 639.4 506C642.1 508.9 644.8 512.1 647.5 515.6C647.7 515.6 647.7 515.8 647.7 515.8C650.4 519 653.1 522.2 655.6 525.4C658.8 529.6 662 533.5 664.9 537.7C669.6 544.1 674 550.2 678.2 556.8C678.7 557.3 679.2 558 679.7 558.8C682.6 563.2 685.3 567.9 688 572.5C690 575.4 691.9 578.4 693.9 581.6C694.4 582.3 694.6 583.1 695.1 583.8C696.1 585.5 697.1 587.5 698 589.2C700.2 592.9 702.2 596.3 704.1 600C705.6 602.9 707 605.9 708.8 608.8C709 609.5 709.5 610.3 709.8 611C710 611.5 710.5 612 710.8 612.7C712.5 616.4 714.2 620.1 716.2 623.7C717.7 627.1 719.1 630.3 720.6 633.8C720.8 634.3 721.1 634.8 721.3 635.3C721.5 635.8 721.5 636 721.8 636.5C722.8 639 724 641.4 725 643.9C726.5 647.3 727.7 650.8 729.2 654.2C729.9 656.4 730.9 658.6 731.7 660.8C731.9 661.3 732.2 661.8 732.2 662.3C732.4 663 732.7 663.8 732.9 664.5C734.4 667.9 735.6 671.6 736.8 675.1C738 678.8 739 682.5 740.2 686.1C740.2 686.6 740.4 686.8 740.7 687.3C740.7 687.8 740.9 688.3 740.9 688.8C741.9 691.7 742.6 694.4 743.4 697.1C744.4 700.8 745.4 704.5 746.3 708.1C746.8 709.8 747 711.3 747.5 713C747.5 713.7 747.7 714.5 748 715.2C748.2 716.4 748.5 717.9 748.7 719.1C749.7 722.8 750.4 726.5 750.9 730.1C751.6 733.3 752.1 736.7 752.6 739.9C752.8 740.1 752.8 740.1 752.8 740.4V740.6C753.3 744 753.8 747.7 754.3 751.2C754.8 754.6 755 758.1 755.5 761.5C755.5 762.7 755.7 764 755.7 764.9C755.7 765.6 755.7 766.4 755.9 767.1C755.9 768.6 756.1 770 756.1 771.8C756.3 775 756.6 778.4 756.6 781.9C757 784.8 757.2 788 757.2 791.2Z" fill="#2771F0"/>
<path d="M486.7 463.4C602.9 530.5 696.7 693 696.4 826.4C696 959.9 601.5 1013.7 485.4 946.7C369.3 879.7 275.4 717.1 275.8 583.6C276.1 450.2 370.6 396.3 486.7 463.4Z" fill="url(#paint10_linear_111_17)"/>
<path d="M609.9 891.8C580.7 916.8 535.8 917.6 485.5 888.6C405.2 842.2 339.4 736.4 328.2 641.4C326.7 631.6 326.2 622 326.2 612.7C326.4 546.9 356.9 506.4 402.3 500.5C380.2 518.9 367 551.3 366.7 594.8C366.7 603.1 367.2 611.7 368.2 620.3C378.5 716.3 445.3 824 526 870.9C556.7 888.6 585.6 895.3 609.9 891.8Z" fill="url(#paint11_linear_111_17)"/>
<path d="M645.8 797.2C645.6 840.9 632.3 873.2 610 891.8C585.6 895.3 556.8 888.5 526.1 870.9C438 820 366.6 696.3 366.8 594.9C367 551.4 380.3 519.1 402.4 500.5C426.8 497 455.6 503.5 486.6 521.4C574.8 572.3 646.2 695.8 645.8 797.2Z" fill="url(#paint12_linear_111_17)"/>
<path d="M530.488 629.869L472.907 624.165C468.215 623.701 466.187 627.691 468.378 633.078C470.569 638.465 476.149 643.209 480.841 643.674L538.423 649.378C543.115 649.842 545.142 645.852 542.951 640.465C540.76 635.078 535.181 630.334 530.488 629.869Z" fill="white"/>
<path d="M529.949 676.202L506.301 673.859C501.609 673.395 499.582 677.385 501.773 682.772C503.963 688.159 509.543 692.903 514.235 693.368L537.884 695.71C542.576 696.175 544.603 692.185 542.412 686.798C540.221 681.411 534.641 676.667 529.949 676.202Z" fill="white"/>
<path d="M490.658 681.602C488.467 676.215 482.887 671.471 478.195 671.007C473.503 670.542 471.475 674.532 473.666 679.919C475.857 685.306 481.437 690.05 486.129 690.515C490.821 690.98 492.849 686.989 490.658 681.602Z" fill="white"/>
<path d="M541.492 727.364L483.91 721.66C479.218 721.196 477.19 725.186 479.381 730.573C481.572 735.96 487.152 740.704 491.844 741.169L549.426 746.873C554.118 747.338 556.145 743.347 553.954 737.96C551.763 732.573 546.184 727.829 541.492 727.364Z" fill="white"/>
<path d="M792.9 528.7V1381.2C792.9 1410 813.4 1432.6 839.4 1437.6V528.7C839.4 501.1 857.4 477 883.7 469.2L1931.2 155C1946.1 150.7 1961.6 148.2 1977.1 148.2C2003.7 148.2 2029.8 155 2052.4 167.1L2069.1 176.4C2081.8 183.5 2083.1 195.6 2082.7 200.3C2082.7 204 2081.2 216.1 2069.7 222.6L1264.6 684C1202.6 719.9 1164.5 786.6 1164.5 858.1V1660.1C1164.5 1676.2 1174.7 1690.5 1189.9 1695.7L1244.1 1714.3C1224.6 1701.6 1210.9 1679.9 1210.9 1653.2V860C1210.9 852.9 1211.5 846.1 1212.1 839.2C1218 791.5 1245.6 748.7 1287.7 723.9L1289.6 723L2092.8 262.8C2116 249.5 2128.1 225.6 2129.1 202.1C2130 176.1 2117.3 149.7 2091 135.5L2074.9 126.5C2026.9 100.5 1970.2 94.9 1917.8 110.4L870.4 424.6C824.5 438.2 792.9 480.7 792.9 528.7Z" fill="url(#paint13_linear_111_17)"/>
<path d="M839.4 528.7V1437.6C848.1 1439.5 857.4 1439.1 866.7 1436.4L1164.5 1358.9V858.1C1164.5 786.5 1202.6 719.9 1264.6 684L2058.2 229L2069.7 222.5C2081.2 216 2082.7 203.9 2082.7 200.2C2083 195.6 2081.8 183.5 2069.1 176.3L2052.4 167C2029.8 154.9 2003.8 148.1 1977.1 148.1C1961.6 148.1 1946.1 150.6 1931.2 154.9L883.7 469.2C857.4 477 839.4 501.1 839.4 528.7Z" fill="url(#paint14_linear_111_17)"/>
<path d="M1211 860V1653.3C1211 1679.9 1224.6 1701.6 1244.2 1714.4C1244.2 1714.4 1244.5 1714.7 1244.8 1714.7C1253.6 1720.2 1263.5 1723.3 1273.9 1724.8L1276.1 1725.6V1725.2C1290.7 1726.8 1306 1724.6 1320.5 1716.3L2093.1 1273.8C2117.3 1259.5 2129.4 1235.1 2129.4 1210.6V202.1C2128.5 225.7 2116.4 249.5 2093.1 262.8L1289.7 723C1246.9 747.8 1218.7 790.9 1212.2 839.2C1211.6 846 1211 852.8 1211 860Z" fill="url(#paint15_linear_111_17)"/>
<path d="M1250.9 1717.3C1250.6 1717.3 1250.3 1717 1250.3 1717C1230.8 1704.3 1217.1 1682.6 1217.1 1655.9V862.6C1217.1 855.5 1217.7 848.7 1218.3 841.8C1224.8 793.5 1253 750.4 1295.8 725.6L2099 265.4C2113.2 257.3 2123.2 245.2 2129.1 231.6V202C2128.2 225.6 2116.1 249.4 2092.8 262.7L1289.7 723C1246.9 747.8 1218.7 790.9 1212.2 839.2C1211.6 846 1211 852.8 1211 860V1653.3C1211 1679.9 1224.6 1701.6 1244.2 1714.4C1244.2 1714.4 1244.5 1714.7 1244.8 1714.7C1248.4 1717 1252.3 1718.8 1256.2 1720.3C1254.4 1719.4 1252.6 1718.4 1250.9 1717.3Z" fill="url(#paint16_linear_111_17)"/>
<path d="M1284.7 1658L1283.4 1657.8C1281.6 1657.5 1280.6 1657.2 1280.2 1657.1C1278.6 1655.8 1278.4 1654.4 1278.5 1653.2V859.9C1278.5 856.2 1278.9 851.9 1279.3 846.9C1283.4 819.2 1299.4 795.4 1323.4 781.5L2000 393.9C2027.4 378.2 2061.6 398 2061.6 429.6V1205.7C2060.9 1212.2 2058.8 1215 2055.2 1217.3C2053.1 1217.9 1287 1658.8 1284.7 1658Z" stroke="white" stroke-width="4.505" stroke-miterlimit="10" stroke-dasharray="13.55 13.55"/>
<path d="M863.8 1425.1C859.4 1426.4 855.2 1427.1 851.1 1427.1V1369.1L1075.1 1310.8C1080.2 1309.5 1083.8 1304.9 1083.8 1299.6V798.9C1083.8 731.4 1119.9 668.5 1178.1 634.8L1983 173.4C1988.3 170.4 1992.5 166.3 1995.7 161.3C2013.8 163.6 2031.4 169.1 2046.8 177.3L2063.4 186.5C2071.3 190.9 2071.2 198 2071.1 199.4C2071.1 200.3 2071 208.4 2063.9 212.4L1258.8 673.9C1193.4 711.8 1152.9 782.4 1152.9 858.1V1349.9L863.8 1425.1Z" fill="#29174C"/>
<path d="M879.7 631.7V1303.4C879.7 1326.6 902.1 1343.1 924.2 1336.4L1148.7 1267.9V849.5C1148.7 777.9 1186.8 711.3 1248.8 675.4L1373.7 603.8L2067.9 209L932.2 560.7C901 570.3 879.7 599.1 879.7 631.7Z" fill="url(#paint17_linear_111_17)"/>
<path d="M895.5 640.3V1312C895.5 1335.2 917.9 1351.7 940 1345L1164.5 1276.5V858.1C1164.5 786.5 1202.6 719.9 1264.6 684L1389.5 612.4L2008.3 244.4L948 569.3C916.8 578.9 895.5 607.7 895.5 640.3Z" fill="url(#paint18_linear_111_17)"/>
<path opacity="0.67" d="M895.5 763.9V963.8L1164.5 881.4V858.2C1164.5 786.6 1202.6 720 1264.6 684.1L1389.5 612.5L895.5 763.9Z" fill="#29174C"/>
<path d="M1284.4 545L1106.5 596.9" stroke="white" stroke-width="15.768" stroke-miterlimit="10" stroke-linecap="round" stroke-linejoin="round"/>
<path d="M1284.4 595.4L1003.4 677.3" stroke="white" stroke-width="15.768" stroke-miterlimit="10" stroke-linecap="round" stroke-linejoin="round"/>
<path d="M1495.5 1137.5C1495.5 1168.2 1474.6 1194.7 1444.8 1202C1375.9 1218.7 1247.6 1245.2 1129 1245.2C972.5 1245.1 783 1044.5 783 1044.5L776.3 846.5L783 794.2C783 794.2 972.5 994.8 1129 994.9C1233.5 995 1345.6 974.4 1417.8 958C1457.6 949 1495.4 979.1 1495.4 1019.9V1137.5H1495.5Z" fill="url(#paint19_linear_111_17)"/>
<path d="M776.5 846.7V1096.8C776.5 1096.8 951.3 1281.8 1103.7 1296.7C1109.9 1297.3 1116.1 1297.6 1122.3 1297.6C1241 1297.6 1369.3 1271 1438.1 1254.2C1467.8 1247.1 1488.9 1220.4 1488.9 1189.7V1072.2C1488.9 1031.3 1451.1 1001.2 1411.1 1010.2C1338.9 1026.6 1226.7 1047.1 1122.3 1047.1C1116.1 1047.1 1109.9 1046.8 1103.7 1046.2C951.3 1031.7 776.5 846.7 776.5 846.7Z" fill="url(#paint20_linear_111_17)"/>
<path d="M1435.4 1242.9C1369.3 1259 1240.7 1286 1122.3 1286C1120 1286 1117.7 1286 1115.3 1285.9V1058.8C1117.6 1058.9 1119.9 1058.9 1122.3 1058.9C1233.6 1058.9 1352.6 1035.6 1413.7 1021.7C1417.6 1020.8 1421.5 1020.4 1425.4 1020.4C1437.1 1020.4 1448.6 1024.3 1457.9 1031.8C1470.2 1041.7 1477.3 1056.4 1477.3 1072.3V1189.8C1477.3 1215.1 1460.1 1236.9 1435.4 1242.9Z" fill="url(#paint21_linear_111_17)"/>
<path d="M1347.8 1228.2C1387.62 1228.2 1419.9 1195.92 1419.9 1156.1C1419.9 1116.28 1387.62 1084 1347.8 1084C1307.98 1084 1275.7 1116.28 1275.7 1156.1C1275.7 1195.92 1307.98 1228.2 1347.8 1228.2Z" fill="white"/>
<path d="M1632.4 1131.5L1739.1 1192.7V1787.5L1632.4 1726.2V1131.5Z" fill="url(#paint22_linear_111_17)"/>
<path d="M1834.8 1019.4L1941.4 1080.7L1739.1 1192.7L1632.4 1131.5L1834.8 1019.4Z" fill="#56D88B" stroke="#29174C" stroke-width="23.167" stroke-miterlimit="10" stroke-linecap="round" stroke-linejoin="round"/>
<path d="M1608.3 1273.6L1840.2 765.3L2072.1 1033.2L1941.4 1100.9V1675.5L1739.1 1787.5V1205.8L1608.3 1273.6Z" fill="url(#paint23_linear_111_17)"/>
<path d="M1516.5 1222.3L1748.4 713.9L1840.2 765.3L1608.3 1273.6L1516.5 1222.3Z" fill="url(#paint24_linear_111_17)"/>
</g>
<defs>
<filter id="filter0_d_111_17" x="326.099" y="946.769" width="85.0897" height="35.133" filterUnits="userSpaceOnUse" color-interpolation-filters="sRGB">
<feFlood flood-opacity="0" result="BackgroundImageFix"/>
<feColorMatrix in="SourceAlpha" type="matrix" values="0 0 0 0 0 0 0 0 0 0 0 0 0 0 0 0 0 0 127 0" result="hardAlpha"/>
<feOffset dy="2"/>
<feComposite in2="hardAlpha" operator="out"/>
<feColorMatrix type="matrix" values="0 0 0 0 0 0 0 0 0 0 0 0 0 0 0 0 0 0 0.25 0"/>
<feBlend mode="normal" in2="BackgroundImageFix" result="effect1_dropShadow_111_17"/>
<feBlend mode="normal" in="SourceGraphic" in2="effect1_dropShadow_111_17" result="shape"/>
</filter>
<filter id="filter1_d_111_17" x="390.03" y="980.164" width="52.0819" height="23.3755" filterUnits="userSpaceOnUse" color-interpolation-filters="sRGB">
<feFlood flood-opacity="0" result="BackgroundImageFix"/>
<feColorMatrix in="SourceAlpha" type="matrix" values="0 0 0 0 0 0 0 0 0 0 0 0 0 0 0 0 0 0 127 0" result="hardAlpha"/>
<feOffset dy="2"/>
<feGaussianBlur stdDeviation="0.5"/>
<feComposite in2="hardAlpha" operator="out"/>
<feColorMatrix type="matrix" values="0 0 0 0 0 0 0 0 0 0 0 0 0 0 0 0 0 0 0.25 0"/>
<feBlend mode="normal" in2="BackgroundImageFix" result="effect1_dropShadow_111_17"/>
<feBlend mode="normal" in="SourceGraphic" in2="effect1_dropShadow_111_17" result="shape"/>
</filter>
<filter id="filter2_d_111_17" x="361.989" y="999.572" width="25.6852" height="13.4849" filterUnits="userSpaceOnUse" color-interpolation-filters="sRGB">
<feFlood flood-opacity="0" result="BackgroundImageFix"/>
<feColorMatrix in="SourceAlpha" type="matrix" values="0 0 0 0 0 0 0 0 0 0 0 0 0 0 0 0 0 0 127 0" result="hardAlpha"/>
<feOffset dy="2"/>
<feComposite in2="hardAlpha" operator="out"/>
<feColorMatrix type="matrix" values="0 0 0 0 0 0 0 0 0 0 0 0 0 0 0 0 0 0 0.25 0"/>
<feBlend mode="normal" in2="BackgroundImageFix" result="effect1_dropShadow_111_17"/>
<feBlend mode="normal" in="SourceGraphic" in2="effect1_dropShadow_111_17" result="shape"/>
</filter>
<filter id="filter3_d_111_17" x="399.797" y="1011.62" width="87.0897" height="36.133" filterUnits="userSpaceOnUse" color-interpolation-filters="sRGB">
<feFlood flood-opacity="0" result="BackgroundImageFix"/>
<feColorMatrix in="SourceAlpha" type="matrix" values="0 0 0 0 0 0 0 0 0 0 0 0 0 0 0 0 0 0 127 0" result="hardAlpha"/>
<feOffset dy="2"/>
<feGaussianBlur stdDeviation="0.5"/>
<feComposite in2="hardAlpha" operator="out"/>
<feColorMatrix type="matrix" values="0 0 0 0 0 0 0 0 0 0 0 0 0 0 0 0 0 0 0.25 0"/>
<feBlend mode="normal" in2="BackgroundImageFix" result="effect1_dropShadow_111_17"/>
<feBlend mode="normal" in="SourceGraphic" in2="effect1_dropShadow_111_17" result="shape"/>
</filter>
<linearGradient id="paint0_linear_111_17" x1="492.071" y1="136.727" x2="733.718" y2="136.727" gradientUnits="userSpaceOnUse">
<stop stop-color="#149648"/>
<stop offset="0.993" stop-color="#5ED91A"/>
</linearGradient>
<linearGradient id="paint1_linear_111_17" x1="624.118" y1="393.448" x2="569.735" y2="101.758" gradientUnits="userSpaceOnUse">
<stop stop-color="#149648"/>
<stop offset="0.993" stop-color="#5ED91A"/>
</linearGradient>
<linearGradient id="paint2_linear_111_17" x1="722.435" y1="144.405" x2="723.424" y2="355.015" gradientUnits="userSpaceOnUse">
<stop stop-color="#149648"/>
<stop offset="0.993" stop-color="#5ED91A"/>
</linearGradient>
<linearGradient id="paint3_linear_111_17" x1="1487.45" y1="1793.09" x2="893.878" y2="1679.9" gradientUnits="userSpaceOnUse">
<stop stop-color="#E13D3D"/>
<stop offset="0.995" stop-color="#BC282F"/>
</linearGradient>
<linearGradient id="paint4_linear_111_17" x1="393.711" y1="1670.52" x2="1552.11" y2="1670.52" gradientUnits="userSpaceOnUse">
<stop stop-color="#E13D3D"/>
<stop offset="0.995" stop-color="#F06162"/>
</linearGradient>
<linearGradient id="paint5_linear_111_17" x1="561.272" y1="1258.12" x2="185.251" y2="1408.2" gradientUnits="userSpaceOnUse">
<stop stop-color="#2D77F2"/>
<stop offset="0.716" stop-color="#367FF5"/>
<stop offset="1" stop-color="#4E8DFF"/>
</linearGradient>
<linearGradient id="paint6_linear_111_17" x1="695.45" y1="1155.99" x2="319.429" y2="1306.07" gradientUnits="userSpaceOnUse">
<stop stop-color="#256FF1"/>
<stop offset="0.716" stop-color="#4185FA"/>
<stop offset="1" stop-color="#4D8CFE"/>
</linearGradient>
<linearGradient id="paint7_linear_111_17" x1="187.538" y1="1040.44" x2="637.698" y2="1040.44" gradientUnits="userSpaceOnUse">
<stop stop-color="#B77441"/>
<stop offset="0.299" stop-color="#B77441"/>
<stop offset="1" stop-color="#E5A876"/>
</linearGradient>
<linearGradient id="paint8_linear_111_17" x1="561.272" y1="1053.86" x2="185.251" y2="1203.94" gradientUnits="userSpaceOnUse">
<stop stop-color="#B77441"/>
<stop offset="0.716" stop-color="#FFE7AB"/>
<stop offset="1" stop-color="#E5A876"/>
</linearGradient>
<linearGradient id="paint9_linear_111_17" x1="561.272" y1="951.725" x2="185.251" y2="1101.8" gradientUnits="userSpaceOnUse">
<stop stop-color="#4E8DFF"/>
<stop offset="0.716" stop-color="#327CF3"/>
<stop offset="1" stop-color="#236EF0"/>
</linearGradient>
<linearGradient id="paint10_linear_111_17" x1="672.662" y1="947.899" x2="313.433" y2="480.33" gradientUnits="userSpaceOnUse">
<stop stop-color="#468DFF"/>
<stop offset="0.716" stop-color="#468DFF"/>
<stop offset="1" stop-color="#468DFF"/>
</linearGradient>
<linearGradient id="paint11_linear_111_17" x1="326.183" y1="705.532" x2="609.94" y2="705.532" gradientUnits="userSpaceOnUse">
<stop stop-color="#1B43AA"/>
<stop offset="0.299" stop-color="#1B43AA"/>
<stop offset="1" stop-color="#1B43AA"/>
</linearGradient>
<linearGradient id="paint12_linear_111_17" x1="624.704" y1="851.967" x2="396.583" y2="551.607" gradientUnits="userSpaceOnUse">
<stop stop-color="#4D8CFE"/>
<stop offset="0.716" stop-color="#3980F6"/>
<stop offset="1" stop-color="#246EF0"/>
</linearGradient>
<linearGradient id="paint13_linear_111_17" x1="792.914" y1="908.065" x2="2129.23" y2="908.065" gradientUnits="userSpaceOnUse">
<stop stop-color="#669DED"/>
<stop offset="1" stop-color="#3084D7"/>
</linearGradient>
<linearGradient id="paint14_linear_111_17" x1="1291.35" y1="645.279" x2="1068.46" y2="425.012" gradientUnits="userSpaceOnUse">
<stop stop-color="#053F9B"/>
<stop offset="1" stop-color="#3084D7"/>
</linearGradient>
<linearGradient id="paint15_linear_111_17" x1="1360.78" y1="1625.07" x2="1898.26" y2="582.092" gradientUnits="userSpaceOnUse">
<stop stop-color="#053F9B"/>
<stop offset="1" stop-color="#3084D7"/>
</linearGradient>
<linearGradient id="paint16_linear_111_17" x1="1282.44" y1="697.086" x2="1889.36" y2="1089.19" gradientUnits="userSpaceOnUse">
<stop stop-color="white"/>
<stop offset="1" stop-color="#3084D7"/>
</linearGradient>
<linearGradient id="paint17_linear_111_17" x1="1592.62" y1="394.852" x2="1129.72" y2="826.044" gradientUnits="userSpaceOnUse">
<stop stop-color="#149648"/>
<stop offset="0.993" stop-color="#5ED91A"/>
</linearGradient>
<linearGradient id="paint18_linear_111_17" x1="895.491" y1="795.438" x2="2008.23" y2="795.438" gradientUnits="userSpaceOnUse">
<stop stop-color="#149648"/>
<stop offset="0.993" stop-color="#5ED91A"/>
</linearGradient>
<linearGradient id="paint19_linear_111_17" x1="776.353" y1="1019.68" x2="1495.51" y2="1019.68" gradientUnits="userSpaceOnUse">
<stop stop-color="#669DED"/>
<stop offset="1" stop-color="#3084D7"/>
</linearGradient>
<linearGradient id="paint20_linear_111_17" x1="1320.87" y1="1173.96" x2="887.781" y2="1023.58" gradientUnits="userSpaceOnUse">
<stop stop-color="#053F9B"/>
<stop offset="1" stop-color="#3084D7"/>
</linearGradient>
<linearGradient id="paint21_linear_111_17" x1="1178.65" y1="1161.65" x2="1452.34" y2="1140.6" gradientUnits="userSpaceOnUse">
<stop stop-color="#053F9B"/>
<stop offset="1" stop-color="#3084D7"/>
</linearGradient>
<linearGradient id="paint22_linear_111_17" x1="1700.84" y1="1206.99" x2="1668.73" y2="1743.98" gradientUnits="userSpaceOnUse">
<stop stop-color="#F58220"/>
<stop offset="0.987" stop-color="#FFF200"/>
</linearGradient>
<linearGradient id="paint23_linear_111_17" x1="1960.34" y1="1729.42" x2="1831.93" y2="1113.64" gradientUnits="userSpaceOnUse">
<stop stop-color="#F58220"/>
<stop offset="0.987" stop-color="#FFF200"/>
</linearGradient>
<linearGradient id="paint24_linear_111_17" x1="1781.08" y1="724.275" x2="1579.71" y2="1252.51" gradientUnits="userSpaceOnUse">
<stop stop-color="#F58220"/>
<stop offset="0.987" stop-color="#FFF200"/>
</linearGradient>
<clipPath id="clip0_111_17">
<rect width="2229" height="2082" fill="white"/>
</clipPath>
</defs>
</svg>
