<svg width="36" height="36" viewBox="0 0 36 36" fill="none" xmlns="http://www.w3.org/2000/svg">
<path fill-rule="evenodd" clip-rule="evenodd" d="M7.19578 10.4956C11.5952 8.74924 17.0779 10.2537 20.4543 14.4738C23.6441 18.4608 24.0015 23.6811 21.7095 27.4542L22.1009 27.9116L19.5228 29.9493C19.4783 29.9852 19.4332 30.0209 19.3875 30.0563C14.7792 33.6327 7.77469 32.4574 3.75523 27.4334C-0.264238 22.4096 0.213819 15.4272 4.82196 11.8509L6.94538 10.2031L7.19578 10.4956Z" fill="#006CBE"/>
<path fill-rule="evenodd" clip-rule="evenodd" d="M22.734 18.8662C23.9725 22.1308 23.3896 24.6892 21.7098 27.4545L22.1013 27.9118L19.5232 29.9495C19.4787 29.9854 19.4335 30.0211 19.3879 30.0565C16.1309 32.5842 11.6766 32.7383 7.92578 30.8376L22.734 18.8662Z" fill="#005799"/>
<path fill-rule="evenodd" clip-rule="evenodd" d="M3.94121 27.6595L11.6206 21.8377L12.5805 23.0694L5.02077 28.8006C4.64284 28.4471 4.28211 28.0666 3.94121 27.6595ZM1.48242 23.0601L9.75557 16.7881L10.7155 18.0198L2.03729 24.5989C1.81546 24.0927 1.6305 23.5782 1.48242 23.0601Z" fill="#005799"/>
<path fill-rule="evenodd" clip-rule="evenodd" d="M1.06055 19.0129C1.27349 16.225 2.54252 13.6209 4.82306 11.8509L6.94647 10.2031L7.19687 10.4956C8.47174 9.98943 9.8377 9.75638 11.2171 9.78335L1.06055 19.0129Z" fill="#51B4FF"/>
<path fill-rule="evenodd" clip-rule="evenodd" d="M6.94506 10.2035C11.5532 6.62716 18.5578 7.80248 22.5772 12.8263C26.5967 17.8503 26.1188 24.8325 21.5105 28.4089C16.9023 31.9852 9.89779 30.81 5.87832 25.786C1.85886 20.762 2.33677 13.7798 6.94506 10.2035Z" fill="#0091FF"/>
<path fill-rule="evenodd" clip-rule="evenodd" d="M15.5481 8.39941C18.1206 8.96375 20.5941 10.4182 22.4565 12.6773L12.6801 30.1608C10.134 29.5486 7.69983 28.0624 5.8787 25.7861L5.84766 25.747L15.5481 8.39941Z" fill="#39AAFF"/>
<path fill-rule="evenodd" clip-rule="evenodd" d="M8.05316 11.587C4.26194 14.5293 3.92599 20.3837 7.34103 24.6522C10.7561 28.9207 16.614 29.9682 20.4052 27.0259C24.1965 24.0837 24.5324 18.2292 21.1174 13.9607C17.7023 9.69228 11.8444 8.64478 8.05316 11.587ZM8.32148 11.9224C11.934 9.11876 17.5016 10.174 20.7558 14.2414C24.0101 18.3087 23.7496 23.8869 20.1369 26.6905C16.5244 29.4942 10.9568 28.439 7.70263 24.3717C4.44835 20.3043 4.7088 14.726 8.32148 11.9224Z" fill="white"/>
<path fill-rule="evenodd" clip-rule="evenodd" d="M12.6083 8.14612C16.2136 7.9737 20.0065 9.61251 22.5776 12.8263C26.5971 17.8502 26.1192 24.8325 21.5109 28.4089C20.9272 28.862 20.3048 29.2388 19.6543 29.5415C16.0491 29.7139 12.2563 28.075 9.68496 24.8612C5.6655 19.8372 6.14341 12.855 10.7517 9.27874C11.3356 8.82561 11.9579 8.4487 12.6083 8.14612Z" fill="#004C86" fill-opacity="0.35"/>
<path fill-rule="evenodd" clip-rule="evenodd" d="M15.4961 6.53024C20.2296 4.65139 26.1283 6.27008 29.761 10.8105C33.1931 15.1001 33.5775 20.7167 31.1116 24.7763L31.5328 25.2685L28.7589 27.4608C28.711 27.4993 28.6624 27.5378 28.6133 27.5758C23.6552 31.4236 16.119 30.1592 11.7943 24.754C7.46981 19.3486 7.98401 11.8362 12.9421 7.98846L15.2266 6.21557L15.4961 6.53024Z" fill="#E9A301"/>
<path fill-rule="evenodd" clip-rule="evenodd" d="M32.2137 15.5361C33.5461 19.0485 32.9191 21.8012 31.1118 24.7763L31.533 25.2685L28.7591 27.4609C28.7112 27.4994 28.6626 27.5378 28.6135 27.5759C25.1091 30.2956 20.3167 30.4613 16.2812 28.4163L32.2137 15.5361Z" fill="#DC6803"/>
<path fill-rule="evenodd" clip-rule="evenodd" d="M11.9933 24.9966L20.2555 18.7327L21.2883 20.058L13.1546 26.2242C12.7481 25.844 12.36 25.4346 11.9933 24.9966ZM9.34766 20.048L18.249 13.2998L19.2816 14.6251L9.94464 21.7037C9.70605 21.159 9.50711 20.6055 9.34766 20.048Z" fill="#DC6803"/>
<path fill-rule="evenodd" clip-rule="evenodd" d="M8.89453 15.6941C9.1235 12.6946 10.4889 9.89287 12.9426 7.98852L15.227 6.21563L15.4965 6.5303C16.8683 5.98578 18.3379 5.73509 19.8219 5.76395L8.89453 15.6941Z" fill="#FEDC8E"/>
<path fill-rule="evenodd" clip-rule="evenodd" d="M15.2272 6.21519C20.1853 2.36727 27.7215 3.63179 32.0462 9.03704C36.3708 14.4424 35.8565 21.9548 30.8984 25.8025C25.9405 29.6503 18.4041 28.3858 14.0796 22.9806C9.75489 17.5753 10.2692 10.063 15.2272 6.21519Z" fill="#FEC84B"/>
<path fill-rule="evenodd" clip-rule="evenodd" d="M24.4817 4.27441C27.2495 4.88146 29.9107 6.44637 31.9145 8.87688L21.3959 27.6875C18.6566 27.029 16.0377 25.43 14.0783 22.9809L14.0449 22.9389L24.4817 4.27441Z" fill="#FED472"/>
<path fill-rule="evenodd" clip-rule="evenodd" d="M16.4173 7.70299C12.3382 10.8685 11.9768 17.1673 15.6511 21.7599C19.3254 26.3524 25.6281 27.4794 29.7071 24.3139C33.7862 21.1482 34.1477 14.8493 30.4733 10.2568C26.799 5.66425 20.4964 4.53732 16.4173 7.70299ZM16.706 8.06371C20.5929 5.04729 26.583 6.18253 30.0843 10.5588C33.5855 14.9349 33.3053 20.9366 29.4184 23.953C25.5316 26.9694 19.5413 25.8342 16.0401 21.458C12.5389 17.0818 12.8191 11.0803 16.706 8.06371Z" fill="white"/>
</svg>
