<svg width="24" height="24" viewBox="0 0 24 24" fill="none" xmlns="http://www.w3.org/2000/svg">
<path fill-rule="evenodd" clip-rule="evenodd" d="M20.0079 3.77594C19.9258 3.42461 19.5765 3.21568 19.2283 3.30959L18.0014 3.64065C17.6532 3.73461 17.4372 4.09609 17.5194 4.44742L19.9966 15.0433C20.0787 15.3946 20.4281 15.6036 20.7762 15.5097L22.0032 15.1786C22.3513 15.0846 22.5673 14.7232 22.4851 14.3718L20.0079 3.77594Z" fill="#0075CE"/>
<path fill-rule="evenodd" clip-rule="evenodd" d="M19.4032 3.95076C19.3196 3.59313 18.964 3.38038 18.6095 3.47602L2.8385 7.73153C2.48407 7.82716 2.26422 8.19519 2.34782 8.55282L4.8197 19.1258C4.9033 19.4834 5.25892 19.6962 5.61335 19.6005L21.3844 15.345C21.7389 15.2494 21.9587 14.8814 21.8751 14.5237L19.4032 3.95076Z" fill="#008FFD"/>
<path fill-rule="evenodd" clip-rule="evenodd" d="M19.6433 4.97656L2.58789 9.57862L3.06239 11.6082L20.1178 7.00617L19.6433 4.97656Z" fill="#0076D1"/>
<path fill-rule="evenodd" clip-rule="evenodd" d="M23.2636 8.75352C23.3026 8.38831 23.0377 8.0918 22.6724 8.0918H6.24067C5.87541 8.0918 5.54732 8.38831 5.50835 8.75352L4.35731 19.5504C4.31838 19.9157 4.58327 20.2122 4.94852 20.2122H21.3803C21.7455 20.2122 22.0736 19.9157 22.1126 19.5504L23.2636 8.75352Z" fill="#0086EC"/>
<path fill-rule="evenodd" clip-rule="evenodd" d="M22.6308 8.75352C22.6697 8.38831 22.4049 8.0918 22.0396 8.0918H5.60782C5.24261 8.0918 4.91447 8.38831 4.87554 8.75352L3.72451 19.5504C3.68554 19.9157 3.95046 20.2122 4.31568 20.2122H20.7474C21.1127 20.2122 21.4408 19.9157 21.4798 19.5504L22.6308 8.75352Z" fill="#41ADFF"/>
<path fill-rule="evenodd" clip-rule="evenodd" d="M4.29316 14.2174C4.81318 13.9391 5.40724 13.7812 6.03786 13.7812C8.08336 13.7812 9.74405 15.4419 9.74405 17.4874C9.74405 18.565 9.28316 19.5358 8.54782 20.2134H4.31568C3.95046 20.2134 3.68554 19.9169 3.72451 19.5516L4.29316 14.2174Z" fill="#0091FF"/>
<path fill-rule="evenodd" clip-rule="evenodd" d="M22.5018 9.96289H4.74654L4.50586 12.2203H22.2611L22.5018 9.96289Z" fill="#005FA7"/>
<path fill-rule="evenodd" clip-rule="evenodd" d="M4.42972 20.6154C2.771 20.247 1.5293 18.7659 1.5293 16.9972C1.5293 15.2284 2.771 13.7474 4.42972 13.379V13.291H5.23545H5.24745C7.28761 13.2976 8.94164 14.9558 8.94164 16.9972C8.94164 19.0427 7.28095 20.7034 5.23545 20.7034H4.42972V20.6154Z" fill="#E9A301"/>
<path fill-rule="evenodd" clip-rule="evenodd" d="M8.92961 16.7117C8.93675 16.8055 8.94037 16.9004 8.94037 16.9962C8.94037 17.1093 8.93531 17.2212 8.92536 17.3318H5.83594V16.7117H8.92961ZM8.47028 15.1895C8.58025 15.3858 8.67287 15.5932 8.74604 15.8096H5.83594V15.1895H8.47028Z" fill="#DC6803"/>
<path fill-rule="evenodd" clip-rule="evenodd" d="M8.60444 18.543C8.01809 19.8174 6.72947 20.7031 5.23561 20.7031H4.42988V20.6151C3.93158 20.5044 3.47093 20.2934 3.07031 20.0043V18.543H8.60444Z" fill="#DC6803"/>
<path fill-rule="evenodd" clip-rule="evenodd" d="M3.4668 13.7394C3.76491 13.5772 4.08787 13.4546 4.4284 13.379V13.291H5.23413H5.24613C6.21845 13.2942 7.10312 13.6725 7.7626 14.2885H3.4668V13.7394Z" fill="#FEDC8E"/>
<path d="M4.42885 20.7034C6.47572 20.7034 8.13504 19.0441 8.13504 16.9972C8.13504 14.9503 6.47572 13.291 4.42885 13.291C2.38198 13.291 0.722656 14.9503 0.722656 16.9972C0.722656 19.0441 2.38198 20.7034 4.42885 20.7034Z" fill="#FEC84B"/>
<path fill-rule="evenodd" clip-rule="evenodd" d="M3.45261 13.4199L7.72971 18.6818C7.25633 19.6062 6.4059 20.3061 5.38208 20.5782L1.11719 15.3313C1.58495 14.4034 2.43117 13.6985 3.45261 13.4199Z" fill="#FED472"/>
<path fill-rule="evenodd" clip-rule="evenodd" d="M4.42948 13.8574C2.6973 13.8574 1.29102 15.2637 1.29102 16.9959C1.29102 18.7281 2.6973 20.1344 4.42948 20.1344C6.16165 20.1344 7.56794 18.7281 7.56794 16.9959C7.56794 15.2637 6.16165 13.8574 4.42948 13.8574ZM4.42948 14.0127C6.07597 14.0127 7.4127 15.3494 7.4127 16.9959C7.4127 18.6424 6.07597 19.9791 4.42948 19.9791C2.78299 19.9791 1.44625 18.6424 1.44625 16.9959C1.44625 15.3494 2.78299 14.0127 4.42948 14.0127Z" fill="white"/>
<path fill-rule="evenodd" clip-rule="evenodd" d="M18.3729 19.1317C18.1143 19.3453 17.7827 19.4737 17.4214 19.4737C16.596 19.4737 15.9258 18.8035 15.9258 17.978C15.9258 17.1526 16.596 16.4824 17.4214 16.4824C17.7827 16.4824 18.1143 16.6108 18.3729 16.8244C18.0406 17.0988 17.8287 17.5139 17.8287 17.978C17.8287 18.4422 18.0406 18.8573 18.3729 19.1317Z" fill="#0076D1"/>
<path fill-rule="evenodd" clip-rule="evenodd" d="M18.373 16.8244C18.6316 16.6108 18.9632 16.4824 19.3245 16.4824C20.1499 16.4824 20.8201 17.1526 20.8201 17.978C20.8201 18.8035 20.1499 19.4737 19.3245 19.4737C18.9632 19.4737 18.6316 19.3453 18.373 19.1317C18.7054 18.8573 18.9173 18.4422 18.9173 17.978C18.9173 17.5139 18.7054 17.0988 18.373 16.8244Z" fill="#0076D1"/>
<path fill-rule="evenodd" clip-rule="evenodd" d="M18.3743 16.8242C18.7066 17.0987 18.9185 17.5137 18.9185 17.9779C18.9185 18.4421 18.7066 18.8571 18.3743 19.1315C18.0419 18.8571 17.8301 18.4421 17.8301 17.9779C17.8301 17.5137 18.0419 17.0987 18.3743 16.8242Z" fill="#005AA0"/>
</svg>
