<svg width="36" height="36" viewBox="0 0 36 36" fill="none" xmlns="http://www.w3.org/2000/svg">
<path fill-rule="evenodd" clip-rule="evenodd" d="M15.5272 32.6541L15.5189 34.3586L18.8044 34.2456C18.8044 34.2456 31.1217 30.9329 32.6534 9.52171C32.6534 9.52171 23.1185 5.67627 18.7562 1.65986L18.7015 1.62109L15.6786 1.73403L15.6743 2.62181C13.469 3.72637 9.67605 7.34371 5.82356 8.7742C5.82356 8.7742 4.11158 22.374 15.5272 32.6541Z" fill="#4FB3FF"/>
<path fill-rule="evenodd" clip-rule="evenodd" d="M32.654 9.52269L29.3685 9.43359L15.5195 34.3596L18.805 34.2466C18.805 34.2466 31.1222 30.9339 32.654 9.52269Z" fill="#00589B"/>
<path fill-rule="evenodd" clip-rule="evenodd" d="M29.3862 23.3047H24.0867C21.5555 27.3135 18.7095 31.0075 15.5195 34.3575L18.805 34.2446C18.805 34.2446 25.3947 32.3359 29.3862 23.3047Z" fill="#0073CA"/>
<path fill-rule="evenodd" clip-rule="evenodd" d="M15.6794 1.73438C15.6794 1.73438 9.85323 6.67101 3.8841 8.88748C3.8841 8.88748 1.98555 24.166 15.5197 34.3589C15.5197 34.3589 27.837 30.8442 29.3687 9.43295C29.3687 9.43295 22.1161 7.03366 15.6794 1.73438Z" fill="#0091FF"/>
<path fill-rule="evenodd" clip-rule="evenodd" d="M16.1697 4.83594C16.1697 4.83594 11.4789 8.81057 6.67299 10.5951C6.67299 10.5951 5.14437 22.8963 16.0411 31.103C16.0411 31.103 25.9582 28.2731 27.1914 11.0343C27.1914 11.0343 21.3521 9.10254 16.1697 4.83594Z" fill="#4FB3FF"/>
<path fill-rule="evenodd" clip-rule="evenodd" d="M15.6288 34.3082C3.1122 24.052 4.9225 9.56696 4.9225 9.56696C10.786 7.38975 16.3799 2.56171 16.5808 2.45407C16.2181 2.23055 16.0039 1.96561 15.6794 1.73438C15.6794 1.73438 9.85323 6.67101 3.8841 8.88748C3.8841 8.88748 1.98555 24.166 15.5197 34.3589C15.5197 34.3589 15.5573 34.3426 15.6288 34.3082Z" fill="#4FB3FF"/>
<path fill-rule="evenodd" clip-rule="evenodd" d="M25.0643 34.2823C22.327 33.6743 19.7012 31.2302 19.7012 28.3114C19.7012 25.3926 22.327 22.9485 25.0643 22.3405V22.1953H25.8173L25.837 22.1954C29.2037 22.2063 31.9333 24.9426 31.9333 28.3114C31.9333 31.687 29.1928 34.4275 25.8173 34.4275H25.0643V34.2823Z" fill="#027A48"/>
<path d="M24.782 34.4275C28.1599 34.4275 30.8981 31.6892 30.8981 28.3114C30.8981 24.9336 28.1599 22.1953 24.782 22.1953C21.4042 22.1953 18.666 24.9336 18.666 28.3114C18.666 31.6892 21.4042 34.4275 24.782 34.4275Z" fill="#32D583"/>
<path fill-rule="evenodd" clip-rule="evenodd" d="M20.6106 32.7824C19.4144 31.6661 18.666 30.0755 18.666 28.3114C18.666 24.9358 21.4065 22.1953 24.782 22.1953C26.6639 22.1953 28.3485 23.0471 29.4708 24.3859C28.3775 23.3654 26.9107 22.7409 25.2992 22.7409C21.9237 22.7409 19.1831 25.4814 19.1831 28.8569C19.1831 30.3506 19.7198 31.72 20.6106 32.7824Z" fill="#84E6B5"/>
<path fill-rule="evenodd" clip-rule="evenodd" d="M21.9253 29.4364L23.9069 31.1902C24.2125 31.4607 24.678 31.4379 24.9558 31.1389L28.7266 27.0794C29.009 26.7755 28.9914 26.2995 28.6874 26.0172C28.3835 25.7349 27.9075 25.7524 27.6252 26.0563L24.3537 29.5782L22.9216 28.3107C22.611 28.0357 22.1355 28.0647 21.8606 28.3754C21.5856 28.6861 21.6146 29.1615 21.9253 29.4364Z" fill="white"/>
</svg>
