<svg width="1333" height="282" viewBox="0 0 1333 282" fill="none" xmlns="http://www.w3.org/2000/svg">
<g clip-path="url(#clip0_466_14)">
<ellipse cx="131.869" cy="141" rx="130.847" ry="130.783" fill="url(#paint0_linear_466_14)"/>
<g filter="url(#filter0_d_466_14)">
<path d="M166.063 55.273L86.9211 90.0242C80.4723 92.8558 77.5417 100.375 80.3754 106.82C83.2091 113.264 90.7341 116.192 97.1829 113.361L176.325 78.6095C182.773 75.7778 185.704 68.2582 182.87 61.814C180.037 55.3698 172.512 52.4413 166.063 55.273Z" fill="white"/>
</g>
<g filter="url(#filter1_d_466_14)">
<path d="M158.09 112.456L125.588 126.728C119.139 129.56 116.208 137.08 119.042 143.524C121.876 149.968 129.401 152.896 135.85 150.065L168.352 135.793C174.801 132.961 177.732 125.442 174.898 118.997C172.064 112.553 164.539 109.625 158.09 112.456Z" fill="white"/>
</g>
<g filter="url(#filter2_d_466_14)">
<path d="M103.777 150.152C100.943 143.707 93.418 140.779 86.9692 143.611C80.5204 146.442 77.5898 153.962 80.4235 160.406C83.2572 166.85 90.7822 169.779 97.231 166.947C103.68 164.115 106.61 156.596 103.777 150.152Z" fill="white"/>
</g>
<g filter="url(#filter3_d_466_14)">
<path d="M166.157 166.807L87.0157 201.558C80.5669 204.39 77.6363 211.909 80.47 218.353C83.3037 224.798 90.8287 227.726 97.2775 224.894L176.419 190.143C182.868 187.312 185.799 179.792 182.965 173.348C180.131 166.904 172.606 163.975 166.157 166.807Z" fill="white"/>
</g>
<path d="M403.918 205.801C390.094 205.801 377.977 203.071 367.566 197.609C357.326 191.977 349.39 184.127 343.758 174.057C338.126 163.988 335.31 152.297 335.31 138.985C335.31 126.015 338.041 114.58 343.502 104.681C348.964 94.7826 356.644 87.1026 366.542 81.6413C376.441 76.0093 387.876 73.1933 400.846 73.1933C421.326 73.1933 437.369 79.0813 448.974 90.8573C460.58 102.633 466.382 118.932 466.382 139.753C466.382 141.972 466.212 145.3 465.87 149.737H364.75C365.945 158.953 370.126 166.292 377.294 171.753C384.462 177.215 393.593 179.945 404.686 179.945C411.854 179.945 418.766 178.751 425.422 176.361C432.078 173.972 437.284 170.815 441.038 166.889L458.446 183.785C452.132 190.612 444.11 195.988 434.382 199.913C424.825 203.839 414.67 205.801 403.918 205.801ZM438.478 127.465C437.454 118.42 433.614 111.252 426.958 105.961C420.473 100.671 412.025 98.0253 401.614 98.0253C391.716 98.0253 383.609 100.585 377.294 105.705C370.98 110.825 366.884 118.079 365.006 127.465H438.478ZM539.874 205.289C518.541 205.289 499.512 199.06 482.786 186.601L496.098 165.865C501.73 170.303 508.472 173.801 516.322 176.361C524.173 178.751 532.28 179.945 540.642 179.945C548.664 179.945 554.893 178.751 559.33 176.361C563.768 173.801 565.986 170.217 565.986 165.609C565.986 161.172 563.768 157.759 559.33 155.369C555.064 152.98 548.066 151.273 538.338 150.249C521.784 148.713 508.984 144.617 499.938 137.961C491.064 131.135 486.626 122.26 486.626 111.337C486.626 103.657 488.93 96.9159 493.538 91.1133C498.146 85.3106 504.546 80.7879 512.738 77.5453C521.101 74.3026 530.658 72.6813 541.41 72.6813C560.866 72.6813 577.592 77.5453 591.586 87.2733L579.042 107.753C567.778 100.585 555.661 97.0013 542.69 97.0013C533.645 97.0013 526.733 98.2813 521.954 100.841C517.176 103.231 514.786 106.729 514.786 111.337C514.786 115.433 516.749 118.676 520.674 121.065C524.77 123.284 531.426 124.905 540.642 125.929C559.416 127.977 573.069 132.159 581.602 138.473C590.136 144.788 594.402 153.919 594.402 165.865C594.402 173.716 592.098 180.628 587.49 186.601C583.053 192.404 576.653 197.012 568.29 200.425C560.098 203.668 550.626 205.289 539.874 205.289ZM620.002 75.7533H645.602L645.858 92.6493C650.808 86.5053 657.293 81.7266 665.314 78.3133C673.336 74.7293 682.21 72.9373 691.938 72.9373C704.226 72.9373 715.064 75.7533 724.45 81.3853C734.008 86.8466 741.432 94.6119 746.722 104.681C752.013 114.751 754.658 126.185 754.658 138.985C754.658 151.785 752.013 163.22 746.722 173.289C741.432 183.359 734.008 191.209 724.45 196.841C715.064 202.303 704.226 205.033 691.938 205.033C683.234 205.033 675.042 203.583 667.362 200.681C659.853 197.78 653.624 193.684 648.674 188.393V260.585H620.002V75.7533ZM648.674 138.985C648.674 150.761 652.258 160.404 659.426 167.913C666.765 175.252 676.066 178.921 687.33 178.921C698.765 178.921 708.066 175.252 715.234 167.913C722.402 160.404 725.986 150.761 725.986 138.985C725.986 127.209 722.402 117.652 715.234 110.313C708.066 102.804 698.765 99.0493 687.33 99.0493C676.066 99.0493 666.765 102.804 659.426 110.313C652.258 117.652 648.674 127.209 648.674 138.985ZM841.668 205.801C827.844 205.801 815.727 203.071 805.316 197.609C795.076 191.977 787.14 184.127 781.508 174.057C775.876 163.988 773.06 152.297 773.06 138.985C773.06 126.015 775.791 114.58 781.252 104.681C786.714 94.7826 794.394 87.1026 804.292 81.6413C814.191 76.0093 825.626 73.1933 838.596 73.1933C859.076 73.1933 875.119 79.0813 886.724 90.8573C898.33 102.633 904.132 118.932 904.132 139.753C904.132 141.972 903.962 145.3 903.62 149.737H802.5C803.695 158.953 807.876 166.292 815.044 171.753C822.212 177.215 831.343 179.945 842.436 179.945C849.604 179.945 856.516 178.751 863.172 176.361C869.828 173.972 875.034 170.815 878.788 166.889L896.196 183.785C889.882 190.612 881.86 195.988 872.132 199.913C862.575 203.839 852.42 205.801 841.668 205.801ZM876.228 127.465C875.204 118.42 871.364 111.252 864.708 105.961C858.223 100.671 849.775 98.0253 839.364 98.0253C829.466 98.0253 821.359 100.585 815.044 105.705C808.73 110.825 804.634 118.079 802.756 127.465H876.228ZM929.752 75.7533H955.352L955.608 92.3933C966.36 79.5933 980.952 73.1933 999.384 73.1933C1010.14 73.1933 1019.61 75.6679 1027.8 80.6173C1035.99 85.3959 1042.31 92.2226 1046.74 101.097C1051.18 109.972 1053.4 120.383 1053.4 132.329V202.217H1024.73V134.121C1024.73 123.028 1022 114.409 1016.54 108.265C1011.07 102.121 1003.57 99.0493 994.008 99.0493C983.598 99.0493 975.064 102.548 968.408 109.545C961.752 116.372 958.424 125.076 958.424 135.657V202.217H929.752V75.7533ZM1139.55 204.009C1126.24 204.009 1116 200.169 1108.83 192.489C1101.66 184.809 1098.08 173.545 1098.08 158.697V100.073H1074.27V75.7533H1098.08V42.7293L1126.49 39.6573V75.7533H1162.84V100.073H1126.49V158.697C1126.49 165.183 1127.94 170.132 1130.84 173.545C1133.92 176.959 1138.35 178.665 1144.16 178.665C1149.28 178.665 1154.57 177.385 1160.03 174.825L1167.96 197.865C1163.01 200.084 1158.32 201.62 1153.88 202.473C1149.62 203.497 1144.84 204.009 1139.55 204.009ZM1248.64 205.033C1235.16 205.033 1223.3 202.217 1213.06 196.585C1202.82 190.783 1194.88 182.932 1189.25 173.033C1183.79 162.964 1181.06 151.615 1181.06 138.985C1181.06 126.356 1183.79 115.092 1189.25 105.193C1194.88 95.1239 1202.82 87.2733 1213.06 81.6413C1223.3 75.8386 1235.16 72.9373 1248.64 72.9373C1261.96 72.9373 1273.73 75.8386 1283.97 81.6413C1294.21 87.2733 1302.06 95.1239 1307.52 105.193C1313.16 115.092 1315.97 126.356 1315.97 138.985C1315.97 151.615 1313.16 162.964 1307.52 173.033C1302.06 182.932 1294.21 190.783 1283.97 196.585C1273.73 202.217 1261.96 205.033 1248.64 205.033ZM1209.73 138.985C1209.73 146.324 1211.35 153.065 1214.6 159.209C1217.84 165.183 1222.36 169.961 1228.16 173.545C1234.14 177.129 1240.96 178.921 1248.64 178.921C1256.32 178.921 1263.07 177.129 1268.87 173.545C1274.84 169.961 1279.36 165.183 1282.44 159.209C1285.68 153.065 1287.3 146.324 1287.3 138.985C1287.3 131.647 1285.68 124.991 1282.44 119.017C1279.36 112.873 1274.84 108.009 1268.87 104.425C1263.07 100.841 1256.32 99.0493 1248.64 99.0493C1240.96 99.0493 1234.14 100.841 1228.16 104.425C1222.36 108.009 1217.84 112.873 1214.6 119.017C1211.35 124.991 1209.73 131.647 1209.73 138.985Z" fill="#272727"/>
</g>
<defs>
<filter id="filter0_d_466_14" x="75.2946" y="54.1929" width="112.657" height="68.248" filterUnits="userSpaceOnUse" color-interpolation-filters="sRGB">
<feFlood flood-opacity="0" result="BackgroundImageFix"/>
<feColorMatrix in="SourceAlpha" type="matrix" values="0 0 0 0 0 0 0 0 0 0 0 0 0 0 0 0 0 0 127 0" result="hardAlpha"/>
<feOffset dy="4"/>
<feGaussianBlur stdDeviation="2"/>
<feComposite in2="hardAlpha" operator="out"/>
<feColorMatrix type="matrix" values="0 0 0 0 0 0 0 0 0 0 0 0 0 0 0 0 0 0 0.25 0"/>
<feBlend mode="normal" in2="BackgroundImageFix" result="effect1_dropShadow_466_14"/>
<feBlend mode="normal" in="SourceGraphic" in2="effect1_dropShadow_466_14" result="shape"/>
</filter>
<filter id="filter1_d_466_14" x="113.961" y="111.376" width="66.0175" height="47.7686" filterUnits="userSpaceOnUse" color-interpolation-filters="sRGB">
<feFlood flood-opacity="0" result="BackgroundImageFix"/>
<feColorMatrix in="SourceAlpha" type="matrix" values="0 0 0 0 0 0 0 0 0 0 0 0 0 0 0 0 0 0 127 0" result="hardAlpha"/>
<feOffset dy="4"/>
<feGaussianBlur stdDeviation="2"/>
<feComposite in2="hardAlpha" operator="out"/>
<feColorMatrix type="matrix" values="0 0 0 0 0 0 0 0 0 0 0 0 0 0 0 0 0 0 0.25 0"/>
<feBlend mode="normal" in2="BackgroundImageFix" result="effect1_dropShadow_466_14"/>
<feBlend mode="normal" in="SourceGraphic" in2="effect1_dropShadow_466_14" result="shape"/>
</filter>
<filter id="filter2_d_466_14" x="75.3427" y="142.531" width="33.5149" height="33.4966" filterUnits="userSpaceOnUse" color-interpolation-filters="sRGB">
<feFlood flood-opacity="0" result="BackgroundImageFix"/>
<feColorMatrix in="SourceAlpha" type="matrix" values="0 0 0 0 0 0 0 0 0 0 0 0 0 0 0 0 0 0 127 0" result="hardAlpha"/>
<feOffset dy="4"/>
<feGaussianBlur stdDeviation="2"/>
<feComposite in2="hardAlpha" operator="out"/>
<feColorMatrix type="matrix" values="0 0 0 0 0 0 0 0 0 0 0 0 0 0 0 0 0 0 0.25 0"/>
<feBlend mode="normal" in2="BackgroundImageFix" result="effect1_dropShadow_466_14"/>
<feBlend mode="normal" in="SourceGraphic" in2="effect1_dropShadow_466_14" result="shape"/>
</filter>
<filter id="filter3_d_466_14" x="75.3892" y="165.727" width="112.657" height="68.248" filterUnits="userSpaceOnUse" color-interpolation-filters="sRGB">
<feFlood flood-opacity="0" result="BackgroundImageFix"/>
<feColorMatrix in="SourceAlpha" type="matrix" values="0 0 0 0 0 0 0 0 0 0 0 0 0 0 0 0 0 0 127 0" result="hardAlpha"/>
<feOffset dy="4"/>
<feGaussianBlur stdDeviation="2"/>
<feComposite in2="hardAlpha" operator="out"/>
<feColorMatrix type="matrix" values="0 0 0 0 0 0 0 0 0 0 0 0 0 0 0 0 0 0 0.25 0"/>
<feBlend mode="normal" in2="BackgroundImageFix" result="effect1_dropShadow_466_14"/>
<feBlend mode="normal" in="SourceGraphic" in2="effect1_dropShadow_466_14" result="shape"/>
</filter>
<linearGradient id="paint0_linear_466_14" x1="26.801" y1="210.1" x2="236.877" y2="76.101" gradientUnits="userSpaceOnUse">
<stop stop-color="#2E5AD0"/>
<stop offset="1" stop-color="#4076F4"/>
</linearGradient>
<clipPath id="clip0_466_14">
<rect width="1333" height="282" fill="white"/>
</clipPath>
</defs>
</svg>
