<?xml version="1.0" encoding="UTF-8"?>
<svg width="36px" height="36px" viewBox="0 0 36 36" version="1.1" xmlns="http://www.w3.org/2000/svg" xmlns:xlink="http://www.w3.org/1999/xlink">
    <title>Group 7</title>
    <g id="navigation-bar" stroke="none" stroke-width="1" fill="none" fill-rule="evenodd">
        <g id="Artboard" transform="translate(-113.000000, -213.000000)">
            <g id="Group-7" transform="translate(113.000000, 213.000000)">
                <rect id="Rectangle-Copy-6" fill="#17122B" x="0" y="0" width="36" height="36" rx="10"></rect>
                <g id="Cross-Chain" transform="translate(8.000000, 11.000000)">
                    <path d="M8.98550725,0 C13.9480659,0 17.9710145,4.11234748 17.9710145,9.18518519 C17.9710145,9.67610496 17.5816969,10.0740741 17.1014493,10.0740741 C16.6212017,10.0740741 16.2318841,9.67610496 16.2318841,9.18518519 C16.2318841,5.09418704 12.9875707,1.77777778 8.98550725,1.77777778 C7.95189741,1.77777778 6.96883177,1.99899221 6.07914717,2.39763229 C6.27290193,2.37918404 6.4687774,2.37037037 6.66666667,2.37037037 C10.348565,2.37037037 13.3333333,5.42146689 13.3333333,9.18518519 C13.3333333,9.67610496 12.9440157,10.0740741 12.4637681,10.0740741 C11.9835205,10.0740741 11.5942029,9.67610496 11.5942029,9.18518519 C11.5942029,6.40330645 9.38806978,4.14814815 6.66666667,4.14814815 C3.94526355,4.14814815 1.73913043,6.40330645 1.73913043,9.18518519 C1.73913043,9.6383419 1.40740419,10.0122981 0.978641631,10.0671484 L0.869565217,10.0740741 L0.869565217,10.0740741 C0.389317609,10.0740741 0,9.67610496 0,9.18518519 C0,4.11234748 4.02294862,0 8.98550725,0 Z" id="Combined-Shape" fill="#3E334C"></path>
                    <ellipse id="Oval-Copy-2" fill="#FD7918" cx="17.6811594" cy="10.962963" rx="2.31884058" ry="2.37037037"></ellipse>
                </g>
            </g>
        </g>
    </g>
</svg>