<?xml version="1.0" encoding="UTF-8"?>
<svg width="36px" height="36px" viewBox="0 0 36 36" version="1.1" xmlns="http://www.w3.org/2000/svg" xmlns:xlink="http://www.w3.org/1999/xlink">
    <title>Group 5</title>
    <g id="navigation-bar" stroke="none" stroke-width="1" fill="none" fill-rule="evenodd">
        <g id="Artboard" transform="translate(-113.000000, -81.000000)">
            <g id="Group-5" transform="translate(113.000000, 81.000000)">
                <rect id="Rectangle" fill="#17122B" x="0" y="0" width="36" height="36" rx="10"></rect>
                <g id="Group-15" transform="translate(10.000000, 9.000000)">
                    <path d="M9.85619381,8.59612801 C9.958535,8.59612801 10.0583637,8.62782835 10.1419542,8.68687364 L15.4406676,12.42984 C15.6640861,12.5876866 15.7172544,12.8967256 15.5594293,13.1201442 C15.5290278,13.1631816 15.4919533,13.2010921 15.4496043,13.2324456 L10.1509125,17.1554389 C9.93104711,17.3182168 9.62088829,17.2719396 9.4581319,17.0520957 C9.39498702,16.9668086 9.36090413,16.8634956 9.36090444,16.757377 L9.36090444,14.2336839 L5.02906057,14.2336839 C1.9419004,14.2512343 0.265539704,12.7255493 0,9.65665022 C0.268253028,9.93752236 1.4406891,11.594739 5.02906057,11.594739 C7.42130821,11.594739 8.86527052,11.5672397 9.36090444,11.5123057 L9.36090444,9.09141738 C9.36090444,8.81786691 9.58264334,8.59612801 9.85619381,8.59612801 Z" id="Path" fill="#FD7918"></path>
                    <path d="M6.5418681,0.200585617 C6.60501298,0.285872684 6.63909587,0.389185712 6.63909556,0.495304325 L6.63909556,3.01899746 L10.9709394,3.01899746 C14.0580996,3.00144699 15.7344603,4.52713205 16,7.59603111 C15.731747,7.31515897 14.5593109,5.65794228 10.9709394,5.65794228 C8.57869179,5.65794228 7.13472948,5.68544161 6.63909556,5.74037566 L6.63909556,8.16126395 C6.63909556,8.43481442 6.41735666,8.65655332 6.14380619,8.65655332 C6.041465,8.65655332 5.94163626,8.62485298 5.85804576,8.56580769 L0.559332436,4.82284134 C0.335913863,4.66499477 0.282745626,4.35595574 0.440570659,4.13253716 C0.470972233,4.08949968 0.50804671,4.05158922 0.550395693,4.02023568 L5.84908748,0.0972639479 C6.06895289,-0.0655139795 6.37911171,-0.0192367251 6.5418681,0.200607151 L6.5418681,0.200585617 Z" id="Path" fill="#3E334C"></path>
                </g>
            </g>
        </g>
    </g>
</svg>