<svg width="666" height="185" viewBox="0 0 666 185" fill="none" xmlns="http://www.w3.org/2000/svg">
<path fill-rule="evenodd" clip-rule="evenodd" d="M147.2 42.1984L148 47.1984C148.6 51.7984 148.9 56.3984 148.8 61.0984C148.8 71.3984 147.6 81.5984 145.2 91.5984C142 105.098 136.4 117.998 128.7 129.598C119.8 142.798 106.9 155.698 88.2 166.298L85.9 167.598L83.6 166.298C64.9 155.898 52 142.898 43.1 129.598C35.3 117.998 29.8 105.198 26.6 91.5984C24.2 81.5984 23 71.3984 23 61.0984C23 56.4984 23.2 51.7984 23.8 47.1984L24.5 42.1984C24.6 41.7984 24.6 41.3984 24.5 40.9984C24.4 40.5984 24.3 40.1984 24 39.8984C23.8 39.5984 23.5 39.2984 23.2 39.0984C22.9 38.8984 22.5 38.7984 22.2 38.6984C21.8 38.5984 21.4 38.5984 21 38.6984C20.6 38.7984 20.2 38.9984 19.9 39.1984C19.6 39.3984 19.3 39.6984 19.1 39.9984C18.9 40.3984 18.8 40.7984 18.7 41.1984L17.9 46.1984C17.3 51.0984 17 56.0984 17 61.0984C17 71.8984 18.3 82.5984 20.8 93.0984C22.5 100.198 24.8 107.198 27.7 113.898C30.6 120.598 34.1 126.998 38.2 133.098C47.6 147.098 61.2 160.798 80.8 171.598L84.5 173.698C85 173.898 85.5 173.998 86 173.998C86.5 173.998 87 173.898 87.5 173.698L91.2 171.598C110.7 160.698 124.4 146.998 133.8 133.098C142 120.898 147.9 107.298 151.2 93.0984C153.7 82.5984 154.9 71.8984 154.9 61.0984C154.9 56.0984 154.6 51.0984 154 46.0984L153.2 41.0984C153.1 40.6984 153 40.2984 152.8 39.8984C152.6 39.5984 152.3 39.2984 152 39.0984C151.7 38.8984 151.3 38.6984 150.9 38.5984C150.5 38.4984 150.1 38.4984 149.7 38.5984C149.3 38.6984 148.9 38.7984 148.5 38.9984C148.2 39.1984 147.9 39.4984 147.7 39.7984C147.5 40.0984 147.3 40.4984 147.2 40.8984V42.1984Z" fill="black"/>
<path fill-rule="evenodd" clip-rule="evenodd" d="M41.3 38.7984L86.1 24.6984L131.8 39.0984C132.2 39.1984 132.6 39.1984 133 39.1984C133.4 39.1984 133.8 39.0984 134.2 38.8984C134.6 38.6984 134.9 38.4984 135.2 38.0984C135.5 37.7984 135.7 37.3984 135.7 36.9984C135.8 36.5984 135.8 36.1984 135.8 35.7984C135.8 35.3984 135.7 34.9984 135.5 34.5984C135.3 34.1984 135.1 33.8984 134.8 33.5984C134.5 33.2984 134.1 33.0984 133.7 33.0984L87 18.2984C86.4 18.0984 85.8 18.0984 85.2 18.2984L39.6 32.6984C39.2 32.7984 38.9 32.9984 38.5 33.1984C38.2 33.4984 37.9 33.7984 37.8 34.1984C37.6 34.5984 37.5 34.9984 37.5 35.3984C37.5 35.7984 37.5 36.1984 37.6 36.5984C37.7 36.9984 37.9 37.3984 38.1 37.6984C38.3 37.9984 38.7 38.2984 39.1 38.4984C39.4 38.6984 39.8 38.7984 40.3 38.7984C40.5 38.8984 40.9 38.8984 41.3 38.7984Z" fill="black"/>
<path fill-rule="evenodd" clip-rule="evenodd" d="M19.1992 43.1016L83.2992 172.302C83.4992 172.802 83.8992 173.202 84.2992 173.502C85.2992 174.102 86.4992 174.102 87.4992 173.502C87.9992 173.202 88.3992 172.802 88.6992 172.302L127.799 96.8016L127.899 96.7016L152.899 43.0016C153.099 42.6016 153.199 42.2016 153.199 41.8016C153.199 41.4016 153.199 41.0016 152.999 40.6016C152.899 40.2016 152.699 39.8016 152.399 39.5016C152.199 39.2016 151.799 38.9016 151.499 38.7016C151.199 38.5016 150.799 38.4016 150.299 38.4016C149.899 38.4016 149.499 38.4016 149.099 38.5016C148.699 38.6016 148.299 38.8016 147.999 39.1016C147.699 39.4016 147.399 39.7016 147.299 40.1016L122.299 93.8016L85.8992 164.102L24.4992 40.1016C24.2992 39.8016 23.9992 39.4016 23.7992 39.1016C23.4992 38.8016 23.0992 38.6016 22.6992 38.5016C22.2992 38.3016 21.8992 38.3016 21.4992 38.4016C21.0992 38.4016 20.6992 38.5016 20.2992 38.7016C19.9992 38.9016 19.5992 39.2016 19.3992 39.5016C19.1992 39.8016 18.9992 40.2016 18.8992 40.6016C18.7992 41.0016 18.6992 41.4016 18.7992 41.8016C18.8992 42.3016 18.9992 42.7016 19.1992 43.1016Z" fill="black"/>
<path fill-rule="evenodd" clip-rule="evenodd" d="M49.9016 100.701H121.302C121.702 100.701 122.102 100.601 122.502 100.501C122.902 100.401 123.202 100.101 123.402 99.8008C123.702 99.5008 123.902 99.2008 124.002 98.8008C124.302 98.0008 124.302 97.2008 124.002 96.4008C123.902 96.0008 123.602 95.7008 123.402 95.4008C123.102 95.1008 122.802 94.9008 122.502 94.7008C122.102 94.6008 121.702 94.5008 121.302 94.5008H49.9016C49.5016 94.5008 49.1016 94.6008 48.7016 94.7008C48.3016 94.8008 48.0016 95.1008 47.8016 95.4008C47.5016 95.7008 47.3016 96.0008 47.2016 96.4008C46.9016 97.2008 46.9016 98.0008 47.2016 98.8008C47.3016 99.2008 47.5016 99.5008 47.8016 99.8008C48.1016 100.101 48.4016 100.301 48.7016 100.501C49.1016 100.601 49.5016 100.601 49.9016 100.701ZM248.902 73.8008H202.502C202.102 73.8008 201.702 73.9008 201.302 74.0008C200.902 74.1008 200.602 74.4008 200.402 74.7008C200.102 75.0008 199.902 75.3008 199.802 75.7008C199.702 76.1008 199.602 76.5008 199.602 76.9008V115.401C199.602 115.801 199.702 116.201 199.802 116.601C199.902 117.001 200.102 117.301 200.402 117.601C200.702 117.901 201.002 118.101 201.302 118.301C201.702 118.401 202.102 118.501 202.502 118.501H248.902V125.001H202.502C201.902 125.001 201.302 124.901 200.702 124.801C200.102 124.701 199.502 124.501 198.902 124.301C198.302 124.101 197.802 123.801 197.302 123.501C196.802 123.101 196.402 122.701 195.902 122.301C195.002 121.401 194.402 120.401 193.902 119.301C193.702 118.701 193.502 118.101 193.402 117.501C193.302 116.901 193.202 116.301 193.202 115.701V77.0008C193.202 76.4008 193.302 75.8008 193.402 75.2008C193.502 74.6008 193.702 74.0008 193.902 73.4008C194.102 72.8008 194.402 72.2008 194.702 71.7008C195.002 71.2008 195.402 70.7008 195.902 70.3008C196.302 69.9008 196.802 69.5008 197.302 69.1008C197.802 68.8008 198.302 68.5008 198.902 68.3008C199.502 68.1008 200.102 67.9008 200.702 67.8008C201.302 67.7008 201.902 67.6008 202.502 67.6008H248.902V73.8008ZM336.002 67.3008V73.8008H291.302V92.9008H327.202V99.5008H291.302V118.601H336.002V125.101H285.102V67.3008H336.002Z" fill="black"/>
<path d="M428.097 77.0984V93.9984C428.097 94.5984 427.997 95.1984 427.897 95.7984C427.797 96.3984 427.597 96.9984 427.397 97.5984C427.197 98.1984 426.897 98.7984 426.597 99.2984C426.197 99.7984 425.897 100.298 425.397 100.698C424.997 101.098 424.497 101.498 423.997 101.898C423.497 102.198 422.997 102.498 422.397 102.698C421.797 102.898 421.197 103.098 420.597 103.298C419.997 103.398 419.397 103.498 418.797 103.498H410.297L427.797 124.998H419.397L401.997 103.498H381.597C380.597 103.498 379.597 103.398 378.597 103.198V124.998H372.297V67.3984H418.897C419.497 67.3984 420.097 67.4984 420.697 67.5984C421.297 67.6984 421.897 67.8984 422.497 68.0984C423.097 68.2984 423.597 68.5984 424.097 68.9984C425.097 69.6984 425.897 70.5984 426.597 71.5984C426.897 72.0984 427.197 72.6984 427.397 73.2984C427.597 73.8984 427.797 74.4984 427.897 75.0984C427.997 75.7984 428.097 76.4984 428.097 77.0984ZM381.497 97.0984H418.797C419.197 97.0984 419.597 96.9984 419.997 96.8984C420.397 96.7984 420.697 96.5985 420.897 96.1985C421.197 95.8985 421.397 95.5985 421.497 95.1985C421.597 94.7985 421.697 94.3984 421.697 93.9984V77.0984C421.697 76.2984 421.397 75.4984 420.897 74.8984C420.397 74.2984 419.597 73.8984 418.797 73.8984H381.497C381.097 73.8984 380.697 73.9984 380.297 74.0984C379.897 74.1984 379.597 74.4984 379.397 74.7984C379.097 75.0984 378.897 75.3984 378.797 75.7984C378.697 76.1984 378.597 76.5984 378.597 76.9984V93.8984C378.597 94.6984 378.897 95.4984 379.597 96.0984C379.997 96.6984 380.797 97.0984 381.497 97.0984Z" fill="black"/>
<path fill-rule="evenodd" clip-rule="evenodd" d="M461.5 67.3008H517.3V73.8008H492.6V125.001H486.3V73.8008H461.5V67.3008ZM551.3 125.101V67.4008H557.6V125.101H551.3ZM641.5 67.3008H649.6L626.3 96.2008L649.7 125.101H641.5L620.7 99.5008H602.7V125.101H596.4V67.4008H602.8V93.0008H620.8L641.5 67.3008Z" fill="black"/>
</svg>
