<svg width="159" height="27" viewBox="0 0 159 27" fill="none" xmlns="http://www.w3.org/2000/svg">
    <g clip-path="url(#clip0_0_1)">
        <mask id="mask0_0_1" style="mask-type:luminance" maskUnits="userSpaceOnUse" x="0" y="0" width="159"
            height="27">
            <path d="M159 0H0V27H159V0Z" fill="white" />
        </mask>
        <g mask="url(#mask0_0_1)">
            <path fill-rule="evenodd" clip-rule="evenodd"
                d="M23.7538 16.1337C23.2805 16.432 22.7234 16.4688 22.2994 16.2319C21.762 15.9288 21.4662 15.2206 21.4662 14.2364V11.2909C21.4662 9.86727 20.9017 8.856 19.9563 8.58232C18.3552 8.11841 17.151 10.0673 16.6986 10.8012L13.8748 15.3581V9.7875C13.8428 8.50623 13.425 7.73918 12.63 7.50845C12.1049 7.35627 11.3185 7.41764 10.5556 8.57986L4.22763 18.6914C3.38085 17.091 2.93953 15.3089 2.94207 13.5C2.94207 7.40905 7.84642 2.45455 13.8748 2.45455C19.902 2.45455 24.8064 7.40905 24.8064 13.5L24.8089 13.5295V13.5601C24.8656 14.7383 24.481 15.6784 23.7538 16.135V16.1337ZM27.2358 13.5V13.4693L27.2345 13.4399C27.2013 6.02223 21.2209 0 13.8736 0C6.50663 0 0.512695 6.05536 0.512695 13.5C0.512695 20.9434 6.50663 27 13.8736 27C17.2524 27.0007 20.5032 25.7126 22.9576 23.4004C23.1036 23.2622 23.2138 23.0909 23.2788 22.9009C23.3436 22.7111 23.3612 22.5083 23.33 22.3101C23.2989 22.1119 23.2198 21.9242 23.0998 21.7631C22.9797 21.602 22.8222 21.4724 22.6408 21.3852C22.4223 21.2837 22.1782 21.2499 21.9402 21.2882C21.7022 21.3264 21.4812 21.4352 21.3059 21.6C19.298 23.4921 16.6382 24.5462 13.8736 24.5455C10.6468 24.5455 7.74289 23.1243 5.73875 20.8685L11.4455 11.7499V15.9545C11.4455 17.9734 12.2319 18.6263 12.8913 18.8165C13.5519 19.008 14.5614 18.8779 15.6201 17.1659L18.7595 12.1021C18.8593 11.9389 18.9517 11.7978 19.0368 11.6763V14.2364C19.0368 16.1239 19.7961 17.6335 21.1198 18.376C22.3142 19.0473 23.8154 18.9859 25.0381 18.2189C26.5197 17.2861 27.3184 15.5692 27.2358 13.5ZM45.8375 8.88791C46.158 9.08305 46.4366 9.51382 46.4366 9.90409C46.4366 10.53 45.9016 11.0479 45.3026 11.0479C45.1535 11.0479 45.0043 11.005 44.8749 10.962C44.1699 10.4441 43.2726 10.098 42.3309 10.098C40.1074 10.098 38.5679 11.9119 38.5679 14.159C38.5679 16.405 40.1074 18.198 42.3309 18.198C43.4427 18.198 44.4263 17.7439 45.1744 17.053C45.3678 16.9146 45.5994 16.8392 45.8375 16.837C46.4366 16.837 46.9062 17.3119 46.9062 17.917C46.9062 18.306 46.672 18.6521 46.3725 18.846C45.3026 19.7542 43.8494 20.358 42.3519 20.358C38.9315 20.358 36.1521 17.55 36.1521 14.094C36.1521 10.638 38.9303 7.83 42.3519 7.83C43.635 7.83 44.854 8.21905 45.8375 8.88791ZM52.0928 11.502C54.4235 11.502 56.3907 13.4681 56.3907 15.887C56.3907 18.306 54.4235 20.358 52.0928 20.358C49.656 20.358 47.6235 18.306 47.6235 15.887C47.6235 13.4681 49.656 11.502 52.0928 11.502ZM52.0718 18.198C53.0985 18.198 53.9749 17.226 53.9749 15.9079C53.9749 14.591 53.0985 13.77 52.0718 13.77C50.9601 13.77 50.0393 14.569 50.0393 15.9079C50.0393 17.226 50.9601 18.198 52.0718 18.198ZM57.8562 19.019V12.841C57.8562 12.1721 58.3911 11.61 59.0543 11.61C59.7174 11.61 60.2733 12.1721 60.2733 12.841V19.019C60.2733 19.6879 59.7174 20.25 59.0543 20.25C58.3911 20.25 57.8562 19.6879 57.8562 19.019ZM57.6652 9.27695C57.6652 8.478 58.2839 7.83 59.0543 7.83C59.8456 7.83 60.4865 8.478 60.4865 9.27818C60.4865 10.055 59.8456 10.681 59.0543 10.681C58.2839 10.681 57.6652 10.055 57.6652 9.27695ZM64.904 15.671V19.019C64.904 19.6879 64.3481 20.25 63.6838 20.25C63.0219 20.25 62.4869 19.6879 62.4869 19.019V12.5599C62.4869 12.042 62.9146 11.61 63.4286 11.61C63.9414 11.61 64.3481 12.042 64.3481 12.5599C65.3317 11.653 66.1858 11.502 66.9981 11.502C69.4139 11.502 70.4838 13.3159 70.4838 15.3679V19.019C70.4838 19.6879 69.9291 20.25 69.266 20.25C68.6029 20.25 68.068 19.6879 68.068 19.019V15.671C68.068 14.6119 67.9398 13.727 66.4213 13.727C65.3526 13.727 64.9028 14.6119 64.9028 15.671H64.904ZM78.3438 16.945C78.2242 16.9448 78.1063 16.9176 77.9988 16.8652C77.8915 16.8129 77.7974 16.7369 77.7238 16.643L74.9013 13.597V19.019C74.9013 19.6879 74.3441 20.25 73.681 20.25C73.0191 20.25 72.4842 19.6879 72.4842 19.019V8.28409C72.5188 8.19369 72.5807 8.11609 72.6612 8.06186C72.7417 8.00762 72.837 7.97938 72.9341 7.98095C73.1473 7.98095 73.3174 8.15523 73.4468 8.28409L77.937 13.3159C78.0652 13.4681 78.2366 13.554 78.3216 13.554C78.4079 13.554 78.578 13.4681 78.7062 13.3171L83.1976 8.28532C83.3258 8.15523 83.4971 7.98095 83.7104 7.98095C83.9236 7.98095 84.0949 8.11105 84.1602 8.28409V19.019C84.1602 19.6879 83.6253 20.25 82.9622 20.25C82.2991 20.25 81.742 19.6879 81.742 19.019V13.597L78.9206 16.643C78.7703 16.8149 78.578 16.945 78.3438 16.945ZM89.9668 18.198C91.0564 18.198 91.9759 17.226 91.9759 15.9079C91.9759 14.591 91.0354 13.727 89.9668 13.727C88.897 13.727 88.0416 14.6119 88.0416 15.9079C88.0416 17.183 88.897 18.198 89.9656 18.198H89.9668ZM92.5318 19.3001L92.4886 19.0178C92.019 19.9469 90.5215 20.358 89.5589 20.358C87.2909 20.358 85.6245 18.306 85.6245 15.887C85.6245 13.4681 87.3353 11.502 89.687 11.502C90.0938 11.502 91.441 11.61 92.4886 12.841L92.5318 12.5599C92.5318 12.042 92.9385 11.61 93.4513 11.61C93.964 11.61 94.3917 12.042 94.3917 12.5599V19.3001C94.3911 19.5497 94.2921 19.7892 94.116 19.9667C93.9398 20.1445 93.7007 20.2462 93.45 20.25C92.9373 20.25 92.5305 19.818 92.5305 19.3001H92.5318ZM101.097 13.727H100.84C99.3219 13.813 99.0224 14.677 99.0224 15.671V19.019C99.0224 19.6879 98.4678 20.25 97.8034 20.25C97.1403 20.25 96.6066 19.6879 96.6066 19.019V12.5599C96.6066 12.042 97.0331 11.61 97.5471 11.61C98.061 11.61 98.4665 12.042 98.4665 12.5599C99.3651 11.718 100.092 11.545 100.84 11.502H101.075C101.654 11.502 102.186 11.999 102.186 12.625C102.186 13.2079 101.674 13.727 101.097 13.727ZM110.41 18.457C110.517 18.63 110.581 18.8251 110.581 19.0399C110.581 19.6658 110.003 20.25 109.383 20.25C108.956 20.25 108.592 19.926 108.315 19.5799L105.535 16.362V19.019C105.535 19.6879 104.978 20.25 104.315 20.25C103.653 20.25 103.118 19.6879 103.118 19.019V9.21314C103.118 8.54305 103.653 7.98095 104.315 7.98095C104.978 7.98095 105.535 8.54305 105.535 9.21314V15.325L108.315 12.258C108.592 11.934 108.935 11.61 109.362 11.61C109.961 11.61 110.517 12.1721 110.517 12.798C110.521 12.9957 110.469 13.1905 110.367 13.3601L108.164 15.757L110.41 18.457ZM115.148 13.77C114.485 13.77 113.415 14.1161 113.415 15.131H116.901C116.901 14.094 115.79 13.77 115.148 13.77ZM118.312 16.6639H113.415C113.415 18.1121 114.805 18.3281 115.424 18.3281C115.875 18.3281 116.516 18.2422 117.008 18.025C117.192 17.9036 117.407 17.8363 117.628 17.831C118.162 17.831 118.61 18.2851 118.61 18.8251C118.61 19.1921 118.376 19.5161 118.077 19.6879C117.328 20.2279 116.366 20.358 115.446 20.358C113.008 20.358 110.977 19.0411 110.977 15.995C110.977 13.597 112.217 11.502 115.105 11.502C117.434 11.502 119.209 13.014 119.252 15.714C119.252 15.9634 119.153 16.2027 118.977 16.3803C118.801 16.5579 118.562 16.6597 118.312 16.6639ZM125.038 20.358H124.375C122.535 20.358 121.466 19.559 121.466 16.686V13.727H120.846C120.269 13.727 119.757 13.2079 119.757 12.625C119.757 11.999 120.269 11.502 120.846 11.502H121.466V9.21191C121.466 8.54305 122.001 7.98095 122.664 7.98095C123.327 7.98095 123.883 8.54305 123.883 9.21191V11.502H124.888C125.466 11.502 125.978 11.999 125.978 12.625C125.978 13.2079 125.466 13.727 124.888 13.727H123.883V16.211C123.883 17.8519 123.968 18.198 124.695 18.198H125.038C125.615 18.198 126.107 18.673 126.107 19.278C126.107 19.861 125.615 20.358 125.038 20.358ZM136.746 8.88791C137.067 9.08305 137.345 9.51382 137.345 9.90409C137.345 10.53 136.81 11.0479 136.211 11.0479C136.062 11.0479 135.912 11.005 135.783 10.962C135.077 10.4441 134.18 10.098 133.239 10.098C131.016 10.098 129.475 11.9119 129.475 14.159C129.475 16.405 131.015 18.198 133.239 18.198C134.35 18.198 135.335 17.7439 136.083 17.053C136.277 16.9146 136.508 16.8393 136.746 16.837C137.345 16.837 137.815 17.3119 137.815 17.917C137.815 18.306 137.579 18.6521 137.281 18.846C136.211 19.7542 134.757 20.358 133.26 20.358C129.839 20.358 127.059 17.55 127.059 14.094C127.059 10.638 129.839 7.83 133.26 7.83C134.544 7.83 135.763 8.21905 136.746 8.88791ZM142.873 18.198C143.964 18.198 144.882 17.226 144.882 15.9079C144.882 14.591 143.942 13.727 142.873 13.727C141.803 13.727 140.948 14.6119 140.948 15.9079C140.948 17.183 141.803 18.198 142.873 18.198ZM145.438 19.3001L145.396 19.0178C144.925 19.9469 143.429 20.358 142.466 20.358C140.2 20.358 138.532 18.306 138.532 15.887C138.532 13.4681 140.243 11.502 142.595 11.502C143.001 11.502 144.349 11.61 145.396 12.841L145.438 12.5599C145.438 12.042 145.845 11.61 146.359 11.61C146.872 11.61 147.299 12.042 147.299 12.5599V19.3001C147.299 19.5495 147.199 19.7888 147.024 19.9664C146.848 20.144 146.609 20.2458 146.359 20.25C145.845 20.25 145.438 19.818 145.438 19.3001ZM153.939 18.198C155.009 18.198 155.863 17.183 155.863 15.9079C155.863 14.6119 155.009 13.727 153.939 13.727C152.87 13.727 151.929 14.591 151.929 15.9079C151.929 17.226 152.849 18.198 153.939 18.198ZM151.929 19.6462V22.7119C151.929 23.382 151.373 23.9441 150.71 23.9441C150.048 23.9441 149.513 23.382 149.513 22.7119V12.5599C149.513 12.042 149.941 11.61 150.455 11.61C150.967 11.61 151.374 12.042 151.374 12.647C152.271 11.718 153.383 11.502 154.218 11.502C156.569 11.502 158.28 13.4681 158.28 15.887C158.28 18.306 156.612 20.358 154.346 20.358C153.641 20.358 152.592 20.142 151.929 19.6462Z"
                fill="#333333" />
        </g>
    </g>
    <g clip-path="url(#clip1_0_1)">
        <mask id="mask1_0_1" style="mask-type:luminance" maskUnits="userSpaceOnUse" x="0" y="0" width="159"
            height="27">
            <path d="M159 0H0V27H159V0Z" fill="white" />
        </mask>
        <g mask="url(#mask1_0_1)">
            <path fill-rule="evenodd" clip-rule="evenodd"
                d="M23.7538 16.1337C23.2805 16.432 22.7234 16.4688 22.2994 16.2319C21.762 15.9288 21.4662 15.2206 21.4662 14.2364V11.2909C21.4662 9.86727 20.9017 8.856 19.9563 8.58232C18.3552 8.11841 17.151 10.0673 16.6986 10.8012L13.8748 15.3581V9.7875C13.8428 8.50623 13.425 7.73918 12.63 7.50845C12.1049 7.35627 11.3185 7.41764 10.5556 8.57986L4.22763 18.6914C3.38085 17.091 2.93953 15.3089 2.94207 13.5C2.94207 7.40905 7.84642 2.45455 13.8748 2.45455C19.902 2.45455 24.8064 7.40905 24.8064 13.5L24.8089 13.5295V13.5601C24.8656 14.7383 24.481 15.6784 23.7538 16.135V16.1337ZM27.2358 13.5V13.4693L27.2345 13.4399C27.2013 6.02223 21.2209 0 13.8736 0C6.50663 0 0.512695 6.05536 0.512695 13.5C0.512695 20.9434 6.50663 27 13.8736 27C17.2524 27.0007 20.5032 25.7126 22.9576 23.4004C23.1036 23.2622 23.2138 23.0909 23.2788 22.9009C23.3436 22.7111 23.3612 22.5083 23.33 22.3101C23.2989 22.1119 23.2198 21.9242 23.0998 21.7631C22.9797 21.602 22.8222 21.4724 22.6408 21.3852C22.4223 21.2837 22.1782 21.2499 21.9402 21.2882C21.7022 21.3264 21.4812 21.4352 21.3059 21.6C19.298 23.4921 16.6382 24.5462 13.8736 24.5455C10.6468 24.5455 7.74289 23.1243 5.73875 20.8685L11.4455 11.7499V15.9545C11.4455 17.9734 12.2319 18.6263 12.8913 18.8165C13.5519 19.008 14.5614 18.8779 15.6201 17.1659L18.7595 12.1021C18.8593 11.9389 18.9517 11.7978 19.0368 11.6763V14.2364C19.0368 16.1239 19.7961 17.6335 21.1198 18.376C22.3142 19.0473 23.8154 18.9859 25.0381 18.2189C26.5197 17.2861 27.3184 15.5692 27.2358 13.5ZM45.8375 8.88791C46.158 9.08305 46.4366 9.51382 46.4366 9.90409C46.4366 10.53 45.9016 11.0479 45.3026 11.0479C45.1535 11.0479 45.0043 11.005 44.8749 10.962C44.1699 10.4441 43.2726 10.098 42.3309 10.098C40.1074 10.098 38.5679 11.9119 38.5679 14.159C38.5679 16.405 40.1074 18.198 42.3309 18.198C43.4427 18.198 44.4263 17.7439 45.1744 17.053C45.3678 16.9146 45.5994 16.8392 45.8375 16.837C46.4366 16.837 46.9062 17.3119 46.9062 17.917C46.9062 18.306 46.672 18.6521 46.3725 18.846C45.3026 19.7542 43.8494 20.358 42.3519 20.358C38.9315 20.358 36.1521 17.55 36.1521 14.094C36.1521 10.638 38.9303 7.83 42.3519 7.83C43.635 7.83 44.854 8.21905 45.8375 8.88791ZM52.0928 11.502C54.4235 11.502 56.3907 13.4681 56.3907 15.887C56.3907 18.306 54.4235 20.358 52.0928 20.358C49.656 20.358 47.6235 18.306 47.6235 15.887C47.6235 13.4681 49.656 11.502 52.0928 11.502ZM52.0718 18.198C53.0985 18.198 53.9749 17.226 53.9749 15.9079C53.9749 14.591 53.0985 13.77 52.0718 13.77C50.9601 13.77 50.0393 14.569 50.0393 15.9079C50.0393 17.226 50.9601 18.198 52.0718 18.198ZM57.8562 19.019V12.841C57.8562 12.1721 58.3911 11.61 59.0543 11.61C59.7174 11.61 60.2733 12.1721 60.2733 12.841V19.019C60.2733 19.6879 59.7174 20.25 59.0543 20.25C58.3911 20.25 57.8562 19.6879 57.8562 19.019ZM57.6652 9.27695C57.6652 8.478 58.2839 7.83 59.0543 7.83C59.8456 7.83 60.4865 8.478 60.4865 9.27818C60.4865 10.055 59.8456 10.681 59.0543 10.681C58.2839 10.681 57.6652 10.055 57.6652 9.27695ZM64.904 15.671V19.019C64.904 19.6879 64.3481 20.25 63.6838 20.25C63.0219 20.25 62.4869 19.6879 62.4869 19.019V12.5599C62.4869 12.042 62.9146 11.61 63.4286 11.61C63.9414 11.61 64.3481 12.042 64.3481 12.5599C65.3317 11.653 66.1858 11.502 66.9981 11.502C69.4139 11.502 70.4838 13.3159 70.4838 15.3679V19.019C70.4838 19.6879 69.9291 20.25 69.266 20.25C68.6029 20.25 68.068 19.6879 68.068 19.019V15.671C68.068 14.6119 67.9398 13.727 66.4213 13.727C65.3526 13.727 64.9028 14.6119 64.9028 15.671H64.904ZM78.3438 16.945C78.2242 16.9448 78.1063 16.9176 77.9988 16.8652C77.8915 16.8129 77.7974 16.7369 77.7238 16.643L74.9013 13.597V19.019C74.9013 19.6879 74.3441 20.25 73.681 20.25C73.0191 20.25 72.4842 19.6879 72.4842 19.019V8.28409C72.5188 8.19369 72.5807 8.11609 72.6612 8.06186C72.7417 8.00762 72.837 7.97938 72.9341 7.98095C73.1473 7.98095 73.3174 8.15523 73.4468 8.28409L77.937 13.3159C78.0652 13.4681 78.2366 13.554 78.3216 13.554C78.4079 13.554 78.578 13.4681 78.7062 13.3171L83.1976 8.28532C83.3258 8.15523 83.4971 7.98095 83.7104 7.98095C83.9236 7.98095 84.0949 8.11105 84.1602 8.28409V19.019C84.1602 19.6879 83.6253 20.25 82.9622 20.25C82.2991 20.25 81.742 19.6879 81.742 19.019V13.597L78.9206 16.643C78.7703 16.8149 78.578 16.945 78.3438 16.945ZM89.9668 18.198C91.0564 18.198 91.9759 17.226 91.9759 15.9079C91.9759 14.591 91.0354 13.727 89.9668 13.727C88.897 13.727 88.0416 14.6119 88.0416 15.9079C88.0416 17.183 88.897 18.198 89.9656 18.198H89.9668ZM92.5318 19.3001L92.4886 19.0178C92.019 19.9469 90.5215 20.358 89.5589 20.358C87.2909 20.358 85.6245 18.306 85.6245 15.887C85.6245 13.4681 87.3353 11.502 89.687 11.502C90.0938 11.502 91.441 11.61 92.4886 12.841L92.5318 12.5599C92.5318 12.042 92.9385 11.61 93.4513 11.61C93.964 11.61 94.3917 12.042 94.3917 12.5599V19.3001C94.3911 19.5497 94.2921 19.7892 94.116 19.9667C93.9398 20.1445 93.7007 20.2462 93.45 20.25C92.9373 20.25 92.5305 19.818 92.5305 19.3001H92.5318ZM101.097 13.727H100.84C99.3219 13.813 99.0224 14.677 99.0224 15.671V19.019C99.0224 19.6879 98.4678 20.25 97.8034 20.25C97.1403 20.25 96.6066 19.6879 96.6066 19.019V12.5599C96.6066 12.042 97.0331 11.61 97.5471 11.61C98.061 11.61 98.4665 12.042 98.4665 12.5599C99.3651 11.718 100.092 11.545 100.84 11.502H101.075C101.654 11.502 102.186 11.999 102.186 12.625C102.186 13.2079 101.674 13.727 101.097 13.727ZM110.41 18.457C110.517 18.63 110.581 18.8251 110.581 19.0399C110.581 19.6658 110.003 20.25 109.383 20.25C108.956 20.25 108.592 19.926 108.315 19.5799L105.535 16.362V19.019C105.535 19.6879 104.978 20.25 104.315 20.25C103.653 20.25 103.118 19.6879 103.118 19.019V9.21314C103.118 8.54305 103.653 7.98095 104.315 7.98095C104.978 7.98095 105.535 8.54305 105.535 9.21314V15.325L108.315 12.258C108.592 11.934 108.935 11.61 109.362 11.61C109.961 11.61 110.517 12.1721 110.517 12.798C110.521 12.9957 110.469 13.1905 110.367 13.3601L108.164 15.757L110.41 18.457ZM115.148 13.77C114.485 13.77 113.415 14.1161 113.415 15.131H116.901C116.901 14.094 115.79 13.77 115.148 13.77ZM118.312 16.6639H113.415C113.415 18.1121 114.805 18.3281 115.424 18.3281C115.875 18.3281 116.516 18.2422 117.008 18.025C117.192 17.9036 117.407 17.8363 117.628 17.831C118.162 17.831 118.61 18.2851 118.61 18.8251C118.61 19.1921 118.376 19.5161 118.077 19.6879C117.328 20.2279 116.366 20.358 115.446 20.358C113.008 20.358 110.977 19.0411 110.977 15.995C110.977 13.597 112.217 11.502 115.105 11.502C117.434 11.502 119.209 13.014 119.252 15.714C119.252 15.9634 119.153 16.2027 118.977 16.3803C118.801 16.5579 118.562 16.6597 118.312 16.6639ZM125.038 20.358H124.375C122.535 20.358 121.466 19.559 121.466 16.686V13.727H120.846C120.269 13.727 119.757 13.2079 119.757 12.625C119.757 11.999 120.269 11.502 120.846 11.502H121.466V9.21191C121.466 8.54305 122.001 7.98095 122.664 7.98095C123.327 7.98095 123.883 8.54305 123.883 9.21191V11.502H124.888C125.466 11.502 125.978 11.999 125.978 12.625C125.978 13.2079 125.466 13.727 124.888 13.727H123.883V16.211C123.883 17.8519 123.968 18.198 124.695 18.198H125.038C125.615 18.198 126.107 18.673 126.107 19.278C126.107 19.861 125.615 20.358 125.038 20.358ZM136.746 8.88791C137.067 9.08305 137.345 9.51382 137.345 9.90409C137.345 10.53 136.81 11.0479 136.211 11.0479C136.062 11.0479 135.912 11.005 135.783 10.962C135.077 10.4441 134.18 10.098 133.239 10.098C131.016 10.098 129.475 11.9119 129.475 14.159C129.475 16.405 131.015 18.198 133.239 18.198C134.35 18.198 135.335 17.7439 136.083 17.053C136.277 16.9146 136.508 16.8393 136.746 16.837C137.345 16.837 137.815 17.3119 137.815 17.917C137.815 18.306 137.579 18.6521 137.281 18.846C136.211 19.7542 134.757 20.358 133.26 20.358C129.839 20.358 127.059 17.55 127.059 14.094C127.059 10.638 129.839 7.83 133.26 7.83C134.544 7.83 135.763 8.21905 136.746 8.88791ZM142.873 18.198C143.964 18.198 144.882 17.226 144.882 15.9079C144.882 14.591 143.942 13.727 142.873 13.727C141.803 13.727 140.948 14.6119 140.948 15.9079C140.948 17.183 141.803 18.198 142.873 18.198ZM145.438 19.3001L145.396 19.0178C144.925 19.9469 143.429 20.358 142.466 20.358C140.2 20.358 138.532 18.306 138.532 15.887C138.532 13.4681 140.243 11.502 142.595 11.502C143.001 11.502 144.349 11.61 145.396 12.841L145.438 12.5599C145.438 12.042 145.845 11.61 146.359 11.61C146.872 11.61 147.299 12.042 147.299 12.5599V19.3001C147.299 19.5495 147.199 19.7888 147.024 19.9664C146.848 20.144 146.609 20.2458 146.359 20.25C145.845 20.25 145.438 19.818 145.438 19.3001ZM153.939 18.198C155.009 18.198 155.863 17.183 155.863 15.9079C155.863 14.6119 155.009 13.727 153.939 13.727C152.87 13.727 151.929 14.591 151.929 15.9079C151.929 17.226 152.849 18.198 153.939 18.198ZM151.929 19.6462V22.7119C151.929 23.382 151.373 23.9441 150.71 23.9441C150.048 23.9441 149.513 23.382 149.513 22.7119V12.5599C149.513 12.042 149.941 11.61 150.455 11.61C150.967 11.61 151.374 12.042 151.374 12.647C152.271 11.718 153.383 11.502 154.218 11.502C156.569 11.502 158.28 13.4681 158.28 15.887C158.28 18.306 156.612 20.358 154.346 20.358C153.641 20.358 152.592 20.142 151.929 19.6462Z"
                fill="#2B6AFF" />
        </g>
    </g>
    <defs>
        <clipPath id="clip0_0_1">
            <rect width="159" height="27" fill="white" />
        </clipPath>
        <clipPath id="clip1_0_1">
            <rect width="28" height="27" fill="white" />
        </clipPath>
    </defs>
</svg>