<svg width="145" height="30" viewBox="0 0 145 30" fill="none" xmlns="http://www.w3.org/2000/svg">
<path d="M36.9529 21.888C36.2278 21.895 35.5091 21.7521 34.842 21.4682C34.1748 21.1842 33.5735 20.7654 33.0759 20.238C32.0424 19.1431 31.4797 17.6864 31.5089 16.181C31.4827 14.6676 32.0469 13.2035 33.0819 12.099C33.5804 11.5663 34.183 11.1417 34.8523 10.8513C35.5216 10.5609 36.2433 10.4111 36.9729 10.411C38.5799 10.338 40.1299 11.039 41.1769 12.314L39.6819 14.001C39.3615 13.5794 38.9494 13.2362 38.4768 12.9975C38.0041 12.7588 37.4834 12.6307 36.9539 12.623C36.5277 12.6421 36.1101 12.7487 35.727 12.9362C35.3438 13.1238 35.0034 13.3882 34.7269 13.713C34.1523 14.3861 33.8635 15.257 33.9219 16.14C33.8628 17.0485 34.1659 17.9434 34.7649 18.629C35.053 18.9597 35.4071 19.2266 35.8044 19.4126C36.2016 19.5986 36.6334 19.6995 37.0719 19.709C37.5993 19.6903 38.1164 19.5574 38.5874 19.3193C39.0584 19.0812 39.4721 18.7436 39.7999 18.33L41.2569 19.832C40.2079 21.18 38.6159 21.941 36.9529 21.888ZM45.8339 21.888H43.4219V10.432H45.8339V13.126C46.3549 11.453 47.8829 10.35 49.5659 10.432V13.106H49.4279C47.3109 13.106 45.8339 14.536 45.8339 17.456V21.888ZM62.1959 10.411L56.8599 24.973H54.4179L55.5799 21.898L51.0119 10.411H53.5819L56.7019 18.895L59.6959 10.411H62.1959ZM69.9059 21.867C68.4759 21.902 67.1249 21.187 66.3029 19.965V25.005H63.8909V10.411H66.3019V12.468C67.0719 11.188 68.4189 10.412 69.8659 10.411C72.3569 10.411 74.7889 12.468 74.7889 16.139C74.7889 19.811 72.3779 21.867 69.9059 21.867ZM69.3559 12.612C68.9243 12.6252 68.5003 12.7282 68.1108 12.9145C67.7213 13.1008 67.375 13.3663 67.0939 13.694C66.5103 14.3736 66.2191 15.2565 66.2839 16.15C66.219 17.0444 66.5102 17.9282 67.0939 18.609C67.3746 18.9374 67.7206 19.2038 68.1099 19.3913C68.4991 19.5787 68.9231 19.6832 69.3549 19.698C69.7803 19.6782 70.1968 19.5694 70.5775 19.3785C70.9582 19.1877 71.2946 18.919 71.5649 18.59C72.1249 17.918 72.3939 17.035 72.3089 16.15C72.349 15.7116 72.3022 15.2696 72.1711 14.8493C72.04 14.4291 71.8272 14.0388 71.5449 13.701C71.2709 13.3718 70.9308 13.1038 70.5467 12.9143C70.1625 12.7248 69.7429 12.6181 69.3149 12.601L69.3549 12.611L69.3559 12.612ZM80.0679 12.766V18.166C80.0109 18.54 80.1279 18.92 80.3819 19.19C80.6369 19.46 80.9989 19.587 81.3579 19.533H82.3419V21.786H80.6579C78.8959 21.786 77.7049 20.963 77.7049 18.556V12.766H76.3159V10.648H77.6559V7.625H80.0679V10.648H82.3019V12.766H80.0679ZM89.9419 21.888C89.2074 21.9047 88.4774 21.7695 87.7976 21.4907C87.1179 21.2119 86.5031 20.7956 85.9919 20.268C84.9308 19.173 84.3413 17.7057 84.3499 16.181C84.2859 13.789 85.6169 11.596 87.7159 10.637C89.8139 9.677 92.2599 10.144 93.8989 11.817C95.5369 13.488 96.0399 16.032 95.1709 18.245C94.3009 20.459 92.2329 21.9 89.9419 21.888ZM89.9419 12.633C89.5039 12.6326 89.0709 12.7247 88.671 12.9035C88.2712 13.0822 87.9137 13.3434 87.6219 13.67C87.3214 14.0058 87.0906 14.3979 86.9429 14.8237C86.7953 15.2494 86.7337 15.7003 86.7619 16.15C86.7162 17.067 87.0334 17.9651 87.6449 18.65C87.9392 18.9802 88.2989 19.2457 88.7012 19.4297C89.1035 19.6138 89.5396 19.7123 89.9819 19.719C90.4216 19.7207 90.8567 19.6291 91.2583 19.4501C91.66 19.2712 92.0191 19.009 92.3119 18.681C92.6137 18.344 92.8452 17.9502 92.9929 17.5227C93.1405 17.0951 93.2014 16.6424 93.1719 16.191C93.2173 15.2724 92.8985 14.373 92.2849 13.688C91.9895 13.3577 91.6287 13.0925 91.2254 12.9091C90.822 12.7258 90.3849 12.6284 89.9419 12.623V12.633ZM118.653 21.888C117.919 21.9047 117.189 21.7695 116.51 21.4907C115.831 21.2119 115.217 20.7956 114.706 20.268C113.647 19.1723 113.059 17.7049 113.07 16.181C113.01 13.794 114.342 11.608 116.437 10.653C118.533 9.699 120.973 10.167 122.606 11.837C124.24 13.507 124.74 16.046 123.872 18.254C123.003 20.463 120.939 21.9 118.653 21.888ZM118.653 12.633C118.215 12.6324 117.782 12.7246 117.383 12.9035C116.983 13.0825 116.626 13.344 116.335 13.671C116.035 14.0069 115.806 14.3991 115.659 14.8247C115.513 15.2504 115.453 15.7009 115.483 16.15C115.435 17.0658 115.749 17.9638 116.359 18.649C116.652 18.9793 117.011 19.245 117.413 19.4292C117.815 19.6134 118.25 19.7121 118.692 19.719C119.132 19.721 119.567 19.6295 119.969 19.4505C120.371 19.2716 120.73 19.0093 121.023 18.681C121.629 18.011 121.94 17.11 121.882 16.191C121.927 15.2726 121.609 14.3732 120.996 13.688C120.701 13.3577 120.34 13.0924 119.936 12.9089C119.533 12.7253 119.096 12.6277 118.653 12.622V12.632V12.633ZM138.63 10.411C140.924 10.411 142.322 11.933 142.322 14.628V21.888H139.91V15.389C139.91 13.641 139.132 12.705 137.773 12.705C136.414 12.705 135.528 13.661 135.528 15.44V21.888H133.106V15.368C133.106 13.661 132.309 12.705 130.979 12.705C129.65 12.705 128.725 13.733 128.725 15.461V21.888H126.313V10.412H128.725V12.314C129.406 11.14 130.621 10.42 131.934 10.412C133.256 10.347 134.488 11.112 135.065 12.355C135.87 11.129 137.206 10.401 138.63 10.412V10.411ZM99.9959 19.585V20.85C99.9983 20.8751 99.9929 20.9003 99.9806 20.9223C99.9683 20.9442 99.9495 20.9619 99.9269 20.973L98.8739 21.611C98.8541 21.6261 98.8298 21.6343 98.8049 21.6343C98.78 21.6343 98.7557 21.6261 98.7359 21.611L97.6819 20.994C97.6607 20.981 97.6433 20.9627 97.6312 20.941C97.6191 20.9193 97.6128 20.8948 97.6129 20.87V19.585C97.6139 19.5589 97.6208 19.5333 97.6329 19.5101C97.645 19.487 97.6621 19.4668 97.6829 19.451L98.7359 18.813C98.7574 18.8027 98.781 18.7974 98.8049 18.7974C98.8288 18.7974 98.8523 18.8027 98.8739 18.813L99.9269 19.451C99.9709 19.48 99.9969 19.531 99.9959 19.585ZM107.32 21.878C106.595 21.8699 105.879 21.7123 105.218 21.415C104.557 21.1176 103.964 20.687 103.477 20.15C102.465 19.0367 101.929 17.5715 101.984 16.068C101.983 14.5532 102.574 13.098 103.63 12.012C104.139 11.4886 104.75 11.0756 105.425 10.7984C106.101 10.5213 106.826 10.386 107.556 10.401C109.164 10.366 110.7 11.097 111.731 12.386L110.274 14.041C109.959 13.614 109.553 13.2637 109.084 13.0162C108.615 12.7688 108.096 12.6306 107.566 12.612C107.14 12.6231 106.72 12.7217 106.334 12.9016C105.947 13.0816 105.602 13.339 105.319 13.658C104.732 14.3197 104.425 15.1842 104.465 16.068C104.394 16.982 104.685 17.887 105.269 18.572C105.551 18.908 105.9 19.1817 106.294 19.3755C106.688 19.5694 107.117 19.6792 107.556 19.698C108.084 19.6891 108.604 19.5659 109.08 19.3368C109.556 19.1077 109.976 18.7782 110.313 18.371L111.741 19.903C110.649 21.254 109.01 21.986 107.32 21.878Z" fill="#002D74"/>
<path fill-rule="evenodd" clip-rule="evenodd" d="M13.9859 2.71484L2.33594 9.36084V22.6528L13.9859 29.2998L25.6359 22.6528V9.36084L13.9859 2.71484Z" fill="#FEFEFE"/>
<path fill-rule="evenodd" clip-rule="evenodd" d="M13.9859 2.71484L2.33594 9.36084V22.6528L13.9859 29.2998L25.6359 22.6528V9.36084L13.9859 2.71484ZM9.38594 8.46084H18.5539L19.6599 13.0808H8.32194L9.38594 8.46084ZM12.0279 16.3568L11.0279 13.7768H16.9649L15.9859 16.3568L16.2699 19.2388L13.9859 19.2488H11.7219L12.0279 16.3568ZM14.9439 22.2968V21.3818L16.9959 19.4368V16.3668L19.6809 14.6408L22.7439 16.9198L18.5749 24.0978H16.9229L14.9439 22.2978V22.2968ZM5.22794 16.9208L8.30094 14.6628L11.0169 16.3688V19.4388L13.0699 21.3828V22.2988L11.0909 24.1188H9.41694L5.22794 16.9208Z" fill="#002D72"/>
<path style="mix-blend-mode:multiply" fill-rule="evenodd" clip-rule="evenodd" d="M18.5744 24.0978H16.9224L14.9434 22.2978V21.3818L16.9964 19.4368V16.3668L19.6804 14.6408L22.7444 16.9198L18.5744 24.0978ZM13.9844 2.71484V8.46084H18.5544L19.6594 13.0808H13.9854V13.7778H16.9644L15.9854 16.3578L16.2694 19.2388L13.9854 19.2488V29.3008L25.6354 22.6548V9.36084L13.9854 2.71484H13.9844Z" fill="url(#paint0_linear_1371_16)"/>
<path style="mix-blend-mode:multiply" fill-rule="evenodd" clip-rule="evenodd" d="M13.0699 22.2978L11.0909 24.1178H9.41694L5.22694 16.9198L8.30194 14.6608L11.0179 16.3668V19.4368L13.0709 21.3808V22.2968L13.0699 22.2978ZM11.7219 19.2498L12.0279 16.3568L11.0279 13.7768H13.9859V13.0798H8.32194L9.38594 8.46084H13.9859V2.71484L2.33594 9.36084V22.6538L13.9859 29.2998V19.2508L11.7219 19.2498Z" fill="url(#paint1_linear_1371_16)"/>
<defs>
<linearGradient id="paint0_linear_1371_16" x1="24.3934" y1="26.4318" x2="24.3934" y2="5.51684" gradientUnits="userSpaceOnUse">
<stop stop-color="#002D72"/>
<stop offset="1" stop-color="#002D72" stop-opacity="0.01"/>
</linearGradient>
<linearGradient id="paint1_linear_1371_16" x1="12.7429" y1="26.4318" x2="12.7429" y2="5.51684" gradientUnits="userSpaceOnUse">
<stop stop-color="#002D72" stop-opacity="0.01"/>
<stop offset="1" stop-color="#002D72"/>
</linearGradient>
</defs>
</svg>
