<svg width="125" height="20" viewBox="0 0 125 20" fill="none" xmlns="http://www.w3.org/2000/svg">
<g clip-path="url(#clip0_1371_38)">
<path d="M22.53 8.99784L17.9069 0.981547C17.7301 0.682504 17.4785 0.434701 17.1767 0.262576C16.875 0.0904514 16.5336 -4.90843e-05 16.1862 1.99718e-08H6.93908C6.59034 7.1093e-05 6.24776 0.0918953 5.94574 0.266252C5.64371 0.440608 5.39288 0.69136 5.21843 0.993325L0.59534 9.00667C0.422781 9.30929 0.332031 9.65164 0.332031 10C0.332031 10.3484 0.422781 10.6907 0.59534 10.9933L5.21843 19.0067C5.39212 19.3093 5.64278 19.5606 5.94497 19.7351C6.24717 19.9095 6.59014 20.0009 6.93908 20H16.1852C16.534 19.9999 16.8766 19.9081 17.1786 19.7337C17.4806 19.5594 17.7314 19.3086 17.9059 19.0067L22.529 10.9933C22.7018 10.6892 22.7928 10.3455 22.7929 9.99571C22.7931 9.64594 22.7025 9.3021 22.53 8.99784ZM11.5622 16.8748V15.5006C12.651 15.5006 13.7155 15.1777 14.6209 14.5727C15.5262 13.9678 16.2319 13.108 16.6486 12.102C17.0653 11.096 17.1743 9.98899 16.9619 8.92102C16.7494 7.85306 16.2251 6.87208 15.4551 6.10212C14.6852 5.33216 13.7042 4.80781 12.6362 4.59538C11.5683 4.38295 10.4613 4.49198 9.4553 4.90868C8.4493 5.32537 7.58946 6.03103 6.98451 6.9364C6.37956 7.84178 6.05667 8.90621 6.05667 9.99509C6.0536 11.1958 6.44809 12.3637 7.17858 13.3166L8.1719 12.3488C7.68939 11.6583 7.43226 10.8355 7.43574 9.99313C7.43574 9.17525 7.67827 8.37574 8.13266 7.6957C8.58705 7.01566 9.23288 6.48564 9.9885 6.17265C10.7441 5.85966 11.5756 5.77777 12.3777 5.93733C13.1799 6.09689 13.9167 6.49073 14.4951 7.06906C15.0734 7.64739 15.4672 8.38422 15.6268 9.18638C15.7864 9.98854 15.7045 10.82 15.3915 11.5756C15.0785 12.3312 14.5485 12.9771 13.8684 13.4315C13.1884 13.8859 12.3889 14.1284 11.571 14.1284V12.7542C12.116 12.7527 12.6483 12.5896 13.1007 12.2857C13.553 11.9818 13.9052 11.5507 14.1127 11.0467C14.3202 10.5428 14.3736 9.98868 14.2664 9.45436C14.1591 8.92004 13.8959 8.4295 13.51 8.04469C13.1241 7.65987 12.6328 7.39806 12.0982 7.29231C11.5635 7.18656 11.0096 7.24161 10.5062 7.45053C10.0029 7.65944 9.57272 8.01283 9.27011 8.46608C8.96749 8.91932 8.80598 9.45208 8.80598 9.99706C8.8043 10.4797 8.93136 10.954 9.17406 11.3712L10.2017 10.3691C10.1674 10.2494 10.1502 10.1255 10.1507 10.001C10.1507 9.72163 10.2335 9.44854 10.3887 9.21627C10.5439 8.98399 10.7645 8.80296 11.0226 8.69605C11.2807 8.58915 11.5647 8.56118 11.8387 8.61568C12.1127 8.67017 12.3644 8.8047 12.5619 9.00223C12.7594 9.19977 12.894 9.45144 12.9485 9.72543C13.003 9.99941 12.975 10.2834 12.8681 10.5415C12.7612 10.7996 12.5801 11.0202 12.3479 11.1754C12.1156 11.3306 11.8425 11.4134 11.5631 11.4134C11.4262 11.4123 11.2903 11.3891 11.1607 11.3447L7.60751 14.8115C7.57433 14.8446 7.53706 14.8733 7.4966 14.8969C7.48776 14.9058 7.47108 14.9058 7.46224 14.9136C7.43561 14.9314 7.40694 14.9459 7.37685 14.9568C7.36016 14.9656 7.34249 14.9656 7.32581 14.9735L7.24827 14.999C7.2317 14.9986 7.21525 15.0019 7.20017 15.0088C7.17465 15.0088 7.14913 15.0177 7.13146 15.0177C7.10594 15.0177 7.08042 15.0088 7.05392 15.0088C7.03359 15.0096 7.0133 15.0066 6.99405 15L6.9165 14.9745C6.89982 14.9656 6.88215 14.9656 6.86546 14.9578C6.83788 14.9468 6.81182 14.9323 6.78792 14.9146C6.77245 14.9081 6.75792 14.8995 6.74473 14.8891C6.72002 14.8713 6.69702 14.8513 6.67602 14.8292C6.66719 14.8204 6.6505 14.8125 6.64167 14.7949C5.5345 13.6572 4.85496 12.1716 4.71832 10.5901C4.58168 9.00848 4.99634 7.42834 5.89198 6.11767C6.78762 4.807 8.10908 3.8465 9.63219 3.39912C11.1553 2.95174 12.7863 3.04501 14.2485 3.66312C15.7106 4.28123 16.914 5.38611 17.6544 6.79035C18.3947 8.19458 18.6266 9.81169 18.3105 11.3674C17.9944 12.923 17.15 14.3215 15.9203 15.3255C14.6907 16.3295 13.1516 16.8772 11.5641 16.8757L11.5622 16.8748ZM28.0953 3.5532H32.3248C36.4169 3.51001 39.4312 6.15626 39.3714 9.97448C39.4312 13.7161 36.4179 16.5332 32.3248 16.4723H28.0953V3.5532ZM32.2993 14.0931C34.9024 14.0931 36.6485 12.4666 36.6485 9.98331C36.6485 7.47448 34.9446 5.95112 32.2993 5.95112H30.7288V14.098H32.2993V14.0931ZM49.0631 16.4812H46.6319V15.5399C46.2453 15.9261 45.784 16.2294 45.2762 16.4311C44.7683 16.6328 44.2246 16.7286 43.6784 16.7128C41.624 16.7128 40.3303 15.5143 40.3303 13.8192C40.3303 12.073 41.7428 11.0022 43.9944 11.0022H46.4257V10.5742C46.4462 10.3372 46.4129 10.0986 46.3285 9.87626C46.244 9.65387 46.1105 9.45337 45.938 9.28965C45.7654 9.12593 45.5581 9.00321 45.3316 8.9306C45.1051 8.85799 44.8651 8.83736 44.6295 8.87024C44.1281 8.88372 43.6363 9.01098 43.1913 9.24241C42.7463 9.47383 42.3597 9.80337 42.0608 10.2061L40.6866 8.5797C41.1911 7.94272 41.8361 7.43112 42.5712 7.08494C43.3063 6.73875 44.1116 6.56737 44.924 6.58422C45.4824 6.53109 46.0457 6.602 46.5736 6.79187C47.1015 6.98174 47.5809 7.28588 47.9776 7.68256C48.3742 8.07923 48.6784 8.55864 48.8683 9.08652C49.0581 9.61439 49.129 10.1777 49.0759 10.7362V16.4812H49.0631ZM46.413 12.7395H44.3458C43.4811 12.7395 42.9933 13.0732 42.9933 13.7152C42.9933 14.3571 43.541 14.7684 44.3802 14.7684C44.6416 14.7831 44.9032 14.7446 45.1493 14.655C45.3953 14.5654 45.6204 14.4266 45.8111 14.2472C46.0017 14.0677 46.1539 13.8513 46.2582 13.6112C46.3625 13.3711 46.4168 13.1122 46.4179 12.8504L46.413 12.7395ZM56.6564 16.7128C56.1176 16.73 55.5812 16.6345 55.0814 16.4325C54.5817 16.2306 54.1295 15.9265 53.754 15.5399V20H51.1038V6.79132H53.5351V8.0055C53.8994 7.53084 54.3743 7.15242 54.9183 6.90317C55.4623 6.65392 56.059 6.54139 56.6564 6.57538C57.302 6.58146 57.9395 6.71894 58.5303 6.97945C59.121 7.23997 59.6524 7.61806 60.0923 8.09067C60.5321 8.56328 60.871 9.12051 61.0885 9.72839C61.3059 10.3363 61.3973 10.9821 61.357 11.6264C61.398 12.2727 61.3074 12.9205 61.0906 13.5307C60.8739 14.1409 60.5355 14.7007 60.096 15.1763C59.6565 15.6519 59.125 16.0333 58.5338 16.2974C57.9426 16.5615 57.3039 16.7028 56.6564 16.7128ZM56.1656 8.96447C55.8237 8.9581 55.4844 9.02436 55.17 9.15888C54.8556 9.29339 54.5733 9.4931 54.3419 9.7448C54.1104 9.99651 53.935 10.2945 53.8272 10.619C53.7194 10.9435 53.6817 11.2872 53.7167 11.6274C53.6816 11.9684 53.7191 12.313 53.8266 12.6385C53.9341 12.964 54.1093 13.2631 54.3405 13.5161C54.5718 13.7692 54.854 13.9705 55.1685 14.1068C55.483 14.2431 55.8228 14.3113 56.1656 14.307C56.5087 14.3084 56.8483 14.2393 57.1636 14.1039C57.4788 13.9685 57.7628 13.7698 57.9981 13.5201C58.2333 13.2705 58.4147 12.9751 58.5311 12.6524C58.6474 12.3296 58.6962 11.9865 58.6745 11.6441C58.7007 11.3002 58.6552 10.9546 58.5409 10.6291C58.4266 10.3037 58.2459 10.0056 58.0103 9.75367C57.7747 9.50175 57.4893 9.30151 57.1723 9.16566C56.8553 9.0298 56.5135 8.96129 56.1686 8.96447H56.1656ZM68.4801 16.7128C67.9413 16.73 67.4049 16.6345 66.9051 16.4325C66.4054 16.2306 65.9532 15.9265 65.5777 15.5399V20H62.9275V6.79132H65.3666V8.0055C65.7302 7.53197 66.2038 7.15425 66.7464 6.90505C67.2889 6.65585 67.884 6.54269 68.4801 6.57538C69.1257 6.58146 69.7633 6.71894 70.354 6.97945C70.9447 7.23997 71.4761 7.61806 71.916 8.09067C72.3558 8.56328 72.6948 9.12051 72.9122 9.72839C73.1296 10.3363 73.221 10.9821 73.1807 11.6264C73.2217 12.2727 73.1311 12.9205 72.9144 13.5307C72.6976 14.1409 72.3592 14.7007 71.9197 15.1763C71.4802 15.6519 70.9488 16.0333 70.3575 16.2974C69.7663 16.5615 69.1276 16.7028 68.4801 16.7128ZM67.9893 8.96447C67.6474 8.9581 67.3081 9.02436 66.9937 9.15888C66.6793 9.29339 66.397 9.4931 66.1656 9.7448C65.9341 9.99651 65.7587 10.2945 65.6509 10.619C65.5431 10.9435 65.5055 11.2872 65.5404 11.6274C65.5053 11.9684 65.5428 12.313 65.6503 12.6385C65.7578 12.964 65.933 13.2631 66.1642 13.5161C66.3955 13.7692 66.6777 13.9705 66.9922 14.1068C67.3067 14.2431 67.6466 14.3113 67.9893 14.307C68.3324 14.3084 68.6721 14.2393 68.9873 14.1039C69.3025 13.9685 69.5865 13.7698 69.8218 13.5201C70.057 13.2705 70.2385 12.9751 70.3548 12.6524C70.4712 12.3296 70.52 11.9865 70.4982 11.6441C70.5252 11.3 70.4802 10.9541 70.3662 10.6283C70.2521 10.3026 70.0715 10.0041 69.8357 9.75206C69.6 9.49997 69.3143 9.29975 68.9969 9.16415C68.6795 9.02855 68.3374 8.96055 67.9923 8.96447H67.9893ZM82.796 16.4812L79.4479 11.9179H77.5133V16.4812H74.8631V3.5532H79.7178C82.423 3.5532 84.3753 5.2395 84.3753 7.72281C84.3891 8.48922 84.1827 9.24349 83.7806 9.8961C83.3785 10.5487 82.7977 11.0723 82.1069 11.4046L85.771 16.4733H82.796V16.4812ZM77.5054 9.58971H79.7169C79.9723 9.61686 80.2306 9.5883 80.474 9.50602C80.7174 9.42374 80.94 9.28968 81.1266 9.11308C81.3132 8.93648 81.4593 8.72154 81.5548 8.48306C81.6503 8.24457 81.693 7.98822 81.68 7.73165C81.6881 7.47713 81.6419 7.22381 81.5445 6.98856C81.447 6.75331 81.3005 6.54155 81.1147 6.36739C80.9289 6.19323 80.7082 6.06068 80.4671 5.97857C80.2261 5.89647 79.9703 5.8667 79.7169 5.89124H77.5084L77.5054 9.58971ZM94.6531 16.4812H92.2218V15.5399C91.8352 15.9261 91.3739 16.2294 90.8661 16.4311C90.3582 16.6328 89.8145 16.7286 89.2683 16.7128C87.2139 16.7128 85.9202 15.5143 85.9202 13.8192C85.9202 12.073 87.3327 11.0022 89.5843 11.0022H92.0156V10.5742C92.0361 10.337 92.0028 10.0983 91.9183 9.8757C91.8337 9.65315 91.7001 9.45253 91.5273 9.28878C91.3545 9.12502 91.147 9.00235 90.9202 8.92988C90.6934 8.85742 90.4532 8.83703 90.2174 8.87024C89.716 8.88372 89.2243 9.01098 88.7793 9.24241C88.3343 9.47383 87.9477 9.80337 87.6487 10.2061L86.2746 8.5797C86.7783 7.94397 87.4221 7.4332 88.1558 7.08724C88.8894 6.74127 89.6931 6.56946 90.5041 6.5852C91.0625 6.53207 91.6258 6.60298 92.1537 6.79285C92.6816 6.98272 93.161 7.28686 93.5577 7.68354C93.9543 8.08021 94.2585 8.55962 94.4484 9.0875C94.6382 9.61538 94.7091 10.1787 94.656 10.7371V16.4821L94.6531 16.4812ZM92.0029 12.7395H89.9308C89.0661 12.7395 88.5783 13.0732 88.5783 13.7152C88.5783 14.3571 89.126 14.7684 89.9652 14.7684C90.2266 14.7831 90.4883 14.7446 90.7343 14.655C90.9803 14.5654 91.2054 14.4266 91.3961 14.2472C91.5867 14.0677 91.7389 13.8513 91.8432 13.6112C91.9475 13.3711 92.0018 13.1122 92.0029 12.8504V12.7395ZM106.4 1.78936V16.4723H103.969V15.2739C103.605 15.7478 103.131 16.1258 102.588 16.375C102.045 16.6242 101.449 16.7371 100.853 16.704C100.206 16.6973 99.5668 16.5589 98.9751 16.297C98.3835 16.0352 97.8515 15.6555 97.4115 15.1811C96.9716 14.7067 96.633 14.1476 96.4164 13.5379C96.1998 12.9283 96.1098 12.2809 96.1519 11.6353C96.1098 10.9896 96.1998 10.3422 96.4164 9.73257C96.633 9.12292 96.9716 8.56381 97.4115 8.08943C97.8515 7.61504 98.3835 7.23533 98.9751 6.97349C99.5668 6.71165 100.206 6.57319 100.853 6.56655C101.391 6.54069 101.928 6.63051 102.429 6.82997C102.93 7.02942 103.382 7.33388 103.755 7.72281V1.78936H106.4ZM101.349 8.96447C101.006 8.9631 100.666 9.03225 100.351 9.16761C100.036 9.30297 99.752 9.50166 99.5167 9.75135C99.2815 10.001 99.1 10.2964 98.9837 10.6191C98.8673 10.9419 98.8185 11.285 98.8403 11.6274C98.8133 11.9717 98.8583 12.3179 98.9726 12.6439C99.0868 12.9698 99.2677 13.2684 99.5038 13.5205C99.7398 13.7727 100.026 13.9728 100.344 14.1082C100.661 14.2437 101.004 14.3114 101.349 14.307C101.691 14.3134 102.03 14.2471 102.345 14.1126C102.659 13.9781 102.941 13.7784 103.173 13.5267C103.404 13.275 103.58 12.977 103.688 12.6525C103.795 12.328 103.833 11.9843 103.798 11.6441C103.832 11.3034 103.793 10.9594 103.685 10.6345C103.577 10.3096 103.402 10.0111 103.171 9.75834C102.94 9.50561 102.658 9.30431 102.345 9.16754C102.031 9.03076 101.692 8.96157 101.349 8.96447ZM116.656 16.4812H114.225V15.5399C113.839 15.9261 113.377 16.2294 112.869 16.4311C112.362 16.6328 111.818 16.7286 111.272 16.7128C109.217 16.7128 107.924 15.5143 107.924 13.8192C107.924 12.073 109.336 11.0022 111.588 11.0022H114.019V10.5742C114.039 10.337 114.006 10.0983 113.922 9.8757C113.837 9.65315 113.703 9.45253 113.531 9.28878C113.358 9.12502 113.15 9.00235 112.924 8.92988C112.697 8.85742 112.457 8.83703 112.221 8.87024C111.719 8.88372 111.228 9.01098 110.783 9.24241C110.338 9.47383 109.951 9.80337 109.652 10.2061L108.278 8.5797C108.782 7.94397 109.425 7.4332 110.159 7.08724C110.893 6.74127 111.696 6.56946 112.507 6.5852C113.066 6.53207 113.629 6.60298 114.157 6.79285C114.685 6.98272 115.164 7.28686 115.561 7.68354C115.958 8.08021 116.262 8.55962 116.452 9.0875C116.642 9.61538 116.712 10.1787 116.659 10.7371V16.4821L116.656 16.4812ZM114.019 12.7395H111.948C111.083 12.7395 110.595 13.0732 110.595 13.7152C110.595 14.3571 111.143 14.7684 111.982 14.7684C112.244 14.7831 112.505 14.7446 112.751 14.655C112.997 14.5654 113.223 14.4266 113.413 14.2472C113.604 14.0677 113.756 13.8513 113.86 13.6112C113.965 13.3711 114.019 13.1122 114.02 12.8504L114.019 12.7395ZM124.662 9.11857H123.96C123.615 9.07843 123.266 9.1155 122.937 9.22707C122.608 9.33865 122.308 9.52195 122.059 9.7637C121.81 10.0054 121.618 10.2996 121.496 10.6248C121.375 10.95 121.327 11.2982 121.357 11.6441V16.4812H118.707V6.78936H121.138V7.94562C121.455 7.54357 121.86 7.21949 122.321 6.99828C122.783 6.77708 123.289 6.66465 123.801 6.66961C124.094 6.66187 124.386 6.70232 124.666 6.78936V9.11857H124.662Z" fill="#006CFF"/>
</g>
<defs>
<clipPath id="clip0_1371_38">
<rect width="125" height="20" fill="white"/>
</clipPath>
</defs>
</svg>
