<svg width="160" height="36" viewBox="0 0 160 36" fill="none" xmlns="http://www.w3.org/2000/svg">
<g clip-path="url(#clip0_1377_138)">
<path d="M92.2715 24.6079H91.6247C91.433 25.0159 91.1935 25.4119 90.906 25.7959C90.6425 26.1559 90.2832 26.4799 89.8281 26.7679C89.3969 27.0559 88.8699 27.2839 88.247 27.4519C87.6482 27.6199 86.9175 27.7039 86.0552 27.7039C84.9532 27.7039 83.9232 27.5119 82.965 27.1279C82.0307 26.7199 81.2043 26.1319 80.4856 25.3639C79.7909 24.5719 79.24 23.6119 78.8327 22.4839C78.4494 21.3559 78.2578 20.0599 78.2578 18.5959V17.9479C78.2578 16.5079 78.4614 15.2239 78.8687 14.0959C79.2998 12.9679 79.8748 12.0199 80.5934 11.2519C81.336 10.4599 82.1864 9.85985 83.1446 9.45185C84.1268 9.04384 85.1568 8.83984 86.2348 8.83984C87.6721 8.83984 88.81 9.11584 89.6484 9.66785C90.4868 10.1958 91.1456 10.9519 91.6247 11.9359H92.2715V9.34385H96.799V35.5938H87.0323V31.6799H92.2715V24.6079ZM87.5284 23.3839C88.9417 23.3839 90.0796 22.9399 90.942 22.0519C91.8283 21.1399 92.2715 19.9519 92.2715 18.4879V18.0559C92.2715 16.5919 91.8283 15.4159 90.942 14.5279C90.0796 13.6159 88.9417 13.1599 87.5284 13.1599C86.115 13.1599 84.9652 13.6039 84.0789 14.4919C83.2165 15.3559 82.7853 16.5439 82.7853 18.0559V18.4879C82.7853 19.9999 83.2165 21.1999 84.0789 22.0879C84.9652 22.9519 86.115 23.3839 87.5284 23.3839Z" fill="#9488F0"/>
<path d="M112.91 9.34375H117.437V27.1998H112.91V24.6078H112.263C111.472 26.6718 109.771 27.7038 107.16 27.7038C106.274 27.7038 105.448 27.5598 104.681 27.2718C103.914 26.9838 103.244 26.5398 102.669 25.9398C102.094 25.3398 101.639 24.5958 101.303 23.7078C100.992 22.7958 100.836 21.7278 100.836 20.5038V9.34375H105.364V19.5678C105.364 20.8398 105.663 21.8358 106.262 22.5558C106.861 23.2518 107.759 23.5998 108.957 23.5998C110.322 23.5998 111.317 23.1678 111.939 22.3038C112.586 21.4158 112.91 20.2158 112.91 18.7038V9.34375Z" fill="#9488F0"/>
<path d="M120.82 9.34385H128.797V11.9359H129.443C129.779 10.9519 130.342 10.1958 131.132 9.66785C131.947 9.11584 132.917 8.83984 134.043 8.83984C135.815 8.83984 137.241 9.40385 138.319 10.5319C139.397 11.6359 139.936 13.3279 139.936 15.6079V16.3999L135.264 17.4319V16.3279C135.264 15.3439 135.013 14.5639 134.51 13.9879C134.007 13.3879 133.252 13.0879 132.246 13.0879C131.24 13.0879 130.45 13.4359 129.875 14.1319C129.3 14.8279 129.012 15.8239 129.012 17.1199V22.8799H133.109V27.1999H120.82V22.8799H124.485V13.6639H120.82V9.34385Z" fill="#9488F0"/>
<path d="M155.471 9.34375H159.999V27.1998H155.471V24.6078H154.825C154.034 26.6718 152.333 27.7038 149.722 27.7038C148.836 27.7038 148.009 27.5598 147.243 27.2718C146.476 26.9838 145.806 26.5398 145.231 25.9398C144.656 25.3398 144.201 24.5958 143.865 23.7078C143.554 22.7958 143.398 21.7278 143.398 20.5038V9.34375H147.926V19.5678C147.926 20.8398 148.225 21.8358 148.824 22.5558C149.423 23.2518 150.321 23.5998 151.519 23.5998C152.884 23.5998 153.878 23.1678 154.501 22.3038C155.148 21.4158 155.471 20.2158 155.471 18.7038V9.34375Z" fill="#9488F0"/>
<path d="M26.4915 19.7479C26.5155 20.2759 26.6353 20.7679 26.8508 21.2239C27.0904 21.6559 27.4018 22.0399 27.7851 22.3759C28.1923 22.6879 28.6475 22.9399 29.1505 23.1319C29.6775 23.2999 30.2285 23.3839 30.8034 23.3839C31.9293 23.3839 32.7917 23.1919 33.3906 22.8079C33.9894 22.3999 34.4206 21.9199 34.6841 21.3679L38.5648 23.5279C38.3492 23.9839 38.0498 24.4639 37.6665 24.9679C37.2832 25.4479 36.7802 25.8919 36.1574 26.2999C35.5585 26.7079 34.8159 27.0439 33.9295 27.3079C33.0672 27.5719 32.0491 27.7039 30.8753 27.7039C29.5338 27.7039 28.3121 27.4879 27.2102 27.0559C26.1082 26.6239 25.15 25.9999 24.3356 25.1839C23.5451 24.3679 22.9222 23.3719 22.4671 22.1959C22.0359 21.0199 21.8203 19.6879 21.8203 18.1999V17.9839C21.8203 16.6159 22.0479 15.3679 22.503 14.2399C22.9821 13.1119 23.6289 12.1519 24.4434 11.3599C25.2578 10.5679 26.2041 9.95585 27.282 9.52385C28.384 9.06784 29.5578 8.83984 30.8034 8.83984C32.3365 8.83984 33.6541 9.11585 34.756 9.66785C35.8579 10.1958 36.7682 10.8799 37.4868 11.7199C38.2055 12.5359 38.7325 13.4479 39.0679 14.4559C39.4032 15.4399 39.5709 16.3999 39.5709 17.3359V19.7479H26.4915ZM30.7675 12.9439C29.6176 12.9439 28.6834 13.2439 27.9647 13.8439C27.2461 14.4199 26.779 15.0919 26.5634 15.8599H34.9716C34.8278 15.0199 34.3727 14.3239 33.6061 13.7719C32.8635 13.2199 31.9173 12.9439 30.7675 12.9439Z" fill="#1E1E1E"/>
<path d="M55.6061 9.34375H60.6007L56.2888 17.7318V18.3798L60.8522 27.1998H55.642L52.3003 20.2158H51.6535L48.3118 27.1998H43.1016L47.665 18.3798V17.7318L43.3172 9.34375H48.3477L51.6535 15.8958H52.3003L55.6061 9.34375Z" fill="#1E1E1E"/>
<path d="M14.0137 11.935H13.3669C13.1752 11.527 12.9357 11.131 12.6482 10.747C12.3847 10.387 12.0254 10.063 11.5702 9.77504C11.1391 9.48704 10.612 9.25904 9.98922 9.09104C9.39034 8.92304 8.65971 8.83905 7.79733 8.83905C6.69541 8.83905 5.66535 9.03104 4.70715 9.41504C3.77291 9.82305 2.94646 10.411 2.22781 11.179C1.53312 11.971 0.982148 12.931 0.574914 14.059C0.191635 15.187 -1.27988e-07 16.4831 0 17.9471L5.665e-08 18.5951C1.82539e-07 20.0351 0.203611 21.3191 0.610846 22.4471C1.04203 23.5751 1.61696 24.5231 2.33561 25.2911C3.07821 26.0831 3.92861 26.6831 4.88681 27.0911C5.86896 27.4991 6.89903 27.7031 7.977 27.7031C9.4143 27.7031 10.5522 27.4271 11.3906 26.8751C12.229 26.3471 12.8878 25.5911 13.3669 24.6071H14.0137V27.1991H18.5411V0.949219H10.3662V4.86303L14.0137 4.86302V11.935ZM9.27057 13.159C10.6839 13.159 11.8218 13.603 12.6842 14.491C13.5705 15.403 14.0137 16.5911 14.0137 18.0551V18.4871C14.0137 19.9511 13.5705 21.1271 12.6842 22.0151C11.8218 22.9271 10.6839 23.3831 9.27057 23.3831C7.85723 23.3831 6.70739 22.9391 5.82106 22.0511C4.95868 21.1871 4.52749 19.9991 4.52749 18.4871V18.0551C4.52749 16.5431 4.95868 15.343 5.82106 14.455C6.70739 13.591 7.85723 13.159 9.27057 13.159Z" fill="#1E1E1E"/>
<path d="M73.0642 20.6016H66.4766V27.2016H73.0642V20.6016Z" fill="#1E1E1E"/>
</g>
<defs>
<clipPath id="clip0_1377_138">
<rect width="160" height="36" fill="white"/>
</clipPath>
</defs>
</svg>
