<svg width="506" height="101" viewBox="0 0 506 101" fill="none" xmlns="http://www.w3.org/2000/svg">
<g clip-path="url(#clip0_1381_5)">
<path d="M94.9928 36.6085L89.4546 31.0703C85.6839 34.1424 79.161 36.7263 75.0537 38.0646C74.8685 38.1235 74.6918 38.1992 74.5066 38.2666C73.4209 39.3355 72.3604 40.4633 71.3672 41.6501L79.4556 49.7385L94.5803 64.8632L94.9928 64.4508C102.677 56.758 102.677 44.2929 94.9928 36.6085Z" fill="url(#paint0_linear_1381_5)"/>
<path d="M94.9928 36.6085L89.4546 31.0703C85.6839 34.1424 79.161 36.7263 75.0537 38.0646C74.8685 38.1235 74.6918 38.1992 74.5066 38.2666C73.4209 39.3355 72.3604 40.4633 71.3672 41.6501L79.4556 49.7385L94.5803 64.8632L94.9928 64.4508C102.677 56.758 102.677 44.2929 94.9928 36.6085Z" fill="url(#paint1_linear_1381_5)"/>
<path d="M21.4685 49.7307L37.2161 33.9831C37.6285 32.8553 38.0746 31.719 38.5712 30.608C43.3182 19.9694 53.9737 16.3586 63.9979 16.1819C65.3193 13.842 67.8191 12.2849 70.6303 12.2513L64.3767 5.99769C56.6923 -1.68673 44.2272 -1.68673 36.5428 5.99769L36.1303 6.4101L6.34375 36.1967L21.4685 51.3214C21.0308 50.8838 21.0308 50.1684 21.4685 49.7307Z" fill="url(#paint2_linear_1381_5)"/>
<path d="M21.4685 49.7307L37.2161 33.9831C37.6285 32.8553 38.0746 31.719 38.5712 30.608C43.3182 19.9694 53.9737 16.3586 63.9979 16.1819C65.3193 13.842 67.8191 12.2849 70.6303 12.2513L64.3767 5.99769C56.6923 -1.68673 44.2272 -1.68673 36.5428 5.99769L36.1303 6.4101L6.34375 36.1967L21.4685 51.3214C21.0308 50.8838 21.0308 50.1684 21.4685 49.7307Z" fill="url(#paint3_linear_1381_5)"/>
<path d="M75.8881 17.5052C75.8811 17.4983 75.8811 17.4983 75.8881 17.5052Z" fill="white"/>
<path d="M79.4548 49.7293C79.8924 50.167 79.8924 50.8824 79.4548 51.3201L65.5252 65.2496L62.0996 68.6752L52.8244 77.9504L51.2589 79.5159C50.8213 79.9536 50.1059 79.9536 49.6682 79.5159L35.5703 65.418L26.3035 56.1512L21.4724 51.3201L6.3476 36.1953L5.93519 36.6077C-1.74923 44.2921 -1.74923 56.7572 5.93519 64.4416L9.43652 67.943L35.7386 94.2451L36.5466 95.0531C44.231 102.737 56.6961 102.737 64.3805 95.0531L64.7929 94.6406L94.5795 64.8541L79.4548 49.7293Z" fill="url(#paint4_linear_1381_5)"/>
<path d="M75.8805 17.5012C75.8805 17.4927 75.8805 17.4927 75.8805 17.5012C75.3334 16.2892 74.3655 15.2792 73.0778 14.69C73.0357 14.6732 73.002 14.6479 72.9599 14.6311C72.7916 14.5553 72.6149 14.4964 72.4465 14.4375C72.5475 15.0435 72.4802 15.6916 72.2193 16.2976C72.1519 16.4491 72.0678 16.5922 71.9752 16.7352C71.1083 18.1408 69.3324 18.7468 67.7753 18.0819C67.0346 17.7705 66.4707 17.215 66.1172 16.5585C65.8899 16.8783 65.6879 17.2318 65.528 17.6106C64.2992 20.4891 65.629 23.8137 68.5075 25.0425C71.386 26.2713 74.7106 24.9415 75.9394 22.063C76.5875 20.5396 76.5202 18.8983 75.8805 17.5012Z" fill="#1E1E1E"/>
<path d="M37.2806 33.8203C37.2638 33.8708 37.2301 33.9213 37.2217 33.9802C34.3011 49.4164 32.8619 51.5879 26.2969 56.1497L28.6283 58.4811C30.1517 56.9746 32.34 54.3822 34.4105 50.3675C36.9608 45.4521 37.3143 38.0286 37.2806 33.8203Z" fill="url(#paint5_linear_1381_5)"/>
<path d="M70.4974 40.567C70.4554 40.6007 70.4049 40.6427 70.3712 40.668C68.9067 41.8463 67.5348 43.3445 66.3396 45.1373C62.7373 50.5155 60.6668 58.5534 62.0976 68.6703L62.0892 68.6787C62.0892 68.6787 62.0892 68.6787 62.0892 68.6871L67.5769 63.3004C67.3412 62.5008 67.1224 61.6676 66.9204 60.8007C65.0266 52.788 66.4322 47.5108 71.3559 41.6612C71.9704 40.9289 73.3928 39.4728 74.6469 38.2188C74.5964 38.2356 74.5543 38.2524 74.5038 38.2692C73.1319 38.7742 71.7852 39.5486 70.4974 40.567Z" fill="url(#paint6_linear_1381_5)"/>
<path d="M66.347 45.1406C62.7447 50.5189 60.6657 58.5568 62.0966 68.682L62.105 68.6736C60.6742 58.5568 62.7447 50.5189 66.347 45.1406Z" fill="white"/>
<path d="M66.347 45.1406C62.7447 50.5189 60.6657 58.5568 62.0966 68.682L62.105 68.6736C60.6742 58.5568 62.7447 50.5189 66.347 45.1406Z" fill="url(#paint7_linear_1381_5)"/>
<path d="M93.273 23.4429C90.0494 18.8979 80.2776 16.7937 80.2776 16.7937C80.2776 16.7937 78.9478 13.1072 75.5054 11.9542C72.3912 10.9189 67.7031 12.779 67.7031 12.779L67.7705 12.8379C68.6626 12.4676 69.6305 12.2572 70.6405 12.2403C70.8846 12.2403 71.1203 12.2403 71.3644 12.2656C74.731 12.5433 77.416 14.9421 78.2071 18.0394C94.6196 22.1047 94.426 27.0116 89.4518 31.06C89.2582 31.2199 89.0478 31.3798 88.8374 31.5313L88.9215 31.6071C88.93 31.6155 96.3619 27.8027 93.273 23.4429Z" fill="url(#paint8_linear_1381_5)"/>
<path d="M78.2136 18.0491C77.414 14.9517 74.7375 12.553 71.3708 12.2752C71.1268 12.2584 70.8827 12.25 70.647 12.25C69.637 12.2584 68.6691 12.4772 67.7769 12.8476C66.1946 13.5125 64.8647 14.6824 64.0231 16.1806C53.9904 16.3573 43.3433 19.9597 38.5963 30.6067C38.125 31.6672 37.7042 32.7446 37.3002 33.8219C37.3338 38.0302 36.9719 45.4622 34.4385 50.3691C32.368 54.3838 30.1797 56.9762 28.6562 58.4828L35.5916 65.4181L49.6895 79.516C50.1272 79.9537 50.8426 79.9537 51.2803 79.516L52.8457 77.9505L62.1125 68.6837C60.6817 58.5585 62.7606 50.5206 66.3629 45.1423C67.5665 43.3412 68.9384 41.843 70.4029 40.6562C70.445 40.6226 70.4787 40.5973 70.5208 40.5637C71.8001 39.5537 73.1552 38.7709 74.5271 38.2575C74.5776 38.2407 74.6197 38.2238 74.6702 38.207C74.8048 38.1565 74.9395 38.106 75.0742 38.0555C78.9627 36.7846 85.0227 34.3942 88.8607 31.5326C89.0711 31.3727 89.2731 31.2212 89.4751 31.0612C94.4325 27.0128 94.6261 22.1059 78.2136 18.0491ZM75.9411 22.0638C74.7123 24.9423 71.3793 26.2722 68.5092 25.0433C65.6307 23.8145 64.3008 20.4815 65.5297 17.6114C65.6896 17.2327 65.8916 16.8792 66.1188 16.5593C66.4723 17.2158 67.0363 17.7629 67.7769 18.0827C69.3424 18.7477 71.1183 18.1417 71.9768 16.7361C71.9937 16.7024 72.0105 16.6687 72.0358 16.6351C72.1031 16.5257 72.1704 16.4247 72.2209 16.3068C72.4818 15.7008 72.5492 15.0527 72.4482 14.4467C72.6249 14.5057 72.7933 14.5646 72.9616 14.6403C73.0037 14.6572 73.0373 14.6824 73.0794 14.6992C74.3672 15.2884 75.3351 16.2984 75.8822 17.502L75.8906 17.5104C75.8906 17.5104 75.8906 17.5104 75.8822 17.5104C76.2946 18.4278 76.4629 19.4462 76.3535 20.4731C76.2946 21.0033 76.1683 21.542 75.9411 22.0638Z" fill="white"/>
</g>
<path d="M119.65 22.4C123.317 18.7 127.767 16.85 133 16.85C136 16.85 138.8 17.5167 141.4 18.85C144.033 20.15 146.233 21.95 148 24.25L141.3 28.25C139.067 25.75 136.3 24.5 133 24.5C129.933 24.5 127.283 25.6 125.05 27.8C122.85 30 121.75 32.65 121.75 35.75C121.75 38.8833 122.85 41.55 125.05 43.75C127.25 45.95 129.9 47.05 133 47.05C135.633 47.05 137.817 46.35 139.55 44.95C141.317 43.55 142.4 41.6667 142.8 39.3H131.6V32.45H151.05C151.283 33.4167 151.4 34.5167 151.4 35.75C151.4 41.4167 149.7 46 146.3 49.5C142.9 53 138.467 54.75 133 54.75C127.767 54.75 123.3 52.9 119.6 49.2C115.933 45.4667 114.1 40.9833 114.1 35.75C114.1 30.55 115.95 26.1 119.65 22.4ZM159.155 30.25C161.888 27.4833 165.205 26.1 169.105 26.1C173.038 26.1 176.355 27.4833 179.055 30.25C181.788 33.0167 183.155 36.35 183.155 40.25C183.155 40.9833 183.088 41.9167 182.955 43.05H162.605C162.972 44.4833 163.805 45.6667 165.105 46.6C166.438 47.5 167.988 47.95 169.755 47.95C172.455 47.95 174.572 47.1 176.105 45.4L181.755 48.95C180.455 50.6167 178.705 51.95 176.505 52.95C174.305 53.95 172.055 54.45 169.755 54.45C165.522 54.45 162.005 53.0833 159.205 50.35C156.438 47.5833 155.055 44.2167 155.055 40.25C155.055 36.35 156.422 33.0167 159.155 30.25ZM162.605 37.45H175.855C175.655 36.1167 174.938 34.9833 173.705 34.05C172.472 33.1167 170.955 32.65 169.155 32.65C167.388 32.65 165.905 33.1167 164.705 34.05C163.538 34.9833 162.838 36.1167 162.605 37.45ZM190.455 30.25C193.188 27.4833 196.505 26.1 200.405 26.1C202.738 26.1 204.922 26.65 206.955 27.75C208.988 28.8167 210.672 30.2667 212.005 32.1L206.205 35.95C204.772 34.15 202.838 33.25 200.405 33.25C198.472 33.25 196.822 33.9333 195.455 35.3C194.088 36.6667 193.405 38.3167 193.405 40.25C193.405 42.2167 194.088 43.8833 195.455 45.25C196.822 46.6167 198.472 47.3 200.405 47.3C202.972 47.3 204.938 46.3 206.305 44.3L212.155 48.2C210.855 50.1 209.172 51.6167 207.105 52.75C205.038 53.8833 202.805 54.45 200.405 54.45C196.505 54.45 193.172 53.0667 190.405 50.3C187.672 47.5 186.305 44.15 186.305 40.25C186.305 36.35 187.688 33.0167 190.455 30.25ZM216.464 54V15H223.164V36.6L232.814 26.5H240.864L230.714 37.7L241.914 54H233.764L226.264 43L223.164 46.05V54H216.464ZM248.512 30.25C251.245 27.4833 254.562 26.1 258.462 26.1C262.362 26.1 265.695 27.5 268.462 30.3C271.262 33.0667 272.662 36.3833 272.662 40.25C272.662 44.15 271.278 47.4833 268.512 50.25C265.712 53.05 262.362 54.45 258.462 54.45C254.562 54.45 251.228 53.0667 248.462 50.3C245.728 47.5 244.362 44.15 244.362 40.25C244.362 36.35 245.745 33.0167 248.512 30.25ZM251.462 40.25C251.462 42.2167 252.145 43.8833 253.512 45.25C254.878 46.6167 256.528 47.3 258.462 47.3C260.428 47.3 262.095 46.6167 263.462 45.25C264.828 43.8833 265.512 42.2167 265.512 40.25C265.512 38.3167 264.828 36.6667 263.462 35.3C262.095 33.9333 260.428 33.25 258.462 33.25C256.528 33.25 254.878 33.9333 253.512 35.3C252.145 36.6667 251.462 38.3167 251.462 40.25Z" fill="url(#paint9_linear_1381_5)"/>
<path d="M288.486 17.5H316.436V24.7H306.186V54H298.736V24.7H288.486V17.5ZM322.973 30.25C325.707 27.4833 329.023 26.1 332.923 26.1C336.857 26.1 340.173 27.4833 342.873 30.25C345.607 33.0167 346.973 36.35 346.973 40.25C346.973 40.9833 346.907 41.9167 346.773 43.05H326.423C326.79 44.4833 327.623 45.6667 328.923 46.6C330.257 47.5 331.807 47.95 333.573 47.95C336.273 47.95 338.39 47.1 339.923 45.4L345.573 48.95C344.273 50.6167 342.523 51.95 340.323 52.95C338.123 53.95 335.873 54.45 333.573 54.45C329.34 54.45 325.823 53.0833 323.023 50.35C320.257 47.5833 318.873 44.2167 318.873 40.25C318.873 36.35 320.24 33.0167 322.973 30.25ZM326.423 37.45H339.673C339.473 36.1167 338.757 34.9833 337.523 34.05C336.29 33.1167 334.773 32.65 332.973 32.65C331.207 32.65 329.723 33.1167 328.523 34.05C327.357 34.9833 326.657 36.1167 326.423 37.45ZM351.473 26.5H357.873L358.373 30.45C360.007 27.6833 362.723 26.3 366.523 26.3C367.49 26.3 368.323 26.3667 369.023 26.5L367.573 33.25C367.173 33.1833 366.89 33.15 366.723 33.15C364.39 33.15 362.44 33.8667 360.873 35.3C359.307 36.7 358.523 39.0833 358.523 42.45V54H351.473V26.5ZM373.007 54V26.5H379.407L379.857 30.35C380.557 29.0167 381.54 27.9667 382.807 27.2C384.107 26.4333 385.49 26.05 386.957 26.05C388.79 26.05 390.39 26.4833 391.757 27.35C393.123 28.2167 394.157 29.4 394.857 30.9C395.557 29.4667 396.557 28.3 397.857 27.4C399.19 26.5 400.673 26.05 402.307 26.05C405.54 26.05 408.09 27.15 409.957 29.35C411.823 31.55 412.757 34.9667 412.757 39.6V54H405.707V39.6C405.707 37.3 405.257 35.6167 404.357 34.55C403.49 33.4833 402.39 32.95 401.057 32.95C399.757 32.95 398.64 33.4833 397.707 34.55C396.807 35.6167 396.357 37.3 396.357 39.6V54H389.357V39.6C389.357 37.3 388.923 35.6167 388.057 34.55C387.19 33.4833 386.073 32.95 384.707 32.95C383.373 32.95 382.257 33.55 381.357 34.75C380.49 35.9167 380.057 37.65 380.057 39.95V54H373.007ZM418.221 26.5H425.271V54H418.221V26.5ZM418.921 17.4C419.721 16.6 420.671 16.2 421.771 16.2C422.838 16.2 423.771 16.6 424.571 17.4C425.371 18.2 425.771 19.15 425.771 20.25C425.771 21.35 425.371 22.3 424.571 23.1C423.771 23.9 422.838 24.3 421.771 24.3C420.671 24.3 419.721 23.9 418.921 23.1C418.121 22.3 417.721 21.35 417.721 20.25C417.721 19.15 418.121 18.2 418.921 17.4ZM431.161 54V26.5H437.561L438.011 30.5C438.811 29.1667 439.861 28.1 441.161 27.3C442.494 26.4667 443.994 26.05 445.661 26.05C448.994 26.05 451.628 27.2 453.561 29.5C455.528 31.8 456.511 35.2833 456.511 39.95V54H449.511V39.95C449.511 37.65 448.961 35.9167 447.861 34.75C446.794 33.55 445.461 32.95 443.861 32.95C442.228 32.95 440.878 33.55 439.811 34.75C438.744 35.9167 438.211 37.65 438.211 39.95V54H431.161ZM464.421 30.2C466.955 27.4333 470.021 26.05 473.621 26.05C475.488 26.05 477.205 26.5167 478.771 27.45C480.338 28.3833 481.538 29.5833 482.371 31.05L482.821 26.5H489.221V54H482.821L482.371 49.4C481.538 50.8667 480.338 52.0667 478.771 53C477.205 53.9333 475.488 54.4 473.621 54.4C470.021 54.4 466.955 53.0167 464.421 50.25C461.888 47.45 460.621 44.1 460.621 40.2C460.621 36.3 461.888 32.9667 464.421 30.2ZM469.821 45.3C471.221 46.7333 472.921 47.45 474.921 47.45C476.955 47.45 478.671 46.75 480.071 45.35C481.471 43.9167 482.171 42.2 482.171 40.2C482.171 38.2 481.471 36.5 480.071 35.1C478.671 33.6667 476.955 32.95 474.921 32.95C472.921 32.95 471.221 33.6667 469.821 35.1C468.421 36.5 467.721 38.2 467.721 40.2C467.721 42.2 468.421 43.9 469.821 45.3ZM502.127 54H495.077V15H502.127V54Z" fill="black"/>
<path d="M118.46 72H119.86V71.58C119.86 70.02 120.213 68.8867 120.92 68.18C121.627 67.46 122.553 67.1 123.7 67.1C124.233 67.1 124.727 67.18 125.18 67.34L124.66 69.08C124.26 69.0133 123.993 68.98 123.86 68.98C123.193 68.98 122.68 69.18 122.32 69.58C121.973 69.9667 121.8 70.6333 121.8 71.58V72H124.64V73.76H121.8V83.02L119.86 82.98V73.76H118.46V72ZM126.745 72H128.545L128.665 73.8C128.985 73.2 129.438 72.74 130.025 72.42C130.625 72.1 131.305 71.94 132.065 71.94C132.105 71.94 132.138 71.94 132.165 71.94C132.445 71.94 132.718 71.96 132.985 72L132.585 73.88C132.425 73.8533 132.298 73.84 132.205 73.84C131.178 73.84 130.331 74.1667 129.665 74.82C129.011 75.4733 128.685 76.5067 128.685 77.92V83H126.745V72ZM135.909 73.5C137.002 72.4067 138.329 71.86 139.889 71.86C141.435 71.86 142.762 72.4133 143.869 73.52C144.975 74.6133 145.529 75.9333 145.529 77.48C145.529 79.04 144.975 80.38 143.869 81.5C142.762 82.6067 141.435 83.16 139.889 83.16C138.329 83.16 136.995 82.6067 135.889 81.5C134.795 80.38 134.249 79.04 134.249 77.48C134.249 75.9333 134.802 74.6067 135.909 73.5ZM136.229 77.48C136.229 78.5067 136.589 79.3733 137.309 80.08C138.015 80.8 138.875 81.16 139.889 81.16C140.902 81.16 141.762 80.8 142.469 80.08C143.189 79.36 143.549 78.4933 143.549 77.48C143.549 76.48 143.189 75.6267 142.469 74.92C141.762 74.2 140.902 73.84 139.889 73.84C138.875 73.84 138.009 74.2 137.289 74.92C136.582 75.6267 136.229 76.48 136.229 77.48ZM147.741 83V72H149.541L149.641 73.82C149.907 73.1933 150.314 72.7067 150.861 72.36C151.421 72.0133 152.014 71.84 152.641 71.84C153.481 71.84 154.187 72.06 154.761 72.5C155.347 72.9267 155.761 73.4867 156.001 74.18C156.241 73.5 156.641 72.94 157.201 72.5C157.761 72.06 158.427 71.84 159.201 71.84C160.441 71.84 161.427 72.2733 162.161 73.14C162.907 73.9933 163.281 75.3333 163.281 77.16V83H161.321V77.16C161.321 75.9733 161.094 75.1133 160.641 74.58C160.201 74.0333 159.621 73.76 158.901 73.76C158.221 73.76 157.647 74.0333 157.181 74.58C156.714 75.1267 156.481 75.9867 156.481 77.16V83H154.521V77.16C154.521 75.9733 154.294 75.1133 153.841 74.58C153.401 74.0333 152.821 73.76 152.101 73.76C151.407 73.76 150.827 74.0667 150.361 74.68C149.907 75.2933 149.681 76.2 149.681 77.4V83H147.741ZM173.133 70.4C174.6 68.9333 176.373 68.2 178.453 68.2C179.626 68.2 180.726 68.4533 181.753 68.96C182.78 69.4667 183.646 70.16 184.353 71.04L182.653 72.3C182.146 71.6733 181.526 71.1867 180.793 70.84C180.06 70.48 179.28 70.3 178.453 70.3C176.96 70.3 175.68 70.8267 174.613 71.88C173.56 72.92 173.033 74.1867 173.033 75.68C173.033 77.2 173.56 78.4867 174.613 79.54C175.68 80.5933 176.96 81.12 178.453 81.12C179.306 81.12 180.1 80.94 180.833 80.58C181.58 80.2067 182.2 79.6933 182.693 79.04L184.493 80.16C183.8 81.1067 182.92 81.86 181.853 82.42C180.8 82.9667 179.666 83.24 178.453 83.24C176.373 83.24 174.6 82.5067 173.133 81.04C171.666 79.56 170.933 77.78 170.933 75.7C170.933 73.6333 171.666 71.8667 173.133 70.4ZM187.608 73.5C188.701 72.4067 190.028 71.86 191.588 71.86C193.135 71.86 194.461 72.4133 195.568 73.52C196.675 74.6133 197.228 75.9333 197.228 77.48C197.228 79.04 196.675 80.38 195.568 81.5C194.461 82.6067 193.135 83.16 191.588 83.16C190.028 83.16 188.695 82.6067 187.588 81.5C186.495 80.38 185.948 79.04 185.948 77.48C185.948 75.9333 186.501 74.6067 187.608 73.5ZM187.928 77.48C187.928 78.5067 188.288 79.3733 189.008 80.08C189.715 80.8 190.575 81.16 191.588 81.16C192.601 81.16 193.461 80.8 194.168 80.08C194.888 79.36 195.248 78.4933 195.248 77.48C195.248 76.48 194.888 75.6267 194.168 74.92C193.461 74.2 192.601 73.84 191.588 73.84C190.575 73.84 189.708 74.2 188.988 74.92C188.281 75.6267 187.928 76.48 187.928 77.48ZM199.44 83V72H201.38V83H199.44ZM199.18 69.64C199.18 69.2933 199.3 69 199.54 68.76C199.793 68.52 200.087 68.4 200.42 68.4C200.753 68.4 201.04 68.5267 201.28 68.78C201.52 69.02 201.64 69.3067 201.64 69.64C201.64 69.9733 201.52 70.26 201.28 70.5C201.04 70.7533 200.753 70.88 200.42 70.88C200.087 70.88 199.793 70.76 199.54 70.52C199.3 70.28 199.18 69.9867 199.18 69.64ZM204.245 83V72H206.045L206.145 73.94C206.465 73.3133 206.918 72.8067 207.505 72.42C208.105 72.0333 208.805 71.84 209.605 71.84C210.951 71.84 212.038 72.3133 212.865 73.26C213.691 74.1933 214.105 75.5733 214.105 77.4V83H212.145V77.4C212.145 76.2133 211.865 75.3133 211.305 74.7C210.745 74.0733 210.031 73.76 209.165 73.76C208.311 73.76 207.598 74.0667 207.025 74.68C206.465 75.2933 206.185 76.2 206.185 77.4V83H204.245ZM218.465 70.4C219.932 68.9333 221.705 68.2 223.785 68.2C224.972 68.2 226.085 68.46 227.125 68.98C228.165 69.5 229.038 70.2133 229.745 71.12L227.905 72.24C227.412 71.64 226.805 71.1667 226.085 70.82C225.365 70.4733 224.598 70.3 223.785 70.3C222.292 70.3 221.012 70.8267 219.945 71.88C218.892 72.92 218.365 74.1867 218.365 75.68C218.365 77.2 218.892 78.4867 219.945 79.54C221.012 80.5933 222.292 81.12 223.785 81.12C225.185 81.12 226.338 80.7067 227.245 79.88C228.152 79.04 228.658 77.94 228.765 76.58H223.305V74.68H231.005C231.058 74.96 231.085 75.3 231.085 75.7C231.085 77.9267 230.405 79.74 229.045 81.14C227.698 82.54 225.945 83.24 223.785 83.24C221.705 83.24 219.932 82.5067 218.465 81.04C216.998 79.56 216.265 77.78 216.265 75.7C216.265 73.6333 216.998 71.8667 218.465 70.4ZM234.483 73.5C235.576 72.4067 236.889 71.86 238.423 71.86C240.009 71.86 241.336 72.4067 242.403 73.5C243.469 74.5933 244.003 75.92 244.003 77.48C244.003 77.5333 243.983 77.84 243.943 78.4H234.943C235.089 79.24 235.509 79.94 236.203 80.5C236.909 81.0467 237.736 81.32 238.683 81.32C240.003 81.32 241.049 80.8467 241.823 79.9L243.403 80.88C242.883 81.5733 242.196 82.1267 241.343 82.54C240.489 82.9533 239.603 83.16 238.683 83.16C237.029 83.16 235.643 82.6067 234.523 81.5C233.403 80.3933 232.843 79.0533 232.843 77.48C232.843 75.9333 233.389 74.6067 234.483 73.5ZM234.923 76.8H241.983C241.929 75.9333 241.569 75.2 240.903 74.6C240.249 73.9867 239.429 73.68 238.443 73.68C237.483 73.68 236.669 73.9867 236.003 74.6C235.349 75.2 234.989 75.9333 234.923 76.8ZM247.198 73.5C248.291 72.4067 249.618 71.86 251.178 71.86C252.111 71.86 252.978 72.0733 253.778 72.5C254.591 72.9267 255.264 73.5067 255.798 74.24L254.178 75.32C253.431 74.3333 252.431 73.84 251.178 73.84C250.164 73.84 249.298 74.2 248.578 74.92C247.871 75.6267 247.518 76.48 247.518 77.48C247.518 78.5067 247.871 79.38 248.578 80.1C249.298 80.8067 250.164 81.16 251.178 81.16C251.804 81.16 252.384 81.02 252.918 80.74C253.451 80.46 253.884 80.0733 254.218 79.58L255.838 80.66C255.331 81.42 254.664 82.0267 253.838 82.48C253.011 82.9333 252.124 83.16 251.178 83.16C249.618 83.16 248.284 82.6067 247.178 81.5C246.084 80.38 245.538 79.04 245.538 77.48C245.538 75.9333 246.091 74.6067 247.198 73.5ZM258.014 83V67.4H259.874V76.92L264.794 72H267.114L262.914 76.38L267.674 83H265.374L261.654 77.84L259.874 79.56V83H258.014ZM270.557 73.5C271.651 72.4067 272.977 71.86 274.537 71.86C276.084 71.86 277.411 72.4133 278.517 73.52C279.624 74.6133 280.177 75.9333 280.177 77.48C280.177 79.04 279.624 80.38 278.517 81.5C277.411 82.6067 276.084 83.16 274.537 83.16C272.977 83.16 271.644 82.6067 270.537 81.5C269.444 80.38 268.897 79.04 268.897 77.48C268.897 75.9333 269.451 74.6067 270.557 73.5ZM270.877 77.48C270.877 78.5067 271.237 79.3733 271.957 80.08C272.664 80.8 273.524 81.16 274.537 81.16C275.551 81.16 276.411 80.8 277.117 80.08C277.837 79.36 278.197 78.4933 278.197 77.48C278.197 76.48 277.837 75.6267 277.117 74.92C276.411 74.2 275.551 73.84 274.537 73.84C273.524 73.84 272.657 74.2 271.937 74.92C271.231 75.6267 270.877 76.48 270.877 77.48Z" fill="#414141"/>
<defs>
<linearGradient id="paint0_linear_1381_5" x1="35.0104" y1="101.997" x2="105.612" y2="30.1039" gradientUnits="userSpaceOnUse">
<stop stop-color="#5D47FF"/>
<stop offset="0.5903" stop-color="#846DFF"/>
<stop offset="1" stop-color="#A36CFF"/>
</linearGradient>
<linearGradient id="paint1_linear_1381_5" x1="47.723" y1="87.5524" x2="107.603" y2="29.0184" gradientUnits="userSpaceOnUse">
<stop stop-color="#5D47FF"/>
<stop offset="0.5903" stop-color="#846DFF"/>
<stop offset="1" stop-color="#A36CFF"/>
</linearGradient>
<linearGradient id="paint2_linear_1381_5" x1="-2.10381" y1="65.5543" x2="68.4975" y2="-6.3384" gradientUnits="userSpaceOnUse">
<stop stop-color="#5D47FF"/>
<stop offset="0.5903" stop-color="#846DFF"/>
<stop offset="1" stop-color="#A36CFF"/>
</linearGradient>
<linearGradient id="paint3_linear_1381_5" x1="-33.2221" y1="84.2589" x2="90.574" y2="-22.9412" gradientUnits="userSpaceOnUse">
<stop stop-color="#5D47FF"/>
<stop offset="0.5903" stop-color="#846DFF"/>
<stop offset="1" stop-color="#A36CFF"/>
</linearGradient>
<linearGradient id="paint4_linear_1381_5" x1="89.6621" y1="10.8495" x2="15.2051" y2="86.2036" gradientUnits="userSpaceOnUse">
<stop stop-color="#5D47FF"/>
<stop offset="0.5903" stop-color="#846DFF"/>
<stop offset="1" stop-color="#A36CFF"/>
</linearGradient>
<linearGradient id="paint5_linear_1381_5" x1="26.3022" y1="46.1499" x2="37.2855" y2="46.1499" gradientUnits="userSpaceOnUse">
<stop stop-color="#5D47FF"/>
<stop offset="0.5903" stop-color="#846DFF"/>
<stop offset="1" stop-color="#A36CFF"/>
</linearGradient>
<linearGradient id="paint6_linear_1381_5" x1="-124.1" y1="650.701" x2="-0.610013" y2="264.124" gradientUnits="userSpaceOnUse">
<stop stop-color="#5D47FF"/>
<stop offset="0.5903" stop-color="#846DFF"/>
<stop offset="1" stop-color="#A36CFF"/>
</linearGradient>
<linearGradient id="paint7_linear_1381_5" x1="-125.801" y1="650.159" x2="-2.31095" y2="263.582" gradientUnits="userSpaceOnUse">
<stop stop-color="#5D47FF"/>
<stop offset="0.5903" stop-color="#846DFF"/>
<stop offset="1" stop-color="#A36CFF"/>
</linearGradient>
<linearGradient id="paint8_linear_1381_5" x1="67.7035" y1="21.631" x2="94.0254" y2="21.631" gradientUnits="userSpaceOnUse">
<stop stop-color="#5D47FF"/>
<stop offset="0.5903" stop-color="#846DFF"/>
<stop offset="1" stop-color="#A36CFF"/>
</linearGradient>
<linearGradient id="paint9_linear_1381_5" x1="309" y1="20" x2="309" y2="60" gradientUnits="userSpaceOnUse">
<stop stop-color="#7962FF"/>
<stop offset="1" stop-color="#956DFF"/>
</linearGradient>
<clipPath id="clip0_1381_5">
<rect width="101" height="101" fill="white"/>
</clipPath>
</defs>
</svg>
