<svg width="123" height="48" viewBox="0 0 123 48" fill="none" xmlns="http://www.w3.org/2000/svg">
<path fill-rule="evenodd" clip-rule="evenodd" d="M44.3 15.5V28.5H47.5H50.7V23.5C50.7 20.2 50.7 18.4 50.7 18.2C50.8 17.7 50.9 17.2 51.2 16.8C51.6 16.1 52.3 15.8 53.1 15.9C54.2 16 54.9 16.6 55.1 17.9C55.1 18.1 55.1 20.1 55.1 23.3V28.4H58.3H61.5V22.4C61.5 17.3 61.5 16.3 61.4 15.8C61.2 14 60.6 12.6 59.5 11.6C58.6 10.7 57.5 10.2 56.2 10C55.7 9.9 54.3 10 53.9 10.1C52.7 10.4 51.8 10.8 51 11.7L50.5 12.1V7.3V2.5H47.3H44.1V15.5H44.3ZM112.3 2.7C112.1 3.1 105.6 18.8 105.6 18.8C105.6 18.8 107.3 18.8 109.4 18.8H113.2L116.6 10.7C118.5 6.2 120 2.5 120 2.5C120 2.5 118.3 2.5 116.2 2.5H112.4L112.3 2.7ZM30.3 10.1C28.9 10.3 27.8 10.7 26.7 11.4C24.5 12.8 23.1 15.2 22.7 18C22.5 19.3 22.6 20.9 22.9 22.1C23.7 25.2 25.8 27.6 28.5 28.5C29.5 28.8 29.9 28.9 31.1 28.9C32 28.9 32.3 28.9 32.6 28.8C33.9 28.5 34.8 28 35.6 27.2L36 26.8V27.6V28.4H39.1H42.2V19.4V10.4H39.1H36V11.2V12L35.7 11.7C35 10.9 34 10.4 32.7 10.1C32.3 10 32.1 10 31.3 10C30.8 10.1 30.4 10.1 30.3 10.1ZM71.1 10.1C69.4 10.3 67.6 11.1 66.3 12.1C63.8 14.2 62.5 17.5 63 20.9C63.5 24.7 66.2 27.6 70 28.6C70.8 28.8 71.6 28.9 72.6 28.9C74.4 28.9 75.7 28.6 77.1 27.9C79.9 26.5 81.7 24 82.1 20.9C82.2 20.1 82.2 18.8 82.1 18.1C81.9 16.6 81.3 15.1 80.4 13.9C80 13.4 79.2 12.5 78.7 12.1C77.3 11 75.7 10.3 73.9 10.1C73.2 10 71.8 10 71.1 10.1ZM91.5 10.1C89.8 10.3 88.1 11 86.8 12.1C86.3 12.5 85.4 13.4 85.1 13.9C84.2 15.1 83.7 16.6 83.4 18.1C83.3 18.8 83.3 20.2 83.4 20.9C84 24.9 86.9 28 90.9 28.8C91.7 29 92.1 29 93 29C94.7 29 96.2 28.7 97.6 27.9C101.3 26 103.3 21.8 102.4 17.5C101.6 13.5 98.4 10.6 94.3 10.1C93.6 10 92.2 10 91.5 10.1ZM2 10.5C2 10.5 3.7 14.6 5.8 19.6C7.9 24.6 9.6 28.7 9.6 28.7C9.6 28.7 9 30.2 8.2 32C7.4 33.8 6.8 35.2 6.8 35.3C6.8 35.4 8.3 35.3 10.2 35.3H13.6L18.7 23C21.5 16.2 23.8 10.7 23.8 10.6C23.8 10.6 23.1 10.5 20.4 10.6H17L14.9 15.8C14 18.6 13.1 21 13.1 21C13.1 21 12.2 18.6 11 15.8L9 10.6H5.5C3.6 10.5 2 10.5 2 10.5ZM33.4 15.9C34.7 16.2 35.7 17.2 36.1 18.5C36.2 19 36.2 19.9 36.1 20.4C35.8 21.7 34.8 22.7 33.5 23C33 23.1 32.1 23.1 31.6 23C30.5 22.7 29.5 21.9 29.1 20.9C28.6 19.8 28.8 18.4 29.4 17.4C30.3 16.1 31.8 15.6 33.4 15.9ZM73.3 16C74.7 16.2 75.8 17.3 76.1 18.7C76.2 19.2 76.2 20 76.1 20.5C75.8 21.8 74.8 22.7 73.6 23.1C73.2 23.2 72.1 23.2 71.7 23.1C70.7 22.8 69.9 22.1 69.4 21.2C69.1 20.6 69.1 20.3 69.1 19.6C69.1 19 69.2 18.7 69.4 18.2C69.7 17.6 70.1 17 70.7 16.6C71.3 16 72.3 15.8 73.3 16ZM93.6 16C94.8 16.2 95.8 17 96.2 18.1C96.4 18.6 96.5 18.9 96.5 19.5C96.5 20.2 96.4 20.5 96.2 21.1C95.8 22 94.9 22.7 93.9 23C93.5 23.1 92.4 23.1 92 23C90.8 22.7 89.8 21.7 89.5 20.4C89.4 19.9 89.4 19 89.5 18.5C89.9 16.9 91.3 15.8 92.9 15.8C93.1 15.9 93.4 15.9 93.6 16ZM107.2 20.4C105.3 20.6 103.9 22 103.5 23.8C103.4 24.3 103.4 25.2 103.5 25.7C103.9 27.3 105.1 28.4 106.7 28.8C106.9 28.8 107.3 28.9 107.6 28.9C108.8 28.9 109.8 28.5 110.6 27.7C111.5 26.8 111.8 25.9 111.8 24.7C111.8 23.2 111.1 21.9 109.9 21.2C109.1 20.5 108 20.3 107.2 20.4Z" fill="#6024D2"/>
<path fill-rule="evenodd" clip-rule="evenodd" d="M53.2969 33.2016C52.5969 32.1016 53.1969 30.6016 54.4969 30.2016C54.6969 30.1016 54.7969 30.1016 55.1969 30.1016C55.5969 30.1016 55.6969 30.1016 55.9969 30.3016C56.9969 30.8016 57.4969 32.0016 56.9969 33.0016C56.7969 33.4016 56.3969 33.8016 55.9969 34.0016C55.6969 34.1016 55.5969 34.1016 55.0969 34.1016H55.0969H55.0968C54.4969 34.1016 54.4969 34.1016 54.1969 34.0016C53.8969 33.9016 53.4969 33.5016 53.2969 33.2016ZM45.7969 33.5016C46.2969 31.7016 47.3969 30.6016 49.0969 30.3016C49.1877 30.3016 49.2877 30.2924 49.3969 30.2824C49.6483 30.2593 49.9483 30.2318 50.2969 30.3016C50.9969 30.3016 51.4969 30.3016 51.8969 30.5016L52.1969 30.6016V32.2016V33.8016C52.1969 33.8016 52.0969 33.8016 51.8969 33.7016C51.4969 33.5016 50.8969 33.5016 50.4969 33.6016C49.8969 33.7016 49.5969 34.2016 49.4969 34.9016V35.2016H50.7969H52.0969V36.7016V38.2016H50.7969H49.4969V41.8016V45.4016H47.5969H45.6969V41.8016V38.2016H44.9969H44.2969V36.7016V35.2016H44.9969H45.6969V34.5016V34.5015C45.6969 34.1016 45.6969 33.8016 45.7969 33.5016ZM64.2969 35.0016C63.4969 35.2016 62.8969 35.6016 62.4969 36.1016L62.2969 36.4016V35.8016V35.2016H60.3969H58.4969V40.3016V45.4016H60.3969H62.2969V42.6016V39.5016C62.3969 39.1016 62.5969 38.7016 62.7969 38.5016C63.2969 38.1016 64.1969 38.2016 64.5969 38.7016C64.8969 39.1016 64.8969 39.1016 64.8969 42.3016V45.3016H66.7969H68.6969V41.9016V41.9014C68.6969 38.3015 68.6969 37.9015 68.4969 37.2016C68.2969 36.6016 68.0969 36.1016 67.5969 35.7016C67.1969 35.3016 66.7969 35.0016 66.1969 34.9016H66.1968C65.6968 34.9016 64.6969 34.9016 64.2969 35.0016ZM71.7969 35.7016C72.2969 35.3016 73.1969 35.0016 73.7969 34.9016C74.0969 34.9016 74.7969 34.9016 75.0969 35.0016C75.8969 35.1016 76.5969 35.5016 77.0969 36.0016L77.3969 36.1016V35.6016V35.1016H79.2969H81.1969V40.2016V45.3016H79.2969H77.3969V44.8016V44.3016L76.9969 44.7016C76.4969 45.1016 76.0969 45.3016 75.4969 45.5016C74.9969 45.7016 73.9969 45.7016 73.3969 45.6016C72.2969 45.4016 71.3969 44.8016 70.6969 43.9016C70.1969 43.3016 69.8969 42.4016 69.6969 41.5016C69.5969 40.9016 69.5969 39.8016 69.6969 39.2016C69.9969 37.7016 70.6969 36.5016 71.7969 35.7016ZM88.2969 35.0016C87.5969 35.1016 86.8969 35.6016 86.4969 36.1016L86.2969 36.3016V35.7016V35.1016H84.3969H82.4969V40.2016V45.3016H84.3969H86.2969V42.4016V42.4014C86.2969 39.3016 86.2969 39.3016 86.4969 38.8016C86.6969 38.4016 87.0969 38.2016 87.4969 38.2016C87.8969 38.2016 88.0969 38.3016 88.3969 38.5016L88.4302 38.5347C88.4897 38.5938 88.5395 38.6432 88.5813 38.6988C88.7969 38.9856 88.7969 39.4345 88.7969 42.2016V45.2016H90.6969H92.5969V41.5016C92.5969 38.1806 92.5969 37.8404 92.5246 37.5163C92.5163 37.4793 92.5071 37.4425 92.4969 37.4016C92.4302 37.2682 92.3635 37.046 92.2969 36.8238L92.2969 36.8238C92.2635 36.7127 92.2302 36.6016 92.1969 36.5016C91.9969 36.1016 91.8969 36.0016 91.5969 35.7016C91.1969 35.3016 90.8969 35.1016 90.4969 34.9016C90.3249 34.9016 90.1469 34.8955 89.9658 34.8894C89.4098 34.8705 88.8249 34.8507 88.2969 35.0016ZM94.3969 37.5016C95.1969 36.1016 96.4969 35.3016 98.1969 35.0016C99.1969 34.8016 100.397 34.9016 101.497 35.3016L101.797 35.4016V37.1016V38.8016C100.797 38.3016 100.497 38.3016 99.7969 38.3016C98.7969 38.4016 98.0969 38.8016 97.7969 39.6016C97.6969 39.9016 97.6969 40.0016 97.6969 40.4016C97.6969 40.9015 97.6969 40.9016 97.7969 41.2015L97.7969 41.2016C97.9969 41.6016 98.2969 41.9016 98.6969 42.1016C99.0969 42.3016 99.3969 42.3016 99.9969 42.3016C100.597 42.3016 100.897 42.2016 101.397 41.9016L101.697 41.7016V43.4016V45.1016L101.297 45.3016C100.597 45.6016 100.197 45.7016 99.1969 45.7016H99.1968C98.4969 45.7016 98.1969 45.7016 97.8969 45.6016C95.9969 45.2016 94.5969 43.9016 93.9969 42.2016C93.6969 41.5016 93.6969 41.2016 93.6969 40.3016C93.6969 39.5016 93.6969 39.4016 93.7969 38.9016L93.7969 38.9014C93.9969 38.4015 94.1969 37.9015 94.3969 37.5016ZM106.797 35.0016C103.897 35.5016 102.097 38.0016 102.297 40.9016C102.397 41.9016 102.697 42.8016 103.197 43.5016C103.897 44.6016 104.997 45.3016 106.397 45.6016C106.997 45.7016 108.597 45.7016 109.297 45.6016C110.297 45.4016 111.197 44.9016 111.897 44.2016C112.197 43.9016 112.697 43.2016 112.697 43.2016C112.697 43.2016 111.997 42.9016 111.097 42.6016L109.497 42.0016L109.297 42.2016C108.997 42.5016 108.797 42.6016 108.397 42.7016C107.297 43.0016 106.197 42.4016 105.997 41.4016V41.2016H109.497H112.997V40.3016C112.997 39.7016 112.997 39.3016 112.897 39.1016C112.697 37.9016 112.197 37.1016 111.497 36.3016C110.797 35.6016 109.997 35.2016 108.897 35.0016C108.497 34.9016 107.297 34.9016 106.797 35.0016ZM53.1969 45.4016V40.3016V35.2016H55.0969H56.9969V40.3016V45.4016H55.0969H53.1969ZM77.4969 40.3031C77.4969 41.4629 76.5567 42.4031 75.3969 42.4031C74.2371 42.4031 73.2969 41.4629 73.2969 40.3031C73.2969 39.1433 74.2371 38.2031 75.3969 38.2031C76.5567 38.2031 77.4969 39.1433 77.4969 40.3031ZM106.001 38.9968C106 38.9977 106 38.9986 106 38.9995V38.9968C106 38.9968 106 38.9968 106.001 38.9968ZM106.001 38.9968C107.212 39.1136 108.027 39.173 109.4 38.9968V38.9931C109.5 37.5006 106.503 36.9995 106.001 38.9968Z" fill="black"/>
</svg>
