<svg width="1333" height="282" viewBox="0 0 1333 282" fill="none" xmlns="http://www.w3.org/2000/svg">
<g clip-path="url(#clip0_510_2)">
<ellipse cx="131.869" cy="141" rx="130.847" ry="130.783" fill="url(#paint0_linear_510_2)"/>
<g filter="url(#filter0_d_510_2)">
<path d="M166.063 55.273L86.9211 90.0242C80.4723 92.8558 77.5416 100.375 80.3754 106.82C83.2091 113.264 90.734 116.192 97.1829 113.361L176.325 78.6095C182.773 75.7778 185.704 68.2582 182.87 61.814C180.037 55.3698 172.512 52.4413 166.063 55.273Z" fill="white"/>
</g>
<g filter="url(#filter1_d_510_2)">
<path d="M158.09 112.456L125.588 126.728C119.139 129.56 116.208 137.08 119.042 143.524C121.876 149.968 129.401 152.896 135.849 150.065L168.352 135.793C174.801 132.961 177.731 125.442 174.898 118.997C172.064 112.553 164.539 109.625 158.09 112.456Z" fill="white"/>
</g>
<g filter="url(#filter2_d_510_2)">
<path d="M103.777 150.152C100.943 143.707 93.418 140.779 86.9692 143.611C80.5203 146.442 77.5897 153.962 80.4234 160.406C83.2571 166.85 90.7821 169.779 97.2309 166.947C103.68 164.115 106.61 156.596 103.777 150.152Z" fill="white"/>
</g>
<g filter="url(#filter3_d_510_2)">
<path d="M166.157 166.807L87.0157 201.558C80.5669 204.39 77.6362 211.909 80.47 218.353C83.3037 224.798 90.8286 227.726 97.2775 224.894L176.419 190.143C182.868 187.312 185.799 179.792 182.965 173.348C180.131 166.904 172.606 163.975 166.157 166.807Z" fill="white"/>
</g>
<path d="M377.918 205.801C364.094 205.801 351.977 203.071 341.566 197.609C331.326 191.977 323.39 184.127 317.758 174.057C312.126 163.988 309.31 152.297 309.31 138.985C309.31 126.015 312.041 114.58 317.502 104.681C322.964 94.7826 330.644 87.1026 340.542 81.6413C350.441 76.0093 361.876 73.1933 374.846 73.1933C395.326 73.1933 411.369 79.0813 422.974 90.8573C434.58 102.633 440.382 118.932 440.382 139.753C440.382 141.972 440.212 145.3 439.87 149.737H338.75C339.945 158.953 344.126 166.292 351.294 171.753C358.462 177.215 367.593 179.945 378.686 179.945C385.854 179.945 392.766 178.751 399.422 176.361C406.078 173.972 411.284 170.815 415.038 166.889L432.446 183.785C426.132 190.612 418.11 195.988 408.382 199.913C398.825 203.839 388.67 205.801 377.918 205.801ZM412.478 127.465C411.454 118.42 407.614 111.252 400.958 105.961C394.473 100.671 386.025 98.0253 375.614 98.0253C365.716 98.0253 357.609 100.585 351.294 105.705C344.98 110.825 340.884 118.079 339.006 127.465H412.478ZM513.874 205.289C492.541 205.289 473.512 199.06 456.786 186.601L470.098 165.865C475.73 170.303 482.472 173.801 490.322 176.361C498.173 178.751 506.28 179.945 514.642 179.945C522.664 179.945 528.893 178.751 533.33 176.361C537.768 173.801 539.986 170.217 539.986 165.609C539.986 161.172 537.768 157.759 533.33 155.369C529.064 152.98 522.066 151.273 512.338 150.249C495.784 148.713 482.984 144.617 473.938 137.961C465.064 131.135 460.626 122.26 460.626 111.337C460.626 103.657 462.93 96.9159 467.538 91.1133C472.146 85.3106 478.546 80.7879 486.738 77.5453C495.101 74.3026 504.658 72.6813 515.41 72.6813C534.866 72.6813 551.592 77.5453 565.586 87.2733L553.042 107.753C541.778 100.585 529.661 97.0013 516.69 97.0013C507.645 97.0013 500.733 98.2813 495.954 100.841C491.176 103.231 488.786 106.729 488.786 111.337C488.786 115.433 490.749 118.676 494.674 121.065C498.77 123.284 505.426 124.905 514.642 125.929C533.416 127.977 547.069 132.159 555.602 138.473C564.136 144.788 568.402 153.919 568.402 165.865C568.402 173.716 566.098 180.628 561.49 186.601C557.053 192.404 550.653 197.012 542.29 200.425C534.098 203.668 524.626 205.289 513.874 205.289ZM594.002 75.7533H619.602L619.858 92.6493C624.808 86.5053 631.293 81.7266 639.314 78.3133C647.336 74.7293 656.21 72.9373 665.938 72.9373C678.226 72.9373 689.064 75.7533 698.45 81.3853C708.008 86.8466 715.432 94.6119 720.722 104.681C726.013 114.751 728.658 126.185 728.658 138.985C728.658 151.785 726.013 163.22 720.722 173.289C715.432 183.359 708.008 191.209 698.45 196.841C689.064 202.303 678.226 205.033 665.938 205.033C657.234 205.033 649.042 203.583 641.362 200.681C633.853 197.78 627.624 193.684 622.674 188.393V260.585H594.002V75.7533ZM622.674 138.985C622.674 150.761 626.258 160.404 633.426 167.913C640.765 175.252 650.066 178.921 661.33 178.921C672.765 178.921 682.066 175.252 689.234 167.913C696.402 160.404 699.986 150.761 699.986 138.985C699.986 127.209 696.402 117.652 689.234 110.313C682.066 102.804 672.765 99.0493 661.33 99.0493C650.066 99.0493 640.765 102.804 633.426 110.313C626.258 117.652 622.674 127.209 622.674 138.985ZM815.668 205.801C801.844 205.801 789.727 203.071 779.316 197.609C769.076 191.977 761.14 184.127 755.508 174.057C749.876 163.988 747.06 152.297 747.06 138.985C747.06 126.015 749.791 114.58 755.252 104.681C760.714 94.7826 768.394 87.1026 778.292 81.6413C788.191 76.0093 799.626 73.1933 812.596 73.1933C833.076 73.1933 849.119 79.0813 860.724 90.8573C872.33 102.633 878.132 118.932 878.132 139.753C878.132 141.972 877.962 145.3 877.62 149.737H776.5C777.695 158.953 781.876 166.292 789.044 171.753C796.212 177.215 805.343 179.945 816.436 179.945C823.604 179.945 830.516 178.751 837.172 176.361C843.828 173.972 849.034 170.815 852.788 166.889L870.196 183.785C863.882 190.612 855.86 195.988 846.132 199.913C836.575 203.839 826.42 205.801 815.668 205.801ZM850.228 127.465C849.204 118.42 845.364 111.252 838.708 105.961C832.223 100.671 823.775 98.0253 813.364 98.0253C803.466 98.0253 795.359 100.585 789.044 105.705C782.73 110.825 778.634 118.079 776.756 127.465H850.228ZM903.752 75.7533H929.352L929.608 92.3933C940.36 79.5933 954.952 73.1933 973.384 73.1933C984.136 73.1933 993.608 75.6679 1001.8 80.6173C1009.99 85.3959 1016.31 92.2226 1020.74 101.097C1025.18 109.972 1027.4 120.383 1027.4 132.329V202.217H998.728V134.121C998.728 123.028 995.998 114.409 990.536 108.265C985.075 102.121 977.566 99.0493 968.008 99.0493C957.598 99.0493 949.064 102.548 942.408 109.545C935.752 116.372 932.424 125.076 932.424 135.657V202.217H903.752V75.7533ZM1113.55 204.009C1100.24 204.009 1090 200.169 1082.83 192.489C1075.66 184.809 1072.08 173.545 1072.08 158.697V100.073H1048.27V75.7533H1072.08V42.7293L1100.49 39.6573V75.7533H1136.84V100.073H1100.49V158.697C1100.49 165.183 1101.94 170.132 1104.84 173.545C1107.92 176.959 1112.35 178.665 1118.16 178.665C1123.28 178.665 1128.57 177.385 1134.03 174.825L1141.96 197.865C1137.01 200.084 1132.32 201.62 1127.88 202.473C1123.62 203.497 1118.84 204.009 1113.55 204.009ZM1222.64 205.033C1209.16 205.033 1197.3 202.217 1187.06 196.585C1176.82 190.783 1168.88 182.932 1163.25 173.033C1157.79 162.964 1155.06 151.615 1155.06 138.985C1155.06 126.356 1157.79 115.092 1163.25 105.193C1168.88 95.1239 1176.82 87.2733 1187.06 81.6413C1197.3 75.8386 1209.16 72.9373 1222.64 72.9373C1235.96 72.9373 1247.73 75.8386 1257.97 81.6413C1268.21 87.2733 1276.06 95.1239 1281.52 105.193C1287.16 115.092 1289.97 126.356 1289.97 138.985C1289.97 151.615 1287.16 162.964 1281.52 173.033C1276.06 182.932 1268.21 190.783 1257.97 196.585C1247.73 202.217 1235.96 205.033 1222.64 205.033ZM1183.73 138.985C1183.73 146.324 1185.35 153.065 1188.6 159.209C1191.84 165.183 1196.36 169.961 1202.16 173.545C1208.14 177.129 1214.96 178.921 1222.64 178.921C1230.32 178.921 1237.07 177.129 1242.87 173.545C1248.84 169.961 1253.36 165.183 1256.44 159.209C1259.68 153.065 1261.3 146.324 1261.3 138.985C1261.3 131.647 1259.68 124.991 1256.44 119.017C1253.36 112.873 1248.84 108.009 1242.87 104.425C1237.07 100.841 1230.32 99.0493 1222.64 99.0493C1214.96 99.0493 1208.14 100.841 1202.16 104.425C1196.36 108.009 1191.84 112.873 1188.6 119.017C1185.35 124.991 1183.73 131.647 1183.73 138.985Z" fill="white"/>
</g>
<defs>
<filter id="filter0_d_510_2" x="75.2946" y="54.1929" width="112.657" height="68.248" filterUnits="userSpaceOnUse" color-interpolation-filters="sRGB">
<feFlood flood-opacity="0" result="BackgroundImageFix"/>
<feColorMatrix in="SourceAlpha" type="matrix" values="0 0 0 0 0 0 0 0 0 0 0 0 0 0 0 0 0 0 127 0" result="hardAlpha"/>
<feOffset dy="4"/>
<feGaussianBlur stdDeviation="2"/>
<feComposite in2="hardAlpha" operator="out"/>
<feColorMatrix type="matrix" values="0 0 0 0 0 0 0 0 0 0 0 0 0 0 0 0 0 0 0.25 0"/>
<feBlend mode="normal" in2="BackgroundImageFix" result="effect1_dropShadow_510_2"/>
<feBlend mode="normal" in="SourceGraphic" in2="effect1_dropShadow_510_2" result="shape"/>
</filter>
<filter id="filter1_d_510_2" x="113.961" y="111.376" width="66.0174" height="47.7686" filterUnits="userSpaceOnUse" color-interpolation-filters="sRGB">
<feFlood flood-opacity="0" result="BackgroundImageFix"/>
<feColorMatrix in="SourceAlpha" type="matrix" values="0 0 0 0 0 0 0 0 0 0 0 0 0 0 0 0 0 0 127 0" result="hardAlpha"/>
<feOffset dy="4"/>
<feGaussianBlur stdDeviation="2"/>
<feComposite in2="hardAlpha" operator="out"/>
<feColorMatrix type="matrix" values="0 0 0 0 0 0 0 0 0 0 0 0 0 0 0 0 0 0 0.25 0"/>
<feBlend mode="normal" in2="BackgroundImageFix" result="effect1_dropShadow_510_2"/>
<feBlend mode="normal" in="SourceGraphic" in2="effect1_dropShadow_510_2" result="shape"/>
</filter>
<filter id="filter2_d_510_2" x="75.3426" y="142.531" width="33.5148" height="33.4966" filterUnits="userSpaceOnUse" color-interpolation-filters="sRGB">
<feFlood flood-opacity="0" result="BackgroundImageFix"/>
<feColorMatrix in="SourceAlpha" type="matrix" values="0 0 0 0 0 0 0 0 0 0 0 0 0 0 0 0 0 0 127 0" result="hardAlpha"/>
<feOffset dy="4"/>
<feGaussianBlur stdDeviation="2"/>
<feComposite in2="hardAlpha" operator="out"/>
<feColorMatrix type="matrix" values="0 0 0 0 0 0 0 0 0 0 0 0 0 0 0 0 0 0 0.25 0"/>
<feBlend mode="normal" in2="BackgroundImageFix" result="effect1_dropShadow_510_2"/>
<feBlend mode="normal" in="SourceGraphic" in2="effect1_dropShadow_510_2" result="shape"/>
</filter>
<filter id="filter3_d_510_2" x="75.3892" y="165.727" width="112.657" height="68.248" filterUnits="userSpaceOnUse" color-interpolation-filters="sRGB">
<feFlood flood-opacity="0" result="BackgroundImageFix"/>
<feColorMatrix in="SourceAlpha" type="matrix" values="0 0 0 0 0 0 0 0 0 0 0 0 0 0 0 0 0 0 127 0" result="hardAlpha"/>
<feOffset dy="4"/>
<feGaussianBlur stdDeviation="2"/>
<feComposite in2="hardAlpha" operator="out"/>
<feColorMatrix type="matrix" values="0 0 0 0 0 0 0 0 0 0 0 0 0 0 0 0 0 0 0.25 0"/>
<feBlend mode="normal" in2="BackgroundImageFix" result="effect1_dropShadow_510_2"/>
<feBlend mode="normal" in="SourceGraphic" in2="effect1_dropShadow_510_2" result="shape"/>
</filter>
<linearGradient id="paint0_linear_510_2" x1="26.801" y1="210.1" x2="236.877" y2="76.101" gradientUnits="userSpaceOnUse">
<stop stop-color="#2E5AD0"/>
<stop offset="1" stop-color="#4076F4"/>
</linearGradient>
<clipPath id="clip0_510_2">
<rect width="1333" height="282" fill="white"/>
</clipPath>
</defs>
</svg>
